<svg id="Layer_1" data-name="Layer 1" xmlns="http://www.w3.org/2000/svg" viewBox="0 0 130 130"><defs><style>.cls-1,.cls-2,.cls-3{fill:none;}.cls-1{stroke:#182ac3;}.cls-1,.cls-2{stroke-miterlimit:10;}.cls-2,.cls-3{stroke:#fff;}.cls-3{stroke-linecap:round;stroke-linejoin:round;stroke-width:4px;}.cls-4{fill:#fff;}</style></defs><rect class="cls-1" x="-612.56" y="-248.31" width="1763.16" height="637.28"/><rect class="cls-2" x="-527.81" y="-107.47" width="1617.81" height="435.04"/><rect class="cls-3" x="72.11" y="18.07" width="49.89" height="106.93"/><rect class="cls-4" x="78.94" y="27.1" width="36.22" height="6.46"/><rect class="cls-4" x="78.94" y="40.84" width="36.22" height="6.46"/><rect class="cls-4" x="78.94" y="54.57" width="36.22" height="6.46"/><rect class="cls-4" x="78.94" y="68.3" width="36.22" height="6.46"/><rect class="cls-4" x="78.94" y="82.04" width="36.22" height="6.46"/><rect class="cls-4" x="78.94" y="95.77" width="36.22" height="6.46"/><rect class="cls-4" x="78.94" y="109.5" width="36.22" height="6.46"/><path class="cls-3" d="M58.51,45.32V11a6,6,0,0,0-6-6H22.43"/><rect class="cls-4" x="55.06" y="45.32" width="6.92" height="79.68"/><path class="cls-3" d="M38.52,5A6.81,6.81,0,0,1,25.16,5Z"/><line class="cls-3" x1="31.84" y1="18.97" x2="31.84" y2="22.15"/><line class="cls-3" x1="40.35" y1="16.69" x2="41.94" y2="19.44"/><line class="cls-3" x1="46.58" y1="10.46" x2="49.34" y2="12.05"/><line class="cls-3" x1="14.34" y1="12.05" x2="17.1" y2="10.46"/><line class="cls-3" x1="21.74" y1="19.44" x2="23.33" y2="16.69"/><line class="cls-3" x1="5.02" y1="125" x2="124.98" y2="125"/><rect class="cls-3" x="10.4" y="96.11" width="35.6" height="6.45"/><rect class="cls-3" x="10.4" y="96.11" width="35.6" height="14.2"/><line class="cls-3" x1="17.35" y1="96.11" x2="17.35" y2="82.23"/><line class="cls-3" x1="38.16" y1="96.11" x2="38.16" y2="82.23"/><path class="cls-3" d="M41,61.38a18,18,0,0,0-25.51,0"/><path class="cls-3" d="M37.19,66.48a12.69,12.69,0,0,0-18,0"/><path class="cls-3" d="M32.78,71.28a6.46,6.46,0,0,0-9.15,0"/><path class="cls-4" d="M30.23,75.46a2,2,0,1,1-2-2A2,2,0,0,1,30.23,75.46Z"/></svg>