<svg id="Layer_1" data-name="Layer 1" xmlns="http://www.w3.org/2000/svg" viewBox="0 0 130 130"><defs><style>.cls-1,.cls-2,.cls-3{fill:none;}.cls-1{stroke:#182ac3;}.cls-1,.cls-2{stroke-miterlimit:10;}.cls-2{stroke:#fff;}.cls-3{stroke:#0561fc;stroke-linecap:round;stroke-linejoin:round;stroke-width:4px;}.cls-4{fill:#c5e1f9;}.cls-5{fill:#0561fc;}</style></defs><rect class="cls-1" x="-539.54" y="-233.39" width="1276.17" height="601.28"/><rect class="cls-2" x="-527.81" y="-106.23" width="1617.81" height="361.81"/><circle class="cls-3" cx="90.16" cy="40.45" r="31.5"/><ellipse class="cls-3" cx="90.16" cy="40.45" rx="14.96" ry="31.5"/><ellipse class="cls-3" cx="90.16" cy="40.45" rx="31.5" ry="19.66"/><path class="cls-3" d="M58.66,40.45s37.89,4.3,63,0"/><line class="cls-3" x1="90.16" y1="8.95" x2="90.16" y2="71.95"/><rect class="cls-4" x="9.68" y="98.49" width="55.13" height="9.99"/><rect class="cls-3" x="9.68" y="98.49" width="55.13" height="21.98"/><line class="cls-3" x1="20.43" y1="98.49" x2="20.43" y2="77.01"/><line class="cls-3" x1="52.66" y1="98.49" x2="52.66" y2="77.01"/><path class="cls-3" d="M53.83,63.05a23.45,23.45,0,0,0-33.18,0"/><path class="cls-3" d="M48.93,69.68a16.51,16.51,0,0,0-23.38,0"/><path class="cls-3" d="M43.19,75.93a8.4,8.4,0,0,0-11.9,0"/><path class="cls-5" d="M39.87,81.36a2.63,2.63,0,1,1-2.63-2.63A2.64,2.64,0,0,1,39.87,81.36Z"/></svg>