<svg id="Layer_1" data-name="Layer 1" xmlns="http://www.w3.org/2000/svg" viewBox="0 0 130 130"><defs><style>.cls-1,.cls-2,.cls-3{fill:none;}.cls-1{stroke:#182ac3;}.cls-1,.cls-2{stroke-miterlimit:10;}.cls-2{stroke:#fff;}.cls-3{stroke:#0561fc;stroke-linecap:round;stroke-linejoin:round;stroke-width:4px;}.cls-4{fill:#c5e1f9;}.cls-5{fill:#0561fc;}</style></defs><rect class="cls-1" x="-939.54" y="-233.39" width="1276.17" height="601.28"/><rect class="cls-2" x="-927.81" y="-106.23" width="1617.81" height="361.81"/><path class="cls-3" d="M120.19,55.26A23.6,23.6,0,0,1,99,78.74v.12H87.79V54.08a4.54,4.54,0,0,0-4.54-4.54H42.74a4.54,4.54,0,0,0-4.54,4.54V78.86H24.76v-.1a21,21,0,0,1-1.2-41.57c0-.32,0-.64,0-1A12.24,12.24,0,0,1,42,25.72a26.87,26.87,0,0,1,47.91,6.91,23.6,23.6,0,0,1,30.26,22.63Z"/><rect class="cls-3" x="38.2" y="49.54" width="49.59" height="44.77" rx="4.54"/><rect class="cls-4" x="45.1" y="58.11" width="35.79" height="9.81"/><rect class="cls-4" x="45.1" y="74.28" width="35.79" height="9.81"/><path class="cls-3" d="M124.2,9.91a16.77,16.77,0,0,0-23.71,0"/><path class="cls-3" d="M120.7,14.65a11.82,11.82,0,0,0-16.71,0"/><path class="cls-3" d="M116.6,19.12a6,6,0,0,0-8.51,0"/><path class="cls-5" d="M114.23,23.48a1.89,1.89,0,1,1-1.88-1.88A1.88,1.88,0,0,1,114.23,23.48Z"/><path class="cls-3" d="M47.79,121a7.65,7.65,0,1,0-7.67-7.62A7.65,7.65,0,0,0,47.79,121Z"/><path class="cls-5" d="M82.26,121a7.65,7.65,0,1,0-7.67-7.62A7.65,7.65,0,0,0,82.26,121Z"/></svg>