<svg xmlns="http://www.w3.org/2000/svg" width="114.632" height="93.012" viewBox="0 0 114.632 93.012">
  <g id="Layer_23" transform="translate(1547.225 -63.15)">
    <path id="Path_764" data-name="Path 764" d="M-1442.441,201.9h-82.429v-.959c0-2.763,4.622-5,10.327-5h61.776c5.7,0,10.327,2.241,10.327,5v.959Z" transform="translate(-10.313 -60.817)" fill="#c5e1f9"/>
    <path id="Path_765" data-name="Path 765" d="M-1519.37,89.6h75.9v.959c0,2.763-4.256,5-9.508,5h-56.885c-5.252,0-9.508-2.241-9.508-5Z" transform="translate(-12.85 -11.76)" fill="#c5e1f9"/>
    <rect id="Rectangle_211" data-name="Rectangle 211" width="75.9" height="55.156" transform="translate(-1532.129 77.84)" fill="none" stroke="#0561fc" stroke-linecap="round" stroke-linejoin="round" stroke-width="2"/>
    <path id="Path_766" data-name="Path 766" d="M-1446.705,149.321h-77.414a3.911,3.911,0,0,1-3.911-3.911V86.3a3.911,3.911,0,0,1,3.911-3.911h77.414a3.91,3.91,0,0,1,3.911,3.911v59.1A3.915,3.915,0,0,1-1446.705,149.321Z" transform="translate(-8.855 -8.434)" fill="none" stroke="#0561fc" stroke-linecap="round" stroke-linejoin="round" stroke-width="2"/>
    <path id="Path_767" data-name="Path 767" d="M-1451.179,223.33h-19.813a4.849,4.849,0,0,0-4.848,4.848v.436h29.509v-.436A4.848,4.848,0,0,0-1451.179,223.33Z" transform="translate(-32.931 -73.452)" fill="none" stroke="#0561fc" stroke-linecap="round" stroke-linejoin="round" stroke-width="2"/>
    <line id="Line_357" data-name="Line 357" y2="8.991" transform="translate(-1503.724 140.887)" fill="none" stroke="#0561fc" stroke-linecap="round" stroke-linejoin="round" stroke-width="2"/>
    <line id="Line_358" data-name="Line 358" y2="8.522" transform="translate(-1484.628 140.887)" fill="none" stroke="#0561fc" stroke-linecap="round" stroke-linejoin="round" stroke-width="2"/>
    <path id="Path_768" data-name="Path 768" d="M-1485.495,120.65h-24.3a.9.9,0,0,1-.905-.9h0a.9.9,0,0,1,.905-.9h24.3a.9.9,0,0,1,.905.9h0A.9.9,0,0,1-1485.495,120.65Z" transform="translate(-16.85 -25.249)" fill="#c5e1f9"/>
    <path id="Path_769" data-name="Path 769" d="M-1485.495,127.09h-24.3a.9.9,0,0,1-.905-.9h0a.9.9,0,0,1,.905-.9h24.3a.9.9,0,0,1,.905.9h0A.9.9,0,0,1-1485.495,127.09Z" transform="translate(-16.85 -28.22)" fill="#c5e1f9"/>
    <path id="Path_770" data-name="Path 770" d="M-1485.495,133.54h-24.3a.9.9,0,0,1-.905-.9h0a.9.9,0,0,1,.905-.9h24.3a.9.9,0,0,1,.905.9h0A.9.9,0,0,1-1485.495,133.54Z" transform="translate(-16.85 -31.196)" fill="#c5e1f9"/>
    <path id="Path_771" data-name="Path 771" d="M-1494.214,146.43h-13.731a.9.9,0,0,1-.905-.9h0a.9.9,0,0,1,.905-.9h13.731a.9.9,0,0,1,.905.9h0A.907.907,0,0,1-1494.214,146.43Z" transform="translate(-17.703 -37.142)" fill="#c5e1f9"/>
    <path id="Path_772" data-name="Path 772" d="M-1416.1,156.595h-17.329a4.775,4.775,0,0,1-4.773-4.773V134.493a4.775,4.775,0,0,1,4.773-4.773h17.329a4.775,4.775,0,0,1,4.773,4.773v17.329A4.775,4.775,0,0,1-1416.1,156.595Z" transform="translate(-50.296 -30.268)" fill="#c5e1f9"/>
    <text id="_" data-name="&lt; / &gt;" transform="translate(-1526.556 123.566)" fill="none" stroke="#0561fc" stroke-linecap="round" stroke-linejoin="round" stroke-width="1" font-size="11" font-family="Myriad Pro"><tspan x="0" y="0">&lt; / &gt;</tspan></text>
    <path id="Path_773" data-name="Path 773" d="M-1519.079,185.712c-.151-1.153-.539-1.745-1.342-1.918a3.229,3.229,0,0,1-2.623-4.39,1.547,1.547,0,0,0-.533-1.788,12.8,12.8,0,0,0-3.237-1.907,1.5,1.5,0,0,0-2.047.42,3.165,3.165,0,0,1-1.552,1.023,3.276,3.276,0,0,1-3.474-1,1.519,1.519,0,0,0-2.1-.436,12.1,12.1,0,0,0-2.861,1.621,1.511,1.511,0,0,0-.6,2,3.259,3.259,0,0,1-2.72,4.347,1.47,1.47,0,0,0-1.357,1.2,9.839,9.839,0,0,0-.092,4.159,1.458,1.458,0,0,0,1.438,1.368,3.266,3.266,0,0,1,2.564,4.552,1.437,1.437,0,0,0,.474,1.88,12.287,12.287,0,0,0,3.227,1.907,1.5,1.5,0,0,0,2.036-.485,3.577,3.577,0,0,1,1.153-.991,3.224,3.224,0,0,1,3.917.716c.388.415.743.894,1.417.813a1.692,1.692,0,0,0,.528-.075,12.2,12.2,0,0,0,3.27-1.955,1.383,1.383,0,0,0,.474-1.783,3.289,3.289,0,0,1,2.586-4.471,1.5,1.5,0,0,0,1.336-1.347A11.111,11.111,0,0,0-1519.079,185.712Zm-12.32,5.645a4.168,4.168,0,0,1-4.164-4.121,4.27,4.27,0,0,1,4.245-4.191,4.29,4.29,0,0,1,4.1,4.212A4.172,4.172,0,0,1-1531.4,191.358Z" transform="translate(-1.582 -51.381)" fill="#c5e1f9"/>
    <path id="Path_774" data-name="Path 774" d="M-1405.589,109.99c-.07-.56-.259-.846-.652-.927a1.563,1.563,0,0,1-1.271-2.128.752.752,0,0,0-.258-.867,6.121,6.121,0,0,0-1.568-.921.726.726,0,0,0-.991.2,1.521,1.521,0,0,1-.749.5,1.577,1.577,0,0,1-1.681-.485.734.734,0,0,0-1.013-.21,5.859,5.859,0,0,0-1.384.786.727.727,0,0,0-.291.964,1.579,1.579,0,0,1-1.32,2.106.712.712,0,0,0-.657.576,4.705,4.705,0,0,0-.043,2.015.705.705,0,0,0,.695.663,1.578,1.578,0,0,1,1.239,2.2.69.69,0,0,0,.231.91,6.112,6.112,0,0,0,1.562.927.727.727,0,0,0,.986-.237,1.716,1.716,0,0,1,.56-.479,1.559,1.559,0,0,1,1.9.35c.189.2.361.431.684.393a.751.751,0,0,0,.259-.038,5.917,5.917,0,0,0,1.584-.948.671.671,0,0,0,.232-.862,1.593,1.593,0,0,1,1.25-2.165.728.728,0,0,0,.646-.652A5.476,5.476,0,0,0-1405.589,109.99Zm-5.963,2.731a2.014,2.014,0,0,1-2.015-1.993,2.072,2.072,0,0,1,2.052-2.031,2.077,2.077,0,0,1,1.988,2.042A2.014,2.014,0,0,1-1411.552,112.721Z" transform="translate(-59.819 -18.883)" fill="#c5e1f9"/>
    <path id="Path_775" data-name="Path 775" d="M-1520.161,193.737a4.176,4.176,0,0,1-4.185,4.1,4.168,4.168,0,0,1-4.164-4.121,4.271,4.271,0,0,1,4.245-4.191A4.273,4.273,0,0,1-1520.161,193.737Z" transform="translate(-8.634 -57.859)" fill="#c5e1f9"/>
    <path id="Path_776" data-name="Path 776" d="M-1532.888,78.146c-.086-.668-.312-1.013-.776-1.115a1.876,1.876,0,0,1-1.524-2.548.9.9,0,0,0-.307-1.034,7.307,7.307,0,0,0-1.875-1.1.877.877,0,0,0-1.19.242,1.838,1.838,0,0,1-.9.593,1.892,1.892,0,0,1-2.015-.582.886.886,0,0,0-1.217-.253,7.023,7.023,0,0,0-1.659.943.875.875,0,0,0-.35,1.158,1.891,1.891,0,0,1-1.578,2.521.85.85,0,0,0-.786.695,5.7,5.7,0,0,0-.054,2.413.846.846,0,0,0,.835.792,1.893,1.893,0,0,1,1.487,2.64.83.83,0,0,0,.275,1.088,7.33,7.33,0,0,0,1.875,1.11.873.873,0,0,0,1.18-.28,2.081,2.081,0,0,1,.668-.576,1.871,1.871,0,0,1,2.273.415c.226.242.431.517.824.474a1.03,1.03,0,0,0,.307-.043,7.069,7.069,0,0,0,1.9-1.137.807.807,0,0,0,.275-1.034,1.9,1.9,0,0,1,1.5-2.591.872.872,0,0,0,.776-.781A6.409,6.409,0,0,0-1532.888,78.146Zm-7.148,3.275a2.418,2.418,0,0,1-2.413-2.392,2.484,2.484,0,0,1,2.462-2.435,2.49,2.49,0,0,1,2.381,2.446A2.42,2.42,0,0,1-1540.036,81.422Z" transform="translate(0 -3.738)" fill="#c5e1f9"/>
    <path id="Path_777" data-name="Path 777" d="M-1526.87,198.815c-.673.075-1.029-.4-1.417-.813a3.224,3.224,0,0,0-3.916-.722,3.646,3.646,0,0,0-1.153.991,1.5,1.5,0,0,1-2.031.485,12.613,12.613,0,0,1-3.232-1.907,1.437,1.437,0,0,1-.474-1.88,3.266,3.266,0,0,0-2.564-4.552,1.458,1.458,0,0,1-1.438-1.368A9.814,9.814,0,0,1-1543,184.9a1.465,1.465,0,0,1,1.358-1.2,3.254,3.254,0,0,0,2.72-4.342,1.511,1.511,0,0,1,.6-2,12.286,12.286,0,0,1,2.86-1.621,1.524,1.524,0,0,1,2.1.436,3.269,3.269,0,0,0,3.474,1,3.164,3.164,0,0,0,1.551-1.023,1.5,1.5,0,0,1,2.047-.42,12.527,12.527,0,0,1,3.232,1.907,1.536,1.536,0,0,1,.533,1.788,3.231,3.231,0,0,0,2.624,4.39c.808.172,1.19.765,1.341,1.918a11.291,11.291,0,0,1-.113,3.458,1.5,1.5,0,0,1-1.336,1.347,3.287,3.287,0,0,0-2.585,4.471,1.384,1.384,0,0,1-.474,1.783,12.281,12.281,0,0,1-3.27,1.955A2.064,2.064,0,0,1-1526.87,198.815Zm-4.008-7.445a4.184,4.184,0,0,0,4.186-4.1,4.286,4.286,0,0,0-4.1-4.212,4.274,4.274,0,0,0-4.245,4.191A4.176,4.176,0,0,0-1530.878,191.371Z" transform="translate(-1.822 -51.389)" fill="none" stroke="#0561fc" stroke-linecap="round" stroke-linejoin="round" stroke-width="2"/>
    <path id="Path_778" data-name="Path 778" d="M-1385.888,90.3c-.754.086-1.153-.447-1.594-.916a3.621,3.621,0,0,0-4.4-.813,3.959,3.959,0,0,0-1.293,1.115,1.694,1.694,0,0,1-2.284.549,14.022,14.022,0,0,1-3.631-2.144,1.614,1.614,0,0,1-.533-2.112,3.672,3.672,0,0,0-2.882-5.117,1.64,1.64,0,0,1-1.616-1.541,11.19,11.19,0,0,1,.1-4.67,1.654,1.654,0,0,1,1.524-1.347,3.661,3.661,0,0,0,3.06-4.88,1.689,1.689,0,0,1,.679-2.241,13.6,13.6,0,0,1,3.211-1.821,1.713,1.713,0,0,1,2.354.49,3.674,3.674,0,0,0,3.905,1.12,3.578,3.578,0,0,0,1.745-1.147,1.69,1.69,0,0,1,2.3-.474,14.16,14.16,0,0,1,3.631,2.139,1.731,1.731,0,0,1,.6,2.009,3.626,3.626,0,0,0,2.947,4.929c.905.194,1.336.856,1.508,2.155a12.684,12.684,0,0,1-.124,3.884,1.692,1.692,0,0,1-1.5,1.514,3.692,3.692,0,0,0-2.9,5.021,1.557,1.557,0,0,1-.533,2,13.8,13.8,0,0,1-3.674,2.2A1.725,1.725,0,0,1-1385.888,90.3Z" transform="translate(-65.924)" fill="#fff" stroke="#0561fc" stroke-linecap="round" stroke-linejoin="round" stroke-width="2"/>
    <path id="Path_779" data-name="Path 779" d="M-1391.409,75.951l-.366-.329s3.76-1.411,4.067,3.356c3.927,3.124,6.545,5.306,6.545,5.306s4.035-1.379,4.153,3.1c-1.093-.824-1.875-1.417-1.875-1.417l-1.708.533-.237,1.81,1.9,1.665s-3.889,1.034-4.051-3.34l-6.615-5.328s-4.282,1.094-4.159-3.264c.156.092.474.339.474.339l1.465,1.293,1.815-.566.2-1.88Z" transform="translate(-70.799 -5.222)" fill="#c5e1f9"/>
    <path id="Path_780" data-name="Path 780" d="M-1393.522,87.068l-.4.28s-.533-3.981,4.186-3.216c3.927-3.13,6.637-5.188,6.637-5.188s-.442-4.245,3.954-3.351c-1.05.883-1.8,1.514-1.8,1.514l.135,1.783,1.713.636,2.047-1.481s.14,4.024-4.159,3.205l-6.674,5.258s.108,4.417-4.11,3.324c.124-.129.436-.388.436-.388l1.589-1.142-.145-1.9-1.788-.625Z" transform="translate(-70.712 -5.242)" fill="#c5e1f9"/>
    <g id="Group_82639" data-name="Group 82639" transform="translate(-1500.594 96.79)">
      <path id="Path_781" data-name="Path 781" d="M-1454.591,130.98l-4.579,4.062,1.185,6.276,6.421,2.591,5.4-4.024-1.524-6.54Z" transform="translate(1459.973 -127.64)" fill="none" stroke="#0561fc" stroke-linecap="round" stroke-linejoin="round" stroke-width="2"/>
      <circle id="Ellipse_116" data-name="Ellipse 116" cx="2.144" cy="2.144" r="2.144" transform="translate(4.994 7.548)" fill="none" stroke="#0561fc" stroke-linecap="round" stroke-linejoin="round" stroke-width="2"/>
      <path id="Path_782" data-name="Path 782" d="M-1455.279,128.119l-1.605-.673s10.914-9.147,17.561,6.437c16.818,5.829,28.13,10.041,28.13,10.041s11.878-9.362,17.534,5.489c-4.633-1.476-7.946-2.537-7.946-2.537l-5.08,3.792,1.341,6.335,8.317,3.318s-11.792,8.043-17.486-6.394l-28.4-10.03s-13.036,8.705-17.744-6.012c.625.129,1.982.576,1.982.576l6.427,2.6,5.4-4.024-1.524-6.54Z" transform="translate(1460.66 -124.779)" fill="#fff" stroke="#0561fc" stroke-linecap="round" stroke-linejoin="round" stroke-width="2"/>
    </g>
  </g>
</svg>
