<svg xmlns="http://www.w3.org/2000/svg" width="134.13" height="134.041" viewBox="0 0 134.13 134.041">
  <g id="Layer_2" data-name="Layer 2" transform="translate(-0.044 0.011)">
    <g id="Layer_1" data-name="Layer 1" transform="translate(0.044 -0.011)">
      <path id="Path_2087" data-name="Path 2087" d="M118.937,75.684h13.032a2.482,2.482,0,0,0,1.786-.543,1.629,1.629,0,0,0,.413-1.233c0-1.178-.733-1.732-2.253-1.732H119.045V61.859h12.793c1.548,0,2.248-.543,2.275-1.716a1.629,1.629,0,0,0-.407-1.243,2.438,2.438,0,0,0-1.77-.543h-13.07V55.772c.027-1.71.06-3.323-.071-4.925a2.8,2.8,0,0,1,.543-2.319,3.106,3.106,0,0,1,2.427-.6,101.353,101.353,0,0,0,10.42-.054,2.677,2.677,0,0,0,1.852-1.591,1.249,1.249,0,0,0-.168-1.086,2.2,2.2,0,0,0-1.667-.679c-.543-.027-1.129,0-1.678,0H119.018V34.2h.2l.809-.054c.57-.033,1.086-.06,1.629-.065H131.5a3.256,3.256,0,0,0,2.172-.451,1.71,1.71,0,0,0,.375-1.292c-.054-1.721-1.309-1.694-2.634-1.672h-2.53c-2.482-.033-5.044-.065-7.559.054a2.548,2.548,0,0,1-2.063-.543,2.651,2.651,0,0,1-.467-2.107,44.192,44.192,0,0,0,0-5.088c-.2-4.632-3.073-7.51-7.7-7.7h-.353a29.681,29.681,0,0,0-4.284,0c-1.249.13-2.025,0-2.514-.494a3.07,3.07,0,0,1-.592-2.5c.157-2.221.119-4.5.087-6.706,0-.945-.033-1.9-.033-2.84,0-1.385,0-2.677-1.672-2.715A1.575,1.575,0,0,0,100.5.392a3.236,3.236,0,0,0-.5,2.259V15.1H89.675v-.2c0-.277-.033-.543-.049-.793-.033-.543-.065-1.026-.065-1.52V2.14a2.4,2.4,0,0,0-.6-1.873A1.292,1.292,0,0,0,87.85.077a2.925,2.925,0,0,0-1.629,2.036c-.119,2.232-.114,4.507-.109,6.711v4.4c0,.581-.5,1.879-1,1.9-2.329.1-4.621.092-7.059.081H75.774V2.194A2.471,2.471,0,0,0,75.231.408,1.629,1.629,0,0,0,74,0c-1.184,0-1.732.728-1.738,2.248V15.074H61.949V2.5c0-1.472-.288-2.46-1.716-2.5a1.629,1.629,0,0,0-1.26.4,2.706,2.706,0,0,0-.543,1.982V15.259H55.716c-1.89,0-3.671,0-5.43.043a2.27,2.27,0,0,1-1.738-.451,2.313,2.313,0,0,1-.489-1.8c.065-2.889.043-5.826,0-8.688V2.145a2.366,2.366,0,0,0-.63-1.879A1.249,1.249,0,0,0,46.305.082a2.982,2.982,0,0,0-1.629,2.053,50.173,50.173,0,0,0-.109,5.43v7.569H34.251v-.2a5.431,5.431,0,0,0-.043-.836c-.038-.57-.071-1.113-.071-1.656V1.993A2.27,2.27,0,0,0,33.545.229,1.151,1.151,0,0,0,32.524.077,3.209,3.209,0,0,0,30.83,2.124a7.14,7.14,0,0,0-.119,2.395c0,.364.038.728.038,1.086v9.649H23.32c-4.838.114-7.814,3.063-7.96,7.89-.049,1.629-.1,3.513,0,5.316a2.172,2.172,0,0,1-.424,1.716,2.258,2.258,0,0,1-1.846.494c-2.8-.081-5.767-.087-9.329,0H2.893a3.247,3.247,0,0,0-2.291.38A1.716,1.716,0,0,0,.156,32.32a1.808,1.808,0,0,0,.407,1.4,3.1,3.1,0,0,0,2.291.364c.331,0,.646-.038.939-.033,2.617.065,5.294.049,7.884.038H15.1V44.521H11.5c-3.111,0-6.054-.033-9.03.087A2.935,2.935,0,0,0,.21,45.96,1.482,1.482,0,0,0,.341,47.3a2.706,2.706,0,0,0,2.069.668H5.526c2.547,0,5.191,0,7.781.06.657,0,1.906.657,1.933,1.2.114,2.232.1,4.507.092,6.711V58.2h-.185l-.673.065c-.331.033-.57.054-.809.054H2.323a2.454,2.454,0,0,0-1.8.543,1.629,1.629,0,0,0-.418,1.222c0,1.184.722,1.738,2.243,1.748H15.175V72.154H2.833c-1.5,0-2.688.119-2.715,1.7a1.743,1.743,0,0,0,.4,1.3,3.3,3.3,0,0,0,2.411.51H15.349v2.672c0,1.824-.038,3.551.054,5.273a2.423,2.423,0,0,1-.478,1.944,2.679,2.679,0,0,1-2,.543c-3.513-.119-7.059-.071-10.659,0a2.4,2.4,0,0,0-2.08.929,1.135,1.135,0,0,0,.033,1.162,3.128,3.128,0,0,0,2.237,1.281c2.666.114,5.387.1,8.015.081H13.53a2.02,2.02,0,0,1,1.488.358,1.52,1.52,0,0,1,.353,1.124v8.8h-.2l-.934.054c-.608.033-1.135.065-1.672.065H2.306a2.371,2.371,0,0,0-1.83.543A1.629,1.629,0,0,0,.1,101.7c.033,1.178.711,1.683,2.275,1.694H15.355v2.737c0,1.71-.027,3.329.033,4.925.157,4.567,3.1,7.526,7.678,7.721h.32a30.088,30.088,0,0,0,4.534-.033,2.77,2.77,0,0,1,2.281.472,3.116,3.116,0,0,1,.608,2.5c-.114,2.275-.087,4.594-.06,6.842v2.932c0,1.569.271,2.487,1.629,2.53a1.629,1.629,0,0,0,1.243-.364,3.228,3.228,0,0,0,.51-2.237V118.912H44.448v.19c0,.282.033.543.049.8.038.543.071,1.01.071,1.5v10.23a2.645,2.645,0,0,0,.543,1.971,1.661,1.661,0,0,0,1.276.407c1.167,0,1.629-.7,1.629-2.313v-2.948c0-2.606,0-5.3.049-7.955,0-.6.489-1.884.994-1.906,1.672-.071,3.334-.087,5.034-.087H58.4V131.8a2.46,2.46,0,0,0,.543,1.8,1.58,1.58,0,0,0,1.222.418c1.184,0,1.738-.728,1.743-2.243V118.961H72.223v12.31c-.038,1.379-.071,2.682,1.705,2.715a1.77,1.77,0,0,0,1.319-.38,3.2,3.2,0,0,0,.478-2.248v-12.57H78.44c1.884,0,3.671.033,5.43-.043a2.259,2.259,0,0,1,1.738.451A2.334,2.334,0,0,1,86.1,121c-.071,2.872-.049,5.8,0,8.628v2.264a2.363,2.363,0,0,0,.635,1.879,1.292,1.292,0,0,0,1.119.174,2.949,2.949,0,0,0,1.629-2.053c.157-2.08.136-4.214.109-6.277V118.9H99.9v.2l.049.847c.033.543.065,1.086.071,1.629V131.8a2.5,2.5,0,0,0,.516,1.841,1.591,1.591,0,0,0,1.195.375c1.178,0,1.683-.711,1.689-2.275V118.776h2.737c1.71,0,3.329.027,4.925-.033,4.637-.163,7.526-3.03,7.727-7.667a42.279,42.279,0,0,0,0-5.311,2.373,2.373,0,0,1,.434-1.906,2.774,2.774,0,0,1,2.074-.543c3.128.119,6.223.076,9.106,0h.863a3.226,3.226,0,0,0,2.286-.38,1.721,1.721,0,0,0,.451-1.276,1.846,1.846,0,0,0-.424-1.423,3.13,3.13,0,0,0-2.291-.358c-.331,0-.652.043-.945.038-2.617-.065-5.18-.054-7.9-.038h-3.481V89.563h.19l.842.027c.543-.033,1.015-.065,1.5-.071h10.442a2.416,2.416,0,0,0,1.879-.641,1.276,1.276,0,0,0,.19-1.086A2.9,2.9,0,0,0,132,86.163c-2.226-.114-4.5-.109-6.7-.109h-4.409c-.576,0-1.873-.5-1.9-1-.1-2.335-.092-4.632-.081-7.059Zm-3.551,1.374V109.7c0,2.172-.3,3.584-1.151,4.436s-2.253,1.146-4.458,1.146H24.368c-4.273,0-5.511-1.222-5.511-5.43V24.24c0-4.235,1.233-5.463,5.5-5.463H109.95c4.138,0,5.43,1.249,5.43,5.343V55.332Z" transform="translate(-0.044 0.011)" fill="#182ac3"/>
      <path id="Path_2088" data-name="Path 2088" d="M125.01,49.36H54.29c-3.5,0-4.806,1.292-4.811,4.751v60.713a7.727,7.727,0,0,0,.1,1.428v.081a4.024,4.024,0,0,0-.087.88v7.792c.027,3.546,1.271,4.8,4.768,4.8H125.2c3.448,0,4.73-1.309,4.73-4.827V54.247C129.913,50.593,128.675,49.36,125.01,49.36Zm.972,76.476a2.526,2.526,0,0,1-1.922.543h-.076c-6.516-.049-13.1-.043-19.494-.043H95.742c-.434,0-.863-.038-1.363-.087-.244-.027-.5-.054-.793-.076H93.4v-.19c0-.44,0-.874-.027-1.292a14.291,14.291,0,0,1,.06-2.606c.543-3.774-.657-6.673-3.6-8.628-2.829-1.879-2.715-4.724-2.628-7.238a2.716,2.716,0,0,1,1.629-2.758,6.684,6.684,0,0,0,3.443-8.042A6.945,6.945,0,0,0,85.6,90.231h-.076a6.967,6.967,0,0,0-6.8,5.186,6.7,6.7,0,0,0,3.464,8.047,2.413,2.413,0,0,1,1.52,2.829c-.749,4.2.635,7.515,4.241,10.143a5.794,5.794,0,0,1,1.3,1.3,2.954,2.954,0,0,1,.614,1.482c.043,1.629.038,3.22.033,4.914v2.025H77.823l-.049-.141c-.043-.119-.081-.212-.109-.293a1,1,0,0,1-.1-.38v-2.373a46.9,46.9,0,0,0-.109-5.392,7.092,7.092,0,0,0-1.575-3.725c-1.276-1.45-2.172-2.644-1.89-4.773a6,6,0,0,0-4.23-6.282,6.559,6.559,0,0,0-7.347,2.226,6.364,6.364,0,0,0-.163,7.629,6.516,6.516,0,0,0,7.434,2.443,3.4,3.4,0,0,1,3.068.293,3.312,3.312,0,0,1,1.3,2.715c.043,1.2.033,2.416,0,3.6v2.851a1.786,1.786,0,0,1-.4,1.363,1.716,1.716,0,0,1-1.368.424c-7.026-.038-12.446-.033-17.566,0h-.038a1.786,1.786,0,0,1-1.347-.429,2.085,2.085,0,0,1-.413-1.542v-7.119a4.219,4.219,0,0,0-.076-.907v-.076a7.216,7.216,0,0,0,.087-1.357c0-1.857,0-18.793,0-26.02V85.48h3.019c2.758,0,5.359,0,7.96.065.635,0,1.347.836,1.672,1.379,1.906,3.215,4.887,4.567,8.21,3.7a6.907,6.907,0,0,0,5.158-6.673A7.026,7.026,0,0,0,73.843,77c-3.258-.885-6.331.489-8.232,3.676-.456.771-.853,1.287-1.281,1.3-2.851.071-5.756.065-8.569.054H53.095V68.566l.136-.043.3-.119a1.363,1.363,0,0,1,.516-.141h2.872c5.43,0,10.985-.043,16.475,0,.733,0,1.537.885,1.873,1.434,1.917,3.133,5.012,4.469,8.281,3.573a7.059,7.059,0,0,0,0-13.575,6.842,6.842,0,0,0-8.188,3.589,2.624,2.624,0,0,1-2.8,1.52H55.441c-.483,0-.977-.027-1.493-.06l-.8-.049h-.2V64.5c0-.945,0-1.862.033-2.769.033-2.042.06-3.969-.081-5.9a3,3,0,0,1,.5-2.367,3.378,3.378,0,0,1,2.53-.684c17.474.071,35.241.065,52.426.06h15.2a3.57,3.57,0,0,0,.4-.027,1.748,1.748,0,0,1,1.01.1c.912.51,1.39.983,1.423,1.412.1,1.5.087,3.008.071,4.61v2.053h-.2c-1.173,0-2.324,0-3.459.027-2.634.033-5.126.06-7.635-.076a6.685,6.685,0,0,0-5.892,2.405,3.948,3.948,0,0,1-2.927,1.157A6.8,6.8,0,0,0,99.3,68.36a6.478,6.478,0,0,0,1.792,7.6,6.63,6.63,0,0,0,7.835.391,6.516,6.516,0,0,0,2.438-7.6,3.546,3.546,0,0,1,.418-3.073,2.427,2.427,0,0,1,1.911-1.086c2.932-.119,5.919-.1,8.813-.076h3.8V79.5h-3.459c-2.53,0-4.914.049-7.336-.065-2.715-.136-4.382.543-5.642,2.308a3.284,3.284,0,0,1-3.475,1.271,6.234,6.234,0,0,0-6.88,4.165,6.516,6.516,0,0,0,2.1,7.374,6.407,6.407,0,0,0,7.645.3,6.516,6.516,0,0,0,2.5-7.6,3.611,3.611,0,0,1,.451-3.117,2.585,2.585,0,0,1,2.042-1.167c2.769-.114,5.479-.092,8.346-.071h3.736v22.263h-3.258c-3.453,0-7.026,0-10.518-.06-.646,0-1.314-1.021-1.5-1.325-1.933-3.166-5.077-4.583-8.2-3.7a7.059,7.059,0,0,0-.043,13.618c3.225.9,6.3-.467,8.232-3.654.3-.5.9-1.352,1.472-1.363,3.5-.071,6.956-.065,10.616-.06h3.356v4.637c0,3.682-.027,7.157.06,10.681A2.7,2.7,0,0,1,125.982,125.836ZM85.534,100.858h-.054a3.649,3.649,0,0,1-3.589-3.535,3.513,3.513,0,0,1,.988-2.536A3.562,3.562,0,0,1,85.414,93.7h.054a3.481,3.481,0,0,1,3.562,3.5,3.589,3.589,0,0,1-3.5,3.682Zm-14.949,8.064a3.09,3.09,0,0,1-.793,2.172,3.155,3.155,0,0,1-2.172.9h-.174a2.889,2.889,0,0,1-2.015-.842,3.035,3.035,0,0,1-.891-2.319,2.92,2.92,0,0,1,2.976-2.938C69.5,106.065,70.6,107.173,70.585,108.921ZM68.413,83.83h0a3.584,3.584,0,0,1,1.048-2.536,3.53,3.53,0,0,1,2.514-1.043,3.589,3.589,0,0,1,3.578,3.589,3.649,3.649,0,0,1-3.567,3.627h0a3.5,3.5,0,0,1-2.5-1.086A3.606,3.606,0,0,1,68.4,83.83ZM78,66.54h0a3.578,3.578,0,0,1,1.086-2.59,3.508,3.508,0,0,1,2.5-1.048h0a3.54,3.54,0,0,1,3.557,3.584,3.611,3.611,0,0,1-1.048,2.579,3.513,3.513,0,0,1-2.487,1.043h0A3.6,3.6,0,0,1,78,66.54Zm30.191,4.545a2.932,2.932,0,0,1-.869,2.085,3.063,3.063,0,0,1-2.172.863h-.092a3.094,3.094,0,0,1-1.922-5.294A2.78,2.78,0,0,1,105.3,68a2.818,2.818,0,0,1,2.894,3.063Zm.44,18.3v.054a2.955,2.955,0,0,1-2.862,3.057,3.024,3.024,0,0,1-3.187-2.878,2.927,2.927,0,0,1,.836-2.313,2.813,2.813,0,0,1,2.2-.912,2.858,2.858,0,0,1,3.019,2.948Zm-.445,17.474v.065a3.573,3.573,0,0,1-.977,2.52,3.524,3.524,0,0,1-2.52,1.026h0a3.6,3.6,0,0,1-2.541-1.026,3.513,3.513,0,0,1-1.048-2.5,3.66,3.66,0,0,1,3.529-3.665h.043a3.589,3.589,0,0,1,3.524,3.551Z" transform="translate(-22.635 -22.552)" fill="#182ac3"/>
    </g>
  </g>
</svg>
