<svg xmlns="http://www.w3.org/2000/svg" width="129.982" height="129.849" viewBox="0 0 129.982 129.849">
  <path id="Path_2108" data-name="Path 2108" d="M129.929,39.852V39.8c0-.8-.128-1.07-.235-1.2a2.477,2.477,0,0,0-1.353-.219c-3.781.043-7.621.037-11.339.032-4.428,0-9.012,0-13.51.064-1.305,0-2.311-.1-2.99-.781a3.743,3.743,0,0,1-.8-2.888c.091-6.113.086-12.3.08-18.34,0-4.846,0-9.862.037-14.794,0-.776-.075-1.246-.251-1.423a2.4,2.4,0,0,0-1.449-.267c-32.4.075-64.854.07-96.474,0H1.6A2.273,2.273,0,0,0,.241.242C0,.472,0,1.178,0,1.691c.059,16.045.053,32.336.048,48.1V70.188c0,6.546,0,13.312-.053,19.971,0,.829.118,1.123.219,1.219s.385.2,1.155.15c1.107-.07,2.22-.053,3.295-.032s2.262.043,3.369-.043a3.011,3.011,0,0,1,2.327.578,3.22,3.22,0,0,1,.727,2.508c-.064,4.129-.053,8.3-.043,12.7v3.493l3.209-3.209c4.921-4.947,9.579-9.627,14.232-14.323A4.479,4.479,0,0,1,32,91.453c3.033.112,6.161.118,9.29,0a2.615,2.615,0,0,1,1.99.572,2.728,2.728,0,0,1,.6,2.091c-.032,1.685,0,3.4,0,5.065,0,2.369.032,4.814-.075,7.247-.037.9.091,1.23.2,1.353.23.235.963.251,1.492.257,8.194-.053,16.527-.053,24.6-.053H89.121a5.493,5.493,0,0,1,4.279,1.76c4.91,5,9.953,10.028,14.831,14.89l4.407,4.407.8.776v-4.033c0-5.044,0-9.809-.053-14.606a3.366,3.366,0,0,1,.706-2.567,3.294,3.294,0,0,1,2.412-.647c2,.091,4.043.07,6.022.053,1.877,0,3.813,0,5.728.043a2.952,2.952,0,0,0,1.444-.2c.128-.123.273-.465.273-1.407C129.849,85.3,129.849,63.529,129.929,39.852ZM44.093,38.659c-.209.209-.294.717-.289,1.7.048,7.343.048,14.8.053,22.025s0,14.719.048,22.073a3.466,3.466,0,0,1-.743,2.6,3.337,3.337,0,0,1-2.567.658c-1.07-.037-2.139-.134-3.209-.23-3.043-.262-6.188-.535-8.611.481s-4.225,3.161-6.215,5.461c-.834.963-1.7,1.963-2.6,2.861-.717.717-1.417,1.487-2.1,2.236l-.957,1.07-.4.433-1.6-.754v-3.4c0-2.364-.027-4.814.043-7.22,0-.706-.086-.866-.123-.9s-.155-.128-.8-.1c-1.332.064-2.674.053-3.979.037H6.531a2.674,2.674,0,0,1-2.038-.535,2.674,2.674,0,0,1-.636-2c.048-17.115.048-34.294,0-51.045a2.915,2.915,0,0,1,.658-2.139,2.92,2.92,0,0,1,2.139-.626c5.225.08,10.429.08,15.478,0a2.674,2.674,0,0,1,1.974.594,2.765,2.765,0,0,1,.6,2.043c-.07,5.215-.07,10.7,0,16.28a3.133,3.133,0,0,1-1.749,2.947A7.166,7.166,0,0,0,19.5,61.438a7.333,7.333,0,0,0,7.1,5.4h.032a7.429,7.429,0,0,0,7.06-5.124A7.113,7.113,0,0,0,30.4,53.223a3.491,3.491,0,0,1-1.877-3.45V41.312c0-4.059,0-8.258.048-12.392a2.139,2.139,0,0,0-.225-1.337,2.006,2.006,0,0,0-1.305-.241c-3.07.053-6.183.048-9.2.037-3.466,0-7.055,0-10.574.064A3.7,3.7,0,0,1,4.59,26.7a3.629,3.629,0,0,1-.743-2.77c.118-5.022.123-10.36,0-16.8a3.432,3.432,0,0,1,.685-2.54,3.4,3.4,0,0,1,2.391-.733h0c25.036.059,52.3.059,85.8,0h.027a3.254,3.254,0,0,1,2.482.717,3.043,3.043,0,0,1,.6,2.273c-.176,3.466-.107,6.91,0,9.82a2.621,2.621,0,0,1-.535,1.974,2.674,2.674,0,0,1-2.054.615c-9.509-.053-19.3-.053-29.951,0h-.027A3.06,3.06,0,0,1,60.357,17.5,7.258,7.258,0,0,0,51.88,14.03a7.637,7.637,0,0,0-5.348,7.017,7.648,7.648,0,0,0,5.348,7.226,7.259,7.259,0,0,0,8.466-3.535,3.251,3.251,0,0,1,3.209-1.717h1.332c9.2,0,18.719.053,28.063-.032a3.018,3.018,0,0,1,2.236.679,2.962,2.962,0,0,1,.6,2.284c-.128,3.583-.123,6.536,0,9.285a3.206,3.206,0,0,1-.631,2.46,3.362,3.362,0,0,1-2.514.749c-6.953-.032-14.077-.032-20.939-.037-8.557,0-17.4,0-26.105-.07A2.548,2.548,0,0,0,44.093,38.659ZM26.555,56h.278a3.3,3.3,0,0,1,3.3,3.476V59.6c-.214,2.139-1.492,3.38-3.428,3.38h-.128a3.562,3.562,0,0,1-2.621-1.112,3.5,3.5,0,0,1-.829-2.674A3.252,3.252,0,0,1,26.555,56ZM57.517,21.24a3.353,3.353,0,0,1-3.434,3.439h-.07a3.324,3.324,0,0,1-3.492-3.423,3.546,3.546,0,0,1,.984-2.674,3.5,3.5,0,0,1,2.674-.92,3.311,3.311,0,0,1,3.337,3.562Zm67.957,82.274a2.819,2.819,0,0,1-2.1.631c-1.856-.032-3.744,0-5.568,0-2.294,0-4.669,0-7.006-.048-.8,0-1.038.091-1.107.155s-.182.267-.155,1.07c.1,2.952.08,5.958.059,9.14v6.226l-1.385-1.433c-1.364-1.38-2.674-2.706-4-4-3.134-3.139-6.129-6.119-9.017-9.178a5.717,5.717,0,0,0-4.626-2.011h-.091c-7.29.064-14.708.059-21.875.064-5.707,0-11.611,0-17.42.027a3.78,3.78,0,0,1-2.8-.749,3.438,3.438,0,0,1-.754-2.615c.134-12.3.091-24.726,0-36.337a3.26,3.26,0,0,1,.7-2.412,3.107,3.107,0,0,1,2.311-.647c4.364.118,9.092.118,14.927,0a3.058,3.058,0,0,1,2.476.717,2.674,2.674,0,0,1,.433,2.193,11.638,11.638,0,0,0,0,2.99,5.37,5.37,0,0,1-2.717,5.766,6.657,6.657,0,0,0-2.268,8.087,7.424,7.424,0,0,0,7.284,4.888,7.531,7.531,0,0,0,6.771-5.29,6.872,6.872,0,0,0-2.792-7.985c-2.353-1.342-2.5-3.107-2.444-4.814.048-1.342.032-2.717,0-4.049,0-1.653-.032-3.364.059-5.054.043-.765-.086-1.016-.16-1.1-.214-.219-1.022-.209-1.284-.209-3.209.043-6.525.037-9.713.037-3.386,0-6.889,0-10.333.037a3.441,3.441,0,0,1-2.6-.738,3.085,3.085,0,0,1-.642-2.434c.144-2.674.15-5.53,0-9.279a2.911,2.911,0,0,1,.6-2.294,3.038,3.038,0,0,1,2.225-.679c9.558.08,19.96.086,31.8,0a2.947,2.947,0,0,1,2.1.636,2.851,2.851,0,0,1,.615,2.139c-.032,2.348,0,4.749,0,7.065,0,3.38.032,6.878-.086,10.317a2.411,2.411,0,0,0,.278,1.6c.214.214.749.289,1.685.251,2.434-.112,4.9-.091,7.29-.075H98.9a3.607,3.607,0,0,1,3.653,1.941,7.065,7.065,0,0,0,8.285,3.257,7.354,7.354,0,0,0,5.268-7,7.488,7.488,0,0,0-5.044-7.178,7.135,7.135,0,0,0-8.4,3.016,3.941,3.941,0,0,1-4.108,2.187c-2.139-.107-4.487-.107-7.14,0a2.2,2.2,0,0,1-2.674-2.573c.08-3.824.086-7.974,0-13.066a2.573,2.573,0,0,1,.567-1.941,2.535,2.535,0,0,1,1.851-.535c11.51.053,22.089.053,32.336,0a2.626,2.626,0,0,1,1.947.6,2.8,2.8,0,0,1,.6,2.064c-.048,14.826-.043,27.94,0,40.086a2.321,2.321,0,0,1-2.77,2.738c-4.161-.1-8.285-.1-12.258,0a4.484,4.484,0,0,1-4.546-2.305,6.723,6.723,0,0,0-4.509-3.1,7.44,7.44,0,0,0-5.8,1.364,7.327,7.327,0,0,0-3.059,5.883,7.424,7.424,0,0,0,11.906,5.894l.273-.193a1.663,1.663,0,0,0,.289-.219c1.6-3.845,4.883-3.712,7.782-3.6h.476c2.84.1,5.883.1,9.574,0a2.222,2.222,0,0,1,2.642,2.653c-.1,2.5-.1,5,0,7.418A2.621,2.621,0,0,1,125.474,103.514ZM70.337,75.167h.08a3.295,3.295,0,0,1,3.493,3.15v.07a3.375,3.375,0,0,1-3.241,3.771,2.85,2.85,0,0,1-.3,0,3.428,3.428,0,0,1-2.385-.872,3.535,3.535,0,0,1-1.07-2.631,3.295,3.295,0,0,1,3.423-3.5Zm34.957-13.141a3.181,3.181,0,0,1,3.4-3.279h.187c1.974.053,3.209,1.268,3.428,3.412v.2c-.294,2.139-1.572,3.348-3.5,3.348h0a3.5,3.5,0,0,1-2.621-1,3.546,3.546,0,0,1-.888-2.68ZM103.187,92.02a3.557,3.557,0,0,1-2.642,1.027H100.5a3.266,3.266,0,0,1-3.444-3.407,3.423,3.423,0,0,1,2.99-3.6h.171c2.278.048,3.712,1.284,3.829,3.305a3.514,3.514,0,0,1-.861,2.674Z" transform="translate(0.01 0.032)" fill="#182ac3"/>
</svg>
