<svg id="Layer_1" data-name="Layer 1" xmlns="http://www.w3.org/2000/svg" viewBox="0 0 130 130"><defs><style>.cls-1,.cls-2{fill:none;stroke:#fff;stroke-miterlimit:10;}.cls-2{stroke-width:3px;}.cls-3,.cls-6{fill:#fff;stroke:#0561fc;stroke-linecap:round;stroke-linejoin:round;}.cls-3{stroke-width:4px;}.cls-4{fill:#c5e1f9;}.cls-5{fill:#0561fc;}.cls-6{stroke-width:2px;}</style></defs><rect class="cls-1" x="-87.98" y="-128.11" width="1617.81" height="435.04"/><rect class="cls-2" x="-206.51" y="-321.65" width="3799.15" height="1639.23"/><polyline class="cls-3" points="37.08 96.63 55.17 114.72 66.19 114.72"/><line class="cls-3" x1="19.04" y1="70.35" x2="19.04" y2="49.71"/><polyline class="cls-3" points="35.91 52.88 35.91 22.71 28.05 22.71"/><polyline class="cls-3" points="83.2 96.63 83.2 107.54 99.16 107.54"/><path id="Path_926" data-name="Path 926" class="cls-4" d="M100.08,46.93c.22-2.56-.33-4-2-4.77a7.13,7.13,0,0,1-4.39-9.08,6.8,6.8,0,0,1,.82-1.64,3.39,3.39,0,0,0-.32-4.1,28.22,28.22,0,0,0-6.06-5.64,3.3,3.3,0,0,0-4.63-.05,7,7,0,0,1-3.83,1.46,7.22,7.22,0,0,1-7-3.79,3.33,3.33,0,0,0-4.3-1.94,26.67,26.67,0,0,0-6.93,2.15,3.33,3.33,0,0,0-2.25,4A7.19,7.19,0,0,1,53,31.62a7.44,7.44,0,0,1-1.7,0,3.26,3.26,0,0,0-3.5,1.93,22,22,0,0,0-2.16,8.94,3.23,3.23,0,0,0,2.45,3.64,7.21,7.21,0,0,1,3.38,11,3.14,3.14,0,0,0,.13,4.26,26.89,26.89,0,0,0,6.07,5.64A3.33,3.33,0,0,0,62.27,67a7.77,7.77,0,0,1,2.95-1.59,7.12,7.12,0,0,1,8.12,3.42c.65,1.08,1.19,2.27,2.67,2.42a3.52,3.52,0,0,0,1.17.08,26.8,26.8,0,0,0,8-2.69A3.07,3.07,0,0,0,87,65a7.26,7.26,0,0,1,6-8.34,6.91,6.91,0,0,1,1.7-.08,3.34,3.34,0,0,0,3.54-2.27A26,26,0,0,0,100.08,46.93ZM70.82,53.29a9.2,9.2,0,0,1-7-10.85,9.21,9.21,0,1,1,18,4,9.19,9.19,0,0,1-11,6.87Z"/><path class="cls-3" d="M111,77.16A19.47,19.47,0,0,0,86,58.48a22.17,22.17,0,0,0-39.54-5.71,10.1,10.1,0,0,0-15.28,8.67c0,.27,0,.54,0,.8a17.3,17.3,0,0,0,1,34.31v.08H93.43v-.1A19.47,19.47,0,0,0,111,77.16Z"/><circle class="cls-3" cx="21.89" cy="22.71" r="6.13"/><circle class="cls-3" cx="19.04" cy="50.71" r="6.13"/><circle class="cls-3" cx="70.75" cy="114.72" r="6.13"/><circle class="cls-3" cx="96.5" cy="107.54" r="6.13"/><circle class="cls-3" cx="110.96" cy="36.49" r="6.13"/><circle class="cls-3" cx="100.71" cy="15.28" r="6.13"/><line class="cls-3" x1="110.96" y1="42.62" x2="110.96" y2="75.83"/><path class="cls-5" d="M33.13,82h-5l-.85,2.41h-2L29.54,72.6h2.25L36,84.43H34Zm-.55-1.58L30.66,75l-1.93,5.49Z"/><path class="cls-5" d="M45.69,77.84a3.23,3.23,0,0,1-1.36,1.3,5.09,5.09,0,0,1-2.4.5H39.79v4.79H37.85V72.62h4.08a5.06,5.06,0,0,1,2.31.47,3.34,3.34,0,0,1,1.41,1.26,3.48,3.48,0,0,1,.46,1.79A3.62,3.62,0,0,1,45.69,77.84Zm-2.11-.29a1.82,1.82,0,0,0,.54-1.41c0-1.3-.73-1.94-2.19-1.94H39.79v3.86h2.14A2.33,2.33,0,0,0,43.58,77.55Z"/><path class="cls-5" d="M49.9,72.62V84.43H48V72.62Z"/><path class="cls-5" d="M53.87,84.18a3.49,3.49,0,0,1-1.38-1.08,2.8,2.8,0,0,1-.55-1.54h2a1.33,1.33,0,0,0,.57,1,2,2,0,0,0,1.3.4,2.17,2.17,0,0,0,1.26-.31,1,1,0,0,0,.45-.81.82.82,0,0,0-.5-.78,8.81,8.81,0,0,0-1.59-.56,17.25,17.25,0,0,1-1.71-.56,3.06,3.06,0,0,1-1.15-.84,2.18,2.18,0,0,1-.48-1.48,2.25,2.25,0,0,1,.44-1.36,2.87,2.87,0,0,1,1.26-1,4.7,4.7,0,0,1,1.9-.36,3.9,3.9,0,0,1,2.57.81,2.89,2.89,0,0,1,1,2.2H57.38a1.35,1.35,0,0,0-.51-1,1.89,1.89,0,0,0-1.24-.38,2,2,0,0,0-1.17.29.9.9,0,0,0-.41.77.83.83,0,0,0,.27.63,2,2,0,0,0,.66.4l1.16.36a13.06,13.06,0,0,1,1.67.55,3,3,0,0,1,1.13.83,2.15,2.15,0,0,1,.5,1.44A2.45,2.45,0,0,1,59,83.24a3,3,0,0,1-1.25,1,4.81,4.81,0,0,1-1.9.35A4.67,4.67,0,0,1,53.87,84.18Z"/><path class="cls-5" d="M72.5,84.17A3.54,3.54,0,0,1,71,83a3,3,0,0,1-.55-1.79h2.08a1.88,1.88,0,0,0,.6,1.26,2.15,2.15,0,0,0,1.51.5,2.31,2.31,0,0,0,1.57-.49,1.58,1.58,0,0,0,.56-1.25,1.37,1.37,0,0,0-.35-1,2.33,2.33,0,0,0-.87-.58,11.84,11.84,0,0,0-1.44-.44,14.24,14.24,0,0,1-1.88-.62,3.14,3.14,0,0,1-1.23-1,2.86,2.86,0,0,1-.51-1.77A3.14,3.14,0,0,1,71,74.06a3.22,3.22,0,0,1,1.43-1.18,5.22,5.22,0,0,1,2.13-.41,4.44,4.44,0,0,1,2.81.86,3.16,3.16,0,0,1,1.22,2.36H76.46a1.54,1.54,0,0,0-.62-1.1,2.24,2.24,0,0,0-1.48-.46,2.1,2.1,0,0,0-1.36.42,1.5,1.5,0,0,0-.53,1.23,1.24,1.24,0,0,0,.33.89,2.24,2.24,0,0,0,.85.55,12.09,12.09,0,0,0,1.39.45,14.75,14.75,0,0,1,1.92.64,3.28,3.28,0,0,1,1.26,1,2.92,2.92,0,0,1,.52,1.8,3.16,3.16,0,0,1-.49,1.7,3.47,3.47,0,0,1-1.41,1.29,4.71,4.71,0,0,1-2.19.48A5.49,5.49,0,0,1,72.5,84.17Z"/><path class="cls-5" d="M88.22,73.35a5.17,5.17,0,0,1,2.19,2.08,6.2,6.2,0,0,1,.78,3.16,6.06,6.06,0,0,1-.78,3.13,5.09,5.09,0,0,1-2.19,2,7.41,7.41,0,0,1-3.32.7H81V72.63H84.9A7.28,7.28,0,0,1,88.22,73.35Zm-.13,8.41a4.32,4.32,0,0,0,1.1-3.17,4.45,4.45,0,0,0-1.1-3.22,4.22,4.22,0,0,0-3.19-1.16H83v8.67H84.9A4.32,4.32,0,0,0,88.09,81.76Z"/><path class="cls-5" d="M99.64,84.46l-4.59-5.29v5.29H93.11V72.63h1.94V78l4.6-5.4h2.44l-5.15,5.92,5.23,5.91Z"/><line class="cls-6" x1="65" y1="71.44" x2="65" y2="85.61"/></svg>