<svg id="Layer_1" data-name="Layer 1" xmlns="http://www.w3.org/2000/svg" viewBox="0 0 130 130"><defs><style>.cls-1,.cls-2{fill:none;stroke:#fff;stroke-miterlimit:10;}.cls-2{stroke-width:3px;}.cls-3{fill:#fff;stroke:#0561fc;stroke-linecap:round;stroke-linejoin:round;stroke-width:4px;}.cls-4{fill:#c5e1f9;}.cls-5{fill:#0561fc;}</style></defs><rect class="cls-1" x="-87.98" y="-128.11" width="1617.81" height="435.04"/><rect class="cls-2" x="-206.51" y="-321.65" width="3799.15" height="1639.23"/><polyline class="cls-3" points="37.08 96.63 55.17 114.72 66.19 114.72"/><line class="cls-3" x1="19.04" y1="70.35" x2="19.04" y2="49.71"/><polyline class="cls-3" points="35.91 52.88 35.91 22.71 28.05 22.71"/><polyline class="cls-3" points="83.2 96.63 83.2 107.54 99.16 107.54"/><path id="Path_926" data-name="Path 926" class="cls-4" d="M100.08,46.93c.22-2.56-.33-4-2-4.77a7.13,7.13,0,0,1-4.39-9.08,6.8,6.8,0,0,1,.82-1.64,3.39,3.39,0,0,0-.32-4.1,28.22,28.22,0,0,0-6.06-5.64,3.3,3.3,0,0,0-4.63-.05,7,7,0,0,1-3.83,1.46,7.22,7.22,0,0,1-7-3.79,3.33,3.33,0,0,0-4.3-1.94,26.67,26.67,0,0,0-6.93,2.15,3.33,3.33,0,0,0-2.25,4A7.19,7.19,0,0,1,53,31.62a7.44,7.44,0,0,1-1.7,0,3.26,3.26,0,0,0-3.5,1.93,22,22,0,0,0-2.16,8.94,3.23,3.23,0,0,0,2.45,3.64,7.21,7.21,0,0,1,3.38,11,3.14,3.14,0,0,0,.13,4.26,26.89,26.89,0,0,0,6.07,5.64A3.33,3.33,0,0,0,62.27,67a7.77,7.77,0,0,1,2.95-1.59,7.12,7.12,0,0,1,8.12,3.42c.65,1.08,1.19,2.27,2.67,2.42a3.52,3.52,0,0,0,1.17.08,26.8,26.8,0,0,0,8-2.69A3.07,3.07,0,0,0,87,65a7.26,7.26,0,0,1,6-8.34,6.91,6.91,0,0,1,1.7-.08,3.34,3.34,0,0,0,3.54-2.27A26,26,0,0,0,100.08,46.93ZM70.82,53.29a9.2,9.2,0,0,1-7-10.85,9.21,9.21,0,1,1,18,4,9.19,9.19,0,0,1-11,6.87Z"/><path class="cls-3" d="M111,77.16A19.47,19.47,0,0,0,86,58.48a22.17,22.17,0,0,0-39.54-5.71,10.1,10.1,0,0,0-15.28,8.67c0,.27,0,.54,0,.8a17.3,17.3,0,0,0,1,34.31v.08H93.43v-.1A19.47,19.47,0,0,0,111,77.16Z"/><circle class="cls-3" cx="21.89" cy="22.71" r="6.13"/><circle class="cls-3" cx="19.04" cy="50.71" r="6.13"/><circle class="cls-3" cx="70.75" cy="114.72" r="6.13"/><circle class="cls-3" cx="96.5" cy="107.54" r="6.13"/><circle class="cls-3" cx="110.96" cy="36.49" r="6.13"/><circle class="cls-3" cx="100.71" cy="15.28" r="6.13"/><line class="cls-3" x1="110.96" y1="42.62" x2="110.96" y2="75.83"/><path class="cls-5" d="M50.69,79.45h-7l-1.2,3.4H39.65l6-16.7h3.17l6,16.7H51.89Zm-.77-2.24-2.71-7.75-2.74,7.75Z"/><path class="cls-5" d="M68.42,73.54a4.5,4.5,0,0,1-1.92,1.84,7.15,7.15,0,0,1-3.38.71h-3v6.76H57.36V66.17h5.76a7.27,7.27,0,0,1,3.25.66,4.59,4.59,0,0,1,2,1.79A4.89,4.89,0,0,1,69,71.14,5,5,0,0,1,68.42,73.54Zm-3-.39a2.61,2.61,0,0,0,.76-2q0-2.73-3.09-2.73h-3v5.44h3A3.36,3.36,0,0,0,65.45,73.15Z"/><path class="cls-5" d="M74.37,66.17V82.85H71.64V66.17Z"/><path class="cls-5" d="M80,82.51A4.91,4.91,0,0,1,78,81a3.89,3.89,0,0,1-.77-2.17h2.84a1.88,1.88,0,0,0,.8,1.4,2.91,2.91,0,0,0,1.84.57,3,3,0,0,0,1.78-.45,1.32,1.32,0,0,0,.64-1.14,1.18,1.18,0,0,0-.71-1.1,12.61,12.61,0,0,0-2.24-.79,23.09,23.09,0,0,1-2.43-.8,4.21,4.21,0,0,1-1.62-1.17,3.13,3.13,0,0,1-.68-2.09,3.29,3.29,0,0,1,.62-1.93,4.13,4.13,0,0,1,1.79-1.38,6.64,6.64,0,0,1,2.68-.51,5.52,5.52,0,0,1,3.63,1.14,4.09,4.09,0,0,1,1.48,3.11H84.93a1.88,1.88,0,0,0-.72-1.41,2.63,2.63,0,0,0-1.75-.53,2.76,2.76,0,0,0-1.65.41,1.25,1.25,0,0,0-.58,1.08,1.17,1.17,0,0,0,.38.88,2.85,2.85,0,0,0,.94.57c.37.13.91.31,1.63.51a19.36,19.36,0,0,1,2.37.78,4.56,4.56,0,0,1,1.59,1.17,3.08,3.08,0,0,1,.7,2,3.38,3.38,0,0,1-.63,2,4.07,4.07,0,0,1-1.76,1.4A7.33,7.33,0,0,1,80,82.51Z"/></svg>