<svg id="Layer_1" data-name="Layer 1" xmlns="http://www.w3.org/2000/svg" viewBox="0 0 130 130"><defs><style>.cls-1,.cls-2,.cls-3{fill:none;}.cls-1,.cls-2{stroke:#fff;stroke-miterlimit:10;}.cls-2{stroke-width:3px;}.cls-3,.cls-5{stroke:#0561fc;stroke-linecap:round;stroke-linejoin:round;stroke-width:4px;}.cls-4{fill:#c5e1f9;}.cls-5{fill:#fff;}</style></defs><rect class="cls-1" x="-487.98" y="-128.11" width="1617.81" height="435.04"/><rect class="cls-2" x="-606.51" y="-321.65" width="3799.15" height="1639.23"/><polyline class="cls-3" points="34.43 39.74 34.43 21.44 103.21 21.44 103.21 108.56 34.43 108.56 34.43 94.55"/><path id="Path_926" data-name="Path 926" class="cls-4" d="M59.07,83.33c1.89-.26,2.88-.88,3.16-2.21a5.35,5.35,0,0,1,6-4.66,4.52,4.52,0,0,1,1.31.34,2.59,2.59,0,0,0,3-.9,20.77,20.77,0,0,0,3.14-5.33,2.46,2.46,0,0,0-.69-3.39,5.38,5.38,0,0,1-1.7-2.58,5.43,5.43,0,0,1,1.66-5.74,2.5,2.5,0,0,0,.73-3.46,21.46,21.46,0,0,0-2.69-4.72,2.48,2.48,0,0,0-3.28-1,5.41,5.41,0,0,1-6.92-3.24,6,6,0,0,1-.28-1.25,2.43,2.43,0,0,0-2-2.25,16.13,16.13,0,0,0-6.88-.13,2.36,2.36,0,0,0-2,1.29V58.28a6.77,6.77,0,0,1,5-2.21,6.9,6.9,0,1,1,0,13.79,7,7,0,0,1-4.94-2.19V82.13a2.48,2.48,0,0,0,1.79,1A19.85,19.85,0,0,0,59.07,83.33Z"/><path class="cls-3" d="M51.57,39.75c0,2.26-1.85,4.31-4.86,5.81a28.3,28.3,0,0,1-12.28,2.51,28.3,28.3,0,0,1-12.28-2.51c-3-1.5-4.86-3.55-4.86-5.81,0-4.6,7.67-8.33,17.14-8.33S51.57,35.15,51.57,39.75Z"/><path class="cls-3" d="M51.57,51.37V63c0,2.25-1.86,4.3-4.87,5.81a28.29,28.29,0,0,1-12.27,2.51A28.29,28.29,0,0,1,22.16,68.8c-3-1.51-4.87-3.56-4.87-5.81V51.37c0,2.26,1.85,4.31,4.86,5.81a28.3,28.3,0,0,0,12.28,2.51,28.3,28.3,0,0,0,12.28-2.51C49.72,55.68,51.57,53.63,51.57,51.37Z"/><path class="cls-3" d="M51.57,39.75V51.37c0,2.26-1.85,4.31-4.86,5.81a28.3,28.3,0,0,1-12.28,2.51,28.3,28.3,0,0,1-12.28-2.51c-3-1.5-4.86-3.55-4.86-5.81V39.75c0,2.26,1.85,4.31,4.86,5.81a28.3,28.3,0,0,0,12.28,2.51,28.3,28.3,0,0,0,12.28-2.51C49.72,44.06,51.57,42,51.57,39.75Z"/><path class="cls-3" d="M51.57,63V74.61c0,2.25-1.86,4.3-4.87,5.81a28.29,28.29,0,0,1-12.27,2.51,28.29,28.29,0,0,1-12.27-2.51c-3-1.51-4.87-3.56-4.87-5.81V63c0,2.25,1.86,4.3,4.87,5.81a28.29,28.29,0,0,0,12.27,2.51A28.29,28.29,0,0,0,46.7,68.8C49.71,67.29,51.57,65.24,51.57,63Z"/><path class="cls-3" d="M51.57,74.61V86.23c0,4.59-7.67,8.32-17.14,8.32s-17.14-3.73-17.14-8.32V74.61c0,2.25,1.86,4.3,4.87,5.81a28.29,28.29,0,0,0,12.27,2.51A28.29,28.29,0,0,0,46.7,80.42C49.71,78.91,51.57,76.86,51.57,74.61Z"/><rect class="cls-5" x="94.41" y="31.42" width="18.3" height="18.3"/><rect class="cls-5" x="94.41" y="57.82" width="18.3" height="18.3"/><rect class="cls-5" x="94.41" y="84.21" width="18.3" height="18.3"/><line class="cls-3" x1="101.13" y1="90.39" x2="105.98" y2="90.39"/><line class="cls-3" x1="101.13" y1="96.33" x2="105.98" y2="96.33"/><line class="cls-3" x1="101.13" y1="64" x2="105.98" y2="64"/><line class="cls-3" x1="101.13" y1="69.93" x2="105.98" y2="69.93"/><line class="cls-3" x1="101.13" y1="37.6" x2="105.98" y2="37.6"/><line class="cls-3" x1="101.13" y1="43.54" x2="105.98" y2="43.54"/><circle class="cls-5" cx="68.82" cy="21.44" r="6.13"/><circle class="cls-5" cx="68.82" cy="108.56" r="6.13"/></svg>