<svg id="Layer_1" data-name="Layer 1" xmlns="http://www.w3.org/2000/svg" viewBox="0 0 130 130"><defs><style>.cls-1,.cls-2,.cls-3,.cls-5{fill:none;}.cls-1{stroke:#182ac3;}.cls-1,.cls-2{stroke-miterlimit:10;}.cls-2{stroke:#fff;}.cls-3{stroke:#0561fc;}.cls-3,.cls-5{stroke-linecap:round;stroke-linejoin:round;stroke-width:4px;}.cls-4{fill:#c5e1f9;}.cls-5{stroke:#c5e1f9;}</style></defs><rect class="cls-1" x="-938.77" y="-233.64" width="1517.54" height="601.28"/><rect class="cls-2" x="-927.81" y="-72.14" width="1617.81" height="361.81"/><path class="cls-3" d="M17.52,53.14a16.78,16.78,0,0,0,0,23.72"/><path class="cls-3" d="M22.26,56.64a11.81,11.81,0,0,0,0,16.72"/><path class="cls-3" d="M112.48,76.86a16.78,16.78,0,0,0,0-23.72"/><path class="cls-3" d="M107.74,73.36a11.81,11.81,0,0,0,0-16.72"/><path class="cls-3" d="M74.9,46.57a6.74,6.74,0,1,1-6.74-6.74A6.74,6.74,0,0,1,74.9,46.57Z"/><polyline class="cls-3" points="43.93 75.88 58.8 82.16 66.52 52.83 74.96 61.11 86.23 61.11"/><line class="cls-3" x1="76.95" y1="90.17" x2="62.12" y2="70.2"/><polyline class="cls-3" points="66.52 52.83 53.11 52.83 45.43 61.91"/><path class="cls-4" d="M73.12,46.57a5,5,0,1,1-5-5A5,5,0,0,1,73.12,46.57Z"/><path class="cls-5" d="M86.43,30.25H91.1c3.51,0,6.36,3.15,6.36,7.06v4"/><path class="cls-5" d="M28,41.29v-4c0-3.91,2.85-7.06,6.36-7.06H39"/><path class="cls-5" d="M39,99.75H34.34c-3.51,0-6.36-3.17-6.36-7.06v-4"/><path class="cls-5" d="M97.46,88.71v4c0,3.89-2.85,7.06-6.36,7.06H86.43"/></svg>