<svg id="Layer_1" data-name="Layer 1" xmlns="http://www.w3.org/2000/svg" viewBox="0 0 130 130"><defs><style>.cls-1,.cls-4{fill:none;}.cls-1{stroke:#fff;stroke-miterlimit:10;}.cls-2{fill:#c5e1f9;}.cls-3{fill:#0561fc;}.cls-4{stroke:#0561fc;stroke-linecap:round;stroke-linejoin:round;stroke-width:4px;}</style></defs><rect class="cls-1" x="-147.72" y="-411.39" width="1617.81" height="687.16"/><rect class="cls-2" x="53.66" y="35.23" width="48.89" height="36.6"/><polygon class="cls-2" points="80.34 70.97 62.77 79.58 62.77 67.36 80.34 67.36 80.34 70.97"/><path class="cls-3" d="M87.21,32.47H98.9c4.49,0,6.3,1.81,6.31,6.32q0,14.18,0,28.34c0,4.5-1.8,6.26-6.35,6.29l-11,0c-.12,0-.24.1-.64.27V76q0,17.64,0,35.28c0,4.51-1.44,5.92-6,5.92H30.42c-4,0-5.63-1.58-5.63-5.51q0-46.7,0-93.4c0-3.94,1.64-5.51,5.63-5.51H81.6c4,0,5.58,1.53,5.6,5.51C87.22,22.92,87.21,27.53,87.21,32.47Zm-26.67,41H57.38C52.7,73.39,51,71.69,51,67q0-14.17,0-28.34c0-4.39,1.81-6.2,6.17-6.21H83.93V18.93c0-2.82-.06-2.87-2.83-2.87H31c-2.82,0-2.88.06-2.88,2.83q0,39,0,78.08c0,.71.08,1.43.12,2.06H83.73V73.58a11.2,11.2,0,0,0-8.32,1.62c-3.69,2.39-7.6,4.46-11.43,6.65-2.37,1.36-3.41.78-3.44-1.89C60.52,77.86,60.54,75.77,60.54,73.42Zm3.27,4.76c4.26-2.46,8.09-4.77,12-6.88A9.66,9.66,0,0,1,80,70.19c6.39-.11,12.78-.07,19.17,0,1.69,0,2.73-.51,2.73-2.42q0-14.79,0-29.57c0-1.58-.69-2.42-2.31-2.42h-43a2.05,2.05,0,0,0-2.35,2.36q0,14.9,0,29.77a2,2,0,0,0,2.22,2.26c1.57,0,3.13.08,4.69,0,1.89-.09,2.79.62,2.66,2.61C63.73,74.4,63.81,76.09,63.81,78.18ZM28.07,102.55c0,3.07,0,5.91,0,8.76,0,2.51.14,2.63,2.67,2.63H81.31c.41,0,.9.14,1.2,0,.52-.3,1.3-.78,1.31-1.21.11-3.36.06-6.72.06-10.14Z"/><path class="cls-3" d="M56,104.06a4.14,4.14,0,1,1-4.15,4.07A4.07,4.07,0,0,1,56,104.06Z"/><path class="cls-3" d="M46.66,21.19a2.37,2.37,0,0,1,2.4,2.39,2.42,2.42,0,1,1-4.83,0A2.36,2.36,0,0,1,46.66,21.19Z"/><line class="cls-4" x1="54.12" y1="23.61" x2="67.76" y2="23.61"/><line class="cls-4" x1="60.55" y1="44.83" x2="95.66" y2="44.83"/><line class="cls-4" x1="60.55" y1="53.49" x2="95.66" y2="53.49"/><line class="cls-4" x1="60.55" y1="62.16" x2="95.66" y2="62.16"/></svg>