<svg id="Layer_1" data-name="Layer 1" xmlns="http://www.w3.org/2000/svg" viewBox="0 0 130 130"><defs><style>.cls-1,.cls-4{fill:none;}.cls-1{stroke:#fff;stroke-miterlimit:10;}.cls-2{fill:#fff;}.cls-2,.cls-4{stroke:#0561fc;stroke-linecap:round;stroke-linejoin:round;stroke-width:4px;}.cls-3{fill:#c5e1f9;}</style></defs><rect class="cls-1" x="-1345.51" y="-408.91" width="1617.81" height="687.16"/><line class="cls-2" x1="26.02" y1="108.93" x2="103.98" y2="21.07"/><line class="cls-2" x1="103.98" y1="108.93" x2="26.02" y2="21.07"/><line class="cls-2" x1="64.92" y1="17.07" x2="64.92" y2="112.93"/><path class="cls-2" d="M104,63.85v5.93c0,5.16-1.24,9.57-8,12.85s-18.36,4.72-31,4.72c-12.14,0-23.32-1.67-30.45-4.5C29.14,80.74,26,74.07,26,68.33V64.74c.94,2.43,5.7,4.59,12.82,6.13A127.11,127.11,0,0,0,64.92,73.3,127.08,127.08,0,0,0,91,70.87C99,69.15,104,66.64,104,63.85Z"/><path class="cls-2" d="M104,52.1V66.15c0,5.22-17.49,9.45-39.06,9.45-36.87,0-39-10-38.9-10.34V53c.94,2.43,5.7,4.59,12.82,6.13a127.11,127.11,0,0,0,26.08,2.43A127.08,127.08,0,0,0,91,59.12C99,57.4,104,54.89,104,52.1Z"/><path class="cls-3" d="M104,52.1c0,2.79-5,5.3-13,7a127.08,127.08,0,0,1-26.07,2.43,127.11,127.11,0,0,1-26.08-2.43C31.72,57.58,27,55.42,26,53a2.6,2.6,0,0,1-.17-.89c0-5.22,17.49-9.45,39.07-9.45,20.39,0,37.13,3.79,38.91,8.6A2.45,2.45,0,0,1,104,52.1Z"/><path class="cls-4" d="M104,52.1c0,2.79-5,5.3-13,7a127.08,127.08,0,0,1-26.07,2.43,127.11,127.11,0,0,1-26.08-2.43C31.72,57.58,27,55.42,26,53a2.6,2.6,0,0,1-.17-.89c0-5.22,17.49-9.45,39.07-9.45,20.39,0,37.13,3.79,38.91,8.6A2.45,2.45,0,0,1,104,52.1Z"/><circle class="cls-2" cx="26.02" cy="21.07" r="6.51"/><circle class="cls-2" cx="64.92" cy="17.07" r="6.51"/><circle class="cls-2" cx="103.98" cy="21.07" r="6.51"/><circle class="cls-2" cx="26.02" cy="108.93" r="6.51"/><circle class="cls-2" cx="65" cy="112.93" r="6.51"/><circle class="cls-2" cx="103.98" cy="108.93" r="6.51"/></svg>