<svg id="Layer_1" data-name="Layer 1" xmlns="http://www.w3.org/2000/svg" viewBox="0 0 130 130"><defs><style>.cls-1,.cls-3{fill:none;}.cls-1{stroke:#fff;stroke-miterlimit:10;}.cls-2{fill:#c5e1f9;}.cls-3{stroke:#0561fc;stroke-linecap:round;stroke-linejoin:round;stroke-width:4px;}</style></defs><rect class="cls-1" x="-131.14" y="-123.34" width="1621.72" height="1570.98"/><polygon class="cls-2" points="95.13 9.15 95.13 43.66 47.29 43.66 47.29 88.99 34.87 88.99 15.8 108.3 15.8 88.99 7.04 88.99 7.04 9.15 95.13 9.15"/><polygon class="cls-3" points="95.13 9.15 95.13 43.66 47.29 43.66 47.29 88.99 34.87 88.99 15.8 108.3 15.8 88.99 7.04 88.99 7.04 9.15 95.13 9.15"/><polygon class="cls-3" points="122.96 43.66 122.96 105.82 109.06 105.82 109.06 120.85 94.21 105.82 47.29 105.82 47.29 43.66 122.96 43.66"/><circle class="cls-3" cx="30" cy="61.59" r="5.67"/><circle class="cls-3" cx="54.98" cy="26.66" r="5.67"/><circle class="cls-3" cx="69.93" cy="79.06" r="5.67"/><circle class="cls-3" cx="104.91" cy="64.08" r="5.67"/><circle class="cls-3" cx="97.4" cy="88.99" r="5.67"/><polyline class="cls-3" points="7.04 34.05 30 34.05 30 55.91"/><line class="cls-3" x1="60.65" y1="26.66" x2="95.13" y2="26.66"/><polyline class="cls-3" points="47.29 60.91 69.93 60.91 69.93 73.39"/><polyline class="cls-3" points="85.13 43.66 85.13 64.08 99.23 64.08"/><line class="cls-3" x1="103.07" y1="88.99" x2="122.96" y2="88.99"/></svg>