<svg id="Layer_1" data-name="Layer 1" xmlns="http://www.w3.org/2000/svg" viewBox="0 0 130 130"><defs><style>.cls-1,.cls-3{fill:none;}.cls-1{stroke:#fff;stroke-miterlimit:10;}.cls-2{fill:#c5e1f9;}.cls-3,.cls-4{stroke:#0561fc;stroke-linecap:round;stroke-linejoin:round;stroke-width:4px;}.cls-4{fill:#fff;}</style></defs><rect class="cls-1" x="-131.14" y="-523.34" width="1621.72" height="1570.98"/><path class="cls-2" d="M15.29,15.28v99.44h99.43V15.28ZM98,98H32V32H98Z"/><rect class="cls-3" x="15.28" y="15.28" width="99.43" height="99.43"/><line class="cls-4" x1="33.71" y1="15.28" x2="33.71" y2="3.64"/><line class="cls-4" x1="49.35" y1="15.28" x2="49.35" y2="3.64"/><line class="cls-4" x1="65" y1="15.28" x2="65" y2="3.64"/><line class="cls-4" x1="80.65" y1="15.28" x2="80.65" y2="3.64"/><line class="cls-4" x1="96.29" y1="15.28" x2="96.29" y2="3.64"/><line class="cls-4" x1="33.71" y1="126.36" x2="33.71" y2="114.72"/><line class="cls-4" x1="49.35" y1="126.36" x2="49.35" y2="114.72"/><line class="cls-4" x1="65" y1="126.36" x2="65" y2="114.72"/><line class="cls-4" x1="80.65" y1="126.36" x2="80.65" y2="114.72"/><line class="cls-4" x1="96.29" y1="126.36" x2="96.29" y2="114.72"/><line class="cls-4" x1="114.72" y1="33.71" x2="126.36" y2="33.71"/><line class="cls-4" x1="114.72" y1="49.35" x2="126.36" y2="49.35"/><line class="cls-4" x1="114.72" y1="65" x2="126.36" y2="65"/><line class="cls-4" x1="114.72" y1="80.65" x2="126.36" y2="80.65"/><line class="cls-4" x1="114.72" y1="96.29" x2="126.36" y2="96.29"/><line class="cls-4" x1="3.64" y1="33.71" x2="15.28" y2="33.71"/><line class="cls-4" x1="3.64" y1="49.35" x2="15.28" y2="49.35"/><line class="cls-4" x1="3.64" y1="65" x2="15.28" y2="65"/><line class="cls-4" x1="3.64" y1="80.65" x2="15.28" y2="80.65"/><line class="cls-4" x1="3.64" y1="96.29" x2="15.28" y2="96.29"/><rect class="cls-4" x="32.03" y="32.03" width="65.95" height="65.95"/><line class="cls-4" x1="47.59" y1="90.19" x2="47.59" y2="97.97"/><line class="cls-4" x1="56.39" y1="46.74" x2="32.03" y2="46.74"/><line class="cls-4" x1="97.97" y1="78.06" x2="84.18" y2="78.06"/><line class="cls-4" x1="97.97" y1="65" x2="77.69" y2="65"/><polyline class="cls-4" points="97.97 41.95 84.18 41.95 76.14 49.66"/><line class="cls-4" x1="44.74" y1="57.71" x2="32.03" y2="57.71"/><circle class="cls-4" cx="64.4" cy="71.09" r="5.49"/><circle class="cls-4" cx="47.59" cy="84.46" r="5.49"/><circle class="cls-4" cx="54.84" cy="46.74" r="5.49"/><circle class="cls-4" cx="77.69" cy="49.05" r="5.49"/><polyline class="cls-4" points="71.08 97.97 71.08 84.45 64.39 84.48 64.39 76.55"/></svg>