<svg id="Layer_1" data-name="Layer 1" xmlns="http://www.w3.org/2000/svg" viewBox="0 0 130 130"><defs><style>.cls-1,.cls-5{fill:none;stroke-miterlimit:10;}.cls-1{stroke:#182ac3;}.cls-2{fill:#fff;stroke:#0561fc;stroke-linecap:round;stroke-linejoin:round;stroke-width:4px;}.cls-3{fill:#0561fc;}.cls-4{fill:#c5e1f9;}.cls-5{stroke:#fff;}</style></defs><rect class="cls-1" x="-969.83" y="-173.06" width="1738.81" height="825.88"/><path class="cls-2" d="M47.06,76.15H36.66a3,3,0,0,1-3-3V14.48a3,3,0,0,1,3-3h79.53a3,3,0,0,1,3,3V73.15a3,3,0,0,1-3,3H69.8"/><line class="cls-2" x1="33.67" y1="25.49" x2="119.19" y2="25.49"/><path class="cls-3" d="M44.1,18.48a2,2,0,1,1-2-2A2,2,0,0,1,44.1,18.48Z"/><path class="cls-3" d="M51.94,18.48a2,2,0,1,1-2-2A2,2,0,0,1,51.94,18.48Z"/><path class="cls-3" d="M111.71,18.48a2,2,0,0,1-2,2H96.09a2,2,0,0,1,0-4h13.62A2,2,0,0,1,111.71,18.48Z"/><line class="cls-2" x1="41.4" y1="35.9" x2="53.85" y2="35.9"/><line class="cls-2" x1="41.4" y1="45.85" x2="65.45" y2="45.85"/><line class="cls-2" x1="41.4" y1="55.79" x2="65.45" y2="55.79"/><polygon class="cls-2" points="94.1 33.81 75.66 65.74 112.53 65.74 94.1 33.81"/><line class="cls-2" x1="94.1" y1="46.4" x2="94.1" y2="53.79"/><line class="cls-2" x1="94.1" y1="59" x2="94.1" y2="59"/><g id="BlueIcons_-20-01" data-name="BlueIcons -20-01"><g id="Group_82724" data-name="Group 82724"><path id="Path_1132" data-name="Path 1132" class="cls-4" d="M25,118.52l10.67-15.18.89,5.68,9.58-5.79L35.09,118.31l-.48-6.42Z"/><path id="Path_1133" data-name="Path 1133" class="cls-4" d="M10,107.51,21.5,96.44l-.17,4.93,9-3.32L18.57,109l.64-5.49Z"/><path id="Path_1140" data-name="Path 1140" class="cls-4" d="M30.68,68.76a11.6,11.6,0,0,1,3,1.81,1.27,1.27,0,0,1,.44,1.65,3,3,0,0,0,1.71,4,3.37,3.37,0,0,0,.69.19,1.39,1.39,0,0,1,1.24,1.25,10.11,10.11,0,0,1,.1,3.2c-.14,1.07-.5,1.62-1.24,1.78A3,3,0,0,0,34,85.94a3.12,3.12,0,0,0,.18.73,1.41,1.41,0,0,1-.49,1.65,11.51,11.51,0,0,1-3,1.77,1.38,1.38,0,0,1-1.9-.39,3,3,0,0,0-1.44-1,3,3,0,0,0-3.22.93,1.42,1.42,0,0,1-1.94.41,11.21,11.21,0,0,1-2.65-1.51A1.4,1.4,0,0,1,19,86.73a3,3,0,0,0-1.81-3.86,2.94,2.94,0,0,0-.71-.17,1.35,1.35,0,0,1-1.26-1.11,9.25,9.25,0,0,1-.09-3.85,1.36,1.36,0,0,1,1.34-1.27,3,3,0,0,0,2.61-3.41,3.33,3.33,0,0,0-.23-.82,1.32,1.32,0,0,1,.44-1.74,11.63,11.63,0,0,1,3-1.77,1.39,1.39,0,0,1,1.88.45,3.38,3.38,0,0,0,1.07.92,3,3,0,0,0,3.63-.67c.36-.39.69-.83,1.31-.76A2.92,2.92,0,0,1,30.68,68.76ZM22.61,79.42a3.87,3.87,0,1,0,7.74,0,3.87,3.87,0,0,0-7.74,0Z"/><path id="Path_1141" data-name="Path 1141" class="cls-4" d="M65.7,70.22a16.79,16.79,0,0,1,4.46,2.66,1.9,1.9,0,0,1,.65,2.44,4.48,4.48,0,0,0,2.51,5.83,4.43,4.43,0,0,0,1,.27,2.06,2.06,0,0,1,1.83,1.84A15.5,15.5,0,0,1,76.32,88c-.2,1.58-.73,2.39-1.83,2.62a4.42,4.42,0,0,0-3.86,4.9,4.6,4.6,0,0,0,.28,1.09A2.12,2.12,0,0,1,70.18,99a17.36,17.36,0,0,1-4.41,2.6,2.06,2.06,0,0,1-2.8-.57,4.29,4.29,0,0,0-2.12-1.4A4.47,4.47,0,0,0,56.11,101a2.06,2.06,0,0,1-2.85.6,16.49,16.49,0,0,1-3.9-2.21,2,2,0,0,1-.82-2.72A4.45,4.45,0,0,0,45.86,91a4.5,4.5,0,0,0-1-.24A2,2,0,0,1,43,89.12a13.39,13.39,0,0,1-.13-5.67,2,2,0,0,1,2-1.87,4.45,4.45,0,0,0,3.84-5,4.35,4.35,0,0,0-.34-1.22A2,2,0,0,1,49,72.8a17.17,17.17,0,0,1,4.4-2.61,2.06,2.06,0,0,1,2.78.67,4.75,4.75,0,0,0,1.57,1.35,4.39,4.39,0,0,0,5.34-1c.54-.56,1-1.21,1.94-1.11A2.51,2.51,0,0,1,65.7,70.22ZM53.83,85.9a5.7,5.7,0,1,0,11.39,0,5.7,5.7,0,0,0-11.39,0Z"/></g></g><rect class="cls-5" x="-939.3" y="-46.78" width="1621.72" height="655.76"/></svg>