<svg id="Layer_1" data-name="Layer 1" xmlns="http://www.w3.org/2000/svg" viewBox="0 0 130 130"><defs><style>.cls-1,.cls-2,.cls-3,.cls-5{fill:none;}.cls-1{stroke:#182ac3;}.cls-1,.cls-2,.cls-5{stroke-miterlimit:10;}.cls-2,.cls-3,.cls-5{stroke:#fff;}.cls-2,.cls-3{stroke-linecap:round;stroke-width:3px;}.cls-3{stroke-linejoin:round;}.cls-4{fill:#fff;}</style></defs><rect class="cls-1" x="-169.83" y="-173.06" width="1738.81" height="825.88"/><g id="Layer_33" data-name="Layer 33"><path id="Path_1105" data-name="Path 1105" class="cls-2" d="M39.86,59.4a30.37,30.37,0,1,1,58-18"/><circle id="Ellipse_221" data-name="Ellipse 221" class="cls-3" cx="68.69" cy="49.36" r="6.35"/><path id="Path_1106" data-name="Path 1106" class="cls-3" d="M69.37,43.05V5.34H62.91L59.7,40.25l4.84.51v3.8A8.68,8.68,0,0,1,69.37,43.05Z"/><path id="Path_1107" data-name="Path 1107" class="cls-3" d="M62.62,51.58,28.73,68.13l2.83,5.8L64.35,61.49l-1.66-4.57,3.41-1.66A8.76,8.76,0,0,1,62.62,51.58Z"/><path id="Path_1108" data-name="Path 1108" class="cls-3" d="M74.37,52.61l35.08,13.86,2.37-6L80.53,44.65,78.27,49l-3.53-1.4A8.71,8.71,0,0,1,74.37,52.61Z"/><path id="Path_1109" data-name="Path 1109" class="cls-3" d="M72.62,54.36v71H62.34V67.46"/><path id="Path_1110" data-name="Path 1110" class="cls-3" d="M124.4,116H70.62l3.75-34.66h46.69Z"/><line id="Line_497" data-name="Line 497" class="cls-3" x1="107.34" y1="125.35" x2="121.45" y2="125.35"/><line id="Line_498" data-name="Line 498" class="cls-3" x1="86.28" y1="125.35" x2="109.54" y2="125.35"/><line id="Line_499" data-name="Line 499" class="cls-3" x1="5.6" y1="125.35" x2="77.55" y2="125.35"/><rect id="Rectangle_250" data-name="Rectangle 250" class="cls-3" x="93.98" y="115.99" width="8.09" height="9.37"/><path id="Path_1111" data-name="Path 1111" class="cls-2" d="M90.18,38.76,98,42.12c.81-2.73,1.63-5.46,2.44-8.19"/><rect id="Rectangle_251" data-name="Rectangle 251" class="cls-3" x="80.52" y="87.17" width="14.16" height="8.37"/><rect id="Rectangle_252" data-name="Rectangle 252" class="cls-3" x="100.55" y="87.17" width="14.16" height="8.37"/><rect id="Rectangle_253" data-name="Rectangle 253" class="cls-3" x="100.55" y="101.32" width="14.16" height="8.37"/><rect id="Rectangle_254" data-name="Rectangle 254" class="cls-3" x="80.52" y="101.32" width="14.16" height="8.37"/><g id="Group_82702" data-name="Group 82702"><g id="Group_82697" data-name="Group 82697"><line id="Line_500" data-name="Line 500" class="cls-3" x1="21.75" y1="33.95" x2="21.75" y2="38.13"/><line id="Line_501" data-name="Line 501" class="cls-3" x1="21.75" y1="9.53" x2="21.75" y2="13.71"/></g><g id="Group_82698" data-name="Group 82698"><line id="Line_502" data-name="Line 502" class="cls-3" x1="27.55" y1="32.12" x2="29.95" y2="35.55"/><line id="Line_503" data-name="Line 503" class="cls-3" x1="13.55" y1="12.12" x2="15.95" y2="15.54"/></g><g id="Group_82699" data-name="Group 82699"><line id="Line_504" data-name="Line 504" class="cls-3" x1="31.26" y1="27.3" x2="35.19" y2="28.72"/><line id="Line_505" data-name="Line 505" class="cls-3" x1="8.32" y1="18.94" x2="12.25" y2="20.37"/></g><g id="Group_82700" data-name="Group 82700"><line id="Line_506" data-name="Line 506" class="cls-3" x1="31.53" y1="21.21" x2="35.56" y2="20.14"/><line id="Line_507" data-name="Line 507" class="cls-3" x1="7.94" y1="27.53" x2="11.98" y2="26.45"/></g><g id="Group_82701" data-name="Group 82701"><line id="Line_508" data-name="Line 508" class="cls-3" x1="28.25" y1="16.08" x2="30.94" y2="12.88"/><line id="Line_509" data-name="Line 509" class="cls-3" x1="12.56" y1="34.79" x2="15.25" y2="31.58"/></g><circle id="Ellipse_222" data-name="Ellipse 222" class="cls-4" cx="21.81" cy="23.82" r="6.49"/></g><path id="Path_1116" data-name="Path 1116" class="cls-3" d="M36.29,125.11c-.91.1-1.39-.55-1.92-1.1a4.32,4.32,0,0,0-5.28-1,4.78,4.78,0,0,0-1.56,1.34,2,2,0,0,1-2.74.65,16.8,16.8,0,0,1-4.36-2.57,1.93,1.93,0,0,1-.64-2.54,4.41,4.41,0,0,0-2.26-5.81,4.53,4.53,0,0,0-1.21-.34,2,2,0,0,1-1.94-1.85,13.43,13.43,0,0,1,.13-5.61,2,2,0,0,1,1.83-1.62,4.39,4.39,0,0,0,3.91-4.84,5,5,0,0,0-.23-1,2,2,0,0,1,.81-2.7,16.36,16.36,0,0,1,3.86-2.19,2.05,2.05,0,0,1,2.83.59,4.43,4.43,0,0,0,4.69,1.35,4.17,4.17,0,0,0,2.1-1.39,2,2,0,0,1,2.77-.56,16.72,16.72,0,0,1,4.36,2.58,2.07,2.07,0,0,1,.72,2.41,4.36,4.36,0,0,0,2.46,5.65,4.52,4.52,0,0,0,1.08.28c1.09.23,1.61,1,1.81,2.59a15.25,15.25,0,0,1-.15,4.67,2,2,0,0,1-1.81,1.82,4.44,4.44,0,0,0-3.76,5,4.3,4.3,0,0,0,.27,1,1.87,1.87,0,0,1-.64,2.41A16.72,16.72,0,0,1,37,125,2.16,2.16,0,0,1,36.29,125.11Zm-5.42-10a5.63,5.63,0,0,0,5.65-5.54,5.64,5.64,0,1,0-11.27,0,5.64,5.64,0,0,0,5.62,5.57Z"/></g><rect class="cls-5" x="-139.3" y="-46.78" width="1621.72" height="655.76"/></svg>