<svg id="Layer_1" data-name="Layer 1" xmlns="http://www.w3.org/2000/svg" viewBox="0 0 130 130"><defs><style>.cls-1,.cls-2,.cls-4{fill:none;}.cls-1{stroke:#182ac3;}.cls-1,.cls-4{stroke-miterlimit:10;}.cls-2,.cls-4{stroke:#fff;}.cls-2{stroke-linecap:round;stroke-linejoin:round;stroke-width:3px;}.cls-3{fill:#fff;}</style></defs><rect class="cls-1" x="-569.83" y="-173.06" width="1738.81" height="825.88"/><g id="Layer_28" data-name="Layer 28"><polygon class="cls-2" points="29.01 80.6 41.01 50.57 53 80.6 29.01 80.6"/><rect class="cls-2" x="29.01" y="80.6" width="23.99" height="23.99"/><polygon class="cls-2" points="28.83 104.59 24.11 122.59 36.48 104.59 28.83 104.59"/><polygon class="cls-2" points="52.73 104.59 57.45 122.59 45.08 104.59 52.73 104.59"/><polyline class="cls-2" points="29.01 104.59 53 80.6 53 104.59 29.01 80.6 46.44 64.18 35.57 64.18 53 80.6"/><line class="cls-2" x1="41.01" y1="50.57" x2="41.01" y2="26.2"/><path class="cls-2" d="M47,20.17a6,6,0,1,1-6-6A6,6,0,0,1,47,20.17Z"/><path class="cls-2" d="M66.5,32.92a18,18,0,0,0,0-25.51"/><path class="cls-2" d="M61.4,29.15a12.69,12.69,0,0,0,0-18"/><path class="cls-2" d="M56.6,24.74a6.46,6.46,0,0,0,0-9.15"/><path class="cls-2" d="M14.24,32.92a18,18,0,0,1,0-25.51"/><path class="cls-2" d="M19.34,29.15a12.69,12.69,0,0,1,0-18"/><path class="cls-2" d="M24.14,24.74a6.46,6.46,0,0,1,0-9.15"/><path id="Path_1117" data-name="Path 1117" class="cls-3" d="M84,58.41a5,5,0,0,1-4.36-7.63c.11-.18.23-.37.36-.55a6.14,6.14,0,0,1,7.79-2.14,9.65,9.65,0,0,1,4.42-4.82c3.77-1.67,8.57.61,11.58,5.92,5.13-3.5,10.69-2.37,13.09,1.62a.35.35,0,0,0,0,.08A5.06,5.06,0,0,1,115,57.77a5,5,0,0,1-2.5.64Z"/><path id="Path_1123" data-name="Path 1123" class="cls-2" d="M122.83,115.45H79.31l3-28h37.78Z"/><line id="Line_513" data-name="Line 513" class="cls-2" x1="8.96" y1="123.04" x2="122.83" y2="123.04"/><rect id="Rectangle_255" data-name="Rectangle 255" class="cls-2" x="98.21" y="115.45" width="6.54" height="7.58"/><g id="Group_82709" data-name="Group 82709"><g id="Group_82708" data-name="Group 82708"><g id="Group_82707" data-name="Group 82707"><path id="Path_1128" data-name="Path 1128" class="cls-2" d="M112.46,96.56a14.49,14.49,0,0,0-20.48,0"/><path id="Path_1129" data-name="Path 1129" class="cls-2" d="M109.66,100.64a10.5,10.5,0,0,0-14.88,0"/><path id="Path_1130" data-name="Path 1130" class="cls-2" d="M106.86,104.54a6.57,6.57,0,0,0-9.28,0"/></g></g><path id="Path_1131" data-name="Path 1131" class="cls-3" d="M104.42,108.34a2.2,2.2,0,1,1-2.2-2.2A2.19,2.19,0,0,1,104.42,108.34Z"/></g></g><rect class="cls-4" x="-539.3" y="-46.78" width="1621.72" height="655.76"/></svg>