<svg id="Layer_1" data-name="Layer 1" xmlns="http://www.w3.org/2000/svg" viewBox="0 0 130 130"><defs><style>.cls-1,.cls-2,.cls-4{fill:none;}.cls-1{stroke:#182ac3;}.cls-1,.cls-2{stroke-miterlimit:10;}.cls-2,.cls-4,.cls-5{stroke:#fff;}.cls-3{fill:#fff;}.cls-4,.cls-5{stroke-linecap:round;stroke-linejoin:round;stroke-width:3px;}.cls-5{fill:#182ac3;}</style></defs><rect class="cls-1" x="-169.83" y="-573.06" width="1738.81" height="825.88"/><rect class="cls-2" x="-139.3" y="-446.78" width="1621.72" height="655.76"/><path id="Path_1117" data-name="Path 1117" class="cls-3" d="M81.2,50.39a6,6,0,0,1-6-6A6.07,6.07,0,0,1,76,41.33c.13-.22.28-.44.43-.66a7.3,7.3,0,0,1,9.25-2.54A11.47,11.47,0,0,1,91,32.41c4.47-2,10.17.73,13.74,7,6.09-4.15,12.7-2.8,15.54,1.93l.06.1A6,6,0,0,1,115,50.39Z"/><path id="Path_1110" data-name="Path 1110" class="cls-4" d="M60.9,107.51H14.25l3.26-30.06H58Z"/><rect id="Rectangle_250" data-name="Rectangle 250" class="cls-4" x="34.51" y="107.51" width="7.01" height="8.13"/><rect id="Rectangle_251" data-name="Rectangle 251" class="cls-4" x="22.84" y="82.52" width="12.28" height="7.26"/><rect id="Rectangle_252" data-name="Rectangle 252" class="cls-4" x="40.21" y="82.52" width="12.28" height="7.26"/><rect id="Rectangle_253" data-name="Rectangle 253" class="cls-4" x="40.21" y="94.79" width="12.28" height="7.26"/><rect id="Rectangle_254" data-name="Rectangle 254" class="cls-4" x="22.84" y="94.79" width="12.28" height="7.26"/><path id="Path_1110-2" data-name="Path 1110" class="cls-4" d="M118,107.51H71.35l3.26-30.06h40.5Z"/><rect id="Rectangle_250-2" data-name="Rectangle 250" class="cls-4" x="91.61" y="107.51" width="7.01" height="8.13"/><rect id="Rectangle_251-2" data-name="Rectangle 251" class="cls-4" x="79.94" y="82.52" width="12.28" height="7.26"/><rect id="Rectangle_252-2" data-name="Rectangle 252" class="cls-4" x="97.31" y="82.52" width="12.28" height="7.26"/><rect id="Rectangle_253-2" data-name="Rectangle 253" class="cls-4" x="97.31" y="94.79" width="12.28" height="7.26"/><rect id="Rectangle_254-2" data-name="Rectangle 254" class="cls-4" x="79.94" y="94.79" width="12.28" height="7.26"/><g id="Group_82702" data-name="Group 82702"><g id="Group_82697" data-name="Group 82697"><line id="Line_500" data-name="Line 500" class="cls-4" x1="38.02" y1="38.78" x2="38.02" y2="42.95"/><line id="Line_501" data-name="Line 501" class="cls-4" x1="38.02" y1="14.36" x2="38.02" y2="18.54"/></g><g id="Group_82698" data-name="Group 82698"><line id="Line_502" data-name="Line 502" class="cls-4" x1="43.82" y1="36.95" x2="46.22" y2="40.37"/><line id="Line_503" data-name="Line 503" class="cls-4" x1="29.82" y1="16.95" x2="32.22" y2="20.37"/></g><g id="Group_82699" data-name="Group 82699"><line id="Line_504" data-name="Line 504" class="cls-4" x1="47.53" y1="32.12" x2="51.46" y2="33.55"/><line id="Line_505" data-name="Line 505" class="cls-4" x1="24.59" y1="23.77" x2="28.51" y2="25.2"/></g><g id="Group_82700" data-name="Group 82700"><line id="Line_506" data-name="Line 506" class="cls-4" x1="47.8" y1="26.04" x2="51.83" y2="24.96"/><line id="Line_507" data-name="Line 507" class="cls-4" x1="24.21" y1="32.36" x2="28.25" y2="31.27"/></g><g id="Group_82701" data-name="Group 82701"><line id="Line_508" data-name="Line 508" class="cls-4" x1="44.52" y1="20.91" x2="47.21" y2="17.71"/><line id="Line_509" data-name="Line 509" class="cls-4" x1="28.83" y1="39.61" x2="31.52" y2="36.41"/></g><circle id="Ellipse_222" data-name="Ellipse 222" class="cls-3" cx="38.08" cy="28.64" r="6.49"/></g><g id="Group_82702-2" data-name="Group 82702"><g id="Group_82697-2" data-name="Group 82697"><line id="Line_500-2" data-name="Line 500" class="cls-4" x1="95.12" y1="38.78" x2="95.12" y2="42.95"/><line id="Line_501-2" data-name="Line 501" class="cls-4" x1="95.12" y1="14.36" x2="95.12" y2="18.54"/></g><g id="Group_82698-2" data-name="Group 82698"><line id="Line_502-2" data-name="Line 502" class="cls-4" x1="100.92" y1="36.95" x2="103.32" y2="40.37"/><line id="Line_503-2" data-name="Line 503" class="cls-4" x1="86.93" y1="16.95" x2="89.32" y2="20.37"/></g><g id="Group_82699-2" data-name="Group 82699"><line id="Line_504-2" data-name="Line 504" class="cls-4" x1="104.63" y1="32.12" x2="108.56" y2="33.55"/><line id="Line_505-2" data-name="Line 505" class="cls-4" x1="81.69" y1="23.77" x2="85.62" y2="25.2"/></g><g id="Group_82700-2" data-name="Group 82700"><line id="Line_506-2" data-name="Line 506" class="cls-4" x1="104.9" y1="26.04" x2="108.93" y2="24.96"/><line id="Line_507-2" data-name="Line 507" class="cls-4" x1="81.31" y1="32.36" x2="85.35" y2="31.27"/></g><g id="Group_82701-2" data-name="Group 82701"><line id="Line_508-2" data-name="Line 508" class="cls-4" x1="101.62" y1="20.91" x2="104.31" y2="17.71"/><line id="Line_509-2" data-name="Line 509" class="cls-4" x1="85.93" y1="39.61" x2="88.62" y2="36.41"/></g><circle id="Ellipse_222-2" data-name="Ellipse 222" class="cls-3" cx="95.18" cy="28.64" r="6.49"/></g><polyline class="cls-4" points="37.81 53.3 33.92 60.6 39.98 60.66 36.95 68.06"/><line class="cls-5" x1="4.68" y1="115.64" x2="125.32" y2="115.64"/></svg>