<svg id="Layer_1" data-name="Layer 1" xmlns="http://www.w3.org/2000/svg" viewBox="0 0 130 130"><defs><style>.cls-1,.cls-2,.cls-3,.cls-5{fill:none;}.cls-1{stroke:#182ac3;}.cls-1,.cls-5{stroke-miterlimit:10;}.cls-2,.cls-3,.cls-4,.cls-5{stroke:#fff;}.cls-2,.cls-3,.cls-4{stroke-linecap:round;stroke-linejoin:round;}.cls-2,.cls-4{stroke-width:3px;}.cls-3{stroke-width:2px;}.cls-4{fill:#182ac3;}</style></defs><rect class="cls-1" x="-169.83" y="-573.06" width="1738.81" height="825.88"/><g id="Layer_44" data-name="Layer 44"><rect id="Rectangle_257" data-name="Rectangle 257" class="cls-2" x="19.46" y="15.99" width="20.65" height="43.92"/><line id="Line_530" data-name="Line 530" class="cls-3" x1="29.78" y1="21.6" x2="29.78" y2="26.59"/><line id="Line_531" data-name="Line 531" class="cls-3" x1="27.28" y1="24.09" x2="32.28" y2="24.09"/><line id="Line_532" data-name="Line 532" class="cls-3" x1="27.28" y1="49.06" x2="32.28" y2="49.06"/><line id="Line_533" data-name="Line 533" class="cls-2" x1="19.46" y1="54.81" x2="40.1" y2="54.81"/><path id="Path_1158" data-name="Path 1158" class="cls-3" d="M32.28,31.14l-4.42,6.22,4.42-.56-3.63,6.26"/><path id="Path_1159" data-name="Path 1159" class="cls-2" d="M27,16c0-1.31,0-2.62.06-3.93h6V16Z"/></g><g id="Layer_44-2" data-name="Layer 44"><rect id="Rectangle_257-2" data-name="Rectangle 257" class="cls-2" x="56.14" y="15.99" width="20.65" height="43.92"/><line id="Line_530-2" data-name="Line 530" class="cls-3" x1="66.47" y1="21.6" x2="66.47" y2="26.59"/><line id="Line_531-2" data-name="Line 531" class="cls-3" x1="63.96" y1="24.09" x2="68.96" y2="24.09"/><line id="Line_532-2" data-name="Line 532" class="cls-3" x1="63.96" y1="49.06" x2="68.96" y2="49.06"/><line id="Line_533-2" data-name="Line 533" class="cls-2" x1="56.14" y1="54.81" x2="76.79" y2="54.81"/><path id="Path_1158-2" data-name="Path 1158" class="cls-3" d="M69,31.14l-4.41,6.22L69,36.8l-3.62,6.26"/><path id="Path_1159-2" data-name="Path 1159" class="cls-2" d="M63.65,16l.06-3.93h6V16Z"/></g><g id="Layer_44-3" data-name="Layer 44"><rect id="Rectangle_257-3" data-name="Rectangle 257" class="cls-2" x="92.83" y="15.99" width="20.65" height="43.92"/><line id="Line_530-3" data-name="Line 530" class="cls-3" x1="103.15" y1="21.6" x2="103.15" y2="26.59"/><line id="Line_531-3" data-name="Line 531" class="cls-3" x1="100.65" y1="24.09" x2="105.65" y2="24.09"/><line id="Line_532-3" data-name="Line 532" class="cls-3" x1="100.65" y1="49.06" x2="105.65" y2="49.06"/><line id="Line_533-3" data-name="Line 533" class="cls-2" x1="92.83" y1="54.81" x2="113.47" y2="54.81"/><path id="Path_1158-3" data-name="Path 1158" class="cls-3" d="M105.65,31.14l-4.42,6.22,4.42-.56L102,43.06"/><path id="Path_1159-3" data-name="Path 1159" class="cls-2" d="M100.34,16c0-1.31,0-2.62.06-3.93h6V16Z"/></g><path id="Path_1110" data-name="Path 1110" class="cls-4" d="M60.25,110.53H13.6l3.26-30.06h40.5Z"/><rect id="Rectangle_250" data-name="Rectangle 250" class="cls-2" x="33.86" y="110.53" width="7.01" height="8.13"/><rect id="Rectangle_251" data-name="Rectangle 251" class="cls-2" x="22.19" y="85.53" width="12.28" height="7.26"/><rect id="Rectangle_252" data-name="Rectangle 252" class="cls-2" x="39.56" y="85.53" width="12.28" height="7.26"/><rect id="Rectangle_253" data-name="Rectangle 253" class="cls-2" x="39.56" y="97.81" width="12.28" height="7.26"/><rect id="Rectangle_254" data-name="Rectangle 254" class="cls-2" x="22.19" y="97.81" width="12.28" height="7.26"/><path id="Path_1110-2" data-name="Path 1110" class="cls-4" d="M113.4,110.53H66.75L70,80.47h40.5Z"/><rect id="Rectangle_250-2" data-name="Rectangle 250" class="cls-2" x="87.01" y="110.53" width="7.01" height="8.13"/><rect id="Rectangle_251-2" data-name="Rectangle 251" class="cls-2" x="75.34" y="85.53" width="12.28" height="7.26"/><rect id="Rectangle_252-2" data-name="Rectangle 252" class="cls-2" x="92.71" y="85.53" width="12.28" height="7.26"/><rect id="Rectangle_253-2" data-name="Rectangle 253" class="cls-2" x="92.71" y="97.81" width="12.28" height="7.26"/><rect id="Rectangle_254-2" data-name="Rectangle 254" class="cls-2" x="75.34" y="97.81" width="12.28" height="7.26"/><rect class="cls-5" x="-139.3" y="-446.78" width="1621.72" height="655.76"/></svg>