<svg xmlns="http://www.w3.org/2000/svg" width="107.318" height="105.356" viewBox="0 0 107.318 105.356">
  <g id="BlueIcons_-20-01" data-name="BlueIcons -20-01" transform="translate(0 6.5)">
    <g id="Group_82724" data-name="Group 82724" transform="translate(0 -5)">
      <path id="Path_1132" data-name="Path 1132" d="M-1006.509,1325.91l-10.67,15.179-.89-5.678-9.581,5.785,11.066-15.071.477,6.418Z" transform="translate(1097.858 -1273.527)" fill="#fff" stroke="#fff" stroke-linecap="round" stroke-linejoin="round" stroke-width="2"/>
      <path id="Path_1133" data-name="Path 1133" d="M-977.861,1345.2l-11.458,11.061.172-4.927-9.013,3.319,11.774-10.905-.643,5.485Z" transform="translate(1084.179 -1281.802)" fill="#fff" stroke="#fff" stroke-linecap="round" stroke-linejoin="round" stroke-width="2"/>
      <path id="Path_1134" data-name="Path 1134" d="M-1154.658,1260.11a3.911,3.911,0,0,1-3.378-5.9c.086-.145.182-.289.284-.429a4.758,4.758,0,0,1,6.021-1.662,7.518,7.518,0,0,1,3.415-3.726c2.917-1.292,6.627.477,8.948,4.573,3.968-2.7,8.267-1.828,10.123,1.255.011.021.027.043.037.064a3.9,3.9,0,0,1-3.426,5.817h-22.025Z" transform="translate(1158.597 -1237.377)" fill="#fff"/>
      <circle id="Ellipse_226" data-name="Ellipse 226" cx="5.308" cy="5.308" r="5.308" transform="translate(37.84 31.472)" fill="none" stroke="#fff" stroke-linecap="round" stroke-linejoin="round" stroke-width="3"/>
      <path id="Path_1136" data-name="Path 1136" d="M-1084.046,1259.714v-31.5h-5.394l-2.681,29.167,4.037.429v3.174A7.244,7.244,0,0,1-1084.046,1259.714Z" transform="translate(1127.762 -1228.21)" fill="#182ac3" stroke="#fff" stroke-linecap="round" stroke-linejoin="round" stroke-width="3"/>
      <path id="Path_1137" data-name="Path 1137" d="M-1112.071,1300.27l-28.309,13.822,2.37,4.847,27.387-10.391-1.389-3.818,2.852-1.394A7.231,7.231,0,0,1-1112.071,1300.27Z" transform="translate(1150.147 -1261.634)" fill="#182ac3" stroke="#fff" stroke-linecap="round" stroke-linejoin="round" stroke-width="3"/>
      <path id="Path_1138" data-name="Path 1138" d="M-1069.27,1296.1l29.3,11.581,1.984-5.018-26.138-13.216-1.882,3.6-2.949-1.169A7.446,7.446,0,0,1-1069.27,1296.1Z" transform="translate(1117.163 -1256.616)" fill="#182ac3" stroke="#fff" stroke-linecap="round" stroke-linejoin="round" stroke-width="3"/>
      <path id="Path_1139" data-name="Path 1139" d="M-1079.431,1326v47.37h-8.589V1325.01" transform="translate(1125.86 -1273.11)" fill="none" stroke="#fff" stroke-linecap="round" stroke-linejoin="round" stroke-width="3"/>
      <line id="Line_514" data-name="Line 514" y2="4.22" transform="translate(46.429 40.946)" fill="none" stroke="#fff" stroke-linecap="round" stroke-linejoin="round" stroke-width="3"/>
      <line id="Line_515" data-name="Line 515" x2="4.852" transform="translate(82.368 100.261)" fill="none" stroke="#fff" stroke-linecap="round" stroke-linejoin="round" stroke-width="3"/>
      <line id="Line_516" data-name="Line 516" x2="19.436" transform="translate(57.838 100.261)" fill="none" stroke="#fff" stroke-linecap="round" stroke-linejoin="round" stroke-width="3"/>
      <line id="Line_517" data-name="Line 517" x2="24.234" transform="translate(26.313 100.261)" fill="none" stroke="#fff" stroke-linecap="round" stroke-linejoin="round" stroke-width="3"/>
      <path id="Path_1140" data-name="Path 1140" d="M-1005.083,1400.084a11.414,11.414,0,0,1-3.029-1.812,1.284,1.284,0,0,1-.44-1.651,3.048,3.048,0,0,0-2.4-4.145,1.388,1.388,0,0,1-1.238-1.249,10.363,10.363,0,0,1-.1-3.206c.139-1.067.5-1.619,1.244-1.775a3,3,0,0,0,2.434-4.069,1.43,1.43,0,0,1,.493-1.657,11.809,11.809,0,0,1,3-1.769,1.388,1.388,0,0,1,1.9.391,2.94,2.94,0,0,0,1.437.949,3.024,3.024,0,0,0,3.222-.927,1.414,1.414,0,0,1,1.941-.407,11.054,11.054,0,0,1,2.649,1.507,1.393,1.393,0,0,1,.558,1.85,3.017,3.017,0,0,0,2.525,4.027,1.367,1.367,0,0,1,1.26,1.11,9.163,9.163,0,0,1,.086,3.855,1.356,1.356,0,0,1-1.335,1.271,3.034,3.034,0,0,0-2.381,4.225,1.329,1.329,0,0,1-.44,1.742,11.648,11.648,0,0,1-3,1.769,1.388,1.388,0,0,1-1.882-.45,3.363,3.363,0,0,0-1.067-.917,2.98,2.98,0,0,0-3.63.67c-.365.386-.692.826-1.314.756A2.451,2.451,0,0,1-1005.083,1400.084Zm8.069-10.659a3.96,3.96,0,0,0-3.935-3.887,3.98,3.98,0,0,0-3.807,3.9,3.872,3.872,0,0,0,3.882,3.807A3.86,3.86,0,0,0-997.014,1389.425Z" transform="translate(1090.77 -1297.941)" fill="#182ac3" stroke="#fff" stroke-linecap="round" stroke-linejoin="round" stroke-width="3"/>
      <path id="Path_1141" data-name="Path 1141" d="M-1073.392,1388.568a16.665,16.665,0,0,1-4.461-2.665,1.884,1.884,0,0,1-.643-2.434,4.487,4.487,0,0,0-3.528-6.1,2.06,2.06,0,0,1-1.828-1.839,15.468,15.468,0,0,1-.155-4.718c.2-1.571.729-2.381,1.828-2.616a4.408,4.408,0,0,0,3.582-5.989,2.1,2.1,0,0,1,.729-2.44,17.258,17.258,0,0,1,4.413-2.6,2.049,2.049,0,0,1,2.793.574,4.3,4.3,0,0,0,2.118,1.394,4.463,4.463,0,0,0,4.74-1.362,2.076,2.076,0,0,1,2.858-.6,16.673,16.673,0,0,1,3.9,2.214,2.053,2.053,0,0,1,.82,2.724,4.443,4.443,0,0,0,3.716,5.925,2.012,2.012,0,0,1,1.855,1.635,13.463,13.463,0,0,1,.123,5.667,2,2,0,0,1-1.962,1.871,4.458,4.458,0,0,0-3.5,6.214,1.958,1.958,0,0,1-.643,2.563,17.008,17.008,0,0,1-4.407,2.606,2.045,2.045,0,0,1-2.772-.665,4.936,4.936,0,0,0-1.571-1.351,4.4,4.4,0,0,0-5.345.986c-.536.563-1.019,1.212-1.936,1.11A2.328,2.328,0,0,1-1073.392,1388.568Zm11.87-15.677a5.829,5.829,0,0,0-5.791-5.721,5.846,5.846,0,0,0-5.6,5.748,5.7,5.7,0,0,0,5.7,5.6A5.692,5.692,0,0,0-1061.521,1372.891Z" transform="translate(1124.052 -1287.883)" fill="#182ac3" stroke="#fff" stroke-linecap="round" stroke-linejoin="round" stroke-width="3"/>
    </g>
  </g>
</svg>
