<svg id="Layer_1" data-name="Layer 1" xmlns="http://www.w3.org/2000/svg" viewBox="0 0 130 130"><defs><style>.cls-1,.cls-4{fill:none;}.cls-1{stroke:#fff;stroke-miterlimit:10;}.cls-2{fill:#fff;}.cls-2,.cls-4{stroke:#0561fc;stroke-linecap:round;stroke-linejoin:round;stroke-width:4px;}.cls-3{fill:#c5e1f9;}</style></defs><rect class="cls-1" x="-927.81" y="-123.34" width="1617.81" height="630.76"/><path class="cls-2" d="M114.31,22.2v98.62H28.76a13.07,13.07,0,0,1-13.07-13.08V22.2Z"/><path class="cls-2" d="M41.83,9.18v85.5H28.76a13.07,13.07,0,0,0-13.07,13.06V22.26A13.08,13.08,0,0,1,28.76,9.18Z"/><polygon class="cls-3" points="88.03 66.61 41.83 66.61 41.83 76.42 49 76.42 93.4 120.81 107.24 120.81 62.89 76.42 114.31 76.42 114.31 66.61 97.85 66.61 97.85 22.23 88.03 22.23 88.03 66.61"/><polygon class="cls-4" points="114.31 76.42 62.89 76.42 107.26 120.8 107.24 120.81 93.4 120.81 49 76.42 41.83 76.42 41.83 66.61 88.03 66.61 88.03 22.23 97.85 22.23 97.85 66.61 114.31 66.61 114.31 76.42"/><line class="cls-2" x1="63.13" y1="41.83" x2="63.13" y2="52.12"/><circle class="cls-2" cx="63.13" cy="38.39" r="8.62"/><line class="cls-2" x1="97.36" y1="84.68" x2="97.36" y2="94.96"/><circle class="cls-2" cx="97.36" cy="81.24" r="8.62"/></svg>