<svg xmlns="http://www.w3.org/2000/svg" width="114.732" height="94.868" viewBox="0 0 114.732 94.868">
  <g id="BlueIcons_-20-02" data-name="BlueIcons -20-02" transform="translate(0 1.5)">
    <g id="Layer_4" transform="translate(0 0)">
      <g id="Group_341" data-name="Group 341" transform="translate(0 0)">
        <path id="Path_430" data-name="Path 430" d="M116.282,104.359H102.4V61.9h57v42.459" transform="translate(-83.231 -52.357)" fill="none" stroke="#fff" stroke-width="3"/>
        <path id="Path_431" data-name="Path 431" d="M178.24,90.6v19.034l-8.7-11.583L161,109.426l-5.532-7.347-7.036,9.353-1.539,2.057H131.2V90.6Z" transform="translate(-107.052 -76.096)" fill="#fff"/>
        <g id="Group_337" data-name="Group 337" transform="translate(26.966 42.545)">
          <path id="Path_432" data-name="Path 432" d="M163.111,434.4H152.254a4.751,4.751,0,0,1-4.754-4.754v-8.592a4.751,4.751,0,0,1,4.754-4.754h10.857" transform="translate(-147.5 -388.034)" fill="none" stroke="#fff" stroke-width="3"/>
          <path id="Path_433" data-name="Path 433" d="M376.6,416.3h11.445a4.751,4.751,0,0,1,4.754,4.754v8.592a4.751,4.751,0,0,1-4.754,4.754H376.6" transform="translate(-336.994 -388.034)" fill="none" stroke="#fff" stroke-width="3"/>
          <path id="Path_434" data-name="Path 434" d="M258.5,423.3h-24v-24h24v24Z" transform="translate(-219.46 -373.973)" fill="none" stroke="#fff" stroke-width="3"/>
          <path id="Path_435" data-name="Path 435" d="M180.32,454.06a3.06,3.06,0,1,1-3.06-3.06A3.055,3.055,0,0,1,180.32,454.06Z" transform="translate(-169.584 -416.736)" fill="none" stroke="#fff" stroke-width="3"/>
          <rect id="Rectangle_124" data-name="Rectangle 124" width="6.103" height="6.103" transform="translate(44.015 34.264)" fill="none" stroke="#fff" stroke-width="3"/>
          <g id="Group_335" data-name="Group 335" transform="translate(10.909)">
            <path id="Path_436" data-name="Path 436" d="M210.6,252.8v12.4a4.021,4.021,0,0,0,4.028,4.028h24.2a4.021,4.021,0,0,0,4.028-4.028V252.8Z" transform="translate(-210.6 -252.8)" fill="none" stroke="#fff" stroke-width="3"/>
            <line id="Line_18" data-name="Line 18" x2="32.276" transform="translate(0 4.616)" fill="none" stroke="#fff" stroke-width="3"/>
            <g id="Group_334" data-name="Group 334" transform="translate(4.892 7.78)">
              <line id="Line_19" data-name="Line 19" y2="4.91" fill="none" stroke="#fff" stroke-width="3"/>
              <line id="Line_20" data-name="Line 20" y2="4.91" transform="translate(7.209)" fill="none" stroke="#fff" stroke-width="3"/>
              <line id="Line_21" data-name="Line 21" y2="4.91" transform="translate(14.418)" fill="none" stroke="#fff" stroke-width="3"/>
              <line id="Line_22" data-name="Line 22" y2="4.91" transform="translate(21.61)" fill="none" stroke="#fff" stroke-width="3"/>
            </g>
          </g>
          <g id="Group_336" data-name="Group 336" transform="translate(18.826 19.017)">
            <line id="Line_23" data-name="Line 23" y1="6.345" fill="none" stroke="#fff" stroke-width="3"/>
            <line id="Line_24" data-name="Line 24" y1="6.345" transform="translate(16.423)" fill="none" stroke="#fff" stroke-width="3"/>
          </g>
          <path id="Path_437" data-name="Path 437" d="M267.9,457.233l3.216-6.033h6.466l3.233,6.033" transform="translate(-247.085 -416.901)" fill="none" stroke="#fff" stroke-width="3"/>
        </g>
        <g id="Group_338" data-name="Group 338" transform="translate(82.356 25.309)">
          <rect id="Rectangle_125" data-name="Rectangle 125" width="30.876" height="25.724" fill="none" stroke="#fff" stroke-width="3"/>
          <path id="Path_438" data-name="Path 438" d="M467.9,216.665l7.14-7.365,9.232,9.94,7.019-4.685,6.552,5.619" transform="translate(-467.9 -199.584)" fill="none" stroke="#fff" stroke-width="3"/>
          <path id="Path_439" data-name="Path 439" d="M553.065,179.482a3.682,3.682,0,1,1-3.682-3.682A3.674,3.674,0,0,1,553.065,179.482Z" transform="translate(-532.25 -171.876)" fill="#fff"/>
        </g>
        <ellipse id="Ellipse_13" data-name="Ellipse 13" cx="9.802" cy="9.802" rx="9.802" ry="9.802" transform="matrix(0.162, -0.987, 0.987, 0.162, 0, 86.226)" fill="#fff"/>
        <path id="Path_440" data-name="Path 440" d="M47.916,441.314,43.3,436.7l4.616-4.6" transform="translate(-34.348 -358.558)" fill="none" stroke="#354b9c" stroke-width="3"/>
        <circle id="Ellipse_14" data-name="Ellipse 14" cx="9.802" cy="9.802" r="9.802" transform="translate(84.118 78.143) rotate(-45)" fill="#fff"/>
        <path id="Path_441" data-name="Path 441" d="M545,441.314l4.6-4.616-4.6-4.6" transform="translate(-449.315 -358.558)" fill="none" stroke="#354b9c" stroke-width="3"/>
        <path id="Path_442" data-name="Path 442" d="M55.266,121.673a4.278,4.278,0,0,0,.052-.467,3.2,3.2,0,0,0-4.236-3.06,6.684,6.684,0,0,0-6.6-5.7,6.518,6.518,0,0,0-1.435.156,8.158,8.158,0,0,0-13.986,3.527h-.017a4.833,4.833,0,0,0-4.841,4.841,4.486,4.486,0,0,0,.052.692H55.266Z" transform="translate(-18.55 -92.059)" fill="#354b9c"/>
        <g id="Group_340" data-name="Group 340" transform="translate(82.356)">
          <path id="Path_443" data-name="Path 443" d="M486.139,15.88v9.059H467.9V6.7h9.042" transform="translate(-467.9 -6.7)" fill="none" stroke="#fff" stroke-width="3"/>
          <g id="Group_339" data-name="Group 339" transform="translate(10.39)">
            <path id="Path_444" data-name="Path 444" d="M549.662,11.644V6.7H544.7" transform="translate(-541.813 -6.7)" fill="none" stroke="#fff" stroke-width="3"/>
            <line id="Line_25" data-name="Line 25" x1="7.174" y2="7.157" transform="translate(0 0.674)" fill="none" stroke="#fff" stroke-width="3"/>
          </g>
        </g>
      </g>
    </g>
  </g>
</svg>
