<svg xmlns="http://www.w3.org/2000/svg" width="98.292" height="98.604" viewBox="0 0 98.292 98.604">
  <g id="Group_82620" data-name="Group 82620" transform="translate(1516.516 378.844)">
    <path id="Path_658" data-name="Path 658" d="M-1538.616-251.379l.8-82.822s-17.6-3.747-14.727,12.613c0,0-8.622-1.832-10.153,3.781s4.413,8.2,4.413,8.2-11.733.661-8.681,12.734c0,0-5.453,6.455,4.462,11.879,0,0-8.156,9.3,2.1,15.869C-1560.4-269.12-1567.035-248.857-1538.616-251.379Z" transform="translate(65.393 -36.052)" fill="#c5e1f9"/>
    <path id="Path_659" data-name="Path 659" d="M-1550.421-341.254l-.8,82.822s-4.194,5.526-11.252,5.687c-7.232.165-12.535-5.249-12.214-9.332,0,0-18.377-5.735-4.661-19.928,0,0-13.289.583-9.643-11.665,0,0-8.549-6.416-.632-16.72,0,0-3.869-11.665,10.061-11.471,0,0-5.57-5.833-1.069-10.693s11.786-.389,11.786-.389-4.287-8.943,4.929-14S-1550.421-341.254-1550.421-341.254Z" transform="translate(78 -29)" fill="none" stroke="#0561fc" stroke-linecap="round" stroke-linejoin="round" stroke-width="3"/>
    <path id="Path_660" data-name="Path 660" d="M-1540.14-246.9" transform="translate(50.839 -81.112)" fill="none" stroke="#0561fc" stroke-linecap="round" stroke-linejoin="round" stroke-width="3"/>
    <path id="Path_661" data-name="Path 661" d="M-1574.35-270.22" transform="translate(68.421 -69.126)" fill="none" stroke="#0561fc" stroke-linecap="round" stroke-linejoin="round" stroke-width="3"/>
    <path id="Path_662" data-name="Path 662" d="M-1551.728-282.53a20.693,20.693,0,0,0,1.963,11.65" transform="translate(56.876 -62.799)" fill="none" stroke="#0561fc" stroke-linecap="round" stroke-linejoin="round" stroke-width="3"/>
    <path id="Path_663" data-name="Path 663" d="M-1518.385-287.92s-2.3-9.915-11.825-5.833" transform="translate(45.735 -56.524)" fill="none" stroke="#0561fc" stroke-linecap="round" stroke-linejoin="round" stroke-width="3"/>
    <path id="Path_664" data-name="Path 664" d="M-1525.392-215.762s-15.048,4.515-17.818-10.358" transform="translate(52.416 -91.792)" fill="none" stroke="#0561fc" stroke-linecap="round" stroke-linejoin="round" stroke-width="3"/>
    <path id="Path_665" data-name="Path 665" d="M-1530.446-172.091s1.327-9.337,0-12.545-5.264-6.124-5.264-6.124" transform="translate(48.562 -109.965)" fill="none" stroke="#0561fc" stroke-linecap="round" stroke-linejoin="round" stroke-width="3"/>
    <path id="Path_666" data-name="Path 666" d="M-1515.971-239.5a10.724,10.724,0,0,1-8.909-1.312" transform="translate(42.996 -84.242)" fill="none" stroke="#0561fc" stroke-linecap="round" stroke-linejoin="round" stroke-width="3"/>
    <path id="Path_667" data-name="Path 667" d="M-1586.53-237.6a12.506,12.506,0,0,0,7.222,3.864" transform="translate(74.681 -85.891)" fill="none" stroke="#0561fc" stroke-linecap="round" stroke-linejoin="round" stroke-width="3"/>
    <circle id="Ellipse_59" data-name="Ellipse 59" cx="3.135" cy="3.135" r="3.135" transform="translate(-1468.338 -375.065)" fill="none" stroke="#0561fc" stroke-linecap="round" stroke-linejoin="round" stroke-width="3"/>
    <circle id="Ellipse_60" data-name="Ellipse 60" cx="3.135" cy="3.135" r="3.135" transform="translate(-1459.196 -351.264)" fill="none" stroke="#0561fc" stroke-linecap="round" stroke-linejoin="round" stroke-width="3"/>
    <circle id="Ellipse_61" data-name="Ellipse 61" cx="3.135" cy="3.135" r="3.135" transform="translate(-1438.52 -362.525)" fill="none" stroke="#0561fc" stroke-linecap="round" stroke-linejoin="round" stroke-width="3"/>
    <circle id="Ellipse_62" data-name="Ellipse 62" cx="3.135" cy="3.135" r="3.135" transform="translate(-1447.852 -354.725)" fill="none" stroke="#0561fc" stroke-linecap="round" stroke-linejoin="round" stroke-width="3"/>
    <circle id="Ellipse_63" data-name="Ellipse 63" cx="3.135" cy="3.135" r="3.135" transform="translate(-1444.362 -337.412)" fill="none" stroke="#0561fc" stroke-linecap="round" stroke-linejoin="round" stroke-width="3"/>
    <circle id="Ellipse_64" data-name="Ellipse 64" cx="3.135" cy="3.135" r="3.135" transform="translate(-1433.246 -302.873)" fill="none" stroke="#0561fc" stroke-linecap="round" stroke-linejoin="round" stroke-width="3"/>
    <circle id="Ellipse_65" data-name="Ellipse 65" cx="3.135" cy="3.135" r="3.135" transform="translate(-1440.25 -295.116)" fill="none" stroke="#0561fc" stroke-linecap="round" stroke-linejoin="round" stroke-width="3"/>
    <circle id="Ellipse_66" data-name="Ellipse 66" cx="3.135" cy="3.135" r="3.135" transform="translate(-1456.79 -335.55)" fill="none" stroke="#0561fc" stroke-linecap="round" stroke-linejoin="round" stroke-width="3"/>
    <circle id="Ellipse_67" data-name="Ellipse 67" cx="3.135" cy="3.135" r="3.135" transform="translate(-1448.284 -370.856)" fill="none" stroke="#0561fc" stroke-linecap="round" stroke-linejoin="round" stroke-width="3"/>
    <circle id="Ellipse_68" data-name="Ellipse 68" cx="3.135" cy="3.135" r="3.135" transform="translate(-1429.576 -351.925)" fill="none" stroke="#0561fc" stroke-linecap="round" stroke-linejoin="round" stroke-width="3"/>
    <circle id="Ellipse_69" data-name="Ellipse 69" cx="3.135" cy="3.135" r="3.135" transform="translate(-1469.214 -327.312)" fill="none" stroke="#0561fc" stroke-linecap="round" stroke-linejoin="round" stroke-width="3"/>
    <circle id="Ellipse_70" data-name="Ellipse 70" cx="3.135" cy="3.135" r="3.135" transform="translate(-1457.257 -325.051)" fill="none" stroke="#0561fc" stroke-linecap="round" stroke-linejoin="round" stroke-width="3"/>
    <circle id="Ellipse_71" data-name="Ellipse 71" cx="3.135" cy="3.135" r="3.135" transform="translate(-1459.925 -310.602)" fill="none" stroke="#0561fc" stroke-linecap="round" stroke-linejoin="round" stroke-width="3"/>
    <circle id="Ellipse_72" data-name="Ellipse 72" cx="3.135" cy="3.135" r="3.135" transform="translate(-1432.386 -332.921)" fill="none" stroke="#0561fc" stroke-linecap="round" stroke-linejoin="round" stroke-width="3"/>
    <circle id="Ellipse_73" data-name="Ellipse 73" cx="3.135" cy="3.135" r="3.135" transform="translate(-1429.251 -319.336)" fill="none" stroke="#0561fc" stroke-linecap="round" stroke-linejoin="round" stroke-width="3"/>
    <circle id="Ellipse_74" data-name="Ellipse 74" cx="3.135" cy="3.135" r="3.135" transform="translate(-1445.266 -311.442)" fill="none" stroke="#0561fc" stroke-linecap="round" stroke-linejoin="round" stroke-width="3"/>
    <circle id="Ellipse_75" data-name="Ellipse 75" cx="3.135" cy="3.135" r="3.135" transform="translate(-1456.567 -298.805)" fill="none" stroke="#0561fc" stroke-linecap="round" stroke-linejoin="round" stroke-width="3"/>
    <path id="Path_668" data-name="Path 668" d="M-1485.04-344.142l8.866-3.368,6.936,6.479" transform="translate(22.52 -29.402)" fill="none" stroke="#0561fc" stroke-linecap="round" stroke-linejoin="round" stroke-width="3"/>
    <path id="Path_669" data-name="Path 669" d="M-1492.36-331.07v36.507h9.288" transform="translate(26.282 -37.852)" fill="none" stroke="#0561fc" stroke-linecap="round" stroke-linejoin="round" stroke-width="3"/>
    <line id="Line_295" data-name="Line 295" x2="6.882" transform="translate(-1466.078 -348.129)" fill="none" stroke="#0561fc" stroke-linecap="round" stroke-linejoin="round" stroke-width="3"/>
    <line id="Line_296" data-name="Line 296" y1="3.781" x2="4.574" transform="translate(-1442.559 -357.641)" fill="none" stroke="#0561fc" stroke-linecap="round" stroke-linejoin="round" stroke-width="3"/>
    <path id="Path_670" data-name="Path 670" d="M-1421.271-250.506l3.9-5.551v-14.824l-12.778-2.309-6.494,4.316" transform="translate(-2.356 -67.6)" fill="none" stroke="#0561fc" stroke-linecap="round" stroke-linejoin="round" stroke-width="3"/>
    <line id="Line_297" data-name="Line 297" x1="6.027" transform="translate(-1426.087 -329.785)" fill="none" stroke="#0561fc" stroke-linecap="round" stroke-linejoin="round" stroke-width="3"/>
    <path id="Path_671" data-name="Path 671" d="M-1464.11-229.05l2.576,3.689h13.279l10.051,7.339-2.557,5.643" transform="translate(11.763 -90.286)" fill="none" stroke="#0561fc" stroke-linecap="round" stroke-linejoin="round" stroke-width="3"/>
    <path id="Path_672" data-name="Path 672" d="M-1492.36-232.56V-202.6l8.141,9.337h13.8l5.137-7.738" transform="translate(26.282 -88.482)" fill="none" stroke="#0561fc" stroke-linecap="round" stroke-linejoin="round" stroke-width="3"/>
    <line id="Line_298" data-name="Line 298" y1="10.795" transform="translate(-1453.432 -292.535)" fill="none" stroke="#0561fc" stroke-linecap="round" stroke-linejoin="round" stroke-width="3"/>
    <line id="Line_299" data-name="Line 299" x2="6.153" transform="translate(-1466.078 -307.214)" fill="none" stroke="#0561fc" stroke-linecap="round" stroke-linejoin="round" stroke-width="3"/>
    <line id="Line_300" data-name="Line 300" y2="4.204" transform="translate(-1442.131 -315.647)" fill="none" stroke="#0561fc" stroke-linecap="round" stroke-linejoin="round" stroke-width="3"/>
    <line id="Line_301" data-name="Line 301" x2="4.802" y2="5.901" transform="translate(-1433.358 -357.004)" fill="none" stroke="#0561fc" stroke-linecap="round" stroke-linejoin="round" stroke-width="3"/>
    <path id="Path_673" data-name="Path 673" d="M-1565.38-293.91s7.4,8.754,16.516,7.223" transform="translate(63.811 -56.95)" fill="none" stroke="#0561fc" stroke-linecap="round" stroke-linejoin="round" stroke-width="3"/>
  </g>
</svg>
