<svg xmlns="http://www.w3.org/2000/svg" width="33.25" height="33.69" viewBox="0 0 33.25 33.69">
  <g id="Group_82848" data-name="Group 82848" transform="translate(-13.301 -12.83)">
    <path id="Path_2083" data-name="Path 2083" d="M41.64,17.83a16.73,16.73,0,0,0-11.9-5h0a16.85,16.85,0,0,0,0,33.69h0A16.88,16.88,0,0,0,46.55,29.77a16.69,16.69,0,0,0-4.91-11.94Zm-.85,22.94a15.64,15.64,0,0,1-11.08,4.59h0a15.67,15.67,0,0,1,0-31.33h0a15.67,15.67,0,0,1,11.1,26.74Z"/>
    <path id="Path_2084" data-name="Path 2084" d="M36.1,29l-.7-.45c-2.83-1.83-5.76-3.71-8.66-5.55a1.49,1.49,0,0,0-.66-.21.3.3,0,0,0-.15,0,1.18,1.18,0,0,0-.34.84V35.59a1.1,1.1,0,0,0,.32.83,1.13,1.13,0,0,0,.88-.19c2.81-1.77,5.65-3.6,8.4-5.37l.9-.59c.37-.23.56-.46.56-.67S36.47,29.26,36.1,29Zm-9.31,6V24.43L35,29.69Z"/>
  </g>
</svg>
