<svg xmlns="http://www.w3.org/2000/svg" width="102.426" height="102.667" viewBox="0 0 102.426 102.667">
  <g id="Layer_17" transform="translate(1159.4 -431.5)">
    <path id="Path_991" data-name="Path 991" d="M-1065.825,532.426h-84.724a7.353,7.353,0,0,1-7.351-7.351V440.351a7.353,7.353,0,0,1,7.351-7.351h84.724a7.353,7.353,0,0,1,7.351,7.351v84.724A7.35,7.35,0,0,1-1065.825,532.426Z" transform="translate(0)" fill="none" stroke="#fff" stroke-linecap="round" stroke-linejoin="round" stroke-width="3"/>
    <line id="Line_463" data-name="Line 463" x2="99.421" transform="translate(-1157.895 459.256)" fill="none" stroke="#fff" stroke-linecap="round" stroke-linejoin="round" stroke-width="3"/>
    <circle id="Ellipse_195" data-name="Ellipse 195" cx="4.088" cy="4.088" r="4.088" transform="translate(-1099.014 441.75)" fill="none" stroke="#fff" stroke-linecap="round" stroke-linejoin="round" stroke-width="3"/>
    <circle id="Ellipse_196" data-name="Ellipse 196" cx="4.088" cy="4.088" r="4.088" transform="translate(-1085.571 441.75)" fill="none" stroke="#fff" stroke-linecap="round" stroke-linejoin="round" stroke-width="3"/>
    <circle id="Ellipse_197" data-name="Ellipse 197" cx="4.088" cy="4.088" r="4.088" transform="translate(-1072.582 441.75)" fill="none" stroke="#fff" stroke-linecap="round" stroke-linejoin="round" stroke-width="3"/>
    <path id="Path_992" data-name="Path 992" d="M-1126.841,517.408s12.053,1.505,17.269-6.142c2.784,2.784,7.386,7.769,17.022,5.216-.246-6.087,3.092-19.937-16.212-19.414C-1108.762,497.068-1129.681,492.778-1126.841,517.408Z" transform="translate(-15.29 -31.669)" fill="none" stroke="#fff" stroke-linecap="round" stroke-linejoin="round" stroke-width="3"/>
    <path id="Path_993" data-name="Path 993" d="M-1118.291,537.547s-1.042,8.287,1.274,12.169,5.276,6.9,12.229,7.3,11.474-5.161,12.632-10.492a20.626,20.626,0,0,0,0-9.3" transform="translate(-19.551 -51.748)" fill="none" stroke="#fff" stroke-linecap="round" stroke-linejoin="round" stroke-width="3"/>
    <path id="Path_994" data-name="Path 994" d="M-1063.41,536.4s3.706-.337,3.852,2.24c.131,2.291.871,6.057-.841,7.129-1.183.74-5.9.665-5.9.665" transform="translate(-45.482 -51.332)" fill="none" stroke="#fff" stroke-linecap="round" stroke-linejoin="round" stroke-width="3"/>
    <path id="Path_995" data-name="Path 995" d="M-1127.546,538.006s-3.706-.337-3.852,2.24c-.131,2.291-.871,6.057.841,7.129,1.183.74,5.9.665,5.9.665" transform="translate(-13.025 -52.131)" fill="none" stroke="#fff" stroke-linecap="round" stroke-linejoin="round" stroke-width="3"/>
    <path id="Path_996" data-name="Path 996" d="M-1075.718,556.05v4.768h-16.992" transform="translate(-32.369 -61.098)" fill="none" stroke="#fff" stroke-linecap="round" stroke-linejoin="round" stroke-width="3"/>
    <path id="Path_997" data-name="Path 997" d="M-1105.42,572.77v6.394l6.842,8.6,6.208-7.5V573.42" transform="translate(-26.058 -69.4)" fill="none" stroke="#fff" stroke-linecap="round" stroke-linejoin="round" stroke-width="3"/>
    <path id="Path_998" data-name="Path 998" d="M-1115.07,587.67l3.474,12.365,8.227-4.869,8.051,4.869,2.849-11.56" transform="translate(-21.266 -76.798)" fill="none" stroke="#fff" stroke-linecap="round" stroke-linejoin="round" stroke-width="3"/>
    <path id="Path_999" data-name="Path 999" d="M-1141.339,608.131s-3.786-21.1,17.959-22.661" transform="translate(-8.098 -75.706)" fill="none" stroke="#fff" stroke-linecap="round" stroke-linejoin="round" stroke-width="3"/>
    <path id="Path_1000" data-name="Path 1000" d="M-1060.9,608.628s2.87-22.923-18.6-22.138" transform="translate(-38.928 -76.202)" fill="none" stroke="#fff" stroke-linecap="round" stroke-linejoin="round" stroke-width="3"/>
    <path id="Path_1001" data-name="Path 1001" d="M-1005.893,502.871V524.1l-6.162-4.008h-24.494a2.3,2.3,0,0,1-2.3-2.3V502.871a2.3,2.3,0,0,1,2.3-2.3h28.356A2.3,2.3,0,0,1-1005.893,502.871Z" transform="translate(-59.112 -33.55)" fill="#fff"/>
    <line id="Line_464" data-name="Line 464" x2="8.695" transform="translate(-1151.813 445.839)" fill="none" stroke="#fff" stroke-linecap="round" stroke-linejoin="round" stroke-width="3"/>
    <line id="Line_465" data-name="Line 465" x2="18.664" transform="translate(-1130.254 445.839)" fill="none" stroke="#fff" stroke-linecap="round" stroke-linejoin="round" stroke-width="3"/>
    <circle id="Ellipse_198" data-name="Ellipse 198" cx="4.088" cy="4.088" r="4.088" transform="translate(-1092 472.669)" fill="none" stroke="#182ac3" stroke-linecap="round" stroke-linejoin="round" stroke-width="3"/>
    <circle id="Ellipse_199" data-name="Ellipse 199" cx="4.088" cy="4.088" r="4.088" transform="translate(-1078.618 472.669)" fill="none" stroke="#182ac3" stroke-linecap="round" stroke-linejoin="round" stroke-width="3"/>
    <circle id="Ellipse_200" data-name="Ellipse 200" cx="14.601" cy="14.601" r="14.601" transform="translate(-1094.926 497.349)" fill="none" stroke="#fff" stroke-linecap="round" stroke-linejoin="round" stroke-width="3"/>
    <path id="Path_1002" data-name="Path 1002" d="M-1032.82,588.214s18.216,6.913,29.206-.544" transform="translate(-62.106 -76.798)" fill="none" stroke="#fff" stroke-linecap="round" stroke-linejoin="round" stroke-width="3"/>
    <path id="Path_1003" data-name="Path 1003" d="M-1011.581,590V560.8C-1011.581,560.805-1029.288,574.7-1011.581,590Z" transform="translate(-68.744 -63.456)" fill="none" stroke="#fff" stroke-linecap="round" stroke-linejoin="round" stroke-width="3"/>
    <path id="Path_1004" data-name="Path 1004" d="M-1003.82,560.81s16.2,13.951,0,29.2" transform="translate(-76.505 -63.461)" fill="none" stroke="#fff" stroke-linecap="round" stroke-linejoin="round" stroke-width="3"/>
  </g>
</svg>
