<svg xmlns="http://www.w3.org/2000/svg" width="109.314" height="125.612" viewBox="0 0 109.314 125.612">
  <g id="Layer_12" transform="translate(3188.17 -402.13)">
    <rect id="Rectangle_212" data-name="Rectangle 212" width="10.741" height="20.708" transform="translate(-3151.25 477.369)" fill="#fff"/>
    <path id="Path_846" data-name="Path 846" d="M-3003.18,608.35" transform="translate(-85.433 -95.55)" fill="none" stroke="#0561fc" stroke-linecap="round" stroke-linejoin="round" stroke-width="4"/>
    <path id="Path_847" data-name="Path 847" d="M-3088.613,540.624h-98.057V462.89h98.057v61.232" transform="translate(0 -27.824)" fill="none" stroke="#fff" stroke-linecap="round" stroke-linejoin="round" stroke-width="3"/>
    <path id="Path_848" data-name="Path 848" d="M-3003.23,577.47a8.308,8.308,0,0,1,8.283,8.283,8.3,8.3,0,0,1-8.262,8.219" transform="translate(-85.41 -81.173)" fill="none" stroke="#fff" stroke-linecap="round" stroke-linejoin="round" stroke-width="3"/>
    <path id="Path_849" data-name="Path 849" d="M-2994.956,527.1V457.42s.636-7.925-8.224-7.439v6.888" transform="translate(-85.433 -21.804)" fill="none" stroke="#fff" stroke-linecap="round" stroke-linejoin="round" stroke-width="3"/>
    <path id="Path_850" data-name="Path 850" d="M-3149.18,536.419h38.605V504.371l-18.891-18.891-19.42,19.415Z" transform="translate(-17.455 -38.342)" fill="none" stroke="#fff" stroke-linecap="round" stroke-linejoin="round" stroke-width="3"/>
    <g id="Group_82644" data-name="Group 82644" transform="translate(-3178.061 480.634)">
      <path id="Path_851" data-name="Path 851" d="M-3170.56,548.16v45.2h45.718Z" transform="translate(3170.56 -548.16)" fill="#182ac3" stroke="#fff" stroke-linecap="round" stroke-linejoin="round" stroke-width="3"/>
      <path id="Path_852" data-name="Path 852" d="M-3157.79,579.01v20.564H-3137Z" transform="translate(3164.614 -562.524)" fill="#fff" stroke="#fff" stroke-linecap="round" stroke-linejoin="round" stroke-width="3"/>
      <line id="Line_382" data-name="Line 382" y2="2.18" transform="translate(4.532 43.019)" fill="none" stroke="#fff" stroke-linecap="round" stroke-linejoin="round" stroke-width="3"/>
      <line id="Line_383" data-name="Line 383" y2="2.18" transform="translate(10.159 43.019)" fill="none" stroke="#fff" stroke-linecap="round" stroke-linejoin="round" stroke-width="3"/>
      <line id="Line_384" data-name="Line 384" y2="2.18" transform="translate(15.626 43.019)" fill="none" stroke="#fff" stroke-linecap="round" stroke-linejoin="round" stroke-width="3"/>
      <line id="Line_385" data-name="Line 385" y2="2.18" transform="translate(20.788 43.019)" fill="none" stroke="#fff" stroke-linecap="round" stroke-linejoin="round" stroke-width="3"/>
      <line id="Line_386" data-name="Line 386" y2="2.18" transform="translate(25.87 43.019)" fill="none" stroke="#fff" stroke-linecap="round" stroke-linejoin="round" stroke-width="3"/>
      <line id="Line_387" data-name="Line 387" y2="2.18" transform="translate(30.728 43.019)" fill="none" stroke="#fff" stroke-linecap="round" stroke-linejoin="round" stroke-width="3"/>
      <line id="Line_388" data-name="Line 388" y2="2.18" transform="translate(36.387 43.019)" fill="none" stroke="#fff" stroke-linecap="round" stroke-linejoin="round" stroke-width="3"/>
      <line id="Line_389" data-name="Line 389" x1="2.18" transform="translate(0 7.738)" fill="none" stroke="#fff" stroke-linecap="round" stroke-linejoin="round" stroke-width="3"/>
      <line id="Line_390" data-name="Line 390" x1="2.18" transform="translate(0 13.365)" fill="none" stroke="#fff" stroke-linecap="round" stroke-linejoin="round" stroke-width="3"/>
      <line id="Line_391" data-name="Line 391" x1="2.18" transform="translate(0 18.832)" fill="none" stroke="#fff" stroke-linecap="round" stroke-linejoin="round" stroke-width="3"/>
      <line id="Line_392" data-name="Line 392" x1="2.18" transform="translate(0 23.995)" fill="none" stroke="#fff" stroke-linecap="round" stroke-linejoin="round" stroke-width="3"/>
      <line id="Line_393" data-name="Line 393" x1="2.18" transform="translate(0 29.077)" fill="none" stroke="#fff" stroke-linecap="round" stroke-linejoin="round" stroke-width="3"/>
      <line id="Line_394" data-name="Line 394" x1="2.18" transform="translate(0 33.934)" fill="none" stroke="#fff" stroke-linecap="round" stroke-linejoin="round" stroke-width="3"/>
      <line id="Line_395" data-name="Line 395" x1="2.18" transform="translate(0 39.594)" fill="none" stroke="#fff" stroke-linecap="round" stroke-linejoin="round" stroke-width="3"/>
    </g>
    <g id="Group_82645" data-name="Group 82645" transform="translate(-3141.294 445.54)">
      <line id="Line_396" data-name="Line 396" y1="1.571" x2="1.512" transform="translate(0 0)" fill="none" stroke="#fff" stroke-linecap="round" stroke-linejoin="round" stroke-width="3"/>
      <line id="Line_397" data-name="Line 397" y1="1.571" x2="1.512" transform="translate(4.927 4.489)" fill="none" stroke="#fff" stroke-linecap="round" stroke-linejoin="round" stroke-width="3"/>
      <line id="Line_398" data-name="Line 398" y1="1.566" x2="1.512" transform="translate(9.635 9.416)" fill="none" stroke="#fff" stroke-linecap="round" stroke-linejoin="round" stroke-width="3"/>
      <line id="Line_399" data-name="Line 399" y1="1.571" x2="1.512" transform="translate(14.343 14.194)" fill="none" stroke="#fff" stroke-linecap="round" stroke-linejoin="round" stroke-width="3"/>
    </g>
    <g id="Group_82646" data-name="Group 82646" transform="translate(-3167.699 444.701)">
      <line id="Line_400" data-name="Line 400" x1="1.571" y1="1.512" transform="translate(0 14.343)" fill="none" stroke="#fff" stroke-linecap="round" stroke-linejoin="round" stroke-width="3"/>
      <line id="Line_401" data-name="Line 401" x1="1.571" y1="1.512" transform="translate(4.489 9.416)" fill="none" stroke="#fff" stroke-linecap="round" stroke-linejoin="round" stroke-width="3"/>
      <line id="Line_402" data-name="Line 402" x1="1.571" y1="1.512" transform="translate(9.416 4.708)" fill="none" stroke="#fff" stroke-linecap="round" stroke-linejoin="round" stroke-width="3"/>
      <line id="Line_403" data-name="Line 403" x1="1.571" y1="1.512" transform="translate(14.194)" fill="none" stroke="#fff" stroke-linecap="round" stroke-linejoin="round" stroke-width="3"/>
    </g>
    <line id="Line_404" data-name="Line 404" x2="25.026" transform="translate(-3117.764 458.916)" fill="none" stroke="#fff" stroke-linecap="round" stroke-linejoin="round" stroke-width="3"/>
    <line id="Line_408" data-name="Line 408" x2="8.668" transform="translate(-3118.096 464.436)" fill="none" stroke="#fff" stroke-linecap="round" stroke-linejoin="round" stroke-width="3"/>
    <line id="Line_409" data-name="Line 409" x2="8.668" transform="translate(-3103.357 464.436)" fill="none" stroke="#fff" stroke-linecap="round" stroke-linejoin="round" stroke-width="3"/>
    <line id="Line_410" data-name="Line 410" x2="8.668" transform="translate(-3118.096 469.957)" fill="none" stroke="#fff" stroke-linecap="round" stroke-linejoin="round" stroke-width="3"/>
    <line id="Line_411" data-name="Line 411" x2="8.668" transform="translate(-3103.357 469.957)" fill="none" stroke="#fff" stroke-linecap="round" stroke-linejoin="round" stroke-width="3"/>
    <rect id="Rectangle_213" data-name="Rectangle 213" width="25.363" height="3.707" transform="translate(-3118.096 448.213)" fill="#fff"/>
    <rect id="Rectangle_214" data-name="Rectangle 214" width="25.363" height="5.707" transform="translate(-3118.096 477.775)" fill="#fff"/>
    <circle id="Ellipse_140" data-name="Ellipse 140" cx="3.212" cy="3.212" r="3.212" transform="translate(-3149.359 460.279)" fill="#fff"/>
    <g id="Group_82647" data-name="Group 82647" transform="translate(-3132.604 403.13)">
      <circle id="Ellipse_141" data-name="Ellipse 141" cx="4.377" cy="4.377" r="4.377" transform="translate(14.835 9.063)" fill="#182ac3" stroke="#fff" stroke-linecap="round" stroke-linejoin="round" stroke-width="2"/>
      <path id="Path_853" data-name="Path 853" d="M-3055.42,413.091v-6.728s.743-3.233,2.992-3.233c2.41,0,2.993,3.442,2.993,3.442v6.514" transform="translate(3071.495 -403.13)" fill="none" stroke="#fff" stroke-linecap="round" stroke-linejoin="round" stroke-width="2"/>
      <path id="Path_854" data-name="Path 854" d="M-3066.337,433.633l-12.548,21.381a3,3,0,0,1-3.5-1.112l13.408-22.953A4.132,4.132,0,0,0-3066.337,433.633Z" transform="translate(3084.048 -416.083)" fill="#182ac3" stroke="#fff" stroke-linecap="round" stroke-linejoin="round" stroke-width="2"/>
      <path id="Path_855" data-name="Path 855" d="M-3046.84,434.1l12.078,21.649a3,3,0,0,0,3.517-1.037l-12.906-23.241A5.622,5.622,0,0,1-3046.84,434.1Z" transform="translate(3067.5 -416.325)" fill="#182ac3" stroke="#fff" stroke-linecap="round" stroke-linejoin="round" stroke-width="2"/>
      <line id="Line_412" data-name="Line 412" x1="2.672" y2="4.115" transform="translate(0 39.107)" fill="none" stroke="#fff" stroke-linecap="round" stroke-linejoin="round" stroke-width="2"/>
      <line id="Line_413" data-name="Line 413" x2="2.538" y2="4.361" transform="translate(35.142 39.62)" fill="none" stroke="#fff" stroke-linecap="round" stroke-linejoin="round" stroke-width="2"/>
      <line id="Line_414" data-name="Line 414" x1="4.168" transform="translate(4.366 26.057)" fill="none" stroke="#fff" stroke-linecap="round" stroke-linejoin="round" stroke-width="2"/>
      <line id="Line_415" data-name="Line 415" x2="12.366" transform="translate(12.713 26.057)" fill="none" stroke="#fff" stroke-linecap="round" stroke-linejoin="round" stroke-width="2"/>
      <line id="Line_416" data-name="Line 416" x2="4.772" transform="translate(29.413 26.057)" fill="none" stroke="#fff" stroke-linecap="round" stroke-linejoin="round" stroke-width="2"/>
      <path id="Path_856" data-name="Path 856" d="M-3050.219,452.3h-.957a.846.846,0,0,1-.844-.844v-6.605a.846.846,0,0,1,.844-.844h.957a.846.846,0,0,1,.844.844v6.605A.849.849,0,0,1-3050.219,452.3Z" transform="translate(3069.912 -422.164)" fill="#182ac3" stroke="#fff" stroke-linecap="round" stroke-linejoin="round" stroke-width="1"/>
    </g>
    <g id="Group_82648" data-name="Group 82648" transform="translate(-3185.441 423.099)">
      <rect id="Rectangle_215" data-name="Rectangle 215" width="8.951" height="37.766" transform="translate(37.766) rotate(90)" fill="#182ac3" stroke="#fff" stroke-linecap="round" stroke-linejoin="round" stroke-width="2"/>
      <line id="Line_417" data-name="Line 417" x1="37.766" transform="translate(0 4.474)" fill="#c5e1f9" stroke="#fff" stroke-linecap="round" stroke-linejoin="round" stroke-width="2"/>
      <path id="Path_857" data-name="Path 857" d="M-3113.7,449.451l8.732-4.478-8.732-4.473Z" transform="translate(3151.466 -440.499)" fill="#182ac3" stroke="#fff" stroke-linecap="round" stroke-linejoin="round" stroke-width="2"/>
      <line id="Line_418" data-name="Line 418" x2="3.222" transform="translate(46.498 4.474)" fill="#c5e1f9" stroke="#fff" stroke-linecap="round" stroke-linejoin="round" stroke-width="2"/>
    </g>
    <g id="Group_82649" data-name="Group 82649" transform="translate(-3123.06 490.424)">
      <path id="Path_858" data-name="Path 858" d="M-3039.21,602.8h-25.945a2.484,2.484,0,0,1-2.485-2.485V568.965a2.484,2.484,0,0,1,2.485-2.485h25.945a2.483,2.483,0,0,1,2.485,2.485v31.348A2.487,2.487,0,0,1-3039.21,602.8Z" transform="translate(3067.64 -566.48)" fill="#fff" stroke="#182ac3" stroke-linecap="round" stroke-linejoin="round" stroke-width="2"/>
      <rect id="Rectangle_216" data-name="Rectangle 216" width="24.673" height="8.892" transform="translate(3.281 3.388)" fill="#182ac3"/>
      <rect id="Rectangle_217" data-name="Rectangle 217" width="5.542" height="5.542" transform="translate(3.281 14.44)" fill="#182ac3"/>
      <rect id="Rectangle_218" data-name="Rectangle 218" width="5.542" height="5.542" transform="translate(12.932 14.44)" fill="#182ac3"/>
      <rect id="Rectangle_219" data-name="Rectangle 219" width="5.542" height="5.542" transform="translate(22.236 14.44)" fill="#182ac3"/>
      <rect id="Rectangle_220" data-name="Rectangle 220" width="5.542" height="5.542" transform="translate(3.281 24.24)" fill="#182ac3"/>
      <rect id="Rectangle_221" data-name="Rectangle 221" width="14.84" height="5.542" transform="translate(12.932 24.24)" fill="#182ac3"/>
    </g>
  </g>
</svg>
