<svg xmlns="http://www.w3.org/2000/svg" width="140.416" height="117.002" viewBox="0 0 140.416 117.002">
  <g id="Layer_15" transform="translate(1986.117 -457.657)">
    <rect id="Rectangle_225" data-name="Rectangle 225" width="101.132" height="73.49" transform="translate(-1966.009 470.131)" fill="none" stroke="#fff" stroke-linecap="round" stroke-linejoin="round" stroke-width="3"/>
    <path id="Path_882" data-name="Path 882" d="M-1856.59,557.838h-103.937a4.813,4.813,0,0,1-4.814-4.814v-79.55a4.813,4.813,0,0,1,4.814-4.814h103.937a4.813,4.813,0,0,1,4.814,4.814v79.55A4.813,4.813,0,0,1-1856.59,557.838Z" transform="translate(-7.001 -3.708)" fill="none" stroke="#fff" stroke-linecap="round" stroke-linejoin="round" stroke-width="3"/>
    <path id="Path_883" data-name="Path 883" d="M-1875.5,621.24h-27.383a5.968,5.968,0,0,0-5.967,5.967v1.074h39.318v-1.074A5.968,5.968,0,0,0-1875.5,621.24Z" transform="translate(-26.036 -55.122)" fill="none" stroke="#fff" stroke-linecap="round" stroke-linejoin="round" stroke-width="3"/>
    <line id="Line_428" data-name="Line 428" y2="11.988" transform="translate(-1928.163 554.13)" fill="none" stroke="#fff" stroke-linecap="round" stroke-linejoin="round" stroke-width="3"/>
    <line id="Line_429" data-name="Line 429" y2="11.358" transform="translate(-1902.716 554.13)" fill="none" stroke="#fff" stroke-linecap="round" stroke-linejoin="round" stroke-width="3"/>
    <path id="Path_885" data-name="Path 885" d="M-1829.8,499.776c-.1-.743-.345-1.127-.862-1.24a2.082,2.082,0,0,1-1.691-2.831,1,1,0,0,0-.345-1.154,8.08,8.08,0,0,0-2.089-1.227.967.967,0,0,0-1.319.272,2.028,2.028,0,0,1-1,.656,2.1,2.1,0,0,1-2.241-.643.984.984,0,0,0-1.353-.285,7.793,7.793,0,0,0-1.843,1.048.972.972,0,0,0-.391,1.286,2.106,2.106,0,0,1-1.757,2.8.955.955,0,0,0-.875.769,6.321,6.321,0,0,0-.06,2.685.936.936,0,0,0,.928.882,2.105,2.105,0,0,1,1.651,2.937.927.927,0,0,0,.305,1.213,8.137,8.137,0,0,0,2.082,1.233.97.97,0,0,0,1.313-.312,2.211,2.211,0,0,1,.742-.637,2.082,2.082,0,0,1,2.526.464c.252.265.484.577.915.524a1.221,1.221,0,0,0,.338-.046,7.909,7.909,0,0,0,2.108-1.26.89.89,0,0,0,.305-1.147,2.123,2.123,0,0,1,1.664-2.884.973.973,0,0,0,.862-.869A7.068,7.068,0,0,0-1829.8,499.776Zm-7.95,3.64a2.69,2.69,0,0,1-2.685-2.659,2.758,2.758,0,0,1,2.738-2.705,2.762,2.762,0,0,1,2.646,2.718A2.686,2.686,0,0,1-1837.753,503.416Z" transform="translate(-47.3 -11.969)" fill="#fff"/>
    <path id="Path_886" data-name="Path 886" d="M-1967.017,465.562c-.113-.888-.418-1.346-1.034-1.485a2.5,2.5,0,0,1-2.029-3.395,1.193,1.193,0,0,0-.411-1.379,9.806,9.806,0,0,0-2.5-1.472,1.164,1.164,0,0,0-1.585.325,2.436,2.436,0,0,1-1.2.789,2.527,2.527,0,0,1-2.685-.769,1.171,1.171,0,0,0-1.618-.338,9.356,9.356,0,0,0-2.215,1.253,1.162,1.162,0,0,0-.464,1.545,2.521,2.521,0,0,1-2.1,3.362,1.132,1.132,0,0,0-1.048.922,7.731,7.731,0,0,0-.073,3.216,1.134,1.134,0,0,0,1.114,1.061,2.524,2.524,0,0,1,1.982,3.521,1.106,1.106,0,0,0,.365,1.452,9.676,9.676,0,0,0,2.493,1.479,1.155,1.155,0,0,0,1.571-.378,2.723,2.723,0,0,1,.888-.762,2.5,2.5,0,0,1,3.03.557c.305.318.577.69,1.094.63a1.313,1.313,0,0,0,.411-.06,9.292,9.292,0,0,0,2.526-1.512,1.068,1.068,0,0,0,.365-1.379,2.54,2.54,0,0,1,2-3.454,1.165,1.165,0,0,0,1.034-1.041A8.7,8.7,0,0,0-1967.017,465.562Zm-9.528,4.363a3.222,3.222,0,0,1-3.216-3.189,3.308,3.308,0,0,1,3.282-3.242,3.308,3.308,0,0,1,3.17,3.255A3.223,3.223,0,0,1-1976.545,469.925Z" fill="#fff"/>
    <g id="Group_82654" data-name="Group 82654" transform="translate(-1886.194 510.967)">
      <ellipse id="Ellipse_157" data-name="Ellipse 157" cx="3.149" cy="3.017" rx="3.149" ry="3.017" transform="translate(17.928 52.452)" fill="#c5e1f9"/>
      <path id="Path_887" data-name="Path 887" d="M-1801.39,599.821h-29.048a4.975,4.975,0,0,1-4.973-4.973V543.033a4.975,4.975,0,0,1,4.973-4.973h29.048a4.974,4.974,0,0,1,4.973,4.973v51.816A4.975,4.975,0,0,1-1801.39,599.821Z" transform="translate(1835.41 -538.06)" fill="#fff"/>
      <ellipse id="Ellipse_158" data-name="Ellipse 158" cx="3.149" cy="3.017" rx="3.149" ry="3.017" transform="translate(16.344 52.452)" fill="none" stroke="#182ac3" stroke-linecap="round" stroke-linejoin="round" stroke-width="3"/>
      <line id="Line_430" data-name="Line 430" x1="38.993" transform="translate(0 49.654)" fill="none" stroke="#182ac3" stroke-linecap="round" stroke-linejoin="round" stroke-width="3"/>
      <line id="Line_431" data-name="Line 431" x1="38.993" transform="translate(0 14.653)" fill="none" stroke="#182ac3" stroke-linecap="round" stroke-linejoin="round" stroke-width="3"/>
      <line id="Line_432" data-name="Line 432" x2="10.012" transform="translate(14.613 7.512)" fill="none" stroke="#182ac3" stroke-linecap="round" stroke-linejoin="round" stroke-width="4"/>
      <path id="Path_889" data-name="Path 889" d="M-1808.03,591.959c-.65.073-.988-.385-1.366-.782a3.1,3.1,0,0,0-3.766-.7,3.411,3.411,0,0,0-1.107.955,1.448,1.448,0,0,1-1.956.471,11.723,11.723,0,0,1-3.1-1.837,1.378,1.378,0,0,1-.458-1.8,3.137,3.137,0,0,0-2.466-4.376,1.409,1.409,0,0,1-1.386-1.32,9.525,9.525,0,0,1,.086-3.991,1.42,1.42,0,0,1,1.306-1.154,3.135,3.135,0,0,0,2.619-4.177,1.459,1.459,0,0,1,.577-1.923,11.377,11.377,0,0,1,2.751-1.558,1.466,1.466,0,0,1,2.016.424,3.161,3.161,0,0,0,3.342.961,3.046,3.046,0,0,0,1.492-.981,1.448,1.448,0,0,1,1.969-.4,12.337,12.337,0,0,1,3.11,1.83,1.476,1.476,0,0,1,.51,1.717,3.1,3.1,0,0,0,2.52,4.217c.776.166,1.147.736,1.293,1.843a10.945,10.945,0,0,1-.106,3.322,1.454,1.454,0,0,1-1.286,1.3,3.162,3.162,0,0,0-2.486,4.3,1.328,1.328,0,0,1-.458,1.717,11.624,11.624,0,0,1-3.143,1.876A1.525,1.525,0,0,1-1808.03,591.959Zm-3.859-7.154a4.019,4.019,0,0,0,4.025-3.945,4.12,4.12,0,0,0-3.945-4.051,4.1,4.1,0,0,0-4.078,4.031A4,4,0,0,0-1811.889,584.8Z" transform="translate(1831.502 -548.67)" fill="none" stroke="#182ac3" stroke-linecap="round" stroke-linejoin="round" stroke-width="3"/>
    </g>
    <g id="Group_82656" data-name="Group 82656" transform="translate(-1960.592 476.244)">
      <g id="Group_82655" data-name="Group 82655">
        <path id="Path_891" data-name="Path 891" d="M-1897.79,539.578h-19.281a5.1,5.1,0,0,1-5.1-5.1V515.2a5.1,5.1,0,0,1,5.1-5.1h19.281a5.1,5.1,0,0,1,5.1,5.1V534.48A5.1,5.1,0,0,1-1897.79,539.578Z" transform="translate(1939.044 -493.915)" fill="none" stroke="#fff" stroke-linecap="round" stroke-linejoin="round" stroke-width="3"/>
        <path id="Path_892" data-name="Path 892" d="M-1914.064,503.5v-6.518l-6.206-6.451" transform="translate(1938.404 -487.321)" fill="none" stroke="#fff" stroke-linecap="round" stroke-linejoin="round" stroke-width="3"/>
        <path id="Path_893" data-name="Path 893" d="M-1888.86,503.657v-6.484l6.2-6.173" transform="translate(1927.82 -487.479)" fill="none" stroke="#fff" stroke-linecap="round" stroke-linejoin="round" stroke-width="3"/>
        <path id="Path_894" data-name="Path 894" d="M-1877.71,518.938h6.591l5.947-5.888" transform="translate(1924.063 -494.909)" fill="none" stroke="#fff" stroke-linecap="round" stroke-linejoin="round" stroke-width="3"/>
        <line id="Line_433" data-name="Line 433" x2="12.094" transform="translate(46.352 31.242)" fill="none" stroke="#fff" stroke-linecap="round" stroke-linejoin="round" stroke-width="3"/>
        <path id="Path_895" data-name="Path 895" d="M-1877.71,543.98h6.591l6.034,5.908" transform="translate(1924.063 -505.332)" fill="none" stroke="#fff" stroke-linecap="round" stroke-linejoin="round" stroke-width="3"/>
        <path id="Path_896" data-name="Path 896" d="M-1888.77,554.56v6.849l6.266,6.458" transform="translate(1927.789 -508.897)" fill="none" stroke="#fff" stroke-linecap="round" stroke-linejoin="round" stroke-width="3"/>
        <line id="Line_434" data-name="Line 434" y2="12.77" transform="translate(31.613 45.663)" fill="none" stroke="#fff" stroke-linecap="round" stroke-linejoin="round" stroke-width="3"/>
        <path id="Path_897" data-name="Path 897" d="M-1913.84,554.56v6.564l-6.77,6.65" transform="translate(1938.518 -508.897)" fill="none" stroke="#fff" stroke-linecap="round" stroke-linejoin="round" stroke-width="3"/>
        <path id="Path_898" data-name="Path 898" d="M-1928.839,543.62h-6.71l-6.392,6.458" transform="translate(1945.706 -505.211)" fill="none" stroke="#fff" stroke-linecap="round" stroke-linejoin="round" stroke-width="3"/>
        <line id="Line_435" data-name="Line 435" x1="12.783" transform="translate(4.084 31.242)" fill="none" stroke="#fff" stroke-linecap="round" stroke-linejoin="round" stroke-width="3"/>
        <path id="Path_899" data-name="Path 899" d="M-1928.839,518.618h-6.551l-6.551-6.518" transform="translate(1945.706 -494.589)" fill="none" stroke="#fff" stroke-linecap="round" stroke-linejoin="round" stroke-width="3"/>
        <circle id="Ellipse_159" data-name="Ellipse 159" cx="2.042" cy="2.042" r="2.042" transform="translate(14.414 0.007)" fill="none" stroke="#fff" stroke-linecap="round" stroke-linejoin="round" stroke-width="3"/>
        <circle id="Ellipse_160" data-name="Ellipse 160" cx="2.042" cy="2.042" r="2.042" transform="translate(29.604 0.007)" fill="none" stroke="#fff" stroke-linecap="round" stroke-linejoin="round" stroke-width="3"/>
        <circle id="Ellipse_161" data-name="Ellipse 161" cx="2.042" cy="2.042" r="2.042" transform="translate(44.549)" fill="none" stroke="#fff" stroke-linecap="round" stroke-linejoin="round" stroke-width="3"/>
        <circle id="Ellipse_162" data-name="Ellipse 162" cx="2.042" cy="2.042" r="2.042" transform="translate(58.446 14.401)" fill="none" stroke="#fff" stroke-linecap="round" stroke-linejoin="round" stroke-width="3"/>
        <circle id="Ellipse_163" data-name="Ellipse 163" cx="2.042" cy="2.042" r="2.042" transform="translate(58.446 29.2)" fill="none" stroke="#fff" stroke-linecap="round" stroke-linejoin="round" stroke-width="3"/>
        <circle id="Ellipse_164" data-name="Ellipse 164" cx="2.042" cy="2.042" r="2.042" transform="translate(58.446 43.886)" fill="none" stroke="#fff" stroke-linecap="round" stroke-linejoin="round" stroke-width="3"/>
        <circle id="Ellipse_165" data-name="Ellipse 165" cx="2.042" cy="2.042" r="2.042" transform="translate(0 14.401)" fill="none" stroke="#fff" stroke-linecap="round" stroke-linejoin="round" stroke-width="3"/>
        <circle id="Ellipse_166" data-name="Ellipse 166" cx="2.042" cy="2.042" r="2.042" transform="translate(0 29.2)" fill="none" stroke="#fff" stroke-linecap="round" stroke-linejoin="round" stroke-width="3"/>
        <circle id="Ellipse_167" data-name="Ellipse 167" cx="2.042" cy="2.042" r="2.042" transform="translate(0.133 44.178)" fill="none" stroke="#fff" stroke-linecap="round" stroke-linejoin="round" stroke-width="3"/>
        <circle id="Ellipse_168" data-name="Ellipse 168" cx="2.042" cy="2.042" r="2.042" transform="translate(44.595 58.433)" fill="none" stroke="#fff" stroke-linecap="round" stroke-linejoin="round" stroke-width="3"/>
        <circle id="Ellipse_169" data-name="Ellipse 169" cx="2.042" cy="2.042" r="2.042" transform="translate(29.571 58.433)" fill="none" stroke="#fff" stroke-linecap="round" stroke-linejoin="round" stroke-width="3"/>
        <circle id="Ellipse_170" data-name="Ellipse 170" cx="2.042" cy="2.042" r="2.042" transform="translate(14.481 58.433)" fill="none" stroke="#fff" stroke-linecap="round" stroke-linejoin="round" stroke-width="3"/>
      </g>
      <line id="Line_436" data-name="Line 436" y1="12.087" transform="translate(31.646 4.091)" fill="none" stroke="#fff" stroke-linecap="round" stroke-linejoin="round" stroke-width="3"/>
    </g>
  </g>
</svg>
