<svg xmlns="http://www.w3.org/2000/svg" width="125.913" height="115.396" viewBox="0 0 125.913 115.396">
  <g id="Layer_14" transform="translate(2428.5 -440.3)">
    <rect id="Rectangle_224" data-name="Rectangle 224" width="103.243" height="103.143" transform="translate(-2427 441.8)" fill="none" stroke="#fff" stroke-linecap="round" stroke-linejoin="round" stroke-width="3"/>
    <line id="Line_424" data-name="Line 424" x2="103.243" transform="translate(-2427 462.548)" fill="none" stroke="#fff" stroke-linecap="round" stroke-linejoin="round" stroke-width="3"/>
    <circle id="Ellipse_154" data-name="Ellipse 154" cx="1.936" cy="1.936" r="1.936" transform="translate(-2422.688 450.321)" fill="#fff"/>
    <circle id="Ellipse_155" data-name="Ellipse 155" cx="1.936" cy="1.936" r="1.936" transform="translate(-2417.764 450.321)" fill="#fff"/>
    <circle id="Ellipse_156" data-name="Ellipse 156" cx="1.936" cy="1.936" r="1.936" transform="translate(-2412.818 450.321)" fill="#fff"/>
    <path id="Path_872" data-name="Path 872" d="M-2324.186,461.177h-59.45a3.306,3.306,0,0,1-3.3-3.309h0a3.309,3.309,0,0,1,3.3-3.309h59.45a3.306,3.306,0,0,1,3.3,3.309h0A3.306,3.306,0,0,1-2324.186,461.177Z" transform="translate(-18.593 -5.7)" fill="none" stroke="#fff" stroke-width="3"/>
    <line id="Line_425" data-name="Line 425" x2="6.695" y2="6.695" transform="translate(-2334.463 448.993)" fill="none" stroke="#fff" stroke-linecap="round" stroke-linejoin="round" stroke-width="2"/>
    <line id="Line_426" data-name="Line 426" y1="6.695" x2="6.695" transform="translate(-2334.347 448.827)" fill="none" stroke="#fff" stroke-linecap="round" stroke-linejoin="round" stroke-width="2"/>
    <path id="Path_873" data-name="Path 873" d="M-2342.16,502.2v11.066h14.053V504.3h-8.41v-2.1Z" transform="translate(-37.899 -26.982)" fill="none" stroke="#fff" stroke-linecap="round" stroke-linejoin="round" stroke-width="3"/>
    <path id="Path_874" data-name="Path 874" d="M-2399.51,559.54v11.066h14.053v-8.963h-8.41v-2.1Z" transform="translate(-12.28 -52.596)" fill="#fff"/>
    <path id="Path_875" data-name="Path 875" d="M-2288.21,559.54v11.066h14.053v-8.963h-8.41v-2.1Z" transform="translate(-62 -52.596)" fill="#fff"/>
    <path id="Path_876" data-name="Path 876" d="M-2343.14,559.54v11.066h14.053v-8.963h-8.41v-2.1Z" transform="translate(-37.462 -52.596)" fill="#fff"/>
    <line id="Line_427" data-name="Line 427" y2="10.164" transform="translate(-2373.575 490.849)" fill="none" stroke="#fff" stroke-linecap="round" stroke-linejoin="round" stroke-width="3"/>
    <path id="Path_877" data-name="Path 877" d="M-2388.2,543.142a7.291,7.291,0,0,1,7.292-7.292h48.717a7.292,7.292,0,0,1,7.292,7.292" transform="translate(-17.333 -42.014)" fill="none" stroke="#fff" stroke-linecap="round" stroke-linejoin="round" stroke-width="3"/>
    <path id="Path_878" data-name="Path 878" d="M-2249.712,614.841c-1.062.122-1.621-.631-2.241-1.284a5.091,5.091,0,0,0-6.186-1.14,5.694,5.694,0,0,0-1.82,1.566,2.373,2.373,0,0,1-3.209.769,19.7,19.7,0,0,1-5.1-3.015,2.26,2.26,0,0,1-.747-2.966,5.16,5.16,0,0,0-4.05-7.193,2.311,2.311,0,0,1-2.274-2.163,15.614,15.614,0,0,1,.144-6.562,2.33,2.33,0,0,1,2.147-1.892,5.145,5.145,0,0,0,4.3-6.861,2.379,2.379,0,0,1,.951-3.154,19.26,19.26,0,0,1,4.515-2.562c1.483-.614,2.235-.5,3.309.692a5.173,5.173,0,0,0,5.488,1.577,5,5,0,0,0,2.451-1.616c1.057-1.145,1.771-1.256,3.231-.664a19.953,19.953,0,0,1,5.107,3.01,2.429,2.429,0,0,1,.841,2.822c-1.013,3.464.62,6.191,4.144,6.933,1.272.271,1.881,1.206,2.113,3.026a17.709,17.709,0,0,1-.177,5.461,2.38,2.38,0,0,1-2.114,2.13,5.192,5.192,0,0,0-4.083,7.06,2.183,2.183,0,0,1-.747,2.816,19.321,19.321,0,0,1-5.162,3.087A2.621,2.621,0,0,1-2249.712,614.841Z" transform="translate(-67.622 -60.852)" fill="#fff" stroke="#fff" stroke-linecap="round" stroke-linejoin="round" stroke-width="3"/>
    <path id="Path_879" data-name="Path 879" d="M-2258.4,605.494l6.18,7.923L-2238.9,600.1" transform="translate(-75.317 -70.715)" fill="#fff" stroke="#182ac3" stroke-linecap="round" stroke-linejoin="round" stroke-width="3"/>
  </g>
</svg>
