<svg xmlns="http://www.w3.org/2000/svg" width="101.177" height="101.521" viewBox="0 0 101.177 101.521">
  <g id="Layer_31" transform="translate(2434.501 -811.709)">
    <circle id="Ellipse_210" data-name="Ellipse 210" cx="14.119" cy="14.119" r="14.119" transform="translate(-2397.916 847.835)" fill="none" stroke="#fff" stroke-linecap="round" stroke-linejoin="round" stroke-width="3"/>
    <circle id="Ellipse_211" data-name="Ellipse 211" cx="11.211" cy="11.211" r="11.211" transform="translate(-2395.009 850.743)" fill="#354b9c"/>
    <circle id="Ellipse_212" data-name="Ellipse 212" cx="5.8" cy="5.8" r="5.8" transform="translate(-2389.597 856.154)" fill="none" stroke="#fff" stroke-linecap="round" stroke-linejoin="round" stroke-width="3"/>
    <path id="Path_1055" data-name="Path 1055" d="M-2377.83,880.1a23.738,23.738,0,0,1,11.361-11.829" transform="translate(-27.656 -27.601)" fill="none" stroke="#fff" stroke-linecap="round" stroke-linejoin="round" stroke-width="3"/>
    <path id="Path_1056" data-name="Path 1056" d="M-2366.782,942.092a23.729,23.729,0,0,1-10.438-10.852" transform="translate(-27.962 -59.167)" fill="none" stroke="#fff" stroke-linecap="round" stroke-linejoin="round" stroke-width="3"/>
    <path id="Path_1057" data-name="Path 1057" d="M-2303.338,929.41a23.733,23.733,0,0,1-12.632,12.607" transform="translate(-58.666 -58.25)" fill="none" stroke="#fff" stroke-linecap="round" stroke-linejoin="round" stroke-width="3"/>
    <path id="Path_1058" data-name="Path 1058" d="M-2315.97,867.21a23.748,23.748,0,0,1,12.528,12.358" transform="translate(-58.666 -27.07)" fill="none" stroke="#fff" stroke-linecap="round" stroke-linejoin="round" stroke-width="3"/>
    <path id="Path_1059" data-name="Path 1059" d="M-2348.04,845.591V816.825a7.784,7.784,0,0,1,6.373-3.616,7.764,7.764,0,0,1,6.259,3.616v28.766" transform="translate(-42.59 0)" fill="none" stroke="#fff" stroke-linecap="round" stroke-linejoin="round" stroke-width="3"/>
    <path id="Path_1060" data-name="Path 1060" d="M-2335.408,945.83V974.6a7.782,7.782,0,0,1-6.373,3.616,7.764,7.764,0,0,1-6.259-3.616V945.83" transform="translate(-42.59 -66.481)" fill="none" stroke="#fff" stroke-linecap="round" stroke-linejoin="round" stroke-width="3"/>
    <path id="Path_1061" data-name="Path 1061" d="M-2301.07,898.29h28.766a7.783,7.783,0,0,1,3.616,6.374,7.764,7.764,0,0,1-3.616,6.259h-28.766" transform="translate(-66.135 -42.65)" fill="none" stroke="#fff" stroke-linecap="round" stroke-linejoin="round" stroke-width="3"/>
    <path id="Path_1062" data-name="Path 1062" d="M-2293.88,903.09h17.859a4.839,4.839,0,0,1,2.244,3.955,4.83,4.83,0,0,1-2.244,3.885h-17.859" transform="translate(-69.74 -45.056)" fill="#fff"/>
    <path id="Path_1063" data-name="Path 1063" d="M-2335.39,951.34V969.2a4.838,4.838,0,0,1-3.955,2.244,4.83,4.83,0,0,1-3.885-2.244V951.34" transform="translate(-45.001 -69.243)" fill="#fff"/>
    <path id="Path_1064" data-name="Path 1064" d="M-2343.24,851.963V834.1a4.839,4.839,0,0,1,3.955-2.244,4.831,4.831,0,0,1,3.885,2.244v17.859" transform="translate(-44.996 -9.349)" fill="#fff"/>
    <path id="Path_1065" data-name="Path 1065" d="M-2395.127,910.93h-17.859a4.839,4.839,0,0,1-2.244-3.955,4.83,4.83,0,0,1,2.244-3.885h17.859" transform="translate(-8.908 -45.056)" fill="#fff"/>
    <path id="Path_1066" data-name="Path 1066" d="M-2400.619,910.912h-28.766a7.782,7.782,0,0,1-3.616-6.373,7.764,7.764,0,0,1,3.616-6.259h28.766" transform="translate(0 -42.645)" fill="none" stroke="#fff" stroke-linecap="round" stroke-linejoin="round" stroke-width="3"/>
    <path id="Path_1067" data-name="Path 1067" d="M-2275.442,855.219h-4.1a4.244,4.244,0,0,1-4.244-4.244V831.924a4.244,4.244,0,0,1,4.244-4.244h4.1a4.244,4.244,0,0,1,4.244,4.244v19.051A4.244,4.244,0,0,1-2275.442,855.219Z" transform="translate(-74.797 -7.254)" fill="none" stroke="#fff" stroke-linecap="round" stroke-linejoin="round" stroke-width="3"/>
    <g id="Group_82691" data-name="Group 82691" transform="translate(-2355.486 826.595)">
      <line id="Line_494" data-name="Line 494" x2="6.388" transform="translate(0 3.197)" fill="none" stroke="#fff" stroke-linecap="round" stroke-linejoin="round" stroke-width="2"/>
      <line id="Line_495" data-name="Line 495" x2="6.388" transform="translate(0 13.336)" fill="none" stroke="#fff" stroke-linecap="round" stroke-linejoin="round" stroke-width="2"/>
      <line id="Line_496" data-name="Line 496" y2="6.388" transform="translate(3.302)" fill="none" stroke="#fff" stroke-linecap="round" stroke-linejoin="round" stroke-width="2"/>
    </g>
    <path id="Path_1068" data-name="Path 1068" d="M-2403.624,852.751h-2.334a3.066,3.066,0,0,1-3.062-3.062V838.862a3.066,3.066,0,0,1,3.062-3.062h2.334a3.066,3.066,0,0,1,3.062,3.062v10.827A3.063,3.063,0,0,1-2403.624,852.751Zm-2.329-15.65a1.763,1.763,0,0,0-1.76,1.76v10.827a1.763,1.763,0,0,0,1.76,1.76h2.334a1.764,1.764,0,0,0,1.761-1.76V838.862a1.764,1.764,0,0,0-1.761-1.76Z" transform="translate(-12.021 -11.324)" fill="#fff"/>
    <g id="Group_82692" data-name="Group 82692" transform="translate(-2419.006 828.316)">
      <path id="Path_1069" data-name="Path 1069" d="M-2401.08,847.9h-3.331a.526.526,0,0,1-.529-.529.526.526,0,0,1,.529-.529h3.331a.526.526,0,0,1,.529.529A.526.526,0,0,1-2401.08,847.9Z" transform="translate(2404.94 -845.174)" fill="#fff"/>
      <path id="Path_1070" data-name="Path 1070" d="M-2401.08,858.5h-3.331a.526.526,0,0,1-.529-.529.526.526,0,0,1,.529-.529h3.331a.526.526,0,0,1,.529.529A.526.526,0,0,1-2401.08,858.5Z" transform="translate(2404.94 -850.488)" fill="#fff"/>
      <path id="Path_1071" data-name="Path 1071" d="M-2400.961,847.889a.526.526,0,0,1-.529-.529v-3.331a.526.526,0,0,1,.529-.529.525.525,0,0,1,.528.529v3.331A.525.525,0,0,1-2400.961,847.889Z" transform="translate(2403.211 -843.5)" fill="#fff"/>
    </g>
    <g id="Group_82693" data-name="Group 82693" transform="translate(-2430.362 881.169)">
      <path id="Path_1072" data-name="Path 1072" d="M-2401.272,976.585a.729.729,0,0,1-.728-.728V950.208a.729.729,0,0,1,.728-.728.729.729,0,0,1,.728.728v25.649A.726.726,0,0,1-2401.272,976.585Z" transform="translate(2414.822 -949.48)" fill="#fff"/>
      <path id="Path_1073" data-name="Path 1073" d="M-2401.333,976.646h-25.648a.729.729,0,0,1-.728-.728.729.729,0,0,1,.728-.728h25.648a.729.729,0,0,1,.729.728A.726.726,0,0,1-2401.333,976.646Z" transform="translate(2427.71 -962.368)" fill="#fff"/>
      <path id="Path_1074" data-name="Path 1074" d="M-2419.455,977.141a.734.734,0,0,1-.519-.214.731.731,0,0,1,0-1.032l18.138-18.138a.732.732,0,0,1,1.032,0,.732.732,0,0,1,0,1.032l-18.138,18.138A.7.7,0,0,1-2419.455,977.141Z" transform="translate(2423.939 -953.522)" fill="#fff"/>
      <path id="Path_1075" data-name="Path 1075" d="M-2401.318,976.6a.732.732,0,0,1-.518-.214l-18.138-18.138a.731.731,0,0,1,0-1.032.731.731,0,0,1,1.032,0l18.138,18.138a.731.731,0,0,1,0,1.032A.713.713,0,0,1-2401.318,976.6Z" transform="translate(2423.939 -953.251)" fill="#fff"/>
      <path id="Path_1076" data-name="Path 1076" d="M-2404.231,955.41a.724.724,0,0,1-.514-.209l-2.972-2.952a.732.732,0,0,1,0-1.032.727.727,0,0,1,1.032-.005l2.454,2.434,2.434-2.454a.727.727,0,0,1,1.032,0,.731.731,0,0,1,0,1.032l-2.947,2.972a.725.725,0,0,1-.519.219Z" transform="translate(2417.796 -950.229)" fill="#fff"/>
      <path id="Path_1077" data-name="Path 1077" d="M-2422.422,959.625a.726.726,0,0,1-.728-.728.73.73,0,0,1,.728-.733l3.461-.015-.015-3.456a.73.73,0,0,1,.729-.733h0a.726.726,0,0,1,.728.728l.015,4.189a.744.744,0,0,1-.209.519.716.716,0,0,1-.514.214l-4.2.015Z" transform="translate(2425.424 -951.726)" fill="#fff"/>
      <path id="Path_1078" data-name="Path 1078" d="M-2424.368,976.313a.73.73,0,0,1-.514-.21.731.731,0,0,1,0-1.032l2.434-2.454-2.454-2.434a.731.731,0,0,1-.005-1.032.727.727,0,0,1,1.032,0l2.972,2.947a.732.732,0,0,1,.005,1.032l-2.948,2.972A.737.737,0,0,1-2424.368,976.313Z" transform="translate(2426.413 -959.232)" fill="#fff"/>
      <path id="Path_1079" data-name="Path 1079" d="M-2418.208,993.865a.726.726,0,0,1-.728-.728l-.015-3.456-3.456.015h-.006a.726.726,0,0,1-.728-.728.73.73,0,0,1,.728-.733l4.189-.015h.005a.726.726,0,0,1,.728.728l.015,4.189a.733.733,0,0,1-.733.728Z" transform="translate(2425.419 -968.9)" fill="#fff"/>
      <path id="Path_1080" data-name="Path 1080" d="M-2389.027,960.37a.725.725,0,0,1-.728-.728l-.015-4.189a.73.73,0,0,1,.728-.733h0a.726.726,0,0,1,.728.728l.015,3.456,3.456-.015h0a.726.726,0,0,1,.728.728.73.73,0,0,1-.728.733l-4.194.02Z" transform="translate(2408.691 -952.107)" fill="#fff"/>
      <path id="Path_1081" data-name="Path 1081" d="M-2381.139,976.628a.729.729,0,0,1-.514-.209l-2.972-2.952a.717.717,0,0,1-.215-.514.745.745,0,0,1,.209-.519l2.952-2.972a.727.727,0,0,1,1.033-.005.731.731,0,0,1,0,1.032l-2.433,2.454,2.453,2.434a.732.732,0,0,1,.005,1.032A.729.729,0,0,1-2381.139,976.628Z" transform="translate(2406.22 -959.387)" fill="#fff"/>
      <path id="Path_1082" data-name="Path 1082" d="M-2388.687,993.285a.726.726,0,0,1-.728-.728l-.015-4.189a.744.744,0,0,1,.209-.519.716.716,0,0,1,.513-.214l4.189-.015h0a.726.726,0,0,1,.728.728.73.73,0,0,1-.728.733l-3.456.015.015,3.456a.734.734,0,0,1-.733.733Z" transform="translate(2408.521 -968.599)" fill="#fff"/>
      <path id="Path_1083" data-name="Path 1083" d="M-2407.2,996.845a.73.73,0,0,1-.514-.209.732.732,0,0,1,0-1.032l2.953-2.972a.727.727,0,0,1,1.032-.005l2.972,2.947a.731.731,0,0,1,.005,1.032.732.732,0,0,1-1.032.005l-2.454-2.434-2.434,2.454A.751.751,0,0,1-2407.2,996.845Z" transform="translate(2417.796 -971.002)" fill="#fff"/>
    </g>
    <g id="Group_82694" data-name="Group 82694" transform="translate(-2361.859 885.972)">
      <path id="Path_1084" data-name="Path 1084" d="M-2271.676,978.251a.513.513,0,0,1-.514-.514V959.624a.513.513,0,0,1,.514-.514.513.513,0,0,1,.514.514v18.113A.516.516,0,0,1-2271.676,978.251Z" transform="translate(2281.247 -959.11)" fill="#fff"/>
      <path id="Path_1085" data-name="Path 1085" d="M-2271.723,978.3h-18.113a.513.513,0,0,1-.513-.514.513.513,0,0,1,.513-.514h18.113a.513.513,0,0,1,.514.514A.513.513,0,0,1-2271.723,978.3Z" transform="translate(2290.35 -968.213)" fill="#fff"/>
      <path id="Path_1086" data-name="Path 1086" d="M-2284.516,978.644a.517.517,0,0,1-.364-.15.517.517,0,0,1,0-.728l12.807-12.807a.518.518,0,0,1,.728,0,.518.518,0,0,1,0,.728l-12.807,12.807A.518.518,0,0,1-2284.516,978.644Z" transform="translate(2287.683 -961.967)" fill="#fff"/>
      <path id="Path_1087" data-name="Path 1087" d="M-2271.709,978.264a.517.517,0,0,1-.364-.15l-12.807-12.807a.517.517,0,0,1,0-.728.518.518,0,0,1,.728,0l12.807,12.807a.518.518,0,0,1,0,.728A.518.518,0,0,1-2271.709,978.264Z" transform="translate(2287.683 -961.777)" fill="#fff"/>
      <path id="Path_1088" data-name="Path 1088" d="M-2273.771,963.288a.53.53,0,0,1-.364-.15l-2.1-2.085a.513.513,0,0,1-.005-.728.514.514,0,0,1,.729,0l1.735,1.721,1.72-1.736a.513.513,0,0,1,.728,0,.513.513,0,0,1,.005.728l-2.084,2.1a.484.484,0,0,1-.364.16Z" transform="translate(2283.351 -959.632)" fill="#fff"/>
      <path id="Path_1089" data-name="Path 1089" d="M-2286.616,966.265a.513.513,0,0,1-.514-.514.517.517,0,0,1,.514-.519l2.444-.01-.01-2.444a.517.517,0,0,1,.513-.519h0a.513.513,0,0,1,.514.514l.01,2.957a.517.517,0,0,1-.514.519l-2.957.015Z" transform="translate(2288.736 -960.689)" fill="#fff"/>
      <path id="Path_1090" data-name="Path 1090" d="M-2287.991,978.047a.516.516,0,0,1-.364-.15.513.513,0,0,1,0-.728l1.72-1.736-1.736-1.721a.513.513,0,0,1-.005-.728.513.513,0,0,1,.728,0l2.1,2.085a.513.513,0,0,1,0,.728l-2.084,2.1A.483.483,0,0,1-2287.991,978.047Z" transform="translate(2289.437 -965.988)" fill="#fff"/>
      <path id="Path_1091" data-name="Path 1091" d="M-2283.639,990.45a.513.513,0,0,1-.514-.514l-.01-2.444-2.444.01h0a.513.513,0,0,1-.514-.514.517.517,0,0,1,.514-.519l2.957-.01h0a.513.513,0,0,1,.514.514l.01,2.957a.514.514,0,0,1-.514.519Z" transform="translate(2288.731 -972.82)" fill="#fff"/>
      <path id="Path_1092" data-name="Path 1092" d="M-2263.026,966.8a.513.513,0,0,1-.513-.514l-.01-2.957a.517.517,0,0,1,.513-.519h0a.513.513,0,0,1,.514.514l.01,2.444,2.443-.01h0a.513.513,0,0,1,.514.514.517.517,0,0,1-.514.519l-2.957.01Z" transform="translate(2276.915 -960.965)" fill="#fff"/>
      <path id="Path_1093" data-name="Path 1093" d="M-2257.471,978.277a.516.516,0,0,1-.364-.15l-2.1-2.085a.513.513,0,0,1-.005-.728l2.084-2.1a.513.513,0,0,1,.728,0,.513.513,0,0,1,0,.728l-1.72,1.735,1.735,1.721a.513.513,0,0,1,.005.728A.514.514,0,0,1-2257.471,978.277Z" transform="translate(2275.18 -966.104)" fill="#fff"/>
      <path id="Path_1094" data-name="Path 1094" d="M-2262.8,990.04a.513.513,0,0,1-.514-.514l-.01-2.957a.517.517,0,0,1,.514-.519l2.958-.01h0a.513.513,0,0,1,.513.514.517.517,0,0,1-.513.519l-2.444.01.01,2.444a.507.507,0,0,1-.514.514Z" transform="translate(2276.8 -972.61)" fill="#fff"/>
      <path id="Path_1095" data-name="Path 1095" d="M-2275.871,992.552a.517.517,0,0,1-.364-.15.513.513,0,0,1,0-.728l2.084-2.1a.5.5,0,0,1,.364-.155h0a.53.53,0,0,1,.364.15l2.1,2.084a.514.514,0,0,1,.005.728.514.514,0,0,1-.729.005l-1.735-1.721-1.721,1.736A.517.517,0,0,1-2275.871,992.552Z" transform="translate(2283.352 -974.304)" fill="#fff"/>
    </g>
    <circle id="Ellipse_213" data-name="Ellipse 213" cx="2.254" cy="2.254" r="2.254" transform="translate(-2419.066 892.465)" fill="#354b9c"/>
  </g>
</svg>
