<svg xmlns="http://www.w3.org/2000/svg" width="78.076" height="72.289" viewBox="0 0 78.076 72.289">
  <g id="Layer_2" data-name="Layer 2" transform="translate(1 1.04)">
    <g id="Layer_1" data-name="Layer 1" transform="translate(1 1.002)">
      <path id="Path_2119" data-name="Path 2119" d="M11.949,15.728l61.321.107a1.812,1.812,0,0,1,1.806,1.812V67.4a1.812,1.812,0,0,1-1.812,1.812H11.949s-10.7.719-10.7-7.2c0-9.164,10.7-8.37,10.7-8.37V1.219S1-1.189,1,10.021s.25,52,.25,52" transform="translate(-1 -1.002)" fill="none" stroke="#fff" stroke-linecap="round" stroke-miterlimit="10" stroke-width="4"/>
      <line id="Line_963" data-name="Line 963" x2="16.448" transform="translate(51.011 27.066)" fill="none" stroke="#fff" stroke-linecap="round" stroke-miterlimit="10" stroke-width="4"/>
      <line id="Line_964" data-name="Line 964" x1="11.839" transform="translate(55.62 34.615)" fill="none" stroke="#fff" stroke-linecap="round" stroke-miterlimit="10" stroke-width="4"/>
      <line id="Line_965" data-name="Line 965" x1="8.221" transform="translate(59.237 41.846)" fill="none" stroke="#fff" stroke-linecap="round" stroke-miterlimit="10" stroke-width="4"/>
      <path id="Path_2120" data-name="Path 2120" d="M39.79,67.211S41.021,53.15,50.713,53.15" transform="translate(-19.122 -25.365)" fill="none" stroke="#fff" stroke-linecap="round" stroke-miterlimit="10" stroke-width="4"/>
      <path id="Path_2121" data-name="Path 2121" d="M35.17,79.53H70.282" transform="translate(-16.964 -37.69)" fill="none" stroke="#fff" stroke-linecap="round" stroke-miterlimit="10" stroke-width="4"/>
      <path id="Path_2122" data-name="Path 2122" d="M67.052,64.646l1.513-14.061.171-1.6a1.2,1.2,0,0,0-1.193-1.327H62.107a1.193,1.193,0,0,0-1.193,1.321l1.6,15.68" transform="translate(-28.988 -22.8)" fill="none" stroke="#fff" stroke-linecap="round" stroke-miterlimit="10" stroke-width="4"/>
      <path id="Path_2123" data-name="Path 2123" d="M86.714,67.211S84.961,53.15,75.28,53.15" transform="translate(-35.703 -25.365)" fill="none" stroke="#fff" stroke-linecap="round" stroke-miterlimit="10" stroke-width="4"/>
      <path id="Path_2124" data-name="Path 2124" d="M39.583,93.28h-3.1a1.108,1.108,0,0,0-.964.533l-1.55,2.664a1.108,1.108,0,0,0,0,1.119l1.55,2.664a1.108,1.108,0,0,0,.964.559h3.1a1.114,1.114,0,0,0,.964-.559L42.1,97.6a1.135,1.135,0,0,0,0-1.119l-1.55-2.664a1.114,1.114,0,0,0-.964-.533Z" transform="translate(-16.331 -44.114)" fill="none" stroke="#fff" stroke-linecap="round" stroke-miterlimit="10" stroke-width="4"/>
      <path id="Path_2125" data-name="Path 2125" d="M99.591,93.28H95.936a1.273,1.273,0,0,0-1.1.634l-1.46,2.531a1.284,1.284,0,0,0,0,1.268l1.46,2.531a1.273,1.273,0,0,0,1.1.634h3.655" transform="translate(-44.078 -44.114)" fill="none" stroke="#fff" stroke-linecap="round" stroke-miterlimit="10" stroke-width="4"/>
      <line id="Line_966" data-name="Line 966" x2="22.841" transform="translate(26.086 52.965)" fill="none" stroke="#fff" stroke-linecap="round" stroke-miterlimit="10" stroke-width="4"/>
    </g>
  </g>
</svg>
