<svg xmlns="http://www.w3.org/2000/svg" width="121.312" height="113.82" viewBox="0 0 121.312 113.82">
  <g id="Layer_18" transform="translate(814.02 -407.21)">
    <path id="Path_1005" data-name="Path 1005" d="M-705.281,608.371s2.806-22.4-18.184-21.643l-12.757-.508c-21.254,1.53-17.556,22.151-17.556,22.151" transform="translate(-29.347 -89.082)" fill="#182ac3" stroke="#fff" stroke-linecap="round" stroke-linejoin="round" stroke-width="3"/>
    <path id="Path_1006" data-name="Path 1006" d="M-680.221,532.824h-82.643a7.278,7.278,0,0,1-7.276-7.276V442.906a7.278,7.278,0,0,1,7.276-7.276h82.643a7.278,7.278,0,0,1,7.276,7.276v82.643A7.274,7.274,0,0,1-680.221,532.824Z" transform="translate(-21.262 -13.535)" fill="none" stroke="#fff" stroke-linecap="round" stroke-linejoin="round" stroke-width="3"/>
    <path id="Path_1007" data-name="Path 1007" d="M-739.471,518.787s11.785,1.475,16.883-6c2.721,2.721,7.221,7.59,16.639,5.1-.239-5.95,3.02-19.49-15.847-18.981C-721.8,498.9-742.247,494.708-739.471,518.787Z" transform="translate(-36.518 -45.135)" fill="none" stroke="#fff" stroke-linecap="round" stroke-linejoin="round" stroke-width="3"/>
    <path id="Path_1008" data-name="Path 1008" d="M-731.031,538.889s-1.022,8.1,1.246,11.9,5.158,6.742,11.955,7.141,11.217-5.043,12.349-10.256a20.2,20.2,0,0,0,0-9.1" transform="translate(-40.767 -65.177)" fill="none" stroke="#fff" stroke-linecap="round" stroke-linejoin="round" stroke-width="3"/>
    <path id="Path_1009" data-name="Path 1009" d="M-677.308,538.055s3.02-.329,3.135,2.158c.1,2.2.708,5.831-.683,6.862-.967.713-4.8.638-4.8.638" transform="translate(-66.653 -64.912)" fill="none" stroke="#fff" stroke-linecap="round" stroke-linejoin="round" stroke-width="3"/>
    <path id="Path_1010" data-name="Path 1010" d="M-738.784,539.335s-3.095-.334-3.214,2.188c-.11,2.237-.728,5.92.7,6.967.987.728,4.924.648,4.924.648" transform="translate(-35.267 -65.554)" fill="none" stroke="#fff" stroke-linecap="round" stroke-linejoin="round" stroke-width="3"/>
    <path id="Path_1011" data-name="Path 1011" d="M-718.31,573.68v6.249l6.688,8.412,6.065-7.33v-6.7S-712.086,577.462-718.31,573.68Z" transform="translate(-47.264 -82.791)" fill="#182ac3" stroke="#fff" stroke-linecap="round" stroke-linejoin="round" stroke-width="3"/>
    <path id="Path_1012" data-name="Path 1012" d="M-727.84,588.39l3.4,12.089,8.043-4.759,7.869,4.759,2.786-11.3" transform="translate(-42.483 -90.17)" fill="none" stroke="#fff" stroke-linecap="round" stroke-linejoin="round" stroke-width="3"/>
    <path id="Path_1013" data-name="Path 1013" d="M-713.14,562.09a7.751,7.751,0,0,0,5.088,1.749,7.679,7.679,0,0,0,4.6-1.749" transform="translate(-49.857 -76.976)" fill="none" stroke="#fff" stroke-linecap="round" stroke-linejoin="round" stroke-width="3"/>
    <circle id="Ellipse_201" data-name="Ellipse 201" cx="0.792" cy="0.792" r="0.792" transform="translate(-765.574 476.482)" fill="none" stroke="#fff" stroke-linecap="round" stroke-linejoin="round" stroke-width="3"/>
    <circle id="Ellipse_202" data-name="Ellipse 202" cx="0.792" cy="0.792" r="0.792" transform="translate(-753.609 476.482)" fill="none" stroke="#fff" stroke-linecap="round" stroke-linejoin="round" stroke-width="3"/>
    <line id="Line_466" data-name="Line 466" x2="22.948" transform="translate(-726.814 439.601)" fill="none" stroke="#fff" stroke-linecap="round" stroke-linejoin="round" stroke-width="3"/>
    <line id="Line_467" data-name="Line 467" x2="28.838" transform="translate(-729.759 446.174)" fill="none" stroke="#fff" stroke-linecap="round" stroke-linejoin="round" stroke-width="3"/>
    <g id="Group_82681" data-name="Group 82681" transform="translate(-731.01 488.14)">
      <text id="_20" data-name="20" transform="translate(0 17)" fill="#fff" stroke="#fff" stroke-width="1" font-size="16" font-family="Segoe UI"><tspan x="0" y="0">20</tspan></text>
      <line id="Line_468" data-name="Line 468" y2="11.048" transform="translate(26.232 6.905)" fill="#c5e1f9" stroke="#fff" stroke-linecap="round" stroke-linejoin="round" stroke-width="3"/>
      <line id="Line_469" data-name="Line 469" x2="11.048" transform="translate(20.706 12.481)" fill="#c5e1f9" stroke="#fff" stroke-linecap="round" stroke-linejoin="round" stroke-width="3"/>
    </g>
    <path id="Path_1014" data-name="Path 1014" d="M-618.26,505.1l3.867,3.867,7.405-7.405" transform="translate(-97.456 -46.61)" fill="none" stroke="#fff" stroke-linecap="round" stroke-linejoin="round" stroke-width="3"/>
    <path id="Path_1015" data-name="Path 1015" d="M-618.26,547.143l3.867,3.867,7.405-7.41" transform="translate(-97.456 -67.701)" fill="none" stroke="#fff" stroke-linecap="round" stroke-linejoin="round" stroke-width="3"/>
    <path id="Path_1016" data-name="Path 1016" d="M-693.922,454.854c2.611-2.033,5.8-2.372,7.933-.972a5.643,5.643,0,0,1,2.292,3.483c.777,3.678-2.427,7.022-4.266,8.935a20.344,20.344,0,0,1-5.89,4.241,21.915,21.915,0,0,1-6.568-5.033c-1.824-2.063-3.713-4.191-3.623-7.141a7.5,7.5,0,0,1,1.251-3.827C-702.787,454.546-699.164,449.956-693.922,454.854Z" transform="translate(-54.42 -22.046)" fill="#182ac3" stroke="#fff" stroke-linecap="round" stroke-linejoin="round" stroke-width="3"/>
    <path id="Path_1017" data-name="Path 1017" d="M-772.555,425.184c-.239-1.859-.867-2.821-2.168-3.095-3.6-.762-5.282-3.558-4.246-7.106a2.483,2.483,0,0,0-.857-2.89,20.457,20.457,0,0,0-5.227-3.075c-1.495-.608-2.227-.493-3.309.678a5.175,5.175,0,0,1-2.517,1.654,5.3,5.3,0,0,1-5.616-1.615c-1.1-1.226-1.869-1.341-3.389-.713a19.879,19.879,0,0,0-4.625,2.621,2.434,2.434,0,0,0-.977,3.229,5.269,5.269,0,0,1-4.4,7.026,2.376,2.376,0,0,0-2.2,1.939,15.962,15.962,0,0,0-.15,6.712,2.373,2.373,0,0,0,2.327,2.223,5.282,5.282,0,0,1,4.146,7.365,2.316,2.316,0,0,0,.762,3.035,20.22,20.22,0,0,0,5.223,3.08,2.443,2.443,0,0,0,3.294-.787,5.894,5.894,0,0,1,1.864-1.6,5.219,5.219,0,0,1,6.334,1.171c.633.668,1.206,1.44,2.292,1.316a2.694,2.694,0,0,0,.832-.12,20.089,20.089,0,0,0,5.287-3.159,2.23,2.23,0,0,0,.762-2.885,5.325,5.325,0,0,1,4.186-7.231,2.431,2.431,0,0,0,2.163-2.183A17.517,17.517,0,0,0-772.555,425.184Zm-19.908,9.129c-3.583.2-6.723-3.11-6.733-6.673a6.907,6.907,0,0,1,6.857-6.782,6.934,6.934,0,0,1,6.638,6.812A6.75,6.75,0,0,1-792.464,434.314Z" transform="translate(0 0)" fill="#fff" stroke="#fff" stroke-linecap="round" stroke-linejoin="round" stroke-width="3"/>
    <path id="Path_1018" data-name="Path 1018" d="M-782.1,446.379c-.782.09-1.191-.464-1.644-.942a3.738,3.738,0,0,0-4.545-.837,4.251,4.251,0,0,0-1.341,1.151,1.744,1.744,0,0,1-2.357.563,14.68,14.68,0,0,1-3.753-2.213,1.662,1.662,0,0,1-.548-2.178,3.793,3.793,0,0,0-2.975-5.287,1.692,1.692,0,0,1-1.669-1.59,11.547,11.547,0,0,1,.1-4.819,1.707,1.707,0,0,1,1.58-1.39,3.781,3.781,0,0,0,3.159-5.038,1.739,1.739,0,0,1,.7-2.317,14.34,14.34,0,0,1,3.314-1.884,1.764,1.764,0,0,1,2.432.508,3.806,3.806,0,0,0,4.031,1.161,3.683,3.683,0,0,0,1.8-1.186,1.749,1.749,0,0,1,2.377-.488,14.68,14.68,0,0,1,3.753,2.213,1.781,1.781,0,0,1,.618,2.073,3.755,3.755,0,0,0,3.045,5.1c.932.2,1.385.887,1.555,2.223a13.083,13.083,0,0,1-.13,4.017,1.75,1.75,0,0,1-1.555,1.565,3.815,3.815,0,0,0-3,5.188,1.6,1.6,0,0,1-.548,2.068,14.215,14.215,0,0,1-3.792,2.267A2.519,2.519,0,0,1-782.1,446.379Zm-4.654-8.641a4.841,4.841,0,0,0,4.854-4.764,4.97,4.97,0,0,0-4.759-4.889,4.958,4.958,0,0,0-4.924,4.864A4.834,4.834,0,0,0-786.752,437.737Z" transform="translate(-5.712 -5.357)" fill="#182ac3"/>
    <path id="Path_1019" data-name="Path 1019" d="M-772.29,439.967a6.759,6.759,0,0,1-6.767,6.648c-3.583.2-6.722-3.11-6.732-6.673a6.907,6.907,0,0,1,6.857-6.782A6.926,6.926,0,0,1-772.29,439.967Z" transform="translate(-13.411 -12.296)" fill="#fff"/>
  </g>
</svg>
