<svg xmlns="http://www.w3.org/2000/svg" width="110.735" height="97.856" viewBox="0 0 110.735 97.856">
  <g id="Layer_36" transform="translate(382.65 -824.6)">
    <path id="Path_2004" data-name="Path 2004" d="M-275.02,921.727c.727-1.495,1.411-2.906,2.106-4.343-2.535-1.474-4.965-2.869-7.365-4.317a3.448,3.448,0,0,1-1.124-1.108c-1.134-1.8-2.211-3.643-3.314-5.467a5.418,5.418,0,0,0-7.94-1.39c-2.446,1.986-4.9,3.962-7.443,5.8a5.84,5.84,0,0,0-2.645,4.505c-.3,3.188-.815,6.356-1.254,9.628,1.6.324,3.141.632,4.741.957.862-3.11,1.688-6.1,2.54-9.079a6.475,6.475,0,0,1,.575-1.139,2.991,2.991,0,0,1,.3.125c-.058.429-.11.852-.167,1.281a65.027,65.027,0,0,0-.842,6.926c-.057,2.864.22,5.744.429,8.614a2.179,2.179,0,0,1-.664,1.793c-3.089,3.356-6.157,6.742-9.236,10.119-.24.267-.46.544-.727.862,1.845,1.683,3.633,3.309,5.42,4.934a2.569,2.569,0,0,0,.324-.24q5.755-6.3,11.494-12.6a3.94,3.94,0,0,0,.962-3.1c-.073-.847-.1-1.693-.141-2.54a4.368,4.368,0,0,1,1.254,3.141c-.016,4.26.089,8.525.157,12.785.005.293.052.575.073.8h7.349c.026-.35.052-.518.047-.679-.057-5.044-.1-10.083-.214-15.121a5.505,5.505,0,0,0-.664-2.295c-1.4-2.666-2.885-5.284-4.328-7.929a1.816,1.816,0,0,1-.35-.92c.157-1.317.387-2.634.6-3.988C-281.669,919.087-278.381,920.394-275.02,921.727Zm-12.016,1.547c1.495,2.65,2.969,5.316,4.385,8.007a4.554,4.554,0,0,1,.528,2.007c.1,4.124.136,8.253.193,12.377v1.2h-3.842c-.021-.329-.063-.685-.073-1.04-.047-3.894-.078-7.778-.157-11.666a3.862,3.862,0,0,0-.413-1.631c-.763-1.505-1.61-2.969-2.42-4.453-.69-1.26-.69-1.26-2.2-.7.11,2.023.136,4.082.355,6.126a4.543,4.543,0,0,1-1.338,3.915c-3.267,3.429-6.4,6.973-9.675,10.558-.951-.868-1.861-1.693-2.854-2.592.267-.319.491-.6.732-.868,2.89-3.178,5.8-6.34,8.661-9.544a2.212,2.212,0,0,0,.5-1.422c-.084-2.634-.188-5.269-.4-7.9-.246-2.979.523-5.838.9-8.744a45.832,45.832,0,0,0,.544-5.269c-1.448,1.145-2.917,2.263-4.338,3.439-.225.188-.282.6-.376.92-.632,2.242-1.249,4.49-1.871,6.737-.361,1.328-.382,1.333-1.8.794.3-2.279.784-4.579.873-6.889a5.962,5.962,0,0,1,2.979-5.007c2.148-1.474,4.124-3.183,6.168-4.793,2.326-1.824,4.521-1.437,6.032,1.071,1.066,1.767,2.1,3.549,3.214,5.284a4.087,4.087,0,0,0,1.26,1.244c1.96,1.2,3.957,2.342,5.943,3.507a1.436,1.436,0,0,1,.225.246c-.2.408-.387.794-.617,1.27-1.558-.617-3.058-1.2-4.558-1.8a13.937,13.937,0,0,1-3.429-1.469,14.422,14.422,0,0,1-2.263-3.063c-.209,1.244-.392,2.342-.57,3.445-.235,1.531-.4,3.084-.706,4.6A2.972,2.972,0,0,0-287.037,923.274Z" transform="translate(-36.085 -37.87)" fill="#fff"/>
    <path id="Path_2005" data-name="Path 2005" d="M-355.889,969.868c-.193.418-.335.753-.5,1.071-3.377,6.628-6.764,13.245-10.109,19.888a1.466,1.466,0,0,1-1.558.936c-4.469-.037-8.933-.021-13.4-.021h-1.2c.272-.429.418-.706.6-.956q7.409-10.114,14.8-20.228a1.646,1.646,0,0,1,1.516-.758c2.943.031,5.885.01,8.828.01C-356.6,969.815-356.312,969.847-355.889,969.868Z" transform="translate(0 -69.306)" fill="#fff"/>
    <path id="Path_2006" data-name="Path 2006" d="M-197.633,991.758h-10.846c-1.354,0-2.707.037-4.061-.031a1.36,1.36,0,0,1-1-.58q-5.355-10.412-10.647-20.86a3.342,3.342,0,0,1-.1-.361,4.238,4.238,0,0,1,.575-.084c3.152-.005,6.293-.026,9.434.021a1.538,1.538,0,0,1,1.082.528q7.621,10.318,15.189,20.688A4.469,4.469,0,0,1-197.633,991.758Z" transform="translate(-75.588 -69.322)" fill="#fff"/>
    <path id="Path_2007" data-name="Path 2007" d="M-325.446,969.868c-.24.977-.455,1.882-.685,2.781-1.563,6.016-3.141,12.027-4.668,18.053a1.161,1.161,0,0,1-1.364,1.056c-4.532-.047-9.068-.021-13.6-.021h-1.218c.235-.517.355-.821.507-1.119q4.822-9.941,9.628-19.893a1.355,1.355,0,0,1,1.437-.936c2.974.052,5.959.021,8.933.021C-326.183,969.81-325.885,969.842-325.446,969.868Z" transform="translate(-17.026 -69.302)" fill="#fff"/>
    <path id="Path_2008" data-name="Path 2008" d="M-228.623,991.662a8.287,8.287,0,0,1-.862.084c-4.668.005-9.33-.005-14,.021-.638,0-.951-.157-1.119-.826q-2.619-10.216-5.29-20.411a5.349,5.349,0,0,1-.084-.706h3.784c2.1,0,4.2-.026,6.293.026a1.378,1.378,0,0,1,1.035.517q5.112,10.42,10.156,20.881A2.4,2.4,0,0,1-228.623,991.662Z" transform="translate(-63.326 -69.315)" fill="#fff"/>
    <path id="Path_2009" data-name="Path 2009" d="M-276.414,879.16a6.265,6.265,0,0,0-6.246,6.272,6.241,6.241,0,0,0,6.241,6.262,6.218,6.218,0,0,0,6.241-6.262A6.253,6.253,0,0,0-276.414,879.16Zm0,10.731a4.428,4.428,0,0,1-4.469-4.411,4.477,4.477,0,0,1,4.469-4.532,4.523,4.523,0,0,1,4.49,4.438A4.466,4.466,0,0,1-276.414,889.891Z" transform="translate(-47.727 -26.043)" fill="#fff"/>
    <path id="Path_2010" data-name="Path 2010" d="M-302.49,972.6c.188-.8.334-1.615.6-2.389.068-.2.5-.329.789-.376a10.463,10.463,0,0,1,1.453-.016c-1,1.1-1.814,1.991-2.629,2.885C-302.349,972.663-302.422,972.627-302.49,972.6Z" transform="translate(-38.262 -69.306)" fill="#c5e1f9"/>
    <path id="Path_2011" data-name="Path 2011" d="M-308.166,983.035l4.61,4.192,8.426-9.147v17.541h-16.01Z" transform="translate(-34.133 -73.259)" fill="#fff"/>
    <path id="Path_2012" data-name="Path 2012" d="M-273.9,969.94v11.6h10.072l-.575-5.389.288-3.81,4.6,19.391H-275.4l-.314-20.087Z" transform="translate(-51.045 -69.374)" fill="#fff"/>
    <rect id="Rectangle_339" data-name="Rectangle 339" width="15.769" height="4.354" transform="translate(-287.684 896.144)" fill="#fff"/>
    <rect id="Rectangle_340" data-name="Rectangle 340" width="3.795" height="48.714" transform="translate(-281.7 847.608)" fill="#fff"/>
    <path id="Path_2013" data-name="Path 2013" d="M-191.374,848.429h-1.531A6.094,6.094,0,0,1-199,842.335v-11.64a6.094,6.094,0,0,1,6.094-6.094h1.531a6.094,6.094,0,0,1,6.094,6.094v11.64A6.094,6.094,0,0,1-191.374,848.429Z" transform="translate(-87.66 0)" fill="#fff"/>
    <circle id="Ellipse_501" data-name="Ellipse 501" cx="2.153" cy="2.153" r="2.153" transform="translate(-281.956 828.484)" fill="#354b9c"/>
    <circle id="Ellipse_502" data-name="Ellipse 502" cx="2.153" cy="2.153" r="2.153" transform="translate(-281.956 835.132)" fill="#354b9c"/>
    <circle id="Ellipse_503" data-name="Ellipse 503" cx="2.153" cy="2.153" r="2.153" transform="translate(-281.956 841.373)" fill="#354b9c"/>
    <g id="Group_82834" data-name="Group 82834" transform="translate(-370.874 830.417)">
      <g id="Group_82829" data-name="Group 82829" transform="translate(12.659)">
        <line id="Line_941" data-name="Line 941" y2="3.831" transform="translate(0 22.381)" fill="none" stroke="#fff" stroke-linecap="round" stroke-linejoin="round" stroke-width="3"/>
        <line id="Line_942" data-name="Line 942" y2="3.831" fill="none" stroke="#fff" stroke-linecap="round" stroke-linejoin="round" stroke-width="3"/>
      </g>
      <g id="Group_82830" data-name="Group 82830" transform="translate(5.143 2.373)">
        <line id="Line_943" data-name="Line 943" x2="2.2" y2="3.136" transform="translate(12.837 18.336)" fill="none" stroke="#fff" stroke-linecap="round" stroke-linejoin="round" stroke-width="3"/>
        <line id="Line_944" data-name="Line 944" x2="2.195" y2="3.136" fill="none" stroke="#fff" stroke-linecap="round" stroke-linejoin="round" stroke-width="3"/>
      </g>
      <g id="Group_82831" data-name="Group 82831" transform="translate(0.345 8.624)">
        <line id="Line_945" data-name="Line 945" x2="3.601" y2="1.307" transform="translate(21.033 7.657)" fill="none" stroke="#fff" stroke-linecap="round" stroke-linejoin="round" stroke-width="3"/>
        <line id="Line_946" data-name="Line 946" x2="3.601" y2="1.312" fill="none" stroke="#fff" stroke-linecap="round" stroke-linejoin="round" stroke-width="3"/>
      </g>
      <g id="Group_82832" data-name="Group 82832" transform="translate(0 9.717)">
        <line id="Line_947" data-name="Line 947" y1="0.988" x2="3.695" transform="translate(21.623)" fill="none" stroke="#fff" stroke-linecap="round" stroke-linejoin="round" stroke-width="3"/>
        <line id="Line_948" data-name="Line 948" y1="0.993" x2="3.701" transform="translate(0 5.791)" fill="none" stroke="#fff" stroke-linecap="round" stroke-linejoin="round" stroke-width="3"/>
      </g>
      <g id="Group_82833" data-name="Group 82833" transform="translate(4.239 3.068)">
        <line id="Line_949" data-name="Line 949" y1="2.932" x2="2.462" transform="translate(14.384)" fill="none" stroke="#fff" stroke-linecap="round" stroke-linejoin="round" stroke-width="3"/>
        <line id="Line_950" data-name="Line 950" y1="2.932" x2="2.462" transform="translate(0 17.144)" fill="none" stroke="#fff" stroke-linecap="round" stroke-linejoin="round" stroke-width="3"/>
      </g>
      <circle id="Ellipse_504" data-name="Ellipse 504" cx="5.953" cy="5.953" r="5.953" transform="matrix(0.16, -0.987, 0.987, 0.16, 5.847, 18.02)" fill="#fff"/>
    </g>
  </g>
</svg>
