<svg xmlns="http://www.w3.org/2000/svg" width="80.726" height="90.13" viewBox="0 0 80.726 90.13">
  <g id="Layer_32" transform="translate(1969.35 -812.71)">
    <path id="Path_1096" data-name="Path 1096" d="M-1896.964,843.369a3.455,3.455,0,0,0-2.241-3.519,28.636,28.636,0,0,0-8.133-2.127c-2.224-.241-3.152.193-4.15,2.167a7.07,7.07,0,0,1-2.709,3.152,7.315,7.315,0,0,1-8.093-.026c-1.922-1.208-3-1.072-4.784.341a27.265,27.265,0,0,0-5.165,5.244c-1.287,1.768-1.282,2.841-.079,4.666a7.3,7.3,0,0,1-3.2,11.026,3.291,3.291,0,0,0-2.193,3.405,22.125,22.125,0,0,0,2.351,9.013c.958,1.821,1.869,2.285,3.939,2.066a7.275,7.275,0,0,1,8.312,6.491,50.29,50.29,0,0,0,11.232-6.868c.306-.245.6-.495.9-.744a50.6,50.6,0,0,0,3.751-3.532,4.043,4.043,0,0,1-.412.105c-4.692,1.615-10.129-1.585-11.486-6.329a9.565,9.565,0,0,1,6.579-11.626,9.587,9.587,0,0,1,11.411,6.561,9.05,9.05,0,0,1,.271,3.121c.972-1.545,1.773-3.007,2.434-4.329a26.607,26.607,0,0,0,1.711-3.541,26.626,26.626,0,0,0,1.278-4.255s.556-2.105.98-4.242A7.789,7.789,0,0,1-1896.964,843.369Z" transform="translate(-17.223 -13.749)" fill="#fff"/>
    <g id="Group_82695" data-name="Group 82695" transform="translate(-1945.313 853.366)">
      <rect id="Rectangle_246" data-name="Rectangle 246" width="6.907" height="27.484" transform="translate(10.912 20.489)" fill="none" stroke="#fff" stroke-linecap="round" stroke-linejoin="round" stroke-width="3"/>
      <rect id="Rectangle_247" data-name="Rectangle 247" width="6.907" height="17.447" transform="translate(0 30.526)" fill="none" stroke="#fff" stroke-linecap="round" stroke-linejoin="round" stroke-width="3"/>
      <rect id="Rectangle_248" data-name="Rectangle 248" width="6.907" height="38.099" transform="translate(22.166 9.875)" fill="none" stroke="#fff" stroke-linecap="round" stroke-linejoin="round" stroke-width="3"/>
      <rect id="Rectangle_249" data-name="Rectangle 249" width="6.907" height="47.974" transform="translate(34.098)" fill="none" stroke="#fff" stroke-linecap="round" stroke-linejoin="round" stroke-width="3"/>
    </g>
    <path id="Path_1097" data-name="Path 1097" d="M-1853.53,886.7c.972-1.545,1.773-3.007,2.434-4.329a26.6,26.6,0,0,0,1.712-3.541,26.639,26.639,0,0,0,1.278-4.255" transform="translate(-64.561 -34.507)" fill="none" stroke="#fff" stroke-linecap="round" stroke-linejoin="round" stroke-width="3"/>
    <path id="Path_1098" data-name="Path 1098" d="M-1904.35,932.094a50.286,50.286,0,0,0,11.232-6.868c.306-.245.6-.495.9-.744a50.483,50.483,0,0,0,3.751-3.532" transform="translate(-35.986 -60.58)" fill="none" stroke="#fff" stroke-linecap="round" stroke-linejoin="round" stroke-width="3"/>
    <path id="Path_1099" data-name="Path 1099" d="M-1934.34,873.964a50.941,50.941,0,0,1-5.48,2.07,9.807,9.807,0,0,0-9.249-3.629c-2.714.346-3.935-.245-5.253-2.618a29.248,29.248,0,0,1-3.344-11.8,4.357,4.357,0,0,1,2.8-4.561,9.617,9.617,0,0,0,3.913-14.62c-1.65-2.368-1.685-3.791-.031-6.154a35.979,35.979,0,0,1,6.657-7.06c2.311-1.908,3.721-2.119,6.29-.578,3.624,2.175,7.166,1.908,10.672-.2a9.338,9.338,0,0,0,3.493-4.233c1.256-2.626,2.473-3.213,5.41-2.959a37.331,37.331,0,0,1,10.777,2.569,4.542,4.542,0,0,1,3.051,4.583c.092,6.745,4.509,10.72,11.214,10.111,2.421-.219,4.023,1.121,5.445,4.241a33.557,33.557,0,0,1,2.683,9.853,4.441,4.441,0,0,1-2.6,4.964,9.713,9.713,0,0,0-3.418,14.86c1.51,1.808,1.479,3.427.214,5.441a34.558,34.558,0,0,1-6.43,7.406" transform="translate(-5.997 -2.45)" fill="none" stroke="#fff" stroke-linecap="round" stroke-linejoin="round" stroke-width="3"/>
    <path id="Path_1101" data-name="Path 1101" d="M-1868.06,910.452a50.445,50.445,0,0,0,6.365-8.172" transform="translate(-56.391 -50.083)" fill="none" stroke="#fff" stroke-linecap="round" stroke-linejoin="round" stroke-width="3"/>
    <path id="Path_1103" data-name="Path 1103" d="M-1848.53,875.578l3.432-2.9,1.322,3.878" transform="translate(-66.373 -36.486)" fill="rgba(255,255,255,0.99)" stroke="#fff" stroke-linecap="round" stroke-linejoin="round" stroke-width="3"/>
    <circle id="Ellipse_214" data-name="Ellipse 214" cx="6.456" cy="6.456" r="6.456" transform="translate(-1933.827 845.102)" fill="#fff"/>
    <circle id="Ellipse_215" data-name="Ellipse 215" cx="2.618" cy="2.618" r="2.618" transform="translate(-1968.35 835.945)" fill="none" stroke="#fff" stroke-linecap="round" stroke-linejoin="round" stroke-width="2"/>
    <circle id="Ellipse_216" data-name="Ellipse 216" cx="1.887" cy="1.887" r="1.887" transform="translate(-1893.859 813.21)" fill="none" stroke="#fff" stroke-linecap="round" stroke-linejoin="round" stroke-width="1"/>
    <circle id="Ellipse_217" data-name="Ellipse 217" cx="2.618" cy="2.618" r="2.618" transform="translate(-1893.859 857.135)" fill="#fff"/>
    <circle id="Ellipse_218" data-name="Ellipse 218" cx="2.049" cy="2.049" r="2.049" transform="translate(-1953.564 873.256)" fill="#fff"/>
    <circle id="Ellipse_219" data-name="Ellipse 219" cx="4.583" cy="4.583" r="4.583" transform="translate(-1904.312 817.876)" fill="none" stroke="#fff" stroke-linecap="round" stroke-linejoin="round" stroke-width="3"/>
    <circle id="Ellipse_220" data-name="Ellipse 220" cx="4.583" cy="4.583" r="4.583" transform="translate(-1961.276 877.353)" fill="#fff"/>
  </g>
</svg>
