<svg xmlns="http://www.w3.org/2000/svg" width="96.5" height="100.117" viewBox="0 0 96.5 100.117">
  <g id="Layer_28" transform="translate(1547.396 -1215.8)">
    <path id="Path_1117" data-name="Path 1117" d="M-1542.3,1256.09a5.054,5.054,0,0,1-4.367-7.63c.112-.186.234-.371.366-.552a6.141,6.141,0,0,1,7.787-2.144,9.694,9.694,0,0,1,4.421-4.817c3.771-1.671,8.568.615,11.577,5.916,5.129-3.5,10.693-2.364,13.092,1.622.015.029.034.054.049.083a5.049,5.049,0,0,1-4.431,7.523Z" transform="translate(0 -11.82)" fill="#fff"/>
    <circle id="Ellipse_224" data-name="Ellipse 224" cx="5.139" cy="5.139" r="5.139" transform="translate(-1502.613 1247.792)" fill="none" stroke="#fff" stroke-linecap="round" stroke-linejoin="round" stroke-width="3"/>
    <path id="Path_1119" data-name="Path 1119" d="M-1452.264,1247.816V1217.3h-5.227l-2.6,28.249,3.913.415v3.073A7.212,7.212,0,0,1-1452.264,1247.816Z" transform="translate(-44.658 0)" fill="#182ac3" stroke="#fff" stroke-linecap="round" stroke-linejoin="round" stroke-width="3"/>
    <path id="Path_1120" data-name="Path 1120" d="M-1483.971,1293.91l-27.419,13.389,2.291,4.695,26.525-10.063-1.343-3.7,2.76-1.348A7.081,7.081,0,0,1-1483.971,1293.91Z" transform="translate(-18.418 -39.187)" fill="#182ac3" stroke="#fff" stroke-linecap="round" stroke-linejoin="round" stroke-width="3"/>
    <path id="Path_1121" data-name="Path 1121" d="M-1435.79,1288.863l28.376,11.221,1.92-4.86-25.318-12.8-1.822,3.483-2.858-1.128A7.122,7.122,0,0,1-1435.79,1288.863Z" transform="translate(-57.088 -33.309)" fill="#182ac3" stroke="#fff" stroke-linecap="round" stroke-linejoin="round" stroke-width="3"/>
    <path id="Path_1122" data-name="Path 1122" d="M-1447.4,1321.172v45.884h-8.319V1320.21" transform="translate(-46.893 -52.639)" fill="none" stroke="#fff" stroke-linecap="round" stroke-linejoin="round" stroke-width="3"/>
    <line id="Line_510" data-name="Line 510" y2="4.089" transform="translate(-1494.294 1256.965)" fill="none" stroke="#fff" stroke-linecap="round" stroke-linejoin="round" stroke-width="3"/>
    <path id="Path_1123" data-name="Path 1123" d="M-1398.49,1371.219h-43.52l3.038-28.039h37.78Z" transform="translate(-53.906 -64.389)" fill="none" stroke="#fff" stroke-linecap="round" stroke-linejoin="round" stroke-width="3"/>
    <line id="Line_511" data-name="Line 511" x2="4.699" transform="translate(-1459.484 1314.417)" fill="none" stroke="#fff" stroke-linecap="round" stroke-linejoin="round" stroke-width="3"/>
    <line id="Line_512" data-name="Line 512" x2="18.826" transform="translate(-1483.245 1314.417)" fill="none" stroke="#fff" stroke-linecap="round" stroke-linejoin="round" stroke-width="3"/>
    <line id="Line_513" data-name="Line 513" x2="23.472" transform="translate(-1513.78 1314.417)" fill="none" stroke="#fff" stroke-linecap="round" stroke-linejoin="round" stroke-width="3"/>
    <rect id="Rectangle_255" data-name="Rectangle 255" width="6.541" height="7.581" transform="translate(-1477.012 1306.831)" fill="none" stroke="#fff" stroke-linecap="round" stroke-linejoin="round" stroke-width="3"/>
    <g id="Group_82709" data-name="Group 82709" transform="translate(-1483.24 1283.701)">
      <g id="Group_82708" data-name="Group 82708" transform="translate(0 0)">
        <g id="Group_82707" data-name="Group 82707">
          <path id="Path_1128" data-name="Path 1128" d="M-1395.583,1357.47a14.389,14.389,0,0,0-10.239-4.24,14.38,14.38,0,0,0-10.239,4.24" transform="translate(1416.06 -1353.23)" fill="none" stroke="#fff" stroke-linecap="round" stroke-linejoin="round" stroke-width="3"/>
          <path id="Path_1129" data-name="Path 1129" d="M-1395.461,1367.017a10.458,10.458,0,0,0-7.44-3.087,10.446,10.446,0,0,0-7.44,3.087" transform="translate(1413.134 -1358.703)" fill="none" stroke="#fff" stroke-linecap="round" stroke-linejoin="round" stroke-width="3"/>
          <path id="Path_1130" data-name="Path 1130" d="M-1395.324,1376.235a6.516,6.516,0,0,0-4.636-1.925,6.527,6.527,0,0,0-4.641,1.925" transform="translate(1410.198 -1364.013)" fill="none" stroke="#fff" stroke-linecap="round" stroke-linejoin="round" stroke-width="3"/>
        </g>
      </g>
      <path id="Path_1131" data-name="Path 1131" d="M-1395.214,1383.723a2.2,2.2,0,0,1-2.2,2.2,2.2,2.2,0,0,1-2.2-2.2,2.2,2.2,0,0,1,2.2-2.2A2.2,2.2,0,0,1-1395.214,1383.723Z" transform="translate(1407.651 -1367.701)" fill="#fff"/>
    </g>
  </g>
</svg>
