<svg xmlns="http://www.w3.org/2000/svg" width="91.759" height="94.092" viewBox="0 0 91.759 94.092">
  <g id="Layer_29" transform="translate(3189.12 -813.1)">
    <path id="Path_900" data-name="Path 900" d="M-3005.252,970.38h-8.364a1.216,1.216,0,0,0-1.214,1.214v9.142h10.1Z" transform="translate(-93.609 -84.393)" fill="#fff"/>
    <rect id="Rectangle_226" data-name="Rectangle 226" width="88.718" height="91.092" transform="translate(-3187.579 814.6)" fill="none" stroke="#fff" stroke-linecap="round" stroke-linejoin="round" stroke-width="3"/>
    <path id="Path_902" data-name="Path 902" d="M-3181.815,897.5a7.967,7.967,0,0,0-.545-1.439c-.192-.234,3.419-1.3,3.419-1.3l.884,2.342,3.978,4.257-1.329,3.281-3.107,1.586-1.508-.458-2.946-7.786Z" transform="translate(-2.519 -43.426)" fill="none" stroke="#fff" stroke-linecap="round" stroke-linejoin="round" stroke-width="2"/>
    <path id="Path_903" data-name="Path 903" d="M-3173.24,917.824l6.443,17.015,3.423-1.3-6.581-17.372Z" transform="translate(-7.791 -55.025)" fill="none" stroke="#fff" stroke-linecap="round" stroke-linejoin="round" stroke-width="2"/>
    <path id="Path_904" data-name="Path 904" d="M-3167.089,945.194s3.029-4.509,3.267-4.6.711-.477,1.434,1.792,1.5,5.4,1.5,5.4a7.5,7.5,0,0,1,4.033,2.864c2.557,3.79-.1,8.491-.289,8.812a10.259,10.259,0,0,1-5.875,4.413,10.524,10.524,0,0,1-8.12-.321,10.532,10.532,0,0,1-3.442-3.176c-2.241-3.2.137-6.709.119-7.662s-5.421-10.334-5.545-11.021.009-1.425,2.484.037,6.168,3.978,6.168,3.978l.875,2.31,3.423-1.3Z" transform="translate(-4.107 -68.212)" fill="none" stroke="#fff" stroke-linecap="round" stroke-linejoin="round" stroke-width="2"/>
    <path id="Path_905" data-name="Path 905" d="M-3182.949,909.841l2.342-.884a1.225,1.225,0,0,1,1.581.715h0a1.226,1.226,0,0,1-.715,1.581l-2.342.884a1.226,1.226,0,0,1-1.581-.715h0A1.225,1.225,0,0,1-3182.949,909.841Z" transform="translate(-2.1 -51.074)" fill="#c5e1f9" stroke="#fff" stroke-linecap="round" stroke-linejoin="round" stroke-width="1"/>
    <path id="Path_906" data-name="Path 906" d="M-3153.985,960.165l-4.23,1.6a1.035,1.035,0,0,1-1.333-.6h0a1.036,1.036,0,0,1,.6-1.333l4.23-1.6a1.035,1.035,0,0,1,1.333.6h0A1.039,1.039,0,0,1-3153.985,960.165Z" transform="translate(-15.171 -77.775)" fill="#fff"/>
    <path id="Path_907" data-name="Path 907" d="M-3151.246,967.29l-5.627,2.131a1.178,1.178,0,0,1-1.517-.683h0a1.178,1.178,0,0,1,.683-1.517l5.627-2.131a1.178,1.178,0,0,1,1.517.683h0A1.172,1.172,0,0,1-3151.246,967.29Z" transform="translate(-15.794 -81.486)" fill="#fff"/>
    <path id="Path_908" data-name="Path 908" d="M-3145.356,979.4l-6.617,2.507-.242-.637a2.545,2.545,0,0,1,1.475-3.281l1.861-.706a2.545,2.545,0,0,1,3.281,1.476Z" transform="translate(-19.09 -88.043)" fill="#fff"/>
    <line id="Line_437" data-name="Line 437" x1="88.718" transform="translate(-3187.579 896.343)" fill="none" stroke="#fff" stroke-linecap="round" stroke-linejoin="round" stroke-width="3"/>
    <line id="Line_438" data-name="Line 438" x2="88.718" transform="translate(-3187.62 825.479)" fill="none" stroke="#fff" stroke-linecap="round" stroke-linejoin="round" stroke-width="3"/>
    <circle id="Ellipse_171" data-name="Ellipse 171" cx="18.211" cy="18.211" r="18.211" transform="translate(-3158.498 857.768)" fill="none" stroke="#fff" stroke-linecap="round" stroke-linejoin="round" stroke-width="3"/>
    <circle id="Ellipse_172" data-name="Ellipse 172" cx="12.478" cy="12.478" r="12.478" transform="translate(-3152.515 863.651)" fill="#fff"/>
    <path id="Path_909" data-name="Path 909" d="M-3089,904.844V901.26h3.5v3.506Z" transform="translate(-53.427 -46.948)" fill="none" stroke="#fff" stroke-linecap="round" stroke-linejoin="round" stroke-width="2"/>
    <path id="Path_910" data-name="Path 910" d="M-3088.654,897.1h-16.616a1.76,1.76,0,0,1-1.76-1.76h0a1.76,1.76,0,0,1,1.76-1.76h16.616a1.76,1.76,0,0,1,1.76,1.76h0A1.754,1.754,0,0,1-3088.654,897.1Z" transform="translate(-43.66 -42.787)" fill="none" stroke="#fff" stroke-linecap="round" stroke-linejoin="round" stroke-width="3"/>
    <path id="Path_911" data-name="Path 911" d="M-3115.312,975.78l-1.728,5.733s.266,2.594,2.992,1.329l1.672-4.537Z" transform="translate(-38.236 -87.319)" fill="none" stroke="#fff" stroke-linecap="round" stroke-linejoin="round" stroke-width="2"/>
    <path id="Path_912" data-name="Path 912" d="M-3059.932,976.81l1.728,5.733s-.266,2.594-2.992,1.329l-1.673-4.537Z" transform="translate(-67.583 -87.877)" fill="none" stroke="#fff" stroke-linecap="round" stroke-linejoin="round" stroke-width="2"/>
    <path id="Path_913" data-name="Path 913" d="M-3032.83,897.149v1.512h4.674v9.692s2.268,3.506,5.5,3.162a4.038,4.038,0,0,0,3.987-4.34c0-2.053-1.412-5.49-6.429-3.7V895.22h-5.806A1.931,1.931,0,0,0-3032.83,897.149Z" transform="translate(-83.857 -43.676)" fill="#fff"/>
    <path id="Path_914" data-name="Path 914" d="M-3153.62,871.493v.793h2.452v5.082s1.191,1.838,2.882,1.659a2.114,2.114,0,0,0,2.09-2.277c0-1.077-.738-2.878-3.373-1.943V870.48h-3.047A1.008,1.008,0,0,0-3153.62,871.493Z" transform="translate(-18.419 -30.273)" fill="#fff"/>
    <rect id="Rectangle_227" data-name="Rectangle 227" width="3.671" height="6.095" transform="translate(-3143.357 825.479)" fill="none" stroke="#fff" stroke-linecap="round" stroke-linejoin="round" stroke-width="2"/>
    <rect id="Rectangle_228" data-name="Rectangle 228" width="13.161" height="4.624" transform="translate(-3148.105 831.574)" fill="none" stroke="#fff" stroke-linecap="round" stroke-linejoin="round" stroke-width="3"/>
    <path id="Path_915" data-name="Path 915" d="M-3009.641,963.28h-13.289v13.61" transform="translate(-89.22 -80.547)" fill="none" stroke="#fff" stroke-linecap="round" stroke-linejoin="round" stroke-width="3"/>
    <path id="Path_1192" data-name="Path 1192" d="M4.985-1.8H1.193V-9.1h.856V-2.57H4.985Zm1.977,0H6.106V-9.1h.856ZM14.315-9.1,11.609-1.8h-.943L8.017-9.1h.953l2.023,5.794a3.44,3.44,0,0,1,.148.647h.02a3.174,3.174,0,0,1,.168-.657L13.393-9.1ZM19.237-1.8H15.365V-9.1h3.71v.775H16.221V-5.9h2.64v.769h-2.64V-2.57h3.017Z" transform="translate(-3150.823 881.409)" fill="#354b9c"/>
  </g>
</svg>
