<svg xmlns="http://www.w3.org/2000/svg" width="119.129" height="93.037" viewBox="0 0 119.129 93.037">
  <g id="Layer_25" transform="translate(379.152 -69.68)">
    <path id="Path_747" data-name="Path 747" d="M-315.176,95.232c-.117.047-.222.117-.339.175a36.966,36.966,0,0,0-18.076,24.1,37.974,37.974,0,0,0-.812,5.636h-32.175v-.058A13.627,13.627,0,0,1-378.9,111.532,13.635,13.635,0,0,1-367.365,98.07c-.012-.21-.023-.415-.023-.625a7.952,7.952,0,0,1,7.955-7.955,7.935,7.935,0,0,1,4.071,1.127,17.466,17.466,0,0,1,14.478-7.7,17.471,17.471,0,0,1,16.651,12.195,15.331,15.331,0,0,1,4.334-.625A15.186,15.186,0,0,1-315.176,95.232Z" transform="translate(0 -5.091)" fill="#c5e1f9"/>
    <path id="Path_748" data-name="Path 748" d="M-287.16,165c.117.047.222.117.339.175a36.965,36.965,0,0,1,18.076,24.1,37.975,37.975,0,0,1,.812,5.636h32.175v-.058A13.627,13.627,0,0,0-223.436,181.3,13.635,13.635,0,0,0-234.97,167.84c.012-.21.023-.415.023-.625a7.952,7.952,0,0,0-7.955-7.955,7.935,7.935,0,0,0-4.071,1.127,17.466,17.466,0,0,0-14.478-7.7A17.471,17.471,0,0,0-278.1,164.885a15.331,15.331,0,0,0-4.334-.625A15.017,15.017,0,0,0-287.16,165Z" transform="translate(-38.16 -34.113)" fill="#c5e1f9"/>
    <path id="Path_749" data-name="Path 749" d="M-279.071,165.761H-319.96a4.382,4.382,0,0,1-4.38-4.38V91.5a4.382,4.382,0,0,1,4.38-4.38h40.889a4.382,4.382,0,0,1,4.38,4.38v69.88A4.382,4.382,0,0,1-279.071,165.761Z" transform="translate(-22.695 -6.838)" fill="#fff" stroke="#0561fc" stroke-linecap="round" stroke-linejoin="round" stroke-width="2"/>
    <ellipse id="Ellipse_105" data-name="Ellipse 105" cx="4.007" cy="3.843" rx="4.007" ry="3.843" transform="translate(-324.205 147.066)" fill="#c5e1f9"/>
    <ellipse id="Ellipse_106" data-name="Ellipse 106" cx="4.906" cy="4.702" rx="4.906" ry="4.702" transform="translate(-364.054 119.225)" fill="none" stroke="#0561fc" stroke-linecap="round" stroke-linejoin="round" stroke-width="2"/>
    <ellipse id="Ellipse_107" data-name="Ellipse 107" cx="4.007" cy="3.843" rx="4.007" ry="3.843" transform="translate(-326.214 147.066)" fill="none" stroke="#0561fc" stroke-linecap="round" stroke-linejoin="round" stroke-width="2"/>
    <line id="Line_326" data-name="Line 326" x1="49.649" transform="translate(-347.035 143.504)" fill="none" stroke="#0561fc" stroke-linecap="round" stroke-linejoin="round" stroke-width="2"/>
    <line id="Line_327" data-name="Line 327" x1="49.649" transform="translate(-347.035 98.942)" fill="none" stroke="#0561fc" stroke-linecap="round" stroke-linejoin="round" stroke-width="2"/>
    <line id="Line_328" data-name="Line 328" x2="12.744" transform="translate(-328.427 89.842)" fill="none" stroke="#0561fc" stroke-linecap="round" stroke-linejoin="round" stroke-width="2"/>
    <line id="Line_329" data-name="Line 329" x2="12.744" transform="translate(-371.892 91.793)" fill="none" stroke="#0561fc" stroke-linecap="round" stroke-linejoin="round" stroke-width="2"/>
    <line id="Line_330" data-name="Line 330" x2="8.86" transform="translate(-289.828 75.107)" fill="none" stroke="#0561fc" stroke-linecap="round" stroke-linejoin="round" stroke-width="2"/>
    <line id="Line_331" data-name="Line 331" y2="8.854" transform="translate(-285.255 70.68)" fill="none" stroke="#0561fc" stroke-linecap="round" stroke-linejoin="round" stroke-width="2"/>
    <line id="Line_332" data-name="Line 332" x2="4.427" transform="translate(-307.501 105.734)" fill="none" stroke="#0561fc" stroke-linecap="round" stroke-linejoin="round" stroke-width="2"/>
    <line id="Line_333" data-name="Line 333" y2="4.433" transform="translate(-305.218 103.515)" fill="none" stroke="#0561fc" stroke-linecap="round" stroke-linejoin="round" stroke-width="2"/>
    <line id="Line_334" data-name="Line 334" x2="10.84" transform="translate(-371.611 106.978)" fill="none" stroke="#0561fc" stroke-linecap="round" stroke-linejoin="round" stroke-width="2"/>
    <line id="Line_335" data-name="Line 335" x2="12.75" transform="translate(-273.773 123.927)" fill="none" stroke="#0561fc" stroke-linecap="round" stroke-linejoin="round" stroke-width="2"/>
    <line id="Line_336" data-name="Line 336" x2="12.744" transform="translate(-282.627 129.487)" fill="none" stroke="#0561fc" stroke-linecap="round" stroke-linejoin="round" stroke-width="2"/>
    <line id="Line_337" data-name="Line 337" x1="12.744" transform="translate(-378.152 147.376)" fill="none" stroke="#0561fc" stroke-linecap="round" stroke-linejoin="round" stroke-width="2"/>
    <line id="Line_338" data-name="Line 338" x1="12.75" transform="translate(-369.298 152.936)" fill="none" stroke="#0561fc" stroke-linecap="round" stroke-linejoin="round" stroke-width="2"/>
    <line id="Line_339" data-name="Line 339" x1="12.75" transform="translate(-289.005 91.793)" fill="none" stroke="#0561fc" stroke-linecap="round" stroke-linejoin="round" stroke-width="2"/>
    <line id="Line_340" data-name="Line 340" x1="12.744" transform="translate(-280.145 97.353)" fill="none" stroke="#0561fc" stroke-linecap="round" stroke-linejoin="round" stroke-width="2"/>
    <text id="_" data-name="&lt; / &gt;" transform="translate(-340.859 125.279)" fill="none" stroke="#0561fc" stroke-linecap="round" stroke-linejoin="round" stroke-width="0.5" font-size="17" font-family="Myriad Pro"><tspan x="0" y="0">&lt; / &gt;</tspan></text>
    <path id="Path_750" data-name="Path 750" d="M-238.324,189.441c-.181-1.408-.654-2.126-1.635-2.336a3.941,3.941,0,0,1-3.2-5.356,1.885,1.885,0,0,0-.648-2.178,15.781,15.781,0,0,0-3.942-2.324,1.839,1.839,0,0,0-2.5.514A3.814,3.814,0,0,1-252.142,179a4,4,0,0,1-4.24-1.215,1.852,1.852,0,0,0-2.552-.531,14.691,14.691,0,0,0-3.487,1.98,1.838,1.838,0,0,0-.736,2.435,3.976,3.976,0,0,1-3.317,5.3,1.793,1.793,0,0,0-1.653,1.46,11.964,11.964,0,0,0-.111,5.069,1.788,1.788,0,0,0,1.758,1.67,3.984,3.984,0,0,1,3.125,5.554,1.738,1.738,0,0,0,.578,2.289,15.159,15.159,0,0,0,3.936,2.33,1.835,1.835,0,0,0,2.482-.59,4.313,4.313,0,0,1,1.408-1.209,3.935,3.935,0,0,1,4.777.876c.479.5.911,1.086,1.729.993a1.947,1.947,0,0,0,.642-.093,14.8,14.8,0,0,0,3.989-2.389,1.687,1.687,0,0,0,.578-2.173,4.007,4.007,0,0,1,3.154-5.449,1.835,1.835,0,0,0,1.629-1.647A14.261,14.261,0,0,0-238.324,189.441Zm-15.027,6.886a5.079,5.079,0,0,1-5.075-5.029,5.215,5.215,0,0,1,5.175-5.116,5.229,5.229,0,0,1,5.005,5.14A5.085,5.085,0,0,1-253.351,196.326Z" transform="translate(-45.939 -44.214)" fill="#c5e1f9"/>
    <path id="Path_751" data-name="Path 751" d="M-238.314,189.925c-.187-1.408-.66-2.138-1.641-2.342a3.957,3.957,0,0,1-3.212-5.379,1.879,1.879,0,0,0-.654-2.184,15.378,15.378,0,0,0-3.96-2.336,1.832,1.832,0,0,0-2.5.514,3.883,3.883,0,0,1-1.9,1.25,4.027,4.027,0,0,1-4.258-1.221,1.866,1.866,0,0,0-2.564-.537,15.148,15.148,0,0,0-3.5,1.986,1.852,1.852,0,0,0-.736,2.447,3.991,3.991,0,0,1-3.335,5.321,1.812,1.812,0,0,0-1.664,1.46,12.146,12.146,0,0,0-.111,5.087,1.794,1.794,0,0,0,1.764,1.676,4,4,0,0,1,3.136,5.578,1.755,1.755,0,0,0,.578,2.3,15.18,15.18,0,0,0,3.954,2.336,1.839,1.839,0,0,0,2.488-.59,4.412,4.412,0,0,1,1.413-1.215,3.951,3.951,0,0,1,4.795.876c.479.508.911,1.092,1.735.993a2.337,2.337,0,0,0,.648-.088,15.1,15.1,0,0,0,4-2.395,1.7,1.7,0,0,0,.578-2.184,4.028,4.028,0,0,1,3.165-5.472,1.846,1.846,0,0,0,1.641-1.647A13.725,13.725,0,0,0-238.314,189.925Zm-15.08,6.915a5.094,5.094,0,0,1-5.093-5.046,5.23,5.23,0,0,1,5.192-5.134,5.257,5.257,0,0,1,5.029,5.157A5.116,5.116,0,0,1-253.394,196.84Z" transform="translate(-45.89 -44.395)" fill="none" stroke="#0561fc" stroke-linecap="round" stroke-linejoin="round" stroke-width="2"/>
    <path id="Path_752" data-name="Path 752" d="M-241.085,198.4a5.117,5.117,0,0,1-5.122,5.029,5.094,5.094,0,0,1-5.093-5.046,5.23,5.23,0,0,1,5.192-5.134A5.242,5.242,0,0,1-241.085,198.4Z" transform="translate(-53.077 -50.984)" fill="#fff" stroke="#0561fc" stroke-linecap="round" stroke-linejoin="round" stroke-width="2"/>
  </g>
</svg>
