<svg id="Layer_x0020_1" xmlns="http://www.w3.org/2000/svg" width="200.704" height="51.547" viewBox="0 0 200.704 51.547">
  <g id="_439874616">
    <path id="Path_2050" data-name="Path 2050" d="M89.993,25.354a6.125,6.125,0,0,0,1.974,4.826,6.8,6.8,0,0,0,11.626-4.826,6.8,6.8,0,1,0-13.6,0ZM96.793,10a15.564,15.564,0,0,1,11.187,4.387,14.556,14.556,0,0,1,4.606,11.187,14.408,14.408,0,0,1-4.606,10.967,15.038,15.038,0,0,1-11.187,4.387,15.038,15.038,0,0,1-11.187-4.387A14.408,14.408,0,0,1,81,25.574a14.556,14.556,0,0,1,4.606-11.187A15.938,15.938,0,0,1,96.793,10Z" transform="translate(-63.233 -7.807)" fill="#f60"/>
    <path id="Path_2051" data-name="Path 2051" d="M0,15H8.774V36.058h8.555v7.9H0Z" transform="translate(0 -11.71)" fill="#f60"/>
    <path id="Path_2052" data-name="Path 2052" d="M254.812,11.755V24.038a9.628,9.628,0,0,0-3.071-3.51,6.124,6.124,0,0,0-3.948-1.316,6.747,6.747,0,0,0-6.58,6.58,5.665,5.665,0,0,0,1.974,4.606,5.8,5.8,0,0,0,4.606,1.755,5.988,5.988,0,0,0,3.948-1.1,10.221,10.221,0,0,0,3.071-3.071V39.393a17.679,17.679,0,0,1-7.019,1.535,15.937,15.937,0,0,1-11.187-4.387A14.887,14.887,0,0,1,232,25.354a14.269,14.269,0,0,1,4.606-10.748,15.521,15.521,0,0,1,18.206-2.852Z" transform="translate(-181.111 -7.807)" fill="#f60"/>
    <path id="Path_2053" data-name="Path 2053" d="M375.567,28.444v4.168a8.89,8.89,0,0,1-1.974,1.1c-.658.219-1.535.439-2.194.658-.877.219-1.755.439-2.852.658-.877,0-1.755.219-2.413.219a13.392,13.392,0,0,1-9.871-3.948,18.25,18.25,0,0,1-4.826-8.116,6.073,6.073,0,0,1-.219-1.974A5.451,5.451,0,0,1,351,19.451v-.439h0v-.219a14.426,14.426,0,0,1,2.852-9.213,17.531,17.531,0,0,1,6.142-4.826,13.942,13.942,0,0,1,3.948-1.316A20.448,20.448,0,0,1,367.013,3a30.239,30.239,0,0,1,4.826.439,26.756,26.756,0,0,1,3.729,1.535V9.361c-.219-.219-.439-.219-.877-.439-.219-.219-.439-.219-.658-.439a10.078,10.078,0,0,0-3.51-1.535,8.8,8.8,0,0,0-3.29-.658,11.691,11.691,0,0,0-8.774,3.948,12.312,12.312,0,0,0-3.51,8.555c0,3.948,1.1,7.019,3.729,9.213a13.376,13.376,0,0,0,8.555,3.51h.658c.219,0,.658-.219.877-.219a11.734,11.734,0,0,0,3.51-.877,13.091,13.091,0,0,0,3.29-1.974Z" transform="translate(-274.009 -2.342)"/>
    <path id="Path_2054" data-name="Path 2054" d="M481.477,8.555l-5.484,12.284h10.967Zm0-8.555,14.7,32.244h-4.168l-3.51-7.9H474.677l-3.51,7.9H467Z" transform="translate(-364.564)"/>
    <path id="Path_2055" data-name="Path 2055" d="M611.948,10.51V21.916a18.26,18.26,0,0,0,6.8-1.1c1.755-.658,2.413-2.193,2.632-4.168v-.219h0l-.219-.219v-.219h0a4.632,4.632,0,0,0-1.755-3.729c-1.1-1.1-3.071-1.535-6.361-1.755h-.439c-.219.219-.219.219-.439.219h-.219ZM608,7h8.774a8.265,8.265,0,0,1,5.264,2.193,9.484,9.484,0,0,1,2.852,4.168,1.644,1.644,0,0,0,.219,1.1v1.1A7.917,7.917,0,0,1,622.7,21.7a9.59,9.59,0,0,1-5.264,2.852L627.3,37.709h-4.826l-8.993-12.942h-1.535V37.709H608Z" transform="translate(-474.636 -5.465)"/>
    <path id="Path_2056" data-name="Path 2056" d="M695.458,10.51H688V7h18.645v3.51h-7.019v27.2h-4.168Z" transform="translate(-537.088 -5.465)"/>
    <path id="Path_2057" data-name="Path 2057" d="M795.515,19.793c-.219-3.29-1.1-5.922-2.632-7.677a11.752,11.752,0,0,0-5.264-3.51,3.538,3.538,0,0,0-1.974-.658,6.072,6.072,0,0,0-1.974-.219h-.439a10.939,10.939,0,0,0-8.555,3.51,11.7,11.7,0,0,0-3.729,8.335v.219h0v.439a11.02,11.02,0,0,0,3.071,8.335c1.974,2.413,5.264,3.729,9.432,3.948h.439c3.29,0,5.7-.877,7.458-2.632a12.913,12.913,0,0,0,3.729-5.484c.219-.658.219-1.316.439-1.974,0-.658.219-1.316.219-1.755v-.439l-.219-.219v-.219ZM767,19.574c.439-5.045,2.194-8.774,5.484-11.406A16.778,16.778,0,0,1,783.671,4a14.526,14.526,0,0,1,9.871,3.729,17.9,17.9,0,0,1,5.264,7.9,6.4,6.4,0,0,1,.439,1.974,6.074,6.074,0,0,1,.219,1.974,16.79,16.79,0,0,1-4.387,11.845c-3.071,3.071-7.239,4.606-12.284,4.606h-.439a14.223,14.223,0,0,1-9.871-3.51,18.817,18.817,0,0,1-4.826-7.9,7.8,7.8,0,0,1-.439-2.193A8.228,8.228,0,0,1,767,20.232v-.658Z" transform="translate(-598.759 -3.123)"/>
    <path id="Path_2058" data-name="Path 2058" d="M212.7,164.316v10.748h-1.535V164.316H207V163h9.651v1.316Z" transform="translate(-161.595 -127.246)"/>
    <path id="Path_2059" data-name="Path 2059" d="M252,177.439h1.316v1.535c.658-1.1,1.316-1.755,1.974-1.755.219-.219.219-.219.439-.219s.219,0,.658.219v1.316a2.834,2.834,0,0,0-1.755.439h-.219c-.658.439-.877,1.316-.877,2.632v4.387H252Z" transform="translate(-196.724 -138.175)"/>
    <path id="Path_2060" data-name="Path 2060" d="M282.922,183.361v-1.535a11.126,11.126,0,0,0-1.974.439h-.439c-1.1.219-1.755.439-1.974,1.1v.439a1.39,1.39,0,0,0,1.1,1.316h.658a3.538,3.538,0,0,0,1.974-.658C282.7,184.019,282.922,183.8,282.922,183.361Zm2.413,1.755v1.1a2.385,2.385,0,0,1-1.1.219,1.39,1.39,0,0,1-1.316-1.1v-.219a4.739,4.739,0,0,1-3.071,1.316,2.52,2.52,0,0,1-2.413-1.316A3.117,3.117,0,0,1,277,183.8a2.385,2.385,0,0,1,1.535-2.193,4.719,4.719,0,0,1,2.193-.439.806.806,0,0,1,.658-.219q1.316,0,1.316-.658l.219-.219v-.439c0-.658-.439-1.1-1.535-1.316h-.439q-1.974,0-1.974,1.316l-.219.219h-1.316a2.491,2.491,0,0,1,.658-1.755,3.789,3.789,0,0,1,2.852-1.1q2.961,0,3.29,1.974v5.7a.582.582,0,0,0,.658.658C285.116,185.335,285.116,185.335,285.335,185.116Z" transform="translate(-216.24 -138.175)"/>
    <path id="Path_2061" data-name="Path 2061" d="M328.239,180.29h-1.316a2.358,2.358,0,0,0-1.755-1.974h-.439a2.309,2.309,0,0,0-2.193,1.755c0,.439-.219,1.1-.219,1.755,0,1.535.439,2.632,1.316,3.071a1.977,1.977,0,0,0,1.1.219,2.016,2.016,0,0,0,2.193-1.974h1.316a2.939,2.939,0,0,1-1.755,2.852,5.163,5.163,0,0,1-1.755.439,3.5,3.5,0,0,1-3.071-1.755,6.071,6.071,0,0,1-.658-2.852,4.693,4.693,0,0,1,1.535-3.948,3.9,3.9,0,0,1,2.193-.877,3.259,3.259,0,0,1,2.852,1.316h0A2.681,2.681,0,0,1,328.239,180.29Z" transform="translate(-250.589 -138.175)"/>
    <path id="Path_2062" data-name="Path 2062" d="M364.316,163v7.019l3.729-3.51H369.8l-3.071,2.852,3.729,5.7H368.7l-3.071-4.606-1.316,1.316v3.29H363V163Z" transform="translate(-283.376 -127.246)"/>
    <path id="Path_2063" data-name="Path 2063" d="M405.316,164.755H404V163h1.316Zm0,10.309H404V166.51h1.316Z" transform="translate(-315.383 -127.246)"/>
    <path id="Path_2064" data-name="Path 2064" d="M423,177.439h1.316v1.316a2.649,2.649,0,0,1,1.974-1.535c.219-.219.439-.219.877-.219a2.52,2.52,0,0,1,2.413,1.316,1.644,1.644,0,0,1,.219,1.1v6.58h-1.316v-5.922a1.579,1.579,0,0,0-.877-1.535,1.658,1.658,0,0,0-.877-.219,2.108,2.108,0,0,0-1.974,1.316,3.171,3.171,0,0,0-.439,1.535v4.826H423Z" transform="translate(-330.215 -138.175)"/>
    <path id="Path_2065" data-name="Path 2065" d="M467.729,178.316a2.036,2.036,0,0,0-1.974,1.535,4.38,4.38,0,0,0-.439,1.974,3.416,3.416,0,0,0,1.316,3.071,1.977,1.977,0,0,0,1.1.219,2.111,2.111,0,0,0,2.193-1.535,4.276,4.276,0,0,0,.219-1.755q0-2.632-1.316-3.29A9.5,9.5,0,0,0,467.729,178.316Zm2.632-.877h1.316v7.239c0,1.535-.219,2.852-.877,3.51,0,.219,0,.219-.219.439-.439.658-1.316.877-2.632,1.1h-.219a3.277,3.277,0,0,1-3.071-1.535c-.219-.439-.439-.658-.439-1.1h1.316a3.027,3.027,0,0,0,.658.877,1.851,1.851,0,0,0,1.535.439,2.681,2.681,0,0,0,1.974-.658,5.869,5.869,0,0,0,.439-2.413V184.9a3.709,3.709,0,0,1-2.193,1.535h-.439a3.523,3.523,0,0,1-2.413-1.1h0a4.531,4.531,0,0,1-1.1-3.51,5.363,5.363,0,0,1,1.316-3.948,4.6,4.6,0,0,1,2.413-.877,3.345,3.345,0,0,1,2.632,1.535Z" transform="translate(-362.222 -138.175)"/>
    <path id="Path_2066" data-name="Path 2066" d="M532,177.439h1.316v1.1a2.67,2.67,0,0,1,2.193-1.316c0-.219.219-.219.439-.219a2.42,2.42,0,0,1,2.193,1.1.215.215,0,0,0,.219.219,2.3,2.3,0,0,1,1.974-1.1.806.806,0,0,1,.658-.219,2.219,2.219,0,0,1,2.413,1.755v7.239H542.09v-5.922a1.737,1.737,0,0,0-1.1-1.755h-.439a2,2,0,0,0-1.755.877,3.117,3.117,0,0,0-.439,1.316v5.484h-1.316v-5.922c0-1.1-.439-1.535-1.1-1.755h-.439a2,2,0,0,0-1.755.877,3.118,3.118,0,0,0-.439,1.316v5.484H532Z" transform="translate(-415.306 -138.175)"/>
    <path id="Path_2067" data-name="Path 2067" d="M600.7,183.361v-1.535c-.219,0-.877.219-1.755.439h-.439c-1.1.219-1.755.439-1.974,1.1v.439c0,.658.219,1.1,1.1,1.316h.439a3.706,3.706,0,0,0,2.194-.658C600.484,184.019,600.7,183.8,600.7,183.361Zm2.413,1.755v1.1a1.319,1.319,0,0,1-.877.219c-.877,0-1.316-.439-1.316-1.1v-.219a4.739,4.739,0,0,1-3.071,1.316,2.872,2.872,0,0,1-2.632-1.316A2.782,2.782,0,0,1,595,183.8a2.111,2.111,0,0,1,1.535-2.193,4.719,4.719,0,0,1,2.194-.439.806.806,0,0,1,.658-.219c.658,0,1.316-.219,1.316-.658v-.658q0-.987-1.316-1.316h-.658a1.764,1.764,0,0,0-1.974,1.316v.219h-1.316a4.132,4.132,0,0,1,.439-1.755,4.339,4.339,0,0,1,3.071-1.1c1.974,0,2.852.658,3.071,1.974.219.219.219.219.219.439v5.264a.582.582,0,0,0,.658.658A.215.215,0,0,0,603.116,185.116Z" transform="translate(-464.487 -138.175)"/>
    <path id="Path_2068" data-name="Path 2068" d="M641.948,167.387a2.67,2.67,0,0,0-2.193,1.316,3.733,3.733,0,0,0-.219,1.535v.658a2.643,2.643,0,0,0,2.413,3.29,2.108,2.108,0,0,0,1.974-1.316,3.26,3.26,0,0,0,.439-1.974,3.977,3.977,0,0,0-1.1-3.071A3.118,3.118,0,0,0,641.948,167.387ZM645.677,163v12.064h-1.1v-1.1a4.17,4.17,0,0,1-2.413,1.535h-.439a3.308,3.308,0,0,1-3.071-1.974,5.488,5.488,0,0,1-.658-2.852,4.519,4.519,0,0,1,1.535-3.729,3.9,3.9,0,0,1,2.193-.877,2.864,2.864,0,0,1,2.632,1.535V163Z" transform="translate(-498.055 -127.246)"/>
    <path id="Path_2069" data-name="Path 2069" d="M684.536,180.948h4.826a2.816,2.816,0,0,0-.877-2.193,3.17,3.17,0,0,0-1.535-.439,2.108,2.108,0,0,0-1.974,1.316A3.118,3.118,0,0,0,684.536,180.948Zm6.361,1.1h-6.361c0,.877,0,1.535.439,1.974a2.3,2.3,0,0,0,1.974,1.1,2.377,2.377,0,0,0,2.413-1.755h1.316a3.863,3.863,0,0,1-1.974,2.852c-.658,0-1.1.219-1.755.219a3.608,3.608,0,0,1-3.29-1.755,6.071,6.071,0,0,1-.658-2.852,4.693,4.693,0,0,1,1.535-3.948,4.6,4.6,0,0,1,2.413-.877,3.319,3.319,0,0,1,3.071,1.535,1.14,1.14,0,0,1,.439.877A8.183,8.183,0,0,1,690.9,182.045Z" transform="translate(-533.185 -138.175)"/>
    <path id="Path_2070" data-name="Path 2070" d="M749.535,180.948h4.826a2.816,2.816,0,0,0-.877-2.193,3.17,3.17,0,0,0-1.535-.439,2.108,2.108,0,0,0-1.974,1.316A3.117,3.117,0,0,0,749.535,180.948Zm6.361,1.1h-6.361a4.379,4.379,0,0,0,.439,1.974,2.42,2.42,0,0,0,2.193,1.1,2.309,2.309,0,0,0,2.194-1.755h1.316a3.864,3.864,0,0,1-1.974,2.852c-.439,0-1.1.219-1.755.219a3.608,3.608,0,0,1-3.29-1.755,6.071,6.071,0,0,1-.658-2.852,5.442,5.442,0,0,1,1.535-3.948,4.6,4.6,0,0,1,2.413-.877,3.319,3.319,0,0,1,3.071,1.535,3.029,3.029,0,0,1,.658.877A9.036,9.036,0,0,1,755.9,182.045Z" transform="translate(-583.927 -138.175)"/>
    <path id="Path_2071" data-name="Path 2071" d="M798.7,183.361v-1.535a11.126,11.126,0,0,0-1.974.439h-.219c-1.316.219-1.974.439-2.193,1.1v.439a1.39,1.39,0,0,0,1.1,1.316h.658a2.681,2.681,0,0,0,1.974-.658C798.484,184.019,798.7,183.8,798.7,183.361Zm2.413,1.755v1.1a1.658,1.658,0,0,1-.877.219,1.461,1.461,0,0,1-1.535-1.1v-.219a4.247,4.247,0,0,1-2.852,1.316,2.653,2.653,0,0,1-2.632-1.316A2.783,2.783,0,0,1,793,183.8a2.111,2.111,0,0,1,1.535-2.193,3.708,3.708,0,0,1,1.974-.439.806.806,0,0,1,.658-.219c.877,0,1.316-.219,1.535-.658v-.658q0-.987-1.316-1.316h-.658a1.764,1.764,0,0,0-1.974,1.316v.219h-1.535a2.491,2.491,0,0,1,.658-1.755,3.789,3.789,0,0,1,2.852-1.1q2.961,0,3.29,1.974v5.7c0,.439.219.658.877.658Z" transform="translate(-619.056 -138.175)"/>
    <path id="Path_2072" data-name="Path 2072" d="M842.8,179.852h-1.535c0-1.1-.658-1.535-1.755-1.535-.877,0-1.535.219-1.755.877v.439c0,.439.219.877,1.1,1.1a.766.766,0,0,0,.439.219l1.316.219c1.316.439,2.194.877,2.413,1.755v.658a2.372,2.372,0,0,1-1.535,2.413,4.38,4.38,0,0,1-1.974.439c-2.193,0-3.29-.877-3.51-2.632v-.439h1.535a1.289,1.289,0,0,0,.439,1.1,1.708,1.708,0,0,0,1.535.658q1.645,0,1.974-.658c0-.219.219-.439.219-.658a1.457,1.457,0,0,0-.877-1.1l-.439-.219-1.316-.219a7.143,7.143,0,0,1-2.632-1.316c0-.439-.219-.658-.219-1.316a2.413,2.413,0,0,1,1.316-2.193A6.405,6.405,0,0,1,839.51,177c1.755,0,2.632.658,3.071,1.755A9.5,9.5,0,0,1,842.8,179.852Z" transform="translate(-652.624 -138.175)"/>
    <path id="Path_2073" data-name="Path 2073" d="M881.142,179h1.535l-3.948,10.529a6.826,6.826,0,0,1-.877,1.316,3.118,3.118,0,0,1-1.316.439c-.439,0-.658-.219-.877-.219v-1.316c.219,0,.439.219.658.219a1.457,1.457,0,0,0,1.1-.877h0l.439-1.535L875,179h1.535l2.194,6.58Z" transform="translate(-683.07 -139.737)"/>
    <path id="Path_2074" data-name="Path 2074" d="M133.354,163l-7.677,11.406L118,163Z" transform="translate(-92.117 -127.246)" fill="#f60"/>
  </g>
</svg>
