<svg xmlns="http://www.w3.org/2000/svg" width="111.645" height="111.628" viewBox="0 0 111.645 111.628">
  <g id="Layer_13" transform="translate(2809.65 -435.61)">
    <path id="Path_859" data-name="Path 859" d="M-2649.136,456.086V470.72l-4.247-2.763h-16.891a1.587,1.587,0,0,1-1.586-1.586V456.086a1.587,1.587,0,0,1,1.586-1.586h19.551A1.587,1.587,0,0,1-2649.136,456.086Z" transform="translate(-58.805 -7.503)" fill="#fff"/>
    <path id="Path_860" data-name="Path 860" d="M-2791.39,587.466V602.1l4.247-2.763h16.891a1.587,1.587,0,0,0,1.586-1.586V587.466a1.587,1.587,0,0,0-1.586-1.586H-2789.8A1.587,1.587,0,0,0-2791.39,587.466Z" transform="translate(-7.231 -64.19)" fill="#fff"/>
    <path id="Path_861" data-name="Path 861" d="M-2709.732,537.79h-42.486a4.37,4.37,0,0,1-4.372-4.372V490.932a4.37,4.37,0,0,1,4.372-4.372h42.486a4.37,4.37,0,0,1,4.372,4.372v42.486A4.373,4.373,0,0,1-2709.732,537.79Z" transform="translate(-22.247 -21.336)" fill="none" stroke="#fff" stroke-linecap="round" stroke-linejoin="round" stroke-width="3"/>
    <path id="Path_862" data-name="Path 862" d="M-2741.951,469.446V458.127l-10.779-11.217" transform="translate(-23.912 -4.228)" fill="none" stroke="#fff" stroke-linecap="round" stroke-linejoin="round" stroke-width="3"/>
    <line id="Line_419" data-name="Line 419" y1="20.996" transform="translate(-2753.219 444.222)" fill="none" stroke="#fff" stroke-linecap="round" stroke-linejoin="round" stroke-width="3"/>
    <path id="Path_863" data-name="Path 863" d="M-2689.09,469.861V458.592l10.78-10.722" transform="translate(-51.371 -4.643)" fill="none" stroke="#fff" stroke-linecap="round" stroke-linejoin="round" stroke-width="3"/>
    <path id="Path_864" data-name="Path 864" d="M-2666.48,502.783h11.45q5.168-5.117,10.33-10.233" transform="translate(-61.127 -23.921)" fill="none" stroke="#fff" stroke-linecap="round" stroke-linejoin="round" stroke-width="3"/>
    <line id="Line_420" data-name="Line 420" x2="21.007" transform="translate(-2727.607 491.399)" fill="none" stroke="#fff" stroke-linecap="round" stroke-linejoin="round" stroke-width="3"/>
    <path id="Path_865" data-name="Path 865" d="M-2666.48,555.23h11.444l10.484,10.262" transform="translate(-61.127 -50.966)" fill="none" stroke="#fff" stroke-linecap="round" stroke-linejoin="round" stroke-width="3"/>
    <path id="Path_866" data-name="Path 866" d="M-2688.89,576.67v11.894L-2678,599.786" transform="translate(-51.458 -60.217)" fill="none" stroke="#fff" stroke-linecap="round" stroke-linejoin="round" stroke-width="3"/>
    <line id="Line_421" data-name="Line 421" y2="22.19" transform="translate(-2753.219 516.453)" fill="none" stroke="#fff" stroke-linecap="round" stroke-linejoin="round" stroke-width="3"/>
    <path id="Path_867" data-name="Path 867" d="M-2741.662,576.67v11.4l-11.768,11.558" transform="translate(-23.61 -60.217)" fill="none" stroke="#fff" stroke-linecap="round" stroke-linejoin="round" stroke-width="3"/>
    <path id="Path_868" data-name="Path 868" d="M-2773.876,554.49h-11.655l-11.109,11.223" transform="translate(-4.966 -50.646)" fill="none" stroke="#fff" stroke-linecap="round" stroke-linejoin="round" stroke-width="3"/>
    <line id="Line_422" data-name="Line 422" x1="22.212" transform="translate(-2801.055 491.399)" fill="none" stroke="#fff" stroke-linecap="round" stroke-linejoin="round" stroke-width="3"/>
    <path id="Path_869" data-name="Path 869" d="M-2773.876,501.951h-11.382l-11.382-11.331" transform="translate(-4.966 -23.088)" fill="none" stroke="#fff" stroke-linecap="round" stroke-linejoin="round" stroke-width="3"/>
    <circle id="Ellipse_142" data-name="Ellipse 142" cx="3.548" cy="3.548" r="3.548" transform="translate(-2783.101 437.127)" fill="none" stroke="#fff" stroke-linecap="round" stroke-linejoin="round" stroke-width="3"/>
    <circle id="Ellipse_143" data-name="Ellipse 143" cx="3.548" cy="3.548" r="3.548" transform="translate(-2756.709 437.127)" fill="none" stroke="#fff" stroke-linecap="round" stroke-linejoin="round" stroke-width="3"/>
    <circle id="Ellipse_144" data-name="Ellipse 144" cx="3.548" cy="3.548" r="3.548" transform="translate(-2730.739 437.11)" fill="none" stroke="#fff" stroke-linecap="round" stroke-linejoin="round" stroke-width="3"/>
    <circle id="Ellipse_145" data-name="Ellipse 145" cx="3.548" cy="3.548" r="3.548" transform="translate(-2706.6 462.137)" fill="none" stroke="#fff" stroke-linecap="round" stroke-linejoin="round" stroke-width="3"/>
    <circle id="Ellipse_146" data-name="Ellipse 146" cx="3.548" cy="3.548" r="3.548" transform="translate(-2706.6 487.851)" fill="none" stroke="#fff" stroke-linecap="round" stroke-linejoin="round" stroke-width="3"/>
    <circle id="Ellipse_147" data-name="Ellipse 147" cx="3.548" cy="3.548" r="3.548" transform="translate(-2706.6 513.361)" fill="none" stroke="#fff" stroke-linecap="round" stroke-linejoin="round" stroke-width="3"/>
    <circle id="Ellipse_148" data-name="Ellipse 148" cx="3.548" cy="3.548" r="3.548" transform="translate(-2808.15 462.137)" fill="none" stroke="#fff" stroke-linecap="round" stroke-linejoin="round" stroke-width="3"/>
    <circle id="Ellipse_149" data-name="Ellipse 149" cx="3.548" cy="3.548" r="3.548" transform="translate(-2808.15 487.851)" fill="none" stroke="#fff" stroke-linecap="round" stroke-linejoin="round" stroke-width="3"/>
    <circle id="Ellipse_150" data-name="Ellipse 150" cx="3.548" cy="3.548" r="3.548" transform="translate(-2807.923 513.867)" fill="none" stroke="#fff" stroke-linecap="round" stroke-linejoin="round" stroke-width="3"/>
    <circle id="Ellipse_151" data-name="Ellipse 151" cx="3.548" cy="3.548" r="3.548" transform="translate(-2730.66 538.643)" fill="none" stroke="#fff" stroke-linecap="round" stroke-linejoin="round" stroke-width="3"/>
    <circle id="Ellipse_152" data-name="Ellipse 152" cx="3.548" cy="3.548" r="3.548" transform="translate(-2756.767 538.643)" fill="none" stroke="#fff" stroke-linecap="round" stroke-linejoin="round" stroke-width="3"/>
    <circle id="Ellipse_153" data-name="Ellipse 153" cx="3.548" cy="3.548" r="3.548" transform="translate(-2782.993 538.643)" fill="none" stroke="#fff" stroke-linecap="round" stroke-linejoin="round" stroke-width="3"/>
    <g id="Group_82651" data-name="Group 82651" transform="translate(-2771.156 474.94)">
      <path id="Path_870" data-name="Path 870" d="M-2718.878,518.113h-4.19a7.232,7.232,0,0,1-7.232-7.232h0a7.231,7.231,0,0,1,7.232-7.232h15.97" transform="translate(2737.566 -503.65)" fill="none" stroke="#fff" stroke-linecap="round" stroke-linejoin="round" stroke-width="3"/>
      <rect id="Rectangle_223" data-name="Rectangle 223" width="5.714" height="25.652" transform="translate(18.688 0.006)" fill="none" stroke="#fff" stroke-linecap="round" stroke-linejoin="round" stroke-width="3"/>
      <path id="Path_871" data-name="Path 871" d="M-2737.509,547.49l-5.572,5.918h37.142" transform="translate(2743.08 -522.566)" fill="none" stroke="#fff" stroke-linecap="round" stroke-linejoin="round" stroke-width="3"/>
      <line id="Line_423" data-name="Line 423" x2="5.697" y2="5.697" transform="translate(0 30.843)" fill="none" stroke="#fff" stroke-linecap="round" stroke-linejoin="round" stroke-width="3"/>
    </g>
  </g>
</svg>
