<svg xmlns="http://www.w3.org/2000/svg" width="35.948" height="35.956" viewBox="0 0 35.948 35.956">
  <path id="Path_2113" data-name="Path 2113" d="M27.52,26.79l-.63-.37-13.68-7c-1.16-.59-1.18-1.2-.39-2.2,1.57-2,3.38-2.32,5.79-1.58,5,1.51,10,2.75,15,4.12a1.07,1.07,0,0,0,1.24-.32c1.63-1.68,3.3-3.34,5-5A9.25,9.25,0,0,1,46,11.7c1.23-.08,1.78.51,1.69,1.74a9.5,9.5,0,0,1-2.78,6.08c-1.69,1.71-3.37,3.41-5.08,5.09a.93.93,0,0,0-.27,1.05C41,31.12,42.48,36.59,44,42a3.31,3.31,0,0,1-1,3.64c-.37.33-.69.7-1,1-.74.7-1.49.57-2-.39-1.4-2.73-2.79-5.48-4.18-8.22l-3.18-6.28c-.22.17-.39.29-.54.42-2.23,2-4.45,4-6.69,6a1.14,1.14,0,0,0-.44,1.09c.19,1.73.32,3.46.48,5.19a3.24,3.24,0,0,1-1.58,3c-.6.44-1.32.12-1.61-.67-.71-1.91-1.43-3.83-2.08-5.76a2.58,2.58,0,0,0-1.78-1.8c-1.89-.64-3.75-1.37-5.62-2.06-1.2-.44-1.34-1.16-.47-2.12A3.21,3.21,0,0,1,15.17,34c1.68.18,3.36.32,5,.43a1.17,1.17,0,0,0,.85-.3c2.1-2.31,4.17-4.66,6.24-7a3,3,0,0,0,.26-.34ZM23.37,46.1a1.54,1.54,0,0,0,.74-1.61c-.17-1.89-.31-3.79-.5-5.69a1.32,1.32,0,0,1,.5-1.22q3.93-3.48,7.84-7c.86-.77,1.14-.71,1.67.32l7.11,14c.12.22.25.44.37.67,2-1.67,2-1.92,1.47-3.71-1.47-5.36-2.89-10.75-4.36-16.11a1.69,1.69,0,0,1,.49-1.93c1.74-1.65,3.4-3.38,5.1-5.07a8.43,8.43,0,0,0,2.36-4.17,16.16,16.16,0,0,0,.22-1.63,8.32,8.32,0,0,0-5.61,2.42c-1.8,1.78-3.6,3.57-5.37,5.4a1.44,1.44,0,0,1-1.62.42q-8.45-2.34-16.93-4.58a2.17,2.17,0,0,0-1.53.14,9.63,9.63,0,0,0-1.59,1.46c.34.18.56.31.79.42l13.93,7.11c1.06.54,1.11.8.34,1.67-2.31,2.6-4.63,5.19-6.91,7.81a1.51,1.51,0,0,1-1.41.56c-1.82-.2-3.65-.34-5.48-.51a1.53,1.53,0,0,0-1.65.75l.81.32,5.17,1.87a2.9,2.9,0,0,1,1.83,1.83c.15.4.29.79.43,1.19C22.17,42.86,22.76,44.46,23.37,46.1Z" transform="translate(-11.752 -11.693)"/>
</svg>
