<svg xmlns="http://www.w3.org/2000/svg" width="32.4" height="31.561" viewBox="0 0 32.4 31.561">
  <path id="Path_2082" data-name="Path 2082" d="M44.06,16.14a26.14,26.14,0,0,0-4.34-1.33A51.36,51.36,0,0,0,30,13.92a64.881,64.881,0,0,0-7.6.46,22.39,22.39,0,0,0-6.89,1.69c-1.33.62-2,1.38-2,2.41V40.96a2.43,2.43,0,0,0,1.85,2.28,23.711,23.711,0,0,0,4.23,1.32A57,57,0,0,0,37.18,45,22.45,22.45,0,0,0,44,43.33c1.1-.5,1.73-1.08,1.91-1.77V17.85a2.59,2.59,0,0,0-1.85-1.71ZM43,42.71a22.88,22.88,0,0,1-6.62,1.5,63.809,63.809,0,0,1-6.89.39,49.79,49.79,0,0,1-9.22-.83,28.58,28.58,0,0,1-3.94-1.16h-.05A1.65,1.65,0,0,1,15,41c0-1.12,0-2.26,0-3.37V36.05a2.62,2.62,0,0,1,0-.35v-.21l.21.06a51.89,51.89,0,0,0,29,0l.22-.06v.24a4.1,4.1,0,0,1,0,.41c0,.49,0,1,0,1.5v3.25C44.58,41.66,44.08,42.25,43,42.71Zm1.52-13.12a38.24,38.24,0,0,1-.08,3.85c0,.5-.83,1-1.48,1.33a20.84,20.84,0,0,1-6.5,1.51,65.351,65.351,0,0,1-7,.4,49.15,49.15,0,0,1-9.24-.84,25.4,25.4,0,0,1-3.74-1.11l-.33-.11c-.78-.29-1.22-.78-1.21-1.4V28.43a.72.72,0,0,1,0-.25l.05-.12h.18a52,52,0,0,0,29,0L44.4,28v.15a8.1,8.1,0,0,1,.11,1.44ZM42.8,27.47a23.28,23.28,0,0,1-6.06,1.38,62.508,62.508,0,0,1-7.22.44,49.56,49.56,0,0,1-9.47-.88,25.27,25.27,0,0,1-3.73-1.11c-.92-.34-1.39-.89-1.37-1.66V20.13l.24.06a51.87,51.87,0,0,0,29.09,0l.23-.06v5.34C44.51,26.25,44.05,27,42.8,27.47Zm.05-8a30.56,30.56,0,0,1-5.62,1.36c-1.78.25-3.64.37-5,.45l-1.29.09A52.36,52.36,0,0,1,19,20.26a14.93,14.93,0,0,1-3-1.05c-.73-.36-1.11-.78-1.08-1.2s.42-.78,1.14-1.07a21.2,21.2,0,0,1,4.71-1.4,54,54,0,0,1,18.46.09,18.86,18.86,0,0,1,3.66,1c1.1.43,1.66.93,1.64,1.45s-.61,1.03-1.68,1.4Z" transform="translate(-13.51 -13.92)"/>
</svg>
