<svg xmlns="http://www.w3.org/2000/svg" width="24.413" height="35.99" viewBox="0 0 24.413 35.99">
  <path id="Path_2111" data-name="Path 2111" d="M41.83,33.41a1.64,1.64,0,0,0-1.55-1.09c-1.88-.25-3.81-.53-5.75-.82a1,1,0,0,1-.67-.42c-.76-1.48-1.49-2.93-2.26-4.47l-.67-1.34h.16a1.91,1.91,0,0,0,1.65-1.61,12.7,12.7,0,0,0,0-1.75V21h.07l1.46-.84c1.17-.68,2.39-1.39,3.56-2.11a3.61,3.61,0,0,0,1.89-3.21v-.61a11.249,11.249,0,0,0,0-1.64,1.72,1.72,0,0,0-.3-.61c-.06-.08-.11-.17-.16-.25H20.16L20,11.9a1.57,1.57,0,0,0-.31.62,7.43,7.43,0,0,0,0,1.25c0,.25,0,.51,0,.75a3.8,3.8,0,0,0,2.08,3.58L24.92,20l1.82,1v.09c-.44,2.55-.05,3.6,1.57,4.15l.15.06-.69,1.35c-.71,1.44-1.46,2.94-2.22,4.4a1,1,0,0,1-.66.42c-1.8.27-3.71.56-5.68.81-.95.12-1.45.47-1.66,1.17a1.66,1.66,0,0,0,.72,1.76c.4.4.81.79,1.23,1.19.87.85,1.77,1.72,2.68,2.55a1.29,1.29,0,0,1,.43,1.33c-.24,1.27-.47,2.53-.7,3.8l-.21,1.2c-.25,1.39-.08,1.78,1,2.43h.74L24.86,47c1.39-.73,2.85-1.47,4.26-2.23a1.15,1.15,0,0,1,1.16,0c1.42.76,2.86,1.5,4.26,2.23l1.42.72h.74c1.1-.65,1.25-1,1-2.43l-.13-.73c-.25-1.42-.51-2.85-.77-4.27A1.27,1.27,0,0,1,37.23,39c1-.93,2-1.89,3-2.82l1-1A1.57,1.57,0,0,0,41.83,33.41ZM24.46,18.34l-1.54-.9c-1.56-.92-2.15-1.68-2.15-3.1A7.93,7.93,0,0,1,20.9,13v-.11H38.46V13c.39,2.32-.07,3.42-1.83,4.37-1.93,1.06-3.84,2.2-5.62,3.29a2.51,2.51,0,0,1-1.34.43,2.45,2.45,0,0,1-1.29-.4C27.1,19.87,25.76,19.09,24.46,18.34ZM28,23.76c-.22-.24-.23-.65-.16-1.32v-.12H31.6v.12c.08.64.08,1.06-.16,1.31s-.59.3-1.17.3H29.15C28.55,24.05,28.17,24,28,23.76Zm12.51,10c-.36.39-.7.8-1,1.19a21.69,21.69,0,0,1-2.5,2.66,3.1,3.1,0,0,0-1.31,2.48,4.79,4.79,0,0,0,.17,1.17,29.4,29.4,0,0,1,.63,3.32c.07.45.15.91.22,1.36a1.789,1.789,0,0,1,0,.32c0,.06,0,.13,0,.23v.2l-.19-.08-.3-.13-.47-.22-1.3-.65c-1.29-.66-2.63-1.35-3.93-2a1.32,1.32,0,0,0-1.44,0c-1.34.72-2.7,1.42-4,2.09l-1.21.62-.45.21-.39.16-.23.1.17-1c.08-.54.15-1,.24-1.52l.1-.6c.21-1.16.41-2.36.65-3.52a1.57,1.57,0,0,0-.56-1.66c-1-.93-2-1.91-3-2.86l-1.08-1-.34-.36-.29-.32-.17-.19,1.27-.2,2.44-.37.79-.12c.84-.12,1.71-.27,2.57-.35a1.2,1.2,0,0,0,1.06-.75c.68-1.41,1.4-2.82,2.09-4.19l.55-1.08c.07-.13.14-.26.25-.44l.2-.32.11-.19.12.19a3.24,3.24,0,0,1,.2.33c.13.2.22.35.31.52l.4.77c.71,1.42,1.46,2.9,2.17,4.35a1.27,1.27,0,0,0,1.1.82c1.42.16,2.86.38,4.26.59l1.34.19.68.13.34.07Z" transform="translate(-17.509 -11.73)"/>
</svg>
