<svg xmlns="http://www.w3.org/2000/svg" width="40.38" height="25.179" viewBox="0 0 40.38 25.179">
  <path id="Path_2112" data-name="Path 2112" d="M49.86,19.8a.485.485,0,0,0-.72-.42c-.16.06-.29.14-.44.21l-.16.09L39.16,24.8V21.42a4,4,0,0,0-4.32-4.31h-21a4,4,0,0,0-4.33,4.31V38a4,4,0,0,0,4.13,4.27h21.4a3.93,3.93,0,0,0,4.11-4.18c0-.61,0-1.22,0-1.86v-1.5l.85.42.54.27,8,4.38c.72.38,1,.35,1.08.29s.25-.26.25-1V20.22A2,2,0,0,0,49.86,19.8ZM38.1,37.8c0,2.25-1.13,3.41-3.38,3.41H14c-2.25,0-3.38-1.16-3.38-3.42V21.57c0-2.26,1.13-3.4,3.38-3.4H34.65c2.32,0,3.45,1.11,3.45,3.4q.01,8.13,0,16.27Zm10.65.85-3.81-2.07c-1.64-.91-3.29-1.81-5-2.68a1.41,1.41,0,0,1-.83-1.44V26.77a1.33,1.33,0,0,1,.5-1.08c2.25-1.25,4.51-2.49,6.82-3.75l2.25-1.23Z" transform="translate(-9.497 -17.095)"/>
</svg>
