<svg xmlns="http://www.w3.org/2000/svg" width="39.827" height="30.065" viewBox="0 0 39.827 30.065">
  <path id="Path_2086" data-name="Path 2086" d="M46.79,25.87a3.74,3.74,0,0,0-4.54,1.87,2.32,2.32,0,0,1-2.71,1.42h-.59a2.26,2.26,0,0,1-2.2-1.59c-.48-1-1-1.95-1.46-2.92-.92-1.84-1.83-3.68-2.71-5.53A1.53,1.53,0,0,0,30.91,18c-1.79.06-1.87.06-2.15.05s-.57,0-1.94,0a2.05,2.05,0,0,1-2.11-1.24,3.85,3.85,0,0,0-4.62-2,4,4,0,0,0,.08,7.66,3.83,3.83,0,0,0,4.52-2A2.16,2.16,0,0,1,26.9,19.2h1.18c2.29.06,3.78.55,4.66,2.91a35.381,35.381,0,0,0,2,4.2c.36.68.72,1.36,1.06,2l.4.79H19.17a2.6,2.6,0,0,1-1.86-1.23,4.13,4.13,0,0,0-4.73-2,4,4,0,0,0,0,7.64,3.87,3.87,0,0,0,4.58-1.9,2.27,2.27,0,0,1,2.31-1.38H29.79a7.327,7.327,0,0,1,1,.05l1.27.1-.67,2.24c-.67,2.23-1.31,4.37-2,6.5,0,0-.28.87-.9.9h-.56a13,13,0,0,1-2.86,0c-.6-.08-1-.7-1.33-1.24l-.15-.24a4,4,0,0,0-3.34-1.82,4.15,4.15,0,0,0-1,.13,4,4,0,0,0-.5,7.52c1.52.64,3.69.36,4.37-1,1.06-2.15,2.71-2.11,4.17-2.07h.9a7.56,7.56,0,0,1,1.16,0c.52.07.71,0,.92-.74.37-1.3.76-2.6,1.15-3.89.47-1.53.93-3.07,1.36-4.61a2.17,2.17,0,0,1,2.41-1.87h4.58a2.36,2.36,0,0,1,2.44,1.39,3.81,3.81,0,0,0,4.57,1.87,4,4,0,0,0,0-7.64ZM23.21,20.56a2.81,2.81,0,0,1-2,.86h0a2.77,2.77,0,0,1-2-.82,2.86,2.86,0,0,1-.81-2,2.81,2.81,0,0,1,2.76-2.72h0a2.77,2.77,0,0,1,2,4.72ZM15.64,31.71a2.84,2.84,0,0,1-1.91.77h-.12a2.79,2.79,0,1,1,.1-5.58,2.94,2.94,0,0,1,2,.86,2.75,2.75,0,0,1,.82,2,2.78,2.78,0,0,1-.89,1.95Zm4.63,11.85h0A2.85,2.85,0,0,1,17.5,40.8a2.78,2.78,0,0,1,.81-2,2.82,2.82,0,0,1,2-.81h0a2.84,2.84,0,0,1,2.75,2.9A2.88,2.88,0,0,1,20.27,43.56Zm27.41-12a2.78,2.78,0,0,1-2,.9h-.05a2.785,2.785,0,1,1,2.79-2.92,2.79,2.79,0,0,1-.74,2.04Z" transform="translate(-9.766 -14.633)"/>
</svg>
