<svg xmlns="http://www.w3.org/2000/svg" width="33.72" height="33.88" viewBox="0 0 33.72 33.88">
  <path id="Path_2118" data-name="Path 2118" d="M23.46,35.43H13.68c-.58,0-.83-.2-.83-.81V23.77c0-.66.31-.82.89-.82h9.69v-9.4c0-1.18,0-1.2,1.16-1.2H34.75c1.17,0,1.19,0,1.19,1.16V23h9.63c.9,0,1,.08,1,1V34.53c0,.89-.07,1-1,1H36.63c-.56,0-.7.17-.69.7v9c0,.89-.08,1-1,1H24.49c-1,0-1-.07-1-1.06V35.43ZM34.94,45V35.71c0-1.28,0-1.28,1.31-1.28h9.21V24H36.15c-1.21,0-1.21,0-1.21-1.25V13.43H24.47v9.38c0,1.15,0,1.15-1.12,1.15H13.94V34.43h9.25c1.28,0,1.28,0,1.28,1.25V45Z" transform="translate(-12.85 -12.35)"/>
</svg>
