<svg xmlns="http://www.w3.org/2000/svg" xmlns:xlink="http://www.w3.org/1999/xlink" width="1493" height="6" viewBox="0 0 1493 6">
  <defs>
    <clipPath id="clip-path">
      <rect width="1493" height="6" fill="none"/>
    </clipPath>
  </defs>
  <g id="Repeat_Grid_10" data-name="Repeat Grid 10" clip-path="url(#clip-path)">
    <g transform="translate(-427 -1663)">
      <rect id="Rectangle_344" data-name="Rectangle 344" width="10" height="6" rx="3" transform="translate(427 1663)" fill="#fff"/>
    </g>
    <g transform="translate(-397 -1663)">
      <rect id="Rectangle_344-2" data-name="Rectangle 344" width="10" height="6" rx="3" transform="translate(427 1663)" fill="#fff"/>
    </g>
    <g transform="translate(-367 -1663)">
      <rect id="Rectangle_344-3" data-name="Rectangle 344" width="10" height="6" rx="3" transform="translate(427 1663)" fill="#fff"/>
    </g>
    <g transform="translate(-337 -1663)">
      <rect id="Rectangle_344-4" data-name="Rectangle 344" width="10" height="6" rx="3" transform="translate(427 1663)" fill="#fff"/>
    </g>
    <g transform="translate(-307 -1663)">
      <rect id="Rectangle_344-5" data-name="Rectangle 344" width="10" height="6" rx="3" transform="translate(427 1663)" fill="#fff"/>
    </g>
    <g transform="translate(-277 -1663)">
      <rect id="Rectangle_344-6" data-name="Rectangle 344" width="10" height="6" rx="3" transform="translate(427 1663)" fill="#fff"/>
    </g>
    <g transform="translate(-247 -1663)">
      <rect id="Rectangle_344-7" data-name="Rectangle 344" width="10" height="6" rx="3" transform="translate(427 1663)" fill="#fff"/>
    </g>
    <g transform="translate(-217 -1663)">
      <rect id="Rectangle_344-8" data-name="Rectangle 344" width="10" height="6" rx="3" transform="translate(427 1663)" fill="#fff"/>
    </g>
    <g transform="translate(-187 -1663)">
      <rect id="Rectangle_344-9" data-name="Rectangle 344" width="10" height="6" rx="3" transform="translate(427 1663)" fill="#fff"/>
    </g>
    <g transform="translate(-157 -1663)">
      <rect id="Rectangle_344-10" data-name="Rectangle 344" width="10" height="6" rx="3" transform="translate(427 1663)" fill="#fff"/>
    </g>
    <g transform="translate(-127 -1663)">
      <rect id="Rectangle_344-11" data-name="Rectangle 344" width="10" height="6" rx="3" transform="translate(427 1663)" fill="#fff"/>
    </g>
    <g transform="translate(-97 -1663)">
      <rect id="Rectangle_344-12" data-name="Rectangle 344" width="10" height="6" rx="3" transform="translate(427 1663)" fill="#fff"/>
    </g>
    <g transform="translate(-67 -1663)">
      <rect id="Rectangle_344-13" data-name="Rectangle 344" width="10" height="6" rx="3" transform="translate(427 1663)" fill="#fff"/>
    </g>
    <g transform="translate(-37 -1663)">
      <rect id="Rectangle_344-14" data-name="Rectangle 344" width="10" height="6" rx="3" transform="translate(427 1663)" fill="#fff"/>
    </g>
    <g transform="translate(-7 -1663)">
      <rect id="Rectangle_344-15" data-name="Rectangle 344" width="10" height="6" rx="3" transform="translate(427 1663)" fill="#fff"/>
    </g>
    <g transform="translate(23 -1663)">
      <rect id="Rectangle_344-16" data-name="Rectangle 344" width="10" height="6" rx="3" transform="translate(427 1663)" fill="#fff"/>
    </g>
    <g transform="translate(53 -1663)">
      <rect id="Rectangle_344-17" data-name="Rectangle 344" width="10" height="6" rx="3" transform="translate(427 1663)" fill="#fff"/>
    </g>
    <g transform="translate(83 -1663)">
      <rect id="Rectangle_344-18" data-name="Rectangle 344" width="10" height="6" rx="3" transform="translate(427 1663)" fill="#fff"/>
    </g>
    <g transform="translate(113 -1663)">
      <rect id="Rectangle_344-19" data-name="Rectangle 344" width="10" height="6" rx="3" transform="translate(427 1663)" fill="#fff"/>
    </g>
    <g transform="translate(143 -1663)">
      <rect id="Rectangle_344-20" data-name="Rectangle 344" width="10" height="6" rx="3" transform="translate(427 1663)" fill="#fff"/>
    </g>
    <g transform="translate(173 -1663)">
      <rect id="Rectangle_344-21" data-name="Rectangle 344" width="10" height="6" rx="3" transform="translate(427 1663)" fill="#fff"/>
    </g>
    <g transform="translate(203 -1663)">
      <rect id="Rectangle_344-22" data-name="Rectangle 344" width="10" height="6" rx="3" transform="translate(427 1663)" fill="#fff"/>
    </g>
    <g transform="translate(233 -1663)">
      <rect id="Rectangle_344-23" data-name="Rectangle 344" width="10" height="6" rx="3" transform="translate(427 1663)" fill="#fff"/>
    </g>
    <g transform="translate(263 -1663)">
      <rect id="Rectangle_344-24" data-name="Rectangle 344" width="10" height="6" rx="3" transform="translate(427 1663)" fill="#fff"/>
    </g>
    <g transform="translate(293 -1663)">
      <rect id="Rectangle_344-25" data-name="Rectangle 344" width="10" height="6" rx="3" transform="translate(427 1663)" fill="#fff"/>
    </g>
    <g transform="translate(323 -1663)">
      <rect id="Rectangle_344-26" data-name="Rectangle 344" width="10" height="6" rx="3" transform="translate(427 1663)" fill="#fff"/>
    </g>
    <g transform="translate(353 -1663)">
      <rect id="Rectangle_344-27" data-name="Rectangle 344" width="10" height="6" rx="3" transform="translate(427 1663)" fill="#fff"/>
    </g>
    <g transform="translate(383 -1663)">
      <rect id="Rectangle_344-28" data-name="Rectangle 344" width="10" height="6" rx="3" transform="translate(427 1663)" fill="#fff"/>
    </g>
    <g transform="translate(413 -1663)">
      <rect id="Rectangle_344-29" data-name="Rectangle 344" width="10" height="6" rx="3" transform="translate(427 1663)" fill="#fff"/>
    </g>
    <g transform="translate(443 -1663)">
      <rect id="Rectangle_344-30" data-name="Rectangle 344" width="10" height="6" rx="3" transform="translate(427 1663)" fill="#fff"/>
    </g>
    <g transform="translate(473 -1663)">
      <rect id="Rectangle_344-31" data-name="Rectangle 344" width="10" height="6" rx="3" transform="translate(427 1663)" fill="#fff"/>
    </g>
    <g transform="translate(503 -1663)">
      <rect id="Rectangle_344-32" data-name="Rectangle 344" width="10" height="6" rx="3" transform="translate(427 1663)" fill="#fff"/>
    </g>
    <g transform="translate(533 -1663)">
      <rect id="Rectangle_344-33" data-name="Rectangle 344" width="10" height="6" rx="3" transform="translate(427 1663)" fill="#fff"/>
    </g>
    <g transform="translate(563 -1663)">
      <rect id="Rectangle_344-34" data-name="Rectangle 344" width="10" height="6" rx="3" transform="translate(427 1663)" fill="#fff"/>
    </g>
    <g transform="translate(593 -1663)">
      <rect id="Rectangle_344-35" data-name="Rectangle 344" width="10" height="6" rx="3" transform="translate(427 1663)" fill="#fff"/>
    </g>
    <g transform="translate(623 -1663)">
      <rect id="Rectangle_344-36" data-name="Rectangle 344" width="10" height="6" rx="3" transform="translate(427 1663)" fill="#fff"/>
    </g>
    <g transform="translate(653 -1663)">
      <rect id="Rectangle_344-37" data-name="Rectangle 344" width="10" height="6" rx="3" transform="translate(427 1663)" fill="#fff"/>
    </g>
    <g transform="translate(683 -1663)">
      <rect id="Rectangle_344-38" data-name="Rectangle 344" width="10" height="6" rx="3" transform="translate(427 1663)" fill="#fff"/>
    </g>
    <g transform="translate(713 -1663)">
      <rect id="Rectangle_344-39" data-name="Rectangle 344" width="10" height="6" rx="3" transform="translate(427 1663)" fill="#fff"/>
    </g>
    <g transform="translate(743 -1663)">
      <rect id="Rectangle_344-40" data-name="Rectangle 344" width="10" height="6" rx="3" transform="translate(427 1663)" fill="#fff"/>
    </g>
    <g transform="translate(773 -1663)">
      <rect id="Rectangle_344-41" data-name="Rectangle 344" width="10" height="6" rx="3" transform="translate(427 1663)" fill="#fff"/>
    </g>
    <g transform="translate(803 -1663)">
      <rect id="Rectangle_344-42" data-name="Rectangle 344" width="10" height="6" rx="3" transform="translate(427 1663)" fill="#fff"/>
    </g>
    <g transform="translate(833 -1663)">
      <rect id="Rectangle_344-43" data-name="Rectangle 344" width="10" height="6" rx="3" transform="translate(427 1663)" fill="#fff"/>
    </g>
    <g transform="translate(863 -1663)">
      <rect id="Rectangle_344-44" data-name="Rectangle 344" width="10" height="6" rx="3" transform="translate(427 1663)" fill="#fff"/>
    </g>
    <g transform="translate(893 -1663)">
      <rect id="Rectangle_344-45" data-name="Rectangle 344" width="10" height="6" rx="3" transform="translate(427 1663)" fill="#fff"/>
    </g>
    <g transform="translate(923 -1663)">
      <rect id="Rectangle_344-46" data-name="Rectangle 344" width="10" height="6" rx="3" transform="translate(427 1663)" fill="#fff"/>
    </g>
    <g transform="translate(953 -1663)">
      <rect id="Rectangle_344-47" data-name="Rectangle 344" width="10" height="6" rx="3" transform="translate(427 1663)" fill="#fff"/>
    </g>
    <g transform="translate(983 -1663)">
      <rect id="Rectangle_344-48" data-name="Rectangle 344" width="10" height="6" rx="3" transform="translate(427 1663)" fill="#fff"/>
    </g>
    <g transform="translate(1013 -1663)">
      <rect id="Rectangle_344-49" data-name="Rectangle 344" width="10" height="6" rx="3" transform="translate(427 1663)" fill="#fff"/>
    </g>
    <g transform="translate(1043 -1663)">
      <rect id="Rectangle_344-50" data-name="Rectangle 344" width="10" height="6" rx="3" transform="translate(427 1663)" fill="#fff"/>
    </g>
  </g>
</svg>
