<svg id="Layer_1" data-name="Layer 1" xmlns="http://www.w3.org/2000/svg" viewBox="0 0 130 130"><defs><style>.cls-1,.cls-4{fill:none;}.cls-1,.cls-3,.cls-4{stroke:#fff;}.cls-1,.cls-3{stroke-linecap:round;stroke-linejoin:round;stroke-width:4px;}.cls-2{fill:#c5e1f9;}.cls-3{fill:#0561fc;}.cls-4{stroke-miterlimit:10;}</style></defs><path class="cls-1" d="M65,45.32V11a6,6,0,0,1,6-6h30.09"/><path class="cls-1" d="M65,45.32V11a6,6,0,0,0-6-6H28.91"/><rect class="cls-2" x="61.54" y="45.32" width="6.92" height="79.68"/><path class="cls-1" d="M45,5A6.81,6.81,0,0,1,31.64,5Z"/><path class="cls-1" d="M99,5A6.81,6.81,0,0,1,85.65,5Z"/><line class="cls-1" x1="5.02" y1="125" x2="124.98" y2="125"/><line class="cls-1" x1="38.32" y1="18.97" x2="38.32" y2="22.15"/><line class="cls-1" x1="46.83" y1="16.69" x2="48.42" y2="19.44"/><line class="cls-1" x1="53.06" y1="10.46" x2="55.82" y2="12.05"/><line class="cls-1" x1="20.82" y1="12.05" x2="23.58" y2="10.46"/><line class="cls-1" x1="28.22" y1="19.44" x2="29.81" y2="16.69"/><rect class="cls-3" x="38.58" y="58.64" width="52.84" height="46.21"/><polygon class="cls-3" points="65 65.05 46.57 96.97 83.43 96.97 65 65.05"/><line class="cls-3" x1="65" y1="77.64" x2="65" y2="85.02"/><line class="cls-3" x1="65" y1="90.23" x2="65" y2="90.23"/><rect class="cls-4" x="-927.81" y="-107.47" width="1617.81" height="435.04"/></svg>