<svg id="Layer_1" data-name="Layer 1" xmlns="http://www.w3.org/2000/svg" viewBox="0 0 130 130"><defs><style>.cls-1,.cls-3,.cls-4{fill:none;}.cls-1{stroke:#182ac3;}.cls-1,.cls-4{stroke-miterlimit:10;}.cls-2{fill:#fff;}.cls-3,.cls-4{stroke:#fff;}.cls-3{stroke-linecap:round;stroke-linejoin:round;stroke-width:3px;}</style></defs><rect class="cls-1" x="-1369.83" y="-173.06" width="1738.81" height="825.88"/><g id="Layer_41" data-name="Layer 41"><path id="Path_1143" data-name="Path 1143" class="cls-2" d="M63.24,63.1V57.22s.22-1.3,2.17-1.32c1.61,0,1.81,1.1,1.81,1.45v5.76h-4"/><path id="Path_1144" data-name="Path 1144" class="cls-2" d="M71.08,63.1V57.22s.22-1.3,2.17-1.32c1.62,0,1.82,1.1,1.82,1.45v5.76h-4"/><g id="Group_82717" data-name="Group 82717"><g id="Group_82712" data-name="Group 82712"><line id="Line_518" data-name="Line 518" class="cls-3" x1="43.24" y1="35.24" x2="43.24" y2="38.5"/><line id="Line_519" data-name="Line 519" class="cls-3" x1="43.24" y1="16.19" x2="43.24" y2="19.45"/></g><g id="Group_82713" data-name="Group 82713"><line id="Line_520" data-name="Line 520" class="cls-3" x1="47.77" y1="33.81" x2="49.64" y2="36.48"/><line id="Line_521" data-name="Line 521" class="cls-3" x1="36.85" y1="18.2" x2="38.71" y2="20.88"/></g><g id="Group_82714" data-name="Group 82714"><line id="Line_522" data-name="Line 522" class="cls-3" x1="50.66" y1="30.04" x2="53.72" y2="31.16"/><line id="Line_523" data-name="Line 523" class="cls-3" x1="32.76" y1="23.53" x2="35.82" y2="24.64"/></g><g id="Group_82715" data-name="Group 82715"><line id="Line_524" data-name="Line 524" class="cls-3" x1="50.87" y1="25.3" x2="54.02" y2="24.46"/><line id="Line_525" data-name="Line 525" class="cls-3" x1="32.47" y1="30.23" x2="35.62" y2="29.39"/></g><g id="Group_82716" data-name="Group 82716"><line id="Line_526" data-name="Line 526" class="cls-3" x1="48.32" y1="21.29" x2="50.41" y2="18.8"/><line id="Line_527" data-name="Line 527" class="cls-3" x1="36.07" y1="35.89" x2="38.17" y2="33.39"/></g><circle id="Ellipse_227" data-name="Ellipse 227" class="cls-2" cx="43.26" cy="27.32" r="5.07"/></g><line id="Line_528" data-name="Line 528" class="cls-3" x1="105.63" y1="34.64" x2="105.63" y2="45.73"/><path id="Path_1146" data-name="Path 1146" class="cls-3" d="M113.34,78.54S101,86.6,104.19,95.92s14.07,6.87,16.62,2.29a11.54,11.54,0,0,0-.6-12.12A64.64,64.64,0,0,0,113.34,78.54Z"/><path id="Path_1147" data-name="Path 1147" class="cls-3" d="M24.61,82a22.18,22.18,0,0,1,1.11-17.47S29.77,71.69,26.83,82Z"/><path id="Path_1148" data-name="Path 1148" class="cls-3" d="M27.41,83.4a22.22,22.22,0,0,1,16,7.16s-8.1,1.29-16.75-5.08Z"/><path id="Path_1149" data-name="Path 1149" class="cls-3" d="M24.5,85.35a22.24,22.24,0,0,1-16.75,5.1s5.26-6.3,16-7.18Z"/><line id="Line_529" data-name="Line 529" class="cls-3" x1="25.62" y1="84.86" x2="25.62" y2="99.53"/><circle id="Ellipse_228" data-name="Ellipse 228" class="cls-2" cx="25.72" cy="84.25" r="3.3"/><path id="Path_1150" data-name="Path 1150" class="cls-3" d="M32.38,98.72A70.25,70.25,0,0,0,56.46,112.2c3.57,1.11,6.38,1.6,8.87.27,5.91-3.17,5-14,4.93-14.94-.22-6.33-.4-12.34-.62-18.68"/><path id="Path_1151" data-name="Path 1151" class="cls-3" d="M70.84,78.79s11.53-.11,9.81-14.07a2.1,2.1,0,0,0-2.07-1.53c-1.7,0-18.37-.22-18.93,0s-1.7.62-1.53,3.34S57.9,79.76,70.84,78.79Z"/><path id="Path_1152" data-name="Path 1152" class="cls-3" d="M60.78,17.42A48.32,48.32,0,0,1,93,22"/><path id="Path_1153" data-name="Path 1153" class="cls-3" d="M113,44S120,54.39,117.5,71.89"/><path id="Path_1154" data-name="Path 1154" class="cls-3" d="M100.2,103.13S89.78,112.71,75,113.81"/><path id="Path_1155" data-name="Path 1155" class="cls-3" d="M20.51,60.49S22,46,27.46,40.19"/><path id="Path_1156" data-name="Path 1156" class="cls-2" d="M105.43,34.55s.34-8.93,13.79-7.5c0,0-1.84,7.29-8.34,9.31C110.88,36.36,107.23,37.06,105.43,34.55Z"/><path id="Path_1157" data-name="Path 1157" class="cls-2" d="M105.45,34.82S98.17,40,91.1,28.47c0,0,6.9-3,12.47.93C103.56,29.39,106.35,31.86,105.45,34.82Z"/></g><rect class="cls-4" x="-1339.3" y="-46.78" width="1621.72" height="655.76"/></svg>