<svg xmlns="http://www.w3.org/2000/svg" width="117.646" height="100.733" viewBox="0 0 117.646 100.733">
  <g id="Layer_41" transform="translate(790.58 -1222.39)">
    <path id="Path_1143" data-name="Path 1143" d="M-683.4,1306.732v-5.88s.221-1.292,2.174-1.313c1.612-.016,1.811,1.1,1.811,1.444v5.759H-683.4" transform="translate(-50.197 -35.933)" fill="#fff"/>
    <path id="Path_1144" data-name="Path 1144" d="M-668.46,1306.732v-5.88s.221-1.292,2.174-1.313c1.612-.016,1.811,1.1,1.811,1.444v5.759h-3.985" transform="translate(-57.294 -35.933)" fill="#fff"/>
    <g id="Group_82717" data-name="Group 82717" transform="translate(-764.368 1223.89)">
      <g id="Group_82712" data-name="Group 82712" transform="translate(10.773)">
        <line id="Line_518" data-name="Line 518" y2="3.26" transform="translate(0 19.053)" fill="none" stroke="#fff" stroke-linecap="round" stroke-linejoin="round" stroke-width="3"/>
        <line id="Line_519" data-name="Line 519" y2="3.26" fill="none" stroke="#fff" stroke-linecap="round" stroke-linejoin="round" stroke-width="3"/>
      </g>
      <g id="Group_82713" data-name="Group 82713" transform="translate(4.379 2.016)">
        <line id="Line_520" data-name="Line 520" x2="1.869" y2="2.667" transform="translate(10.925 15.608)" fill="none" stroke="#fff" stroke-linecap="round" stroke-linejoin="round" stroke-width="3"/>
        <line id="Line_521" data-name="Line 521" x2="1.869" y2="2.672" fill="none" stroke="#fff" stroke-linecap="round" stroke-linejoin="round" stroke-width="3"/>
      </g>
      <g id="Group_82714" data-name="Group 82714" transform="translate(0.294 7.34)">
        <line id="Line_522" data-name="Line 522" x2="3.061" y2="1.113" transform="translate(17.903 6.515)" fill="none" stroke="#fff" stroke-linecap="round" stroke-linejoin="round" stroke-width="3"/>
        <line id="Line_523" data-name="Line 523" x2="3.061" y2="1.113" fill="none" stroke="#fff" stroke-linecap="round" stroke-linejoin="round" stroke-width="3"/>
      </g>
      <g id="Group_82715" data-name="Group 82715" transform="translate(0 8.269)">
        <line id="Line_524" data-name="Line 524" y1="0.84" x2="3.15" transform="translate(18.401)" fill="none" stroke="#fff" stroke-linecap="round" stroke-linejoin="round" stroke-width="3"/>
        <line id="Line_525" data-name="Line 525" y1="0.845" x2="3.15" transform="translate(0 4.93)" fill="none" stroke="#fff" stroke-linecap="round" stroke-linejoin="round" stroke-width="3"/>
      </g>
      <g id="Group_82716" data-name="Group 82716" transform="translate(3.607 2.609)">
        <line id="Line_526" data-name="Line 526" y1="2.494" x2="2.095" transform="translate(12.243)" fill="none" stroke="#fff" stroke-linecap="round" stroke-linejoin="round" stroke-width="3"/>
        <line id="Line_527" data-name="Line 527" y1="2.494" x2="2.095" transform="translate(0 14.595)" fill="none" stroke="#fff" stroke-linecap="round" stroke-linejoin="round" stroke-width="3"/>
      </g>
      <circle id="Ellipse_227" data-name="Ellipse 227" cx="5.066" cy="5.066" r="5.066" transform="matrix(0.16, -0.987, 0.987, 0.16, 4.988, 15.327)" fill="#fff"/>
    </g>
    <line id="Line_528" data-name="Line 528" y2="11.088" transform="translate(-691.208 1242.344)" fill="none" stroke="#fff" stroke-linecap="round" stroke-linejoin="round" stroke-width="3"/>
    <path id="Path_1146" data-name="Path 1146" d="M-596.728,1342.66s-12.38,8.053-9.156,17.378,14.075,6.867,16.617,2.289a11.533,11.533,0,0,0-.593-12.122A65.083,65.083,0,0,0-596.728,1342.66Z" transform="translate(-86.762 -56.415)" fill="none" stroke="#fff" stroke-linecap="round" stroke-linejoin="round" stroke-width="3"/>
    <path id="Path_1147" data-name="Path 1147" d="M-758.133,1333.482a22.219,22.219,0,0,1,1.113-17.472s4.053,7.135,1.113,17.472Z" transform="translate(-14.094 -43.756)" fill="none" stroke="#fff" stroke-linecap="round" stroke-linejoin="round" stroke-width="3"/>
    <path id="Path_1148" data-name="Path 1148" d="M-752.348,1351.9a22.216,22.216,0,0,1,15.971,7.167s-8.1,1.291-16.753-5.082Z" transform="translate(-17.076 -60.801)" fill="none" stroke="#fff" stroke-linecap="round" stroke-linejoin="round" stroke-width="3"/>
    <path id="Path_1149" data-name="Path 1149" d="M-772.332,1353.744a22.224,22.224,0,0,1-16.748,5.1s5.255-6.3,15.965-7.182Z" transform="translate(0 -60.69)" fill="none" stroke="#fff" stroke-linecap="round" stroke-linejoin="round" stroke-width="3"/>
    <line id="Line_529" data-name="Line 529" y2="14.669" transform="translate(-771.214 1292.561)" fill="none" stroke="#fff" stroke-linecap="round" stroke-linejoin="round" stroke-width="3"/>
    <circle id="Ellipse_228" data-name="Ellipse 228" cx="3.302" cy="3.302" r="3.302" transform="translate(-774.417 1288.655)" fill="#fff"/>
    <path id="Path_1150" data-name="Path 1150" d="M-742.18,1363.121A70.233,70.233,0,0,0-718.1,1376.6c3.57,1.108,6.384,1.607,8.873.273,5.911-3.166,5.014-14.028,4.93-14.942-.221-6.332-.4-12.343-.62-18.674" transform="translate(-22.277 -56.7)" fill="none" stroke="#fff" stroke-linecap="round" stroke-linejoin="round" stroke-width="3"/>
    <path id="Path_1151" data-name="Path 1151" d="M-680.444,1328.932s11.534-.115,9.807-14.075a2.085,2.085,0,0,0-2.063-1.528c-1.7,0-18.37-.226-18.937,0s-1.7.619-1.528,3.334S-693.386,1329.893-680.444,1328.932Z" transform="translate(-45.551 -42.435)" fill="none" stroke="#fff" stroke-linecap="round" stroke-linejoin="round" stroke-width="3"/>
    <path id="Path_1152" data-name="Path 1152" d="M-688.08,1225.337a48.308,48.308,0,0,1,32.22,4.578" transform="translate(-47.974 -0.218)" fill="none" stroke="#fff" stroke-linecap="round" stroke-linejoin="round" stroke-width="3"/>
    <path id="Path_1153" data-name="Path 1153" d="M-588.7,1276.77s7.088,10.437,4.541,27.941" transform="translate(-95.179 -25.118)" fill="none" stroke="#fff" stroke-linecap="round" stroke-linejoin="round" stroke-width="3"/>
    <path id="Path_1154" data-name="Path 1154" d="M-635.771,1389.49s-10.427,9.581-25.179,10.684" transform="translate(-60.861 -78.659)" fill="none" stroke="#fff" stroke-linecap="round" stroke-linejoin="round" stroke-width="3"/>
    <path id="Path_1155" data-name="Path 1155" d="M-764.79,1289.9s1.528-14.485,6.951-20.3" transform="translate(-11.538 -21.712)" fill="none" stroke="#fff" stroke-linecap="round" stroke-linejoin="round" stroke-width="3"/>
    <path id="Path_1156" data-name="Path 1156" d="M-603.03,1251.946s.336-8.93,13.787-7.5c0,0-1.843,7.292-8.337,9.308C-597.581,1253.757-601.229,1254.456-603.03,1251.946Z" transform="translate(-88.372 -9.691)" fill="#fff"/>
    <path id="Path_1157" data-name="Path 1157" d="M-615.972,1252.647s-7.282,5.182-14.348-6.353c0,0,6.9-2.987,12.464.929C-617.862,1247.218-615.079,1249.686-615.972,1252.647Z" transform="translate(-75.41 -10.124)" fill="#fff"/>
  </g>
</svg>
