<svg id="Layer_1" data-name="Layer 1" xmlns="http://www.w3.org/2000/svg" viewBox="0 0 130 130"><defs><style>.cls-1,.cls-2{fill:none;stroke-miterlimit:10;}.cls-1{stroke:#182ac3;}.cls-2{stroke:#fff;}.cls-3{fill:#fff;stroke:#0561fc;stroke-linecap:round;stroke-linejoin:round;stroke-width:4px;}.cls-4{fill:#c5e1f9;}</style></defs><rect class="cls-1" x="-139.54" y="-300.64" width="1702.39" height="601.28"/><rect class="cls-2" x="-127.81" y="-106.23" width="1617.81" height="361.81"/><polyline class="cls-3" points="20.1 23.32 20.1 28.66 109.9 28.66 109.9 23.29"/><line class="cls-3" x1="65" y1="23.32" x2="65" y2="36.94"/><path class="cls-3" d="M86.61,55.9c-1.43-.35-2.86-.69-4.28-1.07a1.15,1.15,0,0,1-.67-.48,17.65,17.65,0,0,1-.94-2.24,1.12,1.12,0,0,1,.15-.8c.65-1.15,1.33-2.28,2-3.41a1.44,1.44,0,0,0-.19-2q-1.8-1.83-3.63-3.64a1.42,1.42,0,0,0-1.89-.2,13,13,0,0,0-1.61,1c-1.49,1.23-3,1.56-4.67.38a1.76,1.76,0,0,1-.7-.79c-.4-1.44-.73-2.91-1.1-4.36a1.5,1.5,0,0,0-1.71-1.37H62.62A1.5,1.5,0,0,0,60.9,38.3a26.43,26.43,0,0,0-.7,2.89,4.43,4.43,0,0,1-.47,1.59l-2.44,1.47a1.07,1.07,0,0,1-1.31,0c-1.08-.7-2.2-1.35-3.32-2a9.78,9.78,0,0,0-1-.47,4.75,4.75,0,0,0-1,.55c-1.25,1.21-2.48,2.45-3.7,3.7a1.38,1.38,0,0,0-.2,1.81,23,23,0,0,0,1.45,2.39A3,3,0,0,1,48.52,54a1.55,1.55,0,0,1-1.07.91c-1.41.31-2.8.66-4.2,1a1.49,1.49,0,0,0-1.34,1.73c0,1.59,0,3.18,0,4.78a1.53,1.53,0,0,0,1.3,1.68c1,.26,2.09.59,3.15.76,1.28.2,2.27.62,2.49,2.07,0,.28.31.53.36.82a1.82,1.82,0,0,1-.06,1c-.6,1.11-1.27,2.18-1.92,3.26a1.45,1.45,0,0,0,.23,2L51,77.61a1.47,1.47,0,0,0,2,.22c.64-.39,1.32-.72,1.92-1.17a3.28,3.28,0,0,1,2.21-.86c-.22,0,1.81.68,2,.82a2,2,0,0,1,.69.8c.4,1.44.73,2.91,1.1,4.36a1.49,1.49,0,0,0,1.72,1.35c1.54,0,3.07,0,4.6,0,1.26,0,1.62-.29,1.93-1.54.35-1.4.69-2.8,1-4.2.15-.56,2.83-1.92,3.36-1.7A2.2,2.2,0,0,1,74,76c1,.6,2,1.19,3,1.81a1.57,1.57,0,0,0,2.19-.25c.7-.74,1.43-1.46,2.16-2.18,2.4-2.37,2.38-2.07.54-4.82-1-1.54-1.49-2.93-.36-4.53a2,2,0,0,1,.85-.75c1.38-.4,2.79-.71,4.19-1.06,1.19-.3,1.49-.67,1.5-1.88V57.79C88.09,56.58,87.79,56.2,86.61,55.9ZM65,69.5A9.46,9.46,0,1,1,74.46,60,9.46,9.46,0,0,1,65,69.5Z"/><path class="cls-3" d="M73,96.46l14.32-7.63s2.94-2,4.5.46c2.49,3.44-.92,4.79-.92,4.79l-8.46,4.51"/><path class="cls-3" d="M90.87,94.08l7.18-3.5s2.49-1.56,4,.65a3.11,3.11,0,0,1-.57,4.32"/><path class="cls-3" d="M76.34,106.35s7.66-.87,7-5.61c-.45-3-5.85-3.79-8.52-4.06s-13.63-1.86-13.63-1.86-15.37-7.46-30.46,5.79l-10.12.1V118.1H32.71l30.37,2.76a12.42,12.42,0,0,0,8.28-1.1c3.87-2.21,36.17-19.05,36.17-19.05a3.72,3.72,0,0,0,1.11-5.53c-2.3-3.58-8.56,1.29-8.56,1.29s-21.81,16.29-43.9,8.28"/><path class="cls-3" d="M61.8,94.8l17.11-9s3-.92,4.23.92.91,3.72.26,4.18"/><circle class="cls-4" cx="20.1" cy="16.32" r="7"/><circle class="cls-4" cx="65" cy="15.86" r="7"/><circle class="cls-4" cx="109.9" cy="15.86" r="7"/></svg>