<svg id="Layer_1" data-name="Layer 1" xmlns="http://www.w3.org/2000/svg" viewBox="0 0 130 130"><defs><style>.cls-1,.cls-2{fill:none;stroke-miterlimit:10;}.cls-1{stroke:#182ac3;}.cls-2{stroke:#fff;}.cls-3{fill:#fff;stroke:#0561fc;stroke-linecap:round;stroke-linejoin:round;stroke-width:4px;}.cls-4{fill:#c5e1f9;}</style></defs><rect class="cls-1" x="-1339.54" y="-300.64" width="1702.39" height="601.28"/><rect class="cls-2" x="-1327.81" y="-106.23" width="1617.81" height="361.81"/><path class="cls-3" d="M119,19.38V63.5a3.39,3.39,0,0,0-3.39-3.39H91.81a3.39,3.39,0,0,0-3.39,3.39V91.19H11V19.38Z"/><path class="cls-4" d="M105.45,50.6v9.51H91.81a3.39,3.39,0,0,0-3.39,3.39v5.07H24.55v-18Z"/><rect class="cls-3" x="11" y="19.38" width="108" height="20.05"/><line class="cls-3" x1="24.55" y1="77.98" x2="61.71" y2="77.98"/><rect class="cls-3" x="88.42" y="60.1" width="30.58" height="50.52" rx="3.39"/><line class="cls-3" x1="112.28" y1="100.75" x2="95.14" y2="100.75"/><line class="cls-3" x1="95.14" y1="92.97" x2="104.84" y2="92.97"/><rect class="cls-4" x="94.15" y="66.05" width="19.11" height="19.11"/></svg>