<svg id="Layer_1" data-name="Layer 1" xmlns="http://www.w3.org/2000/svg" viewBox="0 0 130 130"><defs><style>.cls-1,.cls-2,.cls-4{fill:none;}.cls-1{stroke:#182ac3;}.cls-1,.cls-2{stroke-miterlimit:10;}.cls-2,.cls-4{stroke:#fff;}.cls-3{fill:#fff;}.cls-4{stroke-linecap:round;stroke-linejoin:round;stroke-width:3px;}</style></defs><rect class="cls-1" x="-553.26" y="-134.55" width="1682.04" height="797.25"/><rect class="cls-2" x="-531.14" y="-926.66" width="1621.72" height="1570.98"/><g id="Layer_13" data-name="Layer 13"><path id="Path_859" data-name="Path 859" class="cls-3" d="M124,30.38V49.25l-5.48-3.56H96.77a2.05,2.05,0,0,1-2-2V30.38a2.05,2.05,0,0,1,2-2.05H122A2.05,2.05,0,0,1,124,30.38Z"/><path id="Path_859-2" data-name="Path 859" class="cls-3" d="M8,83.57H33.23a2.05,2.05,0,0,1,2,2.05V98.88a2.05,2.05,0,0,1-2,2.05H11.44L6,104.49V85.62A2.05,2.05,0,0,1,8,83.57Z"/><path id="Path_861" data-name="Path 861" class="cls-4" d="M86.39,90H43.91a4.38,4.38,0,0,1-4.38-4.37h0V43.17A4.37,4.37,0,0,1,43.9,38.8H86.39a4.38,4.38,0,0,1,4.38,4.37h0V85.66A4.38,4.38,0,0,1,86.39,90Z"/><path id="Path_862" data-name="Path 862" class="cls-4" d="M52.51,38.79V27.47L41.73,16.26"/><line id="Line_419" data-name="Line 419" class="cls-4" x1="65.15" y1="38.79" x2="65.15" y2="17.8"/><path id="Path_863" data-name="Path 863" class="cls-4" d="M77.91,38.79V27.52L88.69,16.8"/><line id="Line_420" data-name="Line 420" class="cls-4" x1="90.77" y1="64.97" x2="111.77" y2="64.97"/><path id="Path_865" data-name="Path 865" class="cls-4" d="M90.77,77.84h11.44L112.69,88.1"/><path id="Path_866" data-name="Path 866" class="cls-4" d="M78,90v11.89l10.89,11.22"/><line id="Line_421" data-name="Line 421" class="cls-4" x1="65.15" y1="90.03" x2="65.15" y2="112.22"/><path id="Path_867" data-name="Path 867" class="cls-4" d="M53.1,90v11.4L41.33,113"/><line id="Line_422" data-name="Line 422" class="cls-4" x1="39.53" y1="64.97" x2="17.32" y2="64.97"/><path id="Path_869" data-name="Path 869" class="cls-4" d="M39.53,52.44H28.15L16.77,41.11"/><circle id="Ellipse_142" data-name="Ellipse 142" class="cls-4" cx="38.82" cy="14.25" r="3.55"/><circle id="Ellipse_143" data-name="Ellipse 143" class="cls-4" cx="65.21" cy="14.25" r="3.55"/><circle id="Ellipse_144" data-name="Ellipse 144" class="cls-4" cx="91.18" cy="14.23" r="3.55"/><circle id="Ellipse_146" data-name="Ellipse 146" class="cls-4" cx="115.32" cy="64.97" r="3.55"/><circle id="Ellipse_147" data-name="Ellipse 147" class="cls-4" cx="115.32" cy="90.48" r="3.55"/><circle id="Ellipse_148" data-name="Ellipse 148" class="cls-4" cx="13.77" cy="39.26" r="3.55"/><circle id="Ellipse_149" data-name="Ellipse 149" class="cls-4" cx="13.77" cy="64.97" r="3.55"/><circle id="Ellipse_151" data-name="Ellipse 151" class="cls-4" cx="91.26" cy="115.77" r="3.55"/><circle id="Ellipse_152" data-name="Ellipse 152" class="cls-4" cx="65.15" cy="115.77" r="3.55"/><circle id="Ellipse_153" data-name="Ellipse 153" class="cls-4" cx="38.93" cy="115.77" r="3.55"/><g id="Group_82651" data-name="Group 82651"><path id="Path_870" data-name="Path 870" class="cls-4" d="M72.4,59.56H68.86a6.12,6.12,0,0,1-6.12-6.12h0a6.12,6.12,0,0,1,6.12-6.12H82.37"/><rect id="Rectangle_223" data-name="Rectangle 223" class="cls-4" x="72.4" y="47.33" width="4.83" height="21.7"/><path id="Path_871" data-name="Path 871" class="cls-4" d="M53.08,73.1l-4.14,4.4h27.6"/><line id="Line_423" data-name="Line 423" class="cls-4" x1="48.94" y1="77.5" x2="53.17" y2="81.74"/></g></g></svg>