<svg id="Layer_1" data-name="Layer 1" xmlns="http://www.w3.org/2000/svg" viewBox="0 0 130 130"><defs><style>.cls-1,.cls-2,.cls-3{fill:none;}.cls-1{stroke:#182ac3;}.cls-1,.cls-2{stroke-miterlimit:10;}.cls-2,.cls-3{stroke:#fff;}.cls-3{stroke-linecap:round;stroke-linejoin:round;stroke-width:3px;}.cls-4{fill:#fff;}</style></defs><rect class="cls-1" x="-953.26" y="-134.55" width="1682.04" height="797.25"/><rect class="cls-2" x="-931.14" y="-926.66" width="1621.72" height="1570.98"/><g id="Layer_14" data-name="Layer 14"><path class="cls-3" d="M106.79,8.79V87A5.14,5.14,0,0,1,103,85.22c-1.08-1.2-1.83-1.31-3.31-.7a19.26,19.26,0,0,0-4.52,2.57,2.37,2.37,0,0,0-1,3.15,5,5,0,0,1,.28,1.2,5.15,5.15,0,0,1-4.58,5.66A2.33,2.33,0,0,0,87.73,99a15.44,15.44,0,0,0-.15,6.56,2.32,2.32,0,0,0,2.28,2.17,5,5,0,0,1,1.4.39,5.13,5.13,0,0,1,3,3.82H3.54V8.79Z"/><line id="Line_424" data-name="Line 424" class="cls-3" x1="3.54" y1="29.54" x2="106.79" y2="29.54"/><circle id="Ellipse_154" data-name="Ellipse 154" class="cls-4" cx="12.52" cy="19.16" r="3.32"/><circle id="Ellipse_156" data-name="Ellipse 156" class="cls-4" cx="22.4" cy="19.16" r="3.32"/><path id="Path_872" data-name="Path 872" class="cls-4" d="M84.87,22.46H33.1a3.1,3.1,0,0,1-2.87-3.3h0a3.11,3.11,0,0,1,2.87-3.31H84.87a3.12,3.12,0,0,1,2.88,3.31h0A3.11,3.11,0,0,1,84.87,22.46Z"/><path id="Path_873" data-name="Path 873" class="cls-3" d="M50.48,42.21V53.27H64.54v-9H56.13v-2.1Z"/><path id="Path_874" data-name="Path 874" class="cls-4" d="M18.75,72.14V83.21H32.81v-9H24.4v-2.1Z"/><path id="Path_875" data-name="Path 875" class="cls-4" d="M80.33,72.14V83.21H94.39v-9H86v-2.1Z"/><path id="Path_876" data-name="Path 876" class="cls-4" d="M49.94,72.14V83.21H64v-9H55.58v-2.1Z"/><line id="Line_427" data-name="Line 427" class="cls-3" x1="56.97" y1="57.84" x2="56.97" y2="68"/><path id="Path_877" data-name="Path 877" class="cls-3" d="M25,68.12a7.29,7.29,0,0,1,7.29-7.3H81a7.29,7.29,0,0,1,7.29,7.3"/><path class="cls-3" d="M126.15,105.76a2.38,2.38,0,0,1-2.12,2.13,5.2,5.2,0,0,0-4.4,5.88A5.14,5.14,0,0,0,120,115a2.19,2.19,0,0,1-.75,2.82,19.59,19.59,0,0,1-5.16,3.09,2.92,2.92,0,0,1-.83.12c-1.06.12-1.62-.63-2.24-1.28a5.1,5.1,0,0,0-6.19-1.14,5.69,5.69,0,0,0-1.82,1.56,2.38,2.38,0,0,1-3.21.77,19.87,19.87,0,0,1-5.1-3,2.27,2.27,0,0,1-.74-3,5.07,5.07,0,0,0,.35-3,5.13,5.13,0,0,0-3-3.82,5,5,0,0,0-1.4-.39,2.32,2.32,0,0,1-2.28-2.17A15.44,15.44,0,0,1,87.73,99a2.33,2.33,0,0,1,2.14-1.89,5.15,5.15,0,0,0,4.58-5.66,5,5,0,0,0-.28-1.2,2.37,2.37,0,0,1,1-3.15,19.26,19.26,0,0,1,4.52-2.57c1.48-.61,2.23-.5,3.31.7a5.17,5.17,0,0,0,5.49,1.57,5,5,0,0,0,2.45-1.61c1-1.15,1.77-1.26,3.23-.67a20.16,20.16,0,0,1,5.1,3,2.43,2.43,0,0,1,.85,2.82c-1,3.47.62,6.2,4.14,6.94,1.27.27,1.88,1.2,2.11,3A17.55,17.55,0,0,1,126.15,105.76Z"/><path id="Path_879" data-name="Path 879" class="cls-3" d="M99.57,102.12l4.44,5.7,9.58-9.58"/></g></svg>