<svg id="Layer_1" data-name="Layer 1" xmlns="http://www.w3.org/2000/svg" viewBox="0 0 130 130"><defs><style>.cls-1,.cls-2,.cls-3{fill:none;}.cls-1,.cls-4{stroke:#182ac3;}.cls-1,.cls-2{stroke-miterlimit:10;}.cls-2,.cls-3{stroke:#fff;}.cls-3,.cls-4{stroke-linecap:round;stroke-linejoin:round;stroke-width:3px;}.cls-4{fill:#fff;}</style></defs><rect class="cls-1" x="-153.26" y="-534.55" width="1682.04" height="797.25"/><rect class="cls-2" x="-131.14" y="-1326.66" width="1621.72" height="1570.98"/><g id="Layer_16" data-name="Layer 16"><g id="Group_82663" data-name="Group 82663"><g id="Group_82661" data-name="Group 82661"><path id="Path_916" data-name="Path 916" class="cls-3" d="M40,31.65h-22v72.91H31.35S32.86,115,41.23,115.7C52,116.56,53.88,107,53.88,107s3.62,8.79,10.92,8.79c7.91,0,11.39-7.93,11.48-11.44h32.66V31.65H54.49"/><circle id="Ellipse_173" data-name="Ellipse 173" class="cls-4" cx="108.5" cy="104.08" r="14.43"/><line id="Line_439" data-name="Line 439" class="cls-3" x1="40.97" y1="23.5" x2="40.97" y2="39.51"/><line id="Line_440" data-name="Line 440" class="cls-3" x1="54.5" y1="16.7" x2="54.5" y2="45.29"/><line id="Line_441" data-name="Line 441" class="cls-3" x1="62.49" y1="19.92" x2="79.76" y2="19.92"/><line id="Line_442" data-name="Line 442" class="cls-3" x1="28.41" y1="11.49" x2="28.41" y2="26.93"/><line id="Line_443" data-name="Line 443" class="cls-3" x1="20.69" y1="19.28" x2="36.13" y2="19.28"/><path id="Path_917" data-name="Path 917" class="cls-3" d="M7.08,71.47l10.7,10.69L28.26,71.67"/><path id="Path_918" data-name="Path 918" class="cls-3" d="M97.68,56.46l11.17-11.17L120,56.39"/></g><g id="Group_82662" data-name="Group 82662"><circle id="Ellipse_174" data-name="Ellipse 174" class="cls-3" cx="55.01" cy="65.97" r="3.11"/><path id="Path_920" data-name="Path 920" class="cls-3" d="M77.21,92.74h-30a4.57,4.57,0,0,1-4.58-4.57h0v-30a4.58,4.58,0,0,1,4.57-4.58h30a4.57,4.57,0,0,1,4.58,4.57h0v30a4.58,4.58,0,0,1-4.57,4.57Z"/><line id="Line_444" data-name="Line 444" class="cls-3" x1="44.34" y1="54.87" x2="52.78" y2="63.31"/><line id="Line_445" data-name="Line 445" class="cls-3" x1="55.01" y1="80.57" x2="70.76" y2="64.82"/><circle id="Ellipse_175" data-name="Ellipse 175" class="cls-3" cx="70.76" cy="80.57" r="3.11"/><circle id="Ellipse_176" data-name="Ellipse 176" class="cls-3" cx="73.31" cy="62.01" r="3.11"/><circle id="Ellipse_177" data-name="Ellipse 177" class="cls-3" cx="54.09" cy="85" r="3.11"/><line id="Line_446" data-name="Line 446" class="cls-3" x1="80.35" y1="90.59" x2="73.86" y2="83.94"/></g></g></g></svg>