<svg id="Layer_1" data-name="Layer 1" xmlns="http://www.w3.org/2000/svg" viewBox="0 0 130 130"><defs><style>.cls-1,.cls-2,.cls-3{fill:none;}.cls-1{stroke:#182ac3;}.cls-1,.cls-2{stroke-miterlimit:10;}.cls-2,.cls-3,.cls-4{stroke:#fff;}.cls-3,.cls-4{stroke-linecap:round;stroke-linejoin:round;stroke-width:4px;}.cls-4{fill:#0561fc;}.cls-5{fill:#fff;}</style></defs><rect class="cls-1" x="-939.54" y="-300.64" width="1702.39" height="601.28"/><rect class="cls-2" x="-927.81" y="-106.23" width="1617.81" height="361.81"/><path class="cls-3" d="M100.49,26.81V65.5a19.28,19.28,0,0,0-2.16-.12A20.4,20.4,0,0,0,78.64,91.26H14.3a3,3,0,0,1-3-3V26.81a3,3,0,0,1,3-3H97.49A3,3,0,0,1,100.49,26.81Z"/><line class="cls-4" x1="11.3" y1="38.43" x2="100.49" y2="38.43"/><path class="cls-5" d="M25.27,31.12a3,3,0,1,1-3-2.95A3,3,0,0,1,25.27,31.12Z"/><path class="cls-5" d="M34.72,31.12a3,3,0,1,1-3-2.95A3,3,0,0,1,34.72,31.12Z"/><path class="cls-5" d="M92.43,31.12a3,3,0,0,1-3,2.95H69.31a3,3,0,1,1,0-5.9H89.48A3,3,0,0,1,92.43,31.12Z"/><line class="cls-3" x1="19.36" y1="49.28" x2="34.72" y2="49.28"/><line class="cls-3" x1="19.36" y1="59.66" x2="49.03" y2="59.66"/><line class="cls-3" x1="19.36" y1="70.03" x2="49.03" y2="70.03"/><line class="cls-3" x1="19.36" y1="80.4" x2="49.03" y2="80.4"/><path class="cls-5" d="M92.43,49.29V66.24A20.43,20.43,0,0,0,78.62,80.4H61.31V49.29Z"/><path class="cls-3" d="M93.2,85.75c0-2,0-4,0-6,0-1.41,1-2,2.18-1.22q4.88,3,9.72,6.07a1.31,1.31,0,0,1,0,2.45q-4.87,3.07-9.79,6.11c-1.15.71-2.12.15-2.13-1.22C93.19,89.84,93.2,87.8,93.2,85.75Z"/><path class="cls-3" d="M98.33,65.38A20.41,20.41,0,1,1,77.89,85.77,20.4,20.4,0,0,1,98.33,65.38Z"/></svg>