<svg id="Layer_1" data-name="Layer 1" xmlns="http://www.w3.org/2000/svg" viewBox="0 0 130 130"><defs><style>.cls-1{fill:none;stroke:#fff;stroke-miterlimit:10;}.cls-2{fill:#fff;stroke:#0561fc;stroke-linecap:round;stroke-linejoin:round;stroke-width:4px;}.cls-3{fill:#c5e1f9;}</style></defs><rect class="cls-1" x="-77.16" y="-478.42" width="1621.72" height="1131.85"/><line class="cls-2" x1="22.77" y1="63.89" x2="106.43" y2="63.89"/><path class="cls-2" d="M48.36,41.68a13,13,0,0,1,1.27.58c1.36.79,2.71,1.57,4,2.43a1.31,1.31,0,0,0,1.59,0c.24-.16,3-1.77,3-1.77A5.38,5.38,0,0,0,58.78,41a30.7,30.7,0,0,1,.84-3.5,1.82,1.82,0,0,1,2.09-1.65h5.8a1.82,1.82,0,0,1,2.08,1.65c.45,1.77.84,3.55,1.33,5.3a2.22,2.22,0,0,0,.85,1c2,1.42,3.86,1,5.66-.46a15.56,15.56,0,0,1,2-1.2,1.71,1.71,0,0,1,2.29.25c1.48,1.46,2.95,2.94,4.41,4.41a1.76,1.76,0,0,1,.22,2.38c-.84,1.37-1.67,2.74-2.46,4.14a1.36,1.36,0,0,0-.18,1A22.33,22.33,0,0,0,84.81,57a1.39,1.39,0,0,0,.81.58c1.73.46,3.46.87,5.2,1.3,1.42.36,1.79.82,1.8,2.29,0,1.82,0,3.65,0,5.47,0,1.46-.37,1.92-1.82,2.28-1.7.42-3.4.8-5.08,1.29a2.24,2.24,0,0,0-1,.91c-1.38,1.94-.8,3.62.44,5.49,2.22,3.34,2.25,3-.66,5.85-.88.88-1.77,1.74-2.63,2.64a1.88,1.88,0,0,1-2.64.3c-1.21-.75-2.43-1.47-3.65-2.2a4.59,4.59,0,0,0-.57-.32c-.65-.27-3.91,1.38-4.08,2.07-.43,1.69-.85,3.39-1.27,5.08-.37,1.52-.8,1.88-2.33,1.88H61.72a1.81,1.81,0,0,1-2.1-1.63c-.45-1.77-.84-3.55-1.33-5.3a2.47,2.47,0,0,0-.84-1c-.21-.17-2.72-1-2.39-1a4.14,4.14,0,0,0-2.7,1c-.73.54-1.55,1-2.33,1.42a1.78,1.78,0,0,1-2.39-.27l-4.33-4.33A1.76,1.76,0,0,1,43,78.49c.79-1.31,1.61-2.6,2.33-3.95a2.09,2.09,0,0,0,.07-1.27c0-.34-.38-.64-.43-1-.27-1.76-1.48-2.27-3-2.51-1.3-.21-2.56-.61-3.83-.92a1.85,1.85,0,0,1-1.57-2c0-1.93,0-3.87,0-5.8a1.81,1.81,0,0,1,1.63-2.1c1.69-.43,3.38-.86,5.09-1.24a1.88,1.88,0,0,0,1.3-1.1,3.69,3.69,0,0,0-.42-4.63A26.65,26.65,0,0,1,42.43,49a1.67,1.67,0,0,1,.24-2.2c1.48-1.51,3-3,4.49-4.48A5.41,5.41,0,0,1,48.36,41.68Z"/><path class="cls-3" d="M64.64,75.36A11.47,11.47,0,1,0,53.13,63.92,11.46,11.46,0,0,0,64.64,75.36Z"/><line class="cls-2" x1="22.77" y1="42.81" x2="22.77" y2="84.96"/><line class="cls-2" x1="107.23" y1="42.81" x2="107.23" y2="84.96"/><path class="cls-2" d="M107.23,22.27h0a8.41,8.41,0,0,1,8.41,8.41v5.19a0,0,0,0,1,0,0H98.82a0,0,0,0,1,0,0V30.67A8.41,8.41,0,0,1,107.23,22.27Z"/><circle class="cls-2" cx="107.23" cy="17.22" r="5.04"/><path class="cls-2" d="M107.23,104.22h0a8.41,8.41,0,0,1,8.41,8.41v5.19a0,0,0,0,1,0,0H98.82a0,0,0,0,1,0,0v-5.19A8.41,8.41,0,0,1,107.23,104.22Z"/><circle class="cls-2" cx="107.23" cy="99.18" r="5.04"/><path class="cls-2" d="M22.77,22.27h0a8.41,8.41,0,0,1,8.41,8.41v5.19a0,0,0,0,1,0,0H14.36a0,0,0,0,1,0,0V30.67A8.41,8.41,0,0,1,22.77,22.27Z"/><circle class="cls-2" cx="22.77" cy="17.22" r="5.04"/><path class="cls-2" d="M22.77,104.22h0a8.41,8.41,0,0,1,8.41,8.41v5.19a0,0,0,0,1,0,0H14.36a0,0,0,0,1,0,0v-5.19A8.41,8.41,0,0,1,22.77,104.22Z"/><circle class="cls-2" cx="22.77" cy="99.18" r="5.04"/></svg>