<svg id="Layer_1" data-name="Layer 1" xmlns="http://www.w3.org/2000/svg" viewBox="0 0 130 130"><defs><style>.cls-1,.cls-2,.cls-5{fill:none;}.cls-1{stroke:#182ac3;}.cls-1,.cls-2{stroke-miterlimit:10;}.cls-2{stroke:#fff;}.cls-3{fill:#fff;}.cls-3,.cls-5{stroke:#0561fc;stroke-linecap:round;stroke-linejoin:round;stroke-width:4px;}.cls-4{fill:#c5e1f9;}</style></defs><rect class="cls-1" x="-138.77" y="-233.64" width="1517.54" height="601.28"/><rect class="cls-2" x="-127.81" y="-72.14" width="1617.81" height="361.81"/><path class="cls-3" d="M82.53,94.9A25.52,25.52,0,1,1,47.38,71.27V19.21a9.63,9.63,0,0,1,19.26,0V71.27A25.54,25.54,0,0,1,82.53,94.9Z"/><circle class="cls-3" cx="57.01" cy="94.9" r="11.39"/><circle class="cls-4" cx="57.01" cy="94.9" r="9.45"/><path class="cls-5" d="M74.79,30.05a11.7,11.7,0,0,1,0,23.39"/><line class="cls-5" x1="74.79" y1="18.02" x2="74.79" y2="22.38"/><line class="cls-5" x1="74.79" y1="61.11" x2="74.79" y2="65.47"/><line class="cls-5" x1="88.48" y1="55.44" x2="91.56" y2="58.52"/><line class="cls-5" x1="94.15" y1="41.75" x2="98.51" y2="41.75"/><line class="cls-5" x1="88.48" y1="28.05" x2="91.56" y2="24.97"/><line class="cls-3" x1="57.01" y1="18.02" x2="57.01" y2="83.11"/></svg>