<svg id="Layer_1" data-name="Layer 1" xmlns="http://www.w3.org/2000/svg" viewBox="0 0 130 130"><defs><style>.cls-1,.cls-2,.cls-5{fill:none;}.cls-1{stroke:#182ac3;}.cls-1,.cls-2{stroke-miterlimit:10;}.cls-2{stroke:#fff;}.cls-3{fill:#fff;}.cls-3,.cls-5{stroke:#0561fc;stroke-linecap:round;stroke-linejoin:round;stroke-width:4px;}.cls-4{fill:#c5e1f9;}</style></defs><rect class="cls-1" x="-538.77" y="-233.64" width="1517.54" height="601.28"/><rect class="cls-2" x="-527.81" y="-72.14" width="1617.81" height="361.81"/><path class="cls-3" d="M65,26C50.06,41,35.74,58.57,35.74,74.73a29.26,29.26,0,0,0,58.52,0C94.26,58.57,78.84,39.85,65,26Z"/><path class="cls-4" d="M85.05,54.43a28.35,28.35,0,0,0-46.8,29.45h53.5a28.31,28.31,0,0,0-6.7-29.45Z"/><path class="cls-5" d="M85.05,54.43a28.35,28.35,0,0,0-46.8,29.45h53.5a28.31,28.31,0,0,0-6.7-29.45Z"/><line class="cls-5" x1="36.65" y1="74.47" x2="41.91" y2="74.47"/><line class="cls-5" x1="88.09" y1="74.47" x2="93.36" y2="74.47"/><line class="cls-5" x1="81.33" y1="58.15" x2="85.05" y2="54.42"/><line class="cls-5" x1="48.68" y1="58.15" x2="44.95" y2="54.42"/><polyline class="cls-5" points="61.07 71.09 65 75.02 74.92 65.1"/><line class="cls-5" x1="65" y1="51.39" x2="65" y2="46.12"/><line class="cls-5" x1="59.65" y1="93.86" x2="70.35" y2="93.86"/></svg>