<svg id="Layer_1" data-name="Layer 1" xmlns="http://www.w3.org/2000/svg" viewBox="0 0 130 130"><defs><style>.cls-1,.cls-2,.cls-5{fill:none;}.cls-1{stroke:#182ac3;}.cls-1,.cls-2{stroke-miterlimit:10;}.cls-2{stroke:#fff;}.cls-3{fill:#fff;}.cls-3,.cls-5{stroke:#0561fc;stroke-linecap:round;stroke-linejoin:round;stroke-width:4px;}.cls-4{fill:#c5e1f9;}</style></defs><rect class="cls-1" x="-1338.77" y="-233.64" width="1517.54" height="601.28"/><rect class="cls-2" x="-1327.81" y="-72.14" width="1617.81" height="361.81"/><path class="cls-3" d="M70.62,105.58a10.83,10.83,0,0,1-9.75,10.78v.06H26.78v0a9.62,9.62,0,0,1-.55-19.09c0-.15,0-.3,0-.44a5.63,5.63,0,0,1,5.62-5.63,5.54,5.54,0,0,1,2.88.8,12.35,12.35,0,0,1,22,3.17,11,11,0,0,1,3.06-.44A10.84,10.84,0,0,1,70.62,105.58Z"/><path class="cls-3" d="M111.93,105.58a10.83,10.83,0,0,1-9.76,10.78v.06H68.09v0a9.62,9.62,0,0,1-.55-19.09c0-.15,0-.3,0-.44a5.63,5.63,0,0,1,5.63-5.63A5.57,5.57,0,0,1,76,92a12.35,12.35,0,0,1,22,3.17,10.84,10.84,0,0,1,13.9,10.4Z"/><path class="cls-3" d="M44.92,81.75s-15.33,29.5,17.37,34.59c0,0,6.63.37,9.92-.47,9-2.28,21.38-10.62,6.56-40.35,0,0,.21,8.1-6,6.34s6.85-18.07-8.41-24.51c0,0,1.35,8.31-5.3,11s-4.67,10.69-1.56,13.91S52.81,95.67,44.92,81.75Z"/><path class="cls-4" d="M54.79,98.55s-7.17,13.81,8.14,16.2a21.35,21.35,0,0,0,4.64-.22c4.21-1.07,10-5,3.07-18.9,0,0,.1,3.8-2.82,3S71,90.14,63.89,87.13c0,0,.63,3.89-2.48,5.15s-2.19,5-.73,6.51S58.49,105.07,54.79,98.55Z"/><line class="cls-5" x1="16.48" y1="116.42" x2="113.52" y2="116.42"/><rect class="cls-3" x="35.71" y="13.58" width="58.58" height="9.29"/><rect class="cls-3" x="39.71" y="22.87" width="50.58" height="5.68"/><polygon class="cls-3" points="80.29 37.58 49.71 37.58 43.71 28.55 86.29 28.55 80.29 37.58"/><line class="cls-5" x1="55.1" y1="28.55" x2="55.1" y2="37.58"/><line class="cls-5" x1="65" y1="28.55" x2="65" y2="37.58"/><line class="cls-5" x1="74.9" y1="28.55" x2="74.9" y2="37.58"/><circle class="cls-3" cx="65" cy="18.23" r="4.65"/></svg>