<svg id="Layer_1" data-name="Layer 1" xmlns="http://www.w3.org/2000/svg" viewBox="0 0 130 130"><defs><style>.cls-1,.cls-3,.cls-4{fill:none;}.cls-1{stroke:#fff;stroke-miterlimit:10;}.cls-2{fill:#fff;}.cls-2,.cls-3{stroke:#0561fc;}.cls-2,.cls-3,.cls-4{stroke-linecap:round;stroke-linejoin:round;stroke-width:4px;}.cls-4{stroke:#c5e1f9;}.cls-5{fill:#c5e1f9;}</style></defs><rect class="cls-1" x="-947.72" y="-408.91" width="1617.81" height="687.16"/><circle class="cls-2" cx="65" cy="65" r="55.44"/><line class="cls-3" x1="65" y1="9.56" x2="65" y2="120.4"/><circle class="cls-3" cx="37.56" cy="60.78" r="10.34"/><line class="cls-3" x1="54.83" y1="60.78" x2="58.76" y2="60.78"/><line class="cls-3" x1="16.35" y1="60.78" x2="20.28" y2="60.78"/><line class="cls-3" x1="52.51" y1="52.15" x2="55.92" y2="50.18"/><line class="cls-3" x1="19.19" y1="71.38" x2="22.6" y2="69.42"/><line class="cls-3" x1="46.19" y1="45.82" x2="48.16" y2="42.42"/><line class="cls-3" x1="26.95" y1="79.15" x2="28.92" y2="75.74"/><line class="cls-3" x1="37.56" y1="43.51" x2="37.56" y2="39.58"/><line class="cls-3" x1="37.56" y1="81.99" x2="37.56" y2="78.06"/><line class="cls-3" x1="28.92" y1="45.82" x2="26.95" y2="42.42"/><line class="cls-3" x1="48.16" y1="79.15" x2="46.19" y2="75.74"/><line class="cls-3" x1="22.6" y1="52.15" x2="19.19" y2="50.18"/><line class="cls-3" x1="55.92" y1="71.38" x2="52.51" y2="69.42"/><line class="cls-3" x1="51.83" y1="18.99" x2="51.83" y2="30.48"/><line class="cls-3" x1="57.57" y1="24.74" x2="46.09" y2="24.74"/><line class="cls-4" x1="80.58" y1="41.54" x2="80.58" y2="53.02"/><line class="cls-4" x1="86.32" y1="47.28" x2="74.84" y2="47.28"/><line class="cls-3" x1="99.2" y1="83.54" x2="99.2" y2="95.02"/><line class="cls-3" x1="104.94" y1="89.28" x2="93.46" y2="89.28"/><line class="cls-4" x1="46.09" y1="92.64" x2="46.09" y2="104.12"/><line class="cls-4" x1="51.83" y1="98.38" x2="40.35" y2="98.38"/><path class="cls-3" d="M107.3,60.1a17.69,17.69,0,0,1-34,6.83,17.38,17.38,0,0,0,6.82,1.37A17.69,17.69,0,0,0,96.45,43.78,17.68,17.68,0,0,1,107.3,60.1Z"/><circle class="cls-5" cx="81.36" cy="99.98" r="4.96"/><circle class="cls-5" cx="79.08" cy="24.74" r="4.24"/></svg>