<svg id="BlueIcons_-20-01" data-name="BlueIcons -20-01" xmlns="http://www.w3.org/2000/svg" width="133.242" height="89.379" viewBox="0 0 133.242 89.379">
  <g id="Layer_4" transform="translate(0 0)">
    <g id="Group_333" data-name="Group 333">
      <g id="Group_320" data-name="Group 320" transform="translate(5.046 7.244)">
        <path id="Path_416" data-name="Path 416" d="M56.462,35.6H24.8V98.5H66.738V45.876Z" transform="translate(-24.8 -35.6)" fill="none"/>
        <g id="Group_319" data-name="Group 319" transform="translate(31.662)">
          <path id="Path_417" data-name="Path 417" d="M180.4,46.3h10.683L180.4,35.6Z" transform="translate(-180.4 -35.6)" fill="#fff"/>
        </g>
      </g>
      <g id="Group_321" data-name="Group 321" transform="translate(0 18.192)">
        <line id="Line_1" data-name="Line 1" x2="11.639" transform="translate(0.203)" fill="none" stroke="#fff" stroke-width="2.5"/>
        <line id="Line_2" data-name="Line 2" x2="27.633" transform="translate(0 5.921)" fill="none" stroke="#fff" stroke-width="2.5"/>
        <line id="Line_3" data-name="Line 3" x2="27.633" transform="translate(0 11.863)" fill="none" stroke="#fff" stroke-width="2.5"/>
        <line id="Line_4" data-name="Line 4" x2="27.633" transform="translate(0 17.785)" fill="none" stroke="#fff" stroke-width="2.5"/>
        <line id="Line_5" data-name="Line 5" x2="17.886" transform="translate(0 23.726)" fill="none" stroke="#fff" stroke-width="2.5"/>
      </g>
      <g id="Group_322" data-name="Group 322" transform="translate(94.478 62.531)">
        <path id="Path_418" data-name="Path 418" d="M485.747,318.024A10.724,10.724,0,1,1,475.024,307.3,10.725,10.725,0,0,1,485.747,318.024Z" transform="translate(-464.3 -307.3)" fill="#fff"/>
        <path id="Path_419" data-name="Path 419" d="M506.029,339.064a3.764,3.764,0,1,1-3.765-3.764A3.769,3.769,0,0,1,506.029,339.064Z" transform="translate(-491.541 -329.602)" fill="none" stroke="#182ac3" stroke-width="2.5"/>
        <path id="Path_420" data-name="Path 420" d="M493.921,374.4h-5.657a3.769,3.769,0,0,0-3.764,3.764v.305a9.592,9.592,0,0,0,13.186,0v-.305A3.743,3.743,0,0,0,493.921,374.4Z" transform="translate(-480.39 -360.746)" fill="none" stroke="#182ac3" stroke-width="2.5"/>
      </g>
      <g id="Group_331" data-name="Group 331" transform="translate(22.851 36.241)">
        <line id="Line_6" data-name="Line 6" x2="13.735" transform="translate(25.171 25.273)" fill="none" stroke="#fff" stroke-width="2.5" stroke-dasharray="13.333"/>
        <g id="Group_323" data-name="Group 323" transform="translate(0.061 10.541)">
          <path id="Path_421" data-name="Path 421" d="M124.565,249.346h-3.48c-5.6,0-8.485-4.456-8.485-10.052V230.3" transform="translate(-112.6 -230.219)" fill="none" stroke="#fff" stroke-width="2.5"/>
          <path id="Path_422" data-name="Path 422" d="M379.906,229.9v8.994c0,5.6-2.89,10.113-8.485,10.113H367.9" transform="translate(-315.95 -229.9)" fill="none" stroke="#fff" stroke-width="2.5"/>
        </g>
        <g id="Group_330" data-name="Group 330" transform="translate(12.087 7.814)">
          <g id="Group_326" data-name="Group 326">
            <g id="Group_324" data-name="Group 324" transform="translate(1.628)">
              <line id="Line_7" data-name="Line 7" y1="15.506" transform="translate(5.453)" fill="none" stroke="#fff" stroke-width="2.5"/>
              <line id="Line_8" data-name="Line 8" y1="15.506" fill="none" stroke="#fff" stroke-width="2.5"/>
            </g>
            <g id="Group_325" data-name="Group 325" transform="translate(1.628 28.081)">
              <line id="Line_9" data-name="Line 9" y1="15.526" transform="translate(5.453)" fill="none" stroke="#fff" stroke-width="2.5"/>
              <line id="Line_10" data-name="Line 10" y1="15.526" fill="none" stroke="#fff" stroke-width="2.5"/>
            </g>
            <path id="Path_423" data-name="Path 423" d="M180.43,305.756a1.094,1.094,0,0,1-1.1,1.1H172.8a1.094,1.094,0,0,1-1.1-1.1V295.4a1.094,1.094,0,0,1,1.1-1.1h6.532a1.094,1.094,0,0,1,1.1,1.1Z" transform="translate(-171.7 -278.469)" fill="none" stroke="#fff" stroke-width="2.5"/>
            <line id="Line_11" data-name="Line 11" y1="3.683" transform="translate(4.355 24.032)" fill="none" stroke="#fff" stroke-width="2.5"/>
          </g>
          <g id="Group_329" data-name="Group 329" transform="translate(31.174)">
            <g id="Group_327" data-name="Group 327" transform="translate(1.648)">
              <line id="Line_12" data-name="Line 12" y1="15.506" transform="translate(5.453)" fill="none" stroke="#fff" stroke-width="2.5"/>
              <line id="Line_13" data-name="Line 13" y1="15.506" fill="none" stroke="#fff" stroke-width="2.5"/>
            </g>
            <g id="Group_328" data-name="Group 328" transform="translate(1.648 28.081)">
              <line id="Line_14" data-name="Line 14" y1="15.526" transform="translate(5.453)" fill="none" stroke="#fff" stroke-width="2.5"/>
              <line id="Line_15" data-name="Line 15" y1="15.526" fill="none" stroke="#fff" stroke-width="2.5"/>
            </g>
            <path id="Path_424" data-name="Path 424" d="M333.63,305.756a1.094,1.094,0,0,1-1.1,1.1H326a1.094,1.094,0,0,1-1.1-1.1V295.4a1.094,1.094,0,0,1,1.1-1.1h6.532a1.094,1.094,0,0,1,1.1,1.1Z" transform="translate(-324.9 -278.469)" fill="none" stroke="#fff" stroke-width="2.5"/>
            <line id="Line_16" data-name="Line 16" y1="3.683" transform="translate(4.375 24.032)" fill="none" stroke="#fff" stroke-width="2.5"/>
          </g>
        </g>
        <line id="Line_17" data-name="Line 17" x2="22.526" transform="translate(20.776 29.668)" fill="none" stroke="#fff" stroke-width="2.5"/>
        <rect id="Rectangle_123" data-name="Rectangle 123" width="64.098" height="44.258" transform="translate(0 7.631)" fill="none" stroke="#fff" stroke-width="2.5"/>
        <path id="Path_425" data-name="Path 425" d="M227.5,182.516V178.1h17.194v4.416" transform="translate(-204.059 -178.1)" fill="none" stroke="#fff" stroke-width="2.5"/>
      </g>
      <path id="Path_426" data-name="Path 426" d="M419.836,0a26.606,26.606,0,0,0-20.308,43.831l-6.206,11.761,11.293-7.163A26.6,26.6,0,1,0,419.836,0Z" transform="translate(-313.19)" fill="#fff"/>
      <g id="Group_332" data-name="Group 332" transform="translate(96.228 24.316)">
        <path id="Path_427" data-name="Path 427" d="M485.516,137.692V119.5H472.9" transform="translate(-472.9 -119.5)" fill="none" stroke="#182ac3" stroke-width="2.5"/>
        <path id="Path_428" data-name="Path 428" d="M498.8,119.5v18.192h12.616" transform="translate(-493.53 -119.5)" fill="none" stroke="#182ac3" stroke-width="2.5"/>
      </g>
      <path id="Path_429" data-name="Path 429" d="M504.506,50.952a4.253,4.253,0,1,1-4.253-4.253A4.264,4.264,0,0,1,504.506,50.952Z" transform="translate(-395.071 -37.197)" fill="none" stroke="#182ac3" stroke-width="2.5"/>
    </g>
  </g>
</svg>
