<svg xmlns="http://www.w3.org/2000/svg" width="107.792" height="102.699" viewBox="0 0 107.792 102.699">
  <g id="Layer_44" transform="translate(381.23 -1213.9)">
    <circle id="Ellipse_229" data-name="Ellipse 229" cx="4.386" cy="4.386" r="4.386" transform="translate(-313.773 1246.205)" fill="#182ac3"/>
    <rect id="Rectangle_257" data-name="Rectangle 257" width="17.568" height="37.367" transform="translate(-379.73 1277.733)" fill="none" stroke="#fff" stroke-linecap="round" stroke-linejoin="round" stroke-width="3"/>
    <line id="Line_530" data-name="Line 530" y2="4.25" transform="translate(-370.943 1282.507)" fill="none" stroke="#fff" stroke-linecap="round" stroke-linejoin="round" stroke-width="2"/>
    <line id="Line_531" data-name="Line 531" x2="4.255" transform="translate(-373.074 1284.632)" fill="none" stroke="#fff" stroke-linecap="round" stroke-linejoin="round" stroke-width="2"/>
    <line id="Line_532" data-name="Line 532" x2="4.255" transform="translate(-373.074 1305.878)" fill="none" stroke="#fff" stroke-linecap="round" stroke-linejoin="round" stroke-width="2"/>
    <line id="Line_533" data-name="Line 533" x2="17.568" transform="translate(-379.73 1310.764)" fill="none" stroke="#fff" stroke-linecap="round" stroke-linejoin="round" stroke-width="3"/>
    <path id="Path_1158" data-name="Path 1158" d="M-361.7,1367.75l-3.754,5.288,3.754-.476-3.083,5.328" transform="translate(-7.122 -77.119)" fill="none" stroke="#fff" stroke-linecap="round" stroke-linejoin="round" stroke-width="2"/>
    <path id="Path_1159" data-name="Path 1159" d="M-366.98,1336.438c.015-1.113.035-2.225.05-3.338h5.128v3.338Z" transform="translate(-6.359 -58.705)" fill="none" stroke="#fff" stroke-linecap="round" stroke-linejoin="round" stroke-width="3"/>
    <path id="Path_1161" data-name="Path 1161" d="M-332.794,1405.081h-3.619s-.8-.135-.807-1.338c-.01-.992.677-1.113.887-1.113h3.544l-.005,2.451" transform="translate(-21.203 -93.385)" fill="#fff"/>
    <path id="Path_1162" data-name="Path 1162" d="M-332.794,1395.451h-3.619s-.8-.135-.807-1.338c-.01-.992.677-1.113.887-1.113h3.544l-.005,2.451" transform="translate(-21.203 -88.582)" fill="#fff"/>
    <path id="Path_1163" data-name="Path 1163" d="M-318.734,1392.077s-.07-7.1-8.661-6.035a1.28,1.28,0,0,0-.937,1.268c0,1.043-.14,11.3,0,11.654s.381,1.042,2.05.937S-318.142,1400.041-318.734,1392.077Z" transform="translate(-25.605 -85.058)" fill="none" stroke="#fff" stroke-linecap="round" stroke-linejoin="round" stroke-width="3"/>
    <path id="Path_1164" data-name="Path 1164" d="M-309.04,1386.045s3.764.642,4.4-2.822v-10.616a3.612,3.612,0,0,1,3.022-1.91,2.844,2.844,0,0,1,2.782,1.91v15.318a2.464,2.464,0,0,0,2.306,3.208h0" transform="translate(-35.258 -77.457)" fill="none" stroke="#fff" stroke-linecap="round" stroke-linejoin="round" stroke-width="3"/>
    <circle id="Ellipse_230" data-name="Ellipse 230" cx="5.198" cy="5.198" r="5.198" transform="translate(-315.397 1246.205)" fill="none" stroke="#fff" stroke-linecap="round" stroke-linejoin="round" stroke-width="3"/>
    <path id="Path_1166" data-name="Path 1166" d="M-247.771,1246.241V1215.4h-5.283l-2.626,28.55,3.955.421v3.1A7.2,7.2,0,0,1-247.771,1246.241Z" transform="translate(-61.873 0)" fill="#182ac3" stroke="#fff" stroke-linecap="round" stroke-linejoin="round" stroke-width="3"/>
    <path id="Path_1167" data-name="Path 1167" d="M-278.492,1290.85l-27.708,13.533,2.316,4.746,26.806-10.17-1.358-3.734,2.792-1.363A7.239,7.239,0,0,1-278.492,1290.85Z" transform="translate(-36.675 -37.632)" fill="#182ac3" stroke="#fff" stroke-linecap="round" stroke-linejoin="round" stroke-width="3"/>
    <path id="Path_1168" data-name="Path 1168" d="M-231.75,1286.041l28.68,11.338,1.94-4.912-25.588-12.937-1.845,3.524-2.887-1.143A7.11,7.11,0,0,1-231.75,1286.041Z" transform="translate(-73.808 -31.986)" fill="#182ac3" stroke="#fff" stroke-linecap="round" stroke-linejoin="round" stroke-width="3"/>
    <path id="Path_1169" data-name="Path 1169" d="M-242.969,1295.37v58.062h-8.411v-47.341" transform="translate(-64.017 -39.887)" fill="none" stroke="#fff" stroke-linecap="round" stroke-linejoin="round" stroke-width="3"/>
    <line id="Line_534" data-name="Line 534" x2="23.723" transform="translate(-326.68 1313.545)" fill="none" stroke="#fff" stroke-linecap="round" stroke-linejoin="round" stroke-width="3"/>
  </g>
</svg>
