<svg xmlns="http://www.w3.org/2000/svg" width="123.448" height="97.928" viewBox="0 0 123.448 97.928">
  <g id="Layer_27" transform="translate(1109.05 -842.58)">
    <path id="Path_1690" data-name="Path 1690" d="M-1008.315,918.75l7.957,13.781a6.236,6.236,0,0,1-5.4,9.357H-1032.4V926.142" transform="translate(-15.662 -15.36)" fill="none" stroke="#fff" stroke-linecap="round" stroke-linejoin="round" stroke-width="3"/>
    <path id="Path_1691" data-name="Path 1691" d="M-1062.65,869.383l8.37-14.5a6.237,6.237,0,0,1,10.805,0l24.848,43.046" transform="translate(-9.481 -1.671)" fill="none" stroke="#fff" stroke-linecap="round" stroke-linejoin="round" stroke-width="3"/>
    <path id="Path_1692" data-name="Path 1692" d="M-1067.138,919.309v15.659h-26.217a6.237,6.237,0,0,1-5.4-9.357l23.52-40.73" transform="translate(-1.93 -8.439)" fill="none" stroke="#fff" stroke-linecap="round" stroke-linejoin="round" stroke-width="3"/>
    <line id="Line_784" data-name="Line 784" x2="34.055" transform="translate(-1075.751 909.262)" fill="none" stroke="#fff" stroke-linecap="round" stroke-linejoin="round" stroke-width="3"/>
    <path id="Path_1693" data-name="Path 1693" d="M-1039.749,919.266h-16.271V900.672a8.131,8.131,0,0,1,8.132-8.132h0a8.138,8.138,0,0,1,8.14,8.132Z" transform="translate(-10.836 -10.004)" fill="none" stroke="#fff" stroke-linecap="round" stroke-linejoin="round" stroke-width="3"/>
    <line id="Line_785" data-name="Line 785" y2="5.49" transform="translate(-1058.724 872.996)" fill="none" stroke="#fff" stroke-linecap="round" stroke-linejoin="round" stroke-width="3"/>
    <line id="Line_786" data-name="Line 786" x2="3.883" y2="3.883" transform="translate(-1072.632 880.077)" fill="none" stroke="#fff" stroke-linecap="round" stroke-linejoin="round" stroke-width="3"/>
    <line id="Line_787" data-name="Line 787" x1="3.883" y2="3.875" transform="translate(-1048.651 879.846)" fill="none" stroke="#fff" stroke-linecap="round" stroke-linejoin="round" stroke-width="3"/>
    <line id="Line_788" data-name="Line 788" x2="5.49" transform="translate(-1076.555 893.954)" fill="none" stroke="#fff" stroke-linecap="round" stroke-linejoin="round" stroke-width="3"/>
    <line id="Line_789" data-name="Line 789" x2="5.49" transform="translate(-1046.312 893.954)" fill="none" stroke="#fff" stroke-linecap="round" stroke-linejoin="round" stroke-width="3"/>
    <path id="Path_1694" data-name="Path 1694" d="M-984.507,958.555h-61.831a1.465,1.465,0,0,1-1.472-1.456V933.356a1.465,1.465,0,0,1,1.472-1.456,1.465,1.465,0,0,1,1.472,1.456v22.287h58.9v-20.52a1.465,1.465,0,0,1,1.472-1.456,1.465,1.465,0,0,1,1.472,1.456V957.1A1.477,1.477,0,0,1-984.507,958.555Z" transform="translate(-12.513 -18.047)" fill="#fff"/>
    <path id="Path_1695" data-name="Path 1695" d="M-971.483,930.633A11.63,11.63,0,0,1-983.1,919.017,11.63,11.63,0,0,1-971.483,907.4a11.63,11.63,0,0,1,11.617,11.617A11.63,11.63,0,0,1-971.483,930.633Zm0-20.051a8.443,8.443,0,0,0-8.434,8.434,8.438,8.438,0,0,0,8.434,8.434,8.438,8.438,0,0,0,8.434-8.434A8.444,8.444,0,0,0-971.483,910.583Z" transform="translate(-25.736 -13.041)" fill="#fff"/>
    <path id="Path_1696" data-name="Path 1696" d="M-968.759,914.97l-2.411,5.251,3.835.859q-1.516,3.246-3.031,6.485l4.822-7.615c-1.265-.2-2.538-.39-3.8-.589Q-969.062,917.178-968.759,914.97Z" transform="translate(-28.173 -14.587)" fill="#fff"/>
    <circle id="Ellipse_384" data-name="Ellipse 384" cx="7.519" cy="7.519" r="7.519" transform="translate(-1109.05 876.441)" fill="#fff"/>
    <circle id="Ellipse_385" data-name="Ellipse 385" cx="7.519" cy="7.519" r="7.519" transform="translate(-1033.78 858.968)" fill="none" stroke="#fff" stroke-linecap="round" stroke-linejoin="round" stroke-width="4"/>
    <circle id="Ellipse_386" data-name="Ellipse 386" cx="3.254" cy="3.254" r="3.254" transform="translate(-1103.274 866.487)" fill="#fff"/>
    <circle id="Ellipse_387" data-name="Ellipse 387" cx="3.254" cy="3.254" r="3.254" transform="translate(-1025.25 843.58)" fill="none" stroke="#fff" stroke-linecap="round" stroke-linejoin="round" stroke-width="2"/>
  </g>
</svg>
