<svg xmlns="http://www.w3.org/2000/svg" width="107.407" height="91.926" viewBox="0 0 107.407 91.926">
  <g id="Layer_37" transform="translate(3191.757 -1225.11)">
    <path id="Path_1020" data-name="Path 1020" d="M-3125.042,1259.27l7.7,7.7-21.336,21.336,21.336,21.336-7.7,7.7-29.039-29.038Z" transform="translate(-18.314 -16.918)" fill="#fff"/>
    <path id="Path_1021" data-name="Path 1021" d="M-3182.121,1320.2l-7.349-7.349,4.023-4.023" transform="translate(-0.788 -41.462)" fill="none" stroke="#fff" stroke-linecap="round" stroke-linejoin="round" stroke-width="3"/>
    <path id="Path_1022" data-name="Path 1022" d="M-3116.571,1357.643l-16.031,16.031-31.168-31.173" transform="translate(-13.515 -58.137)" fill="none" stroke="#fff" stroke-linecap="round" stroke-linejoin="round" stroke-width="3"/>
    <path id="Path_1023" data-name="Path 1023" d="M-3069.65,1261.71l27.807,27.807-20.659,20.659" transform="translate(-60.128 -18.126)" fill="none" stroke="#fff" stroke-linecap="round" stroke-linejoin="round" stroke-width="3"/>
    <path id="Path_1024" data-name="Path 1024" d="M-3113.42,1235.094l5.754-5.754,11.22,11.221" transform="translate(-38.451 -2.095)" fill="none" stroke="#fff" stroke-linecap="round" stroke-linejoin="round" stroke-width="3"/>
    <line id="Line_470" data-name="Line 470" y1="17.833" x2="17.833" transform="translate(-3174.676 1237.971)" fill="none" stroke="#fff" stroke-linecap="round" stroke-linejoin="round" stroke-width="3"/>
    <path id="Path_1026" data-name="Path 1026" d="M-3123.92,1346.96" transform="translate(-33.251 -60.346)" fill="none" stroke="#fff" stroke-linecap="round" stroke-linejoin="round" stroke-width="3"/>
    <path id="Path_1027" data-name="Path 1027" d="M-3145.23,1325.65" transform="translate(-22.697 -49.792)" fill="none" stroke="#fff" stroke-linecap="round" stroke-linejoin="round" stroke-width="3"/>
    <g id="Group_82684" data-name="Group 82684" transform="translate(-3096.636 1231.872)">
      <path id="Path_1028" data-name="Path 1028" d="M-3003.99,1311.162c0-4.073,2.186-6.557,6.2-6.557,3.958,0,6.083,2.362,6.083,6.557,0,4.018-2.125,6.38-6.083,6.38C-3001.8,1317.537-3003.99,1315.175-3003.99,1311.162Zm9.8-20.675c-.121,2.776-1.3,4.134-3.6,4.134s-3.543-1.358-3.659-4.134l-1.3-29.947V1242.7c0-2.837,1.418-4.255,4.255-4.194h1.358c2.837,0,4.255,1.418,4.195,4.194v17.838Z" transform="translate(3003.99 -1238.506)" fill="#fff"/>
    </g>
    <circle id="Ellipse_203" data-name="Ellipse 203" cx="2.806" cy="2.806" r="2.806" transform="translate(-3191.06 1253.174)" fill="#fff"/>
    <circle id="Ellipse_204" data-name="Ellipse 204" cx="2.806" cy="2.806" r="2.806" transform="translate(-3177.482 1297.971)" fill="none" stroke="#fff" stroke-linecap="round" stroke-linejoin="round" stroke-width="3"/>
    <circle id="Ellipse_205" data-name="Ellipse 205" cx="4.457" cy="4.457" r="4.457" transform="translate(-3112.98 1243.584)" fill="none" stroke="#fff" stroke-linecap="round" stroke-linejoin="round" stroke-width="3"/>
    <circle id="Ellipse_206" data-name="Ellipse 206" cx="2.806" cy="2.806" r="2.806" transform="translate(-3123.519 1231.874)" fill="#fff"/>
    <circle id="Ellipse_207" data-name="Ellipse 207" cx="6.769" cy="6.769" r="6.769" transform="translate(-3172.526 1225.11)" fill="#fff"/>
    <circle id="Ellipse_208" data-name="Ellipse 208" cx="2.806" cy="2.806" r="2.806" transform="translate(-3120.713 1303.579)" fill="#fff"/>
  </g>
</svg>
