<svg id="Layer_1" data-name="Layer 1" xmlns="http://www.w3.org/2000/svg" viewBox="0 0 130 130"><defs><style>.cls-1,.cls-2{fill:none;}.cls-1{stroke:#fff;stroke-miterlimit:10;}.cls-2,.cls-4{stroke:#0561fc;stroke-linecap:round;stroke-linejoin:round;stroke-width:4px;}.cls-3{fill:#c5e1f9;}.cls-4{fill:#fff;}</style></defs><rect class="cls-1" x="-531.14" y="-123.34" width="1621.72" height="1570.98"/><path class="cls-2" d="M11,94.1h9v18.6H36v14H70.3s.2-2.43,0-13.15,2-19.08,6.44-25.17c7.14-9.91,11.74-47.19-24.66-47S28.43,69.3,11,94.1Z"/><path class="cls-3" d="M48.3,12V74.05h62.08V12ZM99.93,63.59H58.75V22.42H99.93Z"/><rect class="cls-2" x="48.3" y="11.97" width="62.08" height="62.08"/><line class="cls-4" x1="59.8" y1="11.97" x2="59.8" y2="3.32"/><line class="cls-4" x1="69.57" y1="11.97" x2="69.57" y2="3.32"/><line class="cls-4" x1="79.34" y1="11.97" x2="79.34" y2="3.32"/><line class="cls-4" x1="89.11" y1="11.97" x2="89.11" y2="3.32"/><line class="cls-4" x1="98.88" y1="11.97" x2="98.88" y2="3.32"/><line class="cls-4" x1="59.8" y1="82.7" x2="59.8" y2="74.05"/><line class="cls-4" x1="69.57" y1="82.7" x2="69.57" y2="74.05"/><line class="cls-4" x1="79.34" y1="82.7" x2="79.34" y2="74.05"/><line class="cls-4" x1="89.11" y1="82.7" x2="89.11" y2="74.05"/><line class="cls-4" x1="98.88" y1="82.7" x2="98.88" y2="74.05"/><line class="cls-4" x1="110.38" y1="23.47" x2="119.03" y2="23.47"/><line class="cls-4" x1="110.38" y1="33.24" x2="119.03" y2="33.24"/><line class="cls-4" x1="110.38" y1="43.01" x2="119.03" y2="43.01"/><line class="cls-4" x1="110.38" y1="52.78" x2="119.03" y2="52.78"/><line class="cls-4" x1="110.38" y1="62.55" x2="119.03" y2="62.55"/><line class="cls-4" x1="39.65" y1="23.47" x2="48.3" y2="23.47"/><line class="cls-4" x1="39.65" y1="33.24" x2="48.3" y2="33.24"/><line class="cls-4" x1="39.65" y1="43.01" x2="48.3" y2="43.01"/><line class="cls-4" x1="39.65" y1="52.78" x2="48.3" y2="52.78"/><line class="cls-4" x1="39.65" y1="62.55" x2="48.3" y2="62.55"/><rect class="cls-4" x="58.75" y="22.42" width="41.18" height="41.18"/><line class="cls-4" x1="68.47" y1="51.82" x2="68.47" y2="63.6"/><circle class="cls-4" cx="68.47" cy="51.82" r="4.4"/><polyline class="cls-4" points="87.23 43.01 73.97 43.01 73.97 33.94 58.75 33.94"/><line class="cls-4" x1="87.23" y1="22.42" x2="87.23" y2="44.79"/><line class="cls-4" x1="87.23" y1="44.79" x2="87.23" y2="63.6"/><line class="cls-4" x1="99.93" y1="56.22" x2="87.23" y2="56.22"/><circle class="cls-4" cx="73.97" cy="33.94" r="4.4"/><circle class="cls-4" cx="87.23" cy="43.01" r="4.4"/></svg>