<svg id="Layer_1" data-name="Layer 1" xmlns="http://www.w3.org/2000/svg" viewBox="0 0 130 130"><defs><style>.cls-1,.cls-3{fill:none;}.cls-1{stroke:#fff;stroke-miterlimit:10;}.cls-2{fill:#c5e1f9;}.cls-3,.cls-4{stroke:#0561fc;stroke-linecap:round;stroke-linejoin:round;stroke-width:4px;}.cls-4{fill:#fff;}</style></defs><rect class="cls-1" x="-931.14" y="-123.34" width="1621.72" height="1570.98"/><path class="cls-2" d="M26,17V95h78V17ZM90.87,81.88H39.13V30.15H90.87Z"/><rect class="cls-3" x="26" y="17.01" width="78" height="78"/><line class="cls-4" x1="40.45" y1="17.01" x2="40.45" y2="6.15"/><line class="cls-4" x1="52.73" y1="17.01" x2="52.73" y2="6.15"/><line class="cls-4" x1="65" y1="17.01" x2="65" y2="6.15"/><line class="cls-4" x1="77.27" y1="17.01" x2="77.27" y2="6.15"/><line class="cls-4" x1="89.55" y1="17.01" x2="89.55" y2="6.15"/><line class="cls-4" x1="40.45" y1="105.88" x2="40.45" y2="95.01"/><line class="cls-4" x1="52.73" y1="105.88" x2="52.73" y2="95.01"/><line class="cls-4" x1="65" y1="105.88" x2="65" y2="95.01"/><line class="cls-4" x1="77.27" y1="105.88" x2="77.27" y2="95.01"/><line class="cls-4" x1="89.55" y1="105.88" x2="89.55" y2="95.01"/><line class="cls-4" x1="104" y1="31.47" x2="114.86" y2="31.47"/><line class="cls-4" x1="104" y1="43.74" x2="114.86" y2="43.74"/><line class="cls-4" x1="104" y1="56.01" x2="114.86" y2="56.01"/><line class="cls-4" x1="104" y1="68.29" x2="114.86" y2="68.29"/><line class="cls-4" x1="104" y1="80.56" x2="114.86" y2="80.56"/><line class="cls-4" x1="15.14" y1="31.47" x2="26" y2="31.47"/><line class="cls-4" x1="15.14" y1="43.74" x2="26" y2="43.74"/><line class="cls-4" x1="15.14" y1="56.01" x2="26" y2="56.01"/><line class="cls-4" x1="15.14" y1="68.29" x2="26" y2="68.29"/><line class="cls-4" x1="15.14" y1="80.56" x2="26" y2="80.56"/><rect class="cls-4" x="39.13" y="30.15" width="51.74" height="51.74"/><line class="cls-4" x1="51.35" y1="67.09" x2="51.35" y2="81.88"/><circle class="cls-4" cx="51.35" cy="67.09" r="5.52"/><polyline class="cls-4" points="74.91 56.01 58.25 56.01 58.25 44.62 39.13 44.62"/><line class="cls-4" x1="74.91" y1="30.15" x2="74.91" y2="58.25"/><line class="cls-4" x1="74.91" y1="58.25" x2="74.91" y2="81.88"/><line class="cls-4" x1="90.87" y1="72.61" x2="74.91" y2="72.61"/><circle class="cls-4" cx="58.25" cy="44.62" r="5.52"/><circle class="cls-4" cx="74.91" cy="56.01" r="5.52"/><path id="Path_2100" data-name="Path 2100" class="cls-4" d="M113.56,107.89a15.56,15.56,0,0,1-12.9,15.69,15.32,15.32,0,0,1-2.79.25c-4,0-8.31,0-12.68,0a22.31,22.31,0,0,1-16-6.7c-6.78-6.77-13.71-13.72-19.65-19.71a6.82,6.82,0,0,1-.25-9.8A6.65,6.65,0,0,1,54,85.57a7.33,7.33,0,0,1,5.13,2.25c2.36,2.34,4.66,4.66,7.39,7.44a5.33,5.33,0,0,1,.59.82l.28.43.12.17.75-.49v-.12a2.34,2.34,0,0,1,0-.38c0-.29,0-.58,0-.88V57.44a2.75,2.75,0,0,1,0-.5,6.75,6.75,0,0,1,9.86-5.68,6.42,6.42,0,0,1,3.56,4.62l.14,14.59a3.21,3.21,0,0,0,0,.62,15.62,15.62,0,0,1,0,1.81v.79h.26c.58,0,1.18,0,1.74-.09a10.33,10.33,0,0,1,3.55.11,10.53,10.53,0,0,1,3.06,1.69c.47.34,1,.69,1.48,1l.11.06.12,0c4.53-2.55,7-1.82,10.53,3.12l.1.15.17-.09a7,7,0,0,1,6-.61,6.64,6.64,0,0,1,4.43,5.6,8.23,8.23,0,0,1,.09,1.4v6.08C113.58,97.27,113.59,102.62,113.56,107.89Z"/></svg>