<svg id="Layer_1" data-name="Layer 1" xmlns="http://www.w3.org/2000/svg" viewBox="0 0 130 130"><defs><style>.cls-1,.cls-2{fill:none;stroke-miterlimit:10;}.cls-1{stroke:#182ac3;}.cls-2{stroke:#fff;}.cls-3{fill:#fff;stroke:#0561fc;stroke-linecap:round;stroke-linejoin:round;stroke-width:4px;}.cls-4{fill:#0561fc;}.cls-5{fill:#c5e1f9;}</style></defs><rect class="cls-1" x="-86.71" y="-168.32" width="1738.81" height="825.88"/><rect class="cls-2" x="-56.94" y="-42.78" width="1621.72" height="655.76"/><path class="cls-3" d="M42.13,72.31A19.78,19.78,0,0,0,47.2,85.57H12.84V59H47.21A19.79,19.79,0,0,0,42.13,72.31Z"/><path class="cls-3" d="M90.61,85.57H76.9a19.9,19.9,0,0,0,0-26.53h34.37V76.49"/><path class="cls-3" d="M82,72.31A19.9,19.9,0,1,1,56.4,53.21V41.64H46.06V32.76H78v8.88H67.7V53.21A19.94,19.94,0,0,1,82,72.31Z"/><rect class="cls-3" x="4.82" y="50.33" width="8.01" height="43.96"/><rect class="cls-3" x="111.26" y="50.32" width="8.01" height="26.17"/><polyline class="cls-3" points="104.94 76.49 125.18 76.49 125.18 107.89 90.61 107.89 90.61 76.49"/><polygon class="cls-3" points="109 99.09 96.68 99.09 96.68 90.85 104.26 90.85 114.4 90.85 109 99.09"/><line class="cls-3" x1="103.86" y1="84.68" x2="103.86" y2="90.85"/><line class="cls-3" x1="106.03" y1="84.68" x2="101.68" y2="84.68"/><line class="cls-3" x1="98.22" y1="89.31" x2="95.14" y2="92.39"/><polyline class="cls-3" points="119.27 89.8 117.04 86.83 109 99.09"/><path class="cls-4" d="M121.22,96.94a2.14,2.14,0,1,1-4.28,0,6.52,6.52,0,0,1,2.14-3.83A6.72,6.72,0,0,1,121.22,96.94Z"/><circle id="Ellipse_178" data-name="Ellipse 178" class="cls-4" cx="50.7" cy="74.26" r="2.7"/><circle id="Ellipse_179" data-name="Ellipse 179" class="cls-4" cx="66.74" cy="81.99" r="0.78"/><circle id="Ellipse_180" data-name="Ellipse 180" class="cls-4" cx="64.27" cy="74.79" r="0.78"/><circle id="Ellipse_181" data-name="Ellipse 181" class="cls-4" cx="55.43" cy="68.13" r="0.78"/><circle id="Ellipse_182" data-name="Ellipse 182" class="cls-4" cx="70.85" cy="80.44" r="1.15"/><circle id="Ellipse_183" data-name="Ellipse 183" class="cls-4" cx="72.99" cy="74.03" r="1.54"/><circle id="Ellipse_184" data-name="Ellipse 184" class="cls-4" cx="62.21" cy="67.04" r="2.84"/><circle id="Ellipse_185" data-name="Ellipse 185" class="cls-4" cx="58.11" cy="80.07" r="3.46"/><path id="Path_926" data-name="Path 926" class="cls-4" d="M102.86,55.55c-.12-.88-.41-1.34-1-1.47a2.49,2.49,0,0,1-2.17-2.77,2.11,2.11,0,0,1,.16-.61,1.21,1.21,0,0,0-.42-1.38,9.69,9.69,0,0,0-2.48-1.46,1.15,1.15,0,0,0-1.58.32,2.44,2.44,0,0,1-1.2.79,2.52,2.52,0,0,1-2.67-.77,1.16,1.16,0,0,0-1.61-.34,10,10,0,0,0-2.2,1.25,1.16,1.16,0,0,0-.46,1.53,2.52,2.52,0,0,1-1.51,3.22,2.86,2.86,0,0,1-.58.13,1.14,1.14,0,0,0-1,.92,7.51,7.51,0,0,0-.06,3.2,1.1,1.1,0,0,0,.6.93h6.6a3.14,3.14,0,0,1-1-2.31,3.21,3.21,0,1,1,6.42,0,3.26,3.26,0,0,1-1,2.3h6.73a1.14,1.14,0,0,0,.48-.83A9.11,9.11,0,0,0,102.86,55.55Z"/><path id="Path_926-2" data-name="Path 926" class="cls-5" d="M38.55,32.12C38.4,31,38,30.41,37.24,30.24a3.16,3.16,0,0,1-2.76-3.51,3,3,0,0,1,.2-.78,1.51,1.51,0,0,0-.52-1.75A12.57,12.57,0,0,0,31,22.34a1.46,1.46,0,0,0-2,.42,3.07,3.07,0,0,1-1.52,1,3.18,3.18,0,0,1-3.39-1,1.47,1.47,0,0,0-2-.43,11.81,11.81,0,0,0-2.79,1.58,1.48,1.48,0,0,0-.59,1.95A3.18,3.18,0,0,1,16.73,30a2.74,2.74,0,0,1-.74.17,1.43,1.43,0,0,0-1.32,1.17,9.63,9.63,0,0,0-.09,4.07A1.43,1.43,0,0,0,16,36.71a3.19,3.19,0,0,1,2.75,3.58,3.38,3.38,0,0,1-.24.88A1.39,1.39,0,0,0,19,43a11.84,11.84,0,0,0,3.16,1.86,1.48,1.48,0,0,0,2-.47,3.37,3.37,0,0,1,1.13-1,3.15,3.15,0,0,1,3.83.7c.39.41.73.87,1.38.79a1.52,1.52,0,0,0,.52-.07,11.79,11.79,0,0,0,3.19-1.92,1.37,1.37,0,0,0,.46-1.75A3.21,3.21,0,0,1,36.41,37a3.58,3.58,0,0,1,.73-.2,1.47,1.47,0,0,0,1.31-1.31A11.62,11.62,0,0,0,38.55,32.12Zm-12,5.52a4.06,4.06,0,0,1-4.07-4,4.08,4.08,0,1,1,8.15,0,4.06,4.06,0,0,1-4.08,4Z"/></svg>