<svg id="Layer_1" data-name="Layer 1" xmlns="http://www.w3.org/2000/svg" viewBox="0 0 130 130"><defs><style>.cls-1,.cls-2{fill:none;stroke-miterlimit:10;}.cls-1{stroke:#182ac3;}.cls-2{stroke:#fff;}.cls-3{fill:#fff;stroke:#0561fc;stroke-linecap:round;stroke-linejoin:round;stroke-width:4px;}.cls-4{fill:#c5e1f9;}</style></defs><rect class="cls-1" x="-486.71" y="-168.32" width="1738.81" height="825.88"/><rect class="cls-2" x="-456.94" y="-42.78" width="1621.72" height="655.76"/><path class="cls-3" d="M27.93,68.5S9.08,104.77,49.29,111c0,0,8.15.45,12.19-.58,11.05-2.8,26.29-13.06,8.07-49.61,0,0,.25,10-7.41,7.79S70.57,46.42,51.8,38.5c0,0,1.66,10.22-6.51,13.54s-5.74,13.14-1.91,17.1S37.63,85.61,27.93,68.5Z"/><path class="cls-4" d="M40.07,89.16s-8.83,17,10,19.91a26.24,26.24,0,0,0,5.71-.27c5.17-1.31,12.31-6.12,3.78-23.23,0,0,.12,4.66-3.47,3.65S60,78.82,51.25,75.11c0,0,.78,4.78-3,6.34s-2.69,6.15-.9,8S44.61,97.17,40.07,89.16Z"/><path class="cls-3" d="M86.42,19.87,70.08,48.17a2,2,0,0,0,1.73,3h32.67a2,2,0,0,0,1.73-3L89.88,19.87A2,2,0,0,0,86.42,19.87Z"/><line class="cls-3" x1="88.15" y1="30.36" x2="88.15" y2="39.07"/><line class="cls-3" x1="88.15" y1="43.95" x2="88.15" y2="43.95"/></svg>