<svg id="Layer_1" data-name="Layer 1" xmlns="http://www.w3.org/2000/svg" viewBox="0 0 130 130"><defs><style>.cls-1,.cls-4,.cls-5{fill:none;}.cls-1{stroke:#182ac3;}.cls-1,.cls-5{stroke-miterlimit:10;}.cls-2{fill:#fff;}.cls-2,.cls-4{stroke:#0561fc;stroke-linecap:round;stroke-linejoin:round;stroke-width:4px;}.cls-3{fill:#c5e1f9;}.cls-5{stroke:#fff;}</style></defs><rect class="cls-1" x="-1286.71" y="-168.32" width="1738.81" height="825.88"/><g id="Layer_31" data-name="Layer 31"><rect class="cls-2" x="93.29" y="17.5" width="16.84" height="27.52"/><rect class="cls-2" x="16.84" y="17.5" width="16.84" height="27.52"/><circle id="Ellipse_210" data-name="Ellipse 210" class="cls-2" cx="65.13" cy="64.41" r="16.17"/><circle id="Ellipse_212" data-name="Ellipse 212" class="cls-3" cx="65.13" cy="64.41" r="6.64"/><path id="Path_1055" data-name="Path 1055" class="cls-4" d="M40.3,53.58A27.13,27.13,0,0,1,53.31,40"/><path id="Path_1056" data-name="Path 1056" class="cls-4" d="M52.6,88.42A27.19,27.19,0,0,1,40.65,76"/><path id="Path_1057" data-name="Path 1057" class="cls-4" d="M90.08,75A27.16,27.16,0,0,1,75.62,89.38"/><path id="Path_1058" data-name="Path 1058" class="cls-4" d="M75.62,39.43A27.18,27.18,0,0,1,90,53.58"/><path id="Path_1059" data-name="Path 1059" class="cls-4" d="M57.31,43.38V12.74a8.38,8.38,0,0,1,14.46,0V43.38"/><path id="Path_1060" data-name="Path 1060" class="cls-4" d="M71.77,86.61v30.65a8.38,8.38,0,0,1-14.46,0V86.61"/><path id="Path_1061" data-name="Path 1061" class="cls-4" d="M86.42,57.18h30.64a8.38,8.38,0,0,1,0,14.46H86.42"/><path id="Path_1066" data-name="Path 1066" class="cls-4" d="M43.58,71.63H12.94a8.38,8.38,0,0,1,0-14.46H43.58"/><g id="Group_82691" data-name="Group 82691"><line id="Line_494" data-name="Line 494" class="cls-4" x1="98.05" y1="27.28" x2="105.36" y2="27.28"/><line id="Line_495" data-name="Line 495" class="cls-4" x1="98.05" y1="38.89" x2="105.36" y2="38.89"/><line id="Line_496" data-name="Line 496" class="cls-4" x1="101.83" y1="23.62" x2="101.83" y2="30.93"/></g><g id="Group_82693" data-name="Group 82693"><path id="Path_1072" data-name="Path 1072" class="cls-3" d="M27.33,117.44a.83.83,0,0,1-.83-.83V87.24a.83.83,0,0,1,.83-.83.84.84,0,0,1,.84.83v29.37a.83.83,0,0,1-.83.83Z"/><path id="Path_1073" data-name="Path 1073" class="cls-3" d="M42,102.75H12.65a.83.83,0,0,1,0-1.66H42a.83.83,0,0,1,0,1.66Z"/><path id="Path_1074" data-name="Path 1074" class="cls-3" d="M17,113.45a.82.82,0,0,1-.59-.25.83.83,0,0,1,0-1.18L37.12,91.26a.84.84,0,1,1,1.19,1.18L17.54,113.2A.82.82,0,0,1,17,113.45Z"/><path id="Path_1075" data-name="Path 1075" class="cls-3" d="M37.72,113.14a.87.87,0,0,1-.6-.24L16.36,92.13A.83.83,0,1,1,17.54,91l20.77,20.76a.86.86,0,0,1,0,1.19A.87.87,0,0,1,37.72,113.14Z"/><path id="Path_1076" data-name="Path 1076" class="cls-3" d="M27.35,92.34a.87.87,0,0,1-.59-.24l-3.4-3.38a.83.83,0,0,1,1.17-1.19h0l2.81,2.79,2.79-2.81a.82.82,0,0,1,1.17,0h0a.85.85,0,0,1,0,1.18l-3.38,3.4a.82.82,0,0,1-.59.25Z"/><path id="Path_1077" data-name="Path 1077" class="cls-3" d="M15.25,95.45a.83.83,0,0,1-.83-.83h0a.84.84,0,0,1,.83-.84h0l4,0,0-4A.84.84,0,0,1,20,89h0a.84.84,0,0,1,.84.83h0l0,4.79a.87.87,0,0,1-.24.6.82.82,0,0,1-.59.24l-4.81,0Z"/><path id="Path_1078" data-name="Path 1078" class="cls-3" d="M14.16,106a.82.82,0,0,1-.59-.24.85.85,0,0,1,0-1.18l2.79-2.81L13.55,99a.83.83,0,1,1,1.17-1.19h0l3.41,3.38a.84.84,0,0,1,0,1.18l-3.37,3.4A.81.81,0,0,1,14.16,106Z"/><path id="Path_1079" data-name="Path 1079" class="cls-3" d="M20.07,115a.83.83,0,0,1-.83-.83h0l0-4-3.95,0h0a.83.83,0,0,1-.83-.83h0a.84.84,0,0,1,.83-.84h4.8a.83.83,0,0,1,.83.83h0l0,4.8a.84.84,0,0,1-.84.83Z"/><path id="Path_1080" data-name="Path 1080" class="cls-3" d="M34.33,95.87A.83.83,0,0,1,33.5,95h0l0-4.79a.84.84,0,0,1,.83-.84h0a.84.84,0,0,1,.84.83h0v4l4,0h0A.84.84,0,0,1,40,95h0a.84.84,0,0,1-.84.83h0l-4.8,0Z"/><path id="Path_1081" data-name="Path 1081" class="cls-3" d="M40.53,106.15a.83.83,0,0,1-.58-.24l-3.41-3.38a.82.82,0,0,1-.24-.59.85.85,0,0,1,.24-.6l3.38-3.4a.82.82,0,0,1,1.17,0h0a.85.85,0,0,1,0,1.18l-2.79,2.81,2.81,2.78a.85.85,0,0,1,0,1.19A.84.84,0,0,1,40.53,106.15Z"/><path id="Path_1082" data-name="Path 1082" class="cls-3" d="M34.53,114.67a.84.84,0,0,1-.84-.83h0V109a.86.86,0,0,1,.23-.59.83.83,0,0,1,.59-.25l4.8,0h0a.83.83,0,0,1,.83.83h0a.84.84,0,0,1-.83.84h-4l0,4a.85.85,0,0,1-.84.84Z"/><path id="Path_1083" data-name="Path 1083" class="cls-3" d="M24,116a.87.87,0,0,1-.59-.24.86.86,0,0,1,0-1.19l3.38-3.4a.84.84,0,0,1,1.18,0h0l3.41,3.37a.84.84,0,0,1-1.18,1.19l-2.81-2.79-2.79,2.81A.86.86,0,0,1,24,116Z"/></g><g id="Group_82694" data-name="Group 82694"><path id="Path_1084" data-name="Path 1084" class="cls-3" d="M101.21,113.82a.58.58,0,0,1-.59-.59h0V92.49a.58.58,0,0,1,.59-.58h0a.59.59,0,0,1,.59.58h0v20.74A.6.6,0,0,1,101.21,113.82Z"/><path id="Path_1085" data-name="Path 1085" class="cls-3" d="M111.58,103.45H90.84a.58.58,0,0,1-.59-.58h0a.58.58,0,0,1,.59-.59h20.74a.58.58,0,0,1,.58.58h0a.57.57,0,0,1-.58.58Z"/><path id="Path_1086" data-name="Path 1086" class="cls-3" d="M93.88,111a.59.59,0,0,1-.42-.17.6.6,0,0,1,0-.84l14.66-14.66a.6.6,0,0,1,.84,0,.62.62,0,0,1,0,.84L94.29,110.83A.58.58,0,0,1,93.88,111Z"/><path id="Path_1087" data-name="Path 1087" class="cls-3" d="M108.54,110.78a.59.59,0,0,1-.42-.17L93.46,96a.6.6,0,0,1,0-.84.6.6,0,0,1,.83,0L109,109.78a.59.59,0,0,1-.42,1Z"/><path id="Path_1088" data-name="Path 1088" class="cls-3" d="M101.22,96.09a.59.59,0,0,1-.42-.17l-2.4-2.39a.59.59,0,0,1,0-.83h0a.59.59,0,0,1,.83,0h0l2,2,2-2a.59.59,0,0,1,.83,0h0a.59.59,0,0,1,0,.83h0l-2.39,2.4a.52.52,0,0,1-.41.18Z"/><path id="Path_1089" data-name="Path 1089" class="cls-3" d="M92.68,98.29a.58.58,0,0,1-.59-.59h0a.59.59,0,0,1,.59-.59h2.8l0-2.8a.61.61,0,0,1,.59-.6h0a.59.59,0,0,1,.59.59h0v3.39a.59.59,0,0,1-.59.59l-3.38,0Z"/><path id="Path_1090" data-name="Path 1090" class="cls-3" d="M91.91,105.71a.59.59,0,0,1-.42-1h0l2-2-2-2a.59.59,0,0,1,0-.83h0a.59.59,0,0,1,.83,0h0l2.4,2.38a.59.59,0,0,1,0,.83h0l-2.38,2.4A.54.54,0,0,1,91.91,105.71Z"/><path id="Path_1091" data-name="Path 1091" class="cls-3" d="M96.08,112.09a.59.59,0,0,1-.59-.59h0v-2.8l-2.8,0h0a.6.6,0,0,1-.59-.59h0a.6.6,0,0,1,.59-.6h3.39a.6.6,0,0,1,.59.59h0v3.39a.59.59,0,0,1-.59.59Z"/><path id="Path_1092" data-name="Path 1092" class="cls-3" d="M106.15,98.59a.6.6,0,0,1-.59-.59h0V94.61a.59.59,0,0,1,.59-.59h0a.59.59,0,0,1,.59.58h0v2.8l2.8,0h0a.6.6,0,0,1,.59.59h0a.61.61,0,0,1-.59.6Z"/><path id="Path_1093" data-name="Path 1093" class="cls-3" d="M110.53,105.84a.59.59,0,0,1-.42-.17l-2.41-2.39a.59.59,0,0,1,0-.83h0l2.38-2.4a.61.61,0,0,1,.84,0h0a.59.59,0,0,1,0,.83h0l-2,2,2,2a.59.59,0,0,1,0,.83h0A.58.58,0,0,1,110.53,105.84Z"/><path id="Path_1094" data-name="Path 1094" class="cls-3" d="M106.28,111.86a.58.58,0,0,1-.59-.58h0v-3.38a.6.6,0,0,1,.59-.6h3.38a.59.59,0,0,1,.59.59h0a.6.6,0,0,1-.59.6h-2.79v2.79a.58.58,0,0,1-.58.59Z"/><path id="Path_1095" data-name="Path 1095" class="cls-3" d="M98.81,112.8a.59.59,0,0,1-.41-1h0l2.38-2.4a.6.6,0,0,1,.42-.18h0a.59.59,0,0,1,.42.17l2.4,2.39a.59.59,0,0,1,0,.83h0a.58.58,0,0,1-.83,0h0l-2-2-2,2A.63.63,0,0,1,98.81,112.8Z"/></g><circle id="Ellipse_213" data-name="Ellipse 213" class="cls-3" cx="27.33" cy="101.92" r="2.58"/><g id="Group_82691-2" data-name="Group 82691"><line id="Line_494-2" data-name="Line 494" class="cls-4" x1="21.6" y1="27.28" x2="28.91" y2="27.28"/><line id="Line_495-2" data-name="Line 495" class="cls-4" x1="21.6" y1="38.89" x2="28.91" y2="38.89"/><line id="Line_496-2" data-name="Line 496" class="cls-4" x1="25.38" y1="23.62" x2="25.38" y2="30.93"/></g></g><rect class="cls-5" x="-1256.94" y="-42.78" width="1621.72" height="655.76"/></svg>