<svg id="Layer_1" data-name="Layer 1" xmlns="http://www.w3.org/2000/svg" viewBox="0 0 130 130"><defs><style>.cls-1,.cls-3,.cls-5{fill:none;}.cls-1{stroke:#182ac3;}.cls-1,.cls-5{stroke-miterlimit:10;}.cls-2{fill:#c5e1f9;}.cls-3,.cls-4{stroke:#0561fc;stroke-linecap:round;stroke-linejoin:round;stroke-width:4px;}.cls-4{fill:#fff;}.cls-5{stroke:#fff;}</style></defs><rect class="cls-1" x="-86.71" y="-568.32" width="1738.81" height="825.88"/><g id="Layer_32" data-name="Layer 32"><path id="Path_1096" data-name="Path 1096" class="cls-2" d="M79.3,37.34a3.45,3.45,0,0,0-2.24-3.51,28.29,28.29,0,0,0-8.13-2.13c-2.23-.24-3.16.19-4.15,2.17A7.21,7.21,0,0,1,62.07,37,7.32,7.32,0,0,1,54,37c-1.92-1.21-3-1.07-4.78.34A27.35,27.35,0,0,0,44,42.58c-1.28,1.76-1.28,2.84-.07,4.66a7.32,7.32,0,0,1-3.2,11,3.3,3.3,0,0,0-2.2,3.4,22.32,22.32,0,0,0,2.35,9c1,1.82,1.87,2.28,3.94,2.06a7.27,7.27,0,0,1,8.27,6.13c0,.12,0,.24,0,.36a50.15,50.15,0,0,0,11.24-6.86l.9-.75A50,50,0,0,0,69,68.1l-.41.11c-4.7,1.61-10.13-1.59-11.49-6.33a9.35,9.35,0,1,1,18-5.07,9.12,9.12,0,0,1,.27,3.12,49,49,0,0,0,2.43-4.33,26.89,26.89,0,0,0,1.72-3.54c.54-1.38,4.25-5.89,4.56-7.34a5.55,5.55,0,0,1-2.31-1.15A8.69,8.69,0,0,1,79.3,37.34Z"/><g id="Group_82695" data-name="Group 82695"><rect id="Rectangle_246" data-name="Rectangle 246" class="cls-3" x="59.09" y="81.58" width="6.91" height="27.48"/><rect id="Rectangle_247" data-name="Rectangle 247" class="cls-3" x="48.17" y="91.62" width="6.91" height="17.45"/><rect id="Rectangle_248" data-name="Rectangle 248" class="cls-3" x="70.34" y="70.97" width="6.91" height="38.1"/><rect id="Rectangle_249" data-name="Rectangle 249" class="cls-3" x="82.27" y="61.09" width="6.91" height="47.97"/></g><path id="Path_1098" data-name="Path 1098" class="cls-3" d="M53.15,79.24a50.26,50.26,0,0,0,11.23-6.87c.31-.24.6-.49.9-.74A50.14,50.14,0,0,0,69,68.09"/><path id="Path_1099" data-name="Path 1099" class="cls-3" d="M53.15,79.24a54,54,0,0,1-5.48,2.07,9.8,9.8,0,0,0-9.25-3.63c-2.71.35-3.93-.25-5.25-2.62a29.19,29.19,0,0,1-3.35-11.8,4.37,4.37,0,0,1,2.8-4.56,9.63,9.63,0,0,0,3.92-14.62c-1.65-2.37-1.69-3.79,0-6.15a35.63,35.63,0,0,1,6.65-7.06c2.31-1.91,3.72-2.12,6.29-.58,3.63,2.17,7.17,1.91,10.67-.2a9.33,9.33,0,0,0,3.5-4.23c1.25-2.63,2.47-3.22,5.41-3A37,37,0,0,1,79.8,25.47a4.53,4.53,0,0,1,3.06,4.58c.09,6.74,4.5,10.72,11.21,10.11,2.42-.22,4,1.12,5.44,4.24a33.44,33.44,0,0,1,2.69,9.85,4.45,4.45,0,0,1-2.6,5,9.7,9.7,0,0,0-3.42,14.86c1.51,1.81,1.48,3.43.21,5.44A34.69,34.69,0,0,1,90,86.93"/><circle id="Ellipse_214" data-name="Ellipse 214" class="cls-4" cx="66.12" cy="59.28" r="3.84"/><circle id="Ellipse_215" data-name="Ellipse 215" class="cls-3" cx="25.75" cy="48.3" r="4.63"/><circle id="Ellipse_217" data-name="Ellipse 217" class="cls-2" cx="106.01" cy="68.09" r="4.6"/><circle id="Ellipse_220" data-name="Ellipse 220" class="cls-2" cx="38.54" cy="88.51" r="4.58"/><polyline class="cls-3" points="88.86 19.75 92.31 17.24 94.83 20.7"/><path id="Path_1101" data-name="Path 1101" class="cls-3" d="M69,68.09a50.43,50.43,0,0,0,6.36-8.17S87,43.73,90.84,25.35l1.26-5.87"/></g><rect class="cls-5" x="-56.94" y="-442.78" width="1621.72" height="655.76"/></svg>