<svg id="Layer_1" data-name="Layer 1" xmlns="http://www.w3.org/2000/svg" viewBox="0 0 130 130"><defs><style>.cls-1,.cls-2,.cls-5{fill:none;}.cls-1{stroke:#182ac3;}.cls-1,.cls-5{stroke-miterlimit:10;}.cls-2{stroke:#0561fc;stroke-linecap:round;stroke-linejoin:round;stroke-width:4px;}.cls-3{isolation:isolate;}.cls-4{fill:#c5e1f9;}.cls-5{stroke:#fff;}</style></defs><rect class="cls-1" x="-486.71" y="-568.32" width="1738.81" height="825.88"/><g id="Layer_19" data-name="Layer 19"><path id="Path_1179" data-name="Path 1179" class="cls-2" d="M93.85,107.42H37.48"/><line id="Line_541" data-name="Line 541" class="cls-2" x1="93.84" y1="35.19" x2="93.84" y2="88.06"/><path id="Path_1181" data-name="Path 1181" class="cls-2" d="M31.7,75V22H83.58"/><path id="Path_1182" data-name="Path 1182" class="cls-2" d="M83.58,35.19H93.84L83.58,22Z"/><line id="Line_543" data-name="Line 543" class="cls-2" x1="64.95" y1="88.06" x2="109.19" y2="88.06"/><path id="Path_1183" data-name="Path 1183" class="cls-2" d="M110.56,99.45v8H63.23V88.06h3.45"/><path id="Path_1184" data-name="Path 1184" class="cls-2" d="M105.34,88.06h5.22v6.39"/><g id="Group_82722" data-name="Group 82722"><g id="LOG" class="cls-3"><g class="cls-3"><path class="cls-4" d="M75.88,101.31h3.18v1H74.7V93.21h1.18Z"/><path class="cls-4" d="M82.12,101.77a4.26,4.26,0,0,1-1.64-1.65,5,5,0,0,1,0-4.77,4.4,4.4,0,0,1,1.64-1.65,4.63,4.63,0,0,1,2.3-.59,4.68,4.68,0,0,1,2.32.59,4.33,4.33,0,0,1,1.64,1.65,5.14,5.14,0,0,1,0,4.78,4.31,4.31,0,0,1-1.64,1.64,4.58,4.58,0,0,1-2.32.6A4.54,4.54,0,0,1,82.12,101.77Zm4-.87a3.17,3.17,0,0,0,1.2-1.26,4.34,4.34,0,0,0,0-3.81,3.12,3.12,0,0,0-1.19-1.25,3.56,3.56,0,0,0-3.43,0,3.12,3.12,0,0,0-1.19,1.25,4.34,4.34,0,0,0,0,3.81,3.21,3.21,0,0,0,1.19,1.26,3.4,3.4,0,0,0,1.71.44A3.35,3.35,0,0,0,86.13,100.9Z"/><path class="cls-4" d="M97.4,95.84a2.84,2.84,0,0,0-1.09-1.23,3.15,3.15,0,0,0-1.67-.43,3.39,3.39,0,0,0-1.71.43,3.12,3.12,0,0,0-1.19,1.25,3.92,3.92,0,0,0-.44,1.88,3.88,3.88,0,0,0,.44,1.87,3.09,3.09,0,0,0,1.19,1.24,3.4,3.4,0,0,0,1.71.44,3.11,3.11,0,0,0,2.19-.8,3.27,3.27,0,0,0,1-2.14H94.21v-1h4.88v.91a4.44,4.44,0,0,1-.7,2,4.39,4.39,0,0,1-3.75,2,4.53,4.53,0,0,1-2.3-.59,4.31,4.31,0,0,1-1.64-1.64,5,5,0,0,1,0-4.77,4.4,4.4,0,0,1,1.64-1.65,4.63,4.63,0,0,1,2.3-.59,4.69,4.69,0,0,1,2.56.71,4.12,4.12,0,0,1,1.62,2Z"/></g><g class="cls-3"><path class="cls-4" d="M75.88,101.31h3.18v1H74.7V93.21h1.18Z"/><path class="cls-4" d="M82.12,101.77a4.26,4.26,0,0,1-1.64-1.65,5,5,0,0,1,0-4.77,4.4,4.4,0,0,1,1.64-1.65,4.63,4.63,0,0,1,2.3-.59,4.68,4.68,0,0,1,2.32.59,4.33,4.33,0,0,1,1.64,1.65,5.14,5.14,0,0,1,0,4.78,4.31,4.31,0,0,1-1.64,1.64,4.58,4.58,0,0,1-2.32.6A4.54,4.54,0,0,1,82.12,101.77Zm4-.87a3.17,3.17,0,0,0,1.2-1.26,4.34,4.34,0,0,0,0-3.81,3.12,3.12,0,0,0-1.19-1.25,3.56,3.56,0,0,0-3.43,0,3.12,3.12,0,0,0-1.19,1.25,4.34,4.34,0,0,0,0,3.81,3.21,3.21,0,0,0,1.19,1.26,3.4,3.4,0,0,0,1.71.44A3.35,3.35,0,0,0,86.13,100.9Z"/><path class="cls-4" d="M97.4,95.84a2.84,2.84,0,0,0-1.09-1.23,3.15,3.15,0,0,0-1.67-.43,3.39,3.39,0,0,0-1.71.43,3.12,3.12,0,0,0-1.19,1.25,3.92,3.92,0,0,0-.44,1.88,3.88,3.88,0,0,0,.44,1.87,3.09,3.09,0,0,0,1.19,1.24,3.4,3.4,0,0,0,1.71.44,3.11,3.11,0,0,0,2.19-.8,3.27,3.27,0,0,0,1-2.14H94.21v-1h4.88v.91a4.44,4.44,0,0,1-.7,2,4.39,4.39,0,0,1-3.75,2,4.53,4.53,0,0,1-2.3-.59,4.31,4.31,0,0,1-1.64-1.64,5,5,0,0,1,0-4.77,4.4,4.4,0,0,1,1.64-1.65,4.63,4.63,0,0,1,2.3-.59,4.69,4.69,0,0,1,2.56.71,4.12,4.12,0,0,1,1.62,2Z"/></g></g></g><line id="Line_544" data-name="Line 544" class="cls-2" x1="40.2" y1="36.72" x2="48.37" y2="36.72"/><line id="Line_545" data-name="Line 545" class="cls-2" x1="40.2" y1="41.99" x2="53.92" y2="41.99"/><line id="Line_546" data-name="Line 546" class="cls-2" x1="40.2" y1="47.25" x2="58.05" y2="47.25"/><line id="Line_547" data-name="Line 547" class="cls-2" x1="40.2" y1="53.25" x2="58.05" y2="53.25"/><line id="Line_544-2" data-name="Line 544" class="cls-2" x1="66.11" y1="63.68" x2="74.29" y2="63.68"/><line id="Line_545-2" data-name="Line 545" class="cls-2" x1="66.11" y1="68.95" x2="79.83" y2="68.95"/><line id="Line_546-2" data-name="Line 546" class="cls-2" x1="66.11" y1="74.22" x2="83.96" y2="74.22"/><line id="Line_547-2" data-name="Line 547" class="cls-2" x1="66.11" y1="80.21" x2="83.96" y2="80.21"/><rect id="Rectangle_259" data-name="Rectangle 259" class="cls-4" x="66.11" y="39.06" width="5.86" height="5.86"/><rect id="Rectangle_261" data-name="Rectangle 261" class="cls-4" x="76.83" y="39.06" width="5.86" height="5.86"/><rect id="Rectangle_263" data-name="Rectangle 263" class="cls-4" x="66.11" y="47.39" width="16.58" height="5.86"/><rect id="Rectangle_260" data-name="Rectangle 260" class="cls-4" x="41.47" y="64.58" width="5.86" height="5.86"/><rect id="Rectangle_262" data-name="Rectangle 262" class="cls-4" x="52.19" y="64.54" width="5.86" height="5.86"/><rect id="Rectangle_264" data-name="Rectangle 264" class="cls-4" x="41.47" y="73.49" width="16.58" height="5.86"/><g id="Group_82723" data-name="Group 82723"><path id="Path_1187" data-name="Path 1187" class="cls-2" d="M45.65,82V103a19.41,19.41,0,0,1-26.21,0V82c0,3.07,5.87,5.56,13.1,5.56S45.65,85.11,45.65,82Z"/><path id="Path_1188" data-name="Path 1188" class="cls-4" d="M45.65,82c0,3.07-5.86,5.56-13.1,5.56S19.44,85.11,19.44,82a2.3,2.3,0,0,1,0-.45c.55-2.86,6.19-5.1,13.06-5.1s12.51,2.24,13.06,5.1A2.28,2.28,0,0,1,45.65,82Z"/><path id="Path_1189" data-name="Path 1189" class="cls-2" d="M19.44,90.85s12.75,9.52,26.22,0"/><path id="Path_1190" data-name="Path 1190" class="cls-2" d="M19.44,96.81s13.38,10.52,26.17,0"/><path id="Path_1188-2" data-name="Path 1188" class="cls-2" d="M45.65,82c0,3.07-5.86,5.56-13.1,5.56S19.44,85.11,19.44,82a2.3,2.3,0,0,1,0-.45c.55-2.86,6.19-5.1,13.06-5.1s12.51,2.24,13.06,5.1A2.28,2.28,0,0,1,45.65,82Z"/></g></g><rect class="cls-5" x="-456.94" y="-442.78" width="1621.72" height="655.76"/></svg>