<svg id="Layer_1" data-name="Layer 1" xmlns="http://www.w3.org/2000/svg" viewBox="0 0 130 130"><defs><style>.cls-1,.cls-4{fill:none;}.cls-1{stroke:#fff;stroke-miterlimit:10;}.cls-2{fill:#fff;}.cls-2,.cls-4{stroke:#0561fc;stroke-linecap:round;stroke-linejoin:round;stroke-width:4px;}.cls-3{fill:#c5e1f9;}</style></defs><rect class="cls-1" x="-477.16" y="-115.35" width="1621.72" height="1131.85"/><g id="Group_82723" data-name="Group 82723"><path id="Path_1187" data-name="Path 1187" class="cls-2" d="M88.62,75.69v37.7a35,35,0,0,1-47.25,0V75.69c0,5.53,10.58,10,23.62,10S88.62,81.22,88.62,75.69Z"/><path id="Path_1188" data-name="Path 1188" class="cls-3" d="M88.63,75.69c0,5.53-10.58,10-23.63,10s-23.62-4.48-23.62-10a3.83,3.83,0,0,1,.08-.83c1-5.14,11.15-9.18,23.54-9.18s22.56,4,23.55,9.18A5.69,5.69,0,0,1,88.63,75.69Z"/><path id="Path_1189" data-name="Path 1189" class="cls-2" d="M41.38,91.57s23,17.15,47.25,0"/><path id="Path_1190" data-name="Path 1190" class="cls-2" d="M41.38,102.3s24.11,19,47.17,0"/><path id="Path_1188-2" data-name="Path 1188" class="cls-4" d="M88.63,75.69c0,5.53-10.58,10-23.63,10s-23.62-4.48-23.62-10a3.83,3.83,0,0,1,.08-.83c1-5.14,11.15-9.18,23.54-9.18s22.56,4,23.55,9.18A5.69,5.69,0,0,1,88.63,75.69Z"/></g><rect class="cls-2" x="41.8" y="7.43" width="46.4" height="46.4"/><path class="cls-3" d="M55.28,46.34,50.52,14.92h5l3.28,24.69,3.27-24.69h4.54L61.83,46.34Z"/><path class="cls-3" d="M79.42,33.27A.43.43,0,0,0,79,33H73.21l1-7.47a.45.45,0,0,0-.39-.49.46.46,0,0,0-.43.2L66.27,37.7a.45.45,0,0,0,.15.62.46.46,0,0,0,.23.06H72.4l-.78,7.48a.45.45,0,0,0,.41.48.44.44,0,0,0,.42-.2l7-12.43a.43.43,0,0,0,0-.44Z"/><line class="cls-2" x1="65" y1="53.84" x2="65" y2="74.39"/></svg>