<svg id="Layer_1" data-name="Layer 1" xmlns="http://www.w3.org/2000/svg" viewBox="0 0 130 130"><defs><style>.cls-1,.cls-5{fill:none;}.cls-1{stroke:#fff;stroke-miterlimit:10;}.cls-2{fill:#fff;}.cls-2,.cls-5{stroke:#0561fc;stroke-linecap:round;stroke-linejoin:round;stroke-width:4px;}.cls-3{fill:#0561fc;}.cls-4{fill:#c5e1f9;}</style></defs><rect class="cls-1" x="-877.16" y="-115.35" width="1621.72" height="1131.85"/><path class="cls-2" d="M49.25,97.53H10.9a3.29,3.29,0,0,1-3.3-3.29V29.75a3.3,3.3,0,0,1,3.3-3.3H98.31a3.3,3.3,0,0,1,3.3,3.3V94.24a3.29,3.29,0,0,1-3.3,3.29h-51"/><line class="cls-2" x1="7.6" y1="41.86" x2="101.61" y2="41.86"/><path class="cls-3" d="M19.08,34.15A2.2,2.2,0,1,1,16.88,32,2.2,2.2,0,0,1,19.08,34.15Z"/><path class="cls-3" d="M27.69,34.15A2.2,2.2,0,1,1,25.5,32,2.19,2.19,0,0,1,27.69,34.15Z"/><path class="cls-3" d="M93.38,34.15a2.19,2.19,0,0,1-2.19,2.19h-15a2.19,2.19,0,1,1,0-4.38h15A2.19,2.19,0,0,1,93.38,34.15Z"/><line class="cls-2" x1="16.1" y1="53.3" x2="29.79" y2="53.3"/><line class="cls-2" x1="16.1" y1="64.23" x2="42.54" y2="64.23"/><line class="cls-2" x1="16.1" y1="75.16" x2="42.54" y2="75.16"/><path class="cls-4" d="M122.4,88.46A15.11,15.11,0,0,0,103,74a17.18,17.18,0,0,0-30.63-4.42,7.82,7.82,0,0,0-11.84,6.72c0,.21,0,.41,0,.62a13.4,13.4,0,0,0,.77,26.58v.06h47.45v-.08A15.1,15.1,0,0,0,122.4,88.46Z"/><path class="cls-5" d="M122.4,88.46A15.11,15.11,0,0,0,103,74a17.18,17.18,0,0,0-30.63-4.42,7.82,7.82,0,0,0-11.84,6.72c0,.21,0,.41,0,.62a13.4,13.4,0,0,0,.77,26.58v.06h47.45v-.08A15.1,15.1,0,0,0,122.4,88.46Z"/></svg>