<svg id="Layer_1" data-name="Layer 1" xmlns="http://www.w3.org/2000/svg" viewBox="0 0 130 130"><defs><style>.cls-1,.cls-3,.cls-5{fill:none;}.cls-1{stroke:#fff;stroke-miterlimit:10;}.cls-2,.cls-6{fill:#fff;}.cls-3,.cls-6{stroke:#0561fc;}.cls-3,.cls-5,.cls-6{stroke-linecap:round;stroke-linejoin:round;stroke-width:4px;}.cls-4{fill:#c5e1f9;}.cls-5{stroke:#c5e1f9;}</style></defs><rect class="cls-1" x="-477.16" y="-478.42" width="1621.72" height="1131.85"/><rect class="cls-2" x="4.9" y="6.25" width="120.19" height="90.88" rx="3"/><rect class="cls-3" x="4.9" y="6.25" width="120.19" height="90.88" rx="3"/><line class="cls-3" x1="4.9" y1="25.95" x2="125.1" y2="25.95"/><path class="cls-4" d="M23.22,16.1a4,4,0,1,1-4-4A4,4,0,0,1,23.22,16.1Z"/><path class="cls-4" d="M36,16.1a4,4,0,1,1-4-4A4,4,0,0,1,36,16.1Z"/><path class="cls-4" d="M114.74,16.1a4,4,0,0,1-4,4H83.57a4,4,0,1,1,0-8h27.19A4,4,0,0,1,114.74,16.1Z"/><polyline class="cls-5" points="15.26 42.68 15.26 80.4 52.98 80.4"/><polyline class="cls-5" points="15.26 70.57 20.82 65.01 24.04 68.24 34.82 57.46 39.61 57.46 49.7 47.12"/><line class="cls-3" x1="63.4" y1="67.55" x2="89.07" y2="67.55"/><line class="cls-3" x1="63.4" y1="76.43" x2="114.74" y2="76.43"/><rect class="cls-6" x="63.4" y="46.65" width="12.04" height="12.04"/><rect class="cls-6" x="83.05" y="46.65" width="12.04" height="12.04"/><rect class="cls-6" x="102.69" y="46.65" width="12.04" height="12.04"/><g id="Group_82723" data-name="Group 82723"><path id="Path_1187" data-name="Path 1187" class="cls-6" d="M52.16,88.73v26.61c-6.42,5.8-15,8.29-23.62,8.41-8.82,0-17.09-2.5-23.64-8.41V88.73c0,5.52,10.58,10,23.63,10S52.16,94.26,52.16,88.73Z"/><path id="Path_1188" data-name="Path 1188" class="cls-4" d="M52.16,88.73c0,5.52-10.58,10-23.62,10s-23.63-4.48-23.63-10A3.84,3.84,0,0,1,5,87.9c1-5.14,11.15-9.18,23.54-9.18s22.56,4,23.55,9.18A4.57,4.57,0,0,1,52.16,88.73Z"/><path id="Path_1189" data-name="Path 1189" class="cls-6" d="M4.91,104.6s23,17.16,47.26,0"/><path id="Path_1188-2" data-name="Path 1188" class="cls-3" d="M52.16,88.73c0,5.52-10.58,10-23.62,10s-23.63-4.48-23.63-10A3.84,3.84,0,0,1,5,87.9c1-5.14,11.15-9.18,23.54-9.18s22.56,4,23.55,9.18A4.57,4.57,0,0,1,52.16,88.73Z"/></g></svg>