<svg id="Layer_1" data-name="Layer 1" xmlns="http://www.w3.org/2000/svg" viewBox="0 0 130 130"><defs><style>.cls-1,.cls-3,.cls-5{fill:none;}.cls-1{stroke:#fff;stroke-miterlimit:10;}.cls-2,.cls-6{fill:#fff;}.cls-3,.cls-6,.cls-7{stroke:#0561fc;}.cls-3,.cls-5,.cls-6,.cls-7{stroke-linecap:round;stroke-linejoin:round;stroke-width:4px;}.cls-4,.cls-7{fill:#c5e1f9;}.cls-5{stroke:#c5e1f9;}</style></defs><rect class="cls-1" x="-877.16" y="-478.42" width="1621.72" height="1131.85"/><rect class="cls-2" x="4.9" y="4.43" width="120.19" height="90.88" rx="3"/><rect class="cls-3" x="4.9" y="4.43" width="120.19" height="90.88" rx="3"/><line class="cls-3" x1="4.9" y1="24.12" x2="125.1" y2="24.12"/><path class="cls-4" d="M23.22,14.28a4,4,0,1,1-4-4A4,4,0,0,1,23.22,14.28Z"/><path class="cls-4" d="M36,14.28a4,4,0,1,1-4-4A4,4,0,0,1,36,14.28Z"/><path class="cls-4" d="M114.74,14.28a4,4,0,0,1-4,4H83.57a4,4,0,1,1,0-7.95h27.19A4,4,0,0,1,114.74,14.28Z"/><polyline class="cls-5" points="15.26 40.86 15.26 78.58 52.98 78.58"/><polyline class="cls-5" points="15.26 68.75 20.82 63.19 24.04 66.42 34.82 55.64 39.61 55.64 49.7 45.3"/><line class="cls-5" x1="63.4" y1="65.73" x2="89.07" y2="65.73"/><line class="cls-5" x1="63.4" y1="74.61" x2="114.74" y2="74.61"/><rect class="cls-4" x="63.4" y="44.83" width="12.04" height="12.04"/><rect class="cls-4" x="83.05" y="44.83" width="12.04" height="12.04"/><rect class="cls-4" x="102.69" y="44.83" width="12.04" height="12.04"/><path class="cls-6" d="M95.2,65.33a30.12,30.12,0,1,0,30.12,30.12A30.13,30.13,0,0,0,95.2,65.33Z"/><line class="cls-6" x1="95.2" y1="65.33" x2="95.2" y2="69.26"/><line class="cls-6" x1="95.2" y1="121.65" x2="95.2" y2="125.57"/><line class="cls-6" x1="80.14" y1="69.37" x2="82.1" y2="72.77"/><line class="cls-6" x1="108.3" y1="118.14" x2="110.26" y2="121.54"/><line class="cls-6" x1="69.12" y1="80.39" x2="72.52" y2="82.36"/><line class="cls-6" x1="117.89" y1="108.55" x2="121.29" y2="110.51"/><line class="cls-6" x1="65.08" y1="95.45" x2="69.01" y2="95.45"/><line class="cls-6" x1="121.4" y1="95.45" x2="125.32" y2="95.45"/><line class="cls-6" x1="69.12" y1="110.51" x2="72.52" y2="108.55"/><line class="cls-6" x1="117.89" y1="82.36" x2="121.29" y2="80.39"/><line class="cls-6" x1="80.14" y1="121.54" x2="82.1" y2="118.14"/><line class="cls-6" x1="108.3" y1="72.77" x2="110.26" y2="69.37"/><polyline class="cls-3" points="88.88 89.13 95.2 95.45 111.17 79.48"/><path class="cls-7" d="M95.2,92.22a3.24,3.24,0,1,0,3.24,3.23A3.24,3.24,0,0,0,95.2,92.22Z"/></svg>