<svg id="Layer_1" data-name="Layer 1" xmlns="http://www.w3.org/2000/svg" viewBox="0 0 130 130"><defs><style>.cls-1{fill:none;stroke:#fff;stroke-miterlimit:10;}.cls-2{fill:#fff;stroke:#0561fc;stroke-linecap:round;stroke-linejoin:round;stroke-width:4px;}.cls-3{fill:#c5e1f9;}</style></defs><rect class="cls-1" x="-1277.16" y="-478.42" width="1621.72" height="1131.85"/><path class="cls-2" d="M29.15,92.28H15.63a3.9,3.9,0,0,1-3.9-3.9V12.05a3.91,3.91,0,0,1,3.9-3.9H119.09a3.9,3.9,0,0,1,3.9,3.9V88.38a3.89,3.89,0,0,1-3.9,3.9H58.74"/><line class="cls-2" x1="11.73" y1="26.38" x2="122.99" y2="26.38"/><path class="cls-3" d="M25.31,17.26a2.6,2.6,0,1,1-2.6-2.6A2.59,2.59,0,0,1,25.31,17.26Z"/><path class="cls-3" d="M35.5,17.26a2.6,2.6,0,1,1-2.59-2.6A2.59,2.59,0,0,1,35.5,17.26Z"/><path class="cls-3" d="M113.26,17.26a2.59,2.59,0,0,1-2.6,2.59H92.94a2.59,2.59,0,0,1,0-5.18h17.72A2.59,2.59,0,0,1,113.26,17.26Z"/><line class="cls-2" x1="21.79" y1="39.92" x2="37.99" y2="39.92"/><line class="cls-2" x1="21.79" y1="52.86" x2="53.08" y2="52.86"/><line class="cls-2" x1="21.79" y1="65.8" x2="53.08" y2="65.8"/><path class="cls-2" d="M92,43.65V42.18a1.62,1.62,0,0,1,1.59-1.76,1.59,1.59,0,0,1,1.58,1.69c0,.51-.12,1.15.14,1.49s.89.29,1.36.42a11,11,0,0,1,7.9,9.83c.09,1.57.06,3.15,0,4.72A10.61,10.61,0,0,0,108.28,67a2.76,2.76,0,0,1-1.91,4.92H80.75A2.75,2.75,0,0,1,78.88,67a10.75,10.75,0,0,0,3.66-8.38,31.72,31.72,0,0,1,.29-6.25c1-4.66,4-7.48,8.6-8.58Z"/><path class="cls-2" d="M74.43,54.86a21.48,21.48,0,0,1,5.71-13.65"/><path class="cls-2" d="M106.45,40.64a21.47,21.47,0,0,1,6.11,12.45q.09.64.15,1.29"/><path class="cls-3" d="M87.24,75.4H99.85c0,2.46-2.91,5-5.82,5.2A6.46,6.46,0,0,1,87.24,75.4Z"/><path class="cls-2" d="M18.79,71.62a13.26,13.26,0,0,1,1.28.58c1.35.79,2.71,1.57,4,2.42a1.29,1.29,0,0,0,1.59,0c.24-.16,3-1.78,3-1.78A5.33,5.33,0,0,0,29.21,71a32.4,32.4,0,0,1,.84-3.5,1.82,1.82,0,0,1,2.09-1.65c1.93,0,3.87,0,5.8,0A1.81,1.81,0,0,1,40,67.46c.45,1.77.84,3.55,1.34,5.3a2.13,2.13,0,0,0,.84,1c2,1.42,3.86,1,5.66-.46a15.56,15.56,0,0,1,2-1.2,1.71,1.71,0,0,1,2.29.25q2.22,2.19,4.41,4.41a1.75,1.75,0,0,1,.22,2.38c-.84,1.37-1.67,2.74-2.46,4.14a1.31,1.31,0,0,0-.17,1,20.8,20.8,0,0,0,1.13,2.72,1.4,1.4,0,0,0,.82.57c1.72.47,3.46.88,5.19,1.31,1.43.35,1.8.82,1.8,2.29,0,1.82,0,3.65,0,5.47,0,1.46-.37,1.92-1.82,2.28-1.69.42-3.4.8-5.08,1.29a2.22,2.22,0,0,0-1,.91c-1.39,1.94-.81,3.62.43,5.49,2.23,3.34,2.25,3-.66,5.85-.88.88-1.77,1.74-2.62,2.64a1.89,1.89,0,0,1-2.65.3c-1.2-.75-2.43-1.47-3.65-2.2a4.59,4.59,0,0,0-.57-.32c-.65-.27-3.9,1.38-4.08,2.07-.43,1.69-.84,3.39-1.26,5.08-.38,1.52-.81,1.88-2.34,1.88H32.15a1.8,1.8,0,0,1-2.09-1.64c-.45-1.76-.85-3.54-1.34-5.29a2.53,2.53,0,0,0-.83-1c-.22-.17-2.73-1-2.4-1a4.14,4.14,0,0,0-2.7,1c-.72.54-1.55,1-2.33,1.42a1.77,1.77,0,0,1-2.38-.27l-4.34-4.33a1.77,1.77,0,0,1-.28-2.38c.79-1.31,1.61-2.6,2.33-4a2.09,2.09,0,0,0,.07-1.27c0-.34-.38-.65-.43-1-.27-1.76-1.47-2.27-3-2.52-1.29-.2-2.55-.6-3.83-.91a1.85,1.85,0,0,1-1.57-2c0-1.93,0-3.87,0-5.8a1.8,1.8,0,0,1,1.63-2.1c1.69-.43,3.39-.86,5.09-1.24a1.86,1.86,0,0,0,1.3-1.1,3.7,3.7,0,0,0-.42-4.64A27.14,27.14,0,0,1,12.86,79a1.67,1.67,0,0,1,.24-2.2c1.48-1.51,3-3,4.49-4.48A5.41,5.41,0,0,1,18.79,71.62Z"/><path class="cls-3" d="M35.07,105.3A11.48,11.48,0,1,0,23.56,93.86,11.48,11.48,0,0,0,35.07,105.3Z"/></svg>