<?xml version="1.0" standalone="no"?>
<!DOCTYPE svg PUBLIC "-//W3C//DTD SVG 20010904//EN"
 "http://www.w3.org/TR/2001/REC-SVG-20010904/DTD/svg10.dtd">
<svg version="1.0" xmlns="http://www.w3.org/2000/svg"
 width="2048.000000pt" height="2048.000000pt" viewBox="0 0 2048.000000 2048.000000"
 preserveAspectRatio="xMidYMid meet">
<metadata>
Created by potrace 1.14, written by Peter Selinger 2001-2017
</metadata>
<g transform="translate(0.000000,2048.000000) scale(0.100000,-0.100000)"
fill="#000000" stroke="none">
<path d="M8289 14976 c-2 -2 -26 -7 -54 -10 -27 -4 -61 -9 -75 -11 -14 -3 -41
-7 -60 -9 -19 -2 -42 -7 -51 -10 -8 -4 -35 -8 -60 -11 -24 -2 -44 -4 -44 -5 0
-2 -65 -14 -148 -26 -15 -2 -36 -8 -46 -13 -10 -6 -21 -8 -23 -5 -3 2 -37 -2
-76 -11 -40 -8 -86 -17 -104 -20 -18 -4 -51 -10 -73 -16 -22 -5 -50 -12 -62
-14 -13 -3 -35 -8 -50 -11 -16 -3 -37 -7 -48 -9 -11 -3 -27 -6 -35 -8 -8 -2
-33 -8 -55 -12 -22 -5 -42 -10 -45 -10 -3 -1 -16 -5 -30 -8 -20 -5 -232 -58
-290 -72 -8 -2 -15 -4 -15 -5 0 -1 -11 -3 -25 -5 -14 -2 -50 -11 -80 -20 -30
-9 -62 -17 -70 -19 -21 -5 -114 -31 -180 -51 -30 -9 -62 -18 -70 -20 -8 -2
-46 -13 -85 -25 -38 -11 -77 -22 -85 -24 -9 -2 -69 -21 -135 -42 -66 -21 -123
-39 -127 -40 -5 -1 -10 -3 -13 -4 -3 -1 -9 -4 -15 -5 -5 -1 -12 -4 -15 -5 -3
-1 -9 -4 -15 -5 -5 -1 -11 -3 -12 -5 -2 -1 -10 -3 -18 -5 -8 -1 -55 -17 -105
-35 -49 -17 -94 -33 -100 -34 -5 -2 -19 -6 -30 -10 -11 -5 -36 -14 -56 -21
-20 -8 -39 -11 -43 -8 -3 4 -6 1 -6 -5 0 -7 -3 -11 -7 -10 -5 0 -15 -1 -23 -5
-14 -5 -136 -49 -240 -86 -25 -9 -48 -20 -51 -24 -3 -5 -8 -8 -10 -7 -9 5 -89
-24 -89 -32 0 -5 -4 -7 -8 -4 -4 2 -21 -1 -37 -9 -17 -7 -88 -37 -160 -65 -71
-29 -153 -63 -182 -76 -28 -13 -54 -24 -57 -24 -4 0 -29 -11 -58 -25 -28 -14
-58 -25 -65 -25 -7 0 -13 -4 -13 -10 0 -5 -6 -10 -12 -10 -17 0 -241 -102
-249 -113 -3 -5 -10 -9 -15 -9 -24 -1 -412 -192 -584 -287 -41 -23 -93 -51
-115 -62 -22 -11 -53 -28 -70 -37 -16 -10 -73 -42 -125 -71 -52 -30 -130 -76
-173 -102 -43 -27 -81 -49 -84 -49 -3 0 -26 -15 -52 -33 -25 -18 -53 -36 -61
-39 -16 -6 -357 -230 -377 -247 -7 -6 -15 -11 -18 -11 -3 0 -11 -4 -18 -10 -7
-5 -41 -31 -77 -57 -71 -51 -364 -269 -394 -293 -10 -8 -23 -20 -30 -25 -6 -6
-29 -24 -51 -40 -36 -27 -82 -67 -136 -117 -11 -10 -22 -18 -27 -18 -4 0 -14
-8 -23 -17 -8 -10 -48 -47 -89 -83 -40 -36 -103 -92 -138 -125 -111 -102 -446
-445 -435 -445 2 0 -11 -15 -29 -34 -18 -18 -49 -52 -68 -76 -19 -23 -39 -47
-45 -54 -5 -6 -28 -34 -50 -61 -22 -28 -44 -55 -50 -61 -5 -6 -17 -22 -25 -34
-8 -12 -23 -32 -34 -43 -10 -12 -31 -40 -45 -62 -14 -23 -32 -47 -39 -55 -16
-19 -68 -95 -124 -183 -24 -37 -55 -87 -70 -110 -15 -23 -31 -49 -35 -57 -3
-8 -9 -17 -13 -20 -7 -6 -60 -92 -98 -160 -61 -108 -74 -131 -126 -237 -30
-61 -73 -156 -96 -210 -23 -54 -45 -107 -50 -118 -12 -26 -61 -166 -65 -185
-2 -8 -11 -35 -20 -60 -15 -42 -60 -205 -72 -260 -10 -49 -11 -55 -13 -55 -1
0 -3 -13 -5 -30 -2 -16 -6 -39 -9 -50 -28 -115 -29 -640 -1 -685 2 -3 6 -22 9
-43 7 -44 35 -165 43 -187 4 -8 8 -26 10 -40 2 -13 8 -29 13 -36 5 -6 11 -20
13 -32 2 -12 6 -25 10 -28 4 -4 7 -13 7 -20 0 -23 119 -277 132 -282 4 -2 8
-8 8 -13 0 -13 100 -173 111 -177 5 -2 9 -10 9 -18 0 -8 7 -17 15 -20 8 -4 15
-11 15 -16 0 -21 147 -184 305 -339 123 -120 304 -263 444 -350 116 -73 213
-127 311 -175 63 -31 123 -60 132 -65 114 -58 572 -213 718 -243 14 -3 59 -13
100 -22 41 -9 82 -18 90 -19 8 -2 15 -4 15 -5 0 -1 11 -3 25 -5 14 -2 36 -6
50 -9 14 -4 44 -9 66 -12 23 -2 53 -7 65 -10 51 -11 162 -28 259 -39 25 -3 56
-8 70 -10 14 -2 59 -7 100 -10 41 -4 98 -9 125 -11 28 -3 88 -7 135 -10 47 -2
130 -7 185 -10 267 -14 884 -4 1195 21 41 3 104 7 140 10 102 6 194 16 199 21
2 2 -65 4 -150 5 -85 1 -181 2 -214 4 -111 5 -300 17 -330 20 -16 3 -59 7 -95
10 -36 3 -76 8 -90 11 -14 2 -50 6 -80 10 -30 3 -66 8 -80 10 -14 3 -38 7 -55
9 -16 2 -30 4 -30 6 0 1 -16 3 -35 4 -19 2 -35 4 -35 5 0 2 -28 8 -65 14 -14
3 -36 7 -50 10 -14 3 -59 13 -100 22 -41 9 -109 25 -150 36 -41 11 -86 22 -99
24 -14 3 -29 8 -35 12 -6 3 -20 8 -31 10 -20 3 -208 66 -255 85 -14 6 -27 11
-30 11 -36 7 -446 199 -460 215 -5 6 -33 23 -75 45 -37 20 -140 91 -143 98 -2
5 -8 8 -13 8 -5 0 -17 6 -26 14 -10 8 -56 45 -103 83 -146 116 -320 301 -423
450 -48 68 -147 245 -175 310 -32 74 -45 107 -47 116 -2 4 -4 9 -5 12 -1 3 -3
8 -4 13 -1 4 -14 45 -28 92 -27 87 -38 130 -44 165 -2 11 -8 47 -13 80 -6 33
-13 85 -17 115 -9 76 -9 370 0 455 11 97 14 120 16 120 0 0 3 16 5 35 7 53 13
95 16 98 2 2 3 6 12 52 13 62 16 74 37 145 11 39 22 79 25 89 14 59 95 278
146 396 59 135 231 454 309 575 8 13 28 45 44 72 26 42 178 271 198 298 5 6
56 75 115 155 96 131 248 327 262 340 4 3 26 30 51 60 25 30 52 62 60 70 8 9
40 45 70 80 30 35 78 88 105 118 78 86 473 479 554 552 40 36 83 74 95 85 12
11 53 47 91 80 38 33 77 68 87 78 10 9 22 17 27 17 5 0 11 3 13 8 2 4 30 30
63 57 33 28 62 53 63 58 2 4 8 7 13 7 5 0 17 8 27 18 28 26 63 54 107 86 22
16 45 34 52 40 31 27 43 36 48 36 3 0 17 11 30 24 12 13 40 34 62 47 21 13 43
28 50 35 6 6 58 44 115 85 57 40 105 77 106 81 2 5 9 8 16 8 6 0 27 13 46 30
19 16 40 29 47 30 6 0 13 3 15 8 4 10 247 172 259 172 5 0 9 4 9 9 0 5 8 11
18 15 18 6 49 25 67 41 6 6 29 19 51 30 21 11 43 26 47 33 4 6 12 12 18 12 5
0 28 11 50 26 22 14 55 33 72 43 18 10 75 43 127 73 131 76 237 135 290 161
25 12 48 27 52 32 5 7 8 7 8 0 0 -5 7 -2 14 8 8 10 17 18 20 17 9 -2 260 123
267 133 3 5 10 9 15 9 5 1 78 34 162 74 85 41 155 74 157 74 2 0 38 17 82 37
43 21 81 36 86 35 4 -1 7 2 7 8 0 5 7 10 15 10 8 0 23 4 33 9 9 5 24 12 32 15
8 3 22 10 30 15 8 5 44 21 80 36 36 16 85 37 110 48 90 39 106 46 160 67 30
12 60 26 66 31 6 5 19 10 30 12 10 2 42 14 69 26 28 13 55 24 60 25 6 1 27 10
49 19 21 9 40 17 41 17 1 0 20 8 41 17 22 9 41 17 44 18 5 0 149 56 210 82 19
8 43 19 53 24 11 6 21 8 24 5 3 -3 12 2 20 10 8 8 19 12 24 9 5 -4 9 -2 9 3 0
5 6 9 13 9 6 0 28 7 47 15 19 8 85 34 145 57 61 24 121 47 135 53 14 6 34 14
45 18 43 16 89 39 79 39 -6 1 -13 -1 -15 -3z"/>
<path d="M10037 14464 c-1 -1 -54 -5 -117 -9 -116 -8 -126 -8 -235 -19 -33 -3
-89 -9 -125 -12 -36 -3 -76 -8 -90 -9 -133 -17 -158 -21 -210 -30 -14 -2 -41
-6 -60 -9 -19 -3 -82 -15 -140 -26 -58 -12 -116 -23 -130 -26 -14 -2 -38 -8
-55 -11 -16 -4 -34 -8 -40 -9 -5 -1 -12 -3 -15 -4 -3 -1 -14 -3 -25 -5 -11 -2
-65 -16 -120 -30 -55 -15 -111 -28 -125 -31 -14 -3 -44 -11 -67 -19 -23 -8
-52 -17 -65 -19 -13 -3 -39 -10 -58 -16 -19 -6 -42 -13 -50 -15 -40 -9 -337
-107 -352 -115 -10 -6 -22 -10 -27 -10 -5 0 -22 -5 -38 -12 -15 -6 -32 -12
-38 -14 -27 -7 -334 -127 -435 -170 -63 -27 -117 -49 -120 -50 -9 -1 -158 -69
-295 -134 -185 -88 -340 -163 -345 -169 -3 -3 -43 -25 -90 -49 -132 -66 -271
-143 -420 -231 -52 -31 -102 -59 -110 -64 -8 -4 -28 -16 -45 -27 -16 -11 -37
-23 -45 -27 -8 -3 -17 -9 -20 -13 -3 -3 -27 -19 -55 -35 -47 -27 -308 -195
-330 -212 -6 -4 -37 -26 -70 -48 -33 -22 -62 -42 -65 -45 -3 -3 -31 -23 -62
-44 -32 -21 -66 -47 -78 -58 -11 -10 -20 -16 -20 -12 0 4 -9 -2 -20 -14 -12
-12 -24 -22 -28 -22 -4 0 -19 -10 -33 -22 -14 -13 -32 -27 -41 -33 -27 -17
-245 -188 -288 -225 -14 -12 -40 -34 -59 -49 -19 -14 -44 -35 -56 -46 -11 -11
-44 -40 -73 -65 -29 -25 -77 -67 -105 -94 -47 -44 -49 -47 -17 -30 19 10 37
21 40 24 9 9 120 80 125 80 3 0 44 25 90 55 47 30 90 55 95 55 4 0 10 4 12 8
2 5 15 15 30 23 15 8 114 66 220 130 106 64 209 126 228 137 19 11 71 40 115
66 44 25 86 46 93 46 6 0 12 3 12 8 0 4 26 20 58 37 31 16 73 39 93 51 20 13
40 20 43 17 3 -4 6 0 6 7 0 7 2 11 5 8 3 -3 29 7 58 23 78 43 181 93 190 94 4
0 11 5 15 10 4 6 12 11 19 12 6 1 47 20 92 42 45 22 81 37 81 34 0 -3 9 2 21
13 12 10 23 18 25 16 2 -1 20 5 40 13 20 8 38 15 39 15 2 0 38 16 79 35 42 19
79 35 82 35 3 0 20 6 37 14 18 7 59 24 92 36 33 12 74 28 90 35 46 20 409 145
460 159 6 1 30 8 55 15 25 8 50 14 55 16 34 7 71 19 80 24 6 3 18 7 28 8 10 2
70 17 133 34 63 16 124 32 137 34 19 4 72 16 87 20 45 13 88 22 135 30 11 2
20 4 20 5 0 1 11 3 25 6 14 2 70 13 125 25 104 21 136 27 195 34 19 2 35 4 35
5 0 2 34 9 70 14 40 6 96 15 143 22 20 3 53 7 72 9 56 7 123 15 155 21 30 5
58 8 172 19 34 3 71 8 82 10 12 2 58 7 104 10 45 4 98 8 117 10 71 8 257 18
335 18 157 1 299 -11 480 -38 64 -10 226 -47 255 -58 8 -3 47 -15 85 -28 197
-62 393 -179 530 -314 127 -126 183 -207 258 -375 34 -77 70 -206 82 -295 4
-27 9 -68 12 -90 15 -109 2 -416 -22 -515 -3 -14 -8 -38 -10 -55 -2 -16 -7
-43 -10 -60 -7 -35 -6 -34 62 55 76 100 203 286 256 375 26 44 52 87 57 95 5
8 31 58 57 110 27 52 50 97 53 100 3 3 6 12 8 20 2 8 10 29 17 45 13 29 49
125 51 135 0 3 3 12 7 20 15 37 47 191 54 255 10 103 4 274 -12 325 -4 11 -9
32 -11 47 -3 15 -10 33 -16 40 -6 7 -8 13 -4 13 11 0 -73 195 -96 225 -16 20
-58 86 -58 91 0 3 -6 11 -12 19 -7 7 -24 28 -38 45 -32 43 -191 200 -201 200
-4 0 -14 6 -21 13 -18 17 -112 79 -168 109 -58 31 -200 88 -221 88 -9 0 -19 3
-23 7 -3 4 -12 8 -19 9 -38 7 -70 13 -88 19 -12 4 -31 8 -42 10 -12 2 -49 8
-82 14 -33 6 -80 14 -105 17 -25 3 -61 7 -80 10 -106 15 -512 37 -523 28z"/>
<path d="M6705 11621 c-3 -2 -31 -5 -62 -7 -57 -3 -85 -6 -173 -19 -49 -7 -53
-8 -155 -29 -71 -15 -79 -17 -150 -36 -22 -6 -47 -12 -55 -14 -128 -33 -391
-147 -430 -186 -3 -3 -17 -11 -32 -19 -15 -8 -37 -22 -47 -33 -11 -10 -23 -18
-26 -18 -21 0 -223 -192 -290 -275 -22 -28 -43 -51 -47 -53 -5 -2 -8 -10 -8
-18 0 -8 -4 -14 -10 -14 -5 0 -10 -6 -10 -14 0 -7 -6 -18 -13 -24 -26 -22
-144 -280 -152 -332 -1 -8 -9 -42 -18 -75 -24 -92 -30 -142 -30 -240 0 -79 6
-159 13 -175 1 -3 2 -8 1 -12 -1 -13 32 -113 55 -164 13 -29 24 -58 24 -63 0
-6 5 -11 10 -11 6 0 10 -5 10 -11 0 -14 55 -94 82 -119 12 -11 19 -20 15 -20
-19 0 140 -135 221 -186 157 -101 407 -207 667 -283 63 -18 338 -89 375 -96
71 -14 276 -81 298 -98 6 -5 12 -7 12 -3 0 16 130 -65 176 -109 94 -93 124
-248 68 -359 -8 -16 -14 -33 -14 -37 0 -11 -45 -77 -74 -109 -52 -57 -173
-143 -202 -143 -8 0 -14 -5 -14 -10 0 -6 -3 -7 -6 -4 -4 3 -16 1 -28 -5 -11
-7 -23 -13 -26 -13 -3 -1 -27 -6 -55 -13 -82 -19 -105 -22 -210 -22 -117 0
-158 4 -221 26 -93 31 -176 84 -233 148 -14 16 -31 34 -37 40 -12 13 -46 74
-43 78 2 2 -4 14 -11 28 -8 14 -15 30 -16 35 -1 6 -6 28 -12 50 -15 57 -25
123 -24 173 0 35 -4 43 -22 47 -11 2 -288 3 -613 3 -566 -1 -593 -2 -598 -19
-4 -11 -3 -23 0 -29 3 -5 2 -10 -3 -10 -17 0 -6 -302 15 -395 3 -16 7 -37 9
-45 11 -68 56 -196 106 -297 112 -230 247 -372 438 -460 137 -63 132 -62 267
-98 83 -23 216 -48 312 -60 30 -4 63 -8 73 -10 125 -24 749 -24 869 0 13 3 42
7 64 10 22 2 51 7 65 10 14 3 50 10 80 16 65 12 85 17 85 19 0 1 7 3 15 5 90
18 288 81 308 97 6 6 12 8 12 4 0 -3 26 7 59 23 32 17 61 27 65 24 3 -4 6 -1
6 5 0 6 16 16 35 23 19 7 35 17 35 21 0 4 4 8 10 8 10 0 151 87 160 99 3 4 21
18 40 31 70 48 215 189 290 280 25 30 48 57 53 58 4 2 7 10 7 17 0 8 6 18 13
22 15 10 67 89 67 102 0 6 7 14 16 19 9 5 16 12 15 15 0 4 23 54 50 113 28 59
52 115 54 125 2 10 8 27 14 38 6 11 11 29 11 40 0 12 4 21 9 21 5 0 8 8 6 18
-1 9 0 22 4 27 3 6 6 12 6 15 1 3 7 30 13 60 22 101 24 124 24 265 0 117 -4
156 -25 237 -25 94 -81 229 -99 236 -4 2 -8 9 -8 14 0 19 -81 120 -152 191
-38 37 -70 67 -73 67 -2 0 -35 20 -72 45 -38 25 -78 48 -90 52 -13 3 -23 9
-23 14 0 5 -3 8 -7 7 -5 -1 -30 8 -57 20 -27 12 -55 22 -62 22 -8 0 -14 5 -14
10 0 6 -8 10 -18 10 -10 0 -22 4 -27 8 -6 4 -37 18 -70 31 -33 12 -69 27 -80
32 -11 5 -29 12 -40 14 -18 5 -275 89 -315 103 -20 7 -96 24 -110 24 -3 0 -12
4 -21 9 -9 4 -27 10 -40 13 -209 44 -274 57 -306 62 -150 22 -343 116 -382
185 -39 69 -35 160 11 241 58 100 228 203 353 214 83 7 222 6 260 -1 51 -9
128 -36 136 -48 3 -5 8 -8 10 -7 10 4 56 -19 68 -34 7 -9 18 -16 23 -16 12 0
57 -52 58 -67 0 -7 4 -13 8 -13 7 0 32 -40 37 -60 1 -3 8 -21 17 -41 18 -41
30 -109 32 -181 1 -26 5 -50 8 -54 12 -11 1200 -7 1207 5 8 13 6 311 -3 361
-3 19 -8 58 -12 85 -3 28 -8 53 -11 57 -2 5 -6 17 -8 27 -16 86 -89 248 -145
323 -39 51 -141 150 -190 183 -25 16 -47 33 -50 36 -6 8 -176 90 -193 93 -13
3 -37 12 -75 27 -30 12 -180 50 -216 55 -15 2 -35 5 -45 8 -9 3 -41 8 -71 12
-30 4 -66 8 -80 10 -114 14 -664 27 -675 15z"/>
<path d="M13267 11623 c-2 -2 -37 -5 -78 -8 -74 -6 -93 -8 -179 -20 -68 -9
-99 -15 -166 -30 -34 -8 -73 -16 -85 -19 -13 -3 -39 -9 -58 -15 -18 -6 -36
-10 -40 -9 -3 1 -13 -2 -21 -5 -8 -3 -58 -20 -110 -38 -52 -17 -106 -37 -120
-44 -14 -7 -54 -28 -90 -45 -68 -35 -210 -124 -247 -156 -11 -10 -39 -33 -60
-51 -57 -46 -130 -120 -185 -188 -27 -33 -53 -66 -59 -73 -25 -30 -119 -197
-130 -229 -6 -19 -17 -47 -25 -61 -8 -15 -14 -34 -14 -43 0 -9 -3 -19 -7 -23
-5 -4 -14 -31 -21 -59 -7 -29 -14 -61 -17 -72 -48 -197 -34 -392 40 -560 12
-27 25 -60 29 -72 4 -13 12 -23 17 -23 5 0 9 -5 9 -11 0 -35 174 -226 241
-266 16 -10 29 -21 29 -25 0 -4 4 -8 10 -8 5 0 40 -19 77 -43 58 -37 157 -89
173 -92 3 0 21 -8 40 -17 46 -22 191 -79 210 -83 8 -2 16 -4 18 -5 1 -2 5 -3
10 -4 17 -4 189 -59 207 -66 11 -4 52 -15 90 -25 39 -9 86 -20 104 -25 19 -5
39 -7 43 -4 4 3 8 0 8 -5 0 -6 10 -11 21 -11 24 0 61 -10 204 -53 55 -17 102
-31 105 -32 12 -4 50 -20 116 -50 78 -35 144 -89 181 -148 49 -77 61 -196 28
-278 -7 -20 -11 -39 -8 -43 4 -3 2 -6 -4 -6 -6 0 -13 -10 -17 -23 -3 -12 -15
-32 -26 -45 -11 -12 -18 -22 -15 -22 9 0 -79 -85 -114 -109 -83 -59 -221 -113
-323 -126 -78 -11 -265 -5 -310 9 -25 8 -49 12 -52 9 -3 -4 -6 -1 -6 5 0 7 -9
12 -19 12 -25 0 -156 88 -197 132 -37 40 -84 113 -89 138 -2 10 -9 28 -15 39
-6 12 -8 21 -4 21 3 0 2 6 -4 13 -5 6 -14 35 -18 62 -4 28 -9 55 -9 60 -1 6
-3 35 -3 66 l-2 56 -614 0 -614 0 -5 -24 c-5 -29 -1 -349 6 -383 2 -14 7 -43
11 -65 11 -71 14 -82 46 -174 79 -231 222 -434 379 -538 73 -49 188 -104 276
-133 39 -13 70 -22 70 -21 0 1 14 -3 30 -9 17 -6 50 -16 75 -21 25 -5 56 -12
70 -14 117 -25 223 -39 385 -51 126 -9 534 -10 630 -1 44 5 99 10 123 12 24 2
52 7 63 10 11 4 37 9 57 11 63 7 282 64 392 101 122 41 279 115 368 173 35 22
67 40 72 40 4 0 10 4 12 8 2 4 21 21 43 37 22 17 53 41 70 55 29 24 221 217
249 251 33 40 96 129 95 135 0 4 4 10 9 13 14 9 112 182 119 211 3 14 10 30
15 36 9 13 66 176 72 209 2 11 9 38 15 60 12 48 20 94 25 157 2 26 7 52 11 57
3 6 1 11 -5 11 -7 0 -8 6 -1 17 5 10 5 26 0 41 -6 17 -6 21 3 16 7 -4 8 -3 4
5 -4 6 -9 33 -11 59 -11 159 -61 308 -147 436 -43 64 -198 226 -216 226 -6 0
-12 3 -14 8 -6 14 -102 70 -188 110 -100 47 -231 103 -245 106 -5 1 -19 7 -30
13 -11 6 -22 11 -25 11 -8 1 -42 13 -65 22 -21 9 -216 74 -225 75 -3 0 -11 4
-17 8 -7 5 -13 6 -13 2 0 -3 -16 1 -35 9 -19 8 -35 13 -35 11 0 -2 -15 1 -32
6 -18 6 -41 12 -50 15 -39 9 -64 15 -88 20 -13 3 -29 9 -36 15 -6 5 -13 7 -16
4 -3 -3 -34 1 -69 9 -35 8 -80 17 -99 20 -64 10 -95 16 -120 23 -37 10 -40 10
-45 13 -3 1 -8 3 -12 4 -20 3 -112 42 -143 59 -19 11 -46 26 -59 33 -43 23
-92 89 -78 107 1 2 -3 10 -9 18 -18 22 -10 90 18 151 30 66 105 145 168 177
48 25 150 63 150 56 0 -3 12 0 28 6 27 11 237 15 278 6 92 -21 224 -80 224
-99 0 -5 6 -8 13 -8 24 0 80 -79 112 -159 29 -70 34 -95 41 -186 3 -38 7 -71
9 -73 2 -3 125 -4 272 -3 147 1 275 2 283 1 66 -1 104 1 110 5 5 3 11 2 14 -3
2 -4 32 -5 66 -2 34 3 63 3 66 -1 2 -4 19 -4 36 0 18 4 47 4 63 1 17 -3 48 -3
70 0 23 4 53 3 68 -1 15 -4 25 -4 23 0 -3 4 26 6 65 5 38 -1 69 1 70 5 1 3 2
28 4 54 2 27 6 51 9 54 3 3 1 14 -5 24 -6 12 -6 19 0 19 6 0 6 11 1 30 -5 19
-5 30 1 30 6 0 8 4 5 8 -3 5 -8 44 -11 88 -3 43 -8 95 -12 114 -3 19 -8 44 -9
55 -1 11 -3 21 -4 23 -3 2 -4 6 -14 47 -4 17 -17 55 -28 85 -87 231 -221 378
-446 486 -121 58 -203 89 -292 108 -75 16 -170 34 -210 40 -25 3 -60 8 -79 11
-102 14 -643 30 -654 18z"/>
<path d="M8925 11550 c-2 -3 -7 -27 -11 -55 -4 -27 -9 -52 -9 -55 -1 -3 -5
-27 -10 -55 -4 -27 -10 -59 -12 -70 -3 -11 -6 -29 -7 -41 -1 -11 -5 -24 -8
-30 -3 -5 -4 -21 -3 -36 1 -16 -1 -28 -4 -28 -4 0 -7 -8 -8 -17 -1 -10 -5 -31
-8 -48 -4 -16 -6 -42 -6 -57 1 -16 -2 -28 -6 -28 -5 0 -9 -12 -9 -27 -1 -23
-33 -204 -59 -333 -2 -13 -7 -42 -10 -65 -3 -22 -9 -49 -12 -60 -3 -11 -8 -33
-10 -50 -5 -40 -11 -75 -16 -101 -3 -12 -8 -39 -11 -60 -4 -22 -8 -46 -11 -54
-2 -8 -6 -31 -9 -50 -6 -34 -10 -57 -21 -110 -11 -52 -18 -106 -19 -137 -1
-18 -4 -33 -7 -33 -4 0 -12 -33 -18 -72 -6 -40 -13 -84 -16 -98 -3 -14 -8 -40
-11 -59 -3 -18 -8 -43 -10 -55 -2 -11 -8 -46 -14 -76 -5 -30 -11 -66 -14 -80
-3 -13 -8 -42 -11 -65 -3 -22 -9 -49 -12 -60 -4 -11 -7 -33 -9 -50 -1 -16 -3
-30 -4 -30 -1 0 -3 -11 -6 -25 -4 -26 -15 -84 -20 -110 -2 -8 -6 -31 -9 -50
-2 -19 -7 -46 -10 -60 -3 -14 -8 -38 -10 -55 -12 -66 -25 -141 -30 -165 -3
-14 -8 -41 -11 -60 -4 -19 -8 -44 -10 -55 -2 -11 -13 -69 -24 -130 -10 -60
-22 -123 -25 -140 -3 -16 -7 -39 -9 -50 -2 -11 -7 -36 -10 -55 -6 -31 -19
-105 -32 -177 -11 -61 -15 -82 -24 -133 -6 -30 -12 -65 -14 -76 -2 -12 -7 -39
-10 -60 -4 -22 -8 -46 -11 -54 -4 -15 -10 -51 -30 -175 -3 -22 -10 -55 -15
-73 -12 -44 1 -47 148 -39 17 1 32 -1 32 -6 0 -4 5 -5 11 -2 18 12 68 12 73 1
3 -7 5 -6 5 1 1 7 8 10 18 6 15 -6 69 -8 76 -3 7 6 87 4 87 -2 0 -4 10 -4 23
1 12 4 31 6 42 4 19 -4 36 -4 113 0 17 1 32 -1 32 -6 0 -4 5 -5 11 -2 18 12
68 12 73 1 3 -7 5 -6 5 1 1 7 8 10 18 6 15 -6 69 -8 76 -3 7 6 87 4 87 -2 0
-4 10 -4 23 1 12 4 31 6 42 4 19 -4 36 -4 113 0 17 1 32 -1 32 -6 0 -4 5 -5
11 -2 18 12 68 12 73 1 3 -7 5 -6 5 1 1 7 8 10 18 6 15 -6 69 -8 76 -3 7 6 87
4 87 -2 0 -4 10 -4 23 1 12 4 31 6 42 4 19 -4 36 -4 113 0 17 1 32 -1 32 -6 0
-4 5 -5 11 -2 18 12 68 12 73 1 3 -7 5 -6 5 1 1 7 8 10 18 6 15 -6 69 -8 76
-3 7 6 87 4 87 -2 0 -4 10 -4 23 1 12 4 31 6 42 4 19 -4 36 -4 113 0 17 1 32
-1 32 -6 0 -4 5 -5 11 -2 18 12 68 12 73 1 3 -7 5 -6 5 1 1 7 8 10 18 6 15 -6
69 -8 76 -3 7 6 87 4 87 -2 0 -4 10 -4 23 1 12 4 31 6 42 4 11 -2 25 -4 30 -4
6 0 35 1 66 2 l56 2 13 71 c7 39 14 80 16 91 8 38 13 70 19 109 4 21 9 48 11
60 2 11 7 37 10 56 4 19 9 44 11 55 2 11 7 34 10 50 2 17 18 100 34 185 16 85
32 173 35 195 3 22 9 56 14 75 5 19 12 58 16 85 3 28 11 58 16 69 7 14 7 17
-2 11 -9 -6 -9 -2 -1 14 7 11 9 21 5 21 -3 0 -2 6 2 13 5 6 9 21 9 32 0 20 -7
20 -653 20 l-653 0 5 30 c4 17 8 41 11 55 3 13 7 40 10 60 3 20 8 47 11 60 3
14 7 41 9 60 2 19 4 36 6 38 2 3 4 12 12 63 8 50 14 80 22 119 3 14 8 40 11
59 3 18 8 43 10 55 2 11 7 36 10 55 3 18 8 43 10 55 9 48 15 83 20 109 2 15 6
37 9 50 2 12 7 38 10 57 3 19 15 82 25 140 11 58 22 121 25 140 3 19 10 59 16
87 6 29 12 63 13 75 2 13 6 34 9 48 6 23 10 47 23 135 3 17 7 41 11 55 3 14 7
36 9 50 3 22 13 75 20 105 1 6 5 28 8 50 4 23 8 50 10 60 28 145 36 198 32
203 -3 3 -2 10 3 16 5 6 12 29 15 51 14 87 16 98 22 119 4 11 8 37 10 56 1 19
5 46 9 60 3 14 8 40 11 59 3 18 8 43 10 55 10 52 16 83 19 106 7 52 26 156 30
170 4 14 -66 16 -636 16 -352 0 -642 -3 -644 -6z"/>
<path d="M13765 6870 c-3 -10 -8 -27 -10 -37 -2 -10 -18 -74 -35 -143 -17 -69
-33 -136 -36 -150 -3 -14 -12 -50 -20 -80 -18 -65 -25 -99 -27 -122 -1 -10 -4
-18 -8 -18 -4 0 -6 -8 -4 -17 1 -10 0 -22 -4 -28 -3 -5 -6 -14 -7 -20 -1 -5
-11 -48 -23 -95 -31 -124 -32 -129 -38 -196 -7 -79 13 -122 68 -153 49 -28
150 -35 155 -11 14 66 14 80 2 82 -48 5 -66 17 -77 49 -6 16 -8 35 -6 42 2 7
7 30 10 52 13 90 17 111 26 128 5 9 8 17 5 17 -2 0 2 21 10 46 7 26 11 50 8
55 -3 5 0 9 7 9 7 0 10 2 7 6 -3 3 3 37 14 77 10 40 21 83 24 97 9 38 10 42
22 85 6 22 13 51 16 65 3 14 10 41 16 60 6 19 13 51 16 70 3 19 8 38 11 42 2
5 6 16 8 25 2 10 7 32 10 49 l7 31 -71 1 c-60 1 -71 -2 -76 -18z"/>
<path d="M16195 6870 c-3 -10 -8 -28 -10 -39 -7 -28 -59 -239 -90 -361 -19
-76 -37 -149 -41 -170 -3 -14 -13 -56 -23 -95 -11 -38 -24 -95 -30 -125 -6
-30 -14 -66 -17 -80 -27 -121 32 -201 159 -216 62 -7 61 -8 71 57 6 35 5 36
-32 47 -40 12 -61 40 -57 77 6 50 16 113 24 147 5 20 6 39 3 42 -3 4 0 6 6 6
6 0 9 7 6 15 -4 8 -1 15 6 15 6 0 8 5 5 10 -4 6 0 34 9 63 17 57 54 197 62
237 3 14 10 43 16 65 5 22 12 48 14 58 2 10 6 27 9 37 3 10 8 27 10 37 2 10
12 47 20 83 30 118 34 107 -45 107 -58 1 -70 -2 -75 -17z"/>
<path d="M14867 6874 c-1 -1 -20 -4 -42 -7 -133 -17 -248 -118 -270 -237 -26
-146 10 -221 168 -347 84 -67 121 -103 137 -133 15 -29 20 -111 8 -127 -6 -7
-7 -13 -4 -13 4 0 -2 -13 -14 -30 -12 -16 -28 -30 -36 -30 -8 0 -14 -4 -14 -8
0 -25 -179 -42 -220 -21 -8 4 -27 10 -42 13 -15 4 -33 13 -41 21 -12 11 -17
12 -25 2 -15 -18 -52 -119 -47 -127 6 -10 90 -36 145 -45 62 -11 147 -8 200 5
25 6 51 12 58 12 6 1 12 5 12 9 0 4 11 10 25 13 29 7 125 100 133 128 2 4 5
13 7 20 30 86 23 195 -17 266 -30 52 -59 82 -169 172 -125 102 -149 151 -115
231 19 44 55 77 103 94 49 17 161 13 203 -9 18 -9 36 -16 41 -16 6 0 49 113
49 131 0 14 -219 45 -233 33z"/>
<path d="M18141 6868 c-40 -11 -57 -26 -71 -64 -25 -64 14 -118 85 -118 37 1
50 6 69 29 31 35 36 65 20 104 -17 41 -59 61 -103 49z"/>
<path d="M5645 6856 c-127 -41 -206 -133 -221 -258 -4 -29 -7 -57 -6 -63 9
-98 44 -145 214 -283 89 -73 110 -104 114 -165 1 -28 -2 -62 -7 -76 -39 -102
-198 -131 -357 -65 -37 16 -52 12 -52 -15 0 -9 -4 -21 -9 -26 -5 -6 -12 -27
-16 -47 l-7 -36 59 -17 c32 -9 70 -20 86 -25 15 -4 27 -4 27 0 0 5 12 5 28 1
46 -13 134 -2 204 25 118 46 186 137 192 257 2 54 0 75 -15 137 -12 47 -84
131 -166 192 -68 51 -140 118 -127 118 5 0 3 4 -5 9 -22 14 -18 101 5 142 42
72 170 107 265 74 21 -8 39 -12 39 -9 0 3 7 -2 17 -11 15 -15 17 -15 25 -1 5
9 11 25 13 36 2 11 7 25 10 31 4 5 9 23 11 38 4 26 1 29 -35 38 -58 15 -239
14 -286 -1z"/>
<path d="M10670 6850 c-7 -5 -14 -30 -25 -95 -2 -16 -9 -45 -14 -64 -6 -18
-10 -36 -9 -40 1 -3 -1 -13 -5 -21 -6 -16 -82 -352 -101 -445 -2 -11 -9 -38
-15 -60 -6 -22 -12 -51 -15 -65 -2 -14 -5 -25 -6 -25 -1 0 -3 -11 -5 -25 -2
-14 -13 -65 -24 -113 -12 -48 -21 -91 -21 -95 0 -4 140 -7 310 -7 l311 0 14
49 c26 88 45 81 -220 81 l-236 0 4 41 c3 22 10 50 16 61 5 11 8 23 5 25 -2 3
0 16 5 30 5 14 12 38 15 54 2 16 7 38 10 49 28 121 49 214 51 230 1 11 5 30 9
42 7 22 13 47 22 93 3 14 7 33 10 42 3 9 7 25 9 35 2 10 13 61 24 113 12 52
21 99 21 105 0 11 -124 15 -140 5z"/>
<path d="M17575 6761 c-70 -28 -70 -28 -87 -82 -9 -30 -19 -67 -23 -82 -5 -25
-9 -28 -45 -25 -48 2 -55 -4 -68 -64 l-9 -46 31 0 c55 0 59 -1 51 -19 -7 -18
-12 -37 -21 -81 -2 -12 -26 -103 -53 -202 -54 -202 -57 -251 -17 -311 38 -57
82 -72 190 -66 50 3 100 8 111 11 11 2 22 5 25 5 3 1 6 29 8 62 2 55 1 61 -15
54 -58 -22 -125 -23 -158 -1 -52 34 -53 78 -5 256 12 41 22 82 24 90 7 30 28
106 42 155 l14 50 104 -2 c116 -3 110 -6 125 72 l7 40 -97 -2 c-57 -2 -100 1
-104 7 -6 10 2 41 31 123 8 20 12 37 9 37 -2 0 0 11 5 25 12 31 11 31 -75 -4z"/>
<path d="M7670 6757 c-30 -11 -58 -25 -61 -30 -3 -4 -14 -42 -24 -82 l-19 -74
-45 -3 c-38 -3 -46 -7 -51 -28 -20 -76 -21 -81 -8 -79 7 1 27 1 44 0 l32 -1
-20 -77 c-11 -43 -21 -86 -23 -96 -2 -9 -6 -21 -9 -25 -3 -5 -7 -19 -10 -33
-2 -13 -12 -53 -21 -89 -9 -36 -22 -88 -29 -116 -11 -45 -12 -84 -3 -135 2 -9
15 -33 30 -52 41 -54 106 -69 227 -53 72 10 79 12 86 18 7 8 18 118 11 118 -2
0 -22 -6 -43 -12 -62 -21 -120 -13 -152 19 -19 18 -21 86 -5 151 8 31 16 66
18 77 4 16 30 115 49 180 1 6 8 36 16 68 15 65 5 61 152 57 l77 -1 11 41 c6
23 14 48 17 56 4 12 -13 14 -101 14 -58 0 -106 3 -106 8 0 4 5 24 10 44 6 21
11 39 10 40 0 2 8 29 19 61 l20 57 -22 -1 c-12 -1 -47 -11 -77 -22z"/>
<path d="M7041 6579 c-49 -8 -122 -41 -161 -72 -44 -35 -77 -117 -74 -183 3
-72 43 -115 177 -189 99 -55 123 -111 74 -179 -27 -38 -88 -64 -139 -60 -40 4
-136 46 -149 66 -6 10 -79 -98 -79 -117 0 -16 80 -52 131 -60 41 -6 128 -9
139 -5 3 1 16 4 30 7 14 2 30 6 35 7 23 5 99 49 126 73 44 40 73 109 76 180 3
80 -20 114 -112 169 -129 77 -143 87 -153 108 -8 18 -9 46 -3 78 3 19 74 60
108 62 50 4 116 -15 145 -40 28 -24 32 -21 70 54 l26 53 -26 11 c-15 6 -36 14
-47 19 -11 4 -40 11 -65 14 -25 4 -52 8 -60 9 -8 2 -39 -1 -69 -5z"/>
<path d="M8362 6574 c-155 -32 -273 -133 -340 -292 -13 -29 -20 -57 -17 -62 3
-6 3 -10 -2 -10 -12 0 -20 -119 -12 -200 3 -44 40 -128 68 -157 44 -46 100
-66 193 -69 47 -2 101 1 120 7 18 5 49 12 68 15 19 3 36 7 38 9 2 2 5 29 8 60
2 31 6 61 10 66 8 13 -3 11 -44 -10 -96 -48 -191 -46 -260 6 -40 30 -62 81
-62 143 0 65 7 82 30 70 44 -24 187 -32 275 -16 52 10 138 53 180 91 78 70
103 192 56 268 -47 77 -172 109 -309 81z m161 -127 c15 -10 27 -21 28 -25 0
-4 2 -16 5 -27 5 -27 -10 -69 -33 -92 -54 -54 -217 -84 -308 -57 -33 10 -40
16 -37 34 3 28 60 109 87 124 11 6 23 15 26 19 3 4 27 16 54 26 59 23 142 22
178 -2z"/>
<path d="M8940 6575 c-65 -12 -84 -22 -72 -38 13 -19 2 -212 -14 -239 -3 -5
-7 -18 -10 -31 -6 -31 -9 -45 -44 -202 -18 -77 -33 -147 -35 -156 -2 -9 -7
-32 -12 -50 -16 -62 -14 -64 60 -64 39 -1 67 4 68 10 0 5 2 17 4 25 2 8 6 24
8 35 3 11 12 50 21 86 8 37 18 78 20 90 3 13 10 44 16 69 7 25 13 56 15 70 2
14 4 25 5 25 1 0 3 7 5 15 2 8 8 35 14 60 7 25 14 56 17 70 6 30 65 83 115
103 74 29 169 6 188 -45 7 -19 2 -68 -12 -123 -12 -46 -50 -211 -51 -225 -2
-8 -5 -24 -9 -35 -3 -11 -8 -31 -11 -45 -8 -42 -14 -66 -25 -106 -22 -77 -19
-80 56 -79 72 2 76 5 87 72 2 16 5 28 6 28 3 0 11 43 24 120 1 6 5 16 9 23 5
6 6 12 3 12 -2 0 0 15 5 33 5 17 12 46 15 62 2 17 7 38 10 47 3 9 7 27 10 40
3 13 6 28 8 33 1 6 6 30 10 55 7 44 44 100 66 100 5 0 10 5 10 10 0 6 7 10 15
10 8 0 15 4 15 8 0 11 10 13 82 17 46 2 60 -1 78 -17 23 -22 51 -78 44 -89 -2
-4 -6 -24 -8 -45 -2 -22 -12 -68 -20 -104 -9 -36 -19 -76 -21 -90 -3 -21 -43
-194 -62 -270 -11 -44 -11 -50 -5 -51 35 -6 125 -2 131 6 7 8 41 143 55 220 4
17 18 78 32 138 9 39 14 64 20 92 2 17 9 47 15 67 5 21 8 64 6 95 -7 120 -66
167 -207 166 -54 -1 -158 -33 -183 -56 -40 -39 -42 -39 -86 3 -23 22 -45 39
-49 39 -4 -1 -9 -1 -12 1 -35 13 -136 17 -186 7 -49 -10 -99 -34 -133 -63 -17
-14 -31 -24 -32 -22 0 1 -1 22 -2 45 -1 23 -4 43 -7 45 -3 2 -30 -1 -60 -7z"/>
<path d="M11628 6584 c-2 -1 -19 -5 -38 -8 -51 -8 -112 -31 -157 -59 -63 -40
-171 -166 -174 -204 0 -5 -4 -12 -9 -18 -19 -23 -39 -135 -38 -215 1 -163 56
-253 178 -288 37 -11 181 -7 238 5 70 16 76 24 84 106 5 52 3 54 -30 31 -12
-8 -22 -12 -22 -8 0 3 -6 2 -12 -4 -31 -25 -140 -34 -180 -15 -15 8 -29 12
-31 11 -6 -6 -65 57 -60 65 2 4 -1 7 -7 7 -6 0 -9 4 -5 9 3 5 1 12 -4 15 -7 5
-9 82 -3 133 2 9 13 8 45 -4 43 -16 173 -22 238 -12 58 10 161 61 200 99 49
48 68 89 73 157 5 58 -14 123 -36 123 -5 0 -7 4 -4 8 6 9 -72 49 -114 58 -27
6 -128 13 -132 8z m120 -133 c32 -17 40 -77 16 -120 -22 -40 -95 -81 -154 -86
-21 -1 -42 -5 -46 -7 -15 -8 -86 -2 -131 11 l-43 12 15 37 c14 32 28 53 60 87
16 17 85 68 85 62 0 -2 17 1 37 8 43 15 130 12 161 -4z"/>
<path d="M13095 6574 c-33 -8 -66 -16 -73 -19 -7 -2 -15 -4 -18 -4 -4 0 -10
-3 -13 -8 -3 -5 -20 -18 -37 -28 -43 -27 -114 -93 -114 -105 0 -5 -4 -10 -9
-10 -10 0 -77 -134 -89 -181 -13 -47 -12 -231 0 -246 6 -7 8 -13 4 -13 -3 0 5
-23 19 -50 32 -63 89 -105 161 -120 91 -19 292 6 295 37 0 5 2 17 5 28 9 47
13 95 8 95 -4 0 -23 -9 -43 -20 -161 -86 -326 -5 -316 156 2 27 3 54 4 61 1 9
12 8 44 -3 93 -35 243 -23 353 26 152 69 214 265 112 356 -57 52 -185 72 -293
48z m151 -113 c5 -1 20 -10 32 -21 46 -43 14 -137 -56 -167 -87 -37 -208 -47
-272 -23 -3 1 -12 3 -20 4 -9 0 -14 9 -12 21 13 74 113 164 207 188 17 4 54 3
121 -2z"/>
<path d="M15510 6576 c-6 -6 -10 -6 -10 -2 0 5 -7 3 -15 -4 -8 -7 -15 -9 -15
-5 0 4 -7 2 -15 -5 -8 -7 -15 -10 -15 -6 0 13 -96 -49 -135 -88 -65 -64 -133
-182 -152 -261 -28 -126 -16 -267 28 -319 62 -74 111 -99 204 -104 254 -14
445 179 481 488 16 127 -33 235 -128 284 -49 24 -70 29 -138 30 -44 1 -85 -3
-90 -8z m134 -119 c55 -27 75 -70 76 -157 1 -76 -20 -175 -45 -214 -8 -12 -15
-25 -16 -31 -7 -37 -106 -147 -121 -134 -3 2 -12 -2 -20 -8 -20 -17 -92 -23
-131 -12 -75 21 -105 76 -102 184 5 163 81 309 190 365 43 21 133 25 169 7z"/>
<path d="M18700 6577 c0 -5 -4 -6 -9 -2 -5 3 -40 -6 -77 -20 -71 -27 -128 -71
-184 -144 -19 -26 -38 -47 -42 -49 -5 -2 -8 -12 -8 -23 0 -10 -4 -19 -10 -19
-5 0 -10 -9 -10 -19 0 -11 -4 -22 -9 -25 -8 -5 -22 -54 -36 -126 -3 -14 -6
-59 -6 -100 -3 -186 129 -291 333 -266 189 24 323 168 385 411 3 11 7 48 8 82
2 34 6 66 9 72 4 5 1 13 -5 16 -5 4 -8 13 -5 21 3 8 1 14 -5 14 -6 0 -8 4 -4
10 3 5 -3 25 -14 45 -32 60 -86 101 -156 120 -40 11 -155 12 -155 2z m145
-140 c36 -36 52 -85 47 -149 -2 -29 -4 -63 -5 -75 0 -13 -3 -23 -6 -23 -4 0
-7 -12 -8 -26 -2 -37 -69 -169 -101 -200 -98 -93 -253 -91 -298 4 -41 87 -10
277 64 384 60 87 113 116 209 114 63 -2 75 -5 98 -29z"/>
<path d="M19565 6582 c-2 -2 -9 -5 -17 -6 -59 -10 -99 -32 -153 -85 -23 -22
-25 -22 -26 -5 -1 24 -6 76 -8 87 -1 7 -35 5 -101 -6 -24 -4 -41 -18 -35 -28
13 -20 5 -139 -16 -229 -11 -52 -22 -102 -24 -110 -2 -8 -4 -15 -5 -15 -1 0
-4 -18 -6 -40 -3 -21 -10 -45 -15 -52 -6 -7 -9 -18 -6 -25 2 -7 0 -21 -4 -30
-5 -9 -11 -32 -14 -50 -2 -18 -13 -68 -23 -110 -11 -43 -19 -78 -18 -79 0 -1
29 -2 64 -3 67 -2 80 5 87 45 3 13 7 35 10 49 3 14 7 34 10 45 16 79 56 264
60 280 3 11 8 34 10 50 3 17 8 38 11 47 3 9 7 27 9 39 9 47 120 111 199 114
49 2 75 -6 105 -34 19 -17 22 -118 6 -188 -12 -51 -14 -60 -16 -65 -2 -7 -8
-36 -14 -68 -8 -47 -36 -162 -42 -180 -3 -8 -7 -24 -8 -35 -1 -11 -7 -37 -13
-57 -6 -21 -7 -39 -4 -41 4 -2 36 -3 72 -3 l65 1 17 64 c10 35 19 76 22 90 2
14 10 49 16 76 7 28 14 59 16 70 4 24 12 58 14 65 1 3 3 10 4 15 1 6 5 24 9
40 4 17 10 41 13 55 9 38 13 151 7 189 -8 46 -69 106 -119 116 -40 8 -133 13
-139 7z"/>
<path d="M20188 6573 c-125 -32 -204 -117 -209 -223 -1 -25 3 -57 9 -71 14
-35 61 -89 78 -89 8 0 14 -4 14 -8 0 -5 16 -14 35 -22 19 -8 35 -17 35 -22 0
-4 6 -8 13 -8 8 0 31 -15 52 -33 34 -29 39 -39 38 -75 -1 -41 -28 -91 -50 -92
-7 0 -13 -4 -13 -10 0 -5 -9 -10 -19 -10 -11 0 -22 -4 -25 -9 -14 -22 -126 7
-184 48 l-28 19 -20 -31 c-40 -62 -54 -86 -54 -95 0 -10 61 -39 100 -48 85
-20 138 -20 228 0 45 10 114 51 144 85 35 40 70 112 69 144 0 12 -1 34 -1 50
0 34 -26 87 -54 107 -30 22 -147 90 -155 90 -13 1 -59 56 -62 75 -13 83 80
141 186 114 24 -6 52 -19 62 -28 21 -20 53 -24 53 -7 0 6 11 33 25 59 l26 47
-44 19 c-79 34 -173 43 -249 24z"/>
<path d="M12034 6540 c7 -46 11 -66 25 -120 7 -25 14 -54 16 -65 2 -11 8 -38
14 -60 5 -22 12 -51 15 -65 2 -14 12 -56 21 -95 10 -38 19 -80 20 -92 2 -12 6
-26 9 -31 3 -5 8 -24 11 -43 3 -19 11 -52 16 -74 6 -22 12 -47 14 -55 13 -64
16 -69 38 -59 12 6 42 42 67 82 24 40 48 77 52 82 5 6 37 55 73 110 35 55 68
105 74 112 6 7 11 15 11 18 0 3 41 66 90 141 50 75 90 138 90 140 0 2 14 23
30 46 17 22 30 46 30 52 0 12 -129 14 -147 3 -6 -4 -30 -39 -54 -79 -23 -40
-50 -81 -58 -92 -9 -10 -15 -21 -13 -25 1 -3 -4 -13 -12 -22 -7 -9 -15 -20
-17 -25 -13 -31 -163 -274 -169 -274 -3 0 -7 6 -8 13 -2 22 -13 81 -28 147 -9
36 -17 74 -18 85 -2 11 -13 65 -25 120 -13 55 -25 111 -27 125 -3 13 -7 26 -9
28 -2 2 -34 5 -70 6 l-67 2 6 -36z"/>
<path d="M16593 6572 c-29 -2 -54 -7 -54 -13 -1 -5 -2 -12 -3 -16 -10 -42 -17
-72 -21 -91 -2 -13 -7 -33 -11 -45 -4 -12 -9 -33 -10 -47 -1 -14 -2 -25 -3
-25 -2 0 -4 -9 -6 -20 -2 -12 -18 -84 -36 -160 -17 -77 -32 -162 -32 -190 -2
-89 55 -166 133 -181 106 -20 222 12 294 80 l35 33 -5 -31 c-12 -76 -15 -71
54 -71 75 0 79 2 86 38 2 15 7 35 10 45 3 9 8 29 11 45 9 50 16 77 39 173 8
34 17 72 20 85 5 23 9 42 21 89 17 68 56 242 61 272 6 31 -4 35 -82 30 -54 -4
-58 -7 -69 -59 -10 -47 -86 -362 -94 -390 -5 -18 -8 -33 -5 -33 2 0 -5 -19
-17 -42 -24 -49 -77 -108 -96 -108 -7 0 -13 -4 -13 -9 0 -11 -81 -34 -122 -34
-113 0 -135 72 -83 273 7 28 45 195 56 245 6 28 13 61 16 75 3 14 6 31 6 38 0
6 4 12 8 12 15 0 -2 28 -19 32 -9 1 -41 2 -69 0z"/>
<path d="M6047 6563 c-2 -4 -3 -15 -2 -24 5 -29 17 -134 20 -169 2 -19 4 -35
5 -35 1 0 3 -18 5 -40 2 -22 6 -58 9 -80 5 -37 13 -105 22 -180 10 -90 23
-146 36 -162 6 -7 7 -13 2 -13 -4 0 7 -16 26 -35 18 -18 38 -33 43 -32 23 4
16 -31 -13 -72 -41 -57 -111 -89 -202 -93 -43 -1 -44 -4 -47 -80 l-2 -58 47 0
c52 0 152 24 199 47 59 29 115 103 188 247 40 78 73 149 75 159 2 9 8 17 13
17 5 0 8 3 7 8 -3 10 264 546 276 554 6 4 7 8 3 8 -4 0 -3 9 3 20 10 19 8 20
-67 20 l-78 -1 -32 -67 c-17 -37 -82 -170 -143 -297 -62 -126 -116 -240 -121
-253 -11 -30 -40 -25 -56 8 -6 14 -14 52 -17 85 -2 33 -5 60 -6 60 -1 0 -3 27
-6 60 -5 78 -11 111 -19 124 -3 6 -1 11 5 11 6 0 8 5 4 11 -3 6 -8 27 -10 47
-9 82 -15 149 -18 177 -2 30 -3 30 -73 33 -39 2 -73 -1 -76 -5z"/>
<path d="M17960 6545 c-5 -13 -12 -38 -15 -57 -6 -33 -6 -34 27 -35 60 -1 69
-3 63 -13 -6 -10 -12 -32 -21 -90 -3 -19 -10 -43 -15 -52 -5 -10 -8 -18 -5
-18 2 0 -4 -32 -14 -70 -10 -39 -18 -73 -19 -75 0 -3 -3 -15 -6 -28 -3 -12 -7
-33 -9 -47 -2 -14 -12 -54 -21 -90 -9 -36 -17 -74 -19 -85 -2 -11 -7 -36 -10
-56 l-7 -35 65 1 c72 2 74 2 79 31 2 10 7 30 10 44 12 52 38 166 41 185 2 11
18 79 35 150 17 72 32 141 35 155 2 14 5 26 7 28 1 1 2 5 3 10 3 12 19 86 22
102 2 8 6 27 9 41 l7 26 -117 0 c-112 0 -117 -1 -125 -22z"/>
</g>
</svg>
