<svg id="Layer_1" data-name="Layer 1" xmlns="http://www.w3.org/2000/svg" viewBox="0 0 130 130"><defs><style>.cls-1,.cls-2,.cls-4{fill:none;}.cls-1,.cls-4{stroke:#fff;stroke-miterlimit:10;}.cls-2{stroke:#0561fc;stroke-linecap:round;stroke-linejoin:round;stroke-width:4px;}.cls-3{fill:#c5e1f9;}.cls-4{stroke-width:3px;}</style></defs><rect class="cls-1" x="-127.81" y="-128.11" width="1617.81" height="435.04"/><path class="cls-2" d="M77.76,24.43v91.12a5,5,0,0,1-5,5H28.13a5,5,0,0,1-5-5V24.43a5,5,0,0,1,5-5H72.76A5,5,0,0,1,77.76,24.43Z"/><path class="cls-2" d="M62.39,14.45v5H38.51v-5a5,5,0,0,1,5-5H57.39A5,5,0,0,1,62.39,14.45Z"/><rect class="cls-2" x="30.74" y="101.54" width="39.42" height="10.8"/><rect class="cls-2" x="30.74" y="83.73" width="39.42" height="10.8"/><rect class="cls-2" x="30.74" y="65.91" width="39.42" height="10.8"/><rect class="cls-2" x="30.74" y="48.1" width="39.42" height="10.8"/><path class="cls-3" d="M56.39,32.08a.38.38,0,0,0-.35-.2H50.77l.89-6.75a.42.42,0,0,0-.36-.45.43.43,0,0,0-.38.18L44.51,36.09a.4.4,0,0,0,.34.61H50l-.7,6.76a.41.41,0,0,0,.37.44.41.41,0,0,0,.38-.19l6.3-11.22a.43.43,0,0,0,0-.41Z"/><path class="cls-3" d="M106.77,97.26a.74.74,0,0,0-.64-.38H96.5l1.61-12.34a.73.73,0,0,0-.65-.81.74.74,0,0,0-.7.33L85,104.59a.74.74,0,0,0,.25,1,.7.7,0,0,0,.38.11h9.49l-1.28,12.36a.74.74,0,0,0,1.36.45L106.76,98a.73.73,0,0,0,0-.74Z"/><rect class="cls-4" x="-2133.66" y="-321.65" width="3799.15" height="1639.23"/></svg>