<svg id="Layer_1" data-name="Layer 1" xmlns="http://www.w3.org/2000/svg" viewBox="0 0 130 130"><defs><style>.cls-1,.cls-3,.cls-6{fill:none;}.cls-1,.cls-6{stroke:#fff;stroke-miterlimit:10;}.cls-2,.cls-5{fill:#fff;}.cls-3,.cls-5{stroke:#0561fc;stroke-linecap:round;stroke-linejoin:round;stroke-width:4px;}.cls-4{fill:#c5e1f9;}.cls-6{stroke-width:3px;}</style></defs><rect class="cls-1" x="-927.81" y="-128.11" width="1617.81" height="435.04"/><rect class="cls-2" x="3.91" y="18.26" width="101.93" height="77.07" rx="3"/><rect class="cls-3" x="3.91" y="18.26" width="101.93" height="77.07" rx="3"/><line class="cls-3" x1="3.91" y1="34.96" x2="105.84" y2="34.96"/><path class="cls-4" d="M19.87,26.61a3.38,3.38,0,1,1-3.38-3.37A3.38,3.38,0,0,1,19.87,26.61Z"/><path class="cls-4" d="M30.67,26.61a3.38,3.38,0,1,1-3.37-3.37A3.37,3.37,0,0,1,30.67,26.61Z"/><path class="cls-4" d="M96.63,26.61A3.38,3.38,0,0,1,93.25,30h-23a3.38,3.38,0,1,1,0-6.75h23A3.37,3.37,0,0,1,96.63,26.61Z"/><line class="cls-3" x1="13.12" y1="47.37" x2="30.67" y2="47.37"/><line class="cls-3" x1="13.12" y1="59.22" x2="47.03" y2="59.22"/><line class="cls-3" x1="13.12" y1="71.08" x2="47.03" y2="71.08"/><line class="cls-3" x1="13.12" y1="82.93" x2="47.03" y2="82.93"/><rect class="cls-4" x="61.07" y="47.37" width="35.56" height="35.56"/><rect class="cls-5" x="81.72" y="44.23" width="44.37" height="67.51" rx="4.06"/><rect class="cls-3" x="87.9" y="51.9" width="32.01" height="8.77" transform="translate(207.82 112.56) rotate(180)"/><rect class="cls-3" x="87.9" y="66.36" width="32.01" height="8.77" transform="translate(207.82 141.5) rotate(180)"/><rect class="cls-3" x="87.9" y="80.83" width="32.01" height="8.77" transform="translate(207.82 170.44) rotate(180)"/><rect class="cls-3" x="87.9" y="95.3" width="32.01" height="8.77" transform="translate(207.82 199.37) rotate(180)"/><rect class="cls-6" x="-2933.66" y="-321.65" width="3799.15" height="1639.23"/></svg>