<svg id="Layer_1" data-name="Layer 1" xmlns="http://www.w3.org/2000/svg" viewBox="0 0 130 130"><defs><style>.cls-1,.cls-3,.cls-5{fill:none;}.cls-1,.cls-5{stroke:#fff;stroke-miterlimit:10;}.cls-2{fill:#fff;}.cls-3{stroke:#0561fc;stroke-linecap:round;stroke-linejoin:round;stroke-width:4px;}.cls-4{fill:#c5e1f9;}.cls-5{stroke-width:3px;}</style></defs><rect class="cls-1" x="-1327.81" y="-128.11" width="1617.81" height="435.04"/><rect class="cls-2" x="8.97" y="22.64" width="112.05" height="84.73" rx="3"/><rect class="cls-3" x="8.97" y="22.64" width="112.05" height="84.73" rx="3"/><line class="cls-3" x1="8.97" y1="41" x2="121.03" y2="41"/><path class="cls-4" d="M26.52,31.82a3.71,3.71,0,1,1-3.71-3.71A3.71,3.71,0,0,1,26.52,31.82Z"/><path class="cls-4" d="M38.4,31.82a3.72,3.72,0,1,1-3.71-3.71A3.72,3.72,0,0,1,38.4,31.82Z"/><line class="cls-3" x1="19.1" y1="54.63" x2="38.4" y2="54.63"/><line class="cls-3" x1="19.1" y1="67.67" x2="54.37" y2="67.67"/><line class="cls-3" x1="19.1" y1="80.7" x2="54.37" y2="80.7"/><line class="cls-3" x1="19.1" y1="93.73" x2="54.37" y2="93.73"/><path class="cls-4" d="M76.79,92.72l-1-7.26H69.06l-1,7.26h-5.4l6-37.08h7.9l6,37.08Zm-7-12.29H75l-2.65-18.7Z"/><path class="cls-4" d="M85.37,92.72V55.64H94c5.78,0,8.69,3.07,8.69,9.16v3.66c0,6.09-2.91,9.16-8.69,9.16H91.2v15.1ZM91.2,72.33H94c1.91,0,2.86-1,2.86-3.5v-4.4c0-2.54-1-3.49-2.86-3.49H91.2Z"/><path class="cls-4" d="M105.76,92.72V55.64h5.83V92.72Z"/><rect class="cls-5" x="-3333.66" y="-321.65" width="3799.15" height="1639.23"/></svg>