<svg xmlns="http://www.w3.org/2000/svg" viewBox="0 0 124.5 101.41"><defs><style>.cls-1{fill:#fff;}.cls-1,.cls-2,.cls-4{stroke:#0561fc;stroke-linecap:round;stroke-linejoin:round;stroke-width:4px;}.cls-2{fill:none;}.cls-3{fill:#c5e1f9;}.cls-4{fill:#fcfcfc;}.cls-5{fill:#0561fc;}</style></defs><g id="Layer_2" data-name="Layer 2"><g id="Layer_1-2" data-name="Layer 1"><rect class="cls-1" x="50.67" y="2" width="71.84" height="56.64"/><path class="cls-2" d="M88.39,30.32A14.65,14.65,0,1,1,73.75,15V30.32Z"/><path class="cls-3" d="M92.14,25.12c0,.2,0,.41,0,.61H78.33V11.32A13.81,13.81,0,0,1,92.14,25.12Z"/><rect class="cls-2" x="101.33" y="14.17" width="7.88" height="7.88"/><line class="cls-2" x1="97.14" y1="31.69" x2="113.51" y2="31.69"/><line class="cls-2" x1="97.14" y1="38.42" x2="113.51" y2="38.42"/><line class="cls-2" x1="97.14" y1="45.16" x2="113.51" y2="45.16"/><path class="cls-4" d="M2,93.09H77.94a10.55,10.55,0,0,0,7-18.41L74.62,62.51A29.16,29.16,0,0,0,52.41,52.25H2"/><path class="cls-3" d="M67.49,58.79H50v7.44A7.79,7.79,0,0,0,57.81,74H81.75L72.41,62.94S68.25,58.79,67.49,58.79Z"/><path class="cls-2" d="M2,75.28H40.7a7.22,7.22,0,0,1,5.1,2.11l3,3a7.24,7.24,0,0,0,5.1,2.11H88.51"/><line class="cls-2" x1="26.69" y1="82.51" x2="26.69" y2="86.7"/><line class="cls-2" x1="33.37" y1="82.51" x2="33.37" y2="86.7"/><polyline class="cls-2" points="27.37 52.25 20.69 40.34 24.56 32.22"/><polyline class="cls-2" points="14.6 36.38 16.92 32.22 39.56 32.22 42.76 36.38"/><path class="cls-2" d="M68,93.09a6.33,6.33,0,0,1-12.65,0"/><path class="cls-2" d="M55.4,93.09a6.32,6.32,0,0,1-12.64,0"/><path class="cls-2" d="M27.19,93.09a6.32,6.32,0,0,1-12.64,0"/><path class="cls-2" d="M14.65,93.09A6.33,6.33,0,0,1,2,93.09"/><rect class="cls-3" x="20.87" y="59.31" width="18.21" height="9.77"/><rect class="cls-3" x="0.66" y="59.31" width="13.94" height="9.77"/><path class="cls-2" d="M37.3,12.34a15,15,0,0,0-21.22,0"/><path class="cls-2" d="M34.17,16.58a10.56,10.56,0,0,0-15,0"/><path class="cls-2" d="M30.5,20.57a5.37,5.37,0,0,0-7.61,0"/><path class="cls-5" d="M28.38,24.05a1.69,1.69,0,1,1-1.69-1.69A1.69,1.69,0,0,1,28.38,24.05Z"/></g></g></svg>