<svg xmlns="http://www.w3.org/2000/svg" width="109.12" height="93.055" viewBox="0 0 109.12 93.055">
  <g id="Layer_24" transform="translate(1976.868 -66.5)">
    <g id="Group_82640" data-name="Group 82640" transform="translate(-1976.137 67.5)">
      <circle id="Ellipse_117" data-name="Ellipse 117" cx="6.543" cy="6.543" r="6.543" transform="translate(87.678 38.191)" fill="#c5e1f9"/>
      <circle id="Ellipse_118" data-name="Ellipse 118" cx="6.543" cy="6.543" r="6.543" transform="translate(35.468 60.596)" fill="#c5e1f9"/>
      <circle id="Ellipse_119" data-name="Ellipse 119" cx="14.466" cy="14.466" r="14.466" transform="translate(26.662 56.512)" fill="#c5e1f9"/>
      <circle id="Ellipse_120" data-name="Ellipse 120" cx="3.708" cy="3.708" r="3.708" transform="translate(95.824 65.667)" fill="#c5e1f9"/>
      <path id="Path_783" data-name="Path 783" d="M-1948.38,170.087h-6.08V111.16h26.849" transform="translate(1966.28 -87.354)" fill="none" stroke="#0561fc" stroke-linecap="round" stroke-linejoin="round" stroke-width="2"/>
      <path id="Path_784" data-name="Path 784" d="M-1905.22,120.773V67.5h42.378v53.273" transform="translate(1943.889 -67.5)" fill="none" stroke="#0561fc" stroke-linecap="round" stroke-linejoin="round" stroke-width="2"/>
      <path id="Path_785" data-name="Path 785" d="M-1827.5,111.16h26.342v58.927h-7.765" transform="translate(1908.547 -87.354)" fill="none" stroke="#0561fc" stroke-linecap="round" stroke-linejoin="round" stroke-width="2"/>
      <path id="Path_786" data-name="Path 786" d="M-1867.476,169.919h-3.424a3.308,3.308,0,0,1-3.31-3.31v-3.424a3.313,3.313,0,0,1,3.31-3.315h3.424a3.309,3.309,0,0,1,3.31,3.315v3.424A3.311,3.311,0,0,1-1867.476,169.919Z" transform="translate(1929.788 -109.503)" fill="none" stroke="#0561fc" stroke-linecap="round" stroke-linejoin="round" stroke-width="2"/>
      <path id="Path_787" data-name="Path 787" d="M-1886.066,198.495h-3.424a3.309,3.309,0,0,1-3.31-3.315v-3.424a3.312,3.312,0,0,1,3.31-3.315h3.424a3.309,3.309,0,0,1,3.31,3.315v3.424A3.306,3.306,0,0,1-1886.066,198.495Z" transform="translate(1938.241 -122.495)" fill="none" stroke="#0561fc" stroke-linecap="round" stroke-linejoin="round" stroke-width="2"/>
      <path id="Path_788" data-name="Path 788" d="M-1848.161,198.495h-3.424a3.314,3.314,0,0,1-3.315-3.315v-3.424a3.314,3.314,0,0,1,3.315-3.315h3.424a3.309,3.309,0,0,1,3.31,3.315v3.424A3.313,3.313,0,0,1-1848.161,198.495Z" transform="translate(1921.007 -122.495)" fill="none" stroke="#0561fc" stroke-linecap="round" stroke-linejoin="round" stroke-width="2"/>
      <path id="Path_789" data-name="Path 789" d="M-1865.831,226.114h-3.424a3.313,3.313,0,0,1-3.315-3.31V219.38a3.309,3.309,0,0,1,3.315-3.31h3.424a3.308,3.308,0,0,1,3.31,3.31V222.8A3.3,3.3,0,0,1-1865.831,226.114Z" transform="translate(1929.042 -135.059)" fill="none" stroke="#0561fc" stroke-linecap="round" stroke-linejoin="round" stroke-width="2"/>
      <path id="Path_790" data-name="Path 790" d="M-1903.186,226.114h-3.424a3.308,3.308,0,0,1-3.31-3.31V219.38a3.308,3.308,0,0,1,3.31-3.31h3.424a3.313,3.313,0,0,1,3.315,3.31V222.8A3.32,3.32,0,0,1-1903.186,226.114Z" transform="translate(1946.026 -135.059)" fill="none" stroke="#0561fc" stroke-linecap="round" stroke-linejoin="round" stroke-width="2"/>
      <path id="Path_791" data-name="Path 791" d="M-1828.291,226.114h-3.424a3.313,3.313,0,0,1-3.315-3.31V219.38a3.309,3.309,0,0,1,3.315-3.31h3.424a3.308,3.308,0,0,1,3.31,3.31V222.8A3.3,3.3,0,0,1-1828.291,226.114Z" transform="translate(1911.972 -135.059)" fill="none" stroke="#0561fc" stroke-linecap="round" stroke-linejoin="round" stroke-width="2"/>
      <path id="Path_792" data-name="Path 792" d="M-1878.9,169.09s-6.849.185-5.42,10.562" transform="translate(1934.476 -113.696)" fill="none" stroke="#0561fc" stroke-linecap="round" stroke-linejoin="round" stroke-width="2"/>
      <path id="Path_793" data-name="Path 793" d="M-1896.935,196.19a7.4,7.4,0,0,0-3.026,1.794c-3.239,3.239-1.9,8.408-1.8,8.768" transform="translate(1942.375 -126.019)" fill="none" stroke="#0561fc" stroke-linecap="round" stroke-linejoin="round" stroke-width="2"/>
      <path id="Path_794" data-name="Path 794" d="M-1859.215,196.19a7.4,7.4,0,0,0-3.026,1.794c-3.239,3.239-1.9,8.408-1.8,8.768" transform="translate(1925.328 -126.019)" fill="none" stroke="#0561fc" stroke-linecap="round" stroke-linejoin="round" stroke-width="2"/>
      <path id="Path_795" data-name="Path 795" d="M-1836.47,196.19a7.4,7.4,0,0,1,3.026,1.794c3.239,3.239,1.9,8.408,1.8,8.768" transform="translate(1912.627 -126.019)" fill="none" stroke="#0561fc" stroke-linecap="round" stroke-linejoin="round" stroke-width="2"/>
      <path id="Path_796" data-name="Path 796" d="M-1855.79,169.09s6.849.185,5.42,10.562" transform="translate(1921.412 -113.696)" fill="none" stroke="#0561fc" stroke-linecap="round" stroke-linejoin="round" stroke-width="2"/>
      <path id="Path_797" data-name="Path 797" d="M-1803.273,145.144a1.858,1.858,0,0,0-1.821-1.674,1.8,1.8,0,0,0-1.969,1.674c.049.5.518,1.227,1.892,1.3s2.067.834,2,1.93c-.076,1.14-1.243,1.4-1.958,1.434a1.883,1.883,0,0,1-2.017-1.609" transform="translate(1899.294 -102.046)" fill="none" stroke="#0561fc" stroke-linecap="round" stroke-linejoin="round" stroke-width="1"/>
      <line id="Line_359" data-name="Line 359" y2="8.026" transform="translate(94.134 40.557)" fill="none" stroke="#0561fc" stroke-linecap="round" stroke-linejoin="round" stroke-width="1"/>
      <path id="Path_798" data-name="Path 798" d="M-1810.861,151.048a9.029,9.029,0,0,1-9.019-9.019,9.029,9.029,0,0,1,9.019-9.019,9.029,9.029,0,0,1,9.019,9.019A9.029,9.029,0,0,1-1810.861,151.048Z" transform="translate(1905.083 -97.289)" fill="none" stroke="#0561fc" stroke-linecap="round" stroke-linejoin="round" stroke-width="2"/>
      <path id="Path_799" data-name="Path 799" d="M-1866.788,89.648H-1892.8a2.679,2.679,0,0,1-2.677-2.677V80.547a2.678,2.678,0,0,1,2.677-2.677h26.015a2.678,2.678,0,0,1,2.677,2.677v6.423A2.675,2.675,0,0,1-1866.788,89.648Z" transform="translate(1939.46 -72.216)" fill="#c5e1f9"/>
      <path id="Path_800" data-name="Path 800" d="M-1932.043,139.186h-8.539a2.569,2.569,0,0,1-2.568-2.568h0a2.569,2.569,0,0,1,2.568-2.568h8.539a2.569,2.569,0,0,1,2.568,2.568h0A2.569,2.569,0,0,1-1932.043,139.186Z" transform="translate(1961.137 -97.762)" fill="#c5e1f9"/>
      <path id="Path_801" data-name="Path 801" d="M-1932.043,154.066h-8.539a2.569,2.569,0,0,1-2.568-2.568h0a2.569,2.569,0,0,1,2.568-2.568h8.539a2.569,2.569,0,0,1,2.568,2.568h0A2.569,2.569,0,0,1-1932.043,154.066Z" transform="translate(1961.137 -104.529)" fill="#c5e1f9"/>
      <path id="Path_802" data-name="Path 802" d="M-1932.043,168.466h-8.539a2.569,2.569,0,0,1-2.568-2.568h0a2.569,2.569,0,0,1,2.568-2.568h8.539a2.569,2.569,0,0,1,2.568,2.568h0A2.569,2.569,0,0,1-1932.043,168.466Z" transform="translate(1961.137 -111.077)" fill="#c5e1f9"/>
      <path id="Path_803" data-name="Path 803" d="M-1890.177,119.909h-1.936a2.679,2.679,0,0,1-2.677-2.677v-2.585a2.679,2.679,0,0,1,2.677-2.677h1.936a2.678,2.678,0,0,1,2.677,2.677v2.585A2.678,2.678,0,0,1-1890.177,119.909Z" transform="translate(1939.147 -87.722)" fill="#c5e1f9"/>
      <path id="Path_804" data-name="Path 804" d="M-1868.787,119.909h-1.936a2.679,2.679,0,0,1-2.677-2.677v-2.585a2.679,2.679,0,0,1,2.677-2.677h1.936a2.679,2.679,0,0,1,2.677,2.677v2.585A2.679,2.679,0,0,1-1868.787,119.909Z" transform="translate(1929.42 -87.722)" fill="#c5e1f9"/>
      <path id="Path_805" data-name="Path 805" d="M-1847.887,119.909h-1.936a2.679,2.679,0,0,1-2.677-2.677v-2.585a2.678,2.678,0,0,1,2.677-2.677h1.936a2.679,2.679,0,0,1,2.677,2.677v2.585A2.678,2.678,0,0,1-1847.887,119.909Z" transform="translate(1919.916 -87.722)" fill="#c5e1f9"/>
      <path id="Path_806" data-name="Path 806" d="M-1847.6,119.909h-1.936a2.678,2.678,0,0,1-2.677-2.677v-2.585a2.678,2.678,0,0,1,2.677-2.677h1.936a2.678,2.678,0,0,1,2.677,2.677v2.585A2.678,2.678,0,0,1-1847.6,119.909Z" transform="translate(1919.784 -87.722)" fill="#c5e1f9"/>
      <path id="Path_807" data-name="Path 807" d="M-1890.177,142.919h-1.936a2.679,2.679,0,0,1-2.677-2.677v-2.585a2.679,2.679,0,0,1,2.677-2.677h1.936a2.678,2.678,0,0,1,2.677,2.677v2.585A2.675,2.675,0,0,1-1890.177,142.919Z" transform="translate(1939.147 -98.185)" fill="#c5e1f9"/>
      <path id="Path_808" data-name="Path 808" d="M-1868.787,142.919h-1.936a2.679,2.679,0,0,1-2.677-2.677v-2.585a2.679,2.679,0,0,1,2.677-2.677h1.936a2.679,2.679,0,0,1,2.677,2.677v2.585A2.675,2.675,0,0,1-1868.787,142.919Z" transform="translate(1929.42 -98.185)" fill="#c5e1f9"/>
      <path id="Path_809" data-name="Path 809" d="M-1847.887,142.919h-1.936a2.679,2.679,0,0,1-2.677-2.677v-2.585a2.678,2.678,0,0,1,2.677-2.677h1.936a2.679,2.679,0,0,1,2.677,2.677v2.585A2.675,2.675,0,0,1-1847.887,142.919Z" transform="translate(1919.916 -98.185)" fill="#c5e1f9"/>
      <path id="Path_810" data-name="Path 810" d="M-1847.6,142.919h-1.936a2.678,2.678,0,0,1-2.677-2.677v-2.585a2.678,2.678,0,0,1,2.677-2.677h1.936a2.678,2.678,0,0,1,2.677,2.677v2.585A2.675,2.675,0,0,1-1847.6,142.919Z" transform="translate(1919.784 -98.185)" fill="#c5e1f9"/>
      <path id="Path_811" data-name="Path 811" d="M-1950.92,100.455c-.153-1.178-.545-1.778-1.369-1.958a3.3,3.3,0,0,1-2.677-4.482,1.574,1.574,0,0,0-.545-1.821,13.238,13.238,0,0,0-3.3-1.947,1.53,1.53,0,0,0-2.088.431,3.206,3.206,0,0,1-1.581,1.041,3.334,3.334,0,0,1-3.55-1.02,1.552,1.552,0,0,0-2.137-.447,12.312,12.312,0,0,0-2.917,1.652,1.544,1.544,0,0,0-.616,2.039,3.327,3.327,0,0,1-2.775,4.439,1.5,1.5,0,0,0-1.385,1.221,10.114,10.114,0,0,0-.093,4.242,1.489,1.489,0,0,0,1.472,1.4,3.334,3.334,0,0,1,2.617,4.646,1.452,1.452,0,0,0,.485,1.914,12.645,12.645,0,0,0,3.293,1.947,1.534,1.534,0,0,0,2.078-.5,3.492,3.492,0,0,1,1.178-1.009,3.289,3.289,0,0,1,4,.731c.4.425.763.911,1.445.829a1.743,1.743,0,0,0,.54-.076,12.324,12.324,0,0,0,3.337-2,1.416,1.416,0,0,0,.485-1.821,3.358,3.358,0,0,1,2.639-4.564,1.534,1.534,0,0,0,1.363-1.38A12.012,12.012,0,0,0-1950.92,100.455Zm-12.574,5.758a4.255,4.255,0,0,1-4.248-4.209,4.362,4.362,0,0,1,4.329-4.28,4.374,4.374,0,0,1,4.188,4.3A4.255,4.255,0,0,1-1963.494,106.213Z" transform="translate(1976.137 -77.739)" fill="#c5e1f9"/>
      <path id="Path_812" data-name="Path 812" d="M-1952.223,108.452a4.259,4.259,0,0,1-4.269,4.188,4.255,4.255,0,0,1-4.248-4.209,4.362,4.362,0,0,1,4.329-4.28A4.378,4.378,0,0,1-1952.223,108.452Z" transform="translate(1969.136 -84.166)" fill="#fff"/>
      <path id="Path_813" data-name="Path 813" d="M-1958.893,113.823c-.687.076-1.047-.409-1.45-.829a3.289,3.289,0,0,0-4-.736,3.624,3.624,0,0,0-1.178,1.014,1.533,1.533,0,0,1-2.072.5,12.891,12.891,0,0,1-3.3-1.947,1.465,1.465,0,0,1-.485-1.914,3.33,3.33,0,0,0-2.617-4.646,1.5,1.5,0,0,1-1.472-1.4,10.11,10.11,0,0,1,.093-4.242,1.5,1.5,0,0,1,1.385-1.221,3.322,3.322,0,0,0,2.776-4.433,1.541,1.541,0,0,1,.616-2.039,12.64,12.64,0,0,1,2.917-1.658,1.553,1.553,0,0,1,2.138.447A3.348,3.348,0,0,0-1962,91.74a3.22,3.22,0,0,0,1.581-1.041,1.531,1.531,0,0,1,2.088-.431,12.739,12.739,0,0,1,3.3,1.947,1.573,1.573,0,0,1,.545,1.821,3.3,3.3,0,0,0,2.677,4.482c.823.174,1.216.78,1.369,1.958a11.423,11.423,0,0,1-.115,3.528,1.533,1.533,0,0,1-1.363,1.374,3.358,3.358,0,0,0-2.639,4.564,1.406,1.406,0,0,1-.485,1.821,12.55,12.55,0,0,1-3.337,2A1.875,1.875,0,0,1-1958.893,113.823Zm-4.095-7.6a4.26,4.26,0,0,0,4.27-4.193,4.369,4.369,0,0,0-4.188-4.3,4.363,4.363,0,0,0-4.33,4.28A4.252,4.252,0,0,0-1962.988,106.228Z" transform="translate(1975.915 -77.748)" fill="none" stroke="#0561fc" stroke-linecap="round" stroke-linejoin="round" stroke-width="2"/>
    </g>
  </g>
</svg>
