<svg xmlns="http://www.w3.org/2000/svg" viewBox="0 0 124.19 109.96"><defs><style>.cls-1,.cls-5{fill:#fff;}.cls-2,.cls-4{fill:none;}.cls-2,.cls-5{stroke:#0561fc;}.cls-2,.cls-4,.cls-5{stroke-linecap:round;stroke-linejoin:round;stroke-width:4px;}.cls-3{fill:#c5e1f9;}.cls-4{stroke:#c5e1f9;}</style></defs><g id="Layer_2" data-name="Layer 2"><g id="Layer_1-2" data-name="Layer 1"><rect class="cls-1" x="2" y="2" width="120.19" height="90.88" rx="3"/><rect class="cls-2" x="2" y="2" width="120.19" height="90.88" rx="3"/><line class="cls-2" x1="2" y1="21.7" x2="122.19" y2="21.7"/><path class="cls-3" d="M20.32,11.85a4,4,0,1,1-4-4A4,4,0,0,1,20.32,11.85Z"/><path class="cls-3" d="M33.06,11.85a4,4,0,1,1-4-4A4,4,0,0,1,33.06,11.85Z"/><path class="cls-3" d="M111.83,11.85a4,4,0,0,1-4,4H80.67a4,4,0,0,1,0-8h27.18A4,4,0,0,1,111.83,11.85Z"/><polyline class="cls-4" points="12.36 38.43 12.36 76.15 50.08 76.15"/><polyline class="cls-4" points="12.36 66.32 17.91 60.77 21.14 63.99 31.92 53.21 36.71 53.21 46.8 42.88 51.31 56.49"/><line class="cls-2" x1="60.5" y1="54.43" x2="86.17" y2="54.43"/><line class="cls-2" x1="60.5" y1="63.31" x2="111.83" y2="63.31"/><rect class="cls-5" x="60.5" y="33.53" width="12.04" height="12.04"/><rect class="cls-5" x="80.15" y="33.53" width="12.04" height="12.04"/><rect class="cls-5" x="99.79" y="33.53" width="12.04" height="12.04"/><rect class="cls-5" x="59.75" y="61.75" width="52.84" height="46.21"/><polygon class="cls-5" points="86.17 68.15 67.73 100.08 104.6 100.08 86.17 68.15"/><line class="cls-5" x1="86.17" y1="80.74" x2="86.17" y2="88.13"/><line class="cls-5" x1="86.17" y1="93.34" x2="86.17" y2="93.34"/></g></g></svg>