<svg xmlns="http://www.w3.org/2000/svg" viewBox="0 0 108.79 109.87"><defs><style>.cls-1,.cls-4{fill:#fff;}.cls-2{fill:none;}.cls-2,.cls-4{stroke:#0561fc;stroke-linecap:round;stroke-linejoin:round;stroke-width:4px;}.cls-3{fill:#c5e1f9;}.cls-5{fill:#0561fc;}</style></defs><g id="Layer_2" data-name="Layer 2"><g id="Layer_1-2" data-name="Layer 1"><rect class="cls-1" x="2" y="2" width="104.79" height="79.24" rx="3"/><rect class="cls-2" x="2" y="2" width="104.79" height="79.24" rx="3"/><line class="cls-2" x1="2" y1="19.17" x2="106.79" y2="19.17"/><path class="cls-3" d="M18.41,10.59a3.47,3.47,0,1,1-3.47-3.47A3.47,3.47,0,0,1,18.41,10.59Z"/><path class="cls-3" d="M29.51,10.59A3.47,3.47,0,1,1,26,7.12,3.47,3.47,0,0,1,29.51,10.59Z"/><path class="cls-3" d="M97.32,10.59a3.47,3.47,0,0,1-3.47,3.47H70.15a3.47,3.47,0,1,1,0-6.94h23.7A3.47,3.47,0,0,1,97.32,10.59Z"/><line class="cls-2" x1="11.47" y1="31.92" x2="29.51" y2="31.92"/><line class="cls-2" x1="11.47" y1="44.11" x2="46.33" y2="44.11"/><line class="cls-2" x1="11.47" y1="56.3" x2="46.33" y2="56.3"/><line class="cls-2" x1="11.47" y1="68.48" x2="46.33" y2="68.48"/><rect class="cls-3" x="60.76" y="31.92" width="36.56" height="36.56"/><rect class="cls-4" x="18.41" y="50.44" width="34.76" height="57.43" rx="3.39"/><line class="cls-4" x1="45.54" y1="96.64" x2="26.05" y2="96.64"/><line class="cls-4" x1="26.05" y1="87.81" x2="37.07" y2="87.81"/><rect class="cls-3" x="24.93" y="57.21" width="21.73" height="21.73"/><rect class="cls-1" x="64.2" y="87.81" width="35.6" height="14.2"/><rect class="cls-3" x="64.2" y="87.81" width="35.6" height="6.45"/><rect class="cls-3" x="64.2" y="87.81" width="35.6" height="6.45"/><rect class="cls-2" x="64.2" y="87.81" width="35.6" height="14.2"/><line class="cls-2" x1="71.14" y1="87.81" x2="71.14" y2="73.93"/><line class="cls-2" x1="91.96" y1="87.81" x2="91.96" y2="73.93"/><path class="cls-2" d="M94.75,53.08a18,18,0,0,0-25.5,0"/><path class="cls-2" d="M91,58.18a12.7,12.7,0,0,0-18,0"/><path class="cls-2" d="M86.57,63a6.47,6.47,0,0,0-9.14,0"/><path class="cls-5" d="M84,67.16a2,2,0,1,1-2-2A2,2,0,0,1,84,67.16Z"/></g></g></svg>