<svg xmlns="http://www.w3.org/2000/svg" viewBox="0 0 124.19 109.18"><defs><style>.cls-1,.cls-5{fill:#fff;}.cls-2,.cls-4{fill:none;}.cls-2,.cls-5,.cls-6{stroke:#0561fc;}.cls-2,.cls-4,.cls-5,.cls-6{stroke-linecap:round;stroke-linejoin:round;stroke-width:4px;}.cls-3,.cls-6{fill:#c5e1f9;}.cls-4{stroke:#c5e1f9;}</style></defs><g id="Layer_2" data-name="Layer 2"><g id="Layer_1-2" data-name="Layer 1"><rect class="cls-1" x="2" y="2" width="120.19" height="90.88" rx="3"/><rect class="cls-2" x="2" y="2" width="120.19" height="90.88" rx="3"/><line class="cls-2" x1="2" y1="21.7" x2="122.19" y2="21.7"/><path class="cls-3" d="M20.32,11.85a4,4,0,1,1-4-4A4,4,0,0,1,20.32,11.85Z"/><path class="cls-3" d="M33.06,11.85a4,4,0,1,1-4-4A4,4,0,0,1,33.06,11.85Z"/><path class="cls-3" d="M111.83,11.85a4,4,0,0,1-4,4H80.67a4,4,0,0,1,0-8h27.18A4,4,0,0,1,111.83,11.85Z"/><polyline class="cls-4" points="12.36 38.43 12.36 76.15 50.08 76.15"/><polyline class="cls-4" points="12.36 66.32 17.91 60.76 21.14 63.99 31.92 53.21 36.71 53.21 46.8 42.87"/><line class="cls-4" x1="60.5" y1="52.95" x2="86.17" y2="52.95"/><line class="cls-4" x1="60.5" y1="61.83" x2="111.83" y2="61.83"/><rect class="cls-3" x="60.5" y="32.04" width="12.04" height="12.04"/><rect class="cls-3" x="80.15" y="32.04" width="12.04" height="12.04"/><rect class="cls-3" x="99.79" y="32.04" width="12.04" height="12.04"/><path class="cls-5" d="M81.71,46.94a30.12,30.12,0,1,0,30.12,30.12A30.12,30.12,0,0,0,81.71,46.94Z"/><line class="cls-5" x1="81.71" y1="46.94" x2="81.71" y2="50.86"/><line class="cls-5" x1="81.71" y1="103.25" x2="81.71" y2="107.18"/><line class="cls-5" x1="66.65" y1="50.97" x2="68.62" y2="54.37"/><line class="cls-5" x1="94.81" y1="99.74" x2="96.77" y2="103.14"/><line class="cls-5" x1="55.63" y1="62" x2="59.03" y2="63.96"/><line class="cls-5" x1="104.4" y1="90.15" x2="107.8" y2="92.12"/><line class="cls-5" x1="51.59" y1="77.06" x2="55.52" y2="77.06"/><line class="cls-5" x1="107.91" y1="77.06" x2="111.83" y2="77.06"/><line class="cls-5" x1="55.63" y1="92.12" x2="59.03" y2="90.15"/><line class="cls-5" x1="104.4" y1="63.96" x2="107.8" y2="62"/><line class="cls-5" x1="66.65" y1="103.14" x2="68.62" y2="99.74"/><line class="cls-5" x1="94.81" y1="54.37" x2="96.77" y2="50.97"/><polyline class="cls-2" points="75.39 70.73 81.71 77.06 97.68 61.09"/><path class="cls-6" d="M81.71,73.82A3.24,3.24,0,1,0,85,77.06,3.24,3.24,0,0,0,81.71,73.82Z"/></g></g></svg>