<svg id="Layer_1" data-name="Layer 1" xmlns="http://www.w3.org/2000/svg" viewBox="0 0 300 150"><defs><style>.cls-1{fill:#2957a4;}</style></defs><path class="cls-1" d="M100.8,63.37H96V73.93a1.35,1.35,0,0,1-.14-.3,16.76,16.76,0,0,0-.85-2c-1.38-2.43-2.81-4.84-4.22-7.26-.19-.33-.33-.78-.62-.94s-.74-.06-1.12-.06l-4,0V81.12l.4,0h4.68V70.5c.06.15.1.28.15.4a16.73,16.73,0,0,0,.82,1.95c1.54,2.68,3.12,5.34,4.68,8a.44.44,0,0,0,.43.24q2.27,0,4.53,0c.26,0,.36-.06.36-.34q0-8.52,0-17C101.14,63.46,101.07,63.37,100.8,63.37Z"/><path class="cls-1" d="M212.44,57.9l-.62-.15h-.54a1.42,1.42,0,0,1-.22.07,3.31,3.31,0,1,0,3.85,3.38A3.34,3.34,0,0,0,212.44,57.9Zm-.89,6.15a3,3,0,1,1,3-2.93A3,3,0,0,1,211.55,64.05Z"/><path class="cls-1" d="M135.89,78.08a6.19,6.19,0,0,0,.39-3A3.68,3.68,0,0,0,134,71.8l-.26-.13s0,0,0,0a.16.16,0,0,1,.07-.07,4,4,0,0,0,1.9-3.94,4.06,4.06,0,0,0-3-3.84,13.44,13.44,0,0,0-3.68-.39c-2.53,0-5,0-7.58,0l-.34,0v17.7h.17c2.76,0,5.51,0,8.26,0a16.32,16.32,0,0,0,2.88-.26A4.51,4.51,0,0,0,135.89,78.08Zm-9.6-10.56a.27.27,0,0,1,.21-.17c1,0,2.05,0,3.07.13a1.13,1.13,0,0,1,1.08,1.27,3.35,3.35,0,0,1-.05.71,1.29,1.29,0,0,1-1.37,1c-1,0-1.93,0-2.95,0C126.28,69.46,126.27,68.49,126.29,67.52ZM131,76.28a1.55,1.55,0,0,1-1.3.66c-1,0-2.09,0-3.14.06-.08,0-.24-.14-.24-.21,0-1,0-2,0-3.16,1.24,0,2.43,0,3.61.14A1.6,1.6,0,0,1,131,76.28Z"/><path class="cls-1" d="M154.85,77a8.34,8.34,0,0,0,.3-2.16c0-3.7,0-7.41,0-11.11V63.4h-5.44v.42q0,5.24,0,10.47a6.86,6.86,0,0,1-.07,1A1.89,1.89,0,0,1,148,77.06a4.5,4.5,0,0,1-2,0,1.83,1.83,0,0,1-1.49-1.48,7.24,7.24,0,0,1-.14-1.24c0-3.5,0-7,0-10.5v-.42H139V73.66c0,.65,0,1.31.06,2a5.67,5.67,0,0,0,3.88,5.27,12.14,12.14,0,0,0,8.34,0A5.44,5.44,0,0,0,154.85,77Z"/><path class="cls-1" d="M196.5,74.44c0-.34.07-.44.42-.44,2,0,4,0,6.06,0h.41V70h-6.87V67.56h8.14V63.4H191.09V81.08H205V76.81h-8.5C196.51,76,196.52,75.21,196.5,74.44Z"/><path class="cls-1" d="M118.36,76.82h-8.13c-.31,0-.39-.09-.38-.39,0-.68,0-1.37,0-2.06,0-.29.09-.38.38-.38,2.06,0,4.11,0,6.16,0h.38V70h-6.48c-.44,0-.44,0-.44-.45s0-1,0-1.55c0-.32.08-.42.41-.42h7.38c.33,0,.42-.09.41-.42,0-1.12,0-2.25,0-3.37,0-.31-.06-.42-.4-.42-4.28,0-8.55,0-12.82,0l-.35,0V81.08h13.88Z"/><path class="cls-1" d="M188.2,77.44q-2.31-6.84-4.62-13.69a.47.47,0,0,0-.55-.38q-2.39,0-4.77,0a.37.37,0,0,0-.43.3q-2.9,8.58-5.81,17.16c0,.08,0,.17-.05.27h5.11c.08,0,.21-.14.24-.24.19-.61.36-1.23.53-1.84a.3.3,0,0,1,.34-.28h5c.22,0,.29.09.34.28.14.58.32,1.15.46,1.73a.39.39,0,0,0,.47.37c1.08,0,2.17,0,3.25,0h1.75l-.13-.41C188.94,79.61,188.57,78.53,188.2,77.44ZM178.91,75C179.5,73,180.07,71,180.64,69h.1c.56,2,1.13,4,1.7,6.1Z"/><path class="cls-1" d="M171.33,80.76c0-1.31,0-2.63,0-4,0-.32-.09-.4-.4-.39-2.22,0-4.44,0-6.66,0h-.44v-13h-5.41V81.08l.23,0H171C171.3,81.11,171.33,81,171.33,80.76Z"/><path class="cls-1" d="M187.16,88.72h-3l-.38,0v1h3.42A1.68,1.68,0,0,0,189,87.88a1.58,1.58,0,0,0-1.58-1.6c-1.29,0-2.59,0-3.89,0A1.57,1.57,0,0,0,182,87.89c0,.93,0,1.86,0,2.8a1.36,1.36,0,0,0,.42,1,1.9,1.9,0,0,0,1.4.57h4.8l.3,0v-1h-5.13a.64.64,0,0,1-.73-.66c0-.88,0-1.77,0-2.66a.51.51,0,0,1,.57-.57c.39,0,.78,0,1.18,0h2.53c.31,0,.54.1.61.42C188.08,88.36,187.8,88.72,187.16,88.72Z"/><path class="cls-1" d="M116.84,88.64c-1.06,0-2.11,0-3.17,0l-.35,0v.47c0,.52-.1.52.53.52h3c.51,0,.72.27.72.77s-.18.67-.73.67q-1.74,0-3.48,0c-.53,0-.69-.19-.69-.73,0-.78,0-1.55,0-2.33s.22-.85.85-.85h5v-1l-.09,0c-1.73,0-3.45,0-5.17,0A1.68,1.68,0,0,0,111.55,88c0,.82,0,1.64,0,2.46a1.6,1.6,0,0,0,1.7,1.71h3.59a1.6,1.6,0,0,0,1.73-1.75A1.65,1.65,0,0,0,116.84,88.64Z"/><path class="cls-1" d="M98.72,88.63c-.32,0-.63,0-1,0H95.18c0,.25,0,.44,0,.62s.06.4.37.39c1,0,2,0,3.08,0a1.66,1.66,0,0,0,1.82-1.91,1.46,1.46,0,0,0-1.33-1.5c-1.41-.06-2.83-.08-4.25,0a1.47,1.47,0,0,0-1.45,1.65v2.7a1.37,1.37,0,0,0,.46,1,1.76,1.76,0,0,0,1.25.51H100l.32,0a3.45,3.45,0,0,1,0-.56c0-.33-.08-.45-.43-.44-.78,0-1.57,0-2.36,0s-1.51,0-2.27,0-.83-.23-.83-.84V87.9c0-.52.19-.71.71-.71h3.48c.49,0,.69.17.71.57S99.2,88.59,98.72,88.63Z"/><path class="cls-1" d="M107.2,88.66a2.47,2.47,0,0,0-.47,0h-3.45c-.3,0-.61,0-.67-.39-.11-.59,0-1.07.8-1.07h5.12v-1l-.28,0h-4.94a2.33,2.33,0,0,0-.53.07,1.72,1.72,0,0,0-1.29,1.92A1.57,1.57,0,0,0,103,89.63c.59,0,1.18,0,1.76,0s1.47,0,2.2,0c.34,0,.5.21.53.54.06.59-.2.89-.85.89-1.44,0-2.88,0-4.32,0-1,0-.82-.22-.83.89,0,0,0,0,0,.09l.25,0h5.11a1.71,1.71,0,0,0,1.67-1.39A1.68,1.68,0,0,0,107.2,88.66Z"/><path class="cls-1" d="M91.91,86.53a2,2,0,0,0-1.23-.38H85.27V92.1l.25,0h5.41a1.62,1.62,0,0,0,1.64-1.65q0-1.32,0-2.64A1.57,1.57,0,0,0,91.91,86.53Zm-.44,3.87c0,.54-.14.69-.7.7-.92,0-1.85,0-2.77,0-.46,0-.92,0-1.39,0-.23,0-.31-.08-.31-.31,0-1.11,0-2.21,0-3.31,0-.23.08-.31.32-.31h4.12c.5,0,.73.24.73.74Z"/><path class="cls-1" d="M126.14,86.14c-.36,0-.44.1-.43.44,0,1.29,0,2.59,0,3.88,0,.44-.13.6-.56.63a5.17,5.17,0,0,1-.88,0c-.49,0-.63-.2-.63-.69V87.78a1.55,1.55,0,0,0-1.35-1.57,6.51,6.51,0,0,0-1.25,0,1.55,1.55,0,0,0-1.63,1.4c0,1.44,0,2.88,0,4.32a.31.31,0,0,0,.2.23,8.24,8.24,0,0,0,.87,0v-.4c0-1.29,0-2.57,0-3.85,0-.49.18-.67.67-.68h.61c.66,0,.82.15.82.81,0,.84,0,1.69,0,2.53A1.43,1.43,0,0,0,123.79,92a5.68,5.68,0,0,0,1.84,0,1.42,1.42,0,0,0,1.17-1.39c0-1.48,0-3,0-4.49A4.89,4.89,0,0,1,126.14,86.14Z"/><path class="cls-1" d="M164.48,86.28c-1.34,0-2.68,0-4,0a1.69,1.69,0,0,0-1.62,1.65c0,.89,0,1.78,0,2.67a1.48,1.48,0,0,0,1.34,1.58,21.87,21.87,0,0,0,2.29,0v0c.61,0,1.23,0,1.85,0a1.67,1.67,0,0,0,1.79-1.8V88A1.69,1.69,0,0,0,164.48,86.28Zm.56,4.29c0,.48-.19.64-.68.64h-3.75c-.51,0-.7-.18-.7-.68,0-.84,0-1.67,0-2.5a.63.63,0,0,1,.7-.72q1.88,0,3.75,0A.61.61,0,0,1,165,88C165.05,88.84,165.05,89.71,165,90.57Z"/><path class="cls-1" d="M144.66,86.15q-1.87,0-3.75,0a1.72,1.72,0,0,0-1.76,1.8c0,.84,0,1.69,0,2.53a1.59,1.59,0,0,0,1.64,1.64h4a1.63,1.63,0,0,0,1.65-1.68c0-.82,0-1.64,0-2.46A1.76,1.76,0,0,0,144.66,86.15Zm0,4.95c-.63,0-1.26,0-1.89,0h0c-.6,0-1.19,0-1.79,0s-.76-.18-.76-.77v-2.4a.66.66,0,0,1,.74-.75h3.65a.65.65,0,0,1,.74.72c0,.83,0,1.66,0,2.5C145.34,90.93,145.2,91.09,144.66,91.1Z"/><path class="cls-1" d="M173.73,89.7a.36.36,0,0,0,0,.11c0,.27,0,.55,0,.82a.53.53,0,0,1-.56.58c-.3,0-.61,0-.91,0s-.6-.2-.6-.64c0-.86,0-1.73,0-2.6a1.53,1.53,0,0,0-1.34-1.64,5.31,5.31,0,0,0-1.64,0,1.52,1.52,0,0,0-1.3,1.61v4.27h1.1V88c0-.51.16-.66.67-.67.25,0,.5,0,.74,0,.51,0,.67.16.67.67,0,.86,0,1.73,0,2.6a1.53,1.53,0,0,0,1.37,1.61,5.75,5.75,0,0,0,1.31,0,1.65,1.65,0,0,0,1.58-1.92.33.33,0,0,0-.11-.25C174.35,89.92,174,89.82,173.73,89.7Z"/><path class="cls-1" d="M196.69,91.2c-1.61,0-3.22,0-4.83,0-.55,0-.7-.16-.7-.71,0-.79,0-1.57,0-2.36s.18-.83.84-.83h4.4c.79,0,.69.14.71-.72,0-.23-.08-.31-.31-.31-.85,0-1.7,0-2.54,0h-2.54a1.7,1.7,0,0,0-1.66,1.62c0,.91,0,1.82,0,2.73a1.39,1.39,0,0,0,.77,1.33,2.84,2.84,0,0,0,1.09.28c1.51,0,3,0,4.54,0,.65,0,.63,0,.65-.64C197.12,91.28,197,91.2,196.69,91.2Z"/><path class="cls-1" d="M181.1,86.69c0-.13,0-.26,0-.4h-1v.39c0,1.29,0,2.57,0,3.85,0,.49-.18.67-.67.68h-.65c-.61,0-.77-.16-.78-.78,0-.86,0-1.71,0-2.57a1.45,1.45,0,0,0-1.24-1.51,6,6,0,0,0-1.8,0,1.48,1.48,0,0,0-1.21,1.37c0,.3,0,.61,0,.91a.35.35,0,0,0,.13.23c.29.12.59.21.94.33v-.42c0-.29,0-.58,0-.88s.19-.58.61-.59q.4,0,.81,0c.51,0,.68.17.68.67,0,.89,0,1.78,0,2.67a1.52,1.52,0,0,0,1.24,1.52,6.32,6.32,0,0,0,1.44.06,1.62,1.62,0,0,0,1.57-1.76C181.06,89.21,181.1,88,181.1,86.69Z"/><path class="cls-1" d="M152.84,87.31h4.26c.9,0,.9,0,.84-.92,0,0,0,0,0-.08l-.08,0c-1.78,0-3.56,0-5.34,0a1.65,1.65,0,0,0-1.56,1.64c0,.89,0,1.78,0,2.67a2.12,2.12,0,0,0,.05.5,1.71,1.71,0,0,0,1.76,1.15h4.84l.33,0v-1H152.8c-.65,0-.81-.16-.81-.79V88.16C152,87.51,152.2,87.31,152.84,87.31Z"/><path class="cls-1" d="M198,87.29l.39,0c.71,0,1.42,0,2.13,0,.34,0,.42.11.41.42,0,1,0,2,0,3,0,.41,0,.81,0,1.22a.35.35,0,0,0,.19.26,8.32,8.32,0,0,0,.87,0v-5h2.95v-1H198Z"/><path class="cls-1" d="M132,86.15c-.78,0-.68-.17-.7.73,0,.23.07.31.31.31.76,0,1.51,0,2.27,0,.28,0,.36.08.36.36,0,1.39,0,2.77,0,4.16v.4h1.06V87.9c0-.71,0-.71.71-.71h2.24v-1h-.43C135.87,86.15,133.93,86.14,132,86.15Z"/><path class="cls-1" d="M110.53,86.36c0-.08-.12-.19-.19-.2-.28,0-.56,0-.86,0v6a4.92,4.92,0,0,1,.67,0c.31,0,.4-.1.39-.4,0-1.71,0-3.42,0-5.13A.64.64,0,0,0,110.53,86.36Z"/><path class="cls-1" d="M212.47,61a.72.72,0,0,0,.36-.8c0-.32-.2-.6-.51-.63-.65-.08-1.29-.08-1.95-.11v3.14h.35c0-.39,0-.76,0-1.12,0-.09.07-.24.13-.26a1,1,0,0,1,1.09.34c.18.26.36.52.52.79s.29.33.63.23l-1-1.41A2.1,2.1,0,0,0,212.47,61Zm-1.59-.13c-.35-.13-.1-.57-.16-.87s.09-.23.25-.22h.47a3.25,3.25,0,0,1,.54,0,.5.5,0,0,1,.49.5.48.48,0,0,1-.43.55A2.85,2.85,0,0,1,210.88,60.91Z"/></svg>