<svg id="Layer_1" data-name="Layer 1" xmlns="http://www.w3.org/2000/svg" viewBox="0 0 300 150"><defs><style>.cls-1{fill:#1f8a50;}.cls-2{fill:#138c4b;fill-rule:evenodd;}</style></defs><path class="cls-1" d="M113.31,74.92h-5.38a3.64,3.64,0,0,0,.37,1.65,2.72,2.72,0,0,0,1,1.08,2.61,2.61,0,0,0,1.34.36,3.28,3.28,0,0,0,.91-.12,2.66,2.66,0,0,0,.79-.36A5.35,5.35,0,0,0,113,77c.22-.19.5-.44.84-.76a.9.9,0,0,1,.6-.19,1,1,0,0,1,.69.24.83.83,0,0,1,.26.65,1.82,1.82,0,0,1-.29.87,3.41,3.41,0,0,1-.89,1,4.84,4.84,0,0,1-1.47.76,6.46,6.46,0,0,1-2.05.3,5.47,5.47,0,0,1-4.12-1.51,5.63,5.63,0,0,1-1.47-4.1,6.91,6.91,0,0,1,.36-2.26,5,5,0,0,1,1.06-1.78A4.43,4.43,0,0,1,108.25,69a6,6,0,0,1,2.25-.4,5.29,5.29,0,0,1,2.77.68A4.43,4.43,0,0,1,115,71.07a4.65,4.65,0,0,1,.57,2.19,1.4,1.4,0,0,1-.59,1.35,3.79,3.79,0,0,1-1.67.31Zm-5.38-1.57h5a3.36,3.36,0,0,0-.76-2.11,2.3,2.3,0,0,0-1.74-.7,2.2,2.2,0,0,0-1.68.71,3.51,3.51,0,0,0-.8,2.1Z"/><path class="cls-1" d="M119.08,75.86v2.29a1.75,1.75,0,0,1-.39,1.25,1.3,1.3,0,0,1-1,.42,1.25,1.25,0,0,1-1-.42,1.78,1.78,0,0,1-.38-1.25V70.5c0-1.23.44-1.85,1.33-1.85a1.11,1.11,0,0,1,1,.43,2.42,2.42,0,0,1,.33,1.28,4.84,4.84,0,0,1,1-1.28,2.1,2.1,0,0,1,1.39-.43,3.56,3.56,0,0,1,1.68.43,1.29,1.29,0,0,1,.81,1.15,1.16,1.16,0,0,1-1.1,1.16,3.23,3.23,0,0,1-.72-.19,3.55,3.55,0,0,0-1-.18,1.53,1.53,0,0,0-1,.31,2.05,2.05,0,0,0-.6,1,6.36,6.36,0,0,0-.29,1.48c0,.58-.08,1.27-.08,2.1Z"/><path class="cls-1" d="M131.67,78.25V78a6.88,6.88,0,0,1-1.1,1,4,4,0,0,1-1.17.61,4.24,4.24,0,0,1-1.37.2,4,4,0,0,1-1.83-.42,4.12,4.12,0,0,1-1.45-1.19,5.31,5.31,0,0,1-.93-1.82,7.81,7.81,0,0,1-.32-2.26,5.9,5.9,0,0,1,1.26-4,4.18,4.18,0,0,1,3.31-1.44,4.45,4.45,0,0,1,2,.41,5.59,5.59,0,0,1,1.6,1.25v-4A2.08,2.08,0,0,1,132,65a1.16,1.16,0,0,1,1-.44,1.23,1.23,0,0,1,1,.4,1.81,1.81,0,0,1,.33,1.17V78.25a1.68,1.68,0,0,1-.36,1.18,1.21,1.21,0,0,1-.94.39,1.19,1.19,0,0,1-.93-.41,1.68,1.68,0,0,1-.36-1.16Zm-5.41-4a4.71,4.71,0,0,0,.35,1.9,2.64,2.64,0,0,0,1,1.18,2.3,2.3,0,0,0,1.32.4,2.45,2.45,0,0,0,1.32-.38,2.58,2.58,0,0,0,1-1.15,4.86,4.86,0,0,0,.35-2,4.72,4.72,0,0,0-.35-1.89,2.79,2.79,0,0,0-1-1.2,2.28,2.28,0,0,0-1.33-.42,2.24,2.24,0,0,0-1.35.43,2.77,2.77,0,0,0-.92,1.22,4.9,4.9,0,0,0-.33,1.86Z"/><path class="cls-1" d="M143.16,74.92h-5.38a3.78,3.78,0,0,0,.38,1.65,2.64,2.64,0,0,0,1,1.08,2.56,2.56,0,0,0,1.34.36,3.16,3.16,0,0,0,.9-.12,2.45,2.45,0,0,0,.79-.36,5.46,5.46,0,0,0,.71-.53l.84-.76a.9.9,0,0,1,.6-.19,1,1,0,0,1,.69.24.83.83,0,0,1,.26.65,1.74,1.74,0,0,1-.3.87,3.22,3.22,0,0,1-.88,1,4.78,4.78,0,0,1-1.48.76,6.41,6.41,0,0,1-2.05.3,5.46,5.46,0,0,1-4.11-1.51,5.63,5.63,0,0,1-1.47-4.1,6.91,6.91,0,0,1,.36-2.26,4.82,4.82,0,0,1,1.06-1.78A4.43,4.43,0,0,1,138.11,69a6,6,0,0,1,2.25-.4,5.23,5.23,0,0,1,2.76.68,4.37,4.37,0,0,1,1.73,1.76,4.55,4.55,0,0,1,.58,2.19,1.38,1.38,0,0,1-.6,1.35,3.73,3.73,0,0,1-1.67.31Zm-5.38-1.57h5a3.36,3.36,0,0,0-.76-2.11,2.3,2.3,0,0,0-1.74-.7,2.21,2.21,0,0,0-1.69.71,3.58,3.58,0,0,0-.8,2.1Z"/><path d="M151.74,77.35,149.37,68V78.13A1.85,1.85,0,0,1,149,79.4a1.38,1.38,0,0,1-2,0,1.84,1.84,0,0,1-.38-1.27V66.45a1.48,1.48,0,0,1,.5-1.3,2.38,2.38,0,0,1,1.36-.34h.93a3.59,3.59,0,0,1,1.21.15,1,1,0,0,1,.56.55,9.07,9.07,0,0,1,.41,1.27l2.14,8.09,2.15-8.09a7.9,7.9,0,0,1,.41-1.27,1,1,0,0,1,.56-.55,3.52,3.52,0,0,1,1.21-.15H159a2.4,2.4,0,0,1,1.37.34,1.48,1.48,0,0,1,.5,1.3V78.13a1.85,1.85,0,0,1-.38,1.27,1.29,1.29,0,0,1-1,.42,1.25,1.25,0,0,1-1-.42,1.8,1.8,0,0,1-.39-1.27V68l-2.36,9.4c-.16.61-.28,1.06-.38,1.34a1.84,1.84,0,0,1-.54.78,1.54,1.54,0,0,1-1.09.35,1.62,1.62,0,0,1-.88-.22,1.75,1.75,0,0,1-.57-.58,3.34,3.34,0,0,1-.31-.78c-.08-.29-.16-.58-.24-.89Z"/><path d="M176.31,66.13v4.2a6.4,6.4,0,0,1,1.58-1.23,4.15,4.15,0,0,1,2-.43,4.37,4.37,0,0,1,2.41.65,4.22,4.22,0,0,1,1.59,1.88,6.78,6.78,0,0,1,.58,2.93,7.8,7.8,0,0,1-.32,2.28,5.42,5.42,0,0,1-.92,1.81,4.09,4.09,0,0,1-1.47,1.18,4.27,4.27,0,0,1-1.9.42,4.56,4.56,0,0,1-1.19-.15,3.31,3.31,0,0,1-.95-.4,4.17,4.17,0,0,1-.67-.5c-.18-.18-.43-.44-.73-.79v.27a1.67,1.67,0,0,1-.37,1.18,1.27,1.27,0,0,1-.95.39,1.18,1.18,0,0,1-.93-.39,1.77,1.77,0,0,1-.35-1.18v-12a2,2,0,0,1,.34-1.26,1.13,1.13,0,0,1,.94-.43,1.22,1.22,0,0,1,1,.41,1.75,1.75,0,0,1,.34,1.16Zm.13,8.17a3.79,3.79,0,0,0,.75,2.52,2.44,2.44,0,0,0,2,.88,2.25,2.25,0,0,0,1.78-.9,3.93,3.93,0,0,0,.75-2.58,5,5,0,0,0-.31-1.87,2.72,2.72,0,0,0-.88-1.21,2.17,2.17,0,0,0-1.34-.43,2.35,2.35,0,0,0-1.4.43,2.83,2.83,0,0,0-1,1.23,4.93,4.93,0,0,0-.35,1.93Z"/><path d="M187.15,67.37a1.47,1.47,0,0,1-1-.35,1.26,1.26,0,0,1-.4-1,1.25,1.25,0,0,1,.41-1,1.38,1.38,0,0,1,1-.38,1.44,1.44,0,0,1,.95.34,1.23,1.23,0,0,1,.41,1,1.25,1.25,0,0,1-.4,1,1.4,1.4,0,0,1-1,.36Z"/><path d="M188.51,70.21v7.94a1.78,1.78,0,0,1-.39,1.25,1.29,1.29,0,0,1-1,.42,1.22,1.22,0,0,1-1-.43,1.79,1.79,0,0,1-.38-1.24V70.29a1.71,1.71,0,0,1,.38-1.23,1.23,1.23,0,0,1,1-.41,1.28,1.28,0,0,1,1,.41,1.6,1.6,0,0,1,.39,1.15Z"/><path d="M190,78.15V66.23a1.85,1.85,0,0,1,.37-1.24,1.21,1.21,0,0,1,1-.43,1.28,1.28,0,0,1,1,.42,1.78,1.78,0,0,1,.38,1.25V78.15a1.8,1.8,0,0,1-.38,1.25,1.31,1.31,0,0,1-1,.42,1.23,1.23,0,0,1-1-.43,1.84,1.84,0,0,1-.38-1.24Z"/><path d="M195.52,67.37a1.47,1.47,0,0,1-1-.35,1.26,1.26,0,0,1-.4-1,1.21,1.21,0,0,1,.41-1,1.37,1.37,0,0,1,1-.38,1.44,1.44,0,0,1,.95.34,1.23,1.23,0,0,1,.41,1,1.29,1.29,0,0,1-.4,1,1.4,1.4,0,0,1-1,.36Z"/><path d="M196.88,70.21v7.94a1.78,1.78,0,0,1-.39,1.25,1.3,1.3,0,0,1-1,.42,1.23,1.23,0,0,1-1-.43,1.84,1.84,0,0,1-.37-1.24V70.29a1.76,1.76,0,0,1,.37-1.23,1.25,1.25,0,0,1,1-.41,1.29,1.29,0,0,1,1,.41,1.6,1.6,0,0,1,.39,1.15Z"/><path d="M199,68.89h.3V67.24a9.51,9.51,0,0,1,0-1,1.6,1.6,0,0,1,.19-.65,1.22,1.22,0,0,1,.47-.46,1.27,1.27,0,0,1,.67-.18,1.35,1.35,0,0,1,.94.4A1.11,1.11,0,0,1,202,66,5.75,5.75,0,0,1,202,67v1.87h1a1.3,1.3,0,0,1,.89.28.89.89,0,0,1,.31.71.78.78,0,0,1-.44.77,2.8,2.8,0,0,1-1.25.22H202v5.06a8.41,8.41,0,0,0,0,1,1,1,0,0,0,.24.56.83.83,0,0,0,.64.22,3.36,3.36,0,0,0,.66-.09,3.91,3.91,0,0,1,.64-.08.83.83,0,0,1,.6.27.87.87,0,0,1,.27.66,1.09,1.09,0,0,1-.73,1,4.78,4.78,0,0,1-2.08.35,3.57,3.57,0,0,1-1.95-.43,2,2,0,0,1-.87-1.2,8,8,0,0,1-.21-2V70.87h-.36a1.26,1.26,0,0,1-.9-.28.9.9,0,0,1-.32-.71.88.88,0,0,1,.33-.71,1.47,1.47,0,0,1,.95-.28Z"/><path d="M208.27,80.17l.25-.61L205.14,71a3.2,3.2,0,0,1-.31-1.07,1.26,1.26,0,0,1,.18-.66,1.28,1.28,0,0,1,.5-.48,1.3,1.3,0,0,1,.65-.18,1.08,1.08,0,0,1,.9.37,3.57,3.57,0,0,1,.53,1.09l2.33,6.76,2.2-6.29a12.3,12.3,0,0,1,.48-1.2,1.43,1.43,0,0,1,.44-.58,1.28,1.28,0,0,1,.67-.15,1.17,1.17,0,0,1,.6.16,1.29,1.29,0,0,1,.45.45,1.27,1.27,0,0,1,.15.6c0,.12-.07.31-.13.54a7.17,7.17,0,0,1-.22.71L211,80.5a11.38,11.38,0,0,1-.91,2,3,3,0,0,1-1.17,1.08,4.34,4.34,0,0,1-2,.38,4.88,4.88,0,0,1-1.81-.26,1,1,0,0,1-.61-1,.93.93,0,0,1,.29-.73,1.25,1.25,0,0,1,.85-.26,1.54,1.54,0,0,1,.43.06,2.15,2.15,0,0,0,.46.06,1.55,1.55,0,0,0,.74-.14,1.31,1.31,0,0,0,.49-.48,9.18,9.18,0,0,0,.5-1Z"/><path d="M172.81,74.24a6.58,6.58,0,0,1-.38,2.26,5.07,5.07,0,0,1-1.11,1.78,4.94,4.94,0,0,1-1.74,1.15,6.19,6.19,0,0,1-2.26.39,5.94,5.94,0,0,1-2.25-.4,4.9,4.9,0,0,1-2.83-2.92,6.58,6.58,0,0,1-.38-2.26,6.67,6.67,0,0,1,.38-2.29,5,5,0,0,1,1.1-1.77,4.77,4.77,0,0,1,1.73-1.13,6.56,6.56,0,0,1,4.51,0,5,5,0,0,1,1.75,1.15,5,5,0,0,1,1.1,1.77,6.59,6.59,0,0,1,.38,2.27Zm-2.77,0a4.16,4.16,0,0,0-.73-2.62,2.42,2.42,0,0,0-2-.93,2.52,2.52,0,0,0-1.42.41,2.69,2.69,0,0,0-1,1.24,5,5,0,0,0-.33,1.9,4.9,4.9,0,0,0,.33,1.88,2.77,2.77,0,0,0,.93,1.24,2.49,2.49,0,0,0,1.44.42,2.41,2.41,0,0,0,2-.94,4.1,4.1,0,0,0,.73-2.6Z"/><path d="M102.62,82.87a1.09,1.09,0,0,1,.21-.77,1,1,0,0,1,.73-.22h.33a1.08,1.08,0,0,1,.73.19.8.8,0,0,1,.21.63v.13h-.32v-.08a.63.63,0,0,0-.13-.45.79.79,0,0,0-.51-.12h-.22a1.64,1.64,0,0,0-.37,0,.64.64,0,0,0-.2.11.39.39,0,0,0-.1.19,1.5,1.5,0,0,0,0,.44v.81a1.5,1.5,0,0,0,0,.44.39.39,0,0,0,.1.19.72.72,0,0,0,.19.11,1.68,1.68,0,0,0,.38,0h.22a.71.71,0,0,0,.51-.13.64.64,0,0,0,.13-.48v-.14h.32V84a.87.87,0,0,1-.21.67,1.1,1.1,0,0,1-.73.19h-.33a1,1,0,0,1-.73-.22,1.09,1.09,0,0,1-.21-.77v-1Z"/><polygon points="107.35 84.79 107.35 81.92 107.66 81.92 107.66 83.16 109.28 83.16 109.28 81.92 109.58 81.92 109.58 84.79 109.28 84.79 109.28 83.46 107.66 83.46 107.66 84.79 107.35 84.79 107.35 84.79"/><path d="M112.65,83.77h1.22l-.56-1.55h-.1l-.56,1.55Zm-.69,1,1-2.87h.51l1,2.87h-.32l-.27-.73h-1.42l-.27.73Z"/><path d="M118.14,82.22h-.9v1.15h.9a.81.81,0,0,0,.46-.09.4.4,0,0,0,.1-.32v-.33a.4.4,0,0,0-.1-.32.77.77,0,0,0-.46-.09Zm-1.21,2.57V81.92h1.27a1.14,1.14,0,0,1,.65.14.63.63,0,0,1,.18.51V83a.58.58,0,0,1-.09.35.38.38,0,0,1-.27.16.47.47,0,0,1,.28.18.8.8,0,0,1,.08.4v.69h-.33V84.2a.68.68,0,0,0-.09-.42.49.49,0,0,0-.37-.11h-1v1.12Z"/><path d="M121.52,82.87a1,1,0,0,1,.22-.77,1.1,1.1,0,0,1,.79-.22h.36a1.29,1.29,0,0,1,.76.18.65.65,0,0,1,.25.57v.12h-.32v0a.49.49,0,0,0-.15-.41.93.93,0,0,0-.56-.12h-.25a1.94,1.94,0,0,0-.41,0,.65.65,0,0,0-.22.11.43.43,0,0,0-.11.2,2,2,0,0,0,0,.43v.82a2,2,0,0,0,0,.42.36.36,0,0,0,.11.19.43.43,0,0,0,.21.11,1.47,1.47,0,0,0,.42,0h.25a1.62,1.62,0,0,0,.38,0,.44.44,0,0,0,.19-.1.33.33,0,0,0,.11-.18,1.79,1.79,0,0,0,0-.39v-.18h-.78v-.29h1.1v.48a1,1,0,0,1-.22.77,1.1,1.1,0,0,1-.79.22h-.36a1.1,1.1,0,0,1-.79-.22,1,1,0,0,1-.22-.77v-1Z"/><polygon points="126.46 84.79 126.46 81.92 126.77 81.92 126.77 84.79 126.46 84.79 126.46 84.79"/><polygon points="129.45 84.79 129.45 81.92 129.93 81.92 131.45 84.48 131.45 81.92 131.76 81.92 131.76 84.79 131.28 84.79 129.76 82.22 129.76 84.79 129.45 84.79 129.45 84.79"/><path d="M134.33,82.87a1.09,1.09,0,0,1,.22-.77,1.11,1.11,0,0,1,.79-.22h.36a1.33,1.33,0,0,1,.77.18.67.67,0,0,1,.24.57v.12h-.32v0a.49.49,0,0,0-.15-.41.91.91,0,0,0-.56-.12h-.25a1.94,1.94,0,0,0-.41,0,.65.65,0,0,0-.22.11.43.43,0,0,0-.11.2,2,2,0,0,0,0,.43v.82a2,2,0,0,0,0,.42.36.36,0,0,0,.11.19.43.43,0,0,0,.21.11,1.47,1.47,0,0,0,.42,0h.25a1.62,1.62,0,0,0,.38,0,.44.44,0,0,0,.19-.1.33.33,0,0,0,.11-.18,1.79,1.79,0,0,0,0-.39v-.18h-.78v-.29h1.1v.48a1,1,0,0,1-.22.77,1.1,1.1,0,0,1-.79.22h-.36a1.11,1.11,0,0,1-.79-.22,1.09,1.09,0,0,1-.22-.77v-1Z"/><polygon points="141.88 84.79 141.88 81.92 142.19 81.92 142.19 84.79 141.88 84.79 141.88 84.79"/><polygon points="144.87 84.79 144.87 81.92 145.35 81.92 146.87 84.48 146.87 81.92 147.18 81.92 147.18 84.79 146.7 84.79 145.18 82.22 145.18 84.79 144.87 84.79 144.87 84.79"/><polygon points="149.48 82.22 149.48 81.92 151.58 81.92 151.58 82.22 150.68 82.22 150.68 84.79 150.37 84.79 150.37 82.22 149.48 82.22 149.48 82.22"/><path d="M155.06,82.18h-.17a2,2,0,0,0-.42,0,.7.7,0,0,0-.21.11.37.37,0,0,0-.12.2,2.17,2.17,0,0,0,0,.43v.81a2,2,0,0,0,0,.43.35.35,0,0,0,.12.19.43.43,0,0,0,.21.11,1.39,1.39,0,0,0,.42,0h.17a1.39,1.39,0,0,0,.42,0,.43.43,0,0,0,.21-.11.31.31,0,0,0,.12-.19,2,2,0,0,0,0-.43V83a2,2,0,0,0,0-.43.45.45,0,0,0-.12-.2.7.7,0,0,0-.21-.11,2,2,0,0,0-.42,0Zm-1.27.69a1,1,0,0,1,.22-.77,1.1,1.1,0,0,1,.79-.22h.35a1.13,1.13,0,0,1,.8.22,1.09,1.09,0,0,1,.22.77v1a1,1,0,0,1-.23.77,1.1,1.1,0,0,1-.79.22h-.35a1.1,1.1,0,0,1-.79-.22,1,1,0,0,1-.22-.77v-1Z"/><polygon points="160.98 82.22 160.98 81.92 163.08 81.92 163.08 82.22 162.18 82.22 162.18 84.79 161.87 84.79 161.87 82.22 160.98 82.22 160.98 82.22"/><polygon points="165.37 84.79 165.37 81.92 165.68 81.92 165.68 83.16 167.3 83.16 167.3 81.92 167.61 81.92 167.61 84.79 167.3 84.79 167.3 83.46 165.68 83.46 165.68 84.79 165.37 84.79 165.37 84.79"/><polygon points="170.29 84.79 170.29 81.92 172.26 81.92 172.26 82.22 170.6 82.22 170.6 83.16 172.21 83.16 172.21 83.45 170.6 83.45 170.6 84.49 172.26 84.49 172.26 84.79 170.29 84.79 170.29 84.79"/><polygon points="177.36 84.79 177.36 81.92 179.12 81.92 179.12 82.22 177.67 82.22 177.67 83.16 179.07 83.16 179.07 83.45 177.67 83.45 177.67 84.79 177.36 84.79 177.36 84.79"/><path d="M181.62,81.92h.32V83.8a1.67,1.67,0,0,0,0,.39.29.29,0,0,0,.1.18.4.4,0,0,0,.18.1,1.48,1.48,0,0,0,.36,0h.29a1.58,1.58,0,0,0,.37,0,.4.4,0,0,0,.18-.1.39.39,0,0,0,.1-.18,3,3,0,0,0,0-.39V81.92h.32v1.92a.82.82,0,0,1-1,1h-.33a.82.82,0,0,1-1-1V81.92Z"/><polygon points="186.15 82.22 186.15 81.92 188.26 81.92 188.26 82.22 187.36 82.22 187.36 84.79 187.05 84.79 187.05 82.22 186.15 82.22 186.15 82.22"/><path d="M190.52,81.92h.32V83.8a3,3,0,0,0,0,.39.37.37,0,0,0,.11.18.4.4,0,0,0,.18.1,1.48,1.48,0,0,0,.36,0h.29a1.58,1.58,0,0,0,.37,0,.4.4,0,0,0,.18-.1.39.39,0,0,0,.1-.18,3,3,0,0,0,0-.39V81.92h.32v1.92a.82.82,0,0,1-1,1h-.34a.82.82,0,0,1-1-1V81.92Z"/><path d="M196.64,82.22h-.89v1.15h.89a.77.77,0,0,0,.46-.09.4.4,0,0,0,.11-.32v-.33a.37.37,0,0,0-.11-.32.75.75,0,0,0-.46-.09Zm-1.2,2.57V81.92h1.26a1.15,1.15,0,0,1,.66.14.66.66,0,0,1,.17.51V83a.58.58,0,0,1-.09.35.38.38,0,0,1-.27.16.42.42,0,0,1,.28.18.7.7,0,0,1,.08.4v.69h-.32V84.2a.61.61,0,0,0-.1-.42.48.48,0,0,0-.37-.11h-1v1.12Z"/><polygon points="200.13 84.79 200.13 81.92 202.1 81.92 202.1 82.22 200.44 82.22 200.44 83.16 202.06 83.16 202.06 83.45 200.44 83.45 200.44 84.49 202.1 84.49 202.1 84.79 200.13 84.79 200.13 84.79"/><path class="cls-2" d="M109.17,66.51c-5.72,2.3-7.31,10.79-10.13,16.31-.91,1.79-1.79,2.62-3.31,2.62a3,3,0,0,1-2.38-1.29L85.82,71.64c-3.92-6.51,8.88-7.94,16.44-6.36-2.24,1-3.91,2.69-6.18,9.14a1,1,0,0,1-.91.68,1,1,0,0,1-1-.55l-2.18-4a7.52,7.52,0,0,0-.79-1.25,1.1,1.1,0,0,0-1-.25,1.38,1.38,0,0,0-.64.29,1.44,1.44,0,0,0-.41.54,1.14,1.14,0,0,0-.08.6,1.63,1.63,0,0,0,.14.43,4.16,4.16,0,0,0,.24.47l.27.47L93.41,78c.37.59.63,1,.77,1.19a1.87,1.87,0,0,0,.62.51,1.52,1.52,0,0,0,1,.12,1.69,1.69,0,0,0,.76-.3A1.64,1.64,0,0,0,97,79c4.12-8.46,3.76-13.26,12.15-12.45Z"/></svg>