<svg id="Layer_1" data-name="Layer 1" xmlns="http://www.w3.org/2000/svg" viewBox="0 0 300 150"><defs><style>.cls-1,.cls-2{fill:#008082;}.cls-1{fill-rule:evenodd;}</style></defs><path class="cls-1" d="M100.76,90.67A15.67,15.67,0,1,0,85.09,75a15.67,15.67,0,0,0,15.67,15.67ZM88.91,85.26c2.31-1.33,10.28-7.73,14.32-13.38-1.26-1.4-7.4-5.78-10.82-5.38a11.45,11.45,0,0,1,7.06.15c2.58.76,3.63,2,5.47,2.88,2.75-3.56,2.46-6.25-1.67-7.54,19.5-1.5-7.48,20.18-13.44,24l-.16.09C89.41,85.81,89.16,85.54,88.91,85.26Z"/><path class="cls-1" d="M201.22,81.25V61.78H208A6.29,6.29,0,0,1,212,62.92a4.77,4.77,0,0,1,1.63,3.75,7.4,7.4,0,0,1-.57,3.1,3.72,3.72,0,0,1-1.94,1.84,3.68,3.68,0,0,1,1.7.9,2.14,2.14,0,0,1,.61,1.55l.2,4.74a2.72,2.72,0,0,0,.27,1.46.71.71,0,0,0,.55.38v.61h-4.15a1.74,1.74,0,0,1-1.17-.27,2.29,2.29,0,0,1-.26-1.36V75.55a2.26,2.26,0,0,0-.38-1.43,1.77,1.77,0,0,0-1.43-.47h-1.08v7.6Zm4.71-11H207a1.74,1.74,0,0,0,1.24-.55,2.46,2.46,0,0,0,.57-1.81v-.56c-.2-1.13-.54-1.79-1-2a5.22,5.22,0,0,0-1.85-.28V70.2Zm-19.51,11,4.47-19.47h5.35l4.36,19.47h-4.77l-.61-3.86h-3.51l-.61,3.86Zm5.7-7.39h2.49l-1.2-8.63-1.29,8.63Zm-20.64,7.39L176,61.78h5.35l4.36,19.47h-4.77l-.61-3.86h-3.51l-.61,3.86Zm5.7-7.39h2.49l-1.2-8.63-1.29,8.63Zm-10.61,5.76c-.08.56-.55,1.06-1.4,1.49a6.27,6.27,0,0,1-2.84.64H162a5,5,0,0,1-3.07-1.32c-.94-.81-1.4-2.24-1.4-4.26v-9.5A5.51,5.51,0,0,1,159,62.59q1.45-1.48,4.73-1.48a6.81,6.81,0,0,1,4.54,1.39,5.16,5.16,0,0,1,1.63,4.17v1.69h-4.76V65.85a.93.93,0,0,0-.44-.85,1.79,1.79,0,0,0-1-.26h-.14a2.28,2.28,0,0,0-1.07.39,1.07,1.07,0,0,0-.48.92V76.58a1.57,1.57,0,0,0,.48,1.22,1.8,1.8,0,0,0,1.07.5h.35a1.9,1.9,0,0,0,1-.48,1.3,1.3,0,0,0,.44-1V74.27h-1.61V70.79h6.17V81.25h-3.13l-.2-1.63Zm-20.31,1.63V61.78h4.67V77.39h5.56v3.86Zm-15.19,0,4.48-19.47h5.35l4.35,19.47h-4.76l-.62-3.86h-3.51l-.61,3.86Zm5.7-7.39h2.49l-1.2-8.63-1.29,8.63Zm-12.22,7.39h4.73V72.63L134,61.78h-4.53L127,67.89l-2.48-6.11h-4.71l4.71,10.85Z"/><path class="cls-1" d="M125.09,87.31h1.38l-.69-2.71-.69,2.71Zm-1.09,2,1.41-5.16h.74l1.43,5.16H127l-.39-1.49H125l-.37,1.49Z"/><path class="cls-1" d="M130.41,86.53h.7a1.35,1.35,0,0,0,.89-.24,1.06,1.06,0,0,0,0-1.41,1.22,1.22,0,0,0-.82-.22h-.81v1.87Zm-.56,2.79V84.16h1.45a1.82,1.82,0,0,1,1.19.32,1.23,1.23,0,0,1,.39,1,1.32,1.32,0,0,1-.24.83,1.24,1.24,0,0,1-.72.44.89.89,0,0,1,.64.27,1.23,1.23,0,0,1,.26.75c0,.13,0,.3,0,.52,0,.57.13.91.27,1h-.71a2.22,2.22,0,0,1-.14-.84c0-.22,0-.4,0-.53a1.08,1.08,0,0,0-.28-.73,1.3,1.3,0,0,0-.82-.19h-.74v2.29Z"/><path class="cls-1" d="M134.14,87h1.31v-.11a1.7,1.7,0,0,0-.15-.8.51.51,0,0,0-.47-.27.54.54,0,0,0-.52.29,1.73,1.73,0,0,0-.17.89Zm1.32,1H136a1.59,1.59,0,0,1-.32,1,1.07,1.07,0,0,1-.87.36,1,1,0,0,1-.92-.48,3,3,0,0,1-.3-1.51,3.2,3.2,0,0,1,.3-1.58,1.13,1.13,0,0,1,1.83-.07,2.34,2.34,0,0,1,.29,1.3v.2a.53.53,0,0,1,0,.13h-1.85v.17a2.32,2.32,0,0,0,.17,1,.56.56,0,0,0,.53.33.51.51,0,0,0,.45-.25,1.2,1.2,0,0,0,.17-.68Z"/><path class="cls-1" d="M138.37,87.24a1.58,1.58,0,0,1-.56.3l-.06,0a1,1,0,0,0-.49.29.91.91,0,0,0-.11.49.69.69,0,0,0,.13.45.43.43,0,0,0,.35.15.64.64,0,0,0,.54-.25,1.11,1.11,0,0,0,.2-.69v-.76Zm.85,2.09-.17,0h-.14a.49.49,0,0,1-.36-.14.58.58,0,0,1-.14-.41,1,1,0,0,1-.92.61.81.81,0,0,1-.65-.28,1.49,1.49,0,0,1,0-1.56,2.25,2.25,0,0,1,.94-.5h0c.39-.13.59-.29.59-.47v-.35a.44.44,0,0,0-.14-.35.69.69,0,0,0-.43-.11.52.52,0,0,0-.43.16.6.6,0,0,0-.14.46v.06h-.51a1.23,1.23,0,0,1,.28-.86,1.18,1.18,0,0,1,.86-.27.91.91,0,0,1,1.06,1v2.26a.3.3,0,0,0,.05.21.2.2,0,0,0,.18.07h.08Z"/><rect class="cls-2" x="139.77" y="84.16" width="0.54" height="5.17"/><rect class="cls-2" x="141.01" y="87.09" width="1.66" height="0.6"/><path class="cls-1" d="M144,88.52a.42.42,0,0,0,.09.32.67.67,0,0,0,.41.08h.12v.47h-.4a.83.83,0,0,1-.57-.16.53.53,0,0,1-.19-.45V85.91h-.54v-.45h.54v-1H144v1h.63v.45H144Z"/><path class="cls-1" d="M145.07,84.86v-.7h.56v.7Zm0,4.46V85.46h.56v3.86Z"/><path class="cls-1" d="M146.45,89.32V85.46h.5v.47a1,1,0,0,1,.41-.42,1.31,1.31,0,0,1,.61-.14,1,1,0,0,1,.53.14.76.76,0,0,1,.3.42,1.21,1.21,0,0,1,.42-.42,1.18,1.18,0,0,1,.58-.14,1,1,0,0,1,.72.25.91.91,0,0,1,.25.7v3h-.56V86.65a1.15,1.15,0,0,0-.12-.63.49.49,0,0,0-.42-.17.73.73,0,0,0-.56.22.75.75,0,0,0-.22.56v2.69h-.56V86.63a1,1,0,0,0-.13-.6.49.49,0,0,0-.43-.18.8.8,0,0,0-.57.21.72.72,0,0,0-.22.55v2.71Z"/><path class="cls-1" d="M152,87h1.31v-.11a1.7,1.7,0,0,0-.15-.8.51.51,0,0,0-.47-.27.55.55,0,0,0-.52.29A1.84,1.84,0,0,0,152,87Zm1.32,1h.53a1.59,1.59,0,0,1-.31,1,1.1,1.1,0,0,1-.88.36,1,1,0,0,1-.92-.48,3,3,0,0,1-.29-1.51,3.21,3.21,0,0,1,.29-1.58,1,1,0,0,1,.94-.5,1,1,0,0,1,.89.43,2.25,2.25,0,0,1,.29,1.3v.33H152v.17a2.47,2.47,0,0,0,.17,1,.56.56,0,0,0,.53.33.51.51,0,0,0,.45-.25,1.2,1.2,0,0,0,.17-.68Z"/><polygon class="cls-1" points="159.94 89.32 159.94 84.45 158.68 89.32 158.12 89.32 156.91 84.45 156.91 89.32 156.35 89.32 156.35 84.16 157.32 84.16 158.41 88.56 159.54 84.16 160.5 84.16 160.5 89.32 159.94 89.32"/><path class="cls-1" d="M161.82,87h1.32v-.11a1.68,1.68,0,0,0-.16-.8.5.5,0,0,0-.47-.27.56.56,0,0,0-.52.29,1.84,1.84,0,0,0-.17.89Zm1.32,1h.53a1.59,1.59,0,0,1-.31,1,1.1,1.1,0,0,1-.88.36,1,1,0,0,1-.92-.48,3.1,3.1,0,0,1-.29-1.51,3.33,3.33,0,0,1,.29-1.58,1,1,0,0,1,.94-.5,1,1,0,0,1,.89.43,2.25,2.25,0,0,1,.3,1.3,1,1,0,0,1,0,.2v.13h-1.86v.17a2.47,2.47,0,0,0,.17,1,.56.56,0,0,0,.54.33.51.51,0,0,0,.45-.25,1.2,1.2,0,0,0,.16-.68Z"/><path class="cls-1" d="M164.3,88.16h.53v0a.54.54,0,0,0,0,.11.62.62,0,0,0,.18.48.74.74,0,0,0,.52.17.69.69,0,0,0,.49-.17.6.6,0,0,0,.18-.46c0-.3-.23-.54-.7-.7h0a2.1,2.1,0,0,1-.91-.49,1,1,0,0,1-.21-.7,1,1,0,0,1,.3-.79,1.12,1.12,0,0,1,.82-.28,1.19,1.19,0,0,1,.85.27,1.06,1.06,0,0,1,.29.8v.06h-.52A.84.84,0,0,0,166,86a.55.55,0,0,0-.44-.16A.69.69,0,0,0,165,86a.65.65,0,0,0-.11.68.33.33,0,0,0,.12.17,1.86,1.86,0,0,0,.59.26l.36.13a1.25,1.25,0,0,1,.57.39,1.06,1.06,0,0,1,.17.62,1.15,1.15,0,0,1-.34.9,1.33,1.33,0,0,1-.95.31,1.13,1.13,0,0,1-.85-.3,1.18,1.18,0,0,1-.29-.88Z"/><path class="cls-1" d="M167.35,88.16h.53v0a.54.54,0,0,0,0,.11.62.62,0,0,0,.18.48.74.74,0,0,0,.52.17.69.69,0,0,0,.49-.17.6.6,0,0,0,.18-.46c0-.3-.23-.54-.7-.7h0a2,2,0,0,1-.91-.49,1,1,0,0,1-.21-.7,1,1,0,0,1,.3-.79,1.12,1.12,0,0,1,.82-.28,1.19,1.19,0,0,1,.85.27,1.06,1.06,0,0,1,.29.8v.06h-.52A.77.77,0,0,0,169,86a.52.52,0,0,0-.43-.16.69.69,0,0,0-.48.15.65.65,0,0,0-.11.68.33.33,0,0,0,.12.17,1.89,1.89,0,0,0,.58.26l.37.13a1.25,1.25,0,0,1,.57.39,1.06,1.06,0,0,1,.17.62,1.15,1.15,0,0,1-.34.9,1.33,1.33,0,0,1-.95.31,1.13,1.13,0,0,1-.85-.3,1.18,1.18,0,0,1-.29-.88Z"/><path class="cls-1" d="M172.15,87.24a1.58,1.58,0,0,1-.56.3l-.05,0a.87.87,0,0,0-.49.29.82.82,0,0,0-.12.49.69.69,0,0,0,.13.45.43.43,0,0,0,.36.15.63.63,0,0,0,.53-.25,1.05,1.05,0,0,0,.2-.69v-.76Zm.86,2.09-.18,0h-.14a.49.49,0,0,1-.36-.14.63.63,0,0,1-.14-.41.91.91,0,0,1-.36.45,1,1,0,0,1-.56.16.82.82,0,0,1-.65-.28,1.27,1.27,0,0,1-.23-.8,1.21,1.21,0,0,1,.21-.76,2.25,2.25,0,0,1,.94-.5h0c.39-.13.59-.29.59-.47v-.35a.44.44,0,0,0-.14-.35.69.69,0,0,0-.43-.11.53.53,0,0,0-.43.16.65.65,0,0,0-.14.46v.06h-.51a1.23,1.23,0,0,1,.28-.86,1.18,1.18,0,0,1,.86-.27.9.9,0,0,1,1.06,1v2.26a.36.36,0,0,0,.05.21.21.21,0,0,0,.18.07H173Z"/><path class="cls-1" d="M174,87.4a2.77,2.77,0,0,0,.17,1.16.57.57,0,0,0,.55.35.58.58,0,0,0,.57-.36,3.07,3.07,0,0,0,.17-1.2,2.77,2.77,0,0,0-.18-1.16.6.6,0,0,0-.57-.36.55.55,0,0,0-.54.37,2.92,2.92,0,0,0-.17,1.2Zm-.46,2.28h.54a.43.43,0,0,0,.18.35.73.73,0,0,0,.45.12.61.61,0,0,0,.57-.26,1.48,1.48,0,0,0,.18-.83V89s0-.09,0-.12a.79.79,0,0,1-.33.39,1,1,0,0,1-.52.13.93.93,0,0,1-.88-.52,3.27,3.27,0,0,1-.29-1.58,2.72,2.72,0,0,1,.3-1.43,1,1,0,0,1,.91-.48,1,1,0,0,1,.52.14.81.81,0,0,1,.3.4v-.45H176v3.68a1.59,1.59,0,0,1-.34,1.1,1.22,1.22,0,0,1-1,.39,1.25,1.25,0,0,1-.81-.26.85.85,0,0,1-.32-.67Z"/><path class="cls-1" d="M176.82,84.86v-.7h.55v.7Zm0,4.46V85.46h.55v3.86Z"/><path class="cls-1" d="M178.19,89.32V85.46h.51v.48a.92.92,0,0,1,.38-.42,1.2,1.2,0,0,1,.59-.14.86.86,0,0,1,.72.26,1.33,1.33,0,0,1,.22.88v2.8h-.54V86.48a.71.71,0,0,0-.14-.47.5.5,0,0,0-.41-.15.71.71,0,0,0-.57.23.87.87,0,0,0-.21.61v2.62Z"/><path class="cls-1" d="M181.89,87.4a2.94,2.94,0,0,0,.17,1.16.62.62,0,0,0,1.12,0,2.89,2.89,0,0,0,.17-1.2,2.77,2.77,0,0,0-.18-1.16.6.6,0,0,0-.57-.36.55.55,0,0,0-.54.37,3.1,3.1,0,0,0-.17,1.2Zm-.45,2.28H182a.43.43,0,0,0,.18.35.75.75,0,0,0,.45.12.64.64,0,0,0,.58-.26,1.58,1.58,0,0,0,.17-.83v-.2a.87.87,0,0,1-.34.39,1,1,0,0,1-.52.13.94.94,0,0,1-.88-.52,3.39,3.39,0,0,1-.29-1.58,2.72,2.72,0,0,1,.3-1.43,1,1,0,0,1,.91-.48,1,1,0,0,1,.52.14.81.81,0,0,1,.3.4v-.45h.53v3.68a1.6,1.6,0,0,1-.35,1.1,1.21,1.21,0,0,1-1,.39,1.25,1.25,0,0,1-.81-.26.84.84,0,0,1-.31-.67Z"/><polygon class="cls-1" points="186.45 89.32 186.45 84.16 188.83 84.16 188.83 84.68 187.04 84.68 187.04 86.34 188.71 86.34 188.71 86.88 187.04 86.88 187.04 89.32 186.45 89.32"/><path class="cls-1" d="M189.25,89.32V85.46h.5v.63a1.1,1.1,0,0,1,.35-.53.89.89,0,0,1,.54-.19h.14l.09,0V86l-.09,0-.12,0a.82.82,0,0,0-.65.28,1.18,1.18,0,0,0-.23.77v2.36Z"/><path class="cls-1" d="M192.9,87.24a1.58,1.58,0,0,1-.56.3l-.06,0a1,1,0,0,0-.49.29.91.91,0,0,0-.11.49.69.69,0,0,0,.13.45.43.43,0,0,0,.35.15.64.64,0,0,0,.54-.25,1.11,1.11,0,0,0,.2-.69v-.76Zm.85,2.09-.17,0h-.14a.49.49,0,0,1-.36-.14.58.58,0,0,1-.14-.41,1,1,0,0,1-.36.45,1,1,0,0,1-.56.16.81.81,0,0,1-.65-.28,1.49,1.49,0,0,1,0-1.56,2.25,2.25,0,0,1,.94-.5h0c.39-.13.59-.29.59-.47v-.35a.44.44,0,0,0-.14-.35.69.69,0,0,0-.43-.11.52.52,0,0,0-.43.16.6.6,0,0,0-.14.46v.06h-.51a1.23,1.23,0,0,1,.28-.86,1.18,1.18,0,0,1,.86-.27.91.91,0,0,1,1.06,1v2.26a.36.36,0,0,0,.05.21.2.2,0,0,0,.18.07h.08Z"/><path class="cls-1" d="M194.31,89.32V85.46h.5v.47a1,1,0,0,1,.41-.42,1.27,1.27,0,0,1,.6-.14,1,1,0,0,1,.54.14.76.76,0,0,1,.3.42,1.21,1.21,0,0,1,.42-.42,1.18,1.18,0,0,1,.58-.14,1,1,0,0,1,.72.25.91.91,0,0,1,.25.7v3h-.56V86.65A1.15,1.15,0,0,0,198,86a.49.49,0,0,0-.42-.17.73.73,0,0,0-.56.22.75.75,0,0,0-.22.56v2.69h-.56V86.63a1,1,0,0,0-.13-.6.49.49,0,0,0-.43-.18.8.8,0,0,0-.57.21.72.72,0,0,0-.22.55v2.71Z"/><path class="cls-1" d="M199.88,87h1.31v-.11a1.7,1.7,0,0,0-.15-.8.51.51,0,0,0-.47-.27.55.55,0,0,0-.52.29,1.84,1.84,0,0,0-.17.89Zm1.32,1h.53a1.59,1.59,0,0,1-.32,1,1.07,1.07,0,0,1-.87.36,1,1,0,0,1-.92-.48,3,3,0,0,1-.3-1.51,3.2,3.2,0,0,1,.3-1.58,1.13,1.13,0,0,1,1.83-.07,2.25,2.25,0,0,1,.29,1.3v.33h-1.86v.17a2.47,2.47,0,0,0,.17,1,.56.56,0,0,0,.53.33.51.51,0,0,0,.45-.25,1.2,1.2,0,0,0,.17-.68Z"/><polygon class="cls-1" points="203.18 89.32 202.19 85.46 202.75 85.46 203.46 88.55 204.06 85.46 204.61 85.46 205.28 88.55 205.94 85.46 206.48 85.46 205.54 89.32 205.01 89.32 204.33 86.33 203.74 89.32 203.18 89.32"/><path class="cls-1" d="M206.92,87.39a2.77,2.77,0,0,1,.34-1.54,1.29,1.29,0,0,1,2,0,2.72,2.72,0,0,1,.34,1.54,2.8,2.8,0,0,1-.33,1.54,1.34,1.34,0,0,1-2.06,0,2.83,2.83,0,0,1-.33-1.55Zm.58,0a2.93,2.93,0,0,0,.18,1.22.68.68,0,0,0,1.19,0,2.91,2.91,0,0,0,.18-1.21,2.88,2.88,0,0,0-.18-1.21.62.62,0,0,0-.59-.36.63.63,0,0,0-.6.35A2.93,2.93,0,0,0,207.5,87.39Z"/><path class="cls-1" d="M210.35,89.32V85.46h.5v.63a1.26,1.26,0,0,1,.35-.53.89.89,0,0,1,.55-.19h.13l.1,0V86a.29.29,0,0,0-.1,0l-.11,0a.81.81,0,0,0-.65.28,1.13,1.13,0,0,0-.24.77v2.36Z"/><polygon class="cls-1" points="212.35 89.32 212.35 84.16 212.87 84.16 212.87 87.21 214.19 85.46 214.82 85.46 213.67 86.92 214.91 89.32 214.25 89.32 213.3 87.42 212.87 87.95 212.87 89.32 212.35 89.32"/></svg>