<svg id="Layer_1" data-name="Layer 1" xmlns="http://www.w3.org/2000/svg" viewBox="0 0 44 44"><defs><style>.cls-1{fill:none;stroke:#fff;stroke-miterlimit:10;}.cls-2{fill:#182ac3;}</style></defs><rect class="cls-1" x="-117.3" y="-57.86" width="1621.72" height="1060.09"/><path id="Path_2086" data-name="Path 2086" class="cls-2" d="M39.11,18.2a3.76,3.76,0,0,0-4.54,1.87,2.31,2.31,0,0,1-2.71,1.42h-.59a2.24,2.24,0,0,1-2.2-1.59c-.48-1-1-1.95-1.46-2.92-.92-1.84-1.83-3.68-2.71-5.53a1.54,1.54,0,0,0-1.67-1.12c-1.79.06-1.87.06-2.15.05s-.57,0-1.94,0A2,2,0,0,1,17,9.14a3.85,3.85,0,0,0-4.62-2,4,4,0,0,0,.08,7.66,3.83,3.83,0,0,0,4.52-2,2.18,2.18,0,0,1,2.21-1.27H20.4c2.29.06,3.78.55,4.66,2.91a33.66,33.66,0,0,0,2,4.2l1.06,2,.4.79h-17A2.57,2.57,0,0,1,9.63,20.2a4.14,4.14,0,0,0-4.73-2,4,4,0,0,0,0,7.64,3.86,3.86,0,0,0,4.58-1.9,2.28,2.28,0,0,1,2.31-1.38H22.11c.33,0,.67,0,1,.05l1.27.1L23.71,25c-.67,2.23-1.31,4.37-2,6.5,0,0-.28.87-.9.9h-.56a12.43,12.43,0,0,1-2.86,0c-.6-.08-1-.7-1.33-1.24l-.15-.24a4,4,0,0,0-3.34-1.82,4.81,4.81,0,0,0-1,.13,4,4,0,0,0-.5,7.52c1.52.64,3.69.36,4.37-1,1.06-2.15,2.71-2.11,4.17-2.07h.9a11.22,11.22,0,0,1,1.16,0c.52.07.71,0,.92-.74.37-1.3.76-2.6,1.15-3.89.47-1.53.93-3.07,1.36-4.61a2.18,2.18,0,0,1,2.41-1.87h4.58a2.38,2.38,0,0,1,2.44,1.39,3.8,3.8,0,0,0,4.57,1.87,4,4,0,0,0,0-7.64ZM15.53,12.89a2.75,2.75,0,0,1-2,.86h0a2.74,2.74,0,0,1-2-.82,2.85,2.85,0,0,1-.81-2,2.82,2.82,0,0,1,2.76-2.72h0a2.77,2.77,0,0,1,2,4.72ZM8,24a2.79,2.79,0,0,1-1.91.77H5.93A2.79,2.79,0,1,1,6,19.23a3,3,0,0,1,2,.86,2.78,2.78,0,0,1,.82,2A2.72,2.72,0,0,1,8,24Zm4.63,11.85h0a2.85,2.85,0,0,1-2.77-2.76,2.8,2.8,0,0,1,.81-2,2.85,2.85,0,0,1,2-.81h0a2.79,2.79,0,0,1,0,5.57ZM40,23.89a2.75,2.75,0,0,1-2,.9h0a2.77,2.77,0,1,1,2-.88Z"/></svg>