<svg id="Layer_1" data-name="Layer 1" xmlns="http://www.w3.org/2000/svg" viewBox="0 0 44 44"><defs><style>.cls-1{fill:none;stroke:#fff;stroke-miterlimit:10;}.cls-2{fill:#182ac3;}</style></defs><rect class="cls-1" x="-517.3" y="-457.86" width="1621.72" height="1060.09"/><path id="Path_2082" data-name="Path 2082" class="cls-2" d="M36.35,8.44A26.51,26.51,0,0,0,32,7.11a51.93,51.93,0,0,0-9.72-.89,64.33,64.33,0,0,0-7.6.46A22.17,22.17,0,0,0,7.8,8.37c-1.33.62-2,1.38-2,2.41V33.26a2.43,2.43,0,0,0,1.85,2.28,24.11,24.11,0,0,0,4.23,1.32,57,57,0,0,0,17.59.44,22.57,22.57,0,0,0,6.82-1.67c1.1-.5,1.73-1.08,1.91-1.77V10.15A2.59,2.59,0,0,0,36.35,8.44ZM35.29,35a22.82,22.82,0,0,1-6.62,1.5,66.14,66.14,0,0,1-6.89.39,50,50,0,0,1-9.22-.83,28.26,28.26,0,0,1-3.94-1.16h0A1.65,1.65,0,0,1,7.29,33.3V28.35a2,2,0,0,1,0-.35v-.21l.21.06a51.82,51.82,0,0,0,29,0l.22-.06V28a2.81,2.81,0,0,1,0,.41v4.75C36.87,34,36.37,34.55,35.29,35Zm1.52-13.12a38.06,38.06,0,0,1-.08,3.85c0,.5-.83,1-1.48,1.33a20.81,20.81,0,0,1-6.5,1.51,65.4,65.4,0,0,1-7,.4,49.4,49.4,0,0,1-9.24-.84A24.67,24.67,0,0,1,8.77,27l-.33-.11c-.78-.29-1.22-.78-1.21-1.4V20.73a1,1,0,0,1,0-.25l0-.12h.18a52,52,0,0,0,29,0l.23-.06v.15a7.76,7.76,0,0,1,.11,1.44Zm-1.72-2.12A23.38,23.38,0,0,1,29,21.15a62.32,62.32,0,0,1-7.22.44,49.31,49.31,0,0,1-9.47-.88A24.22,24.22,0,0,1,8.61,19.6c-.92-.34-1.39-.89-1.37-1.66V12.43l.24.06a52,52,0,0,0,29.09,0l.23-.06v5.34C36.8,18.55,36.34,19.3,35.09,19.77Zm0-8a30.29,30.29,0,0,1-5.62,1.36c-1.78.25-3.64.37-5,.45l-1.29.09a52,52,0,0,1-11.94-1.11,14.64,14.64,0,0,1-3-1.05c-.73-.36-1.11-.78-1.08-1.2s.42-.78,1.14-1.07a20.92,20.92,0,0,1,4.71-1.4,54,54,0,0,1,18.46.09,18.53,18.53,0,0,1,3.66,1c1.1.43,1.66.93,1.64,1.45s-.61,1-1.68,1.4Z"/></svg>