<svg id="Layer_1" data-name="Layer 1" xmlns="http://www.w3.org/2000/svg" viewBox="0 0 44 44"><defs><style>.cls-1{fill:none;stroke:#fff;stroke-miterlimit:10;}.cls-2{fill:#182ac3;}</style></defs><rect class="cls-1" x="-917.3" y="-457.86" width="1621.72" height="1060.09"/><path id="Path_2118" data-name="Path 2118" class="cls-2" d="M15.75,28.14H6c-.58,0-.83-.2-.83-.81V16.48c0-.66.31-.82.89-.82h9.69V6.26c0-1.18,0-1.2,1.16-1.2H27c1.17,0,1.19,0,1.19,1.16v9.49h9.63c.9,0,1,.08,1,1V27.24c0,.89-.07,1-1,1H28.92c-.56,0-.7.17-.69.7v9c0,.89-.08,1-1,1H16.78c-1,0-1-.07-1-1.06V28.14Zm11.48,9.57V28.42c0-1.28,0-1.28,1.31-1.28h9.21V16.71H28.44c-1.21,0-1.21,0-1.21-1.25V6.14H16.76v9.38c0,1.15,0,1.15-1.12,1.15H6.23V27.14h9.25c1.28,0,1.28,0,1.28,1.25v9.32Z"/></svg>