<svg id="Layer_1" data-name="Layer 1" xmlns="http://www.w3.org/2000/svg" viewBox="0 0 44 44"><defs><style>.cls-1{fill:none;stroke:#fff;stroke-miterlimit:10;}.cls-2{fill:#182ac3;}</style></defs><rect class="cls-1" x="-1317.3" y="-457.86" width="1621.72" height="1060.09"/><g id="Group_82849" data-name="Group 82849"><path id="Path_2077" data-name="Path 2077" class="cls-2" d="M36.74,19.48V9.74a1.14,1.14,0,0,0-.93-1.32h-.07c-2.33-.68-4.66-1.39-7-2.09L22.36,4.41a1.4,1.4,0,0,0-.41,0,1.61,1.61,0,0,0-.44.06c-4.43,1.32-8.87,2.64-13.29,4-1,.32-1,.32-1,1.46v14.3a9.43,9.43,0,0,0,2,6.06c3.46,4.56,8.28,7.29,12.53,9.35a.91.91,0,0,0,.61,0,36.23,36.23,0,0,0,11.13-7.72c2.31-2.47,3.36-4.87,3.29-7.58C36.72,22.67,36.73,21.05,36.74,19.48Zm-4.55,12a36.08,36.08,0,0,1-9.53,6.61,1.65,1.65,0,0,1-.69.15,1.42,1.42,0,0,1-.61-.13,34.12,34.12,0,0,1-10.45-7.64,9.51,9.51,0,0,1-2.5-6.67c.08-3.63.05-7.34,0-10.9V11A1.54,1.54,0,0,1,9.66,9.24C11.82,8.63,14,8,16.13,7.32c1.65-.49,3.31-1,5-1.48a3.07,3.07,0,0,1,1.7,0l6.05,1.81,5.64,1.68a1.29,1.29,0,0,1,1,1.44v8.82a33.26,33.26,0,0,0,0,3.6c.24,3.06-.83,5.69-3.38,8.24Z"/><path id="Path_2078" data-name="Path 2078" class="cls-2" d="M28.62,17.39,21,25.05l-3-3a.62.62,0,1,0-1,.76.57.57,0,0,0,.11.11L21,26.79l8.53-8.53a.62.62,0,0,0-.11-.87A.6.6,0,0,0,28.62,17.39Z"/></g></svg>