<svg id="Layer_1" data-name="Layer 1" xmlns="http://www.w3.org/2000/svg" viewBox="0 0 44 44"><defs><style>.cls-1{fill:none;stroke:#fff;stroke-miterlimit:10;}.cls-2{fill:#182ac3;}</style></defs><rect class="cls-1" x="-117.3" y="-857.86" width="1621.72" height="1060.09"/><path id="Path_2113" data-name="Path 2113" class="cls-2" d="M19.79,19.12l-.63-.37-13.68-7c-1.16-.59-1.18-1.2-.39-2.2,1.57-2,3.38-2.32,5.79-1.58,5,1.51,10,2.75,15,4.12a1.07,1.07,0,0,0,1.24-.32c1.63-1.68,3.3-3.34,5-5A9.29,9.29,0,0,1,38.27,4C39.5,4,40.05,4.54,40,5.77a9.45,9.45,0,0,1-2.78,6.08c-1.69,1.71-3.37,3.41-5.08,5.09a1,1,0,0,0-.27,1c1.44,5.46,2.92,10.93,4.44,16.34a3.31,3.31,0,0,1-1,3.64c-.37.33-.69.7-1,1-.74.7-1.49.57-2-.39-1.4-2.73-2.79-5.48-4.18-8.22l-3.18-6.28c-.22.17-.39.29-.54.42l-6.69,6a1.16,1.16,0,0,0-.44,1.09c.19,1.73.32,3.46.48,5.19a3.24,3.24,0,0,1-1.58,3c-.6.44-1.32.12-1.61-.67-.71-1.91-1.43-3.83-2.08-5.76a2.56,2.56,0,0,0-1.78-1.8c-1.89-.64-3.75-1.37-5.62-2.06-1.2-.44-1.34-1.16-.47-2.12a3.2,3.2,0,0,1,2.86-1c1.68.18,3.36.32,5,.43a1.14,1.14,0,0,0,.85-.3c2.1-2.31,4.17-4.66,6.24-7A2,2,0,0,0,19.79,19.12ZM15.64,38.43a1.53,1.53,0,0,0,.74-1.61c-.17-1.89-.31-3.79-.5-5.69a1.33,1.33,0,0,1,.5-1.22q3.93-3.48,7.84-7c.86-.77,1.14-.71,1.67.32l7.11,14c.12.22.25.44.37.67,2-1.67,2-1.92,1.47-3.71C33.37,28.83,32,23.44,30.48,18.08A1.7,1.7,0,0,1,31,16.15c1.74-1.65,3.4-3.38,5.1-5.07a8.32,8.32,0,0,0,2.36-4.17,12.77,12.77,0,0,0,.22-1.63A8.36,8.36,0,0,0,33,7.7c-1.8,1.78-3.6,3.57-5.37,5.4a1.44,1.44,0,0,1-1.62.42Q17.61,11.18,9.12,8.94a2.19,2.19,0,0,0-1.53.14A9.54,9.54,0,0,0,6,10.54c.34.18.56.31.79.42l13.93,7.11c1.06.54,1.11.8.34,1.67-2.31,2.6-4.63,5.19-6.91,7.81a1.49,1.49,0,0,1-1.41.56c-1.82-.2-3.65-.34-5.48-.51a1.54,1.54,0,0,0-1.65.75l.81.32,5.17,1.87a2.88,2.88,0,0,1,1.83,1.83c.15.4.29.79.43,1.19C14.44,35.19,15,36.79,15.64,38.43Z"/></svg>