<svg id="Layer_1" data-name="Layer 1" xmlns="http://www.w3.org/2000/svg" viewBox="0 0 130 130"><defs><style>.cls-1,.cls-2,.cls-3,.cls-4{fill:none;}.cls-1{stroke:#182ac3;}.cls-1,.cls-2{stroke-miterlimit:10;}.cls-2,.cls-4{stroke:#fff;}.cls-3{stroke:#0561fc;}.cls-3,.cls-4{stroke-linecap:round;stroke-linejoin:round;stroke-width:4px;}.cls-5{fill:#c5e1f9;}</style></defs><rect class="cls-1" x="-886.71" y="-168.32" width="1738.81" height="825.88"/><rect class="cls-2" x="-856.94" y="-42.78" width="1621.72" height="655.76"/><g id="Layer_30" data-name="Layer 30"><g id="Group_82687" data-name="Group 82687"><path id="Path_1047" data-name="Path 1047" class="cls-3" d="M117.56,85,104,74.25l-6.4,3.15-26,12.79"/><path id="Path_1048" data-name="Path 1048" class="cls-3" d="M56.58,85.15H22.74a2.27,2.27,0,0,0-2.27,2.26h0v22.06a2.18,2.18,0,0,0,2.18,2.18H75.24a3,3,0,0,0,2.57-1.45L97.62,77.39"/><line id="Line_479" data-name="Line 479" class="cls-3" x1="38.68" y1="85.15" x2="38.68" y2="73.8"/><line id="Line_480" data-name="Line 480" class="cls-3" x1="30.11" y1="73.8" x2="47.25" y2="73.8"/><line id="Line_481" data-name="Line 481" class="cls-3" x1="14.41" y1="91.59" x2="26.53" y2="79.47"/><path class="cls-3" d="M125,101.39a5.44,5.44,0,0,1-10.88,0c0-3,3.36-8.28,5.44-9.74C121.71,93.35,125,98.38,125,101.39Z"/></g><g id="Group_82688" data-name="Group 82688"><path id="Path_1052" data-name="Path 1052" class="cls-3" d="M2.62,80.72a62.38,62.38,0,0,1,124.76,0h0"/><line id="Line_482" data-name="Line 482" class="cls-3" x1="5.53" y1="61.84" x2="15.9" y2="67.9"/><line id="Line_483" data-name="Line 483" class="cls-3" x1="25.51" y1="32.41" x2="32.82" y2="41.94"/><line id="Line_484" data-name="Line 484" class="cls-3" x1="97.44" y1="27.94" x2="91.37" y2="38.31"/><line id="Line_485" data-name="Line 485" class="cls-3" x1="123.16" y1="58.29" x2="113.62" y2="65.59"/><line id="Line_486" data-name="Line 486" class="cls-3" x1="61.92" y1="18.64" x2="61.92" y2="30.65"/></g><path id="Path_1053" data-name="Path 1053" class="cls-3" d="M71.65,93.2a11.66,11.66,0,0,0-4.26-3.75V49.28H56.59V89.45A11.76,11.76,0,1,0,73.75,99.9,11.54,11.54,0,0,0,71.65,93.2Z"/><line id="Line_488" data-name="Line 488" class="cls-4" x1="61.99" y1="96.79" x2="61.99" y2="57.04"/><line id="Line_489" data-name="Line 489" class="cls-3" x1="72.98" y1="51.79" x2="80.99" y2="51.79"/><line id="Line_490" data-name="Line 490" class="cls-3" x1="72.98" y1="57.47" x2="76.99" y2="57.47"/><line id="Line_491" data-name="Line 491" class="cls-3" x1="72.98" y1="68.84" x2="76.99" y2="68.84"/><line id="Line_492" data-name="Line 492" class="cls-3" x1="72.98" y1="63.15" x2="80.99" y2="63.15"/><line id="Line_493" data-name="Line 493" class="cls-3" x1="72.98" y1="74.52" x2="80.99" y2="74.52"/></g><path class="cls-5" d="M62,105.54A5.54,5.54,0,0,1,56.45,100h0A5.55,5.55,0,0,1,62,94.45h0a5.54,5.54,0,0,1,0,11.08Z"/></svg>