<svg id="Layer_1" data-name="Layer 1" xmlns="http://www.w3.org/2000/svg" viewBox="0 0 130 130"><defs><style>.cls-1,.cls-4,.cls-6{fill:none;}.cls-1{stroke:#fff;stroke-miterlimit:10;}.cls-2,.cls-3{fill:#fff;}.cls-2,.cls-4{stroke:#0561fc;}.cls-2,.cls-4,.cls-6{stroke-linecap:round;stroke-linejoin:round;stroke-width:4px;}.cls-5{fill:#c5e1f9;}.cls-6{stroke:#c5e1f9;}</style></defs><rect class="cls-1" x="-1277.16" y="-115.35" width="1621.72" height="1131.85"/><rect class="cls-2" x="59.17" y="9.71" width="58.74" height="110.58"/><rect class="cls-3" x="12.08" y="31.89" width="87.56" height="66.21" rx="3"/><rect class="cls-4" x="12.08" y="31.89" width="87.56" height="66.21" rx="3"/><line class="cls-4" x1="12.08" y1="46.24" x2="99.65" y2="46.24"/><path class="cls-5" d="M25.43,39.07a2.9,2.9,0,1,1-2.9-2.9A2.9,2.9,0,0,1,25.43,39.07Z"/><path class="cls-5" d="M34.71,39.07a2.9,2.9,0,1,1-2.9-2.9A2.9,2.9,0,0,1,34.71,39.07Z"/><path class="cls-5" d="M92.1,39.07A2.9,2.9,0,0,1,89.2,42H69.4a2.9,2.9,0,0,1,0-5.8H89.2A2.9,2.9,0,0,1,92.1,39.07Z"/><line class="cls-6" x1="65" y1="77.44" x2="76.54" y2="77.44"/><line class="cls-6" x1="65" y1="83.91" x2="88.08" y2="83.91"/><rect class="cls-6" x="65" y="60.44" width="8.77" height="8.77"/><rect class="cls-6" x="79.31" y="60.44" width="8.77" height="8.77"/><path class="cls-2" d="M102,9.71a1.76,1.76,0,0,0-1.76,1.76V15a1.76,1.76,0,0,1-1.76,1.76H78.65A1.76,1.76,0,0,1,76.89,15V11.47a1.76,1.76,0,0,0-1.77-1.76Z"/><line class="cls-2" x1="86.38" y1="112.15" x2="90.71" y2="112.15"/><path class="cls-2" d="M57.61,82.94a1.31,1.31,0,0,0-1.13-.66h-17l2.85-21.8a1.3,1.3,0,0,0-2.39-.85L19.22,95.9a1.3,1.3,0,0,0,1.1,2H37.09l-2.26,21.83a1.31,1.31,0,0,0,1.2,1.41,1.34,1.34,0,0,0,1.21-.61L57.59,84.25a1.31,1.31,0,0,0,0-1.31Z"/></svg>