<svg id="Layer_1" data-name="Layer 1" xmlns="http://www.w3.org/2000/svg" viewBox="0 0 130 130"><defs><style>.cls-1,.cls-2,.cls-3{fill:none;}.cls-1{stroke:#182ac3;}.cls-1,.cls-2{stroke-miterlimit:10;}.cls-2,.cls-3,.cls-4{stroke:#fff;}.cls-3,.cls-4{stroke-linecap:round;stroke-linejoin:round;stroke-width:4px;}.cls-4{fill:#0561fc;}.cls-5{fill:#fff;}</style></defs><rect class="cls-1" x="-553.26" y="-534.55" width="1682.04" height="797.25"/><rect class="cls-2" x="-531.14" y="-1326.66" width="1621.72" height="1570.98"/><rect class="cls-3" x="25.44" y="60.42" width="36.34" height="17.57"/><rect class="cls-3" x="12.19" y="29.88" width="105.62" height="70.23"/><rect class="cls-3" x="12.19" y="29.89" width="105.62" height="15.69"/><line class="cls-4" x1="25.44" y1="87.2" x2="61.78" y2="87.2"/><line class="cls-3" x1="4.14" y1="57.6" x2="12.19" y2="57.6"/><line class="cls-3" x1="4.14" y1="66.7" x2="12.19" y2="66.7"/><line class="cls-3" x1="4.14" y1="75.79" x2="12.19" y2="75.79"/><line class="cls-3" x1="4.14" y1="84.89" x2="12.19" y2="84.89"/><line class="cls-3" x1="4.14" y1="93.98" x2="12.19" y2="93.98"/><line class="cls-3" x1="117.81" y1="36.49" x2="125.86" y2="36.49"/><line class="cls-3" x1="117.81" y1="45.58" x2="125.86" y2="45.58"/><line class="cls-3" x1="117.81" y1="54.68" x2="125.86" y2="54.68"/><line class="cls-3" x1="117.81" y1="63.77" x2="125.86" y2="63.77"/><line class="cls-3" x1="117.81" y1="72.87" x2="125.86" y2="72.87"/><line class="cls-3" x1="14.76" y1="108.16" x2="14.76" y2="100.11"/><line class="cls-3" x1="23.85" y1="108.16" x2="23.85" y2="100.11"/><line class="cls-3" x1="32.95" y1="108.16" x2="32.95" y2="100.11"/><line class="cls-3" x1="42.05" y1="108.16" x2="42.05" y2="100.11"/><line class="cls-3" x1="51.14" y1="108.16" x2="51.14" y2="100.11"/><line class="cls-3" x1="73.06" y1="29.89" x2="73.06" y2="21.84"/><line class="cls-3" x1="82.15" y1="29.89" x2="82.15" y2="21.84"/><line class="cls-3" x1="91.25" y1="29.89" x2="91.25" y2="21.84"/><line class="cls-3" x1="100.35" y1="29.89" x2="100.35" y2="21.84"/><line class="cls-3" x1="109.44" y1="29.89" x2="109.44" y2="21.84"/><path class="cls-5" d="M84.22,63.65a4.06,4.06,0,0,1,6.19,0,6.92,6.92,0,0,1,1,3.91,7,7,0,0,1-1,3.94,4.08,4.08,0,0,1-6.19,0,7,7,0,0,1-1-3.94A6.92,6.92,0,0,1,84.22,63.65Zm4.41,1.67a1.49,1.49,0,0,0-2.63,0,6.22,6.22,0,0,0-.32,2.24,9.09,9.09,0,0,0,.12,1.62,2,2,0,0,0,.47,1,1.33,1.33,0,0,0,1,.4,1.35,1.35,0,0,0,1-.4,2.13,2.13,0,0,0,.47-1,9.21,9.21,0,0,0,.11-1.62A6.25,6.25,0,0,0,88.63,65.32Z"/><path class="cls-5" d="M85,79.16v-2.3h4V87.39H86.42V79.16Z"/><path class="cls-5" d="M97.4,59.89V57.6h4V68.13H98.83V59.89Z"/><path class="cls-5" d="M96.63,73.24a4.06,4.06,0,0,1,6.19,0,7,7,0,0,1,1,3.9,7.06,7.06,0,0,1-1,3.94,4.06,4.06,0,0,1-6.19,0,7,7,0,0,1-1-3.94A6.9,6.9,0,0,1,96.63,73.24ZM101,74.9a1.49,1.49,0,0,0-2.62,0,6.26,6.26,0,0,0-.32,2.24,9.13,9.13,0,0,0,.12,1.63,2,2,0,0,0,.47,1,1.32,1.32,0,0,0,1,.39,1.36,1.36,0,0,0,1-.39,2.17,2.17,0,0,0,.47-1,10.33,10.33,0,0,0,.11-1.63A6,6,0,0,0,101,74.9Z"/></svg>