<svg id="Layer_1" data-name="Layer 1" xmlns="http://www.w3.org/2000/svg" viewBox="0 0 300 150"><defs><style>.cls-1,.cls-3{fill:#931b1e;}.cls-2{fill:#243c7d;}.cls-3{fill-rule:evenodd;}.cls-4{fill:none;stroke:#fff;stroke-miterlimit:2.61;stroke-width:0.17px;}</style></defs><path class="cls-1" d="M180.4,63.32h6.68l4,14.74,3.78-14.74H201l-7.12,21.44q-1.47,4.39-3.21,5.87a7.28,7.28,0,0,1-4.88,1.48,13.65,13.65,0,0,1-1.84-.12,10.76,10.76,0,0,1-1.74-.36l.43-4.38c.34.08.65.15.92.19a3.82,3.82,0,0,0,.69.07,3.51,3.51,0,0,0,2.19-.62A3.67,3.67,0,0,0,187.63,85l.28-.89Z"/><path class="cls-2" d="M144.87,70.08V84.66H138.6V71.49a4.48,4.48,0,0,0-.58-2.57,2,2,0,0,0-1.8-.81,2.38,2.38,0,0,0-2.12,1.12,6.06,6.06,0,0,0-.73,3.28V84.66h-6.26V68c0-1.24,0-2.18,0-2.82s-.08-1.25-.15-1.81h5.71c.08.64.14,1.23.17,1.76s.05,1,.05,1.5a5.77,5.77,0,0,1,2.33-2.72,6.85,6.85,0,0,1,3.65-1,5.56,5.56,0,0,1,4.5,1.83,8.08,8.08,0,0,1,1.55,5.37"/><path class="cls-2" d="M164.39,70.08V84.66h-6.28V71.49a4.57,4.57,0,0,0-.57-2.57,2.07,2.07,0,0,0-1.8-.81,2.39,2.39,0,0,0-2.13,1.12,6.06,6.06,0,0,0-.73,3.28V84.66h-6.26V68c0-1.24,0-2.18-.05-2.82s-.08-1.25-.15-1.81h5.72c.08.64.13,1.23.17,1.76s.05,1,.05,1.5a5.7,5.7,0,0,1,2.32-2.72,6.88,6.88,0,0,1,3.65-1,5.59,5.59,0,0,1,4.51,1.83,8.13,8.13,0,0,1,1.55,5.37"/><path class="cls-1" d="M179.94,63.78l-.1,4.65a11.2,11.2,0,0,0-2.38-1,9.54,9.54,0,0,0-2.35-.31,3.73,3.73,0,0,0-2.15.51,1.7,1.7,0,0,0-.72,1.5c0,.82,1,1.63,3,2.44q3.79,1.5,4.82,2.87a7.11,7.11,0,0,1-1.23,8.89,10.11,10.11,0,0,1-6.43,1.8,17.24,17.24,0,0,1-2.76-.25,22.75,22.75,0,0,1-3.06-.76l0-5a12.6,12.6,0,0,0,2.85,1.31,9.51,9.51,0,0,0,2.88.46,4,4,0,0,0,2.29-.57,1.82,1.82,0,0,0,.83-1.58c0-.83-1-1.62-2.92-2.37l-.91-.35a10.64,10.64,0,0,1-4.11-2.54A5.25,5.25,0,0,1,166.42,70a6.54,6.54,0,0,1,2.11-5.18,8.51,8.51,0,0,1,5.84-1.86,18.89,18.89,0,0,1,2.78.21,18.47,18.47,0,0,1,2.79.65"/><path class="cls-1" d="M213.72,63.78l-.1,4.65a11.2,11.2,0,0,0-2.38-1,9.53,9.53,0,0,0-2.34-.31,3.76,3.76,0,0,0-2.16.51,1.7,1.7,0,0,0-.72,1.5c0,.82,1,1.63,3,2.44q3.8,1.5,4.82,2.87a7.11,7.11,0,0,1-1.23,8.89,10.11,10.11,0,0,1-6.43,1.8,17.24,17.24,0,0,1-2.76-.25,23,23,0,0,1-3.05-.76l0-5a12.6,12.6,0,0,0,2.85,1.31,9.51,9.51,0,0,0,2.88.46,4,4,0,0,0,2.29-.57,1.82,1.82,0,0,0,.83-1.58c0-.83-1-1.62-2.92-2.37l-.9-.35a10.62,10.62,0,0,1-4.12-2.54A5.24,5.24,0,0,1,200.21,70a6.56,6.56,0,0,1,2.1-5.18,8.51,8.51,0,0,1,5.84-1.86,18.89,18.89,0,0,1,2.78.21,18.19,18.19,0,0,1,2.79.65"/><polygon class="cls-2" points="85.09 56.08 91.65 56.08 91.65 67.81 98.81 56.08 106.07 56.08 97.42 69.38 106.82 84.66 99.07 84.66 91.65 71.53 91.65 84.66 85.09 84.66 85.09 56.08"/><path class="cls-3" d="M125.3,69.81a1.93,1.93,0,0,0-2.73,0,1.89,1.89,0,0,0-.44.69,2.51,2.51,0,0,1-3.5-3.41h0a1.93,1.93,0,1,0-1.36,0,2.51,2.51,0,1,1-4.21,0,1.93,1.93,0,0,0-.31-3.74,1.93,1.93,0,0,0-1,3.72h0a2.52,2.52,0,0,1-3.46,3.44h0a1.86,1.86,0,0,0-.45-.71,1.92,1.92,0,1,0,.41,2.13,2.51,2.51,0,1,1,.14,4.24,1.93,1.93,0,1,0-.05,1.21,2.51,2.51,0,0,1,3.44,3.47,2.06,2.06,0,0,0-.69.45,1.93,1.93,0,1,0,2.73,0,1.94,1.94,0,0,0-.71-.45,2.51,2.51,0,1,1,4.27,0,2,2,0,0,0-.72.46,1.94,1.94,0,1,0,2-.45,2.51,2.51,0,0,1,3.42-3.49,1.93,1.93,0,1,0,1.48-2.61,2,2,0,0,0-1.53,1.35,2.51,2.51,0,1,1,.09-4.22,1.8,1.8,0,0,0,.42.62,1.93,1.93,0,1,0,2.72-2.74"/><path class="cls-4" d="M125.3,69.81a1.93,1.93,0,0,0-2.73,0,1.89,1.89,0,0,0-.44.69,2.51,2.51,0,0,1-3.5-3.41h0a1.93,1.93,0,1,0-1.36,0,2.51,2.51,0,1,1-4.21,0,1.93,1.93,0,0,0-.31-3.74,1.93,1.93,0,0,0-1,3.72h0a2.52,2.52,0,0,1-3.46,3.44h0a1.86,1.86,0,0,0-.45-.71,1.92,1.92,0,1,0,.41,2.13,2.51,2.51,0,1,1,.14,4.24,1.93,1.93,0,1,0-.05,1.21,2.51,2.51,0,0,1,3.44,3.47,2.06,2.06,0,0,0-.69.45,1.93,1.93,0,1,0,2.73,0,1.94,1.94,0,0,0-.71-.45,2.51,2.51,0,1,1,4.27,0,2,2,0,0,0-.72.46,1.94,1.94,0,1,0,2-.45,2.51,2.51,0,0,1,3.42-3.49,1.93,1.93,0,1,0,1.48-2.61,2,2,0,0,0-1.53,1.35,2.51,2.51,0,1,1,.09-4.22,1.8,1.8,0,0,0,.42.62,1.93,1.93,0,1,0,2.72-2.74Z"/><path class="cls-3" d="M125.3,69.81a1.93,1.93,0,0,0-2.73,0,1.89,1.89,0,0,0-.44.69,2.51,2.51,0,0,1-3.5-3.41h0a1.93,1.93,0,1,0-1.36,0,2.51,2.51,0,1,1-4.21,0,1.93,1.93,0,0,0-.31-3.74,1.93,1.93,0,0,0-1,3.72h0a2.52,2.52,0,0,1-3.46,3.44h0a1.86,1.86,0,0,0-.45-.71,1.92,1.92,0,1,0,.41,2.13,2.51,2.51,0,1,1,.14,4.24,1.93,1.93,0,1,0-.05,1.21,2.51,2.51,0,0,1,3.44,3.47,2.06,2.06,0,0,0-.69.45,1.93,1.93,0,1,0,2.73,0,1.94,1.94,0,0,0-.71-.45,2.51,2.51,0,1,1,4.27,0,2,2,0,0,0-.72.46,1.94,1.94,0,1,0,2-.45,2.51,2.51,0,0,1,3.42-3.49,1.93,1.93,0,1,0,1.48-2.61,2,2,0,0,0-1.53,1.35,2.51,2.51,0,1,1,.09-4.22,1.8,1.8,0,0,0,.42.62,1.93,1.93,0,1,0,2.72-2.74"/><path class="cls-2" d="M89.31,87.84l0,.58a2.57,2.57,0,0,0-.54-.17,2.39,2.39,0,0,0-.53-.06,1.85,1.85,0,0,0-1.36.5A1.79,1.79,0,0,0,86.35,90a1.83,1.83,0,0,0,.5,1.35,1.89,1.89,0,0,0,1.37.49,3.19,3.19,0,0,0,.54,0,4.91,4.91,0,0,0,.51-.15l0,.59a3.77,3.77,0,0,1-.53.12,3.65,3.65,0,0,1-.59,0,2.58,2.58,0,0,1-1.84-.63,2.26,2.26,0,0,1-.68-1.73,2.33,2.33,0,0,1,.69-1.76,2.61,2.61,0,0,1,1.85-.65,3.73,3.73,0,0,1,.59,0,2.74,2.74,0,0,1,.53.14"/><path class="cls-2" d="M91.18,88.9a1.63,1.63,0,0,1,1.25.48,2.12,2.12,0,0,1,0,2.64,1.66,1.66,0,0,1-1.25.48A1.63,1.63,0,0,1,89.94,92a1.81,1.81,0,0,1-.46-1.32,1.85,1.85,0,0,1,.46-1.32,1.63,1.63,0,0,1,1.24-.48m0,.49a.88.88,0,0,0-.74.36,1.68,1.68,0,0,0,0,1.89.94.94,0,0,0,1.48,0,1.44,1.44,0,0,0,.28-.94,1.5,1.5,0,0,0-.28-1,.9.9,0,0,0-.74-.35"/><path class="cls-2" d="M96.41,90.34v2.08h-.64V90.49a1.32,1.32,0,0,0-.19-.79.67.67,0,0,0-.58-.25.81.81,0,0,0-.67.32,1.44,1.44,0,0,0-.25.9v1.75h-.63V89H94v.64a1.27,1.27,0,0,1,1.2-.72,1.07,1.07,0,0,1,.88.37,1.64,1.64,0,0,1,.3,1.07"/><path class="cls-2" d="M100.11,90.34v2.08h-.64V90.49a1.4,1.4,0,0,0-.18-.79.68.68,0,0,0-.58-.25.83.83,0,0,0-.68.32,1.5,1.5,0,0,0-.24.9v1.75h-.64V89h.58v.64a1.27,1.27,0,0,1,1.2-.72,1.05,1.05,0,0,1,.88.37,1.64,1.64,0,0,1,.3,1.07"/><path class="cls-2" d="M103.64,90.59v.26h-2.43a1.24,1.24,0,0,0,.35.86,1.21,1.21,0,0,0,.86.31,1.58,1.58,0,0,0,.47-.07,2.27,2.27,0,0,0,.48-.19v.55a2.44,2.44,0,0,1-.5.15,3.57,3.57,0,0,1-.59,0,1.58,1.58,0,0,1-1.23-.49,1.88,1.88,0,0,1-.46-1.34,1.8,1.8,0,0,1,.45-1.28,1.47,1.47,0,0,1,1.16-.49,1.33,1.33,0,0,1,1.06.45,1.89,1.89,0,0,1,.38,1.24m-.59-.16a1.42,1.42,0,0,0-.27-.79.75.75,0,0,0-.62-.28.8.8,0,0,0-.63.29,1.31,1.31,0,0,0-.3.78Z"/><path class="cls-2" d="M106.45,89.1l0,.55a1.26,1.26,0,0,0-.34-.13,1.33,1.33,0,0,0-.4,0,1.14,1.14,0,0,0-.86.34,1.21,1.21,0,0,0-.33.89,1.29,1.29,0,0,0,.32.9,1.14,1.14,0,0,0,.85.34,1.74,1.74,0,0,0,.39,0,1.63,1.63,0,0,0,.4-.15l0,.56a1.69,1.69,0,0,1-.44.12,2.42,2.42,0,0,1-.47,0,1.65,1.65,0,0,1-1.75-1.75,1.68,1.68,0,0,1,.49-1.27A1.81,1.81,0,0,1,105.6,89a3.4,3.4,0,0,1,.45,0,2.62,2.62,0,0,1,.4.11"/><path class="cls-2" d="M107.84,87.92V89h.82v.49h-.82v1.78a1,1,0,0,0,.12.57.42.42,0,0,0,.38.17l.15,0,.2-.06v.5a1.11,1.11,0,0,1-.25,0,1.14,1.14,0,0,1-.26,0,.93.93,0,0,1-.75-.27,1.41,1.41,0,0,1-.23-.9V89.47h-.69V89h.71v-.85Z"/><path class="cls-2" d="M109.09,87.41h.63V88h-.63Zm0,1.57h.63v3.44h-.63Z"/><path class="cls-2" d="M113.48,90.34v2.08h-.64V90.49a1.4,1.4,0,0,0-.18-.79.68.68,0,0,0-.58-.25.81.81,0,0,0-.68.32,1.5,1.5,0,0,0-.25.9v1.75h-.63V89h.58v.64a1.27,1.27,0,0,1,1.2-.72,1.05,1.05,0,0,1,.88.37,1.64,1.64,0,0,1,.3,1.07"/><path class="cls-2" d="M116.58,89.6V89h.6v3a2,2,0,0,1-.43,1.42,1.65,1.65,0,0,1-1.28.47,4,4,0,0,1-.6,0,3.19,3.19,0,0,1-.55-.16l.05-.58a2,2,0,0,0,.52.21,1.62,1.62,0,0,0,.47.07,1.15,1.15,0,0,0,.88-.33,1.35,1.35,0,0,0,.31-.94v-.41a1.47,1.47,0,0,1-.5.52,1.25,1.25,0,0,1-.64.17,1.27,1.27,0,0,1-1-.48,1.89,1.89,0,0,1-.39-1.25,2,2,0,0,1,.39-1.3,1.24,1.24,0,0,1,1-.49,1.29,1.29,0,0,1,.69.18,1.35,1.35,0,0,1,.48.52m-1-.2a.75.75,0,0,0-.65.34,1.8,1.8,0,0,0,0,1.83.78.78,0,0,0,.66.34.83.83,0,0,0,.68-.34,1.4,1.4,0,0,0,.26-.89,1.52,1.52,0,0,0-.25-.94.81.81,0,0,0-.7-.34"/><path class="cls-2" d="M122.38,87.79l-.07.59a1.62,1.62,0,0,0-.45-.16,2,2,0,0,0-.49-.06,1.25,1.25,0,0,0-.67.16.51.51,0,0,0-.24.44.57.57,0,0,0,.16.4,3,3,0,0,0,.7.48,3.69,3.69,0,0,1,1,.71,1.07,1.07,0,0,1,.26.72,1.25,1.25,0,0,1-.44,1,1.64,1.64,0,0,1-1.14.38,3.32,3.32,0,0,1-.64,0,2.6,2.6,0,0,1-.58-.16l.07-.64a2.62,2.62,0,0,0,.57.23,2,2,0,0,0,.53.08,1.17,1.17,0,0,0,.68-.19.62.62,0,0,0,.25-.5c0-.31-.33-.66-1-1l-.25-.15a1.76,1.76,0,0,1-.6-.54,1.11,1.11,0,0,1-.22-.65,1.06,1.06,0,0,1,.42-.88,1.83,1.83,0,0,1,1.15-.33,4.39,4.39,0,0,1,.53,0,3.89,3.89,0,0,1,.49.12"/><path class="cls-2" d="M126,90.59v.26h-2.43a1.28,1.28,0,0,0,.35.86,1.21,1.21,0,0,0,.86.31,1.53,1.53,0,0,0,.47-.07,1.92,1.92,0,0,0,.48-.19v.55a2.44,2.44,0,0,1-.5.15,3.57,3.57,0,0,1-.59,0,1.58,1.58,0,0,1-1.23-.49,1.92,1.92,0,0,1-.45-1.34,1.8,1.8,0,0,1,.44-1.28,1.47,1.47,0,0,1,1.16-.49,1.33,1.33,0,0,1,1.06.45,1.84,1.84,0,0,1,.38,1.24m-.59-.16a1.35,1.35,0,0,0-.27-.79.75.75,0,0,0-.62-.28.82.82,0,0,0-.63.29,1.31,1.31,0,0,0-.3.78Z"/><path class="cls-2" d="M129.35,90.34v2.08h-.63V90.49a1.39,1.39,0,0,0-.19-.79.68.68,0,0,0-.58-.25.83.83,0,0,0-.68.32,1.5,1.5,0,0,0-.24.9v1.75h-.64V89H127v.64a1.31,1.31,0,0,1,.5-.54,1.33,1.33,0,0,1,.7-.18,1.05,1.05,0,0,1,.88.37,1.64,1.64,0,0,1,.3,1.07"/><path class="cls-2" d="M132,89.07l0,.52a2.16,2.16,0,0,0-.43-.14,1.61,1.61,0,0,0-.44,0,.77.77,0,0,0-.42.1.35.35,0,0,0-.16.29.43.43,0,0,0,.13.28,2.67,2.67,0,0,0,.54.31,2.18,2.18,0,0,1,.74.49.84.84,0,0,1,.21.57.9.9,0,0,1-.38.75,1.71,1.71,0,0,1-1,.27,2.38,2.38,0,0,1-.46,0,2.23,2.23,0,0,1-.44-.13l0-.53a2.64,2.64,0,0,0,.47.17,1.72,1.72,0,0,0,.44.06.82.82,0,0,0,.5-.14.41.41,0,0,0,.19-.36.46.46,0,0,0-.11-.3,2.08,2.08,0,0,0-.52-.32,2.33,2.33,0,0,1-.74-.49.79.79,0,0,1-.2-.53.78.78,0,0,1,.34-.66,1.56,1.56,0,0,1,.91-.25,2,2,0,0,1,.42,0,3.43,3.43,0,0,1,.44.09"/><path class="cls-2" d="M134.09,88.9a1.63,1.63,0,0,1,1.25.48,2.12,2.12,0,0,1,0,2.64,1.85,1.85,0,0,1-2.49,0,1.85,1.85,0,0,1-.45-1.32,1.89,1.89,0,0,1,.45-1.32,1.64,1.64,0,0,1,1.24-.48m0,.49a.9.9,0,0,0-.74.36,1.68,1.68,0,0,0,0,1.89,1,1,0,0,0,1.49,0,1.5,1.5,0,0,0,.28-.94,1.56,1.56,0,0,0-.28-1,.93.93,0,0,0-.75-.35"/><path class="cls-2" d="M138.2,88.94l0,.61-.14,0h-.13a.81.81,0,0,0-.68.31,1.46,1.46,0,0,0-.23.88v1.72h-.64V89h.58v.71a1.16,1.16,0,0,1,.4-.57.94.94,0,0,1,.59-.2h.27"/><path class="cls-2" d="M140.43,89.07l0,.52a2.16,2.16,0,0,0-.43-.14,1.61,1.61,0,0,0-.44,0,.77.77,0,0,0-.42.1.35.35,0,0,0-.16.29.43.43,0,0,0,.13.28,2.67,2.67,0,0,0,.54.31,2.35,2.35,0,0,1,.75.49.88.88,0,0,1,.2.57.9.9,0,0,1-.38.75,1.7,1.7,0,0,1-1,.27,2.49,2.49,0,0,1-.47,0,2.23,2.23,0,0,1-.44-.13l0-.53a3,3,0,0,0,.47.17,1.72,1.72,0,0,0,.44.06.82.82,0,0,0,.5-.14.41.41,0,0,0,.19-.36.46.46,0,0,0-.11-.3,2.08,2.08,0,0,0-.52-.32,2.33,2.33,0,0,1-.74-.49.79.79,0,0,1-.2-.53.78.78,0,0,1,.34-.66,1.56,1.56,0,0,1,.91-.25,2,2,0,0,1,.42,0,3.43,3.43,0,0,1,.44.09"/><path class="cls-2" d="M142.54,87.67h.68l.94,3.8s0,.11,0,.21,0,.22,0,.38a2.53,2.53,0,0,1,0-.32,1.45,1.45,0,0,1,0-.25l1-3.82h.86l1,3.83c0,.06,0,.15,0,.24s0,.2,0,.32q0-.18,0-.33c0-.1,0-.17,0-.21l1-3.85h.62l-1.28,4.75h-.83l-1-3.88c0-.05,0-.13,0-.22s0-.2,0-.31c0,.19,0,.32,0,.4a.61.61,0,0,1,0,.14l-1,3.87h-.85Z"/><path class="cls-2" d="M149.15,87.41h.64V88h-.64Zm0,1.57h.64v3.44h-.64Z"/><path class="cls-2" d="M151.49,87.92V89h.82v.49h-.82v1.78a1,1,0,0,0,.12.57A.43.43,0,0,0,152,92l.16,0,.19-.06v.5a1.19,1.19,0,0,1-.26,0,1.1,1.1,0,0,1-.26,0,.93.93,0,0,1-.75-.27,1.42,1.42,0,0,1-.22-.9V89.47h-.7V89h.72v-.85Z"/><path class="cls-2" d="M152.77,87.31h.64v2.23a1.28,1.28,0,0,1,.47-.48,1.3,1.3,0,0,1,.67-.16,1,1,0,0,1,.88.37,1.64,1.64,0,0,1,.3,1.07v2.08h-.63V90.49a1.32,1.32,0,0,0-.19-.79.67.67,0,0,0-.58-.25.81.81,0,0,0-.67.32,1.44,1.44,0,0,0-.25.9v1.75h-.64Z"/><path class="cls-2" d="M160.9,87.79l-.07.59a1.62,1.62,0,0,0-.45-.16,2,2,0,0,0-.49-.06,1.25,1.25,0,0,0-.67.16.5.5,0,0,0-.25.44.58.58,0,0,0,.17.4,3,3,0,0,0,.7.48,3.69,3.69,0,0,1,1,.71,1.12,1.12,0,0,1,.26.72,1.25,1.25,0,0,1-.44,1,1.65,1.65,0,0,1-1.14.38,3.32,3.32,0,0,1-.64,0,2.6,2.6,0,0,1-.58-.16l.07-.64a2.27,2.27,0,0,0,.57.23,2,2,0,0,0,.53.08,1.13,1.13,0,0,0,.67-.19.6.6,0,0,0,.26-.5c0-.31-.34-.66-1-1l-.26-.15a1.82,1.82,0,0,1-.59-.54,1.11,1.11,0,0,1-.22-.65,1.06,1.06,0,0,1,.42-.88,1.83,1.83,0,0,1,1.15-.33,4.55,4.55,0,0,1,.53,0,3.89,3.89,0,0,1,.49.12"/><path class="cls-2" d="M161.22,89h.68l.93,2.83.93-2.83h.64L163,92.77a2.26,2.26,0,0,1-.5.88,1,1,0,0,1-.72.26h-.2l-.22,0,.06-.52.15,0h.15a.54.54,0,0,0,.41-.19,2.16,2.16,0,0,0,.34-.64Z"/><path class="cls-2" d="M166.56,89.07l0,.52a2.3,2.3,0,0,0-.42-.14,1.73,1.73,0,0,0-.45,0,.77.77,0,0,0-.42.1.34.34,0,0,0-.15.29.38.38,0,0,0,.13.28,2.27,2.27,0,0,0,.53.31,2.35,2.35,0,0,1,.75.49.88.88,0,0,1,.2.57.89.89,0,0,1-.37.75,1.71,1.71,0,0,1-1,.27,2.32,2.32,0,0,1-.46,0,2.13,2.13,0,0,1-.45-.13l0-.53a3,3,0,0,0,.47.17,1.72,1.72,0,0,0,.44.06.82.82,0,0,0,.5-.14.41.41,0,0,0,.19-.36.46.46,0,0,0-.11-.3,2,2,0,0,0-.51-.32,2.4,2.4,0,0,1-.75-.49.79.79,0,0,1-.2-.53.81.81,0,0,1,.34-.66,1.56,1.56,0,0,1,.91-.25,2.15,2.15,0,0,1,.43,0l.43.09"/><path class="cls-2" d="M168.12,87.92V89h.82v.49h-.82v1.78a1,1,0,0,0,.12.57.42.42,0,0,0,.38.17l.15,0,.2-.06v.5a1.19,1.19,0,0,1-.26,0,1.14,1.14,0,0,1-.26,0,.93.93,0,0,1-.75-.27,1.41,1.41,0,0,1-.23-.9V89.47h-.69V89h.71v-.85Z"/><path class="cls-2" d="M172.19,90.59v.26h-2.43a1.24,1.24,0,0,0,.35.86A1.2,1.2,0,0,0,171,92a1.59,1.59,0,0,0,.48-.07,2.27,2.27,0,0,0,.48-.19v.55a2.44,2.44,0,0,1-.5.15,3.65,3.65,0,0,1-.59,0,1.6,1.6,0,0,1-1.24-.49,1.92,1.92,0,0,1-.45-1.34,1.8,1.8,0,0,1,.45-1.28,1.46,1.46,0,0,1,1.15-.49,1.35,1.35,0,0,1,1.07.45,1.89,1.89,0,0,1,.38,1.24m-.6-.16a1.35,1.35,0,0,0-.26-.79.76.76,0,0,0-.62-.28.82.82,0,0,0-.64.29,1.46,1.46,0,0,0-.3.78Z"/><path class="cls-2" d="M175.34,89.66a1.36,1.36,0,0,1,.49-.56,1.2,1.2,0,0,1,.68-.19,1,1,0,0,1,.82.36,1.75,1.75,0,0,1,.28,1.07v2.08H177V90.49a1.42,1.42,0,0,0-.17-.77.55.55,0,0,0-.5-.25.73.73,0,0,0-.65.32,1.42,1.42,0,0,0-.24.88v1.75h-.63V90.49a1.52,1.52,0,0,0-.16-.78.6.6,0,0,0-.53-.24.74.74,0,0,0-.62.32,1.46,1.46,0,0,0-.24.88v1.75h-.63V89h.59v.64a1.36,1.36,0,0,1,.47-.53,1.21,1.21,0,0,1,.66-.18,1,1,0,0,1,.62.19,1.18,1.18,0,0,1,.39.56"/><path class="cls-2" d="M180.25,89.07l0,.52a2.16,2.16,0,0,0-.43-.14,1.61,1.61,0,0,0-.44,0,.75.75,0,0,0-.42.1.35.35,0,0,0-.16.29.43.43,0,0,0,.13.28,2.67,2.67,0,0,0,.54.31,2.18,2.18,0,0,1,.74.49.84.84,0,0,1,.21.57.9.9,0,0,1-.38.75,1.71,1.71,0,0,1-1,.27,2.38,2.38,0,0,1-.46,0,2.23,2.23,0,0,1-.44-.13l0-.53a2.85,2.85,0,0,0,.46.17A1.86,1.86,0,0,0,179,92a.82.82,0,0,0,.5-.14.44.44,0,0,0,.19-.36.46.46,0,0,0-.11-.3,2.08,2.08,0,0,0-.52-.32,2.33,2.33,0,0,1-.74-.49.79.79,0,0,1-.2-.53.78.78,0,0,1,.34-.66,1.56,1.56,0,0,1,.91-.25,2,2,0,0,1,.42,0,3,3,0,0,1,.43.09"/><path class="cls-3" d="M108.82,67.64a1.18,1.18,0,1,1,0,1.67,1.17,1.17,0,0,1,0-1.67"/><path class="cls-3" d="M119.94,78.68a1.2,1.2,0,0,1,1.68,0A1.18,1.18,0,0,1,120,80.36a1.2,1.2,0,0,1,0-1.68"/><path class="cls-3" d="M108.86,80.4a1.2,1.2,0,0,1,0-1.68,1.18,1.18,0,0,1,1.68,1.67,1.2,1.2,0,0,1-1.68,0"/><path class="cls-3" d="M119.91,69.27a1.18,1.18,0,1,1,1.67,0,1.18,1.18,0,0,1-1.67,0"/><path class="cls-3" d="M108.65,74A1.19,1.19,0,1,1,111,74a1.19,1.19,0,0,1-2.37,0"/><path class="cls-3" d="M119.46,74.06a1.18,1.18,0,0,1,1.18-1.19,1.2,1.2,0,0,1,1.19,1.18,1.19,1.19,0,0,1-2.37,0"/><path class="cls-3" d="M115.25,67.45a1.19,1.19,0,1,1-1.18,1.19,1.18,1.18,0,0,1,1.18-1.19"/><path class="cls-3" d="M115.22,78.26a1.19,1.19,0,0,1,0,2.37,1.19,1.19,0,1,1,0-2.37"/></svg>