<svg id="Layer_1" data-name="Layer 1" xmlns="http://www.w3.org/2000/svg" viewBox="0 0 300 150"><defs><style>.cls-1,.cls-2{fill:#f16622;}.cls-2{fill-rule:evenodd;}</style></defs><path class="cls-1" d="M106.83,59.81a10.17,10.17,0,0,1,7.24,2.75A9.46,9.46,0,0,1,117,69.8,9.57,9.57,0,0,1,114.06,77a10.71,10.71,0,0,1-14.47,0,10.19,10.19,0,0,1,0-14.42,10.24,10.24,0,0,1,7.24-2.77Zm-4.5,9.91a4.18,4.18,0,0,0,1.29,3.16,4.39,4.39,0,0,0,3.18,1.22,4.33,4.33,0,0,0,3.13-1.25,4.47,4.47,0,0,0,0-6.29,4.76,4.76,0,0,0-6.33,0,4.14,4.14,0,0,0-1.3,3.15Z"/><polygon class="cls-1" points="85.09 60.44 90.72 60.44 90.72 74.11 96.24 74.11 96.24 79.15 85.09 79.15 85.09 60.44 85.09 60.44"/><path class="cls-1" d="M132.81,60.92v7.87a8.71,8.71,0,0,0-2-2.23,4.33,4.33,0,0,0-5.59.42A4.15,4.15,0,0,0,124,70a4,4,0,0,0,1.2,3,4.22,4.22,0,0,0,3,1.14,4.35,4.35,0,0,0,2.48-.71,9.48,9.48,0,0,0,2.09-2v7.35a11.26,11.26,0,0,1-2.22.79,10.42,10.42,0,0,1-2.35.24A10.09,10.09,0,0,1,121,76.91a9.92,9.92,0,0,1,0-14.21,10,10,0,0,1,7.23-2.89,9.79,9.79,0,0,1,4.57,1.11Z"/><path d="M150.71,75.19v2.72a7.59,7.59,0,0,1-1.27.71,8.35,8.35,0,0,1-1.35.48,15.64,15.64,0,0,1-1.81.36,12,12,0,0,1-1.6.12,8.5,8.5,0,0,1-6.33-2.44,11.69,11.69,0,0,1-3.16-5.33q-.15-.65-.24-1.26a9.89,9.89,0,0,1-.07-1.2V69a9.54,9.54,0,0,1,1.89-6,10.9,10.9,0,0,1,6.44-4,12,12,0,0,1,2.08-.23,13.14,13.14,0,0,1,3,.31,9,9,0,0,1,2.39.95v2.89a5.09,5.09,0,0,0-.45-.31l-.45-.3a9.7,9.7,0,0,0-2.25-1,7.58,7.58,0,0,0-7.82,2.15A7.86,7.86,0,0,0,137.39,69a7.65,7.65,0,0,0,2.45,6,8.06,8.06,0,0,0,5.55,2.21h.47l.46,0a8.51,8.51,0,0,0,2.26-.6,8.18,8.18,0,0,0,2.13-1.3v0Z"/><path d="M160.67,58.35l9.6,20.8h-2.73l-2.27-5h-9l-2.3,5h-2.69l9.35-20.8Zm0,5.61-3.51,7.9h7.05L160.67,64Z"/><path d="M171.37,59.38H177a5.47,5.47,0,0,1,3.49,1.42,6.05,6.05,0,0,1,1.74,2.71c.06.23.1.45.14.67a4.87,4.87,0,0,1,0,.65,5.38,5.38,0,0,1-1.48,4.07,6.37,6.37,0,0,1-3.52,1.74l6.45,8.51h-3.12l-5.81-8.32h-1.06v8.32h-2.48V59.38Zm2.48,2.3V69a11.25,11.25,0,0,0,4.46-.67,2.71,2.71,0,0,0,1.62-2.69v-.18a.18.18,0,0,1,0-.09v-.17a3.36,3.36,0,0,0-1.13-2.37c-.73-.71-2.12-1.08-4.16-1.1h-.37l-.2,0h-.2v0Z"/><polygon points="187.44 61.68 182.66 61.68 182.66 59.38 194.74 59.38 194.74 61.68 190.17 61.68 190.17 79.15 187.44 79.15 187.44 61.68 187.44 61.68"/><path d="M193.9,69a10.48,10.48,0,0,1,3.51-7.39,11,11,0,0,1,7.3-2.57,9.07,9.07,0,0,1,6.3,2.34,11.73,11.73,0,0,1,3.5,5.16,9.92,9.92,0,0,1,.29,1.26,6.39,6.39,0,0,1,.11,1.23A10.41,10.41,0,0,1,212,76.62a10.64,10.64,0,0,1-7.92,3h-.31a8.55,8.55,0,0,1-6.25-2.25,11.58,11.58,0,0,1-3.16-5,9.05,9.05,0,0,1-.35-1.48,10.22,10.22,0,0,1-.1-1.43V69Zm18.5.21a7.94,7.94,0,0,0-1.76-5,8.55,8.55,0,0,0-3.37-2.35,7.29,7.29,0,0,0-1.32-.38,12.21,12.21,0,0,0-1.24-.17h-.37a7.3,7.3,0,0,0-5.54,2.31A8.21,8.21,0,0,0,196.38,69v.45a7.9,7.9,0,0,0,2,5.35,8,8,0,0,0,6.11,2.52h.34a6.66,6.66,0,0,0,4.84-1.61A8.68,8.68,0,0,0,212,72.1a12.6,12.6,0,0,0,.29-1.26,7.14,7.14,0,0,0,.11-1.2V69.4a.2.2,0,0,1,0-.11v-.13Z"/><polygon points="118.1 82.35 118.1 89.31 117.1 89.31 117.1 82.35 114.52 82.35 114.52 81.47 120.67 81.47 120.67 82.35 118.1 82.35 118.1 82.35"/><path d="M120.9,83.68h.83v1A2.31,2.31,0,0,1,123,83.55a1.35,1.35,0,0,1,.29,0l.34,0v.91a2.15,2.15,0,0,0-1.11.24l-.06,0a1.92,1.92,0,0,0-.64,1.64v2.93h-.9V83.68Z"/><path d="M129.72,88.78v.68a2.79,2.79,0,0,1-.61.09.82.82,0,0,1-.91-.67,1,1,0,0,0,0-.16,2.93,2.93,0,0,1-1.91.83,1.62,1.62,0,0,1-1.85-1.66,1.51,1.51,0,0,1,1-1.51,6.86,6.86,0,0,1,1.4-.29l.41,0c.52-.07.82-.2.9-.41a.66.66,0,0,0,0-.21v-.24c0-.46-.29-.73-.87-.82l-.39,0q-1.1,0-1.29.81l0,.19h-.9a1.78,1.78,0,0,1,.39-1.17,2.38,2.38,0,0,1,1.87-.66c1.26,0,2,.42,2.09,1.25a1.37,1.37,0,0,1,0,.29v3.31c0,.29.16.44.49.44l.19,0Zm-1.57-1.25v-1a4.68,4.68,0,0,1-1.22.28l-.22,0c-.76.11-1.19.36-1.31.75a.85.85,0,0,0,0,.29.8.8,0,0,0,.72.85,1.46,1.46,0,0,0,.38,0,1.93,1.93,0,0,0,1.34-.51,1,1,0,0,0,.35-.73Z"/><path d="M135.29,85.57h-.9a1.24,1.24,0,0,0-1-1.21l-.29,0a1.4,1.4,0,0,0-1.39,1.08,3.7,3.7,0,0,0-.17,1.17,2,2,0,0,0,.85,2,1.44,1.44,0,0,0,.73.18c.77,0,1.22-.45,1.38-1.35h.9a2.14,2.14,0,0,1-1.24,2,2.54,2.54,0,0,1-1.06.21A2.19,2.19,0,0,1,131,88.42a3.49,3.49,0,0,1-.44-1.83,3.16,3.16,0,0,1,1-2.55,2.33,2.33,0,0,1,1.52-.53,2.2,2.2,0,0,1,1.76.73l.09.11a2.62,2.62,0,0,1,.37,1.22Z"/><polygon points="137.48 81.47 137.48 86.06 139.87 83.68 141.02 83.68 139.06 85.62 141.36 89.31 140.25 89.31 138.35 86.25 137.48 87.11 137.48 89.31 136.59 89.31 136.59 81.47 137.48 81.47 137.48 81.47"/><path d="M143.24,83.68v5.63h-.89V83.68Zm0-2.21V82.6h-.91V81.47Z"/><path d="M145.05,83.68h.83v.94a2.11,2.11,0,0,1,1.39-1.06,2.36,2.36,0,0,1,.48,0,1.68,1.68,0,0,1,1.58.76,1.56,1.56,0,0,1,.2.78v4.26h-.89v-3.9a1,1,0,0,0-.64-1,1.21,1.21,0,0,0-.52-.1,1.33,1.33,0,0,0-1.3.83A2.35,2.35,0,0,0,146,86.2v3.11h-.9V83.68Z"/><path d="M155,83.68h.83v4.7a4.51,4.51,0,0,1-.44,2.34l-.15.21a2.21,2.21,0,0,1-1.69.71h-.23a2.12,2.12,0,0,1-2-1,2,2,0,0,1-.23-.75H152a.94.94,0,0,0,.34.64,1.63,1.63,0,0,0,1,.31,1.44,1.44,0,0,0,1.25-.53,2.76,2.76,0,0,0,.32-1.54v-.29a2.14,2.14,0,0,1-1.42,1l-.29,0a2.08,2.08,0,0,1-1.55-.69l-.06-.06a3.3,3.3,0,0,1-.71-2.21,3.25,3.25,0,0,1,.91-2.5,2.13,2.13,0,0,1,1.49-.58,2,2,0,0,1,1.71,1v-.81Zm-1.62.66a1.36,1.36,0,0,0-1.34,1,3.2,3.2,0,0,0-.22,1.22,2.14,2.14,0,0,0,.84,2,1.43,1.43,0,0,0,2.07-.79,3.41,3.41,0,0,0,.19-1.17c0-1.08-.29-1.77-.88-2.08a1.43,1.43,0,0,0-.66-.15Z"/><path d="M160.56,83.68h.83v.79a2,2,0,0,1,1.37-.93,2,2,0,0,1,.35,0,1.59,1.59,0,0,1,1.42.7,1.4,1.4,0,0,1,.1.16,2.18,2.18,0,0,1,1.26-.81,2.26,2.26,0,0,1,.47,0,1.43,1.43,0,0,1,1.58,1.06,2.67,2.67,0,0,1,.05.51v4.23h-.9V85.43a1,1,0,0,0-.68-1.08,1.36,1.36,0,0,0-.36,0,1.23,1.23,0,0,0-1.06.58,1.6,1.6,0,0,0-.26.89v3.54h-.91V85.43c0-.63-.25-1-.76-1.1a1.25,1.25,0,0,0-1.34.57,1.56,1.56,0,0,0-.26.87v3.54h-.9V83.68Z"/><path d="M174.79,88.78v.68a2.71,2.71,0,0,1-.61.09.8.8,0,0,1-.9-.67l0-.16a2.93,2.93,0,0,1-1.91.83,1.62,1.62,0,0,1-1.85-1.66,1.51,1.51,0,0,1,1-1.51,7,7,0,0,1,1.4-.29l.41,0c.52-.07.82-.2.9-.41a.66.66,0,0,0,0-.21v-.24c0-.46-.29-.73-.87-.82l-.39,0c-.73,0-1.16.27-1.28.81a1.29,1.29,0,0,0,0,.19h-.9a1.78,1.78,0,0,1,.39-1.17,2.38,2.38,0,0,1,1.87-.66c1.26,0,2,.42,2.09,1.25a1.37,1.37,0,0,1,0,.29v3.31c0,.29.16.44.49.44l.19,0Zm-1.57-1.25v-1a4.68,4.68,0,0,1-1.22.28l-.22,0c-.76.11-1.19.36-1.31.75a.85.85,0,0,0,0,.29.8.8,0,0,0,.72.85,1.46,1.46,0,0,0,.38,0,1.93,1.93,0,0,0,1.34-.51,1,1,0,0,0,.35-.73Z"/><path d="M180.62,81.47v7.84h-.79v-.75a2.11,2.11,0,0,1-1.55,1H178a2.16,2.16,0,0,1-2-1.2,4,4,0,0,1-.41-1.87,3,3,0,0,1,1-2.46,2.2,2.2,0,0,1,1.46-.51,1.93,1.93,0,0,1,1.73.87V81.47Zm-2.47,2.88a1.43,1.43,0,0,0-1.35.88,2.39,2.39,0,0,0-.27,1c0,.11,0,.23,0,.34a2.22,2.22,0,0,0,.75,1.89,1.4,1.4,0,0,0,.89.29,1.37,1.37,0,0,0,1.31-.88,3,3,0,0,0,.26-1.28,2.24,2.24,0,0,0-.77-2,1.36,1.36,0,0,0-.81-.25Z"/><path d="M187.08,86.79h-4.15a2.21,2.21,0,0,0,.3,1.2,1.5,1.5,0,0,0,1.35.73,1.45,1.45,0,0,0,1.47-1.12H187a2.2,2.2,0,0,1-1.36,1.76,2.69,2.69,0,0,1-1,.19,2.29,2.29,0,0,1-2.14-1.18,3.58,3.58,0,0,1-.42-1.8A3.08,3.08,0,0,1,183,84a2.42,2.42,0,0,1,1.57-.53,2.34,2.34,0,0,1,1.94.89,2.18,2.18,0,0,1,.34.6,5.3,5.3,0,0,1,.23,1.79ZM183,86.06h3.16s0,0,0-.06a1.61,1.61,0,0,0-.63-1.35,1.57,1.57,0,0,0-.93-.31,1.43,1.43,0,0,0-1.35.81,2.15,2.15,0,0,0-.26.91Z"/><path d="M196.32,86.79h-4.14a2,2,0,0,0,.3,1.2,1.49,1.49,0,0,0,1.35.73,1.45,1.45,0,0,0,1.47-1.12h.9a2.17,2.17,0,0,1-1.35,1.76,2.73,2.73,0,0,1-1,.19,2.28,2.28,0,0,1-2.14-1.18,3.58,3.58,0,0,1-.42-1.8,3.08,3.08,0,0,1,1-2.53,2.4,2.4,0,0,1,1.57-.53,2.32,2.32,0,0,1,1.93.89,2,2,0,0,1,.35.6,5.35,5.35,0,0,1,.22,1.79Zm-4.12-.73h3.16s0,0,0-.06a1.59,1.59,0,0,0-.64-1.35,1.52,1.52,0,0,0-.92-.31,1.46,1.46,0,0,0-1.36.81,2.3,2.3,0,0,0-.25.91Z"/><path d="M202.82,88.78v.68a2.79,2.79,0,0,1-.61.09.82.82,0,0,1-.91-.67,1,1,0,0,0,0-.16,2.93,2.93,0,0,1-1.91.83,1.62,1.62,0,0,1-1.85-1.66,1.51,1.51,0,0,1,1-1.51,6.86,6.86,0,0,1,1.4-.29l.41,0c.52-.07.82-.2.9-.41a.66.66,0,0,0,0-.21v-.24c0-.46-.29-.73-.87-.82l-.39,0q-1.1,0-1.29.81l0,.19h-.9a1.78,1.78,0,0,1,.39-1.17,2.38,2.38,0,0,1,1.87-.66c1.26,0,2,.42,2.09,1.25a1.37,1.37,0,0,1,0,.29v3.31c0,.29.16.44.49.44l.19,0Zm-1.57-1.25v-1a4.68,4.68,0,0,1-1.22.28l-.22,0c-.76.11-1.19.36-1.31.75a.85.85,0,0,0,0,.29.8.8,0,0,0,.72.85,1.46,1.46,0,0,0,.38,0,1.93,1.93,0,0,0,1.34-.51,1,1,0,0,0,.35-.73Z"/><path d="M208,85.24h-.95c0-.6-.39-.9-1.13-.9-.58,0-1,.18-1.12.53a.71.71,0,0,0-.07.32c0,.32.24.56.71.72l.33.09.86.2c.85.2,1.35.55,1.52,1a1.68,1.68,0,0,1,.07.52,1.56,1.56,0,0,1-1,1.5,3,3,0,0,1-1.36.28c-1.39,0-2.13-.58-2.23-1.74a1.09,1.09,0,0,1,0-.18h.94a1.36,1.36,0,0,0,.26.72,1.48,1.48,0,0,0,1.12.37,1.27,1.27,0,0,0,1.2-.5.7.7,0,0,0-.47-1.07l-.29-.09-.84-.2A2.57,2.57,0,0,1,204,86a1.49,1.49,0,0,1-.17-.77,1.52,1.52,0,0,1,.9-1.45,2.73,2.73,0,0,1,1.26-.27c1,0,1.68.37,1.93,1.09a1.87,1.87,0,0,1,.11.64Z"/><path d="M213.16,83.68h1l-2.51,6.81a1.9,1.9,0,0,1-.61.89,1.36,1.36,0,0,1-.84.27,1.33,1.33,0,0,1-.6-.14V90.7a2.54,2.54,0,0,0,.47.07.69.69,0,0,0,.68-.43.56.56,0,0,0,0-.12l.35-.89-1.9-5.65h.95l1.44,4.38,1.56-4.38Z"/><polygon class="cls-2" points="111.8 81.48 106.8 88.92 101.81 81.48 111.8 81.48 111.8 81.48"/></svg>