<svg xmlns="http://www.w3.org/2000/svg" width="127.76" height="96.315" viewBox="0 0 127.76 96.315">
  <g id="Layer_30" transform="translate(2814.34 -808.12)">
    <g id="Group_82687" data-name="Group 82687" transform="translate(-2803.797 865.075)">
      <path id="Path_1047" data-name="Path 1047" d="M-2645.022,919.138l-13.54-10.788-6.4,3.148-25.969,12.792" transform="translate(2750.921 -907.897)" fill="none" stroke="#fff" stroke-linecap="round" stroke-linejoin="round" stroke-width="3"/>
      <path id="Path_1048" data-name="Path 1048" d="M-2745.2,921.658h-33.846a2.264,2.264,0,0,0-2.265,2.265v22.062a2.177,2.177,0,0,0,2.18,2.18h52.589a2.994,2.994,0,0,0,2.571-1.45l19.808-32.815" transform="translate(2790.121 -910.304)" fill="none" stroke="#fff" stroke-linecap="round" stroke-linejoin="round" stroke-width="3"/>
      <line id="Line_479" data-name="Line 479" y1="11.354" transform="translate(27.022)" fill="none" stroke="#fff" stroke-linecap="round" stroke-linejoin="round" stroke-width="3"/>
      <line id="Line_480" data-name="Line 480" x2="17.141" transform="translate(18.449)" fill="none" stroke="#fff" stroke-linecap="round" stroke-linejoin="round" stroke-width="3"/>
      <line id="Line_481" data-name="Line 481" y1="12.118" x2="12.118" transform="translate(0 3.069)" fill="none" stroke="#fff" stroke-linecap="round" stroke-linejoin="round" stroke-width="3"/>
      <path id="Path_1049" data-name="Path 1049" d="M-2608.288,936.5s-4.972,9.564-5.125,10.482a4.665,4.665,0,0,0,1.172,3.392,5.6,5.6,0,0,0,4.094,1.886,5.22,5.22,0,0,0,4.247-1.982,4.8,4.8,0,0,0,.838-2.746Q-2605.686,942.018-2608.288,936.5Z" transform="translate(2717.312 -920.107)" fill="#fff"/>
    </g>
    <path id="Path_1050" data-name="Path 1050" d="M-2706.694,944.624a5.539,5.539,0,0,1-5.538,5.538,5.539,5.539,0,0,1-5.538-5.538,5.54,5.54,0,0,1,5.538-5.544,5.454,5.454,0,0,1,2.276.487,5.754,5.754,0,0,1,1.614,1.1A5.548,5.548,0,0,1-2706.694,944.624Z" transform="translate(-41.235 -56.151)" fill="none"/>
    <path id="Path_1051" data-name="Path 1051" d="M-2706.694,944.254a5.539,5.539,0,0,1-5.538,5.538,5.539,5.539,0,0,1-5.538-5.538,5.54,5.54,0,0,1,5.538-5.544,5.455,5.455,0,0,1,2.276.487,5.754,5.754,0,0,1,1.614,1.1A5.548,5.548,0,0,1-2706.694,944.254Z" transform="translate(-41.235 -55.99)" fill="none" stroke="#fff" stroke-linecap="round" stroke-linejoin="round" stroke-width="3"/>
    <g id="Group_82688" data-name="Group 82688" transform="translate(-2812.84 809.62)">
      <path id="Path_1052" data-name="Path 1052" d="M-2812.84,872a62.38,62.38,0,0,1,62.38-62.38A62.38,62.38,0,0,1-2688.08,872" transform="translate(2812.84 -809.62)" fill="none" stroke="#fff" stroke-linecap="round" stroke-linejoin="round" stroke-width="3"/>
      <line id="Line_482" data-name="Line 482" x2="10.368" y2="6.065" transform="translate(2.911 43.495)" fill="none" stroke="#fff" stroke-linecap="round" stroke-linejoin="round" stroke-width="3"/>
      <line id="Line_483" data-name="Line 483" x2="7.305" y2="9.536" transform="translate(22.894 14.066)" fill="none" stroke="#fff" stroke-linecap="round" stroke-linejoin="round" stroke-width="3"/>
      <line id="Line_484" data-name="Line 484" x1="6.065" y2="10.374" transform="translate(88.751 9.598)" fill="none" stroke="#fff" stroke-linecap="round" stroke-linejoin="round" stroke-width="3"/>
      <line id="Line_485" data-name="Line 485" x1="9.536" y2="7.305" transform="translate(111 39.945)" fill="none" stroke="#fff" stroke-linecap="round" stroke-linejoin="round" stroke-width="3"/>
      <line id="Line_486" data-name="Line 486" y2="12.016" transform="translate(59.305 0.294)" fill="none" stroke="#fff" stroke-linecap="round" stroke-linejoin="round" stroke-width="3"/>
    </g>
    <line id="Line_487" data-name="Line 487" x1="15.068" y1="5.04" transform="translate(-2758.875 876.428)" fill="none" stroke="#fff" stroke-linecap="round" stroke-linejoin="round" stroke-width="3"/>
    <path id="Path_1053" data-name="Path 1053" d="M-2707.343,902.864a11.659,11.659,0,0,0-4.264-3.743V858.95h-10.8v40.171a11.745,11.745,0,0,0-6.359,10.448,11.761,11.761,0,0,0,11.761,11.756,11.76,11.76,0,0,0,11.756-11.756A11.637,11.637,0,0,0-2707.343,902.864Zm-9.666,12.339a5.536,5.536,0,0,1-5.538-5.538,5.54,5.54,0,0,1,5.538-5.544,5.455,5.455,0,0,1,2.276.487,5.751,5.751,0,0,1,1.614,1.1,5.52,5.52,0,0,1,1.654,3.953A5.544,5.544,0,0,1-2717.009,915.2Z" transform="translate(-36.464 -21.396)" fill="#fff" stroke="#fff" stroke-linecap="round" stroke-linejoin="round" stroke-width="3"/>
    <line id="Line_488" data-name="Line 488" y1="39.754" transform="translate(-2753.472 845.307)" fill="none" stroke="#354b9c" stroke-linecap="round" stroke-linejoin="round" stroke-width="3"/>
    <line id="Line_489" data-name="Line 489" x2="8.013" transform="translate(-2745.16 843.07)" fill="none" stroke="#fff" stroke-linecap="round" stroke-linejoin="round" stroke-width="3"/>
    <line id="Line_490" data-name="Line 490" x2="4.009" transform="translate(-2745.16 848.749)" fill="none" stroke="#fff" stroke-linecap="round" stroke-linejoin="round" stroke-width="3"/>
    <line id="Line_491" data-name="Line 491" x2="4.009" transform="translate(-2745.16 860.114)" fill="none" stroke="#fff" stroke-linecap="round" stroke-linejoin="round" stroke-width="3"/>
    <line id="Line_492" data-name="Line 492" x2="8.013" transform="translate(-2745.16 854.429)" fill="none" stroke="#fff" stroke-linecap="round" stroke-linejoin="round" stroke-width="3"/>
    <line id="Line_493" data-name="Line 493" x2="8.013" transform="translate(-2745.16 865.794)" fill="none" stroke="#fff" stroke-linecap="round" stroke-linejoin="round" stroke-width="3"/>
    <path id="Path_1054" data-name="Path 1054" d="M-2690.93,936.5" transform="translate(-52.876 -55.032)" fill="#fff" stroke="#fff" stroke-linecap="round" stroke-linejoin="round" stroke-width="3"/>
  </g>
</svg>
