<svg xmlns="http://www.w3.org/2000/svg" width="132.138" height="152.722" viewBox="0 0 132.138 152.722">
  <g id="Polygon_3" data-name="Polygon 3" transform="matrix(-0.017, 1, -1, -0.017, 132.138, 2.261)" fill="none">
    <path d="M101.352,0a20,20,0,0,1,17.294,9.954l26,44.766a20,20,0,0,1,0,20.091l-26,44.766a20,20,0,0,1-17.294,9.954H49.133a20,20,0,0,1-17.294-9.954l-26-44.766a20,20,0,0,1,0-20.091l26-44.766A20,20,0,0,1,49.133,0Z" stroke="none"/>
    <path d="M 49.13291168212891 1 C 45.81112670898438 1 42.53360748291016 1.875892639160156 39.65467071533203 3.532974243164062 C 36.77573394775391 5.190078735351562 34.37209320068359 7.584197998046875 32.70359039306641 10.45653533935547 L 6.700057983398438 55.22235870361328 C 5.018310546875 58.11753845214844 4.129364013671875 61.41761779785156 4.129364013671875 64.76581573486328 C 4.129364013671875 68.11399841308594 5.018310546875 71.41407775878906 6.700057983398438 74.30928039550781 L 32.70356750488281 119.0750732421875 C 34.3720703125 121.9474182128906 36.77571105957031 124.341552734375 39.65464782714844 125.9986572265625 C 42.53359222412109 127.6557388305664 45.81112670898438 128.5316314697266 49.13291168212891 128.5316314697266 L 101.3515090942383 128.5316314697266 C 104.6732940673828 128.5316314697266 107.9508285522461 127.6557540893555 110.8297729492188 125.9986572265625 C 113.7087097167969 124.3415756225586 116.1123504638672 121.9474334716797 117.7808303833008 119.0750961303711 L 143.7843627929688 74.30928039550781 C 145.4661102294922 71.41409301757812 146.3550262451172 68.114013671875 146.3550262451172 64.76581573486328 C 146.3550262451172 61.41761779785156 145.4661102294922 58.11753845214844 143.7843627929688 55.22235870361328 L 117.7808303833008 10.45653533935547 C 116.1123504638672 7.584197998046875 113.7087097167969 5.190078735351562 110.8297729492188 3.532974243164062 C 107.9508285522461 1.875892639160156 104.6732940673828 1 101.3515090942383 1 L 49.13291168212891 1 M 49.13291168212891 0 L 101.3515090942383 0 C 108.4779510498047 0 115.0660247802734 3.792037963867188 118.6455307006836 9.954254150390625 L 144.6490631103516 54.72007751464844 C 148.2570343017578 60.93129730224609 148.2570343017578 68.60033416748047 144.6490631103516 74.81155395507812 L 118.6455307006836 119.5773773193359 C 115.0660247802734 125.739616394043 108.4779510498047 129.5316314697266 101.3515090942383 129.5316314697266 L 49.13291168212891 129.5316314697266 C 42.0064697265625 129.5316314697266 35.41838836669922 125.7395935058594 31.8388671875 119.5773544311523 L 5.835357666015625 74.81155395507812 C 2.227386474609375 68.60031127929688 2.227386474609375 60.93129730224609 5.835357666015625 54.72007751464844 L 31.83889007568359 9.954254150390625 C 35.41841125488281 3.792037963867188 42.0064697265625 0 49.13291168212891 0 Z" stroke="none" fill="#dcdcdc"/>
  </g>
</svg>
