<svg id="Layer_1" data-name="Layer 1" xmlns="http://www.w3.org/2000/svg" viewBox="0 0 130 130"><defs><style>.cls-1,.cls-2,.cls-3{fill:none;}.cls-1{stroke:#182ac3;}.cls-1,.cls-3{stroke-miterlimit:10;}.cls-2,.cls-3{stroke:#fff;}.cls-2{stroke-linecap:round;stroke-linejoin:round;stroke-width:4px;}</style></defs><rect class="cls-1" x="-635.79" y="-198.9" width="975.22" height="471.09"/><polygon class="cls-2" points="116.92 75.62 74.63 75.62 74.63 55.37 45.08 55.37 45.08 18.98 116.92 18.98 116.92 75.62"/><rect class="cls-2" x="94.19" y="32.7" width="7.88" height="7.88"/><line class="cls-2" x1="91.55" y1="48.68" x2="107.93" y2="48.68"/><line class="cls-2" x1="91.55" y1="55.41" x2="107.93" y2="55.41"/><line class="cls-2" x1="91.55" y1="62.15" x2="107.93" y2="62.15"/><path class="cls-2" d="M15.52,55.37v59.11H74.63V55.37ZM52.59,89.11a4.2,4.2,0,0,1-4.19-4.19,4.12,4.12,0,0,1,.2-1.27,4.18,4.18,0,1,1,4,5.46Z"/><line class="cls-2" x1="26.48" y1="55.37" x2="26.48" y2="47.14"/><line class="cls-2" x1="35.78" y1="55.37" x2="35.78" y2="47.14"/><line class="cls-2" x1="45.08" y1="55.37" x2="45.08" y2="47.14"/><line class="cls-2" x1="54.38" y1="55.37" x2="54.38" y2="47.14"/><line class="cls-2" x1="63.68" y1="55.37" x2="63.68" y2="47.14"/><line class="cls-2" x1="26.48" y1="122.71" x2="26.48" y2="114.48"/><line class="cls-2" x1="35.78" y1="122.71" x2="35.78" y2="114.48"/><line class="cls-2" x1="45.08" y1="122.71" x2="45.08" y2="114.48"/><line class="cls-2" x1="54.38" y1="122.71" x2="54.38" y2="114.48"/><line class="cls-2" x1="63.68" y1="122.71" x2="63.68" y2="114.48"/><line class="cls-2" x1="74.63" y1="66.32" x2="82.86" y2="66.32"/><line class="cls-2" x1="74.63" y1="75.62" x2="82.86" y2="75.62"/><line class="cls-2" x1="74.63" y1="84.92" x2="82.86" y2="84.92"/><line class="cls-2" x1="74.63" y1="94.22" x2="82.86" y2="94.22"/><line class="cls-2" x1="74.63" y1="103.52" x2="82.86" y2="103.52"/><line class="cls-2" x1="7.29" y1="66.32" x2="15.52" y2="66.32"/><line class="cls-2" x1="7.29" y1="75.62" x2="15.52" y2="75.62"/><line class="cls-2" x1="7.29" y1="84.92" x2="15.52" y2="84.92"/><line class="cls-2" x1="7.29" y1="94.22" x2="15.52" y2="94.22"/><line class="cls-2" x1="7.29" y1="103.52" x2="15.52" y2="103.52"/><path class="cls-2" d="M25.48,65.32v39.2h39.2V65.32ZM48.4,84.92a4.12,4.12,0,0,1,.2-1.27,4.18,4.18,0,1,1-.2,1.27Z"/><line class="cls-2" x1="35.51" y1="97.5" x2="35.51" y2="104.52"/><path class="cls-2" d="M39.69,93.31a4.19,4.19,0,1,1-4.18-4.18A4.19,4.19,0,0,1,39.69,93.31Z"/><path class="cls-2" d="M25.48,76.29h10.3A4.19,4.19,0,0,0,40,80.48v.42"/><polyline class="cls-2" points="48.4 84.92 39.96 84.92 39.96 80.9"/><line class="cls-2" x1="52.59" y1="80.74" x2="52.59" y2="65.32"/><polyline class="cls-2" points="52.59 104.52 52.59 97.5 52.59 89.11"/><line class="cls-2" x1="64.68" y1="97.5" x2="52.59" y2="97.5"/><path class="cls-2" d="M44.15,76.29A4.19,4.19,0,1,1,40,72.11,4.2,4.2,0,0,1,44.15,76.29Z"/><path class="cls-2" d="M56.77,84.92a4.19,4.19,0,1,1-8.37,0,4.12,4.12,0,0,1,.2-1.27,4.18,4.18,0,0,1,8.17,1.27Z"/><rect class="cls-3" x="-539.3" y="-75.03" width="782.23" height="299.84"/></svg>