<svg id="Layer_1" data-name="Layer 1" xmlns="http://www.w3.org/2000/svg" viewBox="0 0 130 130"><defs><style>.cls-1{fill:#182ac3;}.cls-2,.cls-3{fill:none;}.cls-2,.cls-3,.cls-4{stroke:#fff;}.cls-2{stroke-miterlimit:10;}.cls-3,.cls-4{stroke-linecap:round;stroke-linejoin:round;stroke-width:4px;}.cls-4{fill:#0561fc;}</style></defs><rect class="cls-1" x="-153.26" y="-134.55" width="1682.04" height="797.25"/><rect class="cls-2" x="-131.14" y="-926.66" width="1621.72" height="1570.98"/><rect class="cls-3" x="18.04" y="46.68" width="64.89" height="64.89"/><line class="cls-4" x1="30.07" y1="46.68" x2="30.07" y2="37.65"/><line class="cls-4" x1="40.28" y1="46.68" x2="40.28" y2="37.65"/><line class="cls-4" x1="50.49" y1="46.68" x2="50.49" y2="37.65"/><line class="cls-4" x1="60.7" y1="46.68" x2="60.7" y2="37.65"/><line class="cls-4" x1="70.91" y1="46.68" x2="70.91" y2="37.65"/><line class="cls-4" x1="30.07" y1="120.6" x2="30.07" y2="111.57"/><line class="cls-4" x1="40.28" y1="120.6" x2="40.28" y2="111.57"/><line class="cls-4" x1="50.49" y1="120.6" x2="50.49" y2="111.57"/><line class="cls-4" x1="60.7" y1="120.6" x2="60.7" y2="111.57"/><line class="cls-4" x1="70.91" y1="120.6" x2="70.91" y2="111.57"/><line class="cls-4" x1="82.93" y1="58.71" x2="91.97" y2="58.71"/><line class="cls-4" x1="82.93" y1="68.92" x2="91.97" y2="68.92"/><line class="cls-4" x1="82.93" y1="79.13" x2="91.97" y2="79.13"/><line class="cls-4" x1="82.93" y1="89.34" x2="91.97" y2="89.34"/><line class="cls-4" x1="82.93" y1="99.55" x2="91.97" y2="99.55"/><line class="cls-4" x1="9.01" y1="58.71" x2="18.04" y2="58.71"/><line class="cls-4" x1="9.01" y1="68.92" x2="18.04" y2="68.92"/><line class="cls-4" x1="9.01" y1="79.13" x2="18.04" y2="79.13"/><line class="cls-4" x1="9.01" y1="89.34" x2="18.04" y2="89.34"/><line class="cls-4" x1="9.01" y1="99.55" x2="18.04" y2="99.55"/><rect class="cls-3" x="28.97" y="57.61" width="43.04" height="43.04"/><rect class="cls-3" x="112.57" y="56.37" width="8.43" height="53.92"/><polyline class="cls-3" points="116.78 56.37 116.78 30.84 106.82 12.2 84.74 9.39 74.27 12.71 74.27 20.88 74.27 12.71 84.74 9.39 89.84 18.33 84.23 24.97"/></svg>