<svg id="Layer_1" data-name="Layer 1" xmlns="http://www.w3.org/2000/svg" viewBox="0 0 130 130"><defs><style>.cls-1{fill:#182ac3;}.cls-2,.cls-3{fill:none;stroke:#fff;}.cls-2{stroke-miterlimit:10;}.cls-3{stroke-linecap:round;stroke-linejoin:round;stroke-width:3px;}.cls-4{fill:#fff;}</style></defs><rect class="cls-1" x="-953.26" y="-534.55" width="1682.04" height="797.25"/><rect class="cls-2" x="-931.14" y="-1326.66" width="1621.72" height="1570.98"/><g id="Layer_17" data-name="Layer 17"><path id="Path_991" data-name="Path 991" class="cls-3" d="M107.36,114.71H22.64a7.35,7.35,0,0,1-7.35-7.35V22.64a7.35,7.35,0,0,1,7.35-7.35h84.72a7.35,7.35,0,0,1,7.35,7.35v84.72a7.35,7.35,0,0,1-7.35,7.35Z"/><line id="Line_463" data-name="Line 463" class="cls-3" x1="15.29" y1="41.54" x2="114.71" y2="41.54"/><circle id="Ellipse_195" data-name="Ellipse 195" class="cls-4" cx="78.26" cy="28.12" r="4.09"/><circle id="Ellipse_196" data-name="Ellipse 196" class="cls-4" cx="91.7" cy="28.12" r="4.09"/><circle id="Ellipse_197" data-name="Ellipse 197" class="cls-4" cx="104.69" cy="28.12" r="4.09"/><path id="Path_992" data-name="Path 992" class="cls-3" d="M31.06,68s12.05,1.5,17.27-6.15c2.78,2.79,7.38,7.77,17,5.22C65.1,61,68.44,47.16,49.13,47.69,49.13,47.69,28.22,43.4,31.06,68Z"/><path id="Path_993" data-name="Path 993" class="cls-3" d="M35.34,68.09s-1,8.28,1.28,12.16,5.27,6.91,12.23,7.3,11.47-5.16,12.63-10.49a20.57,20.57,0,0,0,0-9.3"/><path id="Path_994" data-name="Path 994" class="cls-3" d="M64.29,67.36S68,67,68.15,69.6c.13,2.29.87,6.05-.84,7.12-1.19.74-5.9.67-5.9.67"/><path id="Path_995" data-name="Path 995" class="cls-3" d="M32.62,68.16s-3.71-.34-3.86,2.24c-.13,2.29-.87,6.06.84,7.13,1.19.74,5.9.67,5.9.67"/><path id="Path_996" data-name="Path 996" class="cls-3" d="M65.1,77.24V82h-17"/><path id="Path_997" data-name="Path 997" class="cls-3" d="M41.71,85.66v6.39l6.84,8.6,6.21-7.5V86.31"/><path id="Path_998" data-name="Path 998" class="cls-3" d="M36.85,93.16l3.48,12.36,8.22-4.87,8.05,4.87L59.45,94"/><path id="Path_999" data-name="Path 999" class="cls-3" d="M23.75,114.71s-3.79-21.1,18-22.66"/><path id="Path_1000" data-name="Path 1000" class="cls-3" d="M73.36,114.71s2.87-22.92-18.6-22.14"/><path id="Path_1001" data-name="Path 1001" class="cls-4" d="M108.18,51.61V72.84l-6.16-4H77.53a2.3,2.3,0,0,1-2.3-2.3h0V51.61a2.3,2.3,0,0,1,2.3-2.3h28.35A2.3,2.3,0,0,1,108.18,51.61Z"/><line id="Line_464" data-name="Line 464" class="cls-3" x1="24.69" y1="28.13" x2="33.39" y2="28.13"/><line id="Line_465" data-name="Line 465" class="cls-3" x1="42.93" y1="28.13" x2="61.6" y2="28.13"/><circle id="Ellipse_198" data-name="Ellipse 198" class="cls-1" cx="85.27" cy="59.04" r="4.09"/><circle id="Ellipse_199" data-name="Ellipse 199" class="cls-1" cx="98.66" cy="59.04" r="4.09"/><circle id="Ellipse_200" data-name="Ellipse 200" class="cls-3" cx="92.86" cy="94.24" r="14.6"/><path id="Path_1002" data-name="Path 1002" class="cls-3" d="M78.26,93.7s18.22,6.92,29.21-.54"/><path id="Path_1003" data-name="Path 1003" class="cls-3" d="M92.86,108.83V79.63S75.15,93.53,92.86,108.83Z"/><path id="Path_1004" data-name="Path 1004" class="cls-3" d="M92.86,79.64s16.2,14,0,29.2"/></g></svg>