<svg id="Layer_1" data-name="Layer 1" xmlns="http://www.w3.org/2000/svg" viewBox="0 0 130 130"><defs><style>.cls-1,.cls-3{fill:#182ac3;}.cls-2,.cls-4,.cls-8{fill:none;}.cls-2,.cls-3,.cls-4,.cls-8{stroke:#fff;}.cls-2{stroke-miterlimit:10;}.cls-3,.cls-4{stroke-linecap:round;stroke-linejoin:round;stroke-width:3px;}.cls-5,.cls-7{fill:#fff;}.cls-6,.cls-7,.cls-8{isolation:isolate;}.cls-7,.cls-8{font-size:16px;font-family:SegoeUI, Segoe UI;}</style></defs><rect class="cls-1" x="-1353.26" y="-534.55" width="1682.04" height="797.25"/><rect class="cls-2" x="-1331.14" y="-1326.66" width="1621.72" height="1570.98"/><g id="Layer_18" data-name="Layer 18"><path id="Path_1005" data-name="Path 1005" class="cls-3" d="M83.74,120.32s2.8-22.4-18.19-21.64L52.8,98.17c-21.26,1.53-17.56,22.15-17.56,22.15"/><path class="cls-4" d="M124.16,30.4V113a7.28,7.28,0,0,1-7.28,7.28H34.24A7.28,7.28,0,0,1,27,113V43.63a5.51,5.51,0,0,1,1.09-.77A5.21,5.21,0,0,1,34.38,44c.64.67,1.21,1.44,2.29,1.31a2.38,2.38,0,0,0,.84-.12,20,20,0,0,0,5.28-3.16,2.22,2.22,0,0,0,.77-2.88,5.31,5.31,0,0,1,3-6.91,5.07,5.07,0,0,1,1.2-.32,2.43,2.43,0,0,0,2.16-2.18,17.49,17.49,0,0,0,.21-5.59,7.36,7.36,0,0,0-.21-1.06h67A7.28,7.28,0,0,1,124.16,30.4Z"/><path id="Path_1007" data-name="Path 1007" class="cls-4" d="M42.38,74.68s11.78,1.48,16.88-6c2.72,2.72,7.22,7.59,16.64,5.1-.24-6,3-19.49-15.85-19C60.05,54.8,39.6,50.6,42.38,74.68Z"/><path id="Path_1008" data-name="Path 1008" class="cls-4" d="M46.57,74.74s-1,8.1,1.24,11.9,5.16,6.75,12,7.14,11.21-5,12.35-10.25a20.26,20.26,0,0,0,0-9.1"/><path id="Path_1009" data-name="Path 1009" class="cls-4" d="M74.4,74.17s3-.32,3.14,2.16c.1,2.2.71,5.83-.68,6.86-1,.72-4.8.64-4.8.64"/><path id="Path_1010" data-name="Path 1010" class="cls-4" d="M44.31,74.81S41.22,74.48,41.1,77c-.11,2.24-.73,5.92.7,7,1,.73,4.92.65,4.92.65"/><path id="Path_1011" data-name="Path 1011" class="cls-3" d="M52.79,91.92v6.25l6.69,8.41,6.06-7.33v-6.7S59,95.7,52.79,91.92Z"/><path id="Path_1012" data-name="Path 1012" class="cls-4" d="M48,99.25l3.4,12.09,8-4.76,7.87,4.76L70.14,100"/><path id="Path_1013" data-name="Path 1013" class="cls-4" d="M55.37,86.15a7.6,7.6,0,0,0,9.69,0"/><circle id="Ellipse_201" data-name="Ellipse 201" class="cls-5" cx="56.03" cy="79.26" r="2.76"/><circle id="Ellipse_202" data-name="Ellipse 202" class="cls-5" cx="65.06" cy="79.26" r="2.76"/><line id="Line_466" data-name="Line 466" class="cls-4" x1="94.5" y1="40.63" x2="117.44" y2="40.63"/><line id="Line_467" data-name="Line 467" class="cls-4" x1="88.61" y1="47.21" x2="117.44" y2="47.21"/><g id="Group_82681" data-name="Group 82681"><g id="_20" data-name=" 20" class="cls-6"><text class="cls-7" transform="translate(87.35 106.17)">20</text><text class="cls-8" transform="translate(87.35 106.17)">20</text></g><line id="Line_468" data-name="Line 468" class="cls-4" x1="113.59" y1="96.08" x2="113.59" y2="107.12"/><line id="Line_469" data-name="Line 469" class="cls-4" x1="108.06" y1="101.65" x2="119.11" y2="101.65"/></g><path id="Path_1014" data-name="Path 1014" class="cls-4" d="M102.65,59.52l3.87,3.87,7.4-7.41"/><path id="Path_1015" data-name="Path 1015" class="cls-4" d="M102.65,80.47l3.87,3.87,7.4-7.41"/><path id="Path_1016" data-name="Path 1016" class="cls-3" d="M70,33.84c2.61-2,5.8-2.37,7.94-1a5.62,5.62,0,0,1,2.29,3.48c.77,3.68-2.43,7-4.27,8.94a20.43,20.43,0,0,1-5.89,4.24,22,22,0,0,1-6.57-5c-1.82-2.06-3.71-4.19-3.62-7.14a7.45,7.45,0,0,1,1.25-3.82S64.78,28.94,70,33.84Z"/><path id="Path_1017" data-name="Path 1017" class="cls-4" d="M27,32.5a6.94,6.94,0,0,1-1.57-1.23A6.75,6.75,0,0,0,27,32.52a6,6,0,0,0,3.24.79h0A5.89,5.89,0,0,1,27,32.5Z"/><path class="cls-4" d="M50.11,24.18a7.36,7.36,0,0,0-.21-1.06,2.46,2.46,0,0,0-1.95-2c-3.6-.76-5.29-3.56-4.25-7.11a2.48,2.48,0,0,0-.86-2.89A20.77,20.77,0,0,0,37.62,8c-1.5-.61-2.23-.49-3.31.68a5.21,5.21,0,0,1-2.52,1.65,5.3,5.3,0,0,1-5.62-1.61C25.07,7.5,24.3,7.39,22.78,8a20.47,20.47,0,0,0-4.62,2.62,2.44,2.44,0,0,0-1,3.23A5.27,5.27,0,0,1,14,20.61a5.77,5.77,0,0,1-1.23.28,2.37,2.37,0,0,0-2.2,1.94,16.15,16.15,0,0,0-.15,6.71,2.37,2.37,0,0,0,2.33,2.22,5.29,5.29,0,0,1,4.55,5.93,5.61,5.61,0,0,1-.4,1.44,2.29,2.29,0,0,0,.76,3,19.9,19.9,0,0,0,5.22,3.08,2.43,2.43,0,0,0,3.29-.78,6.17,6.17,0,0,1,.78-.83,5.51,5.51,0,0,1,1.09-.77A5.21,5.21,0,0,1,34.38,44c.64.67,1.21,1.44,2.29,1.31a2.38,2.38,0,0,0,.84-.12,20,20,0,0,0,5.28-3.16,2.22,2.22,0,0,0,.77-2.88,5.31,5.31,0,0,1,3-6.91,5.07,5.07,0,0,1,1.2-.32,2.43,2.43,0,0,0,2.16-2.18A17.49,17.49,0,0,0,50.11,24.18ZM35,31.37a6.79,6.79,0,0,1-4.75,1.94A6,6,0,0,1,27,32.52a7.06,7.06,0,0,1-3.49-5.88A6.92,6.92,0,0,1,26,21.41a6.65,6.65,0,0,1,1.68-1A7.81,7.81,0,0,1,29,20a6.93,6.93,0,0,1,1.37-.15,6.46,6.46,0,0,1,1.33.19,6.71,6.71,0,0,1,1.82.72A7,7,0,0,1,37,26.66,6.77,6.77,0,0,1,35,31.37Z"/><path class="cls-4" d="M37,26.66a6.77,6.77,0,0,1-2,4.71,7,7,0,0,1-.77.65,6.74,6.74,0,0,1-4,1.29A6,6,0,0,1,27,32.52a7.06,7.06,0,0,1-3.49-5.88,6.9,6.9,0,0,1,4.22-6.24A7.81,7.81,0,0,1,29,20a6.92,6.92,0,0,1,1.37-.14,7.22,7.22,0,0,1,1.33.18,7.05,7.05,0,0,1,1.82.72A7,7,0,0,1,37,26.66Z"/></g></svg>