<svg id="Layer_1" data-name="Layer 1" xmlns="http://www.w3.org/2000/svg" viewBox="0 0 130 130"><defs><style>.cls-1,.cls-2,.cls-4{fill:none;}.cls-1{stroke:#182ac3;}.cls-1,.cls-2{stroke-miterlimit:10;}.cls-2,.cls-4{stroke:#fff;}.cls-3{fill:#fff;}.cls-4{stroke-linecap:round;stroke-linejoin:round;stroke-width:4px;}</style></defs><rect class="cls-1" x="-139.54" y="-233.39" width="1276.17" height="601.28"/><rect class="cls-2" x="-127.81" y="-106.23" width="1617.81" height="361.81"/><path class="cls-3" d="M71.88,106.38a5.85,5.85,0,0,1-5.5,0,5.6,5.6,0,0,1-3-5.19q0-7.65,0-15.28c0-4.53,3.76-7.12,8.06-5.58.12,0,.25.05.44.09.23-1.27.37-2.55.68-3.78a18.07,18.07,0,0,1,6.93-10.3c.72-.54.83-.89.27-1.6-.74-1-1.33-2-2-3-.4-.53-.37-.81.2-1.2,1.69-1.16,1.67-1.19,2.8.49.55.82,1.16,1.61,1.64,2.47.38.7.77.66,1.43.4a18.32,18.32,0,0,1,13.62,0c.71.26,1.05.2,1.44-.43.7-1.14,1.52-2.2,2.21-3.34.37-.62.69-.78,1.25-.26a3.57,3.57,0,0,0,.86.57c.74.36.73.75.25,1.38-.75,1-1.39,2.08-2.12,3.09-.37.52-.4.79.19,1.21a18.65,18.65,0,0,1,7.79,14.33,6.81,6.81,0,0,1,4.42-.41,5.52,5.52,0,0,1,4.11,5.21c.06,5.44.09,10.88,0,16.31a5.63,5.63,0,0,1-7.36,5.24l-1.2-.38c0,.73,0,1.37,0,2a4.14,4.14,0,0,1-4.32,4.32c-1.25,0-1.47.4-1.42,1.51.08,1.89,0,3.79,0,5.69a5.73,5.73,0,0,1-5.75,5.76A5.66,5.66,0,0,1,92.06,120c0-2.07,0-4.14,0-6.21,0-.72-.09-1.08-1-1.07-1.92,0-1.92,0-1.92,1.9,0,1.68,0,3.37,0,5a5.77,5.77,0,0,1-5.78,6c-3.25,0-5.68-2.57-5.72-6.07,0-2,0-4,0-5.95,0-.49.06-.87-.68-.93-3.91-.31-5-1.53-5-5.44C71.92,107.05,71.9,106.8,71.88,106.38ZM106.35,96c0-4.06,0-8.12,0-12.18,0-.87-.17-1.15-1.11-1.14q-14.7,0-29.39,0c-1,0-1.11.31-1.1,1.17,0,4.19,0,8.37,0,12.56,0,3.84,0,7.68,0,11.52,0,1.54.46,2,2,2,.86,0,1.73.06,2.59,0s1.18.17,1.16,1.11c-.06,2.85,0,5.7,0,8.54A3,3,0,0,0,82,122.42c2,1.21,4.28-.22,4.33-2.76,0-2.93,0-5.87,0-8.8,0-.7.14-1,.92-1,2.24.06,4.49.06,6.73,0,.81,0,1,.22,1,1-.05,2.85,0,5.7,0,8.54,0,2.09,1.13,3.41,2.88,3.39s2.83-1.34,2.83-3.46c0-1.9,0-3.8,0-5.69,0-1.24-.56-2.88.24-3.58s2.3-.18,3.5-.2c1.55,0,2-.43,2-2C106.36,103.93,106.35,100,106.35,96ZM90.58,79.83c4.91,0,9.83,0,14.74,0,.78,0,1-.1.87-1a15.8,15.8,0,0,0-31.14-.47c-.18,1-.17,1.51,1.17,1.48C81,79.77,85.79,79.83,90.58,79.83Zm24.36,13.75c0-2.63,0-5.26,0-7.89a2.85,2.85,0,1,0-5.69,0q0,7.71,0,15.4a2.86,2.86,0,1,0,5.7,0C115,98.58,114.94,96.08,114.94,93.58Zm-43-.19c0-2.55,0-5.09,0-7.64a2.85,2.85,0,1,0-5.68-.09q0,7.75,0,15.52a2.85,2.85,0,1,0,5.68,0C71.92,98.56,71.91,96,71.91,93.39Z"/><path class="cls-3" d="M97.71,75.45c-1.35.38-1.38-.38-1.46-1.43-.09-1.3.47-1.38,1.54-1.45,1.28-.07,1.4.46,1.43,1.53C99.26,75.32,98.91,75.79,97.71,75.45Z"/><path class="cls-3" d="M83.52,75.45c-1,.21-1.65.1-1.58-1.28,0-1.15.17-1.63,1.51-1.61s1.46.41,1.44,1.53S84.81,75.81,83.52,75.45Z"/><path class="cls-3" d="M32.8,85.83c-1.13-7,5-13.34,10.36-14.18C45.27,71.32,46,71.88,46,74a13.53,13.53,0,0,1-4.1,9.66l-.55.58a14.8,14.8,0,0,1,7.79.86,12.22,12.22,0,0,1,5.54,4.24c.89,1.23.81,2-.41,2.86C51.76,94,50,96.32,49.81,99.51a9.19,9.19,0,0,0,4.56,8.91C56.94,110,57,110.14,55.74,113a34.12,34.12,0,0,1-4.93,8.46,18.36,18.36,0,0,1-2.14,2.18,7.7,7.7,0,0,1-8.75,1.28c-.61-.27-1.23-.53-1.85-.77a6.58,6.58,0,0,0-4.84-.07,46.78,46.78,0,0,1-4.63,1.44,7.09,7.09,0,0,1-6.4-1.66,11.6,11.6,0,0,1-1.77-1.66A35,35,0,0,1,12.17,100a15.53,15.53,0,0,1,3.75-10.84,13.65,13.65,0,0,1,11.43-4.86,16.93,16.93,0,0,1,3.56.91C31.52,85.34,32.1,85.58,32.8,85.83Zm18.52,4.51a10.39,10.39,0,0,0-7-3.14c-2.6-.15-4.9.87-7.22,1.78a6.22,6.22,0,0,1-4.53.13c-1.12-.4-2.23-.88-3.39-1.18a10.42,10.42,0,0,0-3.29-.52A10.94,10.94,0,0,0,16,95.74a16.19,16.19,0,0,0-.62,4.37,32.2,32.2,0,0,0,7.28,19.73,10.07,10.07,0,0,0,1.6,1.53,4.19,4.19,0,0,0,4,1c1.24-.37,2.5-.73,3.71-1.2a9.77,9.77,0,0,1,7.79.24c.42.19.85.35,1.26.55a4.85,4.85,0,0,0,5.84-.93c2.87-2.68,4.57-6.09,6.11-9.61A12.85,12.85,0,0,1,51.32,90.34ZM35.91,83.17c3.2-.09,7-4.69,6.62-8C39.44,76,36.34,79.68,35.91,83.17Z"/><path class="cls-4" d="M23.22,16.8a12.87,12.87,0,0,1,1.2.53c1.26.75,2.54,1.48,3.77,2.28a1.2,1.2,0,0,0,1.49.05c.23-.15,2.78-1.67,2.78-1.67A5.18,5.18,0,0,0,33,16.17a27,27,0,0,1,.79-3.28,1.7,1.7,0,0,1,2-1.55h5.44a1.72,1.72,0,0,1,2,1.55c.42,1.66.79,3.33,1.25,5a2,2,0,0,0,.79.9c1.88,1.34,3.63,1,5.31-.43a14.33,14.33,0,0,1,1.84-1.12,1.6,1.6,0,0,1,2.15.23q2.09,2.05,4.14,4.14a1.64,1.64,0,0,1,.21,2.23c-.79,1.28-1.57,2.58-2.31,3.88a1.28,1.28,0,0,0-.17.92,21.83,21.83,0,0,0,1.07,2.55,1.27,1.27,0,0,0,.76.54c1.62.43,3.25.81,4.87,1.22,1.34.33,1.69.77,1.7,2.15V40.2c0,1.37-.35,1.8-1.71,2.14-1.59.39-3.19.75-4.77,1.21a2.17,2.17,0,0,0-1,.85c-1.3,1.83-.76,3.4.41,5.16,2.09,3.13,2.11,2.78-.62,5.49-.83.82-1.66,1.63-2.46,2.47a1.77,1.77,0,0,1-2.49.28c-1.13-.7-2.28-1.37-3.42-2.06a4.1,4.1,0,0,0-.54-.3c-.6-.25-3.66,1.29-3.82,1.94-.4,1.59-.8,3.18-1.19,4.77-.35,1.43-.76,1.76-2.19,1.76-1.75,0-3.49,0-5.24,0a1.69,1.69,0,0,1-2-1.53c-.42-1.66-.79-3.33-1.25-5a2.26,2.26,0,0,0-.79-.91c-.2-.16-2.55-.94-2.25-.94a3.84,3.84,0,0,0-2.53,1,22,22,0,0,1-2.19,1.33,1.66,1.66,0,0,1-2.23-.24q-2-2-4.07-4.07a1.65,1.65,0,0,1-.26-2.23c.74-1.23,1.51-2.44,2.19-3.71a2,2,0,0,0,.06-1.19c0-.32-.36-.6-.41-.93-.24-1.65-1.38-2.12-2.83-2.36-1.21-.19-2.39-.56-3.59-.86a1.73,1.73,0,0,1-1.47-1.91c0-1.81,0-3.63,0-5.44a1.68,1.68,0,0,1,1.52-2c1.59-.41,3.18-.81,4.78-1.16a1.77,1.77,0,0,0,1.22-1,3.46,3.46,0,0,0-.4-4.35,25.33,25.33,0,0,1-1.64-2.71,1.55,1.55,0,0,1,.22-2.06c1.39-1.42,2.79-2.83,4.22-4.21A4.7,4.7,0,0,1,23.22,16.8Z"/><path class="cls-4" d="M38.49,48.39A10.77,10.77,0,1,0,27.7,37.66,10.76,10.76,0,0,0,38.49,48.39Z"/></svg>