<svg id="Layer_1" data-name="Layer 1" xmlns="http://www.w3.org/2000/svg" viewBox="0 0 130 130"><defs><style>.cls-1,.cls-2{fill:none;}.cls-1,.cls-2,.cls-4{stroke:#fff;}.cls-1{stroke-miterlimit:10;}.cls-2,.cls-4{stroke-linecap:round;stroke-linejoin:round;stroke-width:4px;}.cls-3{fill:#c5e1f9;}.cls-4{fill:#0561fc;}.cls-5{fill:#fff;}</style></defs><rect class="cls-1" x="-127.81" y="-107.47" width="1617.81" height="435.04"/><path class="cls-2" d="M88.9,45.32V11a6,6,0,0,1,6-6H125"/><path class="cls-2" d="M88.89,45.32V11a6,6,0,0,0-6-6H52.81"/><rect class="cls-3" x="85.44" y="45.32" width="6.92" height="79.68"/><path class="cls-2" d="M68.9,5A6.81,6.81,0,0,1,55.54,5Z"/><path class="cls-2" d="M122.91,5a6.81,6.81,0,0,1-13.36,0Z"/><rect class="cls-4" x="70.22" y="61.86" width="37.34" height="29.44"/><path class="cls-2" d="M99.5,72.86a15,15,0,0,0-21.22,0"/><path class="cls-2" d="M96.37,77.1a10.56,10.56,0,0,0-15,0"/><path class="cls-2" d="M92.7,81.1a5.37,5.37,0,0,0-7.61,0"/><path class="cls-5" d="M90.58,84.57a1.69,1.69,0,1,1-1.69-1.68A1.69,1.69,0,0,1,90.58,84.57Z"/><line class="cls-2" x1="62.11" y1="18.97" x2="61.98" y2="22.15"/><line class="cls-2" x1="70.71" y1="17.04" x2="72.19" y2="19.86"/><line class="cls-2" x1="77.19" y1="11.07" x2="79.88" y2="12.77"/><line class="cls-2" x1="44.91" y1="11.33" x2="47.73" y2="9.85"/><line class="cls-2" x1="52" y1="19.02" x2="53.7" y2="16.34"/><line class="cls-2" x1="5.02" y1="125" x2="124.98" y2="125"/><path class="cls-2" d="M35.51,93.26s17.26,4.61,21.38,6.4A8.47,8.47,0,0,1,61.81,105v11.77H54.3"/><polyline class="cls-2" points="5.02 116.77 22.01 116.77 35.39 116.77"/><path class="cls-2" d="M5,93.26H35.51A72,72,0,0,0,22,86.56a63.68,63.68,0,0,0-17-3.8"/><line class="cls-2" x1="9.29" y1="99.66" x2="16.66" y2="99.66"/><path class="cls-2" d="M54.4,115.34a9.56,9.56,0,1,1-9.56-9.56A9.54,9.54,0,0,1,54.4,115.34Z"/></svg>