<svg id="Layer_1" data-name="Layer 1" xmlns="http://www.w3.org/2000/svg" viewBox="0 0 130 130"><defs><style>.cls-1,.cls-4{fill:none;stroke:#fff;}.cls-1{stroke-miterlimit:10;}.cls-2{fill:#c5e1f9;}.cls-3{fill:#fff;}.cls-4{stroke-linecap:round;stroke-linejoin:round;stroke-width:4px;}</style></defs><rect class="cls-1" x="-527.81" y="-107.47" width="1617.81" height="435.04"/><rect class="cls-2" x="72.11" y="18.07" width="49.89" height="106.93"/><rect class="cls-3" x="76.42" y="26.77" width="41.26" height="7.35"/><rect class="cls-3" x="76.42" y="40.47" width="41.26" height="7.35"/><rect class="cls-3" x="76.42" y="54.16" width="41.26" height="7.35"/><rect class="cls-3" x="76.42" y="67.86" width="41.26" height="7.35"/><rect class="cls-3" x="76.42" y="81.55" width="41.26" height="7.35"/><rect class="cls-3" x="76.42" y="95.24" width="41.26" height="7.35"/><rect class="cls-3" x="76.42" y="108.94" width="41.26" height="7.35"/><path class="cls-4" d="M61.53,45.32V11a6,6,0,0,0-6-6H25.45"/><rect class="cls-2" x="58.08" y="45.32" width="6.92" height="79.68"/><path class="cls-4" d="M41.54,5A6.81,6.81,0,0,1,28.18,5Z"/><line class="cls-4" x1="34.86" y1="18.97" x2="34.86" y2="22.15"/><line class="cls-4" x1="43.37" y1="16.69" x2="44.96" y2="19.44"/><line class="cls-4" x1="49.6" y1="10.46" x2="52.36" y2="12.05"/><line class="cls-4" x1="17.36" y1="12.05" x2="20.12" y2="10.46"/><line class="cls-4" x1="24.76" y1="19.44" x2="26.35" y2="16.69"/><line class="cls-4" x1="5.02" y1="125" x2="124.98" y2="125"/><rect class="cls-3" x="10.4" y="96.11" width="35.6" height="6.45"/><rect class="cls-3" x="10.4" y="96.11" width="35.6" height="14.2"/><rect class="cls-2" x="10.4" y="96.11" width="35.6" height="6.45"/><rect class="cls-4" x="10.4" y="96.11" width="35.6" height="14.2"/><line class="cls-4" x1="17.35" y1="96.11" x2="17.35" y2="82.23"/><line class="cls-4" x1="38.16" y1="96.11" x2="38.16" y2="82.23"/><path class="cls-4" d="M41,61.38a18,18,0,0,0-25.51,0"/><path class="cls-4" d="M37.19,66.48a12.69,12.69,0,0,0-18,0"/><path class="cls-4" d="M32.78,71.28a6.46,6.46,0,0,0-9.15,0"/><path class="cls-3" d="M30.23,75.46a2,2,0,1,1-2-2A2,2,0,0,1,30.23,75.46Z"/></svg>