<svg id="Layer_1" data-name="Layer 1" xmlns="http://www.w3.org/2000/svg" viewBox="0 0 130 130"><defs><style>.cls-1,.cls-2,.cls-3{fill:none;}.cls-1{stroke:#182ac3;}.cls-1,.cls-2{stroke-miterlimit:10;}.cls-2{stroke:#fff;}.cls-3,.cls-5{stroke:#0561fc;stroke-linecap:round;stroke-linejoin:round;stroke-width:4px;}.cls-4{fill:#c5e1f9;}.cls-5{fill:#fff;}</style></defs><rect class="cls-1" x="-1412.56" y="-248.31" width="1763.16" height="637.28"/><rect class="cls-2" x="-1327.81" y="-107.47" width="1617.81" height="435.04"/><path class="cls-3" d="M65,45.29V11a6,6,0,0,1,6-6h30.09"/><path class="cls-3" d="M65,45.29V11a6,6,0,0,0-6-6H28.91"/><rect class="cls-4" x="61.54" y="45.29" width="6.92" height="79.68"/><path class="cls-3" d="M45,5A6.81,6.81,0,0,1,31.64,5Z"/><path class="cls-3" d="M99,5A6.81,6.81,0,0,1,85.65,5Z"/><line class="cls-3" x1="5.02" y1="124.97" x2="124.98" y2="124.97"/><line class="cls-3" x1="38.32" y1="18.94" x2="38.32" y2="22.12"/><line class="cls-3" x1="46.83" y1="16.66" x2="48.42" y2="19.41"/><line class="cls-3" x1="53.06" y1="10.43" x2="55.82" y2="12.02"/><line class="cls-3" x1="20.82" y1="12.02" x2="23.58" y2="10.43"/><line class="cls-3" x1="28.22" y1="19.41" x2="29.81" y2="16.66"/><line class="cls-3" x1="92.33" y1="18.94" x2="92.33" y2="22.12"/><line class="cls-3" x1="100.84" y1="16.66" x2="102.43" y2="19.41"/><line class="cls-3" x1="107.07" y1="10.43" x2="109.83" y2="12.02"/><line class="cls-3" x1="74.83" y1="12.02" x2="77.59" y2="10.43"/><line class="cls-3" x1="82.23" y1="19.41" x2="83.82" y2="16.66"/><rect class="cls-5" x="29.07" y="55.77" width="71.84" height="56.64"/><path class="cls-3" d="M66.8,84.09a14.65,14.65,0,1,1-14.64-15.3v15.3Z"/><path class="cls-4" d="M70.54,78.89c0,.21,0,.41,0,.62H56.74V65.09A13.8,13.8,0,0,1,70.54,78.89Z"/><rect class="cls-3" x="79.73" y="67.95" width="7.88" height="7.88"/><line class="cls-3" x1="75.55" y1="85.46" x2="91.92" y2="85.46"/><line class="cls-3" x1="75.55" y1="92.2" x2="91.92" y2="92.2"/><line class="cls-3" x1="75.55" y1="98.93" x2="91.92" y2="98.93"/></svg>