<svg id="Layer_1" data-name="Layer 1" xmlns="http://www.w3.org/2000/svg" viewBox="0 0 130 130"><defs><style>.cls-1,.cls-2{fill:none;stroke-miterlimit:10;}.cls-1{stroke:#182ac3;}.cls-2{stroke:#fff;}.cls-3{fill:#fff;stroke:#0561fc;stroke-linecap:round;stroke-linejoin:round;stroke-width:4px;}.cls-4{fill:#0561fc;}</style></defs><rect class="cls-1" x="-138.77" y="-233.64" width="1276.17" height="601.28"/><rect class="cls-2" x="-127.81" y="-103.19" width="1617.81" height="361.81"/><polyline class="cls-3" points="102.96 46.9 111.39 51.38 111.37 51.4 100.03 57.79 64.94 77.59 29.91 57.82 18.57 51.43 18.5 51.38 26.92 46.9"/><path class="cls-3" d="M103,25.75V56.16l-38,21.43-38-21.43V25.75a6.18,6.18,0,0,1,6.18-6.18H96.78A6.18,6.18,0,0,1,103,25.75Z"/><polygon class="cls-3" points="64.94 77.66 64.94 110.43 18.5 84.4 18.5 64.55 53.34 84.2 64.94 77.66"/><polygon class="cls-3" points="111.39 64.6 111.39 84.4 64.94 110.43 64.94 77.59 82.8 67.58 65.01 77.62 76.66 84.2 111.39 64.6"/><polygon class="cls-3" points="123.42 57.82 111.39 64.6 76.66 84.2 65.01 77.62 82.8 67.58 100.09 57.82 100.03 57.79 111.37 51.4 123.42 57.82"/><polygon class="cls-3" points="64.94 77.59 64.94 77.66 53.34 84.2 18.5 64.55 6.58 57.82 18.57 51.43 29.91 57.82 64.94 77.59"/><path class="cls-4" d="M44.25,52.36a5.52,5.52,0,0,1-2.37-1.8A4.89,4.89,0,0,1,41,47.7h4.41A2.17,2.17,0,0,0,46,49.14a2.11,2.11,0,0,0,1.45.5,2.25,2.25,0,0,0,1.46-.43A1.39,1.39,0,0,0,49.46,48,1.42,1.42,0,0,0,49,47a3.54,3.54,0,0,0-1-.68,18.14,18.14,0,0,0-1.76-.6,19.48,19.48,0,0,1-2.7-1,5,5,0,0,1-1.79-1.51A4.17,4.17,0,0,1,41,40.59a4.47,4.47,0,0,1,1.72-3.73,7.12,7.12,0,0,1,4.49-1.34,7.18,7.18,0,0,1,4.53,1.34,4.83,4.83,0,0,1,1.85,3.75H49.1a1.73,1.73,0,0,0-.61-1.3,2.16,2.16,0,0,0-1.43-.47,1.82,1.82,0,0,0-1.21.4,1.55,1.55,0,0,0,.31,2.44,12.89,12.89,0,0,0,2.43,1,22.32,22.32,0,0,1,2.68,1.06,5.14,5.14,0,0,1,1.78,1.48,3.92,3.92,0,0,1,.76,2.5,5,5,0,0,1-.74,2.65,5.24,5.24,0,0,1-2.15,1.89,7.35,7.35,0,0,1-3.32.7A8.81,8.81,0,0,1,44.25,52.36Z"/><path class="cls-4" d="M67.44,36.83a7.68,7.68,0,0,1,3.12,3,9.55,9.55,0,0,1,0,8.9,7.61,7.61,0,0,1-3.13,3,9.85,9.85,0,0,1-4.7,1.07H56.35v-17h6.38A9.92,9.92,0,0,1,67.44,36.83ZM66.13,47.92a4.9,4.9,0,0,0,1.31-3.64,4.55,4.55,0,0,0-5-5h-2v9.9h2A5,5,0,0,0,66.13,47.92Z"/><path class="cls-4" d="M83.87,52.79l-5.73-7.52v7.52H74v-17h4.15v7.47l5.68-7.47h4.87l-6.6,8.35,6.85,8.68Z"/><polygon class="cls-3" points="100.09 57.82 82.8 67.58 65.01 77.62 64.94 77.66 64.94 77.59 100.03 57.79 100.09 57.82"/></svg>