<svg id="Layer_1" data-name="Layer 1" xmlns="http://www.w3.org/2000/svg" viewBox="0 0 130 130"><defs><style>.cls-1,.cls-2,.cls-3{fill:none;}.cls-1{stroke:#182ac3;}.cls-1,.cls-2{stroke-miterlimit:10;}.cls-2{stroke:#fff;}.cls-3{stroke:#0561fc;stroke-linecap:round;stroke-linejoin:round;stroke-width:4px;}.cls-4{fill:#0561fc;}.cls-5{fill:#c5e1f9;}</style></defs><rect class="cls-1" x="-538.77" y="-233.64" width="1276.17" height="601.28"/><rect class="cls-2" x="-527.81" y="-103.19" width="1617.81" height="361.81"/><path class="cls-3" d="M120.65,72.52A23.6,23.6,0,0,1,99.42,96v.12h0V71.34a4.54,4.54,0,0,0-4.54-4.54H31.67a4.54,4.54,0,0,0-4.54,4.54V96.12H25.22V96A21,21,0,0,1,24,54.45c0-.32,0-.64,0-1A12.24,12.24,0,0,1,42.48,43a26.87,26.87,0,0,1,47.91,6.91,23.6,23.6,0,0,1,30.26,22.63Z"/><path class="cls-3" d="M27.13,117.25V72.5c0-3.16,3-5.7,6.62-5.7H92.8c3.66,0,6.62,2.54,6.62,5.7v44.75c0,3.15-3,5.7-6.62,5.7h-59C30.1,123,27.13,120.4,27.13,117.25Z"/><path class="cls-4" d="M40.34,77.53a2.21,2.21,0,1,1-2.21-2.21A2.21,2.21,0,0,1,40.34,77.53Z"/><path class="cls-4" d="M47.42,77.53a2.22,2.22,0,1,1-2.21-2.21A2.21,2.21,0,0,1,47.42,77.53Z"/><path class="cls-4" d="M90.63,77.53a2.21,2.21,0,0,1-2.21,2.21H73.32a2.21,2.21,0,0,1,0-4.42h15.1A2.21,2.21,0,0,1,90.63,77.53Z"/><line class="cls-3" x1="35.92" y1="91.13" x2="47.42" y2="91.13"/><line class="cls-3" x1="35.92" y1="98.9" x2="58.13" y2="98.9"/><line class="cls-3" x1="35.92" y1="106.66" x2="58.13" y2="106.66"/><line class="cls-3" x1="35.92" y1="114.43" x2="58.13" y2="114.43"/><rect class="cls-5" x="67.33" y="91.13" width="23.3" height="23.3"/><path class="cls-3" d="M105.7,7.05a18,18,0,1,0,18,18A18,18,0,0,0,105.7,7.05Z"/><line class="cls-3" x1="105.7" y1="7.05" x2="105.7" y2="10.3"/><line class="cls-3" x1="105.7" y1="39.78" x2="105.7" y2="43.13"/><line class="cls-3" x1="87.66" y1="25.09" x2="91.01" y2="25.09"/><line class="cls-3" x1="120.39" y1="25.09" x2="123.74" y2="25.09"/><polyline class="cls-3" points="102.81 22.6 105.7 25.49 113.01 18.19"/><path class="cls-5" d="M28.83,20.9c6.21,0,11.78-1.74,16.37-6.26,4.56,4.5,10.14,6.27,16.35,6.26.05.1.09.15.09.2.12,5.64.42,11.29-.78,16.86A20.89,20.89,0,0,1,48.24,53.37c-3.7,1.64-2.37,1.65-6.06,0-7.35-3.26-11.61-8.94-12.92-16.87-.84-5.09-.6-10.21-.5-15.33A1.6,1.6,0,0,1,28.83,20.9Z"/></svg>