<svg id="Layer_1" data-name="Layer 1" xmlns="http://www.w3.org/2000/svg" viewBox="0 0 130 130"><defs><style>.cls-1,.cls-2,.cls-5{fill:none;}.cls-1{stroke:#182ac3;}.cls-1,.cls-2{stroke-miterlimit:10;}.cls-2{stroke:#fff;}.cls-3{fill:#fff;}.cls-3,.cls-5{stroke:#0561fc;stroke-linecap:round;stroke-linejoin:round;stroke-width:4px;}.cls-4{fill:#c5e1f9;}.cls-6{fill:#0561fc;}</style></defs><rect class="cls-1" x="-938.77" y="-233.64" width="1276.17" height="601.28"/><rect class="cls-2" x="-927.81" y="-103.19" width="1617.81" height="361.81"/><path class="cls-3" d="M79.83,34.87a14,14,0,0,1-12.64,14v.07H23v-.06a12.48,12.48,0,0,1-.71-24.75c0-.19,0-.38,0-.57a7.29,7.29,0,0,1,7.29-7.29,7.21,7.21,0,0,1,3.73,1,16,16,0,0,1,28.53,4.11,14.06,14.06,0,0,1,18,13.48Z"/><rect class="cls-3" x="10.65" y="75.02" width="49.59" height="44.77" rx="4.54"/><rect class="cls-4" x="17.56" y="83.58" width="35.79" height="9.81"/><rect class="cls-4" x="17.56" y="99.76" width="35.79" height="9.81"/><path class="cls-3" d="M69.75,113.55v-49c0-3.45,2-6.23,4.54-6.23h40.52c2.5,0,4.54,2.78,4.54,6.23v49c0,3.44-2,6.24-4.54,6.24H74.29C71.79,119.79,69.75,117,69.75,113.55Z"/><rect class="cls-4" x="76.66" y="83.58" width="35.79" height="9.81" transform="translate(189.1 176.98) rotate(180)"/><rect class="cls-4" x="76.66" y="99.76" width="35.79" height="9.81" transform="translate(189.1 209.32) rotate(180)"/><rect class="cls-4" x="76.66" y="67.49" width="35.79" height="9.81" transform="translate(189.1 144.79) rotate(180)"/><path class="cls-5" d="M112.86,22.85a16.78,16.78,0,0,0-23.72,0"/><path class="cls-5" d="M109.35,27.59a11.82,11.82,0,0,0-16.71,0"/><path class="cls-5" d="M105.25,32.06a6,6,0,0,0-8.51,0"/><path class="cls-6" d="M102.88,36.42A1.89,1.89,0,1,1,101,34.54,1.88,1.88,0,0,1,102.88,36.42Z"/></svg>