<svg id="Layer_1" data-name="Layer 1" xmlns="http://www.w3.org/2000/svg" viewBox="0 0 130 130"><defs><style>.cls-1,.cls-5{fill:none;}.cls-1{stroke:#fff;stroke-miterlimit:10;}.cls-2,.cls-3{fill:#fff;}.cls-3,.cls-5{stroke:#0561fc;stroke-linecap:round;stroke-linejoin:round;stroke-width:4px;}.cls-4{fill:#c5e1f9;}</style></defs><rect class="cls-1" x="-927.81" y="-75.03" width="1954.15" height="1136.52"/><polygon class="cls-2" points="49.39 83.21 76.65 91.53 79.79 97.18 79.79 110.38 49.25 110.38 14.16 110.38 14.16 83.21 49.39 83.21"/><circle class="cls-3" cx="82.41" cy="45.23" r="34.99"/><path class="cls-4" d="M99,39.06a1.12,1.12,0,0,0-1-.57H83.32l2.47-18.83a1.13,1.13,0,0,0-1-1.24,1.12,1.12,0,0,0-1.06.5L65.84,50.25a1.12,1.12,0,0,0,.37,1.55,1.18,1.18,0,0,0,.59.16H81.28l-2,18.87a1.12,1.12,0,0,0,2.07.69L99,40.19a1.11,1.11,0,0,0,0-1.13Z"/><path class="cls-5" d="M99,39.06a1.12,1.12,0,0,0-1-.57H83.32l2.47-18.83a1.13,1.13,0,0,0-1-1.24,1.12,1.12,0,0,0-1.06.5L65.84,50.25a1.12,1.12,0,0,0,.37,1.55,1.18,1.18,0,0,0,.59.16H81.28l-2,18.87a1.12,1.12,0,0,0,2.07.69L99,40.19a1.11,1.11,0,0,0,0-1.13Z"/><path class="cls-3" d="M49.39,83.21s19.94,5.32,24.7,7.4a9.81,9.81,0,0,1,5.7,6.16v13.61H71.1"/><polyline class="cls-3" points="14.16 110.38 33.8 110.38 49.25 110.38"/><path class="cls-3" d="M14.14,71.08A73.81,73.81,0,0,1,33.8,75.46a84,84,0,0,1,15.59,7.75H14.16"/><line class="cls-3" x1="19.1" y1="90.61" x2="27.61" y2="90.61"/><path class="cls-3" d="M71.22,108.72a11.28,11.28,0,0,1-.12,1.66,11.05,11.05,0,0,1-21.85,0,11.28,11.28,0,0,1-.12-1.66,11,11,0,0,1,22.09,0Z"/><path class="cls-4" d="M65.3,108.72a6.49,6.49,0,0,1,0,.77,5.13,5.13,0,0,1-10.14,0,4.9,4.9,0,0,1-.06-.77,5.13,5.13,0,0,1,10.25,0Z"/></svg>