<svg id="Layer_1" data-name="Layer 1" xmlns="http://www.w3.org/2000/svg" viewBox="0 0 130 130"><defs><style>.cls-1{fill:#c5e1f9;}.cls-2,.cls-4{fill:none;}.cls-2,.cls-3{stroke:#0561fc;stroke-linecap:round;stroke-linejoin:round;stroke-width:4px;}.cls-3{fill:#fff;}.cls-4{stroke:#fff;stroke-miterlimit:10;}</style></defs><path class="cls-1" d="M19.86,19.86v90.28h90.28V19.86ZM94.94,94.93H35.06V35.07H94.94Z"/><rect class="cls-2" x="19.86" y="19.86" width="90.27" height="90.27"/><line class="cls-3" x1="36.59" y1="19.86" x2="36.59" y2="7.29"/><line class="cls-3" x1="50.79" y1="19.86" x2="50.79" y2="7.29"/><line class="cls-3" x1="65" y1="19.86" x2="65" y2="7.29"/><line class="cls-3" x1="79.21" y1="19.86" x2="79.21" y2="7.29"/><line class="cls-3" x1="93.41" y1="19.86" x2="93.41" y2="7.29"/><line class="cls-3" x1="36.59" y1="122.71" x2="36.59" y2="110.14"/><line class="cls-3" x1="50.79" y1="122.71" x2="50.79" y2="110.14"/><line class="cls-3" x1="65" y1="122.71" x2="65" y2="110.14"/><line class="cls-3" x1="79.21" y1="122.71" x2="79.21" y2="110.14"/><line class="cls-3" x1="93.41" y1="122.71" x2="93.41" y2="110.14"/><line class="cls-3" x1="110.14" y1="36.59" x2="122.71" y2="36.59"/><line class="cls-3" x1="110.14" y1="50.79" x2="122.71" y2="50.79"/><line class="cls-3" x1="110.14" y1="65" x2="122.71" y2="65"/><line class="cls-3" x1="110.14" y1="79.21" x2="122.71" y2="79.21"/><line class="cls-3" x1="110.14" y1="93.41" x2="122.71" y2="93.41"/><line class="cls-3" x1="7.29" y1="36.59" x2="19.86" y2="36.59"/><line class="cls-3" x1="7.29" y1="50.79" x2="19.86" y2="50.79"/><line class="cls-3" x1="7.29" y1="65" x2="19.86" y2="65"/><line class="cls-3" x1="7.29" y1="79.21" x2="19.86" y2="79.21"/><line class="cls-3" x1="7.29" y1="93.41" x2="19.86" y2="93.41"/><rect class="cls-3" x="35.06" y="35.06" width="59.87" height="59.87"/><line class="cls-3" x1="49.2" y1="77.81" x2="49.2" y2="94.94"/><circle class="cls-3" cx="49.2" cy="77.81" r="6.39"/><polyline class="cls-3" points="76.47 65 57.19 65 57.19 51.82 35.06 51.82"/><line class="cls-3" x1="76.47" y1="35.06" x2="76.47" y2="67.59"/><line class="cls-3" x1="76.47" y1="67.59" x2="76.47" y2="94.94"/><line class="cls-3" x1="94.94" y1="84.21" x2="76.47" y2="84.21"/><circle class="cls-3" cx="57.19" cy="51.82" r="6.39"/><circle class="cls-3" cx="76.47" cy="65" r="6.39"/><rect class="cls-4" x="-1713.35" y="-875.03" width="1954.15" height="1136.52"/></svg>