<svg id="Layer_1" data-name="Layer 1" xmlns="http://www.w3.org/2000/svg" viewBox="0 0 130 130"><defs><style>.cls-1,.cls-3,.cls-5{fill:none;}.cls-1{stroke:#fff;stroke-miterlimit:10;}.cls-2,.cls-6{fill:#fff;}.cls-3,.cls-6{stroke:#0561fc;}.cls-3,.cls-5,.cls-6{stroke-linecap:round;stroke-linejoin:round;stroke-width:4px;}.cls-4{fill:#c5e1f9;}.cls-5{stroke:#c5e1f9;}</style></defs><rect class="cls-1" x="-127.81" y="-475.03" width="1954.15" height="1136.52"/><rect class="cls-2" x="9.58" y="8.94" width="82.05" height="84.73" rx="3"/><rect class="cls-3" x="9.58" y="8.94" width="82.05" height="84.73" rx="3"/><line class="cls-3" x1="9.58" y1="27.3" x2="91.63" y2="27.3"/><path class="cls-4" d="M27.13,18.12a3.71,3.71,0,1,1-3.71-3.71A3.71,3.71,0,0,1,27.13,18.12Z"/><path class="cls-4" d="M39,18.12a3.71,3.71,0,1,1-3.71-3.71A3.71,3.71,0,0,1,39,18.12Z"/><path class="cls-4" d="M81.51,18.12a3.71,3.71,0,0,1-3.71,3.71H62.46a3.71,3.71,0,0,1,0-7.42H77.8A3.71,3.71,0,0,1,81.51,18.12Z"/><line class="cls-5" x1="19.71" y1="40.94" x2="39" y2="40.94"/><line class="cls-5" x1="19.71" y1="53.97" x2="56.98" y2="53.97"/><line class="cls-5" x1="19.71" y1="67" x2="56.98" y2="67"/><line class="cls-5" x1="19.71" y1="80.03" x2="56.98" y2="80.03"/><rect class="cls-6" x="52.26" y="55.43" width="5.82" height="8.86"/><rect class="cls-6" x="52.26" y="73.37" width="5.82" height="8.86"/><rect class="cls-6" x="64.52" y="53.56" width="49.47" height="52.84"/><rect class="cls-6" x="72.33" y="86.86" width="33.84" height="13.1"/><rect class="cls-6" x="58.08" y="37.39" width="62.33" height="56.21"/><rect class="cls-6" x="64.99" y="44.3" width="48.52" height="42.39"/><circle class="cls-6" cx="78.95" cy="75.45" r="4.53"/><circle class="cls-6" cx="99.55" cy="75.45" r="4.53"/><rect class="cls-6" x="72.33" y="55.43" width="33.84" height="9.15"/><line class="cls-6" x1="80.79" y1="55.43" x2="80.79" y2="64.57"/><line class="cls-6" x1="89.25" y1="55.43" x2="89.25" y2="64.57"/><line class="cls-6" x1="97.71" y1="55.43" x2="97.71" y2="64.57"/><path class="cls-4" d="M41.18,120.85c-1,.12-1.5-.58-2.08-1.19a4.73,4.73,0,0,0-5.74-1.06,5.17,5.17,0,0,0-1.69,1.46,2.21,2.21,0,0,1-3,.71A18.12,18.12,0,0,1,24,118a2.09,2.09,0,0,1-.69-2.75,4.8,4.8,0,0,0-3.76-6.68,2.14,2.14,0,0,1-2.11-2,14.54,14.54,0,0,1,.13-6.09,2.16,2.16,0,0,1,2-1.76,4.76,4.76,0,0,0,4-6.36,2.2,2.2,0,0,1,.89-2.93A17.65,17.65,0,0,1,28.57,87a2.24,2.24,0,0,1,3.08.65,4.79,4.79,0,0,0,5.09,1.46A4.69,4.69,0,0,0,39,87.63,2.21,2.21,0,0,1,42,87a18.57,18.57,0,0,1,4.74,2.8,2.23,2.23,0,0,1,.78,2.61c-.94,3.22.58,5.75,3.85,6.44,1.18.25,1.74,1.12,2,2.81a16.28,16.28,0,0,1-.17,5.07,2.2,2.2,0,0,1-2,2,4.82,4.82,0,0,0-3.79,6.55,2,2,0,0,1-.7,2.61,17.9,17.9,0,0,1-4.79,2.86A2.2,2.2,0,0,1,41.18,120.85ZM35.3,109.94a6.11,6.11,0,0,0,6.13-6,6.12,6.12,0,1,0-12.23,0A6.11,6.11,0,0,0,35.3,109.94Z"/><circle class="cls-6" cx="35.29" cy="103.87" r="7.4" transform="translate(-72.89 122.07) rotate(-80.78)"/><polyline class="cls-6" points="104.08 12.13 100.19 19.43 106.25 19.5 103.22 26.89"/></svg>