<svg id="Layer_1" data-name="Layer 1" xmlns="http://www.w3.org/2000/svg" viewBox="0 0 130 130"><defs><style>.cls-1,.cls-3,.cls-5{fill:none;}.cls-1{stroke:#fff;stroke-miterlimit:10;}.cls-2{fill:#c5e1f9;}.cls-3{stroke:#c5e1f9;}.cls-3,.cls-4,.cls-5{stroke-linecap:round;stroke-linejoin:round;stroke-width:4px;}.cls-4{fill:#fff;}.cls-4,.cls-5{stroke:#0561fc;}</style></defs><rect class="cls-1" x="-527.81" y="-475.03" width="1954.15" height="1136.52"/><path class="cls-2" d="M35,73.59a.4.4,0,0,0-.35-.21H29.34l.88-6.75a.4.4,0,0,0-.36-.44.39.39,0,0,0-.38.18L23.07,77.6a.41.41,0,0,0,.13.55.43.43,0,0,0,.22.06h5.19L27.91,85a.4.4,0,0,0,.37.43.41.41,0,0,0,.37-.18L35,74a.38.38,0,0,0,0-.4Z"/><path class="cls-3" d="M5,40.09S19.91,41.62,29,35c0,0,33,15,96,8.53"/><polyline class="cls-4" points="57.32 24.2 29.01 35 53 35 100.99 35 72.68 24.2"/><polygon class="cls-4" points="53 35 65 4.97 77 35 53 35"/><rect class="cls-4" x="53" y="35" width="23.99" height="23.99"/><polygon class="cls-4" points="82.99 82.98 47.01 82.98 53 58.99 77 58.99 82.99 82.98"/><polygon class="cls-4" points="88.99 106.97 41.01 106.97 47.01 82.98 82.99 82.98 88.99 106.97"/><polygon class="cls-4" points="41.01 106.97 35.01 124.97 50.72 106.97 41.01 106.97"/><polygon class="cls-4" points="88.99 106.97 94.99 124.97 79.28 106.97 88.99 106.97"/><polyline class="cls-5" points="77 58.99 47.01 82.98 82.99 82.98 53 58.99 77 35 77 58.99 53 35 72.68 24.2 57.32 24.2 77 35"/><polyline class="cls-5" points="47.01 82.98 88.99 106.97 82.99 82.98 41.01 106.97"/><path class="cls-3" d="M5,47c46,1.62,96-12,96-12a89.56,89.56,0,0,0,24,3.34"/></svg>