<svg id="Layer_1" data-name="Layer 1" xmlns="http://www.w3.org/2000/svg" viewBox="0 0 130 130"><defs><style>.cls-1,.cls-4{fill:none;}.cls-1{stroke:#fff;stroke-miterlimit:10;}.cls-2{fill:#fff;}.cls-2,.cls-4{stroke:#0561fc;stroke-linecap:round;stroke-linejoin:round;stroke-width:4px;}.cls-3{fill:#c5e1f9;}.cls-5{fill:#0561fc;}</style></defs><rect class="cls-1" x="-927.81" y="-475.03" width="1954.15" height="1136.52"/><polygon class="cls-2" points="109.71 75.32 109.71 125 85.95 125 85.95 75.32 86.06 75.32 88.78 78.05 97.21 78.05 94.48 75.32 109.71 75.32"/><polygon class="cls-2" points="44.1 75.32 44.1 125 20.34 125 20.34 75.32 35.59 75.32 32.88 78.05 41.3 78.05 44.01 75.32 44.1 75.32"/><rect class="cls-3" x="93.07" y="95.4" width="9.51" height="9.51"/><rect class="cls-3" x="27.47" y="95.4" width="9.51" height="9.51"/><polygon class="cls-2" points="85.95 75.21 85.95 125 44.1 125 44.1 75.22 50.11 69.17 53.67 65.58 65.02 54.23 76.34 65.57 79.92 69.16 85.95 75.21"/><path class="cls-3" d="M69.75,78.65H60.23V73.89A4.76,4.76,0,0,1,65,69.13h0a4.76,4.76,0,0,1,4.76,4.76Z"/><rect class="cls-4" x="55.4" y="93.32" width="19.18" height="31.68"/><line class="cls-4" x1="9.15" y1="125" x2="120.85" y2="125"/><polygon class="cls-2" points="115.85 75.32 94.48 75.32 88.31 69.13 88.33 69.13 69.89 50.67 91.24 50.67 109.68 69.13 109.7 69.13 109.7 69.16 115.85 75.32"/><polygon class="cls-2" points="41.69 69.13 41.74 69.13 35.59 75.32 14.13 75.32 20.32 69.13 38.76 50.67 60.15 50.67 41.69 69.13"/><polygon class="cls-4" points="109.71 69.13 109.71 69.15 109.69 69.13 109.71 69.13"/><line class="cls-4" x1="109.71" y1="75.32" x2="109.7" y2="75.32"/><polygon class="cls-2" points="97.21 78.05 88.78 78.05 86.06 75.32 85.95 75.21 79.92 69.16 76.34 65.57 65.02 54.23 53.67 65.58 50.11 69.17 44.1 75.22 44.01 75.32 41.3 78.05 32.88 78.05 35.59 75.32 41.74 69.13 49.45 61.37 65.02 45.81 80.56 61.35 88.31 69.13 94.48 75.32 97.21 78.05"/><line class="cls-4" x1="60.09" y1="108.18" x2="60.09" y2="110.14"/><line class="cls-4" x1="51.92" y1="58.89" x2="30.57" y2="58.89"/><line class="cls-4" x1="43.64" y1="67.1" x2="22.29" y2="67.1"/><line class="cls-4" x1="78.02" y1="58.89" x2="99.37" y2="58.89"/><line class="cls-4" x1="86.3" y1="67.1" x2="107.65" y2="67.1"/><path class="cls-4" d="M83,12.46a25.49,25.49,0,0,0-36,0"/><path class="cls-4" d="M78.08,17.4a18.49,18.49,0,0,0-26.18,0"/><path class="cls-4" d="M73.15,22.32a11.54,11.54,0,0,0-16.32,0"/><path class="cls-5" d="M68.87,28.53A3.88,3.88,0,1,1,65,24.66,3.88,3.88,0,0,1,68.87,28.53Z"/></svg>