<svg id="Layer_1" data-name="Layer 1" xmlns="http://www.w3.org/2000/svg" viewBox="0 0 130 130"><defs><style>.cls-1,.cls-2{fill:none;}.cls-1,.cls-2,.cls-3{stroke:#fff;}.cls-1{stroke-miterlimit:10;}.cls-2,.cls-3{stroke-linecap:round;stroke-linejoin:round;stroke-width:4px;}.cls-3{fill:#0561fc;}</style></defs><rect class="cls-1" x="-527.81" y="-106.23" width="1617.81" height="361.81"/><circle class="cls-2" cx="78.4" cy="52.99" r="33.08"/><ellipse class="cls-2" cx="78.4" cy="52.99" rx="15.71" ry="33.08"/><ellipse class="cls-2" cx="78.4" cy="52.99" rx="33.08" ry="20.65"/><path class="cls-2" d="M45.32,53s39.79,4.52,66.16,0"/><line class="cls-2" x1="78.4" y1="19.91" x2="78.4" y2="86.07"/><polygon class="cls-3" points="78.4 110.09 18.52 110.09 18.52 33.01 56.27 33.01 78.4 55.13 78.4 110.09"/><polygon class="cls-3" points="56.27 33.01 56.27 55.13 78.4 55.13 56.27 33.01"/><circle class="cls-3" cx="31.57" cy="98.3" r="5.79"/><circle class="cls-3" cx="48.46" cy="98.3" r="5.79"/><circle class="cls-3" cx="65.35" cy="98.3" r="5.79"/><rect class="cls-2" x="25.78" y="64.54" width="45.36" height="20.1"/><line class="cls-2" x1="38.2" y1="64.54" x2="38.2" y2="84.64"/><line class="cls-2" x1="25.78" y1="75.14" x2="71.14" y2="75.14"/><line class="cls-2" x1="25.78" y1="55.14" x2="47.05" y2="55.14"/><line class="cls-2" x1="25.78" y1="47.39" x2="36.42" y2="47.39"/></svg>