<svg id="Layer_1" data-name="Layer 1" xmlns="http://www.w3.org/2000/svg" viewBox="0 0 130 130"><defs><style>.cls-1,.cls-3,.cls-5{fill:none;}.cls-1{stroke:#fff;stroke-miterlimit:10;}.cls-2,.cls-6{fill:#fff;}.cls-3,.cls-6{stroke:#0561fc;}.cls-3,.cls-5,.cls-6{stroke-linecap:round;stroke-linejoin:round;stroke-width:4px;}.cls-4{fill:#c5e1f9;}.cls-5{stroke:#c5e1f9;}</style></defs><rect class="cls-1" x="-77.16" y="-115.35" width="1621.72" height="1131.85"/><rect class="cls-2" x="5.23" y="19.8" width="82.05" height="84.73" rx="3"/><rect class="cls-3" x="5.23" y="19.8" width="82.05" height="84.73" rx="3"/><line class="cls-3" x1="5.23" y1="38.16" x2="87.29" y2="38.16"/><path class="cls-4" d="M22.78,29a3.71,3.71,0,1,1-3.71-3.71A3.71,3.71,0,0,1,22.78,29Z"/><path class="cls-4" d="M34.66,29A3.72,3.72,0,1,1,31,25.27,3.72,3.72,0,0,1,34.66,29Z"/><path class="cls-4" d="M77.16,29a3.71,3.71,0,0,1-3.71,3.71H58.11a3.71,3.71,0,0,1,0-7.42H73.45A3.71,3.71,0,0,1,77.16,29Z"/><polyline class="cls-5" points="22.82 77.6 13.1 67.88 22.82 58.15"/><polyline class="cls-5" points="42.24 58.15 51.97 67.88 42.24 77.6"/><line class="cls-5" x1="37.45" y1="56.25" x2="27.62" y2="82.61"/><rect class="cls-6" x="47.92" y="66.29" width="5.82" height="8.86"/><rect class="cls-6" x="47.92" y="84.23" width="5.82" height="8.86"/><rect class="cls-6" x="60.17" y="64.43" width="49.47" height="52.84"/><rect class="cls-6" x="67.98" y="97.73" width="33.84" height="13.1"/><rect class="cls-6" x="53.74" y="48.25" width="62.33" height="56.21"/><rect class="cls-6" x="60.64" y="55.16" width="48.52" height="42.39"/><circle class="cls-6" cx="74.6" cy="86.31" r="4.53"/><circle class="cls-6" cx="95.2" cy="86.31" r="4.53"/><rect class="cls-6" x="67.98" y="66.29" width="33.84" height="9.15"/><line class="cls-6" x1="76.44" y1="66.29" x2="76.44" y2="75.44"/><line class="cls-6" x1="84.9" y1="66.29" x2="84.9" y2="75.44"/><line class="cls-6" x1="93.36" y1="66.29" x2="93.36" y2="75.44"/><path class="cls-4" d="M114.54,41.19c-.83.1-1.26-.49-1.73-1a3.94,3.94,0,0,0-4.79-.88,4.42,4.42,0,0,0-1.41,1.21,1.84,1.84,0,0,1-2.48.59,15.22,15.22,0,0,1-3.94-2.33,1.75,1.75,0,0,1-.58-2.29,4,4,0,0,0-3.13-5.56,1.79,1.79,0,0,1-1.76-1.67,12.2,12.2,0,0,1,.12-5.07,1.78,1.78,0,0,1,1.66-1.46,4,4,0,0,0,3.32-5.3,1.83,1.83,0,0,1,.73-2.44A14.88,14.88,0,0,1,104,13a1.85,1.85,0,0,1,2.56.54,4,4,0,0,0,4.24,1.21,3.87,3.87,0,0,0,1.89-1.24,1.83,1.83,0,0,1,2.5-.52,15.28,15.28,0,0,1,4,2.33,1.89,1.89,0,0,1,.65,2.18,4,4,0,0,0,3.2,5.36c1,.2,1.45.93,1.63,2.33a13.65,13.65,0,0,1-.14,4.23,1.82,1.82,0,0,1-1.63,1.64,4,4,0,0,0-3.16,5.46,1.67,1.67,0,0,1-.58,2.17,14.84,14.84,0,0,1-4,2.39A1.94,1.94,0,0,1,114.54,41.19Zm-4.9-9.09a5.08,5.08,0,0,0,5.1-5,5.09,5.09,0,1,0-10.18,0A5.09,5.09,0,0,0,109.64,32.1Z"/><circle class="cls-6" cx="109.64" cy="27.05" r="6.16" transform="translate(65.37 130.94) rotate(-80.78)"/></svg>