<svg id="Layer_1" data-name="Layer 1" xmlns="http://www.w3.org/2000/svg" viewBox="0 0 130 130"><defs><style>.cls-1,.cls-4{fill:none;}.cls-1{stroke:#fff;stroke-miterlimit:10;}.cls-2{fill:#fff;}.cls-2,.cls-4{stroke:#0561fc;stroke-linecap:round;stroke-linejoin:round;stroke-width:4px;}.cls-3{fill:#c5e1f9;}</style></defs><rect class="cls-1" x="-477.16" y="-115.35" width="1621.72" height="1131.85"/><g id="Group_82723" data-name="Group 82723"><path id="Path_1187" data-name="Path 1187" class="cls-2" d="M88.62,75.69v37.7a35,35,0,0,1-47.25,0V75.69c0,5.53,10.58,10,23.62,10S88.62,81.22,88.62,75.69Z"/><path id="Path_1188" data-name="Path 1188" class="cls-3" d="M88.63,75.69c0,5.53-10.58,10-23.63,10s-23.62-4.48-23.62-10a3.83,3.83,0,0,1,.08-.83c1-5.14,11.15-9.18,23.54-9.18s22.56,4,23.55,9.18A5.69,5.69,0,0,1,88.63,75.69Z"/><path id="Path_1189" data-name="Path 1189" class="cls-2" d="M41.38,91.57s23,17.15,47.25,0"/><path id="Path_1190" data-name="Path 1190" class="cls-2" d="M41.38,102.3s24.11,19,47.17,0"/><path id="Path_1188-2" data-name="Path 1188" class="cls-4" d="M88.63,75.69c0,5.53-10.58,10-23.63,10s-23.62-4.48-23.62-10a3.83,3.83,0,0,1,.08-.83c1-5.14,11.15-9.18,23.54-9.18s22.56,4,23.55,9.18A5.69,5.69,0,0,1,88.63,75.69Z"/></g><rect class="cls-2" x="41.8" y="7.43" width="46.4" height="46.4"/><path class="cls-3" d="M74.91,27a.68.68,0,0,0-.59-.33H65.54L67,15.37a.68.68,0,0,0-1.24-.44L55.11,33.63a.67.67,0,0,0,.22.93.68.68,0,0,0,.35.1h8.64L63.16,45.92a.67.67,0,0,0,1.24.41l10.5-18.7a.71.71,0,0,0,0-.68Z"/><line class="cls-2" x1="65" y1="53.84" x2="65" y2="74.39"/></svg>