<svg id="Layer_1" data-name="Layer 1" xmlns="http://www.w3.org/2000/svg" viewBox="0 0 130 130"><defs><style>.cls-1,.cls-5{fill:none;}.cls-1{stroke:#fff;stroke-miterlimit:10;}.cls-2{fill:#fff;}.cls-2,.cls-5{stroke:#0561fc;stroke-linecap:round;stroke-linejoin:round;stroke-width:4px;}.cls-3{fill:#0561fc;}.cls-4{fill:#c5e1f9;}</style></defs><rect class="cls-1" x="-877.16" y="-115.35" width="1621.72" height="1131.85"/><path class="cls-2" d="M56.64,102.23H12.19a3.82,3.82,0,0,1-3.82-3.82V23.66a3.82,3.82,0,0,1,3.82-3.82H113.51a3.82,3.82,0,0,1,3.81,3.82V98.41a3.82,3.82,0,0,1-3.81,3.82H54.4"/><line class="cls-2" x1="8.37" y1="37.7" x2="117.32" y2="37.7"/><path class="cls-3" d="M21.67,28.76a2.55,2.55,0,1,1-2.54-2.54A2.54,2.54,0,0,1,21.67,28.76Z"/><path class="cls-3" d="M31.65,28.76a2.54,2.54,0,1,1-2.54-2.54A2.54,2.54,0,0,1,31.65,28.76Z"/><path class="cls-3" d="M107.79,28.76a2.54,2.54,0,0,1-2.54,2.54H87.89a2.54,2.54,0,0,1,0-5.08h17.36A2.54,2.54,0,0,1,107.79,28.76Z"/><line class="cls-2" x1="18.22" y1="50.96" x2="34.08" y2="50.96"/><line class="cls-2" x1="18.22" y1="63.63" x2="48.86" y2="63.63"/><line class="cls-2" x1="18.22" y1="76.3" x2="48.86" y2="76.3"/><path class="cls-4" d="M121.63,95.07A15.1,15.1,0,0,0,102.28,80.6a17.19,17.19,0,0,0-30.64-4.42A7.82,7.82,0,0,0,59.81,82.9c0,.21,0,.41,0,.62a13.4,13.4,0,0,0,.76,26.58v.06h47.44v-.08A15.09,15.09,0,0,0,121.63,95.07Z"/><path class="cls-5" d="M121.63,95.07A15.1,15.1,0,0,0,102.28,80.6a17.19,17.19,0,0,0-30.64-4.42A7.82,7.82,0,0,0,59.81,82.9c0,.21,0,.41,0,.62a13.4,13.4,0,0,0,.76,26.58v.06h47.44v-.08A15.09,15.09,0,0,0,121.63,95.07Z"/></svg>