<svg id="Layer_1" data-name="Layer 1" xmlns="http://www.w3.org/2000/svg" viewBox="0 0 130 130"><defs><style>.cls-1,.cls-4{fill:none;}.cls-1{stroke:#fff;stroke-miterlimit:10;}.cls-2{fill:#c5e1f9;}.cls-3,.cls-5{fill:#fff;}.cls-3,.cls-4{stroke:#0561fc;stroke-linecap:round;stroke-linejoin:round;stroke-width:4px;}</style></defs><rect class="cls-1" x="-477.16" y="-819.4" width="1621.72" height="1131.85"/><rect class="cls-2" x="34.02" y="14.73" width="6.76" height="6.76"/><rect class="cls-2" x="61.62" y="14.69" width="6.76" height="6.76"/><rect class="cls-2" x="89.3" y="14.71" width="6.76" height="6.76"/><rect class="cls-3" x="34.02" y="39.7" width="6.76" height="11.84"/><rect class="cls-3" x="61.62" y="39.63" width="6.76" height="11.84"/><rect class="cls-3" x="89.3" y="39.67" width="6.76" height="11.84"/><rect class="cls-2" x="34.02" y="28.27" width="6.76" height="4.59"/><rect class="cls-2" x="61.62" y="28.24" width="6.76" height="4.59"/><rect class="cls-2" x="89.3" y="28.26" width="6.76" height="4.59"/><rect class="cls-2" x="31.09" y="21.44" width="12.61" height="6.76"/><rect class="cls-2" x="58.69" y="21.44" width="12.61" height="6.76"/><rect class="cls-2" x="86.38" y="21.48" width="12.61" height="6.76"/><rect class="cls-3" x="31.09" y="108.5" width="12.61" height="6.76"/><rect class="cls-3" x="86.38" y="108.54" width="12.61" height="6.76"/><rect class="cls-2" x="31.09" y="32.93" width="12.61" height="6.76"/><rect class="cls-3" x="19.26" y="51.55" width="91.48" height="6.76"/><rect class="cls-3" x="19.26" y="101.74" width="91.48" height="6.76"/><rect class="cls-2" x="58.69" y="32.93" width="12.61" height="6.76"/><rect class="cls-2" x="86.38" y="32.97" width="12.61" height="6.76"/><line class="cls-3" x1="27.13" y1="28.2" x2="47.67" y2="28.2"/><line class="cls-3" x1="54.73" y1="28.2" x2="75.27" y2="28.2"/><line class="cls-3" x1="82.41" y1="28.2" x2="102.95" y2="28.2"/><line class="cls-3" x1="27.13" y1="39.73" x2="47.67" y2="39.73"/><line class="cls-3" x1="54.73" y1="39.73" x2="75.27" y2="39.73"/><line class="cls-3" x1="82.41" y1="39.73" x2="102.95" y2="39.73"/><rect class="cls-4" x="25.01" y="58.32" width="79.98" height="43.42"/><line class="cls-4" x1="32.51" y1="64.9" x2="32.51" y2="96.58"/><line class="cls-4" x1="39.04" y1="64.9" x2="39.04" y2="96.58"/><line class="cls-4" x1="91.46" y1="64.9" x2="91.46" y2="96.58"/><line class="cls-4" x1="97.98" y1="64.9" x2="97.98" y2="96.58"/><rect class="cls-4" x="46.52" y="65.74" width="37.77" height="29.31"/><path class="cls-2" d="M71.41,78.17a.39.39,0,0,0-.35-.21H65.74l.89-6.82a.42.42,0,0,0-.36-.45.43.43,0,0,0-.39.19L59.41,82.22a.41.41,0,0,0,.13.56.55.55,0,0,0,.22.06H65l-.71,6.82a.41.41,0,0,0,.38.44.4.4,0,0,0,.37-.19l6.37-11.33a.4.4,0,0,0,0-.41Z"/><path class="cls-2" d="M47.88,98.68c-1.4-.35-2.8-.68-4.19-1.05a1.1,1.1,0,0,1-.66-.46A17.43,17.43,0,0,1,42.12,95a1.07,1.07,0,0,1,.14-.79q1-1.68,2-3.33a1.41,1.41,0,0,0-.18-1.92q-1.77-1.78-3.55-3.56a1.38,1.38,0,0,0-1.85-.2,14.76,14.76,0,0,0-1.58,1c-1.45,1.21-2.94,1.53-4.56.38a1.69,1.69,0,0,1-.68-.78c-.4-1.41-.72-2.84-1.08-4.27a1.47,1.47,0,0,0-1.68-1.33c-1.55,0-3.11,0-4.67,0a1.46,1.46,0,0,0-1.68,1.33,23.59,23.59,0,0,0-.68,2.82,4.46,4.46,0,0,1-.46,1.56L19.2,87.29a1.05,1.05,0,0,1-1.28,0c-1.06-.69-2.15-1.32-3.25-2a9.42,9.42,0,0,0-1-.46,4.49,4.49,0,0,0-1,.54c-1.23,1.19-2.43,2.4-3.62,3.62a1.34,1.34,0,0,0-.19,1.77,21.85,21.85,0,0,0,1.41,2.33,3,3,0,0,1,.34,3.74,1.52,1.52,0,0,1-1,.89c-1.38.3-2.75.65-4.11,1a1.45,1.45,0,0,0-1.31,1.69c0,1.56,0,3.12,0,4.67a1.5,1.5,0,0,0,1.27,1.65c1,.25,2,.57,3.08.74,1.25.2,2.22.61,2.44,2,0,.27.3.52.35.79a1.78,1.78,0,0,1-.06,1c-.58,1.08-1.25,2.13-1.88,3.18a1.42,1.42,0,0,0,.23,1.92l3.49,3.49a1.43,1.43,0,0,0,1.92.22A21,21,0,0,0,16.87,119a3.31,3.31,0,0,1,2.17-.84c-.22,0,1.77.66,1.94.81a1.84,1.84,0,0,1,.67.78c.4,1.41.72,2.84,1.08,4.26a1.45,1.45,0,0,0,1.69,1.32h4.49c1.24,0,1.59-.28,1.89-1.51s.67-2.74,1-4.1c.14-.55,2.77-1.88,3.29-1.67a4,4,0,0,1,.45.26c1,.59,2,1.17,2.95,1.78a1.51,1.51,0,0,0,2.13-.25c.69-.72,1.41-1.42,2.12-2.12,2.34-2.33,2.33-2,.53-4.72-1-1.51-1.46-2.86-.35-4.43a1.76,1.76,0,0,1,.83-.73c1.35-.4,2.73-.7,4.09-1,1.17-.29,1.46-.66,1.47-1.84v-4.41C49.32,99.34,49,99,47.88,98.68ZM26.76,108.9a6.18,6.18,0,1,1,6.16-6.19A6.17,6.17,0,0,1,26.76,108.9Z"/><path class="cls-5" d="M32.92,102.71a6.18,6.18,0,1,1-6.2-6.16A6.18,6.18,0,0,1,32.92,102.71Z"/></svg>