<svg id="Layer_1" data-name="Layer 1" xmlns="http://www.w3.org/2000/svg" viewBox="0 0 130 130"><defs><style>.cls-1,.cls-5{fill:none;}.cls-1{stroke:#fff;stroke-miterlimit:10;}.cls-2,.cls-3{fill:#fff;}.cls-2,.cls-5{stroke:#0561fc;stroke-linecap:round;stroke-linejoin:round;stroke-width:4px;}.cls-4{fill:#c5e1f9;}.cls-6{fill:#0561fc;}</style></defs><rect class="cls-1" x="-127.81" y="-75.03" width="1617.81" height="1136.52"/><path class="cls-2" d="M108.34,86a17.12,17.12,0,0,0-22-16.43,19.51,19.51,0,0,0-34.79-5,8.88,8.88,0,0,0-13.44,7.63c0,.24,0,.47,0,.7A15.21,15.21,0,0,0,39,103v.07H92.92V103A17.14,17.14,0,0,0,108.34,86Z"/><rect class="cls-3" x="6.34" y="45.39" width="17.77" height="16.02"/><polygon class="cls-3" points="24.11 45.4 6.34 45.4 15.23 36.5 24.11 45.4"/><rect class="cls-4" x="11.86" y="51.07" width="6.72" height="10.34"/><rect class="cls-5" x="6.34" y="45.39" width="17.77" height="16.02"/><polygon class="cls-5" points="24.11 45.4 6.34 45.4 15.23 36.5 24.11 45.4"/><rect class="cls-3" x="104.22" y="29.11" width="19.44" height="32.3"/><rect class="cls-4" x="104.22" y="49.29" width="19.44" height="12.12"/><rect class="cls-5" x="104.22" y="29.11" width="19.44" height="32.3"/><path class="cls-6" d="M116.5,54.72a2.56,2.56,0,1,1-2.56-2.56A2.56,2.56,0,0,1,116.5,54.72Z"/><rect class="cls-2" x="48.55" y="89.51" width="36.52" height="30.49"/><rect class="cls-3" x="58.19" y="35.98" width="17.25" height="5.12"/><rect class="cls-3" x="50.21" y="10" width="33.21" height="25.98"/><rect class="cls-4" x="50.21" y="30.85" width="33.21" height="5.12"/><rect class="cls-5" x="50.21" y="10" width="33.21" height="25.98"/><rect class="cls-5" x="58.19" y="35.98" width="17.25" height="5.12"/><line class="cls-5" x1="66.81" y1="41.1" x2="66.81" y2="55.9"/><polyline class="cls-5" points="113.94 61.41 113.94 66.97 105.13 75.98"/><polyline class="cls-5" points="15.22 61.41 15.22 66.97 27.66 79.7"/><path class="cls-5" d="M77.42,101.25a15,15,0,0,0-21.22,0"/><path class="cls-5" d="M74.29,105.49a10.56,10.56,0,0,0-15,0"/><path class="cls-5" d="M70.62,109.49a5.37,5.37,0,0,0-7.61,0"/><path class="cls-6" d="M68.5,113a1.69,1.69,0,1,1-3.37,0,1.69,1.69,0,0,1,3.37,0Z"/></svg>