<svg id="Layer_1" data-name="Layer 1" xmlns="http://www.w3.org/2000/svg" viewBox="0 0 130 130"><defs><style>.cls-1,.cls-4{fill:none;}.cls-1{stroke:#fff;stroke-miterlimit:10;}.cls-2{fill:#fff;}.cls-2,.cls-4{stroke:#0561fc;stroke-linecap:round;stroke-linejoin:round;stroke-width:4px;}.cls-3{fill:#c5e1f9;}.cls-5{fill:#0561fc;}</style></defs><rect class="cls-1" x="-527.81" y="-75.03" width="1617.81" height="1136.52"/><path class="cls-2" d="M120.19,55.26A23.6,23.6,0,0,0,89.93,32.63,26.88,26.88,0,0,0,42,25.71,12.24,12.24,0,0,0,23.51,36.22c0,.33,0,.65,0,1a21,21,0,0,0,1.2,41.57v.09H99v-.11A23.61,23.61,0,0,0,120.19,55.26Z"/><rect class="cls-2" x="38.2" y="49.54" width="49.59" height="75.46" rx="4.54"/><rect class="cls-3" x="45.1" y="58.11" width="35.79" height="9.81"/><rect class="cls-3" x="45.1" y="74.28" width="35.79" height="9.81"/><rect class="cls-3" x="45.1" y="90.45" width="35.79" height="9.81"/><rect class="cls-3" x="45.1" y="106.63" width="35.79" height="9.81"/><path class="cls-4" d="M124.2,9.91a16.77,16.77,0,0,0-23.71,0"/><path class="cls-4" d="M120.7,14.65a11.82,11.82,0,0,0-16.71,0"/><path class="cls-4" d="M116.6,19.12a6,6,0,0,0-8.51,0"/><path class="cls-5" d="M114.23,23a1.89,1.89,0,1,1-1.88-1.88A1.89,1.89,0,0,1,114.23,23Z"/></svg>