<svg id="Layer_1" data-name="Layer 1" xmlns="http://www.w3.org/2000/svg" viewBox="0 0 130 130"><defs><style>.cls-1{fill:#c5e1f9;}.cls-2{fill:none;}.cls-2,.cls-3{stroke:#0561fc;stroke-linecap:round;stroke-linejoin:round;stroke-width:4px;}.cls-3{fill:#fff;}</style></defs><path class="cls-1" d="M24,24v82h82V24ZM92.19,92.19H37.8V37.81H92.19Z"/><rect class="cls-2" x="24" y="24" width="82" height="82"/><line class="cls-3" x1="39.19" y1="24" x2="39.19" y2="12.58"/><line class="cls-3" x1="52.1" y1="24" x2="52.1" y2="12.58"/><line class="cls-3" x1="65" y1="24" x2="65" y2="12.58"/><line class="cls-3" x1="77.9" y1="24" x2="77.9" y2="12.58"/><line class="cls-3" x1="90.81" y1="24" x2="90.81" y2="12.58"/><line class="cls-3" x1="39.19" y1="117.42" x2="39.19" y2="106"/><line class="cls-3" x1="52.1" y1="117.42" x2="52.1" y2="106"/><line class="cls-3" x1="65" y1="117.42" x2="65" y2="106"/><line class="cls-3" x1="77.9" y1="117.42" x2="77.9" y2="106"/><line class="cls-3" x1="90.81" y1="117.42" x2="90.81" y2="106"/><line class="cls-3" x1="106" y1="39.19" x2="117.42" y2="39.19"/><line class="cls-3" x1="106" y1="52.1" x2="117.42" y2="52.1"/><line class="cls-3" x1="106" y1="65" x2="117.42" y2="65"/><line class="cls-3" x1="106" y1="77.9" x2="117.42" y2="77.9"/><line class="cls-3" x1="106" y1="90.81" x2="117.42" y2="90.81"/><line class="cls-3" x1="12.58" y1="39.19" x2="24" y2="39.19"/><line class="cls-3" x1="12.58" y1="52.1" x2="24" y2="52.1"/><line class="cls-3" x1="12.58" y1="65" x2="24" y2="65"/><line class="cls-3" x1="12.58" y1="77.9" x2="24" y2="77.9"/><line class="cls-3" x1="12.58" y1="90.81" x2="24" y2="90.81"/><rect class="cls-3" x="37.81" y="37.81" width="54.39" height="54.39"/><line class="cls-3" x1="50.65" y1="76.64" x2="50.65" y2="92.19"/><circle class="cls-3" cx="50.65" cy="76.64" r="5.81"/><polyline class="cls-3" points="75.42 65 57.9 65 57.9 53.03 37.81 53.03"/><line class="cls-3" x1="75.42" y1="37.81" x2="75.42" y2="67.35"/><line class="cls-3" x1="75.42" y1="67.35" x2="75.42" y2="92.19"/><line class="cls-3" x1="92.19" y1="82.45" x2="75.42" y2="82.45"/><circle class="cls-3" cx="57.9" cy="53.03" r="5.81"/><circle class="cls-3" cx="75.42" cy="65" r="5.81"/></svg>