<svg id="Layer_1" data-name="Layer 1" xmlns="http://www.w3.org/2000/svg" viewBox="0 0 130 130"><defs><style>.cls-1,.cls-2{fill:none;}.cls-1{stroke:#fff;stroke-miterlimit:10;}.cls-2,.cls-4{stroke:#0561fc;stroke-linecap:round;stroke-linejoin:round;stroke-width:4px;}.cls-3{fill:#c5e1f9;}.cls-4{fill:#fff;}.cls-5{fill:#0561fc;}</style></defs><rect class="cls-1" x="-1327.81" y="-475.03" width="1617.81" height="1136.52"/><path class="cls-2" d="M65,45.29V11a6,6,0,0,1,6-6h30.09"/><path class="cls-2" d="M65,45.29V11a6,6,0,0,0-6-6H28.91"/><rect class="cls-3" x="61.54" y="45.29" width="6.92" height="79.68"/><path class="cls-4" d="M45,5A6.81,6.81,0,0,1,31.64,5Z"/><path class="cls-4" d="M99,5A6.81,6.81,0,0,1,85.65,5Z"/><rect class="cls-4" x="46.32" y="61.83" width="37.34" height="29.44"/><path class="cls-2" d="M75.6,72.83a15,15,0,0,0-21.22,0"/><path class="cls-2" d="M72.47,77.07a10.57,10.57,0,0,0-15,0"/><path class="cls-2" d="M68.79,81.07a5.36,5.36,0,0,0-7.6,0"/><path class="cls-5" d="M66.67,84.54A1.68,1.68,0,1,1,65,82.86,1.69,1.69,0,0,1,66.67,84.54Z"/><line class="cls-2" x1="5.02" y1="124.97" x2="124.98" y2="124.97"/><line class="cls-2" x1="38.32" y1="18.94" x2="38.32" y2="22.12"/><line class="cls-2" x1="46.83" y1="16.66" x2="48.42" y2="19.41"/><line class="cls-2" x1="53.06" y1="10.43" x2="55.82" y2="12.02"/><line class="cls-2" x1="20.82" y1="12.02" x2="23.58" y2="10.43"/><line class="cls-2" x1="28.22" y1="19.41" x2="29.81" y2="16.66"/><line class="cls-2" x1="92.33" y1="18.94" x2="92.33" y2="22.12"/><line class="cls-2" x1="100.84" y1="16.66" x2="102.43" y2="19.41"/><line class="cls-2" x1="107.07" y1="10.43" x2="109.83" y2="12.02"/><line class="cls-2" x1="74.83" y1="12.02" x2="77.59" y2="10.43"/><line class="cls-2" x1="82.23" y1="19.41" x2="83.82" y2="16.66"/></svg>