<svg id="Layer_1" data-name="Layer 1" xmlns="http://www.w3.org/2000/svg" width="116.51" height="154.167" viewBox="0 0 116.51 154.167">
  <path id="Path_2097" data-name="Path 2097" d="M116.2,63.692a2.812,2.812,0,0,0-1.978-.751c-4.757-.066-9.514-.033-14.271-.039-.459,0-.923-.039-1.442-.066V53.763c.486,0,.906-.055,1.332-.055h8.8c1.343,0,2.055-.553,2.243-1.658.232-1.37-.6-2.315-2.122-2.326-3.094,0-6.183,0-9.271-.039-.354,0-.989-.376-1-.586-.066-2.84-.044-5.68-.044-8.669h16.045c.917,0,1.779-.249,1.972-1.16a2.945,2.945,0,0,0-.337-2.166,2.65,2.65,0,0,0-1.9-.646c-4.763-.05-9.52,0-14.277,0-1.514,0-1.514,0-1.514-1.575V27.63a9.26,9.26,0,0,0-9.288-9.3c-2.5-.028-5,0-7.5,0-.42,0-.84-.033-1.365-.061V8.121c0-1.5-.724-2.293-1.978-2.315S76.307,6.6,76.3,8.17v8.8c0,.414-.044.834-.072,1.243h-9.2V2.247c0-.9-.254-1.768-1.177-1.983a2.763,2.763,0,0,0-2.066.26,2.812,2.812,0,0,0-.774,1.967c-.061,4.763-.033,9.514-.033,14.277V18.2H53.732V8.049a1.934,1.934,0,0,0-1.337-2.133,1.974,1.974,0,0,0-2.669,2.077v8.923c0,.42-.05.84-.072,1.276H40.438V2.336A2,2,0,0,0,39.471.325c-1.475-.84-2.984.144-2.984,2V16.834c0,.459-.055.912-.088,1.453H27.6a9.293,9.293,0,0,0-9.3,9.348c0,2.5,0,4.973,0,7.492,0,.414-.039.834-.066,1.315H7.968a1.875,1.875,0,0,0-2.122,2.006,1.9,1.9,0,0,0,2.16,1.978h10.21v9.31H2.371a1.985,1.985,0,0,0-2.21,1.392c-.459,1.442.553,2.608,2.3,2.608H18.25v9.2H8.2c-1.569,0-2.37.729-2.359,2.05s.774,1.939,2.3,1.945h8.685c.459,0,.917.039,1.376.061V76.2H2.332c-1.315,0-2.055.553-2.243,1.658A1.973,1.973,0,0,0,2.26,80.178H18.322V88.72a9.291,9.291,0,0,0,9.614,9.6H32c1.066,0,2.133,0,3.193-.039a2.63,2.63,0,0,1,.619.039h5.276a1.912,1.912,0,0,1,.553-.033c.492,0,.983.033,1.481.033H80.965a2.409,2.409,0,0,1,.553-.039c.89,0,1.779.033,2.674.039h1.536c1.171,0,2.348,0,3.519-.044a9.26,9.26,0,0,0,9.183-9.293c0-2.5,0-4.973,0-7.492,0-.42.05-.834.083-1.348H108.5c1.591,0,2.4-.685,2.414-1.972s-.818-2.017-2.37-2.022H98.507V66.913h15.978c.906,0,1.768-.215,1.983-1.149A2.762,2.762,0,0,0,116.2,63.692ZM94.451,88c0,4.282-2.061,6.337-6.343,6.337H28.664c-4.343,0-6.381-2.055-6.381-6.426V28.6c0-4.276,2.05-6.321,6.348-6.321H88.2c4.2,0,6.254,2.061,6.254,6.293Z" transform="translate(-0.05 -0.022)" fill="#182ac3"/>
  <path id="Path_2098" data-name="Path 2098" d="M109.487,89.145V75.581c0-4.2-2.624-6.846-6.823-6.851H75.673c-4.271,0-6.873,2.635-6.873,6.917v26.758c0,4.381,2.646,7.006,7.056,7.011h26.636c4.326,0,6.984-2.658,7-6.951Q109.492,95.8,109.487,89.145Zm-4.017,13.2c0,2.166-.862,3.044-3,3.044H75.844c-2.171,0-3.05-.873-3.05-3.006V75.763c-.017-2.177.834-3.017,3.011-3.017h26.5c2.37,0,3.166.785,3.166,3.105Q105.481,89.1,105.47,102.35Z" transform="translate(-30.815 -30.768)" fill="#182ac3"/>
  <path id="Path_2099" data-name="Path 2099" d="M156.048,48.478a1.89,1.89,0,0,1,1.989,1.9,1.94,1.94,0,1,1-3.879.1,1.912,1.912,0,0,1,1.89-2.006Z" transform="translate(-69.012 -21.704)" fill="#182ac3"/>
  <path id="Path_2100" data-name="Path 2100" d="M127.06,180.846c-.072,10.415-6.669,18.426-16.807,20.443a19.218,19.218,0,0,1-3.635.32c-5.216.028-10.835.05-16.531,0a29.045,29.045,0,0,1-20.9-8.73c-8.84-8.812-17.868-17.874-25.614-25.675-3.7-3.724-3.834-9.21-.32-12.763a8.636,8.636,0,0,1,6.188-2.674,9.509,9.509,0,0,1,6.68,2.923c3.083,3.05,6.078,6.078,9.63,9.7a6.361,6.361,0,0,1,.779,1.072c.122.188.238.376.359.553l.155.221.983-.641v-.149a2.253,2.253,0,0,1,.039-.5c0-.37.044-.751.044-1.138V115.109a5.107,5.107,0,0,1,.028-.652,8.84,8.84,0,0,1,4.453-7.249,8.735,8.735,0,0,1,8.4-.144,8.387,8.387,0,0,1,4.636,6.011l.177,19.017a4.916,4.916,0,0,0,0,.8,21.547,21.547,0,0,1,.033,2.365v1.033h.332c.762,0,1.536-.066,2.271-.127a13.63,13.63,0,0,1,4.624.144,13.62,13.62,0,0,1,3.984,2.21c.619.442,1.26.9,1.934,1.326l.144.083.149-.077c5.912-3.315,9.111-2.37,13.719,4.072l.138.2.221-.116a9,9,0,0,1,7.84-.8,8.674,8.674,0,0,1,5.779,7.3,12.866,12.866,0,0,1,.116,1.818v7.917C127.088,167.006,127.1,173.984,127.06,180.846Z" transform="translate(-18.244 -47.472)" fill="#fff"/>
  <path id="Path_2101" data-name="Path 2101" d="M127.042,160.263v-7.917a12.864,12.864,0,0,0-.116-1.818,8.674,8.674,0,0,0-5.779-7.3,9,9,0,0,0-7.84.8l-.221.116-.138-.2c-4.608-6.442-7.807-7.393-13.719-4.072l-.149.077-.144-.083c-.674-.425-1.315-.884-1.934-1.326a12.928,12.928,0,0,0-3.984-2.21,14.5,14.5,0,0,0-4.624-.144c-.735.061-1.508.116-2.271.127h-.287v-1.033a21.544,21.544,0,0,0-.033-2.365,4.918,4.918,0,0,1,0-.8L85.626,113.1a8.387,8.387,0,0,0-4.636-6.011,8.735,8.735,0,0,0-8.4.144,8.84,8.84,0,0,0-4.453,7.249,5.191,5.191,0,0,1-.028.652v48.7a9.657,9.657,0,0,1-.044,1.138,2.159,2.159,0,0,1-.039.5v.149l-.995.641-.155-.221c-.122-.182-.238-.37-.359-.553a6.359,6.359,0,0,0-.8-1.088c-3.547-3.613-6.547-6.63-9.63-9.7a9.509,9.509,0,0,0-6.68-2.923,8.636,8.636,0,0,0-6.188,2.674c-3.514,3.553-3.381,9.039.32,12.763,7.735,7.8,16.758,16.863,25.614,25.675a29.045,29.045,0,0,0,20.912,8.73c5.7.044,11.315,0,16.531,0a19.219,19.219,0,0,0,3.635-.315c10.138-2,16.735-10.011,16.807-20.443C127.081,173.993,127.07,167.015,127.042,160.263Zm-4.028-3.4v23.907a16.332,16.332,0,0,1-16.741,16.835c-2.845,0-5.741.033-8.641.033-2.525,0-5.05,0-7.553-.044a24.94,24.94,0,0,1-17.846-7.315c-7.42-7.365-14.918-14.918-22.172-22.194l-3.685-3.7a4.832,4.832,0,0,1-1.105-6.006,4.591,4.591,0,0,1,5.16-2.365,6.669,6.669,0,0,1,2.818,1.658c4.387,4.287,9.061,8.928,14.719,14.63.95.961,1.724,1.6,2.912,1.105s1.254-1.514,1.249-2.884v-55.35a5.072,5.072,0,0,1,2.276-4.42,4.724,4.724,0,0,1,4.619-.21c1.89.878,2.807,2.5,2.807,4.973v33.7a1.973,1.973,0,0,0,3.945.066c.055-.862.05-1.74.044-2.591v-1.779c.072-3.033,2.011-5.083,4.823-5.089h0a4.837,4.837,0,0,1,4.851,5.05v4.21c.055,1.4.707,2.105,1.995,2.133,1.105.039,1.884-.8,1.956-2.16V146.86a4.916,4.916,0,0,1,5.006-4.79,4.845,4.845,0,0,1,4.68,4.9c.033,1.227,0,2.481,0,3.685v2.21a3.441,3.441,0,0,0,.768,2.5,1.724,1.724,0,0,0,1.293.47c1.282,0,1.945-.989,1.967-2.868v-1.53a4.763,4.763,0,0,1,4.818-4.735h.033a4.647,4.647,0,0,1,4.823,4.68A47.036,47.036,0,0,1,123.014,156.866Z" transform="translate(-18.226 -47.481)" fill="#182ac3"/>
</svg>
