<svg xmlns="http://www.w3.org/2000/svg" width="120.688" height="143.997" viewBox="0 0 120.688 143.997">
  <g id="Layer_2" data-name="Layer 2" transform="translate(0.009)">
    <g id="Layer_1" data-name="Layer 1" transform="translate(-0.009)">
      <path id="Path_2089" data-name="Path 2089" d="M111.96,0H50.8c-5.645,0-8.765,3.119-8.776,8.73V35.024H8.65C3.162,35.042,0,38.19,0,43.649v56.721a11.459,11.459,0,0,0,.192,2.473c.838,3.8,3.981,6.169,8.212,6.175H42.022v26.248c0,5.645,3.125,8.73,8.771,8.73h61.156c5.645,0,8.73-3.114,8.73-8.771V8.718C120.713,3.125,117.605,0,111.96,0ZM72.926,4.074H89.763v.32a2.485,2.485,0,0,1-.477,2,2.508,2.508,0,0,1-1.99.646c-4.237-.093-8.1-.087-11.814,0h-.151a2.479,2.479,0,0,1-1.862-.582,2.567,2.567,0,0,1-.582-2.008ZM4.07,42.486A3.645,3.645,0,0,1,7.6,39.046a12.221,12.221,0,0,1,1.583-.052H78.321c4.708,0,5.727,1.042,5.727,5.82v4.074H4.023V46.641q-.08-2.078.047-4.155Zm38.057,62.582H9.488c-4.318,0-5.5-1.164-5.506-5.372V53.136H83.908v.332c0,.268.035.524.052.774.035.541.064,1.053.064,1.577V99.69c0,4.231-1.164,5.389-5.488,5.389Zm74.606,29.99c0,3.707-1.3,5.023-4.918,5.023H50.9c-3.492,0-4.883-1.35-4.889-4.813V111.231a8.361,8.361,0,0,1,.058-1.164,4.041,4.041,0,0,1,.047-.722v-.326H78.711c6.437,0,9.312-2.91,9.312-9.388V44.086c0-6.111-2.991-9.085-9.137-9.091h-32.7v-.32a7.519,7.519,0,0,0-.064-.751c-.047-.483-.087-.943-.087-1.408V8.945c0-3.667,1.3-4.97,4.953-4.982h5.4c3.207,0,6.518,0,9.772-.035A2.517,2.517,0,0,1,68.98,5.936c.18.547.338,1.036.477,1.478,1.123,3.579,1.123,3.585,5.058,3.55h5.814c3.044,0,6.181,0,9.271.047a3.061,3.061,0,0,0,3.41-2.439c1.449-4.47,1.63-4.6,6.4-4.6h11.512c4.8,0,5.82,1.024,5.82,5.744V125.047C116.738,128.382,116.744,131.717,116.732,135.057Z" transform="translate(0.009)" fill="#182ac3"/>
      <path id="Path_2090" data-name="Path 2090" d="M142.329,230.716c-.041,1.3-.861,1.932-2.508,1.932h-12.9a2.671,2.671,0,0,1-1.956-.617,1.921,1.921,0,0,1-.477-1.438c.029-1.583,1.286-1.921,2.328-1.921h13.1a2.7,2.7,0,0,1,1.967.623,1.9,1.9,0,0,1,.448,1.42Z" transform="translate(-52.027 -95.583)" fill="#182ac3"/>
      <path id="Path_2091" data-name="Path 2091" d="M40.371,139.012a1.816,1.816,0,0,1-1.362.506c-.582-.07-1.164-.53-1.868-1.4l-1.624-2.107c-2.124-2.759-4.324-5.61-6.524-8.381a2.466,2.466,0,0,1-.052-3.539c1.28-1.624,2.549-3.265,3.818-4.9,1.467-1.891,2.98-3.847,4.5-5.75a5.989,5.989,0,0,1,1.309-1.094,7.1,7.1,0,0,0,.582-.425c.215.151.436.291.64.413.407.256.873.547.908.745a4.1,4.1,0,0,1-.4,2.724c-1.717,2.45-3.678,5.005-6.367,8.288a2.325,2.325,0,0,0-.029,3.445c1.438,1.746,2.834,3.556,4.185,5.319q1.059,1.379,2.118,2.753C41.413,137.109,41.477,138.156,40.371,139.012Z" transform="translate(-11.79 -46.783)" fill="#182ac3"/>
      <path id="Path_2092" data-name="Path 2092" d="M109.383,125.977c-.1.186-.186.372-.274.582a7.176,7.176,0,0,1-.722,1.292c-2.031,2.666-4.121,5.36-6.146,7.967l-1.967,2.5c-1.088,1.4-2.008,1.676-3.079.9a1.95,1.95,0,0,1-.9-1.275,2.846,2.846,0,0,1,.815-2.049c.629-.8,1.362-1.746,2.037-2.648,1.327-1.746,2.7-3.533,4.12-5.238,1.065-1.275,1.449-2.386.058-4.01s-2.782-3.457-4.074-5.186c-.681-.9-1.368-1.8-2.066-2.689a2.868,2.868,0,0,1-.856-2.078,1.932,1.932,0,0,1,.856-1.269,1.979,1.979,0,0,1,1.164-.471c.623,0,1.234.425,1.909,1.292l.978,1.257c2.392,3.085,4.871,6.268,7.281,9.422a5.785,5.785,0,0,1,.629,1.164C109.22,125.622,109.3,125.8,109.383,125.977Z" transform="translate(-40.243 -46.942)" fill="#182ac3"/>
      <path id="Path_2093" data-name="Path 2093" d="M76.2,114.154l-.268.733a12.86,12.86,0,0,1-.535,1.321c-3.2,6.4-6.984,14.009-10.866,21.685-.582,1.129-1.339,1.862-2.043,1.961a1.263,1.263,0,0,1-1.164-.483,3.139,3.139,0,0,1-.582-2.625c3.556-7.432,7.409-15.132,11.448-22.948A2.957,2.957,0,0,1,74.4,112.67h.076c.361,0,.815.524,1.211.972C75.885,113.817,76.042,114.026,76.2,114.154Z" transform="translate(-25.345 -47.097)" fill="#182ac3"/>
      <path id="Path_2094" data-name="Path 2094" d="M18.189,73.872a3.013,3.013,0,0,1-1.513,2.188,4.138,4.138,0,0,1-3.131.029,2.375,2.375,0,0,1-1.339-1.2,1.647,1.647,0,0,1,.087-1.571,3.652,3.652,0,0,1,3.061-1.1h.512C17.4,72.2,18.113,72.726,18.189,73.872Z" transform="translate(-5.03 -30.188)" fill="#182ac3"/>
      <path id="Path_2095" data-name="Path 2095" d="M34.265,74.984a3.67,3.67,0,0,1-3.061,1.1h0a3.275,3.275,0,0,1-2.328-.477,1.647,1.647,0,0,1-.506-1.164,3.014,3.014,0,0,1,1.525-2.182,4.173,4.173,0,0,1,1.612-.32,3.964,3.964,0,0,1,1.531.3,2.328,2.328,0,0,1,1.315,1.2,1.612,1.612,0,0,1-.087,1.548Z" transform="translate(-11.852 -30.071)" fill="#182ac3"/>
      <path id="Path_2096" data-name="Path 2096" d="M50.3,73.973a3.037,3.037,0,0,1-1.647,2.1,4.214,4.214,0,0,1-3.236-.058,2.194,2.194,0,0,1-1.164-1.24,1.624,1.624,0,0,1,.163-1.525,3.742,3.742,0,0,1,3.038-1.036h.093a3.067,3.067,0,0,1,2.281.512A1.676,1.676,0,0,1,50.3,73.973Z" transform="translate(-18.443 -30.178)" fill="#182ac3"/>
    </g>
  </g>
</svg>
