<svg xmlns="http://www.w3.org/2000/svg" width="120.482" height="147.003" viewBox="0 0 120.482 147.003">
  <g id="Layer_2" data-name="Layer 2" transform="translate(0.009 0.034)">
    <g id="Layer_1" data-name="Layer 1" transform="translate(-0.009 -0.034)">
      <path id="Path_2102" data-name="Path 2102" d="M91.181,69.469A43.5,43.5,0,0,0,51.963,52.316a43.6,43.6,0,0,0-35.517,24A45.022,45.022,0,0,0,11.554,97.9,22.07,22.07,0,0,1,8.8,109.58c-2.731,5.1-5.307,10.383-7.776,15.511l-.57,1.134A2.7,2.7,0,0,0,.191,128.7a2.926,2.926,0,0,0,2.448.919h8.854v9.3c0,3.593,0,7.288.026,10.927.036,3.08,1.617,5.312,4.106,5.892a12.374,12.374,0,0,0,4.281-.036c2.895-.4,5.754-.888,8.782-1.406,1.242-.21,2.5-.426,3.783-.636l2.269-.375v16.6a2.771,2.771,0,0,0,.713,2.053,2.6,2.6,0,0,0,2.053.334c15.013-2.51,30.19-5.071,45.11-7.612,2-.344,2.382-.8,2.387-2.879,0-1.848,0-3.69.046-5.538.056-4.517.113-9.182-.108-13.735-.318-6.77,1.627-12.667,6.123-18.559C103.576,107.533,103.622,86.161,91.181,69.469ZM81.09,142.08c.144,3.4.113,6.831.077,10.152,0,1.75-.031,3.557,0,5.328a3.534,3.534,0,0,1-3.008,3.978q-12.754,2.079-25.509,4.188l-10.989,1.817a2.168,2.168,0,0,1-.39.031,3.815,3.815,0,0,1-.513-.041l-.38-.046-1.755-.175V151.863a3.187,3.187,0,0,0-.719-2.32,3.172,3.172,0,0,0-2.4-.287l-2.926.513q-6.236,1.057-12.482,2.1c-.544.087-1.078.133-1.648.18l-.878.082-2.145.21V128.458c0-2.053-.611-2.669-2.659-2.715H5.236L6.452,123l.375-.857c.226-.513.416-.97.642-1.422.482-.97.944-1.95,1.406-2.931a73.164,73.164,0,0,1,3.639-7.032c2.618-4.281,2.972-8.8,2.972-13.042,0-17.682,8.012-30.523,23.841-38.161,11.168-5.384,24.154-4.963,35.635,1.16A40.061,40.061,0,0,1,96.047,90.107c1.719,12.041-1.078,22.768-8.3,31.873A29,29,0,0,0,81.09,142.08Z" transform="translate(0.009 -25.353)" fill="#182ac3"/>
      <path id="Path_2103" data-name="Path 2103" d="M158.789,31.261v3.962h3.429a1.848,1.848,0,1,1,0,3.7h-3.08c-.272,0-.354.072-.354.349v3.593h3.48a1.843,1.843,0,1,1,.036,3.68h-3.531v3.973H162.3a1.843,1.843,0,0,1,.036,3.68h-3.208c-.3,0-.39.077-.39.385v7.986a6.1,6.1,0,0,1-6.185,6.19h-8.351v3.454a1.853,1.853,0,1,1-3.7,0V68.77H136.58v3.464a1.848,1.848,0,0,1-3.234,1.273,1.827,1.827,0,0,1-.472-1.268c0-1.027,0-2.017,0-3.023v-.426h-3.932v3.423a1.838,1.838,0,0,1-1.263,1.817,1.745,1.745,0,0,1-2.053-.631,2.371,2.371,0,0,1-.38-1.139c-.051-1.027,0-2.053,0-3.08v-.405h-3.932v3.357a1.853,1.853,0,0,1-1.54,1.971,1.827,1.827,0,0,1-2.171-1.781v-3.5h-3.947v3.552a1.841,1.841,0,0,1-3.649.293,4.3,4.3,0,0,1-.031-.729V68.791h-.539c-2.772,0-5.543.036-8.315,0a6.072,6.072,0,0,1-5.754-5.441c-.036-.4-.056-.8-.056-1.2V54.276H91.829a1.843,1.843,0,0,1,0-3.685h3.413V46.577H91.768a1.843,1.843,0,0,1,.031-3.685H95.15a.36.36,0,0,0,.087-.031V38.94H91.732a1.843,1.843,0,0,1-.4-3.644,3.08,3.08,0,0,1,.616-.041h3.264V31.261H91.763a1.843,1.843,0,0,1-.513-3.624,2.145,2.145,0,0,1,.575-.062H95.2V23.624H91.809A1.848,1.848,0,0,1,90.49,20.4a1.761,1.761,0,0,1,1.232-.467h3.5v-8.3a6.051,6.051,0,0,1,2.926-5.3,5.79,5.79,0,0,1,3.269-.975h8.469V1.841a1.843,1.843,0,0,1,3.68-.031v3.5h3.973V1.883a1.822,1.822,0,0,1,1.683-1.9,1.776,1.776,0,0,1,2.022,1.678c.067.97.031,1.945.036,2.915v.749h3.937V1.944a1.807,1.807,0,0,1,1.822-1.961,1.832,1.832,0,0,1,1.9,1.945v3.4H132.9v-3.3a2.812,2.812,0,0,1,.026-.513,1.853,1.853,0,0,1,3.675.339c0,1.027,0,2.017,0,3.028v.426h3.947V1.811A1.843,1.843,0,0,1,141.949.035,1.8,1.8,0,0,1,144,.943a2.459,2.459,0,0,1,.241,1.027c.026,1.114,0,2.233,0,3.4h8.31a6.1,6.1,0,0,1,6.067,4.8,5.768,5.768,0,0,1,.139,1.263q0,4.011,0,8.022v.477h3.485a1.839,1.839,0,0,1,.133,3.675c-1.027.046-2.053,0-3.08,0h-.513v3.962h3.423a1.848,1.848,0,1,1,0,3.69h-3.023ZM127.039,9.048H101.7A2.459,2.459,0,0,0,99.035,11.7V62.447a2.459,2.459,0,0,0,2.659,2.648h50.751a2.474,2.474,0,0,0,2.654-2.664V11.717a3.531,3.531,0,0,0-.113-.9,2.443,2.443,0,0,0-2.535-1.771Z" transform="translate(-43.737 0.034)" fill="#182ac3"/>
      <path id="Path_2104" data-name="Path 2104" d="M135.726,17.651h25.411a2.443,2.443,0,0,1,2.535,1.771,3.532,3.532,0,0,1,.113.9V71.035a2.474,2.474,0,0,1-2.654,2.664H110.381a2.458,2.458,0,0,1-2.659-2.648V20.3a2.459,2.459,0,0,1,2.664-2.648Zm.036,3.208h-19.1a6.159,6.159,0,0,0-.873.046,5.759,5.759,0,0,0-4.876,5.851V64.64a6.809,6.809,0,0,0,.333,2.1,5.685,5.685,0,0,0,5.646,3.774H155.24a5.671,5.671,0,0,0,5.338-5.677V26.592a5.646,5.646,0,0,0-5.713-5.707Z" transform="translate(-52.424 -8.57)" fill="#fff"/>
      <path id="Path_2105" data-name="Path 2105" d="M138.79,23.87h19.1a5.646,5.646,0,0,1,5.713,5.692V67.81a5.672,5.672,0,0,1-5.338,5.677H119.917a5.73,5.73,0,0,1-5.646-3.772,6.811,6.811,0,0,1-.334-2.1V29.726a5.759,5.759,0,0,1,4.876-5.851,6.16,6.16,0,0,1,.873-.046ZM159.916,48.7V29.372a1.94,1.94,0,0,0-.513-1.17,2.212,2.212,0,0,0-1.807-.662H119.9a2.041,2.041,0,0,0-2.258,2.253v37.75a2.027,2.027,0,0,0,2.279,2.3h38.058a1.966,1.966,0,0,0,1.853-1.488,3.719,3.719,0,0,0,.077-.862Q159.921,58.079,159.916,48.7Z" transform="translate(-55.452 -11.581)" fill="#182ac3"/>
      <path id="Path_2106" data-name="Path 2106" d="M163.432,52.208V70.983a3.721,3.721,0,0,1-.077.862,1.966,1.966,0,0,1-1.853,1.488H123.439a2.035,2.035,0,0,1-2.279-2.3V33.3a2.041,2.041,0,0,1,2.258-2.253h37.694a2.212,2.212,0,0,1,1.786.662,1.94,1.94,0,0,1,.513,1.17v.585Q163.437,42.826,163.432,52.208Zm-5.523-16.137v.6c0,1.139-.031,2.284.036,3.418a1.827,1.827,0,0,0,3.644-.1q.046-2.926,0-5.861a1.745,1.745,0,0,0-1.74-1.714q-3.454-.031-6.919,0a1.678,1.678,0,0,0-1.622,1.145,1.837,1.837,0,0,0,1.7,2.53Z" transform="translate(-58.969 -15.092)" fill="#fff"/>
      <path id="Path_2107" data-name="Path 2107" d="M186.372,37.34h-4.9a1.837,1.837,0,0,1-1.7-2.53,1.678,1.678,0,0,1,1.622-1.145q3.459-.031,6.919,0a1.745,1.745,0,0,1,1.74,1.7q.046,2.931,0,5.861a1.827,1.827,0,0,1-3.644.1c-.067-1.134-.026-2.279-.036-3.418Z" transform="translate(-87.431 -16.361)" fill="#182ac3"/>
    </g>
  </g>
</svg>
