<svg xmlns="http://www.w3.org/2000/svg" width="94.726" height="89.101" viewBox="0 0 94.726 89.101">
  <g id="Layer_19" transform="translate(384.402 -435.5)">
    <path id="Path_1179" data-name="Path 1179" d="M-293.158,592.706H-355.3V565.7" transform="translate(-14.735 -70.237)" fill="none" stroke="#fff" stroke-linecap="round" stroke-linejoin="round" stroke-width="3"/>
    <line id="Line_541" data-name="Line 541" y2="67.235" transform="translate(-307.893 450.237)" fill="none" stroke="#fff" stroke-linecap="round" stroke-linejoin="round" stroke-width="3"/>
    <rect id="Rectangle_258" data-name="Rectangle 258" width="42.364" height="17.33" transform="translate(-333.54 503.108)" fill="#fff"/>
    <path id="Path_1180" data-name="Path 1180" d="M-355.3,547.06" transform="translate(-14.735 -60.064)" fill="none" stroke="#0561fc" stroke-linecap="round" stroke-linejoin="round" stroke-width="2"/>
    <path id="Path_1181" data-name="Path 1181" d="M-355.3,484.82V437h51.876" transform="translate(-14.735)" fill="none" stroke="#fff" stroke-linecap="round" stroke-linejoin="round" stroke-width="3"/>
    <path id="Path_1182" data-name="Path 1182" d="M-241.1,447.648v2.589h10.266L-241.1,437v3.053" transform="translate(-77.059)" fill="none" stroke="#fff" stroke-linecap="round" stroke-linejoin="round" stroke-width="3"/>
    <line id="Line_542" data-name="Line 542" y2="0.84" transform="translate(-318.159 443.814)" fill="none" stroke="#fff" stroke-linecap="round" stroke-linejoin="round" stroke-width="2"/>
    <line id="Line_543" data-name="Line 543" x2="22.577" transform="translate(-326.426 503.108)" fill="#c5e1f9" stroke="#fff" stroke-linecap="round" stroke-linejoin="round" stroke-width="3"/>
    <path id="Path_1183" data-name="Path 1183" d="M-238.566,593.918v7.972H-285.9V582.53h3.452" transform="translate(-52.61 -79.422)" fill="none" stroke="#fff" stroke-linecap="round" stroke-linejoin="round" stroke-width="3"/>
    <path id="Path_1184" data-name="Path 1184" d="M-193.2,582.53h5.224v6.391" transform="translate(-103.2 -79.422)" fill="none" stroke="#fff" stroke-linecap="round" stroke-linejoin="round" stroke-width="3"/>
    <g id="Group_82722" data-name="Group 82722" transform="translate(-324.699 501.717)">
      <text id="LOG" transform="translate(0 14)" fill="#354b9c" stroke="#354b9c" stroke-width="0.5" font-size="13" font-family="Segoe UI"><tspan x="0" y="0">LOG</tspan></text>
    </g>
    <path id="Path_1185" data-name="Path 1185" d="M-220.1,577.6" transform="translate(-88.519 -76.731)" fill="none" stroke="#0561fc" stroke-linecap="round" stroke-linejoin="round" stroke-width="2"/>
    <g id="Group_82723" data-name="Group 82723" transform="translate(-382.3 491.543)">
      <path id="Path_1187" data-name="Path 1187" d="M-356.085,570.03v20.914a19.755,19.755,0,0,1-12.969,5.092,19.77,19.77,0,0,1-13.246-5.092V570.03c0,3.066,5.869,5.551,13.105,5.551S-356.085,573.1-356.085,570.03Z" transform="translate(382.3 -564.479)" fill="none" stroke="#fff" stroke-linecap="round" stroke-linejoin="round" stroke-width="3"/>
      <path id="Path_1188" data-name="Path 1188" d="M-356.079,563.361c0,3.066-5.869,5.551-13.105,5.551s-13.105-2.485-13.105-5.551a2.243,2.243,0,0,1,.045-.459c.55-2.853,6.187-5.092,13.06-5.092s12.515,2.24,13.064,5.092A2.608,2.608,0,0,1-356.079,563.361Z" transform="translate(382.295 -557.81)" fill="#fff" stroke="#fff" stroke-linecap="round" stroke-linejoin="round" stroke-width="3"/>
      <path id="Path_1189" data-name="Path 1189" d="M-382.29,589.42s12.746,9.517,26.215,0" transform="translate(382.295 -575.061)" fill="none" stroke="#fff" stroke-linecap="round" stroke-linejoin="round" stroke-width="3"/>
      <path id="Path_1190" data-name="Path 1190" d="M-382.29,602.53s13.378,10.521,26.17,0" transform="translate(382.295 -582.216)" fill="none" stroke="#fff" stroke-linecap="round" stroke-linejoin="round" stroke-width="3"/>
    </g>
    <line id="Line_544" data-name="Line 544" x2="8.177" transform="translate(-362.812 449.36)" fill="#fff" stroke="#fff" stroke-linecap="round" stroke-linejoin="round" stroke-width="2"/>
    <line id="Line_545" data-name="Line 545" x2="13.719" transform="translate(-362.812 454.63)" fill="#fff" stroke="#fff" stroke-linecap="round" stroke-linejoin="round" stroke-width="2"/>
    <line id="Line_546" data-name="Line 546" x2="17.852" transform="translate(-362.812 459.895)" fill="#fff" stroke="#fff" stroke-linecap="round" stroke-linejoin="round" stroke-width="2"/>
    <line id="Line_547" data-name="Line 547" x2="17.852" transform="translate(-362.812 465.891)" fill="#fff" stroke="#fff" stroke-linecap="round" stroke-linejoin="round" stroke-width="2"/>
    <line id="Line_548" data-name="Line 548" x2="8.177" transform="translate(-354.636 480.999)" fill="#fff" stroke="#fff" stroke-linecap="round" stroke-linejoin="round" stroke-width="2"/>
    <line id="Line_549" data-name="Line 549" x2="17.852" transform="translate(-354.636 486.996)" fill="#fff" stroke="#fff" stroke-linecap="round" stroke-linejoin="round" stroke-width="2"/>
    <line id="Line_550" data-name="Line 550" x2="17.852" transform="translate(-354.636 492.992)" fill="#fff" stroke="#fff" stroke-linecap="round" stroke-linejoin="round" stroke-width="2"/>
    <rect id="Rectangle_259" data-name="Rectangle 259" width="5.86" height="5.86" transform="translate(-331.11 462.647)" fill="#fff"/>
    <rect id="Rectangle_260" data-name="Rectangle 260" width="5.86" height="5.86" transform="translate(-331.11 478.228)" fill="#fff"/>
    <rect id="Rectangle_261" data-name="Rectangle 261" width="5.86" height="5.86" transform="translate(-320.389 462.647)" fill="#fff"/>
    <rect id="Rectangle_262" data-name="Rectangle 262" width="5.86" height="5.86" transform="translate(-320.389 478.188)" fill="#fff"/>
    <rect id="Rectangle_263" data-name="Rectangle 263" width="16.58" height="5.86" transform="translate(-331.11 470.438)" fill="#fff"/>
    <path id="Path_1191" data-name="Path 1191" d="M-324.35,516.47h-10.72a2.931,2.931,0,0,1-2.93-2.93h0a2.931,2.931,0,0,1,2.93-2.93h10.72a2.931,2.931,0,0,1,2.93,2.93h0A2.931,2.931,0,0,1-324.35,516.47Z" transform="translate(-24.176 -40.172)" fill="#fff"/>
    <rect id="Rectangle_264" data-name="Rectangle 264" width="16.58" height="5.86" transform="translate(-331.11 486.019)" fill="#fff"/>
  </g>
</svg>
