<svg id="Layer_1" data-name="Layer 1" xmlns="http://www.w3.org/2000/svg" viewBox="0 0 130 130"><defs><style>.cls-1,.cls-2,.cls-3{fill:none;}.cls-1{stroke:#182ac3;}.cls-1,.cls-2{stroke-miterlimit:10;}.cls-2,.cls-3{stroke:#fff;}.cls-3{stroke-linecap:round;stroke-linejoin:round;stroke-width:4px;}</style></defs><rect class="cls-1" x="-139.54" y="-300.64" width="1702.39" height="601.28"/><rect class="cls-2" x="-127.81" y="-106.23" width="1617.81" height="361.81"/><polyline class="cls-3" points="20.1 24.91 20.1 30.24 109.9 30.24 109.9 24.87"/><circle class="cls-3" cx="20.1" cy="16.09" r="8.81"/><circle class="cls-3" cx="65" cy="16.09" r="8.81"/><circle class="cls-3" cx="109.9" cy="16.09" r="8.81"/><line class="cls-3" x1="65" y1="24.91" x2="65" y2="38.52"/><path class="cls-3" d="M51.61,43.32c.41.18.75.3,1,.47,1.12.66,2.24,1.3,3.32,2a1.07,1.07,0,0,0,1.31,0c.2-.13,2.44-1.46,2.44-1.46a4.48,4.48,0,0,0,.47-1.6,26.26,26.26,0,0,1,.7-2.88,1.5,1.5,0,0,1,1.72-1.36H67.4a1.49,1.49,0,0,1,1.71,1.36c.37,1.46.7,2.92,1.1,4.37a1.82,1.82,0,0,0,.7.79c1.65,1.17,3.18.85,4.67-.38a13.09,13.09,0,0,1,1.61-1,1.42,1.42,0,0,1,1.89.21c1.22,1.2,2.43,2.42,3.63,3.64a1.44,1.44,0,0,1,.19,2c-.7,1.12-1.38,2.26-2,3.4a1.13,1.13,0,0,0-.15.81,18.29,18.29,0,0,0,.94,2.24,1.1,1.1,0,0,0,.67.47c1.42.38,2.85.72,4.28,1.08,1.18.29,1.48.67,1.49,1.89v4.51c0,1.2-.31,1.58-1.5,1.87-1.4.35-2.81.66-4.19,1.07a1.84,1.84,0,0,0-.85.75c-1.13,1.6-.66,3,.36,4.53,1.84,2.75,1.86,2.44-.54,4.82-.73.72-1.46,1.43-2.16,2.17a1.57,1.57,0,0,1-2.19.25c-1-.62-2-1.21-3-1.81a3.59,3.59,0,0,0-.47-.27c-.53-.22-3.21,1.14-3.36,1.71-.35,1.39-.69,2.79-1,4.19-.31,1.25-.67,1.55-1.93,1.55-1.53,0-3.06,0-4.6,0a1.49,1.49,0,0,1-1.72-1.35c-.37-1.45-.7-2.92-1.1-4.37a2,2,0,0,0-.69-.79c-.18-.15-2.24-.83-2-.83a3.37,3.37,0,0,0-2.22.87c-.6.44-1.28.78-1.92,1.16a1.47,1.47,0,0,1-2-.21l-3.57-3.57a1.45,1.45,0,0,1-.23-2c.65-1.09,1.32-2.15,1.92-3.26a1.85,1.85,0,0,0,.06-1c-.05-.28-.32-.53-.36-.82-.22-1.44-1.21-1.87-2.49-2.07-1.06-.17-2.1-.5-3.15-.75A1.54,1.54,0,0,1,41.9,64c0-1.59,0-3.18,0-4.78a1.49,1.49,0,0,1,1.34-1.73c1.4-.35,2.79-.71,4.2-1a1.55,1.55,0,0,0,1.07-.91,3,3,0,0,0-.35-3.82,21.87,21.87,0,0,1-1.45-2.38,1.39,1.39,0,0,1,.2-1.82c1.22-1.24,2.45-2.48,3.7-3.69A4.37,4.37,0,0,1,51.61,43.32Z"/><path class="cls-3" d="M65,71.08a9.46,9.46,0,1,0-9.48-9.43A9.45,9.45,0,0,0,65,71.08Z"/><path class="cls-3" d="M73,98l14.32-7.62s2.94-2,4.5.46c2.49,3.43-.92,4.78-.92,4.78l-8.46,4.51"/><path class="cls-3" d="M90.87,95.66l7.18-3.5s2.49-1.56,4,.65a3.11,3.11,0,0,1-.57,4.32"/><path class="cls-3" d="M76.34,107.93s7.66-.87,7-5.61c-.45-3-5.85-3.79-8.52-4.06S61.15,96.4,61.15,96.4s-15.37-7.46-30.46,5.8l-10.12.09v17.39H32.71l30.37,2.76a12.35,12.35,0,0,0,8.28-1.1c3.87-2.21,36.17-19,36.17-19a3.71,3.71,0,0,0,1.11-5.52c-2.3-3.59-8.56,1.28-8.56,1.28s-21.81,16.29-43.9,8.29"/><path class="cls-3" d="M61.8,96.38l17.11-9s3-.92,4.23.92.91,3.72.26,4.18"/></svg>