<svg id="Layer_1" data-name="Layer 1" xmlns="http://www.w3.org/2000/svg" viewBox="0 0 130 130"><defs><style>.cls-1,.cls-4,.cls-7{fill:none;}.cls-1,.cls-7{stroke:#fff;stroke-miterlimit:10;}.cls-2,.cls-5{fill:#fff;}.cls-3{fill:#c5e1f9;}.cls-4,.cls-5{stroke:#0561fc;stroke-linecap:round;stroke-linejoin:round;stroke-width:4px;}.cls-6{fill:#0561fc;}.cls-7{stroke-width:3px;}</style></defs><rect class="cls-1" x="-127.81" y="-123.34" width="1617.81" height="630.76"/><rect class="cls-2" x="24.57" y="35.69" width="85.41" height="15.48"/><rect class="cls-2" x="24.57" y="35.69" width="85.41" height="61.52"/><rect class="cls-3" x="24.57" y="35.69" width="85.41" height="15.48"/><rect class="cls-4" x="24.57" y="35.69" width="85.41" height="61.52"/><rect class="cls-5" x="7.01" y="56.88" width="32.26" height="32.26"/><path class="cls-3" d="M18.06,78.38c-1.24-.34-3.83-2.63-4.76-5.93a13.49,13.49,0,0,1,.07-7.62c.29-.57.52-.61.93-.13a12.43,12.43,0,0,0,5.91,3.9c.83.25,1.69.39,2.62.6v-.52a5,5,0,0,1,8.11-4,.66.66,0,0,0,.72.16c.68-.28,1.36-.58,2-.84.18-.06.46-.11.56,0a.58.58,0,0,1,.05.55c-.21.51-1.54,4.19-1.56,4.54-.25,5.5-2.65,9.75-7.68,12.14a13.05,13.05,0,0,1-12.82-.78.51.51,0,0,1-.32-.52c.05-.26.39-.23.57-.22a9.17,9.17,0,0,0,4.91-.94Z"/><path class="cls-5" d="M89.12,27.3V59.56h32.26V27.3Zm16.14,25a8.87,8.87,0,1,1,8.85-8.86A8.86,8.86,0,0,1,105.26,52.29Z"/><path class="cls-5" d="M114.11,43.43a8.86,8.86,0,1,1-8.85-8.87A8.86,8.86,0,0,1,114.11,43.43Z"/><line class="cls-4" x1="96.39" y1="43.43" x2="89.12" y2="43.43"/><line class="cls-4" x1="121.38" y1="43.43" x2="114.11" y2="43.43"/><polygon class="cls-5" points="122.99 74.43 122.99 108.07 69.06 108.07 54.94 117 54.94 74.43 122.99 74.43"/><rect class="cls-5" x="8.71" y="13" width="32.26" height="32.26"/><polyline class="cls-4" points="30.09 19.92 24.58 19.92 24.58 38.34"/><line class="cls-4" x1="29.57" y1="28.16" x2="19.6" y2="28.16"/><path class="cls-6" d="M78.68,91.25a3.64,3.64,0,1,1-3.63-3.63A3.64,3.64,0,0,1,78.68,91.25Z"/><path class="cls-6" d="M92.6,91.25A3.64,3.64,0,1,1,89,87.62,3.64,3.64,0,0,1,92.6,91.25Z"/><path class="cls-6" d="M106.51,91.25a3.64,3.64,0,1,1-3.63-3.63A3.63,3.63,0,0,1,106.51,91.25Z"/><rect class="cls-7" x="-2133.66" y="-1055.59" width="3799.15" height="1639.23"/></svg>