<svg id="Layer_1" data-name="Layer 1" xmlns="http://www.w3.org/2000/svg" viewBox="0 0 130 130"><defs><style>.cls-1,.cls-4,.cls-6{fill:none;}.cls-1,.cls-6{stroke:#fff;stroke-miterlimit:10;}.cls-2,.cls-5{fill:#fff;}.cls-3{fill:#c5e1f9;}.cls-4,.cls-5{stroke:#0561fc;stroke-linecap:round;stroke-linejoin:round;stroke-width:4px;}.cls-6{stroke-width:3px;}</style></defs><rect class="cls-1" x="-1327.81" y="-123.34" width="1617.81" height="630.76"/><rect class="cls-2" x="25.2" y="5" width="79.59" height="14.43"/><rect class="cls-2" x="25.2" y="5" width="79.59" height="57.33"/><rect class="cls-3" x="25.2" y="5" width="79.59" height="14.43"/><rect class="cls-4" x="25.2" y="5" width="79.59" height="57.33"/><polyline class="cls-4" points="54.23 48.55 43.44 37.76 54.23 26.98"/><polyline class="cls-4" points="75.77 26.98 86.56 37.76 75.77 48.55"/><line class="cls-4" x1="70.45" y1="24.86" x2="59.55" y2="54.1"/><line class="cls-4" x1="65" y1="62.33" x2="65" y2="79.45"/><path class="cls-5" d="M54,97.2c-6.73-11.06-16.88-3.36-16.88-3.36a5.37,5.37,0,0,1-2.69.91H31.68A5.22,5.22,0,0,1,29,93.84s-10.15-7.7-16.88,3.37-4,23.1-4,23.1c.48,3,2,4.92,5,4.67S22.44,117,22.44,117a3.59,3.59,0,0,1,2.45-1.15H41.18A3.65,3.65,0,0,1,43.64,117s6.4,7.7,9.35,8,4.53-1.73,5-4.67C58,120.31,60.71,108.26,54,97.2Z"/><path class="cls-3" d="M26.43,106.05H23.27v3a2.93,2.93,0,0,1-1.71.49,2.05,2.05,0,0,1-1.5-.55v-3h-3a2.45,2.45,0,0,1-.47-1.39,3.17,3.17,0,0,1,.41-1.82h3.16V99.67a3.45,3.45,0,0,1,1.59-.32,4.25,4.25,0,0,1,1.63.38l0,3.1h3a3,3,0,0,1,.57,1.48A3.76,3.76,0,0,1,26.43,106.05Z"/><path class="cls-3" d="M42.45,110.05a2.28,2.28,0,1,1,2.27-2.28A2.27,2.27,0,0,1,42.45,110.05Z"/><path class="cls-3" d="M42.94,102a2.28,2.28,0,1,1,2.27-2.28A2.27,2.27,0,0,1,42.94,102Z"/><path class="cls-3" d="M49.82,106a2.28,2.28,0,1,1,2.28-2.27A2.27,2.27,0,0,1,49.82,106Z"/><path class="cls-5" d="M117.89,97.2C111.16,86.14,101,93.84,101,93.84a5.44,5.44,0,0,1-2.7.91H95.6a5.22,5.22,0,0,1-2.69-.91S82.76,86.14,76,97.21s-4,23.1-4,23.1c.48,3,2,4.92,5,4.67S86.36,117,86.36,117a3.59,3.59,0,0,1,2.45-1.15H105.1a3.65,3.65,0,0,1,2.46,1.15s6.4,7.7,9.35,8,4.53-1.73,5-4.67C121.91,120.31,124.63,108.26,117.89,97.2Z"/><path class="cls-3" d="M90.36,106.05H87.19v3a2.93,2.93,0,0,1-1.71.49A2.05,2.05,0,0,1,84,109v-3H81a2.45,2.45,0,0,1-.47-1.39,3.17,3.17,0,0,1,.41-1.82h3.16V99.67a3.45,3.45,0,0,1,1.59-.32,4.25,4.25,0,0,1,1.63.38l0,3.1h3a3,3,0,0,1,.57,1.48A3.8,3.8,0,0,1,90.36,106.05Z"/><path class="cls-3" d="M106.37,110.05a2.28,2.28,0,1,1,2.27-2.28A2.27,2.27,0,0,1,106.37,110.05Z"/><path class="cls-3" d="M106.86,102a2.28,2.28,0,1,1,2.27-2.28A2.27,2.27,0,0,1,106.86,102Z"/><path class="cls-3" d="M113.74,106a2.28,2.28,0,1,1,2.28-2.27A2.27,2.27,0,0,1,113.74,106Z"/><polyline class="cls-4" points="96.96 94.75 96.96 79.45 33.04 79.45 33.04 94.75"/><rect class="cls-6" x="-3333.66" y="-1055.59" width="3799.15" height="1639.23"/></svg>