<svg id="Layer_1" data-name="Layer 1" xmlns="http://www.w3.org/2000/svg" viewBox="0 0 130 130"><defs><style>.cls-1,.cls-2,.cls-3{fill:none;}.cls-1,.cls-2{stroke:#fff;stroke-miterlimit:10;}.cls-2{stroke-width:3px;}.cls-3,.cls-5{stroke:#0561fc;stroke-linecap:round;stroke-linejoin:round;stroke-width:4px;}.cls-4{fill:#c5e1f9;}.cls-5{fill:#fff;}</style></defs><rect class="cls-1" x="-887.98" y="-128.11" width="1617.81" height="435.04"/><rect class="cls-2" x="-1006.51" y="-321.65" width="3799.15" height="1639.23"/><polyline class="cls-3" points="18.21 41.35 18.21 24.88 121.7 24.88 121.7 103.29 18.21 103.29 18.21 90.67"/><polyline class="cls-3" points="59.8 41.36 59.8 24.88 121.7 24.88 121.7 103.29 59.8 103.29 59.8 90.67"/><path id="Path_926" data-name="Path 926" class="cls-4" d="M82.33,79c1.56-.21,2.37-.72,2.6-1.82a4.41,4.41,0,0,1,4.9-3.83,3.66,3.66,0,0,1,1.08.28,2.14,2.14,0,0,0,2.44-.74,17.18,17.18,0,0,0,2.58-4.39,2,2,0,0,0-.57-2.79A4.27,4.27,0,0,1,94,63.6a4.46,4.46,0,0,1,1.36-4.72,2.06,2.06,0,0,0,.6-2.85,17.82,17.82,0,0,0-2.21-3.89A2,2,0,0,0,91,51.33a4.45,4.45,0,0,1-5.69-2.67,5.91,5.91,0,0,1-.23-1,2,2,0,0,0-1.62-1.85,13.18,13.18,0,0,0-5.66-.11,2,2,0,0,0-1.65,1.06V58.4a5.58,5.58,0,0,1,4.09-1.82,5.68,5.68,0,1,1-4.09,9.55V78a2,2,0,0,0,1.47.85A15.75,15.75,0,0,0,82.33,79Z"/><path class="cls-3" d="M75.23,41.36c0,2-1.67,3.88-4.38,5.23a25.53,25.53,0,0,1-11,2.26,25.53,25.53,0,0,1-11-2.26c-2.71-1.35-4.37-3.2-4.37-5.23,0-4.14,6.9-7.5,15.42-7.5S75.23,37.22,75.23,41.36Z"/><path class="cls-3" d="M75.23,51.82V62.27c0,2-1.68,3.87-4.39,5.23a25.37,25.37,0,0,1-11,2.26,25.37,25.37,0,0,1-11-2.26c-2.71-1.36-4.38-3.2-4.38-5.23V51.82c0,2,1.66,3.87,4.37,5.22a25.39,25.39,0,0,0,11,2.26,25.39,25.39,0,0,0,11-2.26C73.56,55.69,75.23,53.85,75.23,51.82Z"/><path class="cls-3" d="M75.23,41.36V51.82c0,2-1.67,3.87-4.38,5.22a25.39,25.39,0,0,1-11,2.26,25.39,25.39,0,0,1-11-2.26c-2.71-1.35-4.37-3.19-4.37-5.22V41.36c0,2,1.66,3.88,4.37,5.23a25.53,25.53,0,0,0,11,2.26,25.53,25.53,0,0,0,11-2.26C73.56,45.24,75.23,43.39,75.23,41.36Z"/><path class="cls-3" d="M75.23,62.27V72.73c0,2-1.68,3.87-4.39,5.23a25.52,25.52,0,0,1-11,2.26,25.52,25.52,0,0,1-11-2.26c-2.71-1.36-4.38-3.21-4.38-5.23V62.27c0,2,1.67,3.87,4.38,5.23a25.37,25.37,0,0,0,11,2.26,25.37,25.37,0,0,0,11-2.26C73.55,66.14,75.23,64.3,75.23,62.27Z"/><path class="cls-3" d="M75.23,72.73V83.19c0,4.13-6.91,7.48-15.43,7.48s-15.42-3.35-15.42-7.48V72.73c0,2,1.67,3.87,4.38,5.23a25.52,25.52,0,0,0,11,2.26,25.52,25.52,0,0,0,11-2.26C73.55,76.6,75.23,74.75,75.23,72.73Z"/><path class="cls-3" d="M33.64,41.36c0,2-1.67,3.88-4.38,5.23a25.53,25.53,0,0,1-11,2.26,25.53,25.53,0,0,1-11-2.26c-2.71-1.35-4.37-3.2-4.37-5.23,0-4.14,6.9-7.5,15.42-7.5S33.64,37.22,33.64,41.36Z"/><path class="cls-3" d="M33.64,51.82V62.27c0,2-1.68,3.87-4.39,5.23a25.37,25.37,0,0,1-11,2.26,25.37,25.37,0,0,1-11-2.26c-2.71-1.36-4.38-3.2-4.38-5.23V51.82c0,2,1.66,3.87,4.37,5.22A25.39,25.39,0,0,0,18.21,59.3,25.39,25.39,0,0,0,29.26,57C32,55.69,33.64,53.85,33.64,51.82Z"/><path class="cls-3" d="M33.64,41.36V51.82c0,2-1.67,3.87-4.38,5.22a25.39,25.39,0,0,1-11,2.26A25.39,25.39,0,0,1,7.16,57c-2.71-1.35-4.37-3.19-4.37-5.22V41.36c0,2,1.66,3.88,4.37,5.23a25.53,25.53,0,0,0,11.05,2.26,25.53,25.53,0,0,0,11.05-2.26C32,45.24,33.64,43.39,33.64,41.36Z"/><path class="cls-3" d="M33.64,62.27V72.73c0,2-1.68,3.87-4.39,5.23a25.52,25.52,0,0,1-11,2.26A25.52,25.52,0,0,1,7.17,78c-2.71-1.36-4.38-3.21-4.38-5.23V62.27c0,2,1.67,3.87,4.38,5.23a25.37,25.37,0,0,0,11,2.26,25.37,25.37,0,0,0,11-2.26C32,66.14,33.64,64.3,33.64,62.27Z"/><path class="cls-3" d="M33.64,72.73V83.19c0,4.13-6.91,7.48-15.43,7.48S2.79,87.32,2.79,83.19V72.73c0,2,1.67,3.87,4.38,5.23a25.52,25.52,0,0,0,11,2.26,25.52,25.52,0,0,0,11-2.26C32,76.6,33.64,74.75,33.64,72.73Z"/><rect class="cls-5" x="96.33" y="94.17" width="16.47" height="16.47" transform="translate(206.96 -2.16) rotate(90)"/><rect class="cls-5" x="72.57" y="94.17" width="16.47" height="16.47" transform="translate(183.21 21.59) rotate(90)"/><line class="cls-3" x1="83.48" y1="100.22" x2="83.48" y2="104.58"/><line class="cls-3" x1="78.14" y1="100.22" x2="78.14" y2="104.58"/><line class="cls-3" x1="107.23" y1="100.22" x2="107.23" y2="104.58"/><line class="cls-3" x1="101.89" y1="100.22" x2="101.89" y2="104.58"/><circle class="cls-5" cx="90.75" cy="24.88" r="5.51"/><circle class="cls-5" cx="108.26" cy="24.88" r="5.51"/><path class="cls-5" d="M121.7,83.85a5.5,5.5,0,0,1-5.49-5V50.4a5.44,5.44,0,0,1,0-.57,5.52,5.52,0,1,1,11,0V78.35c0,.16,0,.33,0,.49A5.51,5.51,0,0,1,121.7,83.85Z"/></svg>