<svg id="Layer_1" data-name="Layer 1" xmlns="http://www.w3.org/2000/svg" viewBox="0 0 130 130"><defs><style>.cls-1,.cls-5{fill:none;}.cls-1{stroke:#fff;stroke-miterlimit:10;}.cls-2,.cls-3{fill:#fff;}.cls-3,.cls-5{stroke:#0561fc;stroke-linecap:round;stroke-linejoin:round;stroke-width:4px;}.cls-4{fill:#c5e1f9;}</style></defs><rect class="cls-1" x="-527.81" y="-875.03" width="1617.81" height="1136.52"/><rect class="cls-2" x="25.2" y="5" width="79.59" height="14.43"/><rect class="cls-2" x="25.2" y="5" width="79.59" height="57.33"/><path class="cls-3" d="M85.93,97.2c-6.73-11.06-16.88-3.36-16.88-3.36a5.37,5.37,0,0,1-2.69.91H63.64A5.22,5.22,0,0,1,61,93.84s-10.15-7.7-16.88,3.37-4,23.1-4,23.1c.48,3,2,4.92,5,4.67S54.4,117,54.4,117a3.59,3.59,0,0,1,2.45-1.15H73.14A3.65,3.65,0,0,1,75.6,117s6.4,7.7,9.35,8,4.53-1.73,5-4.67C90,120.31,92.67,108.26,85.93,97.2Z"/><path class="cls-4" d="M58.39,106.05H55.23v3a2.93,2.93,0,0,1-1.71.49A2.05,2.05,0,0,1,52,109v-3H49a2.45,2.45,0,0,1-.47-1.39,3.17,3.17,0,0,1,.41-1.82h3.16V99.67a3.45,3.45,0,0,1,1.59-.32,4.25,4.25,0,0,1,1.63.38l0,3.1h3a3,3,0,0,1,.57,1.48A3.76,3.76,0,0,1,58.39,106.05Z"/><path class="cls-4" d="M74.41,110.05a2.28,2.28,0,1,1,2.27-2.28A2.27,2.27,0,0,1,74.41,110.05Z"/><path class="cls-4" d="M74.9,102a2.28,2.28,0,1,1,2.27-2.27A2.27,2.27,0,0,1,74.9,102Z"/><path class="cls-4" d="M81.78,106a2.28,2.28,0,1,1,2.28-2.27A2.27,2.27,0,0,1,81.78,106Z"/><rect class="cls-4" x="25.2" y="5" width="79.59" height="14.43"/><rect class="cls-5" x="25.2" y="5" width="79.59" height="57.33"/><polyline class="cls-5" points="54.23 48.55 43.44 37.76 54.23 26.98"/><polyline class="cls-5" points="75.77 26.98 86.56 37.76 75.77 48.55"/><line class="cls-5" x1="70.45" y1="24.86" x2="59.55" y2="54.1"/><line class="cls-5" x1="65" y1="62.33" x2="65" y2="94.75"/></svg>