<svg id="Layer_1" data-name="Layer 1" xmlns="http://www.w3.org/2000/svg" viewBox="0 0 130 130"><defs><style>.cls-1,.cls-4{fill:#fff;}.cls-2,.cls-5{fill:none;}.cls-2,.cls-4{stroke:#0561fc;stroke-linecap:round;stroke-linejoin:round;stroke-width:4px;}.cls-3{fill:#c5e1f9;}.cls-5{stroke:#fff;stroke-miterlimit:10;}</style></defs><rect class="cls-1" x="9.89" y="5.19" width="82.05" height="84.73" rx="3"/><rect class="cls-2" x="9.89" y="5.19" width="82.05" height="84.73" rx="3"/><line class="cls-2" x1="9.89" y1="23.55" x2="91.94" y2="23.55"/><path class="cls-3" d="M27.43,14.37a3.71,3.71,0,1,1-3.71-3.71A3.71,3.71,0,0,1,27.43,14.37Z"/><path class="cls-3" d="M39.31,14.37a3.71,3.71,0,1,1-3.71-3.71A3.71,3.71,0,0,1,39.31,14.37Z"/><path class="cls-3" d="M81.82,14.37a3.71,3.71,0,0,1-3.71,3.71H62.76a3.71,3.71,0,0,1,0-7.42H78.11A3.71,3.71,0,0,1,81.82,14.37Z"/><line class="cls-2" x1="20.01" y1="37.19" x2="39.31" y2="37.19"/><line class="cls-2" x1="20.01" y1="50.22" x2="57.29" y2="50.22"/><line class="cls-2" x1="20.01" y1="63.25" x2="57.29" y2="63.25"/><line class="cls-2" x1="20.01" y1="76.28" x2="57.29" y2="76.28"/><rect class="cls-3" x="87.84" y="104.67" width="14.4" height="22.34" rx="0.6"/><path class="cls-4" d="M114.8,36.62v74a1.86,1.86,0,0,1-1.86,1.86H77.15a1.86,1.86,0,0,1-1.86-1.86v-74a1.86,1.86,0,0,1,1.86-1.86h35.79A1.86,1.86,0,0,1,114.8,36.62Z"/><circle class="cls-4" cx="95.04" cy="73.61" r="7.9"/><circle class="cls-4" cx="95.04" cy="50.01" r="7.9"/><circle class="cls-4" cx="95.04" cy="97.21" r="7.9"/><path class="cls-4" d="M120.11,73.61a7.89,7.89,0,0,1-5.31,7.46V66.15A7.89,7.89,0,0,1,120.11,73.61Z"/><path class="cls-4" d="M120.11,50a7.89,7.89,0,0,1-5.31,7.46V42.55A7.88,7.88,0,0,1,120.11,50Z"/><path class="cls-4" d="M120.11,97.21a7.88,7.88,0,0,1-5.31,7.46V89.74A7.9,7.9,0,0,1,120.11,97.21Z"/><path class="cls-4" d="M75.29,66.15V81.07a7.89,7.89,0,0,1,0-14.92Z"/><path class="cls-4" d="M75.29,42.55V57.47a7.89,7.89,0,0,1,0-14.92Z"/><path class="cls-4" d="M75.29,89.74v14.93a7.9,7.9,0,0,1,0-14.93Z"/><rect class="cls-5" x="-927.81" y="-875.03" width="1617.81" height="1136.52"/></svg>