<svg id="Layer_1" data-name="Layer 1" xmlns="http://www.w3.org/2000/svg" viewBox="0 0 130 130"><defs><style>.cls-1,.cls-5{fill:#fff;}.cls-2,.cls-4{fill:none;}.cls-2,.cls-5{stroke:#0561fc;stroke-linecap:round;stroke-linejoin:round;stroke-width:4px;}.cls-3{fill:#c5e1f9;}.cls-4{stroke:#fff;stroke-miterlimit:10;}</style></defs><rect class="cls-1" x="2.86" y="4.01" width="85.52" height="64.67" rx="3"/><rect class="cls-2" x="2.86" y="4.01" width="85.52" height="64.67" rx="3"/><line class="cls-2" x1="2.86" y1="18.02" x2="88.38" y2="18.02"/><path class="cls-3" d="M16.25,11a2.84,2.84,0,1,1-2.83-2.84A2.83,2.83,0,0,1,16.25,11Z"/><path class="cls-3" d="M25.31,11a2.83,2.83,0,1,1-2.83-2.84A2.83,2.83,0,0,1,25.31,11Z"/><path class="cls-3" d="M80.65,11a2.83,2.83,0,0,1-2.83,2.83H58.48a2.83,2.83,0,1,1,0-5.66H77.82A2.83,2.83,0,0,1,80.65,11Z"/><line class="cls-2" x1="10.58" y1="28.43" x2="25.31" y2="28.43"/><line class="cls-2" x1="10.58" y1="38.38" x2="39.03" y2="38.38"/><line class="cls-2" x1="10.58" y1="48.32" x2="39.03" y2="48.32"/><line class="cls-2" x1="10.58" y1="58.27" x2="39.03" y2="58.27"/><rect class="cls-3" x="50.81" y="28.43" width="29.84" height="29.84"/><rect class="cls-4" x="-1327.81" y="-875.03" width="1617.81" height="1136.52"/><rect class="cls-5" x="67.01" y="28.74" width="45.28" height="67.63"/><rect class="cls-5" x="67.01" y="118.18" width="45.28" height="7.5"/><rect class="cls-5" x="84.23" y="96.37" width="10.84" height="21.81"/><path class="cls-3" d="M89.61,76.09a13.53,13.53,0,1,1,13.57-13.51A13.55,13.55,0,0,1,89.61,76.09Z"/><path class="cls-5" d="M86.27,62.55c0-1.32,0-2.64,0-4a1,1,0,0,1,.45-1,.93.93,0,0,1,1,.13l6.4,4c.78.49.77,1.17,0,1.65l-6.4,4c-.33.2-.71.4-1,.11a1.53,1.53,0,0,1-.44-.93C86.24,65.23,86.27,63.89,86.27,62.55Z"/></svg>