<svg id="Layer_1" data-name="Layer 1" xmlns="http://www.w3.org/2000/svg" viewBox="0 0 130 130"><defs><style>.cls-1,.cls-3,.cls-5{fill:none;}.cls-1{stroke:#c5e1f9;}.cls-1,.cls-2,.cls-3{stroke-linecap:round;stroke-linejoin:round;stroke-width:4px;}.cls-2{fill:#fff;}.cls-2,.cls-3{stroke:#0561fc;}.cls-4{fill:#c5e1f9;}.cls-5{stroke:#fff;stroke-miterlimit:10;}</style></defs><path class="cls-1" d="M94.29,61.43A21,21,0,1,1,113.6,32.31"/><polyline class="cls-1" points="107.64 30.54 113.64 32.68 115.67 26.98"/><path class="cls-2" d="M97.46,40.47a3.16,3.16,0,0,1-1.55,2.72,3.14,3.14,0,0,1-3.24,0,3.17,3.17,0,1,1,4.79-2.72Z"/><ellipse class="cls-2" cx="94.29" cy="21.19" rx="3.28" ry="16.13"/><path class="cls-2" d="M75.94,47.28a40.74,40.74,0,0,1,15.61-5.22A40.51,40.51,0,0,1,79.22,53a40.31,40.31,0,0,1-15.6,5.22A40.72,40.72,0,0,1,75.94,47.28Z"/><path class="cls-2" d="M109.35,53A40.51,40.51,0,0,1,97,42.06,41.25,41.25,0,0,1,125,58.18,40.31,40.31,0,0,1,109.35,53Z"/><path class="cls-2" d="M97,124.93H91.63l1-81.74a3.14,3.14,0,0,0,3.24,0Z"/><line class="cls-3" x1="124.95" y1="124.93" x2="5.04" y2="124.93"/><polygon class="cls-2" points="68.92 112.82 45.05 112.82 54.97 94.14 78.84 94.14 68.92 112.82"/><line class="cls-2" x1="60.96" y1="112.82" x2="70.89" y2="94.14"/><line class="cls-2" x1="53.01" y1="112.82" x2="62.93" y2="94.14"/><line class="cls-2" x1="72.23" y1="106.6" x2="48.35" y2="106.6"/><line class="cls-2" x1="75.55" y1="100.37" x2="51.68" y2="100.37"/><rect class="cls-2" x="59.48" y="112.82" width="4.94" height="12.1"/><line class="cls-3" x1="21.49" y1="34.15" x2="21.49" y2="39.13"/><line class="cls-3" x1="21.49" y1="5.07" x2="21.49" y2="10.04"/><line class="cls-3" x1="28.41" y1="31.97" x2="31.26" y2="36.05"/><line class="cls-3" x1="11.73" y1="8.15" x2="14.58" y2="12.22"/><line class="cls-3" x1="32.82" y1="26.22" x2="37.5" y2="27.92"/><line class="cls-3" x1="5.49" y1="16.27" x2="10.17" y2="17.97"/><line class="cls-3" x1="33.14" y1="18.98" x2="37.95" y2="17.69"/><line class="cls-3" x1="5.04" y1="26.51" x2="9.85" y2="25.22"/><line class="cls-3" x1="29.24" y1="12.86" x2="32.44" y2="9.05"/><line class="cls-3" x1="10.55" y1="35.15" x2="13.75" y2="31.33"/><circle class="cls-4" cx="21.49" cy="22.1" r="7.74" transform="translate(-4.95 37.94) rotate(-76.72)"/><polygon class="cls-2" points="35.55 112.82 11.68 112.82 21.6 94.14 45.47 94.14 35.55 112.82"/><line class="cls-2" x1="27.59" y1="112.82" x2="37.51" y2="94.14"/><line class="cls-2" x1="19.63" y1="112.82" x2="29.55" y2="94.14"/><line class="cls-2" x1="38.85" y1="106.6" x2="14.98" y2="106.6"/><line class="cls-2" x1="42.18" y1="100.37" x2="18.31" y2="100.37"/><rect class="cls-2" x="26.1" y="112.82" width="4.94" height="12.1"/><rect class="cls-5" x="-1327.81" y="-75.03" width="1617.81" height="1136.52"/></svg>