<svg id="Layer_1" data-name="Layer 1" xmlns="http://www.w3.org/2000/svg" viewBox="0 0 130 130"><defs><style>.cls-1,.cls-3,.cls-6{fill:none;}.cls-1,.cls-6{stroke:#fff;}.cls-1{stroke-miterlimit:10;}.cls-2,.cls-5{fill:#fff;}.cls-3,.cls-5{stroke:#0561fc;}.cls-3,.cls-5,.cls-6{stroke-linecap:round;stroke-linejoin:round;stroke-width:4px;}.cls-4{fill:#c5e1f9;}.cls-7{fill:#0561fc;}</style></defs><rect class="cls-1" x="-127.81" y="-875.03" width="1617.81" height="1136.52"/><rect class="cls-2" x="44.1" y="7.43" width="80.23" height="60.67" rx="3"/><rect class="cls-3" x="44.1" y="7.43" width="80.23" height="60.67" rx="3"/><line class="cls-3" x1="44.1" y1="20.58" x2="124.33" y2="20.58"/><path class="cls-4" d="M56.66,14A2.66,2.66,0,1,1,54,11.35,2.66,2.66,0,0,1,56.66,14Z"/><path class="cls-4" d="M65.16,14a2.66,2.66,0,1,1-2.65-2.65A2.66,2.66,0,0,1,65.16,14Z"/><path class="cls-4" d="M117.08,14a2.66,2.66,0,0,1-2.66,2.66H96.28a2.66,2.66,0,1,1,0-5.31h18.14A2.66,2.66,0,0,1,117.08,14Z"/><line class="cls-3" x1="51.35" y1="30.34" x2="65.16" y2="30.34"/><line class="cls-3" x1="51.35" y1="39.67" x2="78.04" y2="39.67"/><line class="cls-3" x1="51.35" y1="49" x2="78.04" y2="49"/><line class="cls-3" x1="51.35" y1="58.33" x2="78.04" y2="58.33"/><rect class="cls-4" x="89.09" y="30.34" width="27.99" height="27.99"/><path class="cls-5" d="M106.51,104.38a5.82,5.82,0,0,1-5.82,5.82h-69a5.82,5.82,0,0,1-5.82-5.82V41.16A11.64,11.64,0,0,1,37.46,29.52H94.87a11.64,11.64,0,0,1,11.64,11.64Z"/><polyline class="cls-5" points="31.95 125 38.3 110.2 94.03 110.2 100.39 125"/><line class="cls-5" x1="35.13" y1="118.22" x2="97.21" y2="118.22"/><path class="cls-4" d="M42.11,44.72H90.23a5.18,5.18,0,0,1,5.18,5.18V60.83a2.59,2.59,0,0,1-2.59,2.59H39.52a2.59,2.59,0,0,1-2.59-2.59V49.89A5.18,5.18,0,0,1,42.11,44.72Z"/><line class="cls-6" x1="44.47" y1="59.93" x2="87.86" y2="59.93"/><line class="cls-5" x1="60.11" y1="91.27" x2="72.23" y2="91.27"/><path class="cls-4" d="M50.5,91.27a6.79,6.79,0,1,1-6.79-6.78A6.79,6.79,0,0,1,50.5,91.27Z"/><path class="cls-4" d="M95.4,91.27a6.78,6.78,0,1,1-6.78-6.78A6.78,6.78,0,0,1,95.4,91.27Z"/><path class="cls-3" d="M50.5,91.27a6.79,6.79,0,1,1-6.79-6.78A6.79,6.79,0,0,1,50.5,91.27Z"/><path class="cls-3" d="M95.4,91.27a6.78,6.78,0,1,1-6.78-6.78A6.78,6.78,0,0,1,95.4,91.27Z"/><path class="cls-3" d="M29.44,13.68a17.33,17.33,0,0,0-24.54,0"/><path class="cls-3" d="M26.08,18.56a12.58,12.58,0,0,0-17.82,0"/><path class="cls-3" d="M22.73,23.25a7.85,7.85,0,0,0-11.12,0"/><path class="cls-7" d="M19.81,27.8a2.64,2.64,0,1,1-2.64-2.64A2.64,2.64,0,0,1,19.81,27.8Z"/><line class="cls-5" x1="66.17" y1="44.72" x2="66.17" y2="63.42"/></svg>