<svg id="Layer_1" data-name="Layer 1" xmlns="http://www.w3.org/2000/svg" viewBox="0 0 130 130"><defs><style>.cls-1,.cls-2,.cls-3{fill:none;}.cls-1{stroke:#182ac3;}.cls-1,.cls-2{stroke-miterlimit:10;}.cls-2,.cls-3{stroke:#fff;}.cls-3{stroke-linecap:round;stroke-linejoin:round;stroke-width:4px;}</style></defs><rect class="cls-1" x="-539.54" y="-300.64" width="1702.39" height="601.28"/><rect class="cls-2" x="-527.81" y="-106.23" width="1617.81" height="361.81"/><path class="cls-3" d="M111.48,53c0,.18,0,.36,0,.53A33.07,33.07,0,0,1,78.4,86.08V55.14L56.27,33H52.05a33.07,33.07,0,0,1,59.42,19.46C111.48,52.64,111.48,52.82,111.48,53Z"/><path class="cls-3" d="M94.11,53c0,.58,0,1.17,0,1.74A60,60,0,0,1,91.25,72c-2.84,8.5-7.54,14-12.85,14V55.14L63.84,40.58A50.29,50.29,0,0,1,65.56,34c2.84-8.49,7.53-14,12.84-14s10,5.55,12.84,14A60.64,60.64,0,0,1,94.11,53Z"/><path class="cls-3" d="M111.48,53c0,.18,0,.36,0,.53C111.13,61.86,102.89,69,91.25,72A50.64,50.64,0,0,1,78.4,73.64V55.14l-19-19A41.7,41.7,0,0,1,65.56,34a52,52,0,0,1,25.68,0c11.64,3.07,19.89,10.18,20.23,18.51C111.48,52.64,111.48,52.82,111.48,53Z"/><path class="cls-3" d="M111.48,53a144.75,144.75,0,0,1-17.39,1.74c-5.25.26-10.58.31-15.69.23h-.17"/><polyline class="cls-3" points="78.4 55.14 78.4 54.97 78.4 32.35 78.4 19.92"/><polygon class="cls-3" points="78.4 110.09 18.52 110.09 18.52 33.01 56.27 33.01 78.4 55.13 78.4 110.09"/><polygon class="cls-3" points="56.27 33.01 56.27 55.13 78.4 55.13 56.27 33.01"/><circle class="cls-3" cx="31.57" cy="98.3" r="5.79"/><circle class="cls-3" cx="48.46" cy="98.3" r="5.79"/><circle class="cls-3" cx="65.35" cy="98.3" r="5.79"/><rect class="cls-3" x="25.78" y="64.54" width="45.36" height="20.1"/><line class="cls-3" x1="38.2" y1="64.54" x2="38.2" y2="84.64"/><line class="cls-3" x1="25.78" y1="75.14" x2="71.14" y2="75.14"/><line class="cls-3" x1="25.78" y1="55.14" x2="47.05" y2="55.14"/><line class="cls-3" x1="25.78" y1="47.39" x2="36.42" y2="47.39"/></svg>