<svg id="Layer_1" data-name="Layer 1" xmlns="http://www.w3.org/2000/svg" viewBox="0 0 130 130"><defs><style>.cls-1,.cls-4,.cls-6{fill:none;}.cls-1,.cls-6{stroke:#fff;stroke-miterlimit:10;}.cls-2{fill:#fff;}.cls-3{fill:#c5e1f9;}.cls-4{stroke:#0561fc;stroke-linecap:round;stroke-linejoin:round;stroke-width:4px;}.cls-5{fill:#0561fc;}.cls-6{stroke-width:3px;}</style></defs><rect class="cls-1" x="-527.81" y="-123.34" width="1617.81" height="630.76"/><rect class="cls-2" x="77.95" y="49.62" width="42.37" height="7.68"/><rect class="cls-2" x="77.95" y="49.62" width="42.37" height="16.9"/><rect class="cls-3" x="77.95" y="49.62" width="42.37" height="7.68"/><rect class="cls-4" x="77.95" y="49.62" width="42.37" height="16.9"/><line class="cls-4" x1="86.21" y1="49.62" x2="86.21" y2="33.11"/><line class="cls-4" x1="110.99" y1="49.62" x2="110.99" y2="33.11"/><rect class="cls-2" x="9.68" y="49.62" width="42.37" height="7.68"/><rect class="cls-2" x="9.68" y="49.62" width="42.37" height="16.9"/><rect class="cls-3" x="9.68" y="49.62" width="42.37" height="7.68"/><rect class="cls-4" x="9.68" y="49.62" width="42.37" height="16.9"/><line class="cls-4" x1="17.94" y1="49.62" x2="17.94" y2="33.11"/><line class="cls-4" x1="42.71" y1="49.62" x2="42.71" y2="33.11"/><rect class="cls-2" x="43.81" y="101.45" width="42.37" height="7.68"/><rect class="cls-2" x="43.81" y="101.45" width="42.37" height="16.9"/><rect class="cls-3" x="43.81" y="101.45" width="42.37" height="7.68"/><rect class="cls-4" x="43.81" y="101.45" width="42.37" height="16.9"/><line class="cls-4" x1="52.08" y1="101.45" x2="52.08" y2="84.94"/><line class="cls-4" x1="76.85" y1="101.45" x2="76.85" y2="84.94"/><path class="cls-4" d="M77.2,76.5a18,18,0,0,0-25.51,0"/><path class="cls-4" d="M73.43,81.6a12.69,12.69,0,0,0-18,0"/><path class="cls-4" d="M69,86.4a6.46,6.46,0,0,0-9.15,0"/><path class="cls-5" d="M66.47,90.58a2,2,0,1,1-2-2A2,2,0,0,1,66.47,90.58Z"/><path class="cls-4" d="M43.62,22.38a18,18,0,0,0-25.51,0"/><path class="cls-4" d="M39.85,27.48a12.7,12.7,0,0,0-18,0"/><path class="cls-4" d="M35.43,32.28a6.45,6.45,0,0,0-9.14,0"/><path class="cls-5" d="M32.89,36.46a2,2,0,1,1-2-2A2,2,0,0,1,32.89,36.46Z"/><rect class="cls-6" x="-2533.66" y="-1055.59" width="3799.15" height="1639.23"/></svg>