<svg id="Layer_1" data-name="Layer 1" xmlns="http://www.w3.org/2000/svg" viewBox="0 0 130 130"><defs><style>.cls-1,.cls-3,.cls-5,.cls-8{fill:none;}.cls-1,.cls-8{stroke:#fff;stroke-miterlimit:10;}.cls-2,.cls-7{fill:#fff;}.cls-3,.cls-6,.cls-7{stroke:#0561fc;}.cls-3,.cls-5,.cls-6,.cls-7{stroke-linecap:round;stroke-linejoin:round;stroke-width:4px;}.cls-4,.cls-6{fill:#c5e1f9;}.cls-5{stroke:#c5e1f9;}.cls-8{stroke-width:3px;}</style></defs><rect class="cls-1" x="-127.81" y="-392.76" width="1617.81" height="630.76"/><rect class="cls-2" x="3.36" y="11.82" width="123.09" height="93.07" rx="3"/><rect class="cls-3" x="3.36" y="11.82" width="123.09" height="93.07" rx="3"/><line class="cls-3" x1="3.36" y1="31.99" x2="126.45" y2="31.99"/><path class="cls-4" d="M22.64,21.9a4.08,4.08,0,1,1-4.08-4.08A4.08,4.08,0,0,1,22.64,21.9Z"/><path class="cls-4" d="M35.68,21.9a4.08,4.08,0,1,1-4.07-4.08A4.08,4.08,0,0,1,35.68,21.9Z"/><path class="cls-4" d="M115.33,21.9A4.08,4.08,0,0,1,111.25,26H83.41a4.08,4.08,0,0,1,0-8.15h27.84A4.08,4.08,0,0,1,115.33,21.9Z"/><line class="cls-5" x1="14.48" y1="46.97" x2="35.68" y2="46.97"/><line class="cls-5" x1="14.48" y1="61.28" x2="55.43" y2="61.28"/><line class="cls-5" x1="14.48" y1="75.59" x2="55.43" y2="75.59"/><line class="cls-5" x1="14.48" y1="89.91" x2="55.43" y2="89.91"/><rect class="cls-4" x="72.38" y="46.97" width="42.94" height="42.94"/><path class="cls-6" d="M91,47a35.61,35.61,0,1,0,35.61,35.61A35.61,35.61,0,0,0,91,47Z"/><path class="cls-7" d="M91,52.46a30.12,30.12,0,1,0,30.12,30.12A30.12,30.12,0,0,0,91,52.46Z"/><line class="cls-7" x1="91.03" y1="52.46" x2="91.03" y2="56.38"/><line class="cls-7" x1="91.03" y1="108.77" x2="91.03" y2="112.7"/><line class="cls-7" x1="75.97" y1="56.49" x2="77.93" y2="59.89"/><line class="cls-7" x1="104.13" y1="105.26" x2="106.09" y2="108.66"/><line class="cls-7" x1="64.94" y1="67.52" x2="68.34" y2="69.48"/><line class="cls-7" x1="113.71" y1="95.67" x2="117.11" y2="97.64"/><line class="cls-7" x1="60.91" y1="82.58" x2="64.83" y2="82.58"/><line class="cls-7" x1="117.22" y1="82.58" x2="121.15" y2="82.58"/><line class="cls-7" x1="64.94" y1="97.64" x2="68.34" y2="95.67"/><line class="cls-7" x1="113.71" y1="69.48" x2="117.11" y2="67.52"/><line class="cls-7" x1="75.97" y1="108.66" x2="77.93" y2="105.26"/><line class="cls-7" x1="104.13" y1="59.89" x2="106.09" y2="56.49"/><polyline class="cls-3" points="84.7 76.25 91.03 82.58 107 66.61"/><path class="cls-6" d="M91,79.34a3.24,3.24,0,1,0,3.24,3.24A3.24,3.24,0,0,0,91,79.34Z"/><rect class="cls-8" x="-2133.66" y="-1325.01" width="3799.15" height="1639.23"/></svg>