<svg id="Layer_1" data-name="Layer 1" xmlns="http://www.w3.org/2000/svg" viewBox="0 0 130 130"><defs><style>.cls-1,.cls-3,.cls-5,.cls-8{fill:none;}.cls-1,.cls-8{stroke:#fff;stroke-miterlimit:10;}.cls-2,.cls-6{fill:#fff;}.cls-3,.cls-6{stroke:#0561fc;}.cls-3,.cls-5,.cls-6{stroke-linecap:round;stroke-linejoin:round;stroke-width:4px;}.cls-4{fill:#c5e1f9;}.cls-5{stroke:#c5e1f9;}.cls-7{fill:#0561fc;}.cls-8{stroke-width:3px;}</style></defs><rect class="cls-1" x="-527.81" y="-392.76" width="1617.81" height="630.76"/><rect class="cls-2" x="4.34" y="16.86" width="111.42" height="84.25" rx="3"/><rect class="cls-3" x="4.34" y="16.86" width="111.42" height="84.25" rx="3"/><line class="cls-3" x1="4.34" y1="35.12" x2="115.75" y2="35.12"/><path class="cls-4" d="M21.78,26A3.69,3.69,0,1,1,18.1,22.3,3.69,3.69,0,0,1,21.78,26Z"/><path class="cls-4" d="M33.59,26A3.69,3.69,0,1,1,29.9,22.3,3.69,3.69,0,0,1,33.59,26Z"/><path class="cls-4" d="M105.69,26A3.69,3.69,0,0,1,102,29.68H76.8a3.69,3.69,0,1,1,0-7.38H102A3.69,3.69,0,0,1,105.69,26Z"/><polyline class="cls-5" points="14.41 48.68 14.41 87.55 53.28 87.55"/><polyline class="cls-5" points="14.41 78.43 19.55 73.28 22.54 76.28 32.54 66.28 36.98 66.28 50.29 52.74"/><line class="cls-3" x1="66.06" y1="56.1" x2="87.19" y2="56.1"/><line class="cls-3" x1="66.06" y1="65.58" x2="98.54" y2="65.58"/><line class="cls-3" x1="66.06" y1="75.07" x2="98.54" y2="75.07"/><line class="cls-3" x1="66.06" y1="84.56" x2="98.54" y2="84.56"/><path class="cls-4" d="M95.55,48.68a32.23,32.23,0,1,0,32.23,32.23A32.23,32.23,0,0,0,95.55,48.68Z"/><path class="cls-6" d="M95.55,58.91a22,22,0,1,0,22,22A22,22,0,0,0,95.55,58.91Z"/><path class="cls-7" d="M97.27,93.51v2.72H93.82V93.55c-3-.57-4.55-2.68-4.55-6.32V85.47h4v2c0,1.57.73,2.34,2.18,2.34s2.19-.81,2.19-2.42c0-2-.84-3.37-3.6-5.52-3.41-2.72-4.64-4.82-4.64-7.77,0-3.34,1.53-5.56,4.44-6.21V65.58h3.45v2.3c3,.58,4.52,2.8,4.52,6.32V75h-4v-1c0-1.58-.69-2.38-2.11-2.38s-2.1.77-2.1,2.3c0,1.84.84,3.18,3.6,5.36,3.41,2.76,4.63,4.87,4.63,7.93C101.83,90.64,100.22,92.9,97.27,93.51Z"/><rect class="cls-8" x="-2533.66" y="-1325.01" width="3799.15" height="1639.23"/></svg>