<svg id="Layer_1" data-name="Layer 1" xmlns="http://www.w3.org/2000/svg" viewBox="0 0 130 130"><defs><style>.cls-1,.cls-3,.cls-5,.cls-7{fill:none;}.cls-1,.cls-7{stroke:#fff;stroke-miterlimit:10;}.cls-2,.cls-6{fill:#fff;}.cls-3,.cls-6{stroke:#0561fc;}.cls-3,.cls-5,.cls-6{stroke-linecap:round;stroke-linejoin:round;stroke-width:4px;}.cls-4{fill:#c5e1f9;}.cls-5{stroke:#c5e1f9;}.cls-7{stroke-width:3px;}</style></defs><rect class="cls-1" x="-927.81" y="-392.76" width="1617.81" height="630.76"/><rect class="cls-2" x="4.9" y="19.56" width="120.19" height="90.88" rx="3"/><rect class="cls-3" x="4.9" y="19.56" width="120.19" height="90.88" rx="3"/><line class="cls-3" x1="4.9" y1="39.25" x2="125.1" y2="39.25"/><path class="cls-4" d="M23.22,29.41a4,4,0,1,1-4-4A4,4,0,0,1,23.22,29.41Z"/><path class="cls-4" d="M36,29.41a4,4,0,1,1-4-4A4,4,0,0,1,36,29.41Z"/><path class="cls-4" d="M114.74,29.41a4,4,0,0,1-4,4H83.57a4,4,0,1,1,0-8h27.19A4,4,0,0,1,114.74,29.41Z"/><polyline class="cls-5" points="15.26 55.99 15.26 93.71 52.98 93.71"/><polyline class="cls-5" points="15.26 83.88 20.82 78.32 24.04 81.55 34.82 70.77 39.61 70.77 49.7 60.43"/><line class="cls-3" x1="63.4" y1="80.86" x2="89.07" y2="80.86"/><line class="cls-3" x1="63.4" y1="89.74" x2="114.74" y2="89.74"/><rect class="cls-6" x="63.4" y="59.96" width="12.04" height="12.04"/><rect class="cls-6" x="83.05" y="59.96" width="12.04" height="12.04"/><rect class="cls-6" x="102.69" y="59.96" width="12.04" height="12.04"/><rect class="cls-7" x="-2933.66" y="-1325.01" width="3799.15" height="1639.23"/></svg>