<svg id="Layer_1" data-name="Layer 1" xmlns="http://www.w3.org/2000/svg" viewBox="0 0 44 44"><defs><style>.cls-1{fill:none;stroke:#fff;stroke-miterlimit:10;}.cls-2{fill:#182ac3;}</style></defs><rect class="cls-1" x="-1317.3" y="-57.86" width="1621.72" height="1060.09"/><path id="Path_2112" data-name="Path 2112" class="cls-2" d="M42.17,12.12a.49.49,0,0,0-.49-.49.62.62,0,0,0-.23.07c-.16.06-.29.14-.44.21l-.16.09-9.38,5.12V13.74a4,4,0,0,0-3.66-4.32,4.85,4.85,0,0,0-.66,0h-21a4,4,0,0,0-4.33,3.64c0,.22,0,.44,0,.67V30.32a4,4,0,0,0,3.72,4.26H27.35a3.94,3.94,0,0,0,4.12-3.74c0-.15,0-.3,0-.44V27.05l.85.42.54.27,8,4.38c.72.38,1,.35,1.08.29s.25-.26.25-1V12.54A2,2,0,0,0,42.17,12.12Zm-11.76,18c0,2.25-1.13,3.41-3.38,3.41H6.31c-2.25,0-3.38-1.16-3.38-3.42V13.89c0-2.26,1.13-3.4,3.38-3.4H27c2.32,0,3.45,1.11,3.45,3.4q0,8.13,0,16.27ZM41.06,31,37.25,28.9c-1.64-.91-3.29-1.81-5-2.68a1.43,1.43,0,0,1-.83-1.44V19.09a1.36,1.36,0,0,1,.5-1.08c2.25-1.25,4.51-2.49,6.82-3.75L41,13Z"/></svg>