<svg id="Layer_1" data-name="Layer 1" xmlns="http://www.w3.org/2000/svg" viewBox="0 0 44 44"><defs><style>.cls-1{fill:none;stroke:#fff;stroke-miterlimit:10;}.cls-2{fill:#182ac3;}</style></defs><rect class="cls-1" x="-117.3" y="-457.86" width="1621.72" height="1060.09"/><path id="Path_2081" data-name="Path 2081" class="cls-2" d="M39.59,19.32a3.38,3.38,0,0,1-.44-.18,3.39,3.39,0,0,0-.39-.18,4.29,4.29,0,0,1-2.51-2.14c-.33-.61-.69-1.2-1.07-1.77-.26-.4-.54-.81-.79-1.23A4.63,4.63,0,0,0,30,11.32H18.06a4.69,4.69,0,0,0-4,2c-1,1.28-2,2.66-3.09,4a3.1,3.1,0,0,1-1.4.91c-1.16.36-2.36.68-3.52,1l-1.64.45a3.55,3.55,0,0,0-2.9,3.94v1.72a3.57,3.57,0,0,0,3.26,3.85h.15a1.45,1.45,0,0,1,1,.7,4.32,4.32,0,0,0,4.14,2.78h.06A4.41,4.41,0,0,0,14.27,30a1.5,1.5,0,0,1,1.09-.75H28.22a1.41,1.41,0,0,1,1.09.7,4.32,4.32,0,0,0,4.15,2.77h0A4.41,4.41,0,0,0,37.62,30a1.44,1.44,0,0,1,1-.74c2.69-.24,3.84-1.48,3.84-4.14v-.37a5.08,5.08,0,0,1,0-.78A4.08,4.08,0,0,0,39.59,19.32ZM12.36,30.53a3.26,3.26,0,0,1-2.25.91H10A3.23,3.23,0,1,1,10.11,25h0a3.3,3.3,0,0,1,2.27,5.59Zm23.47,0a3.23,3.23,0,0,1-2.29.95h0a3.26,3.26,0,0,1-3.21-3.18A3.1,3.1,0,0,1,31.25,26a3.35,3.35,0,0,1,2.31-1h0a3.13,3.13,0,0,1,2.24,5.47Zm4.47-2.91a2,2,0,0,1-1.08.38,1.16,1.16,0,0,1-.42-.07,1.75,1.75,0,0,1-1-1.17,4.41,4.41,0,0,0-4.2-3,4.41,4.41,0,0,0-4.27,3c-.07.22-.14.44-.22.66l-.15.45H15.65A1.11,1.11,0,0,1,14.36,27a4.37,4.37,0,0,0-4.26-3.26h0A4.34,4.34,0,0,0,5.78,27a1.28,1.28,0,0,1-.6.86,1,1,0,0,1-.88-.1A4.55,4.55,0,0,1,3,26.61a1.48,1.48,0,0,1-.25-.91c-.1-4-.11-4.23,3.4-5.12.48-.12,1-.26,1.46-.41.73-.2,1.49-.43,2.25-.59a3.41,3.41,0,0,0,2.22-1.47c.6-.85,1.25-1.7,1.88-2.51l1.17-1.52a3.45,3.45,0,0,1,2.95-1.47H30.24a3.32,3.32,0,0,1,3,1.64l.65,1.07c.6,1,1.24,2,1.91,3a4.56,4.56,0,0,0,1.41,1.21,14.7,14.7,0,0,0,1.69.83c.25.1.51.21.75.33l.13.06a2.16,2.16,0,0,1,.34.17c.94.54,1.29,2.07,1.31,3.32s-.27,2.78-1.16,3.34Z"/></svg>