<svg id="Layer_1" data-name="Layer 1" xmlns="http://www.w3.org/2000/svg" viewBox="0 0 44 44"><defs><style>.cls-1{fill:none;stroke:#fff;stroke-miterlimit:10;}.cls-2{fill:#182ac3;}</style></defs><rect class="cls-1" x="-517.3" y="-857.86" width="1621.72" height="1060.09"/><g id="Group_82848" data-name="Group 82848"><path id="Path_2083" data-name="Path 2083" class="cls-2" d="M33.71,10.16a16.64,16.64,0,0,0-11.9-5h0a16.84,16.84,0,0,0,0,33.68h0A16.86,16.86,0,0,0,38.62,22.1,16.62,16.62,0,0,0,33.71,10.16ZM32.86,33.1a15.64,15.64,0,0,1-11.08,4.59h0a15.67,15.67,0,0,1,0-31.33h0A15.67,15.67,0,0,1,32.88,33.1Z"/><path id="Path_2084" data-name="Path 2084" class="cls-2" d="M28.17,21.33l-.7-.45c-2.83-1.83-5.76-3.71-8.66-5.55a1.29,1.29,0,0,0-.66-.21.19.19,0,0,0-.15,0,1.18,1.18,0,0,0-.34.84v12a1.17,1.17,0,0,0,.32.83,1.14,1.14,0,0,0,.88-.19c2.81-1.77,5.65-3.6,8.4-5.37l.9-.59c.37-.23.56-.46.56-.67S28.54,21.59,28.17,21.33Zm-9.31,6V16.76L27.07,22Z"/></g></svg>