<svg id="Layer_1" data-name="Layer 1" xmlns="http://www.w3.org/2000/svg" viewBox="0 0 130 130"><defs><style>.cls-1,.cls-3,.cls-4{fill:none;}.cls-1,.cls-4{stroke:#fff;stroke-miterlimit:10;}.cls-2{fill:#fff;}.cls-2,.cls-3{stroke:#0561fc;stroke-linecap:round;stroke-linejoin:round;stroke-width:4px;}.cls-4{stroke-width:3px;}</style></defs><rect class="cls-1" x="-527.81" y="-128.11" width="1617.81" height="435.04"/><polygon class="cls-2" points="53.64 80.6 65.64 50.57 77.63 80.6 53.64 80.6"/><rect class="cls-2" x="53.64" y="80.6" width="23.99" height="23.99"/><polygon class="cls-2" points="53.46 104.59 48.74 122.59 61.11 104.59 53.46 104.59"/><polygon class="cls-2" points="77.36 104.59 82.08 122.59 69.71 104.59 77.36 104.59"/><polyline class="cls-3" points="53.64 104.59 77.63 80.6 77.63 104.59 53.64 80.6 71.07 64.18 60.2 64.18 77.63 80.6"/><line class="cls-2" x1="65.64" y1="50.57" x2="65.64" y2="20.17"/><path class="cls-2" d="M71.67,20.17a6,6,0,1,1-6-6A6,6,0,0,1,71.67,20.17Z"/><path class="cls-3" d="M91.13,32.92a18,18,0,0,0,0-25.51"/><path class="cls-3" d="M86,29.15a12.69,12.69,0,0,0,0-18"/><path class="cls-3" d="M81.23,24.74a6.46,6.46,0,0,0,0-9.15"/><path class="cls-3" d="M38.87,32.92a18,18,0,0,1,0-25.51"/><path class="cls-3" d="M44,29.15a12.69,12.69,0,0,1,0-18"/><path class="cls-3" d="M48.77,24.74a6.46,6.46,0,0,1,0-9.15"/><line class="cls-3" x1="5.02" y1="125" x2="124.98" y2="125"/><rect class="cls-4" x="-2533.66" y="-321.65" width="3799.15" height="1639.23"/></svg>