<svg xmlns="http://www.w3.org/2000/svg" width="84.736" height="97.286" viewBox="0 0 84.736 97.286">
  <g id="AI" transform="translate(1105.548 348.03)">
    <g id="Group_82608" data-name="Group 82608" transform="translate(-1103.81 -346.53)">
      <circle id="Ellipse_32" data-name="Ellipse 32" cx="26.033" cy="26.033" r="26.033" transform="translate(9.018 7.775)" fill="#c5e1f9"/>
      <rect id="Rectangle_190" data-name="Rectangle 190" width="25.877" height="6.93" transform="translate(22.112 70.625)" fill="#c5e1f9"/>
      <rect id="Rectangle_191" data-name="Rectangle 191" width="21.062" height="3.778" transform="translate(24.522 84.335)" fill="#c5e1f9"/>
      <g id="Group_82607" data-name="Group 82607">
        <g id="Group_82606" data-name="Group 82606">
          <rect id="Rectangle_192" data-name="Rectangle 192" width="11.028" height="5.698" transform="translate(31.537 88.588)" fill="none" stroke="#0561fc" stroke-linecap="round" stroke-linejoin="round" stroke-width="3"/>
          <path id="Path_604" data-name="Path 604" d="M-1029.025-296.292a25.95,25.95,0,0,1-9.049,19.718l-.01.01a11.923,11.923,0,0,0-1.416,1.547,12.942,12.942,0,0,0-2.619,7.493H-1068c0-4.927-3.56-8.564-4.006-9.006a.426.426,0,0,1-.048-.039,25.967,25.967,0,0,1-9.04-19.718,26.6,26.6,0,0,1,.63-5.742,26.092,26.092,0,0,1,12.764-17.022,25.929,25.929,0,0,1,12.633-3.269A26.031,26.031,0,0,1-1029.025-296.292Z" transform="translate(1092.108 334.061)" fill="none" stroke="#0561fc" stroke-linecap="round" stroke-linejoin="round" stroke-width="3"/>
          <rect id="Rectangle_193" data-name="Rectangle 193" width="25.877" height="11.023" transform="translate(24.112 66.536)" fill="none" stroke="#0561fc" stroke-linecap="round" stroke-linejoin="round" stroke-width="3"/>
          <rect id="Rectangle_194" data-name="Rectangle 194" width="21.062" height="11.028" transform="translate(26.522 77.555)" fill="none" stroke="#0561fc" stroke-linecap="round" stroke-linejoin="round" stroke-width="3"/>
          <g id="Group_82605" data-name="Group 82605">
            <line id="Line_273" data-name="Line 273" y1="5.868" transform="translate(37.051)" fill="none" stroke="#0561fc" stroke-linecap="round" stroke-linejoin="round" stroke-width="3"/>
            <line id="Line_274" data-name="Line 274" x1="2.483" y1="5.32" transform="translate(21.149 3.526)" fill="none" stroke="#0561fc" stroke-linecap="round" stroke-linejoin="round" stroke-width="3"/>
            <line id="Line_275" data-name="Line 275" x1="5.669" y1="1.518" transform="translate(67.725 45.843)" fill="none" stroke="#0561fc" stroke-linecap="round" stroke-linejoin="round" stroke-width="3"/>
            <line id="Line_276" data-name="Line 276" x1="5.776" y2="1.018" transform="translate(0 43.142)" fill="none" stroke="#0561fc" stroke-linecap="round" stroke-linejoin="round" stroke-width="3"/>
            <line id="Line_277" data-name="Line 277" x1="5.669" y1="1.518" transform="translate(1.726 28.162)" fill="none" stroke="#0561fc" stroke-linecap="round" stroke-linejoin="round" stroke-width="3"/>
            <line id="Line_278" data-name="Line 278" x1="4.486" y1="3.783" transform="translate(8.089 13.375)" fill="none" stroke="#0561fc" stroke-linecap="round" stroke-linejoin="round" stroke-width="3"/>
            <line id="Line_279" data-name="Line 279" x1="5.776" y2="1.018" transform="translate(68.326 31.091)" fill="none" stroke="#0561fc" stroke-linecap="round" stroke-linejoin="round" stroke-width="3"/>
            <line id="Line_280" data-name="Line 280" x1="4.806" y2="3.366" transform="translate(6.232 55.838)" fill="none" stroke="#0561fc" stroke-linecap="round" stroke-linejoin="round" stroke-width="3"/>
            <line id="Line_281" data-name="Line 281" x1="4.806" y2="3.366" transform="translate(63.064 16.047)" fill="none" stroke="#0561fc" stroke-linecap="round" stroke-linejoin="round" stroke-width="3"/>
            <line id="Line_282" data-name="Line 282" x1="2.929" y2="5.082" transform="translate(17.798 65.896)" fill="none" stroke="#0561fc" stroke-linecap="round" stroke-linejoin="round" stroke-width="3"/>
            <line id="Line_283" data-name="Line 283" x2="2.638" y2="5.238" transform="translate(53.326 65.14)" fill="none" stroke="#0561fc" stroke-linecap="round" stroke-linejoin="round" stroke-width="3"/>
            <line id="Line_284" data-name="Line 284" x2="4.481" y2="3.788" transform="translate(63.084 57.216)" fill="none" stroke="#0561fc" stroke-linecap="round" stroke-linejoin="round" stroke-width="3"/>
            <line id="Line_285" data-name="Line 285" x1="2.934" y2="5.082" transform="translate(52.929 5.044)" fill="none" stroke="#0561fc" stroke-linecap="round" stroke-linejoin="round" stroke-width="3"/>
          </g>
        </g>
        <line id="Line_286" data-name="Line 286" y1="34.743" transform="translate(37.051 31.6)" fill="none" stroke="#0561fc" stroke-linecap="round" stroke-linejoin="round" stroke-width="3"/>
        <circle id="Ellipse_33" data-name="Ellipse 33" cx="3.128" cy="3.128" r="3.128" transform="translate(33.923 24.908)" fill="none" stroke="#0561fc" stroke-linecap="round" stroke-linejoin="round" stroke-width="3"/>
        <circle id="Ellipse_34" data-name="Ellipse 34" cx="3.128" cy="3.128" r="3.128" transform="translate(19.263 30.145)" fill="none" stroke="#0561fc" stroke-linecap="round" stroke-linejoin="round" stroke-width="3"/>
        <circle id="Ellipse_35" data-name="Ellipse 35" cx="3.128" cy="3.128" r="3.128" transform="translate(48.879 34.321)" fill="none" stroke="#0561fc" stroke-linecap="round" stroke-linejoin="round" stroke-width="3"/>
        <path id="Path_605" data-name="Path 605" d="M-1027.41-252h14.956V-262.86" transform="translate(1064.461 303.437)" fill="none" stroke="#0561fc" stroke-linecap="round" stroke-linejoin="round" stroke-width="3"/>
        <path id="Path_606" data-name="Path 606" d="M-1057.64-270.78v10.863h14.66" transform="translate(1080.031 307.516)" fill="none" stroke="#0561fc" stroke-linecap="round" stroke-linejoin="round" stroke-width="3"/>
      </g>
      <path id="Path_607" data-name="Path 607" d="M-1074.2-294.688c.121-1.45,1.081-10.941,9.384-16.949a23.516,23.516,0,0,1,23.569-2.037,29.7,29.7,0,0,0-21.314,4.074A29.349,29.349,0,0,0-1074.2-294.688Z" transform="translate(1088.56 330.759)" fill="#fff"/>
      <circle id="Ellipse_36" data-name="Ellipse 36" cx="2.604" cy="2.604" r="2.604" transform="translate(47.385 21.067)" fill="#fff"/>
      <circle id="Ellipse_76" data-name="Ellipse 76" cx="4.402" cy="4.402" r="4.402" transform="translate(70.549 61.828) rotate(-45)" fill="#c5e1f9"/>
      <circle id="Ellipse_77" data-name="Ellipse 77" cx="3.402" cy="3.402" r="3.402" transform="translate(1.414 86.225) rotate(-45)" fill="#c5e1f9"/>
    </g>
  </g>
</svg>
