<svg xmlns="http://www.w3.org/2000/svg" width="99.144" height="95.843" viewBox="0 0 99.144 95.843">
  <g id="Group_82617" data-name="Group 82617" transform="translate(-49.23 -57.618)">
    <path id="Path_637" data-name="Path 637" d="M191.861,91.639c-.67.078-1.02-.4-1.408-.811a3.2,3.2,0,0,0-3.9-.719,3.551,3.551,0,0,0-1.146.986,1.5,1.5,0,0,1-2.02.486,12.413,12.413,0,0,1-3.215-1.9,1.427,1.427,0,0,1-.471-1.87,3.248,3.248,0,0,0-2.549-4.531,1.456,1.456,0,0,1-1.433-1.365,9.8,9.8,0,0,1,.092-4.132,1.461,1.461,0,0,1,1.355-1.19,3.239,3.239,0,0,0,2.7-4.322,1.494,1.494,0,0,1,.6-1.986,12.081,12.081,0,0,1,2.841-1.612,1.51,1.51,0,0,1,2.083.437,3.274,3.274,0,0,0,3.457,1,3.175,3.175,0,0,0,1.544-1.015,1.493,1.493,0,0,1,2.035-.418,12.535,12.535,0,0,1,3.215,1.894,1.53,1.53,0,0,1,.529,1.777,3.215,3.215,0,0,0,2.608,4.366c.8.17,1.185.758,1.331,1.9a11.22,11.22,0,0,1-.112,3.443,1.5,1.5,0,0,1-1.331,1.345,3.271,3.271,0,0,0-2.574,4.443,1.372,1.372,0,0,1-.471,1.772,12.148,12.148,0,0,1-3.254,1.942A1.6,1.6,0,0,1,191.861,91.639Zm-3.987-7.405a4.15,4.15,0,0,0,4.162-4.084,4.15,4.15,0,1,0-8.3-.019A4.143,4.143,0,0,0,187.875,84.234Z" transform="translate(-64.202 -4.822)" fill="#c5e1f9"/>
    <path id="Path_638" data-name="Path 638" d="M216.986,153.284c-.364.044-.554-.214-.767-.437a1.74,1.74,0,0,0-2.112-.388,1.936,1.936,0,0,0-.622.534.811.811,0,0,1-1.1.262,6.652,6.652,0,0,1-1.743-1.029.777.777,0,0,1-.257-1.015A1.761,1.761,0,0,0,209,148.754a.789.789,0,0,1-.777-.738,5.3,5.3,0,0,1,.049-2.243.8.8,0,0,1,.733-.646,1.755,1.755,0,0,0,1.467-2.345.813.813,0,0,1,.325-1.078,6.461,6.461,0,0,1,1.544-.874.824.824,0,0,1,1.131.238,1.77,1.77,0,0,0,1.874.539,1.707,1.707,0,0,0,.84-.554.814.814,0,0,1,1.1-.228,6.789,6.789,0,0,1,1.743,1.029.837.837,0,0,1,.287.966,1.746,1.746,0,0,0,1.413,2.37c.432.092.646.413.724,1.034a5.86,5.86,0,0,1-.063,1.865.812.812,0,0,1-.724.728,1.774,1.774,0,0,0-1.394,2.413.745.745,0,0,1-.257.961,6.435,6.435,0,0,1-1.763,1.054A.857.857,0,0,1,216.986,153.284Zm-2.161-4.021a2.251,2.251,0,0,0,2.258-2.214,2.251,2.251,0,1,0-4.5-.01A2.243,2.243,0,0,0,214.825,149.263Z" transform="translate(-80.965 -41.992)" fill="#c5e1f9"/>
    <path id="Path_639" data-name="Path 639" d="M109.537,93.111s-8.158-1.894-9.979,4.3c-3.924,2.773-8.959,8.377-6.41,14.568-2.491,2.36-5.172,6.046-3.351,9.615-1.151,3.084-5.609,10.562,3.351,17.554-.685,5.516-1.093,11.363,6.264,14.859,4.152,5.39,5.609,5.1,9.979,4.516,1.554,4.764,1.748,8.459,11.436,6.628,0,0,7.129,3.793,10.086-2.511,0,0-6.225,2.292-9.285-.913,0,0-7.575.388-10.2-8.911,0,0-5.57,2.122-7.449-1.622,0,0-6.488-5.327-2.142-15.025,0,0-5.414-9.144-1.918-13.864,0,0-.874-4.429,2.477-6.614,0,0-4.225-5.764,2.768-12.427C105.166,103.265,102.69,98.793,109.537,93.111Z" transform="translate(-19.002 -17.37)" fill="#c5e1f9"/>
    <path id="Path_640" data-name="Path 640" d="M124.966,77.134a4.642,4.642,0,0,0-4.152,1.384C118.92,76.842,109.888,75.24,109.306,85c-3.2-1.044-7.5-1.384-9.979,4.3,0,0-9.979,4.3-6.41,14.568-2.841,2.258-5.172,4.735-3.351,9.615-.583,3.351-6.628,9.469,3.351,17.555-.728,2.258-2.768,10.853,6.264,14.859,1.748,2.622,3.278,6.41,9.979,4.516.073,2.04,1.894,10.635,11.436,6.628,2.258.728,9.4,3.788,11.363-6.41,3.569.437,7.43.728,10.2-4.735,2.7-1.384,8.449-4.152,6.556-14.568,1.967-1.675,3.423-3.5,3.5-4.807" transform="translate(-18.771 -9.26)" fill="none" stroke="#0561fc" stroke-linecap="round" stroke-linejoin="round" stroke-width="3"/>
    <path id="Path_641" data-name="Path 641" d="M118,120.918s.1-7.187,5.536-8.352c.874-1.651,2.04-4.37,5.536-4.176" transform="translate(-34.604 -25.365)" fill="none" stroke="#0561fc" stroke-linecap="round" stroke-linejoin="round" stroke-width="3"/>
    <path id="Path_642" data-name="Path 642" d="M135.4,142s-.1,5.536,3.885,6.313" transform="translate(-43.554 -42.659)" fill="none" stroke="#0561fc" stroke-linecap="round" stroke-linejoin="round" stroke-width="3"/>
    <path id="Path_643" data-name="Path 643" d="M139.4,191.4s.1,9.518,8.352,5.827a5.389,5.389,0,0,0,1.068,2.914" transform="translate(-45.612 -68.07)" fill="none" stroke="#0561fc" stroke-linecap="round" stroke-linejoin="round" stroke-width="3"/>
    <path id="Path_644" data-name="Path 644" d="M108.854,158.33s-3.307,8.925,5.725,8.425a5.391,5.391,0,0,0-.044,3.1" transform="translate(-29.595 -51.059)" fill="none" stroke="#0561fc" stroke-linecap="round" stroke-linejoin="round" stroke-width="3"/>
    <path id="Path_645" data-name="Path 645" d="M156.2,172.719a4.706,4.706,0,0,0,1.263-3.4,7.473,7.473,0,0,0,2.816-2.719" transform="translate(-54.254 -55.313)" fill="none" stroke="#0561fc" stroke-linecap="round" stroke-linejoin="round" stroke-width="3"/>
    <path id="Path_646" data-name="Path 646" d="M181.965,137.4s.1,3.011-1.165,4.37c2.137.971,4.662,3.783,4.176,6.842" transform="translate(-66.908 -40.293)" fill="none" stroke="#0561fc" stroke-linecap="round" stroke-linejoin="round" stroke-width="3"/>
    <path id="Path_647" data-name="Path 647" d="M173.2,187.941a3.348,3.348,0,0,0,4.176-2.816c1.263-.388,3.788-1.748,3.4-5.924" transform="translate(-62.998 -61.794)" fill="none" stroke="#0561fc" stroke-linecap="round" stroke-linejoin="round" stroke-width="3"/>
    <path id="Path_648" data-name="Path 648" d="M159.219,119.4s-2.331,1.651-2.04,3.3c-1.165.583-3.04,1.554-3.04,1.554" transform="translate(-53.194 -31.033)" fill="none" stroke="#0561fc" stroke-linecap="round" stroke-linejoin="round" stroke-width="3"/>
    <circle id="Ellipse_51" data-name="Ellipse 51" cx="3.132" cy="3.132" r="3.132" transform="translate(140.61 135.446)" fill="none" stroke="#0561fc" stroke-linecap="round" stroke-linejoin="round" stroke-width="3"/>
    <circle id="Ellipse_52" data-name="Ellipse 52" cx="3.132" cy="3.132" r="3.132" transform="translate(125.231 145.697)" fill="none" stroke="#0561fc" stroke-linecap="round" stroke-linejoin="round" stroke-width="3"/>
    <circle id="Ellipse_53" data-name="Ellipse 53" cx="3.132" cy="3.132" r="3.132" transform="translate(72.203 145.697)" fill="none" stroke="#0561fc" stroke-linecap="round" stroke-linejoin="round" stroke-width="3"/>
    <circle id="Ellipse_54" data-name="Ellipse 54" cx="3.132" cy="3.132" r="3.132" transform="translate(56.47 135.446)" fill="none" stroke="#0561fc" stroke-linecap="round" stroke-linejoin="round" stroke-width="3"/>
    <circle id="Ellipse_55" data-name="Ellipse 55" cx="3.132" cy="3.132" r="3.132" transform="translate(50.73 109.733)" fill="none" stroke="#0561fc" stroke-linecap="round" stroke-linejoin="round" stroke-width="3"/>
    <circle id="Ellipse_56" data-name="Ellipse 56" cx="3.132" cy="3.132" r="3.132" transform="translate(56.47 97.132)" fill="none" stroke="#0561fc" stroke-linecap="round" stroke-linejoin="round" stroke-width="3"/>
    <circle id="Ellipse_57" data-name="Ellipse 57" cx="3.132" cy="3.132" r="3.132" transform="translate(56.154 77.635)" fill="none" stroke="#0561fc" stroke-linecap="round" stroke-linejoin="round" stroke-width="3"/>
    <circle id="Ellipse_58" data-name="Ellipse 58" cx="3.132" cy="3.132" r="3.132" transform="translate(67.595 61.318)" fill="none" stroke="#0561fc" stroke-linecap="round" stroke-linejoin="round" stroke-width="3"/>
    <path id="Path_649" data-name="Path 649" d="M98.31,70.95h11.115l6.9,6.2" transform="translate(-24.475 -6.111)" fill="none" stroke="#0561fc" stroke-linecap="round" stroke-linejoin="round" stroke-width="3"/>
    <path id="Path_650" data-name="Path 650" d="M73.45,108.38l6.687,5.764h5.041" transform="translate(-11.687 -25.365)" fill="none" stroke="#0561fc" stroke-linecap="round" stroke-linejoin="round" stroke-width="3"/>
    <line id="Line_293" data-name="Line 293" x2="7.439" transform="translate(62.729 100.264)" fill="none" stroke="#0561fc" stroke-linecap="round" stroke-linejoin="round" stroke-width="3"/>
    <line id="Line_294" data-name="Line 294" x2="11.455" transform="translate(56.994 112.865)" fill="none" stroke="#0561fc" stroke-linecap="round" stroke-linejoin="round" stroke-width="3"/>
    <path id="Path_651" data-name="Path 651" d="M73.84,212.85l5.38-5.38h7.1" transform="translate(-11.888 -76.337)" fill="none" stroke="#0561fc" stroke-linecap="round" stroke-linejoin="round" stroke-width="3"/>
    <path id="Path_652" data-name="Path 652" d="M107.85,237.321h6.968l4.225-6.221" transform="translate(-29.382 -88.492)" fill="none" stroke="#0561fc" stroke-linecap="round" stroke-linejoin="round" stroke-width="3"/>
    <path id="Path_653" data-name="Path 653" d="M179.21,229.25l5.385,7.119h6.726" transform="translate(-66.09 -87.54)" fill="none" stroke="#0561fc" stroke-linecap="round" stroke-linejoin="round" stroke-width="3"/>
    <path id="Path_654" data-name="Path 654" d="M225.414,211.153l-6.463-6.463h-5.39" transform="translate(-83.759 -74.906)" fill="none" stroke="#0561fc" stroke-linecap="round" stroke-linejoin="round" stroke-width="3"/>
    <path id="Path_655" data-name="Path 655" d="M188.3,91.387c-.932.107-1.423-.554-1.967-1.127a4.468,4.468,0,0,0-5.429-1,5,5,0,0,0-1.6,1.374,2.083,2.083,0,0,1-2.816.675,17.283,17.283,0,0,1-4.477-2.647,1.984,1.984,0,0,1-.656-2.6,4.529,4.529,0,0,0-3.555-6.313,2.028,2.028,0,0,1-2-1.9,13.706,13.706,0,0,1,.126-5.759,2.045,2.045,0,0,1,1.884-1.661,4.515,4.515,0,0,0,3.773-6.021,2.088,2.088,0,0,1,.835-2.768,16.9,16.9,0,0,1,3.963-2.248,2.112,2.112,0,0,1,2.9.607,4.541,4.541,0,0,0,4.817,1.384,4.385,4.385,0,0,0,2.151-1.418,2.079,2.079,0,0,1,2.836-.583,17.514,17.514,0,0,1,4.482,2.642,2.132,2.132,0,0,1,.738,2.477,4.478,4.478,0,0,0,3.637,6.085c1.117.238,1.651,1.059,1.86,2.656a15.7,15.7,0,0,1-.155,4.793A2.089,2.089,0,0,1,197.8,79.9a4.557,4.557,0,0,0-3.584,6.2,1.915,1.915,0,0,1-.656,2.472,16.954,16.954,0,0,1-4.531,2.71A2.352,2.352,0,0,1,188.3,91.387Zm-5.56-10.319a5.788,5.788,0,0,0,5.8-5.691,5.784,5.784,0,1,0-11.567-.024A5.777,5.777,0,0,0,182.738,81.068Z" transform="translate(-59.066)" fill="none" stroke="#0561fc" stroke-linecap="round" stroke-linejoin="round" stroke-width="3"/>
    <path id="Path_656" data-name="Path 656" d="M213.782,152.8c-.6.068-.918-.359-1.272-.728a2.885,2.885,0,0,0-3.511-.646,3.252,3.252,0,0,0-1.034.889,1.348,1.348,0,0,1-1.821.437,11.148,11.148,0,0,1-2.894-1.709,1.277,1.277,0,0,1-.422-1.68,2.93,2.93,0,0,0-2.3-4.084,1.316,1.316,0,0,1-1.292-1.229,8.812,8.812,0,0,1,.083-3.72,1.316,1.316,0,0,1,1.219-1.073,2.914,2.914,0,0,0,2.438-3.89,1.355,1.355,0,0,1,.539-1.792,11.013,11.013,0,0,1,2.559-1.452,1.367,1.367,0,0,1,1.879.393,2.934,2.934,0,0,0,3.113.894,2.852,2.852,0,0,0,1.394-.918,1.347,1.347,0,0,1,1.836-.379,11.48,11.48,0,0,1,2.9,1.709,1.376,1.376,0,0,1,.476,1.6,2.9,2.9,0,0,0,2.35,3.933c.724.151,1.068.685,1.2,1.714a10.045,10.045,0,0,1-.1,3.1,1.349,1.349,0,0,1-1.2,1.209,2.946,2.946,0,0,0-2.316,4.006,1.239,1.239,0,0,1-.422,1.6,11.062,11.062,0,0,1-2.928,1.753A1.466,1.466,0,0,1,213.782,152.8Zm-3.593-6.667a3.737,3.737,0,0,0,3.749-3.681,3.739,3.739,0,1,0-7.478-.015A3.742,3.742,0,0,0,210.189,146.128Z" transform="translate(-76.309 -37.469)" fill="none" stroke="#0561fc" stroke-linecap="round" stroke-linejoin="round" stroke-width="3"/>
    <path id="Path_657" data-name="Path 657" d="M95.164,92.2c-.233.029-.354-.136-.486-.282a1.114,1.114,0,0,0-1.35-.248,1.271,1.271,0,0,0-.4.34.516.516,0,0,1-.7.17,4.355,4.355,0,0,1-1.112-.656.494.494,0,0,1-.165-.646,1.125,1.125,0,0,0-.884-1.569.5.5,0,0,1-.5-.471,3.448,3.448,0,0,1,.029-1.428A.507.507,0,0,1,90.07,87a1.122,1.122,0,0,0,.937-1.5.514.514,0,0,1,.209-.685,4.266,4.266,0,0,1,.981-.558.521.521,0,0,1,.719.151,1.128,1.128,0,0,0,1.195.345,1.1,1.1,0,0,0,.534-.35.52.52,0,0,1,.7-.146,4.5,4.5,0,0,1,1.112.656.532.532,0,0,1,.185.617,1.113,1.113,0,0,0,.9,1.51c.277.058.413.262.461.66a3.762,3.762,0,0,1-.039,1.19.526.526,0,0,1-.461.466A1.131,1.131,0,0,0,96.62,90.9a.469.469,0,0,1-.165.612,4.21,4.21,0,0,1-1.127.675A.868.868,0,0,1,95.164,92.2Zm-1.379-2.564a1.435,1.435,0,0,0,1.437-1.413,1.435,1.435,0,1,0-2.87,0A1.435,1.435,0,0,0,93.785,89.641Z" transform="translate(-19.95 -12.919)" fill="#c5e1f9"/>
  </g>
</svg>
