<svg xmlns="http://www.w3.org/2000/svg" width="506.803" height="374.373" viewBox="0 0 506.803 374.373">
  <g id="Group_82914" data-name="Group 82914" transform="translate(-391 -2507)">
    <path id="Path_2019" data-name="Path 2019" d="M7608,16945.6c35.719-21.922,70.98-46.25,145.008-50.727,39.512-.594,57.629,19.953,49.984,53.836,16.219-20.828,22.371-36.93,15.816-51.484-4.312-9.484-11.68-16.617-25.309-20.406-10.414-2.883-21.512-2.6-33.652-1.789C7708.94,16878.5,7646.31,16910.3,7608,16945.6Z" transform="translate(-6923.588 -14360.455)" fill="#182ac3" fill-rule="evenodd"/>
    <path id="Path_2018" data-name="Path 2018" d="M5598.66,16613c-32.553,12.6-66.375,25.531-99.047,47.164-29.449,19.445-61.486,46.992-83.633,85.7-36.064,64.086,4.545,114.008,93.125,112.273-50.963,5.016-103.881,1.438-133.5-30.766-14.84-16.164-20.475-33.828-16.219-55.852,2.529-13.289,8.859-25.2,16.334-37.617C5413.28,16671.4,5510.77,16625.7,5598.66,16613Z" transform="translate(-4967.006 -14005.066)" fill="#de141a" fill-rule="evenodd"/>
    <g id="Group_82861" data-name="Group 82861" transform="translate(460.107 2507)">
      <rect id="Rectangle_112" data-name="Rectangle 112" width="68.445" height="6" fill="#ccc"/>
      <rect id="Rectangle_113" data-name="Rectangle 113" width="26" height="6" transform="translate(76.445)" fill="#ccc"/>
    </g>
    <g id="Group_82867" data-name="Group 82867" transform="translate(732.699 2875.373)">
      <rect id="Rectangle_112-2" data-name="Rectangle 112" width="89.031" height="6" transform="translate(34)" fill="#ccc"/>
      <rect id="Rectangle_113-2" data-name="Rectangle 113" width="26" height="6" fill="#ccc"/>
    </g>
  </g>
</svg>
