<svg xmlns="http://www.w3.org/2000/svg" width="114.5" height="96.395" viewBox="0 0 114.5 96.395">
  <g id="Group_82615" data-name="Group 82615" transform="translate(328.9 -53.411)">
    <rect id="Rectangle_195" data-name="Rectangle 195" width="7.203" height="15.159" transform="translate(-315.982 133.147)" fill="#c5e1f9"/>
    <path id="Path_621" data-name="Path 621" d="M-279.713,133.65v8.431H-301.6v5.472" transform="translate(-11.395 -34.757)" fill="none" stroke="#0561fc" stroke-linecap="round" stroke-linejoin="round" stroke-width="3"/>
    <line id="Line_291" data-name="Line 291" y2="19.039" transform="translate(-266.43 98.893)" fill="none" stroke="#0561fc" stroke-linecap="round" stroke-linejoin="round" stroke-width="3"/>
    <path id="Path_622" data-name="Path 622" d="M-174.4,133.65v8.989h16.3v6.142" transform="translate(-67.574 -34.757)" fill="none" stroke="#0561fc" stroke-linecap="round" stroke-linejoin="round" stroke-width="3"/>
    <path id="Path_623" data-name="Path 623" d="M-312.995,160.75-327.4,173.815h28.81Z" transform="translate(0 -46.726)" fill="none" stroke="#0561fc" stroke-linecap="round" stroke-linejoin="round" stroke-width="3"/>
    <rect id="Rectangle_196" data-name="Rectangle 196" width="28.81" height="21.217" transform="translate(-327.4 127.089)" fill="none" stroke="#0561fc" stroke-linecap="round" stroke-linejoin="round" stroke-width="3"/>
    <rect id="Rectangle_197" data-name="Rectangle 197" width="37.744" height="22.127" transform="translate(-285.19 118.602)" fill="none" stroke="#0561fc" stroke-linecap="round" stroke-linejoin="round" stroke-width="3"/>
    <rect id="Rectangle_198" data-name="Rectangle 198" width="2.457" height="4.797" transform="translate(-267.435 142.443)" fill="#0561fc"/>
    <line id="Line_292" data-name="Line 292" x2="12.116" transform="translate(-272.292 148.306)" fill="none" stroke="#0561fc" stroke-linecap="round" stroke-linejoin="round" stroke-width="3"/>
    <path id="Path_624" data-name="Path 624" d="M-235.163,177.588h-10.028a.9.9,0,0,1-.9-.9h0a.9.9,0,0,1,.9-.9h10.028a.9.9,0,0,1,.9.9h0A.9.9,0,0,1-235.163,177.588Z" transform="translate(-35.912 -53.369)" fill="#c5e1f9"/>
    <path id="Path_625" data-name="Path 625" d="M-230.253,183.478h-10.028a.9.9,0,0,1-.9-.9h0a.9.9,0,0,1,.9-.9h10.028a.9.9,0,0,1,.9.9h0A.9.9,0,0,1-230.253,183.478Z" transform="translate(-38.08 -55.97)" fill="#c5e1f9"/>
    <path id="Path_626" data-name="Path 626" d="M-234.113,189.368h-10.028a.9.9,0,0,1-.9-.9h0a.9.9,0,0,1,.9-.9h10.028a.9.9,0,0,1,.9.9h0A.9.9,0,0,1-234.113,189.368Z" transform="translate(-36.375 -58.572)" fill="#c5e1f9"/>
    <path id="Path_627" data-name="Path 627" d="M-203.385,193.537h-3.333a3.031,3.031,0,0,1-3.032-3.032v-3.333a3.031,3.031,0,0,1,3.032-3.032h3.333a3.031,3.031,0,0,1,3.032,3.032v3.333A3.035,3.035,0,0,1-203.385,193.537Z" transform="translate(-51.962 -57.057)" fill="#c5e1f9"/>
    <rect id="Rectangle_199" data-name="Rectangle 199" width="19.346" height="8.263" transform="translate(-235.247 138.686)" fill="#c5e1f9"/>
    <path id="Path_628" data-name="Path 628" d="M-145.245,164.023h-11.29a1.776,1.776,0,0,1-1.776-1.776v-.737h14.835v.737A1.772,1.772,0,0,1-145.245,164.023Z" transform="translate(-74.681 -47.062)" fill="#c5e1f9"/>
    <path id="Path_629" data-name="Path 629" d="M-145.23,194.362h-14.908a2.221,2.221,0,0,1-2.222-2.222V162.967a2.216,2.216,0,0,1,2.222-2.217h14.908a2.22,2.22,0,0,1,2.222,2.217V192.14A2.221,2.221,0,0,1-145.23,194.362Z" transform="translate(-72.892 -46.726)" fill="none" stroke="#0561fc" stroke-linecap="round" stroke-linejoin="round" stroke-width="3"/>
    <path id="Path_630" data-name="Path 630" d="M-145.5,186.868h-9.034a1.794,1.794,0,0,1-1.792-1.792v-9.034a1.794,1.794,0,0,1,1.792-1.792h9.034a1.794,1.794,0,0,1,1.792,1.792v9.034A1.791,1.791,0,0,1-145.5,186.868Z" transform="translate(-75.555 -52.689)" fill="#c5e1f9"/>
    <path id="Path_631" data-name="Path 631" d="M-299.059,113.8c-.128-.463-2-7.649,2.931-13.093a14.066,14.066,0,0,1,15.494-3.434,17.271,17.271,0,0,1,8.794-7.705c7.5-2.674,17.046.983,23.031,9.464,10.206-5.595,21.273-3.786,26.046,2.6,3.339,4.467,2.764,10.067,2.429,12.172Z" transform="translate(-12.317 -14.907)" fill="#c5e1f9"/>
    <path id="Path_632" data-name="Path 632" d="M-305.891,98.893h78.725a13.686,13.686,0,0,0,7.582-5.2c4.651-6.594,2.836-15.522-.38-20.926a22.19,22.19,0,0,0-10.385-8.878c-9.469-4.093-18.341-.436-20.1.335,0,0-25.293-25.125-45.225,7.37,0,0-15.578-1.508-18.76,11.893S-305.891,98.893-305.891,98.893Z" transform="translate(-5.485)" fill="none" stroke="#0561fc" stroke-linecap="round" stroke-linejoin="round" stroke-width="3"/>
    <g id="Group_82614" data-name="Group 82614" transform="translate(-283.135 70.574)">
      <g id="Group_82613" data-name="Group 82613">
        <g id="Group_82612" data-name="Group 82612">
          <path id="Path_633" data-name="Path 633" d="M-223.2,88.089a17.51,17.51,0,0,0-12.462-5.159,17.51,17.51,0,0,0-12.462,5.159" transform="translate(248.12 -82.93)" fill="none" stroke="#0561fc" stroke-linecap="round" stroke-linejoin="round" stroke-width="3"/>
          <path id="Path_634" data-name="Path 634" d="M-223.909,98.082a12.708,12.708,0,0,0-9.051-3.752,12.731,12.731,0,0,0-9.051,3.752" transform="translate(245.421 -87.965)" fill="none" stroke="#0561fc" stroke-linecap="round" stroke-linejoin="round" stroke-width="3"/>
          <path id="Path_635" data-name="Path 635" d="M-224.62,107.729a7.932,7.932,0,0,0-5.645-2.339,7.941,7.941,0,0,0-5.645,2.339" transform="translate(242.727 -92.85)" fill="none" stroke="#0561fc" stroke-linecap="round" stroke-linejoin="round" stroke-width="3"/>
        </g>
      </g>
      <path id="Path_636" data-name="Path 636" d="M-225.24,115.73a2.681,2.681,0,0,1-2.68,2.68,2.681,2.681,0,0,1-2.68-2.68,2.681,2.681,0,0,1,2.68-2.68A2.681,2.681,0,0,1-225.24,115.73Z" transform="translate(240.382 -96.233)" fill="#0561fc"/>
    </g>
  </g>
</svg>
