<svg xmlns="http://www.w3.org/2000/svg" width="29.566" height="35.285" viewBox="0 0 29.566 35.285">
  <g id="Group_82849" data-name="Group 82849" transform="translate(-14.927 -12.69)">
    <path id="Path_2077" data-name="Path 2077" d="M44.45,27.81V18.07a1.14,1.14,0,0,0-1-1.33c-2.33-.68-4.66-1.39-7-2.09l-6.38-1.91a1.7,1.7,0,0,0-.41-.05,1.56,1.56,0,0,0-.44.06c-4.43,1.32-8.87,2.64-13.29,4-1,.32-1,.32-1,1.46v14.3a9.44,9.44,0,0,0,2,6.06c3.46,4.56,8.28,7.29,12.53,9.35a.88.88,0,0,0,.61,0A36.18,36.18,0,0,0,41.2,40.2c2.31-2.47,3.36-4.87,3.29-7.58C44.43,31,44.44,29.38,44.45,27.81Zm-4.55,12a35.83,35.83,0,0,1-9.53,6.61,1.55,1.55,0,0,1-.69.15,1.33,1.33,0,0,1-.61-.13A34.15,34.15,0,0,1,18.62,38.8a9.51,9.51,0,0,1-2.5-6.67c.08-3.63.05-7.34,0-10.9V19.31a1.54,1.54,0,0,1,1.25-1.74c2.16-.61,4.31-1.27,6.47-1.92,1.65-.49,3.31-1,5-1.48a3.17,3.17,0,0,1,1.7,0c2,.59,4,1.2,6.05,1.81s3.76,1.13,5.64,1.68a1.29,1.29,0,0,1,1,1.44c0,1.73,0,3.48,0,5.23v3.59a33.228,33.228,0,0,0,.05,3.6c.24,3.06-.83,5.69-3.38,8.24Z"/>
    <path id="Path_2078" data-name="Path 2078" d="M36.33,25.72l-7.66,7.66-3-3a.62.62,0,1,0-.87.87l3.87,3.87,8.53-8.53a.62.62,0,0,0-.87-.87Z"/>
  </g>
</svg>
