<svg xmlns="http://www.w3.org/2000/svg" width="119.466" height="110.019" viewBox="0 0 119.466 110.019">
  <g id="Layer_16" transform="translate(1548.441 -449.15)">
    <g id="Group_82663" data-name="Group 82663" transform="translate(-1546.32 450.65)">
      <g id="Group_82661" data-name="Group 82661">
        <path id="Path_916" data-name="Path 916" d="M-1506.055,484.53h-22.025v72.907h13.42s1.512,10.474,9.873,11.141c10.76.857,12.658-8.736,12.658-8.736s3.618,8.79,10.914,8.79c7.915,0,11.391-7.933,11.486-11.444h32.654V484.53h-54.447" transform="translate(1538.935 -464.368)" fill="none" stroke="#fff" stroke-linecap="round" stroke-linejoin="round" stroke-width="3"/>
        <circle id="Ellipse_173" data-name="Ellipse 173" cx="14.426" cy="14.426" r="14.426" transform="translate(86.994 78.168)" fill="#fff" stroke="#182ac3" stroke-linecap="round" stroke-linejoin="round" stroke-width="3"/>
        <line id="Line_439" data-name="Line 439" y2="16.014" transform="translate(33.892 12.009)" fill="#c5e1f9" stroke="#fff" stroke-linecap="round" stroke-linejoin="round" stroke-width="3"/>
        <line id="Line_440" data-name="Line 440" y2="28.595" transform="translate(47.419 5.207)" fill="#c5e1f9" stroke="#fff" stroke-linecap="round" stroke-linejoin="round" stroke-width="3"/>
        <line id="Line_441" data-name="Line 441" x2="17.276" transform="translate(55.411 8.427)" fill="#c5e1f9" stroke="#fff" stroke-linecap="round" stroke-linejoin="round" stroke-width="3"/>
        <line id="Line_442" data-name="Line 442" y2="15.437" transform="translate(21.335)" fill="#c5e1f9" stroke="#fff" stroke-linecap="round" stroke-linejoin="round" stroke-width="3"/>
        <line id="Line_443" data-name="Line 443" x2="15.437" transform="translate(13.616 7.79)" fill="#c5e1f9" stroke="#fff" stroke-linecap="round" stroke-linejoin="round" stroke-width="3"/>
        <path id="Path_917" data-name="Path 917" d="M-1546.32,551.43l10.7,10.694,10.486-10.492" transform="translate(1546.32 -491.455)" fill="none" stroke="#fff" stroke-linecap="round" stroke-linejoin="round" stroke-width="3"/>
        <path id="Path_918" data-name="Path 918" d="M-1394.08,518.62l11.17-11.17,11.1,11.1" transform="translate(1484.68 -473.648)" fill="none" stroke="#fff" stroke-linecap="round" stroke-linejoin="round" stroke-width="3"/>
      </g>
      <g id="Group_82662" data-name="Group 82662" transform="translate(35.576 42.116)">
        <circle id="Ellipse_174" data-name="Ellipse 174" cx="3.106" cy="3.106" r="3.106" transform="translate(9.248 9.26)" fill="none" stroke="#fff" stroke-linecap="round" stroke-linejoin="round" stroke-width="3"/>
        <path id="Path_920" data-name="Path 920" d="M-1451.982,560.555h-29.982a4.574,4.574,0,0,1-4.576-4.576V526a4.574,4.574,0,0,1,4.576-4.576h29.982a4.574,4.574,0,0,1,4.577,4.576v29.982A4.57,4.57,0,0,1-1451.982,560.555Z" transform="translate(1486.54 -521.42)" fill="none" stroke="#fff" stroke-linecap="round" stroke-linejoin="round" stroke-width="3"/>
        <line id="Line_444" data-name="Line 444" x2="8.439" y2="8.439" transform="translate(1.684 1.268)" fill="none" stroke="#fff" stroke-linecap="round" stroke-linejoin="round" stroke-width="3"/>
        <line id="Line_445" data-name="Line 445" y1="15.753" x2="15.753" transform="translate(12.354 11.212)" fill="none" stroke="#fff" stroke-linecap="round" stroke-linejoin="round" stroke-width="3"/>
        <circle id="Ellipse_175" data-name="Ellipse 175" cx="3.106" cy="3.106" r="3.106" transform="translate(25.001 23.858)" fill="none" stroke="#fff" stroke-linecap="round" stroke-linejoin="round" stroke-width="3"/>
        <circle id="Ellipse_176" data-name="Ellipse 176" cx="3.106" cy="3.106" r="3.106" transform="translate(27.554 5.297)" fill="none" stroke="#fff" stroke-linecap="round" stroke-linejoin="round" stroke-width="3"/>
        <circle id="Ellipse_177" data-name="Ellipse 177" cx="3.106" cy="3.106" r="3.106" transform="translate(8.332 28.286)" fill="none" stroke="#fff" stroke-linecap="round" stroke-linejoin="round" stroke-width="3"/>
        <line id="Line_446" data-name="Line 446" x1="6.487" y1="6.653" transform="translate(31.208 30.333)" fill="none" stroke="#fff" stroke-linecap="round" stroke-linejoin="round" stroke-width="3"/>
      </g>
    </g>
  </g>
</svg>
