<svg xmlns="http://www.w3.org/2000/svg" width="99.533" height="100.743" viewBox="0 0 99.533 100.743">
  <g id="Layer_33" transform="translate(1974.328 -1213.95)">
    <path id="Path_1105" data-name="Path 1105" d="M-1917.655,1271.694a24.546,24.546,0,0,1-1.4-8.18,24.585,24.585,0,0,1,24.584-24.584,24.593,24.593,0,0,1,23.736,18.164" transform="translate(-27.091 -11.903)" fill="none" stroke="#fff" stroke-linecap="round" stroke-width="3"/>
    <circle id="Ellipse_221" data-name="Ellipse 221" cx="5.143" cy="5.143" r="5.143" transform="translate(-1926.547 1246.518)" fill="none" stroke="#fff" stroke-linecap="round" stroke-linejoin="round" stroke-width="3"/>
    <path id="Path_1106" data-name="Path 1106" d="M-1875.81,1247.125V1216.59h-5.231l-2.6,28.272,3.915.414v3.077A7.049,7.049,0,0,1-1875.81,1247.125Z" transform="translate(-45.042 -0.578)" fill="#182ac3" stroke="#fff" stroke-linecap="round" stroke-linejoin="round" stroke-width="3"/>
    <path id="Path_1107" data-name="Path 1107" d="M-1907.061,1292.53l-27.439,13.4,2.293,4.7,26.546-10.073-1.346-3.7,2.761-1.351A7.035,7.035,0,0,1-1907.061,1292.53Z" transform="translate(-19.259 -39.075)" fill="#182ac3" stroke="#fff" stroke-linecap="round" stroke-linejoin="round" stroke-width="3"/>
    <path id="Path_1108" data-name="Path 1108" d="M-1859.55,1287.594l28.4,11.227,1.923-4.861-25.338-12.81-1.824,3.486-2.86-1.129A7.022,7.022,0,0,1-1859.55,1287.594Z" transform="translate(-57.254 -33.306)" fill="#182ac3" stroke="#fff" stroke-linecap="round" stroke-linejoin="round" stroke-width="3"/>
    <path id="Path_1109" data-name="Path 1109" d="M-1870.987,1297.09v57.485h-8.323V1307.7" transform="translate(-47.237 -41.387)" fill="none" stroke="#fff" stroke-linecap="round" stroke-linejoin="round" stroke-width="3"/>
    <path id="Path_1110" data-name="Path 1110" d="M-1822.163,1369.445h-43.547l3.037-28.065h37.807Z" transform="translate(-54.131 -63.839)" fill="#182ac3" stroke="#fff" stroke-linecap="round" stroke-linejoin="round" stroke-width="3"/>
    <line id="Line_497" data-name="Line 497" x2="4.704" transform="translate(-1883.39 1313.189)" fill="none" stroke="#fff" stroke-linecap="round" stroke-linejoin="round" stroke-width="3"/>
    <line id="Line_498" data-name="Line 498" x2="18.84" transform="translate(-1907.165 1313.189)" fill="none" stroke="#fff" stroke-linecap="round" stroke-linejoin="round" stroke-width="3"/>
    <line id="Line_499" data-name="Line 499" x2="23.489" transform="translate(-1937.72 1313.189)" fill="none" stroke="#fff" stroke-linecap="round" stroke-linejoin="round" stroke-width="3"/>
    <rect id="Rectangle_250" data-name="Rectangle 250" width="6.548" height="7.588" transform="translate(-1900.928 1305.605)" fill="none" stroke="#fff" stroke-linecap="round" stroke-linejoin="round" stroke-width="3"/>
    <path id="Path_1111" data-name="Path 1111" d="M-1833.59,1267.46l6.356,2.717q.991-3.313,1.977-6.627" transform="translate(-70.414 -24.384)" fill="none" stroke="#fff" stroke-linecap="round" stroke-width="3"/>
    <rect id="Rectangle_251" data-name="Rectangle 251" width="11.468" height="6.78" transform="translate(-1911.824 1282.269)" fill="none" stroke="#fff" stroke-linecap="round" stroke-linejoin="round" stroke-width="3"/>
    <rect id="Rectangle_252" data-name="Rectangle 252" width="11.468" height="6.78" transform="translate(-1895.608 1282.269)" fill="none" stroke="#fff" stroke-linecap="round" stroke-linejoin="round" stroke-width="3"/>
    <rect id="Rectangle_253" data-name="Rectangle 253" width="11.468" height="6.78" transform="translate(-1895.608 1293.728)" fill="none" stroke="#fff" stroke-linecap="round" stroke-linejoin="round" stroke-width="3"/>
    <rect id="Rectangle_254" data-name="Rectangle 254" width="11.468" height="6.78" transform="translate(-1911.824 1293.728)" fill="none" stroke="#fff" stroke-linecap="round" stroke-linejoin="round" stroke-width="3"/>
    <g id="Group_82702" data-name="Group 82702" transform="translate(-1972.49 1215.45)">
      <g id="Group_82697" data-name="Group 82697" transform="translate(11.182)">
        <line id="Line_500" data-name="Line 500" y2="3.382" transform="translate(0 19.772)" fill="none" stroke="#fff" stroke-linecap="round" stroke-linejoin="round" stroke-width="3"/>
        <line id="Line_501" data-name="Line 501" y2="3.382" fill="none" stroke="#fff" stroke-linecap="round" stroke-linejoin="round" stroke-width="3"/>
      </g>
      <g id="Group_82698" data-name="Group 82698" transform="translate(4.546 2.095)">
        <line id="Line_502" data-name="Line 502" x2="1.943" y2="2.771" transform="translate(11.335 16.197)" fill="none" stroke="#fff" stroke-linecap="round" stroke-linejoin="round" stroke-width="3"/>
        <line id="Line_503" data-name="Line 503" x2="1.938" y2="2.771" fill="none" stroke="#fff" stroke-linecap="round" stroke-linejoin="round" stroke-width="3"/>
      </g>
      <g id="Group_82699" data-name="Group 82699" transform="translate(0.306 7.618)">
        <line id="Line_504" data-name="Line 504" x2="3.18" y2="1.154" transform="translate(18.578 6.765)" fill="none" stroke="#fff" stroke-linecap="round" stroke-linejoin="round" stroke-width="3"/>
        <line id="Line_505" data-name="Line 505" x2="3.18" y2="1.159" fill="none" stroke="#fff" stroke-linecap="round" stroke-linejoin="round" stroke-width="3"/>
      </g>
      <g id="Group_82700" data-name="Group 82700" transform="translate(0 8.584)">
        <line id="Line_506" data-name="Line 506" y1="0.873" x2="3.264" transform="translate(19.101)" fill="none" stroke="#fff" stroke-linecap="round" stroke-linejoin="round" stroke-width="3"/>
        <line id="Line_507" data-name="Line 507" y1="0.878" x2="3.269" transform="translate(0 5.113)" fill="none" stroke="#fff" stroke-linecap="round" stroke-linejoin="round" stroke-width="3"/>
      </g>
      <g id="Group_82701" data-name="Group 82701" transform="translate(3.742 2.712)">
        <line id="Line_508" data-name="Line 508" y1="2.589" x2="2.174" transform="translate(12.706)" fill="none" stroke="#fff" stroke-linecap="round" stroke-linejoin="round" stroke-width="3"/>
        <line id="Line_509" data-name="Line 509" y1="2.593" x2="2.174" transform="translate(0 15.142)" fill="none" stroke="#fff" stroke-linecap="round" stroke-linejoin="round" stroke-width="3"/>
      </g>
      <circle id="Ellipse_222" data-name="Ellipse 222" cx="5.256" cy="5.256" r="5.256" transform="matrix(0.16, -0.987, 0.987, 0.16, 5.2, 15.913)" fill="#fff"/>
    </g>
    <path id="Path_1116" data-name="Path 1116" d="M-1913.372,1387.073c-.735.084-1.124-.439-1.553-.888a3.519,3.519,0,0,0-4.28-.789,3.926,3.926,0,0,0-1.262,1.085,1.636,1.636,0,0,1-2.219.532,13.631,13.631,0,0,1-3.53-2.085,1.562,1.562,0,0,1-.518-2.051,3.572,3.572,0,0,0-2.806-4.98,1.6,1.6,0,0,1-1.573-1.5,10.846,10.846,0,0,1,.1-4.541,1.614,1.614,0,0,1,1.484-1.312,3.564,3.564,0,0,0,2.978-4.748,1.649,1.649,0,0,1,.661-2.184,13.23,13.23,0,0,1,3.126-1.775,1.663,1.663,0,0,1,2.288.479,3.576,3.576,0,0,0,3.8,1.089,3.442,3.442,0,0,0,1.7-1.119,1.641,1.641,0,0,1,2.238-.458,13.746,13.746,0,0,1,3.535,2.086,1.678,1.678,0,0,1,.582,1.953,3.531,3.531,0,0,0,2.87,4.8c.883.188,1.3.833,1.464,2.1a12.322,12.322,0,0,1-.123,3.782,1.644,1.644,0,0,1-1.464,1.474,3.593,3.593,0,0,0-2.826,4.886,1.51,1.51,0,0,1-.517,1.948,13.4,13.4,0,0,1-3.575,2.135A1.583,1.583,0,0,1-1913.372,1387.073Zm-4.388-8.135a4.559,4.559,0,0,0,4.571-4.487,4.688,4.688,0,0,0-4.487-4.605,4.672,4.672,0,0,0-4.64,4.585A4.572,4.572,0,0,0-1917.76,1378.938Z" transform="translate(-20.876 -74.082)" fill="#182ac3" stroke="#fff" stroke-linecap="round" stroke-linejoin="round" stroke-width="3"/>
  </g>
</svg>
