<svg id="Layer_x0020_1" xmlns="http://www.w3.org/2000/svg" width="214.21" height="51.649" viewBox="0 0 214.21 51.649">
  <g id="_251474080">
    <path id="Path_2020" data-name="Path 2020" d="M6.27,42.842C10.151,40.6,23.287,30,30,20.749c-2.09-2.388-12.241-9.554-17.913-8.957,3.583-1.343,7.912-.746,11.643.3,4.18,1.194,5.971,3.284,8.957,4.777C37.319,10.9,36.871,6.568,30,4.329,62.1,1.941,17.614,37.767,7.762,44.036a.146.146,0,0,0-.149.149Zm19.555,8.807A25.825,25.825,0,1,0,0,25.825,25.738,25.738,0,0,0,25.825,51.649Z" fill="teal"/>
    <path id="Path_2021" data-name="Path 2021" d="M391.762,53.139h7.762V38.958l7.912-17.913h-7.464L395.942,31.2l-4.18-10.151H384l7.762,17.913Zm20.152-12.091h4.18L414,26.717Zm-9.4,12.091,7.464-32.094h8.807l7.165,32.094h-7.912l-1.045-6.27h-5.672l-1.045,6.27Zm25.078,0V21.045h7.762V46.87h9.106v6.27Zm33.587-2.687c-.149,1.045-.9,1.791-2.388,2.538a11.688,11.688,0,0,1-4.628,1.045h-.6a9.1,9.1,0,0,1-5.075-2.239c-1.493-1.343-2.239-3.583-2.239-7.016V29.106a9.037,9.037,0,0,1,2.388-6.717C450.278,20.746,452.816,20,456.4,20c3.284,0,5.672.746,7.464,2.239s2.687,3.881,2.687,6.867v2.836h-7.762v-4.18a1.568,1.568,0,0,0-.746-1.343,3.009,3.009,0,0,0-1.642-.448h-.149a3.2,3.2,0,0,0-1.791.6,1.817,1.817,0,0,0-.9,1.493V45.526a2.407,2.407,0,0,0,.9,1.941,3.4,3.4,0,0,0,1.791.9h.448a3.558,3.558,0,0,0,1.642-.9,2.139,2.139,0,0,0,.746-1.642v-4.18H456.4V35.972h10.151V53.139h-5.075Zm17.465-9.4h4.03l-1.941-14.33Zm-9.4,12.091,7.314-32.094h8.807l7.315,32.094h-7.912l-1.045-6.27h-5.822l-.9,6.27Zm34.035-12.091h4.03l-1.941-14.33Zm-9.4,12.091,7.314-32.094h8.956L517.3,53.139h-7.912l-1.045-6.27h-5.822l-.9,6.27ZM526.11,34.928H527.9a2.89,2.89,0,0,0,1.941-.9,4.213,4.213,0,0,0,1.045-2.985v-.9c-.448-1.941-.9-2.986-1.791-3.284a8.386,8.386,0,0,0-2.985-.448Zm-7.762,18.212V21.045h11.2a9.693,9.693,0,0,1,6.419,1.941c1.642,1.194,2.538,3.284,2.687,6.12a12.369,12.369,0,0,1-.9,5.075,6.155,6.155,0,0,1-3.284,3.135,5.177,5.177,0,0,1,2.836,1.493,3.075,3.075,0,0,1,1.045,2.538l.3,7.762A4.112,4.112,0,0,0,539.1,51.5c.3.448.6.746.9.746v.9h-6.867a3.078,3.078,0,0,1-1.94-.448,5.915,5.915,0,0,1-.3-2.239V43.735a3.09,3.09,0,0,0-.746-2.239,2.443,2.443,0,0,0-2.239-.9H526.11V53.139Z" transform="translate(-326.678 -17.014)" fill="teal"/>
    <path id="Path_2022" data-name="Path 2022" d="M430,282.658,432.388,274h1.194l2.388,8.658h-1.045l-.6-2.538h-2.687l-.6,2.538Zm1.791-3.433h2.239l-1.045-4.478Z" transform="translate(-365.812 -233.099)" fill="teal"/>
    <path id="Path_2023" data-name="Path 2023" d="M495,282.658V274h2.388a3.323,3.323,0,0,1,1.941.6,1.86,1.86,0,0,1,.6,1.642,2.98,2.98,0,0,1-.3,1.343,2.051,2.051,0,0,1-1.194.746,1.355,1.355,0,0,1,1.045.448,10.293,10.293,0,0,1,.448,1.194v.9a2.593,2.593,0,0,0,.448,1.791H499.18a3.744,3.744,0,0,1-.149-1.493,1.894,1.894,0,0,1-.149-.9,1.469,1.469,0,0,0-.448-1.194,2.981,2.981,0,0,0-1.343-.3H495.9v3.881Zm.9-4.628h1.194a2.522,2.522,0,0,0,1.493-.448,1.469,1.469,0,0,0,.448-1.194,1.7,1.7,0,0,0-.448-1.194,2.98,2.98,0,0,0-1.343-.3H495.9Z" transform="translate(-421.109 -233.099)" fill="teal"/>
    <path id="Path_2024" data-name="Path 2024" d="M539.135,292.329h.9a5.037,5.037,0,0,1-.6,1.791,1.99,1.99,0,0,1-1.493.6,1.642,1.642,0,0,1-1.493-.9,4.827,4.827,0,0,1-.448-2.388,6.237,6.237,0,0,1,.448-2.687c.3-.6.9-.746,1.642-.746a1.455,1.455,0,0,1,1.344.6,3.337,3.337,0,0,1,.6,2.239v.448H536.9v.3a4.287,4.287,0,0,0,.3,1.791,1.008,1.008,0,0,0,.9.6.821.821,0,0,0,.746-.448,2.312,2.312,0,0,0,.3-1.194Zm-2.239-1.642h2.239v-.3a2.812,2.812,0,0,0-.3-1.194.821.821,0,0,0-.746-.448.9.9,0,0,0-.9.448A3.211,3.211,0,0,0,536.9,290.687Z" transform="translate(-455.989 -245.009)" fill="teal"/>
    <path id="Path_2025" data-name="Path 2025" d="M573.329,294.568h-.448a1.056,1.056,0,0,1-.9-.9,1.491,1.491,0,0,1-.6.746,1.262,1.262,0,0,1-.9.3,1.127,1.127,0,0,1-1.045-.6,1.7,1.7,0,0,1-.448-1.194,1.825,1.825,0,0,1,.448-1.344c.149-.3.746-.448,1.493-.746h0c.746-.3,1.045-.448,1.045-.746v-.6a.775.775,0,0,0-.3-.6c-.149-.149-.3-.149-.746-.149-.3,0-.448,0-.6.149a1.14,1.14,0,0,0-.3.746v.149H569.3A1.583,1.583,0,0,1,571.09,288a2.981,2.981,0,0,1,1.344.3,1.825,1.825,0,0,1,.448,1.343v4.03c.149.149.149.149.3.149h.149Zm-1.343-3.433a2.43,2.43,0,0,1-.9.448h-.149c-.448.149-.746.3-.746.448a1.262,1.262,0,0,0-.3.9c0,.3.149.448.3.746.149.149.3.149.6.149a2.122,2.122,0,0,0,.9-.3,2.812,2.812,0,0,0,.3-1.194Z" transform="translate(-484.063 -245.009)" fill="teal"/>
    <path id="Path_2026" data-name="Path 2026" d="M604,274h.9v8.658H604Z" transform="translate(-513.838 -233.099)" fill="teal"/>
    <path id="Path_2027" data-name="Path 2027" d="M618,307h2.687v1.045H618Z" transform="translate(-525.748 -261.173)" fill="teal"/>
    <path id="Path_2028" data-name="Path 2028" d="M640.791,283.867a1.5,1.5,0,0,0,.149.448c.149.149.3.149.746.149h.149v.746h-.6a2.213,2.213,0,0,1-1.045-.149,1.14,1.14,0,0,1-.3-.746v-4.777H639v-.746h.9V277h.9v1.791h1.045v.746h-1.045Z" transform="translate(-543.613 -235.651)" fill="teal"/>
    <path id="Path_2029" data-name="Path 2029" d="M663,276.239h.9v6.419H663ZM663,274h.9v1.194H663Z" transform="translate(-564.031 -233.099)" fill="teal"/>
    <path id="Path_2030" data-name="Path 2030" d="M678,294.568v-6.419h.9v.746a1.49,1.49,0,0,1,.6-.746,2.213,2.213,0,0,1,1.045-.149,1.893,1.893,0,0,1,.9.149c.149.3.448.448.448.746a1.8,1.8,0,0,1,.746-.746,1.893,1.893,0,0,1,.9-.149,1.469,1.469,0,0,1,1.194.448,1.162,1.162,0,0,1,.448,1.045v5.075h-.9V290.09a1.74,1.74,0,0,0-.3-1.045c0-.149-.3-.3-.6-.3a1.583,1.583,0,0,0-1.343,1.343v4.478h-.9V290.09c0-.448,0-.9-.149-1.045a1.14,1.14,0,0,0-.746-.3,1.355,1.355,0,0,0-1.045.448,1.262,1.262,0,0,0-.3.9v4.478Z" transform="translate(-576.792 -245.009)" fill="teal"/>
    <path id="Path_2031" data-name="Path 2031" d="M736.985,292.329h.9a3.184,3.184,0,0,1-.448,1.791,2.652,2.652,0,0,1-1.493.6,1.5,1.5,0,0,1-1.493-.9,4.826,4.826,0,0,1-.448-2.388,6.236,6.236,0,0,1,.448-2.687,1.516,1.516,0,0,1,1.493-.746,1.572,1.572,0,0,1,1.493.6,4.57,4.57,0,0,1,.448,2.239v.448H734.9v.3c0,.9,0,1.493.3,1.791a1.008,1.008,0,0,0,.9.6c.3,0,.448-.149.746-.448a2.566,2.566,0,0,0,.149-1.194Zm-2.09-1.642h2.09v-.3a2.91,2.91,0,0,0-.149-1.194,1.064,1.064,0,0,0-.9-.448.821.821,0,0,0-.746.448C734.9,289.493,734.9,289.941,734.9,290.687Z" transform="translate(-624.432 -245.009)" fill="teal"/>
    <path id="Path_2032" data-name="Path 2032" d="M793.822,282.658V274.6l-2.09,8.061h-.9L788.9,274.6v8.061H788V274h1.493l1.791,7.314L793.225,274h1.493v8.658Z" transform="translate(-670.371 -233.099)" fill="teal"/>
    <path id="Path_2033" data-name="Path 2033" d="M845.135,292.329h.9a5.037,5.037,0,0,1-.6,1.791,1.99,1.99,0,0,1-1.493.6,1.642,1.642,0,0,1-1.493-.9,4.827,4.827,0,0,1-.448-2.388,6.237,6.237,0,0,1,.448-2.687c.3-.6.9-.746,1.642-.746a1.455,1.455,0,0,1,1.344.6,3.337,3.337,0,0,1,.6,2.239v.448H842.9v.3a4.287,4.287,0,0,0,.3,1.791,1.008,1.008,0,0,0,.9.6.821.821,0,0,0,.746-.448,2.312,2.312,0,0,0,.3-1.194Zm-2.239-1.642h2.239v-.3a2.812,2.812,0,0,0-.3-1.194.821.821,0,0,0-.746-.448.9.9,0,0,0-.9.448A3.211,3.211,0,0,0,842.9,290.687Z" transform="translate(-716.31 -245.009)" fill="teal"/>
    <path id="Path_2034" data-name="Path 2034" d="M875,292.628h.9v.149a1.14,1.14,0,0,0,.3.746c.3.3.448.3.9.3.3,0,.6,0,.746-.3.3-.149.3-.3.3-.746s-.3-.9-1.045-1.045h0a3.958,3.958,0,0,1-1.642-.9,2.158,2.158,0,0,1-.3-1.045,1.825,1.825,0,0,1,.448-1.344A2.522,2.522,0,0,1,877.09,288a1.583,1.583,0,0,1,1.791,1.791h-.9a1.893,1.893,0,0,0-.149-.9,1.941,1.941,0,0,0-1.493,0c-.3.149-.3.448-.3.746v.448l.3.3a2.431,2.431,0,0,0,.9.448c.3,0,.448.149.6.149a2.3,2.3,0,0,1,.9.6,1.26,1.26,0,0,1,.3,1.045,1.981,1.981,0,0,1-.448,1.493,2.039,2.039,0,0,1-1.642.6,1.455,1.455,0,0,1-1.344-.6,1.892,1.892,0,0,1-.6-1.343Z" transform="translate(-744.384 -245.009)" fill="teal"/>
    <path id="Path_2035" data-name="Path 2035" d="M909,292.628h.9v.149a1.14,1.14,0,0,0,.3.746c.149.3.448.3.9.3.3,0,.6,0,.746-.3a.877.877,0,0,0,.3-.746c0-.448-.3-.9-1.194-1.045h0a4.31,4.31,0,0,1-1.493-.9,2.157,2.157,0,0,1-.3-1.045A1.583,1.583,0,0,1,910.941,288a2.229,2.229,0,0,1,1.493.448,1.825,1.825,0,0,1,.448,1.344h-.9a2.121,2.121,0,0,0-.3-.9c-.149-.149-.3-.149-.6-.149-.448,0-.746,0-.9.149a1.118,1.118,0,0,0-.149.746v.448c0,.149.149.149.149.3a3.567,3.567,0,0,0,1.045.448c.3,0,.448.149.6.149a2.3,2.3,0,0,1,.9.6,2.157,2.157,0,0,1,.3,1.045,1.572,1.572,0,0,1-.6,1.493,2.165,2.165,0,0,1-2.986,0,1.825,1.825,0,0,1-.448-1.343Z" transform="translate(-773.309 -245.009)" fill="teal"/>
    <path id="Path_2036" data-name="Path 2036" d="M947.329,294.568h-.6a1.131,1.131,0,0,1-.6-.3c-.149-.149-.149-.3-.149-.6a3.256,3.256,0,0,1-.6.746,2.122,2.122,0,0,1-.9.3,1.211,1.211,0,0,1-1.194-.6,2.812,2.812,0,0,1-.3-1.194,2.981,2.981,0,0,1,.3-1.344,4.216,4.216,0,0,1,1.642-.746h0c.6-.3.9-.448.9-.746v-.6c0-.3,0-.448-.149-.6a.92.92,0,0,0-1.642.746v.149h-.9a1.825,1.825,0,0,1,.448-1.344A1.981,1.981,0,0,1,945.09,288a1.929,1.929,0,0,1,1.194.3,1.825,1.825,0,0,1,.448,1.343v3.732c0,.149,0,.3.149.3,0,.149.149.149.3.149h.149Zm-1.493-3.433a2.43,2.43,0,0,1-.9.448h-.149a3.266,3.266,0,0,0-.746.448c-.149.149-.149.448-.149.9a1.346,1.346,0,0,0,.149.746c.149.149.3.149.6.149a1.262,1.262,0,0,0,.9-.3,1.609,1.609,0,0,0,.3-1.194Z" transform="translate(-802.234 -245.009)" fill="teal"/>
    <path id="Path_2037" data-name="Path 2037" d="M977.149,295.016l.9.149c0,.149.149.448.3.448a1.14,1.14,0,0,0,.746.3.9.9,0,0,0,.9-.448c.3-.3.3-.746.3-1.343v-.448a1.491,1.491,0,0,1-.6.746,1.119,1.119,0,0,1-.746.149,1.5,1.5,0,0,1-1.493-.9,5.1,5.1,0,0,1-.448-2.538,5.233,5.233,0,0,1,.448-2.388,1.837,1.837,0,0,1,1.493-.746,1.893,1.893,0,0,1,.9.149,1.269,1.269,0,0,1,.448.746v-.746h.9v6.12a2.379,2.379,0,0,1-.6,1.791,1.86,1.86,0,0,1-1.642.6,2.408,2.408,0,0,1-1.343-.448,1.355,1.355,0,0,1-.448-1.045Zm.746-3.732a5.187,5.187,0,0,0,.3,1.941.97.97,0,0,0,1.791,0,6.455,6.455,0,0,0,0-3.881.97.97,0,0,0-1.791,0A5.848,5.848,0,0,0,977.9,291.284Z" transform="translate(-831.158 -245.009)" fill="teal"/>
    <path id="Path_2038" data-name="Path 2038" d="M1014,276.239h.9v6.419h-.9Zm0-2.239h.9v1.194h-.9Z" transform="translate(-862.635 -233.099)" fill="teal"/>
    <path id="Path_2039" data-name="Path 2039" d="M1029,294.568v-6.419h.9v.746a1.166,1.166,0,0,1,.6-.6,1.1,1.1,0,0,1,.9-.3c.6,0,1.045.149,1.194.448a1.981,1.981,0,0,1,.448,1.493v4.628h-.9v-4.777a1.141,1.141,0,0,0-.3-.746.776.776,0,0,0-.6-.3,1.355,1.355,0,0,0-1.045.448,1.74,1.74,0,0,0-.3,1.045v4.329Z" transform="translate(-875.396 -245.009)" fill="teal"/>
    <path id="Path_2040" data-name="Path 2040" d="M1064.149,295.016l.9.149c0,.149.149.448.3.448a1.14,1.14,0,0,0,.746.3.9.9,0,0,0,.9-.448,2.98,2.98,0,0,0,.3-1.343v-.448a1.491,1.491,0,0,1-.6.746,1.119,1.119,0,0,1-.746.149,1.5,1.5,0,0,1-1.493-.9,5.1,5.1,0,0,1-.448-2.538,5.233,5.233,0,0,1,.448-2.388,1.837,1.837,0,0,1,1.493-.746,1.894,1.894,0,0,1,.9.149,3.267,3.267,0,0,1,.448.746v-.746h.9v6.12a2.38,2.38,0,0,1-.6,1.791,1.86,1.86,0,0,1-1.642.6,2.408,2.408,0,0,1-1.343-.448,1.355,1.355,0,0,1-.448-1.045Zm.746-3.732a5.187,5.187,0,0,0,.3,1.941.97.97,0,0,0,1.791,0,6.455,6.455,0,0,0,0-3.881.97.97,0,0,0-1.791,0A5.848,5.848,0,0,0,1064.9,291.284Z" transform="translate(-905.171 -245.009)" fill="teal"/>
    <path id="Path_2041" data-name="Path 2041" d="M1120,282.658V274h4.031v.9h-2.986v2.836h2.687v.746h-2.687v4.18Z" transform="translate(-952.812 -233.099)" fill="teal"/>
    <path id="Path_2042" data-name="Path 2042" d="M1151,294.568v-6.419h.9v1.045a1.371,1.371,0,0,1,.6-.9,1.262,1.262,0,0,1,.9-.3h.3v.9h-.3a1.162,1.162,0,0,0-1.045.448,1.7,1.7,0,0,0-.448,1.194v4.03Z" transform="translate(-979.184 -245.009)" fill="teal"/>
    <path id="Path_2043" data-name="Path 2043" d="M1176.329,294.568h-.448a1.055,1.055,0,0,1-.9-.9,1.491,1.491,0,0,1-.6.746,2.122,2.122,0,0,1-.9.3,1,1,0,0,1-1.045-.6,1.7,1.7,0,0,1-.448-1.194,2.981,2.981,0,0,1,.3-1.344,5.721,5.721,0,0,1,1.642-.746h0c.6-.3.9-.448.9-.746v-.6c0-.3,0-.448-.149-.6a.92.92,0,0,0-1.642.746v.149h-.9a1.825,1.825,0,0,1,.448-1.344,2.229,2.229,0,0,1,1.493-.448,2.981,2.981,0,0,1,1.344.3,1.824,1.824,0,0,1,.448,1.343v4.03c.149.149.149.149.3.149h.149Zm-1.344-3.433a2.3,2.3,0,0,1-1.045.448h0a2.432,2.432,0,0,0-.9.448,5.282,5.282,0,0,0-.149.9c0,.3.149.448.149.746a.9.9,0,0,0,.6.149,1.262,1.262,0,0,0,.9-.3,1.7,1.7,0,0,0,.448-1.194Z" transform="translate(-997.05 -245.009)" fill="teal"/>
    <path id="Path_2044" data-name="Path 2044" d="M1207,294.568v-6.419h.9v.746a1.489,1.489,0,0,1,.6-.746,2.213,2.213,0,0,1,1.045-.149,1.893,1.893,0,0,1,.9.149c.149.3.448.448.448.746a1.8,1.8,0,0,1,.746-.746,1.893,1.893,0,0,1,.9-.149,1.469,1.469,0,0,1,1.194.448,1.162,1.162,0,0,1,.448,1.045v5.075h-.9V290.09a1.739,1.739,0,0,0-.3-1.045c0-.149-.3-.3-.6-.3a1.583,1.583,0,0,0-1.344,1.343v4.478h-.9V290.09a8.423,8.423,0,0,0-.149-1.045,1.141,1.141,0,0,0-.746-.3,1.355,1.355,0,0,0-1.045.448,1.262,1.262,0,0,0-.3.9v4.478Z" transform="translate(-1026.825 -245.009)" fill="teal"/>
    <path id="Path_2045" data-name="Path 2045" d="M1265.985,292.329h.9a3.183,3.183,0,0,1-.448,1.791,2.652,2.652,0,0,1-1.493.6,1.5,1.5,0,0,1-1.493-.9,4.826,4.826,0,0,1-.448-2.388,6.236,6.236,0,0,1,.448-2.687,1.516,1.516,0,0,1,1.493-.746,1.572,1.572,0,0,1,1.493.6,4.569,4.569,0,0,1,.448,2.239v.448H1263.9v.3c0,.9,0,1.493.3,1.791a1.008,1.008,0,0,0,.9.6c.3,0,.448-.149.6-.448.3-.3.3-.6.3-1.194Zm-2.09-1.642h2.09v-.3a2.912,2.912,0,0,0-.149-1.194,1.064,1.064,0,0,0-.9-.448.821.821,0,0,0-.746.448C1263.9,289.493,1263.9,289.941,1263.9,290.687Z" transform="translate(-1074.466 -245.009)" fill="teal"/>
    <path id="Path_2046" data-name="Path 2046" d="M1295.642,295.419,1294,289h.9l1.194,5.075,1.045-5.075h.9l1.045,5.075L1300.27,289h.9l-1.642,6.419h-.9l-1.045-5.075-1.045,5.075Z" transform="translate(-1100.838 -245.859)" fill="teal"/>
    <path id="Path_2047" data-name="Path 2047" d="M1347.9,291.284a6.181,6.181,0,0,0,.3,2.09,1.074,1.074,0,0,0,1.045.6,1.008,1.008,0,0,0,.9-.6,6.919,6.919,0,0,0,.3-2.09,5.187,5.187,0,0,0-.3-1.941.818.818,0,0,0-.9-.6c-.6,0-.9.149-1.045.6A5.187,5.187,0,0,0,1347.9,291.284Zm-.9,0a5.947,5.947,0,0,1,.448-2.538,1.863,1.863,0,0,1,1.791-.746,1.751,1.751,0,0,1,1.642.746,5.269,5.269,0,0,1,.6,2.538,4.825,4.825,0,0,1-.6,2.538,1.715,1.715,0,0,1-1.642.9,1.954,1.954,0,0,1-1.791-.9A5.1,5.1,0,0,1,1347,291.284Z" transform="translate(-1145.927 -245.009)" fill="teal"/>
    <path id="Path_2048" data-name="Path 2048" d="M1384,294.568v-6.419h.9v1.045a1.371,1.371,0,0,1,.6-.9,2.121,2.121,0,0,1,.9-.3h.3v.9h-.3a1.355,1.355,0,0,0-1.045.448,1.7,1.7,0,0,0-.448,1.194v4.03Z" transform="translate(-1177.403 -245.009)" fill="teal"/>
    <path id="Path_2049" data-name="Path 2049" d="M1407,282.658V274h.746v5.075l2.239-2.836h1.045l-1.941,2.388,2.09,4.03h-1.045l-1.642-3.135-.746.746v2.388Z" transform="translate(-1196.97 -233.099)" fill="teal"/>
  </g>
</svg>
