<svg xmlns="http://www.w3.org/2000/svg" width="93.493" height="93.479" viewBox="0 0 93.493 93.479">
  <g id="Layer_7" transform="translate(701.8 -49.77)">
    <g id="Group_82610" data-name="Group 82610" transform="translate(-700.3 51.27)">
      <path id="Path_608" data-name="Path 608" d="M-540.465,70.574V82.766l-3.536-2.3h-14.065a1.324,1.324,0,0,1-1.324-1.324V70.574a1.324,1.324,0,0,1,1.324-1.324h16.282A1.32,1.32,0,0,1-540.465,70.574Z" transform="translate(623.928 -61.015)" fill="#c5e1f9"/>
      <path id="Path_609" data-name="Path 609" d="M-682.97,206.408V218.6l3.536-2.3h14.065a1.324,1.324,0,0,0,1.324-1.324V206.4a1.324,1.324,0,0,0-1.324-1.324h-16.282A1.327,1.327,0,0,0-682.97,206.408Z" transform="translate(690.907 -134.634)" fill="#c5e1f9"/>
      <path id="Path_610" data-name="Path 610" d="M-607.85,145.062h-35.628A3.52,3.52,0,0,1-647,141.54V105.912a3.52,3.52,0,0,1,3.522-3.522h35.628a3.52,3.52,0,0,1,3.522,3.522V141.54A3.52,3.52,0,0,1-607.85,145.062Z" transform="translate(671.412 -78.977)" fill="none" stroke="#0561fc" stroke-linecap="round" stroke-linejoin="round" stroke-width="3"/>
      <path id="Path_611" data-name="Path 611" d="M-608.712,121.982V128.4H-632.78a2.129,2.129,0,0,0-2.13,2.13v8.294l-4.74,3.087V121.982a2.16,2.16,0,0,1,2.162-2.162h26.615A2.16,2.16,0,0,1-608.712,121.982Z" transform="translate(667.428 -88.424)" fill="#c5e1f9"/>
      <path id="Path_612" data-name="Path 612" d="M-598.8,140.68v19.648l-5.7-3.71H-627.17a2.129,2.129,0,0,1-2.13-2.13V140.68a2.129,2.129,0,0,1,2.13-2.13h26.244A2.129,2.129,0,0,1-598.8,140.68Z" transform="translate(661.818 -98.575)" fill="none" stroke="#0561fc" stroke-linecap="round" stroke-linejoin="round" stroke-width="3"/>
      <path id="Path_613" data-name="Path 613" d="M-634.023,80.174v-9.43L-643,61.4" transform="translate(669.244 -56.76)" fill="none" stroke="#0561fc" stroke-linecap="round" stroke-linejoin="round" stroke-width="3"/>
      <line id="Line_287" data-name="Line 287" y1="17.491" transform="translate(45.755 5.922)" fill="none" stroke="#0561fc" stroke-linecap="round" stroke-linejoin="round" stroke-width="3"/>
      <path id="Path_614" data-name="Path 614" d="M-577.2,80.716V71.327l8.977-8.927" transform="translate(633.581 -57.302)" fill="none" stroke="#0561fc" stroke-linecap="round" stroke-linejoin="round" stroke-width="3"/>
      <path id="Path_615" data-name="Path 615" d="M-553.83,117.113h9.54l8.606-8.523" transform="translate(620.914 -82.337)" fill="none" stroke="#0561fc" stroke-linecap="round" stroke-linejoin="round" stroke-width="3"/>
      <line id="Line_288" data-name="Line 288" x2="17.5" transform="translate(67.084 45.219)" fill="none" stroke="#0561fc" stroke-linecap="round" stroke-linejoin="round" stroke-width="3"/>
      <path id="Path_616" data-name="Path 616" d="M-553.83,173.4h9.536l8.734,8.546" transform="translate(620.914 -117.464)" fill="none" stroke="#0561fc" stroke-linecap="round" stroke-linejoin="round" stroke-width="3"/>
      <path id="Path_617" data-name="Path 617" d="M-577,195.56v9.911l9.068,9.343" transform="translate(633.472 -129.474)" fill="none" stroke="#0561fc" stroke-linecap="round" stroke-linejoin="round" stroke-width="3"/>
      <line id="Line_289" data-name="Line 289" y2="18.485" transform="translate(45.755 66.086)" fill="none" stroke="#0561fc" stroke-linecap="round" stroke-linejoin="round" stroke-width="3"/>
      <path id="Path_618" data-name="Path 618" d="M-633.923,195.56v9.5l-9.8,9.623" transform="translate(669.634 -129.474)" fill="none" stroke="#0561fc" stroke-linecap="round" stroke-linejoin="round" stroke-width="3"/>
      <path id="Path_619" data-name="Path 619" d="M-669.439,172.64h-9.71l-9.252,9.343" transform="translate(693.85 -117.052)" fill="none" stroke="#0561fc" stroke-linecap="round" stroke-linejoin="round" stroke-width="3"/>
      <line id="Line_290" data-name="Line 290" x1="18.503" transform="translate(5.908 45.219)" fill="none" stroke="#0561fc" stroke-linecap="round" stroke-linejoin="round" stroke-width="3"/>
      <path id="Path_620" data-name="Path 620" d="M-669.439,116.035h-9.481L-688.4,106.6" transform="translate(693.85 -81.259)" fill="none" stroke="#0561fc" stroke-linecap="round" stroke-linejoin="round" stroke-width="3"/>
      <circle id="Ellipse_37" data-name="Ellipse 37" cx="2.954" cy="2.954" r="2.954" transform="translate(20.862 0.014)" fill="none" stroke="#0561fc" stroke-linecap="round" stroke-linejoin="round" stroke-width="3"/>
      <circle id="Ellipse_38" data-name="Ellipse 38" cx="2.954" cy="2.954" r="2.954" transform="translate(39.659 45.769)" fill="none" stroke="#0561fc" stroke-linecap="round" stroke-linejoin="round" stroke-width="3"/>
      <circle id="Ellipse_39" data-name="Ellipse 39" cx="2.954" cy="2.954" r="2.954" transform="translate(49.973 45.769)" fill="none" stroke="#0561fc" stroke-linecap="round" stroke-linejoin="round" stroke-width="3"/>
      <circle id="Ellipse_40" data-name="Ellipse 40" cx="2.954" cy="2.954" r="2.954" transform="translate(42.846 0.014)" fill="none" stroke="#0561fc" stroke-linecap="round" stroke-linejoin="round" stroke-width="3"/>
      <circle id="Ellipse_41" data-name="Ellipse 41" cx="2.954" cy="2.954" r="2.954" transform="translate(64.473)" fill="none" stroke="#0561fc" stroke-linecap="round" stroke-linejoin="round" stroke-width="3"/>
      <circle id="Ellipse_42" data-name="Ellipse 42" cx="2.954" cy="2.954" r="2.954" transform="translate(84.584 20.848)" fill="none" stroke="#0561fc" stroke-linecap="round" stroke-linejoin="round" stroke-width="3"/>
      <circle id="Ellipse_43" data-name="Ellipse 43" cx="2.954" cy="2.954" r="2.954" transform="translate(84.584 42.265)" fill="none" stroke="#0561fc" stroke-linecap="round" stroke-linejoin="round" stroke-width="3"/>
      <circle id="Ellipse_44" data-name="Ellipse 44" cx="2.954" cy="2.954" r="2.954" transform="translate(84.584 63.512)" fill="none" stroke="#0561fc" stroke-linecap="round" stroke-linejoin="round" stroke-width="3"/>
      <circle id="Ellipse_45" data-name="Ellipse 45" cx="2.954" cy="2.954" r="2.954" transform="translate(0 20.848)" fill="none" stroke="#0561fc" stroke-linecap="round" stroke-linejoin="round" stroke-width="3"/>
      <circle id="Ellipse_46" data-name="Ellipse 46" cx="2.954" cy="2.954" r="2.954" transform="translate(0 42.265)" fill="none" stroke="#0561fc" stroke-linecap="round" stroke-linejoin="round" stroke-width="3"/>
      <circle id="Ellipse_47" data-name="Ellipse 47" cx="2.954" cy="2.954" r="2.954" transform="translate(0.188 63.933)" fill="none" stroke="#0561fc" stroke-linecap="round" stroke-linejoin="round" stroke-width="3"/>
      <circle id="Ellipse_48" data-name="Ellipse 48" cx="2.954" cy="2.954" r="2.954" transform="translate(64.547 84.571)" fill="none" stroke="#0561fc" stroke-linecap="round" stroke-linejoin="round" stroke-width="3"/>
      <circle id="Ellipse_49" data-name="Ellipse 49" cx="2.954" cy="2.954" r="2.954" transform="translate(42.801 84.571)" fill="none" stroke="#0561fc" stroke-linecap="round" stroke-linejoin="round" stroke-width="3"/>
      <circle id="Ellipse_50" data-name="Ellipse 50" cx="2.954" cy="2.954" r="2.954" transform="translate(20.954 84.571)" fill="none" stroke="#0561fc" stroke-linecap="round" stroke-linejoin="round" stroke-width="3"/>
    </g>
  </g>
</svg>
