<svg xmlns="http://www.w3.org/2000/svg" width="101.596" height="101.014" viewBox="0 0 101.596 101.014">
  <g id="Layer_38" transform="translate(2810.187 -1220.939)">
    <path id="Path_1029" data-name="Path 1029" d="M-2642.824,1220.939c7.518.067,12.642,7.714,9.274,14.423-2.1,4.187-5.072,7.946-7.745,11.833a1.757,1.757,0,0,1-3.177.026c-2.7-3.939-5.716-7.755-7.822-12C-2655.615,1228.525-2650.326,1220.873-2642.824,1220.939Zm5.721,10.562a5.831,5.831,0,0,0-5.8-5.9,5.9,5.9,0,0,0-5.829,5.706,5.927,5.927,0,0,0,5.731,6.01A5.839,5.839,0,0,0-2637.1,1231.5Z" transform="translate(-76.096 0)" fill="#fff"/>
    <path id="Path_1030" data-name="Path 1030" d="M-2799.7,1361.4c7.518.067,12.642,7.714,9.274,14.423-2.1,4.187-5.072,7.946-7.744,11.833a1.758,1.758,0,0,1-3.177.026c-2.7-3.939-5.716-7.755-7.822-12C-2812.5,1368.979-2807.206,1361.327-2799.7,1361.4Zm5.721,10.561a5.831,5.831,0,0,0-5.8-5.9,5.9,5.9,0,0,0-5.829,5.706,5.927,5.927,0,0,0,5.732,6.009A5.842,5.842,0,0,0-2793.983,1371.961Z" transform="translate(0 -68.131)" fill="#fff"/>
    <path id="Path_1031" data-name="Path 1031" d="M-2750.679,1280.129l5.7-8.759q3.02,4.317,6.035,8.641c-1.087.021-2.178.036-3.265.057q-.031,5.476-.067,10.953h-5.345v-10.886C-2748.64,1280.129-2749.66,1280.129-2750.679,1280.129Z" transform="translate(-28.865 -24.462)" fill="#fff"/>
    <path id="Path_1032" data-name="Path 1032" d="M-2726.594,1393.292h-1.462a4.58,4.58,0,0,1-4.583-4.583v-.829h6.045Z" transform="translate(-37.615 -80.976)" fill="#fff"/>
    <path id="Path_1033" data-name="Path 1033" d="M-2664.01,1394.2h1.463a4.58,4.58,0,0,0,4.583-4.583v-.829h-6.045Z" transform="translate(-70.904 -81.417)" fill="#fff"/>
    <path id="Path_1038" data-name="Path 1038" d="M-2691.417,1339.26h-39.553l5.412-15.85,29.115.257Z" transform="translate(-38.425 -49.704)" fill="none" stroke="#fff" stroke-linecap="round" stroke-linejoin="round" stroke-width="3"/>
    <path id="Path_1039" data-name="Path 1039" d="M-2695.726,1376.229H-2738.2a4.531,4.531,0,0,1-4.531-4.531v-3.306a4.531,4.531,0,0,1,4.531-4.531h42.472a4.532,4.532,0,0,1,4.531,4.531v3.306A4.531,4.531,0,0,1-2695.726,1376.229Z" transform="translate(-32.72 -69.325)" fill="none" stroke="#fff" stroke-linecap="round" stroke-linejoin="round" stroke-width="3"/>
    <path id="Path_1040" data-name="Path 1040" d="M-2733.49,1396.062h-.644a4.154,4.154,0,0,1-4.156-4.156v-4.027h8.955v4.027A4.157,4.157,0,0,1-2733.49,1396.062Z" transform="translate(-34.874 -80.976)" fill="none" stroke="#fff" stroke-linecap="round" stroke-linejoin="round" stroke-width="3"/>
    <path id="Path_1041" data-name="Path 1041" d="M-2659.24,1396.062h-.644a4.154,4.154,0,0,1-4.156-4.156v-4.027h8.955v4.027A4.157,4.157,0,0,1-2659.24,1396.062Z" transform="translate(-70.89 -80.976)" fill="none" stroke="#fff" stroke-linecap="round" stroke-linejoin="round" stroke-width="3"/>
    <path id="Path_1042" data-name="Path 1042" d="M-2740.93,1360.295a5.183,5.183,0,0,1,2-5.711,4.5,4.5,0,0,1,3.043-.479" transform="translate(-33.511 -64.555)" fill="none" stroke="#fff" stroke-linecap="round" stroke-linejoin="round" stroke-width="3"/>
    <path id="Path_1043" data-name="Path 1043" d="M-2654.16,1354.126a4.894,4.894,0,0,1,3.548.747,5.242,5.242,0,0,1,1.684,5.829" transform="translate(-75.682 -64.57)" fill="none" stroke="#fff" stroke-linecap="round" stroke-linejoin="round" stroke-width="3"/>
    <line id="Line_471" data-name="Line 471" x2="8.795" y2="12.668" transform="translate(-2765.048 1276.826)" fill="none" stroke="#fff" stroke-linecap="round" stroke-linejoin="round" stroke-width="3"/>
    <line id="Line_472" data-name="Line 472" x2="10.891" y2="15.67" transform="translate(-2760.573 1273.824)" fill="none" stroke="#fff" stroke-linecap="round" stroke-linejoin="round" stroke-width="3"/>
    <path id="Path_1044" data-name="Path 1044" d="M-2742.53,1362.93" transform="translate(-32.817 -68.874)" fill="none" stroke="#fff" stroke-linecap="round" stroke-linejoin="round" stroke-width="3"/>
    <line id="Line_473" data-name="Line 473" x1="9.619" y2="42.622" transform="translate(-2788.334 1276.826)" fill="none" stroke="#fff" stroke-linecap="round" stroke-linejoin="round" stroke-width="3"/>
    <line id="Line_474" data-name="Line 474" y2="7.817" transform="translate(-2749.682 1312.316)" fill="none" stroke="#fff" stroke-linecap="round" stroke-linejoin="round" stroke-width="3"/>
    <line id="Line_475" data-name="Line 475" y2="7.817" transform="translate(-2749.682 1258.33)" fill="none" stroke="#fff" stroke-linecap="round" stroke-linejoin="round" stroke-width="3"/>
    <line id="Line_476" data-name="Line 476" y2="7.817" transform="translate(-2749.636 1244.21)" fill="none" stroke="#fff" stroke-linecap="round" stroke-linejoin="round" stroke-width="3"/>
    <line id="Line_477" data-name="Line 477" x2="19.424" y2="77.308" transform="translate(-2730.455 1242.825)" fill="none" stroke="#fff" stroke-linecap="round" stroke-linejoin="round" stroke-width="3"/>
    <circle id="Ellipse_209" data-name="Ellipse 209" cx="14.774" cy="14.774" r="14.774" transform="translate(-2788.334 1242.485)" fill="none" stroke="#fff" stroke-linecap="round" stroke-linejoin="round" stroke-width="3"/>
    <line id="Line_478" data-name="Line 478" x2="15.108" y2="25.387" transform="translate(-2781.372 1244.714)" fill="none" stroke="#fff" stroke-linecap="round" stroke-linejoin="round" stroke-width="3"/>
  </g>
</svg>
