<svg xmlns="http://www.w3.org/2000/svg" width="109.175" height="99.231" viewBox="0 0 109.175 99.231">
  <g id="Layer_35" transform="translate(773.047 -832.1)">
    <path id="Path_1484" data-name="Path 1484" d="M-749.15,1000.749l27.381-9.579,4.833,2.2-26.28,9.672Z" transform="translate(-10.175 -71.712)" fill="#fff"/>
    <circle id="Ellipse_340" data-name="Ellipse 340" cx="5.89" cy="5.89" r="5.89" transform="translate(-746.362 841.424)" fill="#354b9c"/>
    <circle id="Ellipse_341" data-name="Ellipse 341" cx="5.89" cy="5.89" r="5.89" transform="translate(-707.326 837.474)" fill="#354b9c"/>
    <path id="Path_1485" data-name="Path 1485" d="M-633.09,961.889l27.386-9.579,4.828,2.2-26.28,9.672Z" transform="translate(-62.995 -54.026)" fill="#fff"/>
    <g id="Group_82774" data-name="Group 82774" transform="translate(-771.507 838.798)">
      <path id="Path_1486" data-name="Path 1486" d="M-705.241,938.155l-3.623.948-2.256-8.653,1.193,1.564,3.978,5.215Z" transform="translate(744.024 -882.876)" fill="#c5e1f9"/>
      <path id="Path_1487" data-name="Path 1487" d="M-701.9,940.108l-3.923-5.144-3.623.948-2.256-8.653-.7-2.664,4.43-1.155.365,1.013,3.286,9.012.37,1.014Z" transform="translate(744.607 -879.686)" fill="none" stroke="#fff" stroke-linecap="round" stroke-linejoin="round" stroke-width="3"/>
      <circle id="Ellipse_342" data-name="Ellipse 342" cx="8.696" cy="8.696" r="8.696" transform="translate(19.592)" fill="none" stroke="#fff" stroke-linecap="round" stroke-linejoin="round" stroke-width="3"/>
      <path id="Path_1489" data-name="Path 1489" d="M-692.9,919.27l-5.514,1.487v-.049Z" transform="translate(738.239 -877.788)" fill="#c5e1f9" stroke="#fff" stroke-linecap="round" stroke-linejoin="round" stroke-width="3"/>
      <rect id="Rectangle_300" data-name="Rectangle 300" width="12.462" height="9.546" transform="matrix(0.968, -0.252, 0.252, 0.968, 33.209, 45.738)" fill="#354b9c"/>
      <path id="Path_1490" data-name="Path 1490" d="M-691.406,928.237l-12.543,3.275-1.874.485-3.623.948-2.256-8.653-.7-2.664,4.43-1.155,3.193-.834,5.514-1.439,4.9-1.28Z" transform="translate(744.607 -876.718)" fill="none" stroke="#fff" stroke-linecap="round" stroke-linejoin="round" stroke-width="3"/>
      <path id="Path_1491" data-name="Path 1491" d="M-731.677,902.49q.123-5.55.24-11.1l-3.874-3.972v14.7l.441,1.2-4.43,1.155.7,2.664,2.256,8.653,3.623-.948,3.923,5.144h-6.451l5.487,18.221h0s-1.765.719-2.888,1.106a20.632,20.632,0,0,1-3.809.91l-5.574-18.494a3.455,3.455,0,0,1-.065-1.744h-4.027a2.8,2.8,0,0,1-.114.632l-5.416,18.537c-.948-.2-1.945-.447-2.981-.741-1.34-.381-2.588-.8-3.732-1.221l5.018-17.208h-5.58l7.492-17.872V888.013l-3.182,5.411-13.481,5.934c-3.956,0-3.874-2.926-2.692-4.348,1.1-1.313,12.576-5.776,12.576-5.776l5.117-7.541a5.586,5.586,0,0,1,4.632-2.452h10.881a5.593,5.593,0,0,1,3.912,1.6q3.907,3.825,7.819,7.65-.155,6.277-.3,12.565Z" transform="translate(771.507 -859.569)" fill="none" stroke="#fff" stroke-linecap="round" stroke-linejoin="round" stroke-width="3"/>
    </g>
    <g id="Group_82775" data-name="Group 82775" transform="translate(-725.863 833.6)">
      <path id="Path_1492" data-name="Path 1492" d="M-635.081,890.6v19.028H-641.4l-.136-.539-.267-1.013,5.629-1.471V889.31Z" transform="translate(666.832 -858.954)" fill="#c5e1f9"/>
      <path id="Path_1493" data-name="Path 1493" d="M-636.831,937.721v.005l-1.139.294-3.2-12.276-.136-.539.959-.18,1.629-.305.147,1.024L-637,936.577Z" transform="translate(666.609 -875.07)" fill="#fff" stroke="#fff" stroke-linecap="round" stroke-linejoin="round" stroke-width="3"/>
      <circle id="Ellipse_343" data-name="Ellipse 343" cx="8.696" cy="8.696" r="8.696" transform="translate(13.268)" fill="none" stroke="#fff" stroke-linecap="round" stroke-linejoin="round" stroke-width="3"/>
      <path id="Path_1494" data-name="Path 1494" d="M-636.171,921.05v3.024H-641.4l-.136-.539-.267-1.013Z" transform="translate(666.832 -873.399)" fill="none" stroke="#fff" stroke-linecap="round" stroke-linejoin="round" stroke-width="3"/>
      <rect id="Rectangle_301" data-name="Rectangle 301" width="17.208" height="12.031" transform="matrix(0.968, -0.252, 0.252, 0.968, 26.255, 49.93)" fill="#354b9c"/>
      <path id="Path_1496" data-name="Path 1496" d="M-616.141,927.019l-20.913,5.454v.005l-1.139.294-3.2-12.276-.136-.539-.267-1.013,5.629-1.471,1.09-.283,15.328-4Z" transform="translate(666.832 -869.822)" fill="none" stroke="#fff" stroke-linecap="round" stroke-linejoin="round" stroke-width="3"/>
      <path id="Path_1497" data-name="Path 1497" d="M-657.079,897.694l-5.629,1.471.267,1.013.136.539,3.2,12.276,1.139-.294c4,9.77,6.332,15.453,6.332,15.453h0a22.47,22.47,0,0,1-2.85,1.444,15.5,15.5,0,0,1-1.58.545,10.712,10.712,0,0,1-3.634.741l-5.634-14.292V900.718h-1.008l-5.378,14.156V930.6l-4.724.027c-1.793.087-3.732.289-3.732.289V913.13l5.3-12.413V880.557l-5.77,7.04-7.094,2.37v-5.809l5.591-2.888,5.9-9.367a4.668,4.668,0,0,1,3.94-2.174h13.486a3.585,3.585,0,0,1,1.231.507,3.4,3.4,0,0,1,1.063,1.139l7.421,10.053v13.361l-5.138,1.662-.234-12.968-1.515-1.793-1.09-1.291v17.295Z" transform="translate(687.74 -850.043)" fill="none" stroke="#fff" stroke-linecap="round" stroke-linejoin="round" stroke-width="3"/>
    </g>
  </g>
</svg>
