<svg xmlns="http://www.w3.org/2000/svg" width="111.375" height="99.816" viewBox="0 0 111.375 99.816">
  <g id="Layer_39" transform="translate(2442.05 -1226.61)">
    <path id="Path_935" data-name="Path 935" d="M-2272.827,1356.127v25.447l-7.384-4.807h-29.363a2.753,2.753,0,0,1-2.757-2.757v-17.884a2.756,2.756,0,0,1,2.757-2.757h33.99A2.75,2.75,0,0,1-2272.827,1356.127Z" transform="translate(-62.156 -60.722)" fill="#fff"/>
    <line id="Line_449" data-name="Line 449" y2="37.556" transform="translate(-2351.223 1253.939)" fill="none" stroke="#fff" stroke-linecap="round" stroke-linejoin="round" stroke-width="3"/>
    <path id="Path_936" data-name="Path 936" d="M-2347,1250.51h31.522a9.612,9.612,0,0,1,9.558,8.615" transform="translate(-45.349 -10.859)" fill="none" stroke="#fff" stroke-linecap="round" stroke-linejoin="round" stroke-width="3"/>
    <path id="Path_937" data-name="Path 937" d="M-2407.28,1270.136v-10.026a9.609,9.609,0,0,1,9.609-9.609h11.351" transform="translate(-16.128 -10.854)" fill="none" stroke="#fff" stroke-linecap="round" stroke-linejoin="round" stroke-width="3"/>
    <line id="Line_450" data-name="Line 450" y1="6.739" transform="translate(-2423.408 1265.006)" fill="none" stroke="#fff" stroke-linecap="round" stroke-linejoin="round" stroke-width="3"/>
    <path id="Path_938" data-name="Path 938" d="M-2396.919,1356.517h-.752a9.609,9.609,0,0,1-9.609-9.609V1320.28" transform="translate(-16.128 -44.681)" fill="none" stroke="#fff" stroke-linecap="round" stroke-linejoin="round" stroke-width="3"/>
    <line id="Line_451" data-name="Line 451" x1="6.734" transform="translate(-2407.673 1311.836)" fill="none" stroke="#fff" stroke-linecap="round" stroke-linejoin="round" stroke-width="3"/>
    <line id="Line_452" data-name="Line 452" x1="19.285" transform="translate(-2394.668 1311.836)" fill="none" stroke="#fff" stroke-linecap="round" stroke-linejoin="round" stroke-width="3"/>
    <path id="Path_939" data-name="Path 939" d="M-2284.045,1363.45v4.39a9.609,9.609,0,0,1-9.609,9.609h-8.316" transform="translate(-67.179 -65.608)" fill="none" stroke="#fff" stroke-linecap="round" stroke-linejoin="round" stroke-width="3"/>
    <path id="Path_940" data-name="Path 940" d="M-2304.15,1376.145v-12.716a2.659,2.659,0,0,1,2.658-2.658h32.779a2.658,2.658,0,0,1,2.659,2.658v24.541l-7.121-4.632h-28.317a2.659,2.659,0,0,1-2.658-2.659v-4.534" transform="translate(-66.122 -64.309)" fill="#fff" stroke="#354b9c" stroke-width="3"/>
    <path id="Path_941" data-name="Path 941" d="M-2440.55,1243.485v-12.716a2.659,2.659,0,0,1,2.658-2.659h32.78a2.658,2.658,0,0,1,2.658,2.659v24.541l-7.121-4.632h-28.318a2.659,2.659,0,0,1-2.658-2.659v-4.534" fill="#fff" stroke="#fff" stroke-linecap="round" stroke-linejoin="round" stroke-width="3"/>
    <path id="Path_942" data-name="Path 942" d="M-2286.162,1374.5c.083-.005.17-.01.252-.01a3.719,3.719,0,0,1,3.72,3.72,3.718,3.718,0,0,1-3.72,3.72,3.718,3.718,0,0,1-3.72-3.72,3.726,3.726,0,0,1,3.468-3.71" transform="translate(-73.161 -70.96)" fill="#fff" stroke="#354b9c" stroke-linecap="round" stroke-linejoin="round" stroke-width="3"/>
    <path id="Path_943" data-name="Path 943" d="M-2421.452,1243.51c.083-.005.17-.01.252-.01a3.719,3.719,0,0,1,3.72,3.72,3.718,3.718,0,0,1-3.72,3.72,3.718,3.718,0,0,1-3.72-3.72,3.719,3.719,0,0,1,3.468-3.71" transform="translate(-7.577 -7.461)" fill="#354b9c"/>
    <path id="Path_944" data-name="Path 944" d="M-2393.2,1243.51c.083-.005.17-.01.253-.01a3.718,3.718,0,0,1,3.72,3.72,3.718,3.718,0,0,1-3.72,3.72,3.718,3.718,0,0,1-3.72-3.72,3.719,3.719,0,0,1,3.468-3.71" transform="translate(-21.271 -7.461)" fill="#354b9c"/>
    <circle id="Ellipse_186" data-name="Ellipse 186" cx="3.72" cy="3.72" r="3.72" transform="translate(-2348.776 1303.53)" fill="#fff" stroke="#354b9c" stroke-linecap="round" stroke-linejoin="round" stroke-width="3"/>
    <g id="Group_82668" data-name="Group 82668" transform="translate(-2404.308 1262.76)">
      <g id="Group_82666" data-name="Group 82666" transform="translate(0 0)">
        <path id="Path_945" data-name="Path 945" d="M-2351.1,1298.379h-.927a1.047,1.047,0,0,1-1.046-1.046v-.927a1.047,1.047,0,0,1,1.046-1.046h.927a1.047,1.047,0,0,1,1.046,1.046v.927A1.047,1.047,0,0,1-2351.1,1298.379Z" transform="translate(2361.901 -1295.36)" fill="#fff"/>
        <path id="Path_946" data-name="Path 946" d="M-2339.046,1303.049h-.928a1.047,1.047,0,0,1-1.046-1.046v-.927a1.047,1.047,0,0,1,1.046-1.046h.928a1.047,1.047,0,0,1,1.046,1.046V1302A1.047,1.047,0,0,1-2339.046,1303.049Z" transform="translate(2356.06 -1297.624)" fill="#fff"/>
        <path id="Path_947" data-name="Path 947" d="M-2334.667,1314.379h-.927a1.046,1.046,0,0,1-1.046-1.046v-.927a1.046,1.046,0,0,1,1.046-1.046h.927a1.047,1.047,0,0,1,1.046,1.046v.927A1.047,1.047,0,0,1-2334.667,1314.379Z" transform="translate(2353.937 -1303.116)" fill="#fff"/>
        <path id="Path_948" data-name="Path 948" d="M-2334.187,1327.429h-.928a1.047,1.047,0,0,1-1.046-1.046v-.927a1.047,1.047,0,0,1,1.046-1.046h.928a1.047,1.047,0,0,1,1.046,1.046v.927A1.047,1.047,0,0,1-2334.187,1327.429Z" transform="translate(2353.704 -1309.442)" fill="#fff"/>
        <path id="Path_949" data-name="Path 949" d="M-2338.477,1340.479h-.928a1.047,1.047,0,0,1-1.046-1.046v-.927a1.047,1.047,0,0,1,1.046-1.046h.928a1.047,1.047,0,0,1,1.046,1.046v.927A1.047,1.047,0,0,1-2338.477,1340.479Z" transform="translate(2355.783 -1315.768)" fill="#fff"/>
        <path id="Path_950" data-name="Path 950" d="M-2364.3,1303.049h.928a1.046,1.046,0,0,0,1.046-1.046v-.927a1.046,1.046,0,0,0-1.046-1.046h-.928a1.047,1.047,0,0,0-1.046,1.046V1302A1.047,1.047,0,0,0-2364.3,1303.049Z" transform="translate(2367.854 -1297.624)" fill="#fff"/>
        <path id="Path_951" data-name="Path 951" d="M-2368.684,1314.379h.928a1.047,1.047,0,0,0,1.046-1.046v-.927a1.047,1.047,0,0,0-1.046-1.046h-.928a1.046,1.046,0,0,0-1.046,1.046v.927A1.046,1.046,0,0,0-2368.684,1314.379Z" transform="translate(2369.978 -1303.116)" fill="#fff"/>
        <path id="Path_952" data-name="Path 952" d="M-2369.164,1327.429h.927a1.047,1.047,0,0,0,1.046-1.046v-.927a1.047,1.047,0,0,0-1.046-1.046h-.927a1.047,1.047,0,0,0-1.046,1.046v.927A1.047,1.047,0,0,0-2369.164,1327.429Z" transform="translate(2370.21 -1309.442)" fill="#fff"/>
        <path id="Path_953" data-name="Path 953" d="M-2364.874,1340.479h.927a1.047,1.047,0,0,0,1.046-1.046v-.927a1.047,1.047,0,0,0-1.046-1.046h-.927a1.047,1.047,0,0,0-1.046,1.046v.927A1.047,1.047,0,0,0-2364.874,1340.479Z" transform="translate(2368.13 -1315.768)" fill="#fff"/>
        <path id="Path_954" data-name="Path 954" d="M-2350.6,1345.909h-.927a1.047,1.047,0,0,1-1.046-1.046v-.927a1.047,1.047,0,0,1,1.046-1.046h.927a1.047,1.047,0,0,1,1.046,1.046v.927A1.047,1.047,0,0,1-2350.6,1345.909Z" transform="translate(2361.659 -1318.401)" fill="#fff"/>
      </g>
      <g id="Group_82667" data-name="Group 82667" transform="translate(24.984 0.005)">
        <path id="Path_955" data-name="Path 955" d="M-2302.483,1298.384h-1.18a.916.916,0,0,1-.917-.917v-1.18a.916.916,0,0,1,.917-.917h1.18a.916.916,0,0,1,.917.917v1.18A.913.913,0,0,1-2302.483,1298.384Z" transform="translate(2313.411 -1295.37)" fill="#fff"/>
        <path id="Path_956" data-name="Path 956" d="M-2290.433,1303.054h-1.18a.916.916,0,0,1-.917-.917v-1.18a.916.916,0,0,1,.917-.917h1.18a.916.916,0,0,1,.917.917v1.18A.919.919,0,0,1-2290.433,1303.054Z" transform="translate(2307.57 -1297.634)" fill="#fff"/>
        <path id="Path_957" data-name="Path 957" d="M-2286.053,1314.384h-1.18a.916.916,0,0,1-.917-.917v-1.18a.916.916,0,0,1,.917-.917h1.18a.916.916,0,0,1,.917.917v1.18A.916.916,0,0,1-2286.053,1314.384Z" transform="translate(2305.447 -1303.126)" fill="#fff"/>
        <path id="Path_958" data-name="Path 958" d="M-2285.573,1327.434h-1.18a.916.916,0,0,1-.917-.917v-1.18a.916.916,0,0,1,.917-.917h1.18a.916.916,0,0,1,.917.917v1.18A.919.919,0,0,1-2285.573,1327.434Z" transform="translate(2305.214 -1309.452)" fill="#fff"/>
        <path id="Path_959" data-name="Path 959" d="M-2289.863,1340.484h-1.18a.916.916,0,0,1-.917-.917v-1.18a.916.916,0,0,1,.917-.917h1.18a.916.916,0,0,1,.917.917v1.18A.913.913,0,0,1-2289.863,1340.484Z" transform="translate(2307.293 -1315.778)" fill="#fff"/>
        <path id="Path_960" data-name="Path 960" d="M-2315.943,1303.054h1.18a.916.916,0,0,0,.917-.917v-1.18a.916.916,0,0,0-.917-.917h-1.18a.916.916,0,0,0-.917.917v1.18A.913.913,0,0,0-2315.943,1303.054Z" transform="translate(2319.364 -1297.634)" fill="#fff"/>
        <path id="Path_961" data-name="Path 961" d="M-2320.333,1314.384h1.18a.916.916,0,0,0,.917-.917v-1.18a.916.916,0,0,0-.917-.917h-1.18a.916.916,0,0,0-.917.917v1.18A.919.919,0,0,0-2320.333,1314.384Z" transform="translate(2321.492 -1303.126)" fill="#fff"/>
        <path id="Path_962" data-name="Path 962" d="M-2320.8,1327.434h1.18a.916.916,0,0,0,.917-.917v-1.18a.916.916,0,0,0-.917-.917h-1.18a.916.916,0,0,0-.917.917v1.18A.912.912,0,0,0-2320.8,1327.434Z" transform="translate(2321.72 -1309.452)" fill="#fff"/>
        <path id="Path_963" data-name="Path 963" d="M-2316.523,1340.484h1.18a.916.916,0,0,0,.917-.917v-1.18a.916.916,0,0,0-.917-.917h-1.18a.916.916,0,0,0-.917.917v1.18A.919.919,0,0,0-2316.523,1340.484Z" transform="translate(2319.645 -1315.778)" fill="#fff"/>
        <path id="Path_964" data-name="Path 964" d="M-2301.983,1345.914h-1.18a.916.916,0,0,1-.917-.917v-1.18a.916.916,0,0,1,.917-.917h1.18a.916.916,0,0,1,.917.917V1345A.919.919,0,0,1-2301.983,1345.914Z" transform="translate(2313.169 -1318.411)" fill="#fff"/>
      </g>
    </g>
  </g>
</svg>
