<svg xmlns="http://www.w3.org/2000/svg" width="166.369" height="91.843" viewBox="0 0 166.369 91.843">
  <g id="Layer_34" transform="translate(1567.323 -843.91)">
    <path id="Path_921" data-name="Path 921" d="M-1391.557,909.97v23.486h-31.874a22.825,22.825,0,0,0,3.232-11.743,22.825,22.825,0,0,0-3.232-11.743h31.874Z" transform="translate(-50.121 -22.488)" fill="none" stroke="#fff" stroke-linecap="round" stroke-linejoin="round" stroke-width="3"/>
    <path id="Path_922" data-name="Path 922" d="M-1440.647,851.034h0a5.619,5.619,0,0,1-5.617,5.624h-9.534v23.447a22.976,22.976,0,0,1,7.031,7.377,22.824,22.824,0,0,1,3.232,11.743,22.825,22.825,0,0,1-3.232,11.743,22.928,22.928,0,0,1-19.72,11.2,22.954,22.954,0,0,1-19.876-11.463,22.906,22.906,0,0,1-3.069-11.483,22.823,22.823,0,0,1,3.389-12,22.97,22.97,0,0,1,6.875-7.116V856.658h-9.378a5.625,5.625,0,0,1-5.624-5.624h0a5.625,5.625,0,0,1,5.624-5.624h44.281A5.628,5.628,0,0,1-1440.647,851.034Z" transform="translate(-24.784)" fill="none" stroke="#fff" stroke-linecap="round" stroke-linejoin="round" stroke-width="3"/>
    <rect id="Rectangle_232" data-name="Rectangle 232" width="58.52" height="11.241" transform="translate(-1430.435 868.877) rotate(90)" fill="none" stroke="#fff" stroke-linecap="round" stroke-linejoin="round" stroke-width="3"/>
    <path id="Path_923" data-name="Path 923" d="M-1504.111,921.574a22.9,22.9,0,0,0,3.07,11.483h-31.528V909.57h31.847A22.82,22.82,0,0,0-1504.111,921.574Z" transform="translate(-12.105 -22.349)" fill="none" stroke="#fff" stroke-linecap="round" stroke-linejoin="round" stroke-width="3"/>
    <rect id="Rectangle_233" data-name="Rectangle 233" width="58.52" height="11.241" transform="translate(-1544.676 868.609) rotate(90)" fill="none" stroke="#fff" stroke-linecap="round" stroke-linejoin="round" stroke-width="3"/>
    <circle id="Ellipse_178" data-name="Ellipse 178" cx="3.91" cy="3.91" r="3.91" transform="translate(-1513.786 895.921)" fill="#fff"/>
    <circle id="Ellipse_179" data-name="Ellipse 179" cx="1.127" cy="1.127" r="1.127" transform="translate(-1487.745 909.9)" fill="#fff"/>
    <circle id="Ellipse_180" data-name="Ellipse 180" cx="1.127" cy="1.127" r="1.127" transform="translate(-1491.329 899.473)" fill="#fff"/>
    <circle id="Ellipse_181" data-name="Ellipse 181" cx="1.127" cy="1.127" r="1.127" transform="translate(-1504.148 889.809)" fill="#fff"/>
    <circle id="Ellipse_182" data-name="Ellipse 182" cx="1.662" cy="1.662" r="1.662" transform="translate(-1482.323 907.117)" fill="#fff"/>
    <circle id="Ellipse_183" data-name="Ellipse 183" cx="2.235" cy="2.235" r="2.235" transform="translate(-1479.801 897.257)" fill="#fff"/>
    <circle id="Ellipse_184" data-name="Ellipse 184" cx="4.119" cy="4.119" r="4.119" transform="translate(-1497.312 885.247)" fill="#fff"/>
    <circle id="Ellipse_185" data-name="Ellipse 185" cx="5.011" cy="5.011" r="5.011" transform="translate(-1504.148 903.233)" fill="#fff"/>
    <path id="Path_924" data-name="Path 924" d="M-1524.415,867.907c-.26-1.994-.932-3.024-2.326-3.317-3.877-.821-5.676-3.819-4.555-7.625a2.684,2.684,0,0,0-.926-3.1,21.989,21.989,0,0,0-5.617-3.311c-1.609-.652-2.385-.521-3.545.73a5.484,5.484,0,0,1-2.7,1.772,5.694,5.694,0,0,1-6.041-1.733c-1.18-1.3-2.007-1.427-3.63-.756a21.1,21.1,0,0,0-4.966,2.815,2.62,2.62,0,0,0-1.042,3.467,5.667,5.667,0,0,1-4.731,7.546,2.558,2.558,0,0,0-2.359,2.072,17.149,17.149,0,0,0-.156,7.214,2.543,2.543,0,0,0,2.5,2.379,5.677,5.677,0,0,1,4.451,7.9,2.494,2.494,0,0,0,.821,3.265,21.429,21.429,0,0,0,5.6,3.311,2.61,2.61,0,0,0,3.526-.834,6.151,6.151,0,0,1,2.007-1.727,5.6,5.6,0,0,1,6.8,1.245c.684.723,1.3,1.551,2.463,1.414a3.053,3.053,0,0,0,.919-.124,21.541,21.541,0,0,0,5.676-3.4,2.386,2.386,0,0,0,.814-3.1,5.715,5.715,0,0,1,4.49-7.761,2.616,2.616,0,0,0,2.327-2.34A19.551,19.551,0,0,0-1524.415,867.907Zm-21.381,9.808c-3.845.215-7.227-3.33-7.227-7.155a7.421,7.421,0,0,1,7.364-7.286,7.446,7.446,0,0,1,7.129,7.312C-1538.582,874.378-1541.873,877.917-1545.8,877.715Z" transform="translate(0 -1.657)" fill="#fff"/>
    <path id="Path_925" data-name="Path 925" d="M-1530.887,877.591c-.052,3.793-3.343,7.331-7.266,7.129-3.845.215-7.227-3.33-7.227-7.155a7.421,7.421,0,0,1,7.364-7.286A7.446,7.446,0,0,1-1530.887,877.591Z" transform="translate(-7.643 -8.662)" fill="#fff" stroke="#354b9c" stroke-linecap="round" stroke-linejoin="round" stroke-width="3"/>
    <path id="Path_926" data-name="Path 926" d="M-1400.644,892.3c-.091-.684-.319-1.036-.795-1.141a1.92,1.92,0,0,1-1.557-2.613.918.918,0,0,0-.319-1.062,7.625,7.625,0,0,0-1.922-1.134.89.89,0,0,0-1.219.254,1.875,1.875,0,0,1-.925.606,1.94,1.94,0,0,1-2.066-.593.9.9,0,0,0-1.245-.261,7.306,7.306,0,0,0-1.7.964.9.9,0,0,0-.358,1.186,1.941,1.941,0,0,1-1.616,2.587.876.876,0,0,0-.808.71,5.871,5.871,0,0,0-.052,2.476.868.868,0,0,0,.854.815,1.944,1.944,0,0,1,1.525,2.711.848.848,0,0,0,.28,1.114,7.256,7.256,0,0,0,1.922,1.134.9.9,0,0,0,1.212-.287,2.113,2.113,0,0,1,.684-.586,1.917,1.917,0,0,1,2.333.43c.235.248.443.528.841.482a.889.889,0,0,0,.313-.046,7.159,7.159,0,0,0,1.942-1.167.827.827,0,0,0,.28-1.062,1.956,1.956,0,0,1,1.538-2.659.9.9,0,0,0,.8-.8A7.026,7.026,0,0,0-1400.644,892.3Zm-7.331,3.363a2.478,2.478,0,0,1-2.476-2.45,2.549,2.549,0,0,1,2.522-2.5,2.549,2.549,0,0,1,2.437,2.509A2.472,2.472,0,0,1-1407.975,895.661Z" transform="translate(-52.94 -14.214)" fill="#fff"/>
    <rect id="Rectangle_234" data-name="Rectangle 234" width="64.516" height="34.285" transform="translate(-1466.969 900.027)" fill="#354b9c"/>
    <path id="Path_927" data-name="Path 927" d="M-1383.118,969.326h-32.232V946.1" transform="translate(-52.936 -35.073)" fill="none" stroke="#fff" stroke-linecap="round" stroke-linejoin="round" stroke-width="3"/>
    <line id="Line_447" data-name="Line 447" x1="5.474" transform="translate(-1430.997 934.253)" fill="none" stroke="#fff" stroke-linecap="round" stroke-linejoin="round" stroke-width="3"/>
    <path id="Path_928" data-name="Path 928" d="M-1333.8,929.03h9.645v34.35h-18.377" transform="translate(-78.301 -29.127)" fill="none" stroke="#fff" stroke-linecap="round" stroke-linejoin="round" stroke-width="3"/>
    <line id="Line_448" data-name="Line 448" x2="35.608" transform="translate(-1457.611 899.903)" fill="none" stroke="#fff" stroke-linecap="round" stroke-linejoin="round" stroke-width="3"/>
    <g id="Group_82664" data-name="Group 82664" transform="translate(-1463.04 907.801)">
      <path id="Path_929" data-name="Path 929" d="M-1374.828,960.025h-24.6a1.555,1.555,0,0,1-1.551-1.551V948.151a1.588,1.588,0,0,1,1.59-1.59h15.829a.508.508,0,0,1,.169.026l6.843,2.287,11.945-5.885a.023.023,0,0,0,.013-.006l2.985-1.473a.542.542,0,0,1,.567.059l6.334,5.044a.529.529,0,0,1,.085.743.529.529,0,0,1-.743.085l-6.067-4.835-2.555,1.258-9.189,15.217A1.93,1.93,0,0,1-1374.828,960.025Zm-24.555-12.4a.53.53,0,0,0-.528.528v10.323a.488.488,0,0,0,.489.489h24.6a.877.877,0,0,0,.749-.424l8.335-13.8-10.525,5.181a.54.54,0,0,1-.4.026l-6.966-2.327h-15.751Z" transform="translate(1405.099 -941.257)" fill="#fff"/>
      <path id="Path_930" data-name="Path 930" d="M-1387.372,947.186a.512.512,0,0,1-.528-.5V941.65a.513.513,0,0,1,.528-.5.513.513,0,0,1,.528.5v5.035A.513.513,0,0,1-1387.372,947.186Z" transform="translate(1400.542 -941.15)" fill="#fff"/>
      <path id="Path_931" data-name="Path 931" d="M-1385.506,942.206h-8.016a.526.526,0,0,1-.528-.528.526.526,0,0,1,.528-.528h8.016a.526.526,0,0,1,.528.528A.526.526,0,0,1-1385.506,942.206Z" transform="translate(1402.685 -941.15)" fill="#fff"/>
      <path id="Path_932" data-name="Path 932" d="M-1406.772,950.072a.508.508,0,0,1-.372-.156.527.527,0,0,1,0-.75l5.669-5.67a.527.527,0,0,1,.75,0,.528.528,0,0,1,0,.749l-5.67,5.67A.533.533,0,0,1-1406.772,950.072Z" transform="translate(1407.3 -941.913)" fill="#fff"/>
      <path id="Path_933" data-name="Path 933" d="M-1329.519,953.73s-2.327,4.471-2.4,4.9a2.19,2.19,0,0,0,.547,1.584,2.613,2.613,0,0,0,1.916.88,2.447,2.447,0,0,0,1.988-.925,2.229,2.229,0,0,0,.391-1.284C-1327.9,957.164-1328.71,955.45-1329.519,953.73Z" transform="translate(1381.047 -945.532)" fill="#fff"/>
    </g>
  </g>
</svg>
