<svg xmlns="http://www.w3.org/2000/svg" width="67.549" height="73.958" viewBox="0 0 67.549 73.958">
  <path id="Path_1" data-name="Path 1" d="M-157.042-1.179a2.383,2.383,0,0,1-.785-.134,4.549,4.549,0,0,1-2.338-2.828l-.03-.083a27.8,27.8,0,0,0-1.763-4.183,15.727,15.727,0,0,1-2.18-3.9l-.039-.1-.022-.107a25.083,25.083,0,0,0-1.3-4.356,26.383,26.383,0,0,1-2.038-4.944l-.014-.049-.09-.355c-.387-1.514-.786-3.079-1.09-4.646a10.153,10.153,0,0,1-.186-2.518l.013-.129a7.18,7.18,0,0,0,.05-1.737q-.045-.192-.075-.386-.059.077-.119.153l-.052.061a3.579,3.579,0,0,1-2.494,1.176,3.586,3.586,0,0,1-2.6-.933,3.646,3.646,0,0,1-.326-.338l-.07-.09a8.431,8.431,0,0,0-.964-1.135c-.056-.041-.117-.083-.18-.126a2.9,2.9,0,0,1-1.517-2.216,1.721,1.721,0,0,1,.155-.806,5.468,5.468,0,0,1-1.219-1.144,2.518,2.518,0,0,1-.193-2.933,3.241,3.241,0,0,1,3.227-1.463l.174.043a1.5,1.5,0,0,0,.418.073c.046-.016.119-.046.176-.07a3.58,3.58,0,0,1,.708-.228,2.674,2.674,0,0,1,.8-.033,4.589,4.589,0,0,1-.172-.809c0-.03-.009-.064-.014-.1l-.037-.008a2.015,2.015,0,0,1-1.735-1.582,3.878,3.878,0,0,1-.11-.99v-.025a2.473,2.473,0,0,1-.708-2.94,4.73,4.73,0,0,1,1.609-2.286l.057-.042a1.739,1.739,0,0,1,2.421.137l.052-.021a3.824,3.824,0,0,1,.992-.3l.04,0a3.26,3.26,0,0,0,.241-.49l.039-.1.054-.091a7.228,7.228,0,0,1,1.748-2,4.211,4.211,0,0,0,.872-1.307,3.269,3.269,0,0,1,.98-1.261l.067-.049a2.463,2.463,0,0,1,.324-.185,2.16,2.16,0,0,1,.18-.628l.04-.086.052-.079a5.86,5.86,0,0,1,.86-1.026.58.58,0,0,0,.155-.413,2.541,2.541,0,0,1,.309-2.084,10.65,10.65,0,0,1-1.921-1.85l-.094-.117-.065-.135a6.776,6.776,0,0,1-.657-2.432,3.641,3.641,0,0,1,.2-2.749l.05-.1.066-.09a2.313,2.313,0,0,1,.349-.376,3.471,3.471,0,0,1-.6-.361l-.083-.067a2.1,2.1,0,0,1-.437-.553,1.7,1.7,0,0,1-1.166-.6,1.888,1.888,0,0,1-.361-1.446c.223-2.088,2.043-2.622,3.131-2.941.262-.077.511-.15.708-.229l.054-.022c1.38-.554,3.463-1.391,5.18.61a3.849,3.849,0,0,0,1.124.854l.075.041a3.066,3.066,0,0,1,1.806,2.267,2.949,2.949,0,0,0,1.366-.373c.117-.063.237-.13.358-.2,1.139-.638,3.044-1.706,4.843-.246a3.435,3.435,0,0,1,.507,4.775l-.1.112a2.663,2.663,0,0,0-.351.438v.007a2.336,2.336,0,0,1-.283.966,2.409,2.409,0,0,1-.99.917l.049.053c1.276,1.375,1.372,2.585.286,3.6a2.361,2.361,0,0,1-1.435.659,4.461,4.461,0,0,1,.068.753c0,.079.005.186.012.261.115.033.3.066.439.089.119.02.238.041.354.065a3.2,3.2,0,0,1,2.229,1.514l.037.065a.236.236,0,0,0,.03.043l.034.007a2.345,2.345,0,0,1,.974.414c1.708,1.281.459,3.1-.011,3.789a5.2,5.2,0,0,0-.432.7c.107.291,1.113.711,1.555.9a9.544,9.544,0,0,1,1.083.5c.34.2.653.41.956.617a8.39,8.39,0,0,0,1.083.667c.2.093.328.081.807-.009a5.3,5.3,0,0,1,1.264-.121,3.816,3.816,0,0,1,2.708,1.369l.106.148.123.2c.052.086.114.189.155.25a1.964,1.964,0,0,0,.2.049,17.634,17.634,0,0,0,2.181.175l.1,0,.1.016a18.118,18.118,0,0,1,2.165.5c-.008-.146-.02-.3-.03-.414a4.885,4.885,0,0,1,.063-1.724l.008-.026a2.805,2.805,0,0,1,1.763-1.827,2.013,2.013,0,0,1,2,.191,2.484,2.484,0,0,1,.849,2.31c-.009.111-.021.215-.033.313a2.539,2.539,0,0,0,1.29.123l.165-.016a7.751,7.751,0,0,1,1.366.1c.258.036.505.071.731.08a1.613,1.613,0,0,1-.116-1.121c.291-1.107,1.582-1.457,2.124-1.556a2.833,2.833,0,0,1,.35-.039,1.851,1.851,0,0,1,.38-.422,2.5,2.5,0,0,1,.726-.388l.009,0,.026-.046a2.612,2.612,0,0,1,.6-.744,2.334,2.334,0,0,1,1.35-.483l.052-.12a2.474,2.474,0,0,1,1.736-1.623,2.714,2.714,0,0,1,1.875.283c.063.029.142.066.2.091.059-.037.131-.084.185-.121a2.457,2.457,0,0,1,1.876-.529,1.706,1.706,0,0,1,1.429,1.661,1.494,1.494,0,0,1,.619.982,2.449,2.449,0,0,1,1.72,1.488l-1.083.427,1.138-.252v0l-.29.091.3-.061a2.207,2.207,0,0,1-.567,1.905l-.063.079c0,.017,0,.035,0,.054l0,.063a1.706,1.706,0,0,1-1.473,2.025,1.944,1.944,0,0,1-.995-.113l-.084.065c-.131.1-.258.21-.386.318-.183.155-.373.316-.584.474l-.139.091c-.223.126-.443.262-.655.406-.018.091-.031.237-.042.342-.015.155-.03.309-.055.457a3.485,3.485,0,0,1-.857,1.725,3.585,3.585,0,0,0-.231.305,2.633,2.633,0,0,1,.042.63l-.016.133a4.014,4.014,0,0,1-.537,1.424l-.067.133a2.832,2.832,0,0,1-1.911,1.758,3.406,3.406,0,0,1-.2,1.042l-.029.076a2.461,2.461,0,0,1-.465.692c.011.043.023.088.033.125a2.892,2.892,0,0,1,.062,1.657,1.969,1.969,0,0,1-1.662,1.445,2.108,2.108,0,0,1-2.025-1.156l-.045-.082-.033-.087a5.058,5.058,0,0,1-.256-.968,3.447,3.447,0,0,0-.157-.328,1.612,1.612,0,0,1-1.039.1,2.078,2.078,0,0,1-1.367-1.538c-.019-.055-.036-.108-.054-.153-.032-.077-.07-.153-.105-.228a2.667,2.667,0,0,1-.248-2.1,2.535,2.535,0,0,1,1.317-1.518,11.364,11.364,0,0,1-1.5,0l-.118-.009a4.3,4.3,0,0,1-2.705-.825c-.023.03-.048.059-.073.088a1.705,1.705,0,0,1-.49.383,1.919,1.919,0,0,1,.42,2.4,3.332,3.332,0,0,1,.38.65l.048.112.027.119a8.494,8.494,0,0,1,.2,2.15c.025.09.069.222.1.318a2.883,2.883,0,0,1-.1,2.718,2.768,2.768,0,0,1-2.718.749c-.088-.011-.169-.022-.24-.027a4.207,4.207,0,0,1-1.017-.212c-.254-.079-.254-.08-.33-.053a3.483,3.483,0,0,0-.348.136c-.016.137-.021.271-.025.423a3.125,3.125,0,0,1-.865,2.293,8.331,8.331,0,0,1-2.42,1.626,8.2,8.2,0,0,0-1.468.868,6.2,6.2,0,0,0-1.254,1.389l-.041.059a5.283,5.283,0,0,1-1.718,1.49,4.2,4.2,0,0,0-.446.427,5.608,5.608,0,0,1-.936.832c-.184.124-.371.227-.552.328a2.991,2.991,0,0,0-.577.371c-.023.071-.04.145-.06.229a2.043,2.043,0,0,1-1.622,1.7,5.053,5.053,0,0,1-.692.135c-.064.009-.144.02-.2.031l-.032.045a2.685,2.685,0,0,1-1.992,1.359l-.111.018a4.294,4.294,0,0,0,0,1.665l.021.108,0,.11a8.538,8.538,0,0,0,.113,1.014c.055.367.112.747.135,1.161a6.541,6.541,0,0,1-.482,2.849l-.077.155a3.566,3.566,0,0,0-.478,1.709c.009.1.025.219.042.346A3.722,3.722,0,0,1-150.809-7a1.834,1.834,0,0,1-1.395.77,3.613,3.613,0,0,0-.263.47h0a1.731,1.731,0,0,1-1.376,1.988l-.185.055c-.109.032-.249.073-.335.106-.029.093-.049.172-.068.246a2.6,2.6,0,0,1-1.313,1.825A2.616,2.616,0,0,1-157.042-1.179Zm-.693-3.9a3.6,3.6,0,0,0,.718,1.267l.012-.007c.017-.054.039-.139.057-.206.035-.132.072-.273.121-.426a2.516,2.516,0,0,1,1.77-1.675,2.231,2.231,0,0,1,.174-.611,6.2,6.2,0,0,1,.926-1.494l.1-.116.121-.091a1.889,1.889,0,0,1,.771-.342c-.014-.211-.046-.454-.066-.6-.026-.2-.051-.385-.062-.564l0-.046v-.046A6.17,6.17,0,0,1-152.318-13a3.933,3.933,0,0,0,.261-1.641c-.016-.294-.061-.6-.11-.919a11.335,11.335,0,0,1-.137-1.221,6.874,6.874,0,0,1,.053-2.729l.026-.1a2.589,2.589,0,0,1,2.131-1.813c.073-.016.121-.028.152-.037.046-.06.117-.162.178-.249l.062-.089a2.565,2.565,0,0,1,1.943-1.078c.067-.009.129-.018.186-.028.025-.1.056-.206.1-.326A3.391,3.391,0,0,1-145.705-25c.139-.077.269-.149.36-.21a3.51,3.51,0,0,0,.507-.471,5.7,5.7,0,0,1,.9-.808l.141-.084a2.668,2.668,0,0,0,.893-.751,8.79,8.79,0,0,1,1.755-1.935,10.2,10.2,0,0,1,1.941-1.177,6.225,6.225,0,0,0,1.7-1.086c.141-.15.147-.156.161-.6a6.454,6.454,0,0,1,.07-.838,2.708,2.708,0,0,1,2.049-2.092,2.86,2.86,0,0,1,1.963.026,1.871,1.871,0,0,0,.43.1c.117.009.239.023.371.04l.047.006-.024-.073a4.958,4.958,0,0,1-.225-.846l-.018-.127.007-.128a5.892,5.892,0,0,0-.1-1.457c-.03-.047-.071-.1-.113-.158a2.072,2.072,0,0,1-.424-2.021c-1.635-.618-1.6-1.731-1.424-2.36a1.653,1.653,0,0,1,1.2-1.2,2.184,2.184,0,0,1-.193-.258,2.174,2.174,0,0,1-.315-.819,3.113,3.113,0,0,1-.941-.065l-.135-.036a15.489,15.489,0,0,0-2.132-.529,20.2,20.2,0,0,1-2.44-.2l-.06-.01a2.689,2.689,0,0,1-2.124-1.52l-.055-.092a1.192,1.192,0,0,0-.79-.37,3.057,3.057,0,0,0-.645.08,3.605,3.605,0,0,1-2.4-.2,10.423,10.423,0,0,1-1.437-.87c-.274-.187-.532-.364-.786-.51a7.873,7.873,0,0,0-.786-.357c-1.22-.51-3.063-1.28-3.161-3.207a3.729,3.729,0,0,1,.894-2.263c.062-.09.136-.2.2-.3a2.171,2.171,0,0,1-.261-.113l-.07-.039A2.824,2.824,0,0,1-152.209-56a.605.605,0,0,0-.417-.268l-.073-.013c-.094-.02-.191-.036-.288-.053a2.81,2.81,0,0,1-2.4-1.591,3.4,3.4,0,0,1-.219-1.254,1.821,1.821,0,0,0-.029-.36c-.027-.058-.061-.111-.092-.165a2.263,2.263,0,0,1-.344-1.792,1.984,1.984,0,0,1,.47-.872l.166-.152a1.49,1.49,0,0,1,1.209-.414,2.206,2.206,0,0,1-.513-2.2,2.465,2.465,0,0,1,1.394-1.4l.068-.033a2.454,2.454,0,0,1,.129-.564l.034-.094.048-.087a5.278,5.278,0,0,1,.8-1.089.836.836,0,0,0-.15-1.118c-.324-.263-.7-.166-1.911.511-.134.076-.266.149-.4.219a4.546,4.546,0,0,1-3.838.4,2.4,2.4,0,0,1-1.318-1.815.745.745,0,0,0-.051-.2,3.715,3.715,0,0,0-.486-.312,6.45,6.45,0,0,1-1.859-1.428l-.025-.028c-.423-.5-.644-.538-2.24.1l-.055.022c-.314.126-.634.22-.945.311a8.387,8.387,0,0,0-.823.275c.047.032.094.066.14.1a2.131,2.131,0,0,1,.56.728.884.884,0,0,0,.155.059l.117.038c.058.022.126.043.2.066a2.644,2.644,0,0,1,1.72,1.224,1.794,1.794,0,0,1,.046,1.424,2.634,2.634,0,0,1-1.331,1.341c-.06.034-.14.078-.2.116a1.032,1.032,0,0,0,.033.666l.079.2.011.216a4.193,4.193,0,0,0,.353,1.5,8.049,8.049,0,0,0,1.342,1.27c.049.008.118.016.168.022a2.3,2.3,0,0,1,1.583.716,1.645,1.645,0,0,1,.4,1.513,2.046,2.046,0,0,1-1.442,1.323l-.031.011q.012.064.029.146l.02.125a3.177,3.177,0,0,1-.9,2.574l-.039.038a3.221,3.221,0,0,0-.37.411,2.328,2.328,0,0,1-.2.816,1.988,1.988,0,0,1-1.161,1.03l-.054.021a.642.642,0,0,0-.139.2,6.774,6.774,0,0,1-1.48,2.172l-.121.105a4.631,4.631,0,0,0-1.119,1.238,5.858,5.858,0,0,1-.826,1.4l-.092.116-.116.093a1.911,1.911,0,0,1-1.245.408c-.022,0-.045,0-.069,0s-.206.079-.317.125a2.351,2.351,0,0,1-2.341,0,2.14,2.14,0,0,0-.31.606c-.024.075-.041.132-.052.176a2.313,2.313,0,0,1,.888,1.968c0,.032,0,.061,0,.088.094.023.2.052.309.089a2.344,2.344,0,0,1,1.559,2.144,2.333,2.333,0,0,0,.073.381,3.036,3.036,0,0,0,.15.32,1.933,1.933,0,0,1-.584,2.747,2.318,2.318,0,0,1-2.158.361c-.165-.045-.173-.044-.2-.039s-.136.049-.21.08a3.364,3.364,0,0,1-.85.253l-.13.011a4.1,4.1,0,0,1-1.28-.159.665.665,0,0,0-.484.229l.008.011a2.845,2.845,0,0,0,1.233.905,2.191,2.191,0,0,0,.549-.222,5.26,5.26,0,0,1,1.036-.412l.973-.247.486.878a1.428,1.428,0,0,1,.114,1.117c-.211.69-.83,1.112-1.975,1.7-.053.027-.1.048-.122.063l-.036.02.092.069.11.1a11.045,11.045,0,0,1,1.294,1.5c.02.022.041.042.062.061a.99.99,0,0,0,.721.259.992.992,0,0,0,.669-.3,4.429,4.429,0,0,0,.737-1.389l.037-.1c.907-2.188,2.368-1.936,2.794-1.807a1.955,1.955,0,0,1,1.2.968,3.092,3.092,0,0,1,0,2.354,2.471,2.471,0,0,0-.027,1.331l.024.093.01.1a9.794,9.794,0,0,1-.047,2.413,7.559,7.559,0,0,0,.142,1.82c.291,1.5.681,3.029,1.058,4.507l.084.33a23.779,23.779,0,0,0,1.861,4.49l.062.131a27.67,27.67,0,0,1,1.443,4.771,13.118,13.118,0,0,0,1.841,3.237l.07.09.053.1A30.414,30.414,0,0,1-157.735-5.078Zm5.236-.61v0Zm-.479-2.73ZM-126.16-37.73Zm2.413-1.8.065.029a1.934,1.934,0,0,1,.992,1.521l.036-.04.042-.045a.8.8,0,0,0,.01-.27l-.01-.112c-.066-1.389.487-2.065,1.791-2.192.061-.006.128-.012.2-.021.058-.087.141-.254.2-.382.034-.068.068-.138.1-.208l.061-.107a1.431,1.431,0,0,0,.179-.408c0-.012,0-.023-.006-.035A2.207,2.207,0,0,1-120-43.009a4.02,4.02,0,0,1,.707-1.143c.215-.266.287-.363.309-.5.015-.093.023-.191.033-.289a2.873,2.873,0,0,1,.815-1.984l.135-.11c.316-.224.645-.436.981-.629.129-.1.26-.211.4-.328s.263-.223.4-.33a2.47,2.47,0,0,1,1.631-.708,1.7,1.7,0,0,1,.174-.455,1.543,1.543,0,0,1-1.2-.588,1.507,1.507,0,0,1-.318-1.279,1.79,1.79,0,0,1-.269-.357,2.261,2.261,0,0,1-.825.237,2.957,2.957,0,0,1-1.544-.35l-.1-.045-.026.06a3.248,3.248,0,0,1-.641,1.036,2.265,2.265,0,0,1-1.529.638,2.508,2.508,0,0,1-.652.769,2.511,2.511,0,0,1-.621.33,1.811,1.811,0,0,1-.509.6,1.918,1.918,0,0,1-.483.257,2.047,2.047,0,0,1,.071,1.083c-.314,1.662-2.359,1.743-3.129,1.773l-.078,0a7.7,7.7,0,0,1-1.408-.1,6.345,6.345,0,0,0-.844-.083h-.007l-.148.019.044.042.021.021a1.681,1.681,0,0,1,.4,1.619c.146.017.321.034.531.049l.138.011a10.221,10.221,0,0,0,1.3-.009c.274-.013.548-.026.82-.029a3.288,3.288,0,0,1,2.581.816,1.7,1.7,0,0,1,.374,1.424l-.037.2-.1.182a5.928,5.928,0,0,1-.527.814l-.01.018A2.354,2.354,0,0,1-123.747-39.535Zm-52.538.853Zm45.42-.124v0Zm-44.123-6.284Zm52.683-3.883Zm1.257-1.143Zm.278-.179Zm-28.58-1.966Zm-.972-2.379h0Zm-13.377-1.1Zm.626-4.131Z" transform="translate(178.886 75.136)" fill="#fff" style="mix-blend-mode: normal;isolation: isolate"/>
</svg>
