<svg xmlns="http://www.w3.org/2000/svg" width="41.04" height="21.381" viewBox="0 0 41.04 21.381">
  <path id="Path_2081" data-name="Path 2081" d="M47.23,27a4.07,4.07,0,0,1-.44-.18,2.76,2.76,0,0,0-.39-.18,4.3,4.3,0,0,1-2.51-2.14,19.811,19.811,0,0,0-1.07-1.77c-.26-.4-.54-.81-.79-1.23A4.63,4.63,0,0,0,37.62,19H25.7a4.7,4.7,0,0,0-4,2c-.95,1.28-2,2.66-3.09,4a3.05,3.05,0,0,1-1.4.91c-1.16.36-2.36.68-3.52,1l-1.64.45a3.56,3.56,0,0,0-2.9,3.94v1.72a3.57,3.57,0,0,0,3.41,3.86,1.44,1.44,0,0,1,1,.7,4.34,4.34,0,0,0,4.14,2.78h.06a4.41,4.41,0,0,0,4.15-2.71A1.51,1.51,0,0,1,23,36.9H35.86a1.41,1.41,0,0,1,1.09.7,4.33,4.33,0,0,0,4.15,2.77h0a4.4,4.4,0,0,0,4.16-2.72,1.46,1.46,0,0,1,1-.74c2.69-.24,3.84-1.48,3.84-4.14V32.4a5.079,5.079,0,0,1,0-.78A4.07,4.07,0,0,0,47.23,27ZM20,38.21a3.22,3.22,0,0,1-2.25.91h-.08a3.23,3.23,0,0,1,.08-6.46h0a3.23,3.23,0,0,1,2.27,1,3.27,3.27,0,0,1,0,4.59Zm23.47,0a3.21,3.21,0,0,1-2.29.95h0a3.27,3.27,0,0,1-3.21-3.18,3.13,3.13,0,0,1,.92-2.28,3.35,3.35,0,0,1,2.31-1h0a3.26,3.26,0,0,1,2.29,1,3.2,3.2,0,0,1,1,2.29,3.15,3.15,0,0,1-1.05,2.18Zm4.47-2.91a2,2,0,0,1-1.08.38,1.16,1.16,0,0,1-.42-.07,1.77,1.77,0,0,1-1-1.17,4.41,4.41,0,0,0-4.2-3,4.54,4.54,0,0,0-2.62.8,4.61,4.61,0,0,0-1.65,2.21c-.07.22-.14.44-.22.66l-.15.45H23.29A1.11,1.11,0,0,1,22,34.69a4.37,4.37,0,0,0-4.26-3.26h0a4.34,4.34,0,0,0-4.32,3.27,1.24,1.24,0,0,1-.6.86,1,1,0,0,1-.88-.1,4.75,4.75,0,0,1-1.3-1.17,1.53,1.53,0,0,1-.25-.91c-.1-4-.11-4.23,3.4-5.12.48-.12,1-.26,1.46-.41.73-.2,1.49-.43,2.25-.59a3.38,3.38,0,0,0,2.22-1.47c.6-.85,1.25-1.7,1.88-2.51l1.17-1.52a3.47,3.47,0,0,1,2.95-1.47H37.88a3.31,3.31,0,0,1,3,1.64L41.53,23c.6,1,1.24,2,1.91,3a4.61,4.61,0,0,0,1.41,1.21,14.7,14.7,0,0,0,1.69.83c.25.1.51.21.75.33l.13.06a2.16,2.16,0,0,1,.34.17c.94.54,1.29,2.07,1.31,3.32s-.27,2.78-1.16,3.34Z" transform="translate(-9.123 -18.991)"/>
</svg>
