<svg id="Layer_1" data-name="Layer 1" xmlns="http://www.w3.org/2000/svg" viewBox="0 0 44 44"><defs><style>.cls-1{fill:none;stroke:#fff;stroke-miterlimit:10;}.cls-2{fill:#182ac3;}</style></defs><rect class="cls-1" x="-517.3" y="-57.86" width="1621.72" height="1060.09"/><path id="Path_2111" data-name="Path 2111" class="cls-2" d="M34.12,25.68a1.64,1.64,0,0,0-1.55-1.09c-1.88-.25-3.81-.53-5.75-.82a1,1,0,0,1-.67-.42c-.76-1.47-1.49-2.93-2.26-4.46l-.67-1.34h.16A1.91,1.91,0,0,0,25,15.93a12.78,12.78,0,0,0,0-1.75v-.91h.07l1.46-.84c1.17-.68,2.39-1.38,3.56-2.11A3.58,3.58,0,0,0,32,7.11V6.5a11.22,11.22,0,0,0,0-1.64,1.83,1.83,0,0,0-.3-.61c-.06-.08-.11-.17-.16-.25H12.45l-.16.17a1.72,1.72,0,0,0-.31.62A8.69,8.69,0,0,0,12,6v.75a3.8,3.8,0,0,0,2.08,3.58l3.15,1.9,1.82,1v.09C18.59,15.91,19,17,20.6,17.51l.15.06-.69,1.35c-.71,1.44-1.46,2.94-2.22,4.4a1,1,0,0,1-.66.42c-1.8.27-3.71.56-5.68.81-.95.12-1.45.47-1.66,1.17a1.67,1.67,0,0,0,.72,1.76c.4.4.81.79,1.23,1.19.87.85,1.77,1.72,2.68,2.55a1.31,1.31,0,0,1,.43,1.33c-.24,1.27-.47,2.53-.7,3.8L14,37.55c-.25,1.39-.08,1.78,1,2.43h.74l1.42-.71c1.39-.72,2.85-1.47,4.26-2.22a1.15,1.15,0,0,1,1.16,0l4.26,2.22,1.42.73H29c1.1-.66,1.25-1,1-2.43l-.13-.73c-.25-1.42-.51-2.85-.77-4.27a1.29,1.29,0,0,1,.43-1.3l3-2.82,1-1A1.57,1.57,0,0,0,34.12,25.68ZM16.75,10.61l-1.54-.89C13.65,8.8,13.06,8,13.06,6.61a8.81,8.81,0,0,1,.13-1.34V5.16H30.75v.11c.39,2.32-.07,3.42-1.83,4.37-1.93,1.06-3.84,2.2-5.62,3.29a2.45,2.45,0,0,1-1.34.43A2.38,2.38,0,0,1,20.67,13C19.39,12.15,18.05,11.36,16.75,10.61ZM20.29,16c-.22-.23-.23-.64-.16-1.31v-.13h3.76v.13c.08.63.08,1-.16,1.3s-.59.3-1.17.3H21.44C20.84,16.32,20.46,16.27,20.29,16ZM32.8,26c-.36.39-.7.8-1,1.19a21.64,21.64,0,0,1-2.5,2.66A3.12,3.12,0,0,0,28,32.36a5.08,5.08,0,0,0,.17,1.17,27.33,27.33,0,0,1,.63,3.32c.07.45.15.91.22,1.36a1.71,1.71,0,0,1,0,.32V39l-.19-.08-.3-.13-.47-.22-1.3-.65c-1.29-.66-2.63-1.35-3.93-2a1.34,1.34,0,0,0-1.44,0c-1.34.72-2.7,1.42-4,2.09l-1.21.62-.45.21-.39.16-.23.1.17-1c.08-.54.15-1,.24-1.52l.1-.6c.21-1.16.41-2.36.65-3.52a1.57,1.57,0,0,0-.56-1.66c-1-.93-2-1.91-3-2.86l-1.08-1-.34-.36L11,26.22,10.82,26l1.27-.2,2.44-.37.79-.12c.84-.12,1.71-.27,2.57-.35A1.19,1.19,0,0,0,19,24.24c.68-1.41,1.4-2.82,2.09-4.19L21.59,19c.07-.13.14-.26.25-.44l.2-.32.11-.19.12.19a2.9,2.9,0,0,1,.2.33c.13.2.22.35.31.52l.4.77c.71,1.42,1.46,2.9,2.17,4.35a1.27,1.27,0,0,0,1.1.82c1.42.16,2.86.38,4.26.59l1.34.19.68.13.34.07Z"/></svg>